<svg width="18" height="16" viewBox="0 0 18 16" fill="none" xmlns="http://www.w3.org/2000/svg">
<path d="M18 6.32707V9.10601C18 9.32712 17.9093 9.53917 17.748 9.69551C17.5866 9.85186 17.3678 9.93969 17.1395 9.93969H8.82179V14.5944C8.82221 14.7596 8.77197 14.9212 8.67745 15.0587C8.58294 15.1961 8.4484 15.3033 8.29091 15.3666C8.13342 15.4298 7.96008 15.4464 7.79289 15.414C7.6257 15.3817 7.47219 15.302 7.35185 15.1849L0.25308 8.30707C0.172863 8.22961 0.109212 8.13758 0.0657833 8.03625C0.0223543 7.93491 0 7.82627 0 7.71654C0 7.60682 0.0223543 7.49817 0.0657833 7.39684C0.109212 7.2955 0.172863 7.20347 0.25308 7.12602L7.35185 0.248137C7.47219 0.13113 7.6257 0.0513996 7.79289 0.0190617C7.96008 -0.0132762 8.13342 0.00323629 8.29091 0.0665046C8.4484 0.129773 8.58294 0.236945 8.67745 0.37442C8.77197 0.511896 8.82221 0.673477 8.82179 0.838662V5.49339H17.1395C17.3678 5.49339 17.5866 5.58122 17.748 5.73757C17.9093 5.89391 18 6.10596 18 6.32707Z" fill="#141B41"/>
</svg>
