<svg width="128" height="67" viewBox="0 0 128 67" fill="none" xmlns="http://www.w3.org/2000/svg">
<mask id="mask0" mask-type="alpha" maskUnits="userSpaceOnUse" x="0" y="0" width="128" height="63">
<path d="M0 0H128V63H0V0Z" fill="#31C02E"/>
</mask>
<g mask="url(#mask0)">
<path d="M28.9348 56.515C28.9081 56.4458 28.8613 56.3861 28.8003 56.3437C28.7394 56.3014 28.6672 56.2781 28.593 56.2771C24.58 56.1582 22.4696 58.9079 22.0386 62.7425C21.9865 63.5959 22.1332 64.4498 22.4669 65.237C22.8007 66.0242 23.3125 66.7234 23.9621 67.2794C24.6117 67.8353 25.3814 68.2331 26.2107 68.4413C27.0401 68.6495 27.9064 68.6626 28.7416 68.4794C34.8501 67.4242 35.3109 57.7189 28.9348 56.515ZM31.4466 64.4368C31.3205 64.4368 31.1995 64.4869 31.1103 64.5761C31.0211 64.6653 30.971 64.7862 30.971 64.9123C30.971 65.0385 31.0211 65.1595 31.1103 65.2487C31.1995 65.3379 31.3205 65.388 31.4466 65.388C31.0167 66.0023 30.4526 66.5106 29.7969 66.8742C29.1052 67.2332 28.3316 67.4046 27.553 67.3714C26.7745 67.3382 26.0183 67.1016 25.3597 66.6851C24.7011 66.2686 24.1632 65.6868 23.7996 64.9976C23.4359 64.3085 23.2592 63.5361 23.287 62.7573C23.2978 61.3788 23.8084 60.051 24.7241 59.0205C25.6398 57.99 26.8983 57.3268 28.266 57.1541C28.2722 57.2403 28.3017 57.3232 28.3514 57.3939C28.4012 57.4646 28.4693 57.5205 28.5484 57.5554C30.5845 58.5215 32.0857 59.6956 32.3235 62.0142C32.4151 62.896 32.2608 63.7859 31.8776 64.5854C31.8209 64.5176 31.746 64.4676 31.6616 64.4413C31.5773 64.4149 31.4872 64.4134 31.402 64.4368H31.4466Z" fill="#484751"/>
<path d="M28.1481 60.884C28.0482 60.8917 27.9552 60.9377 27.8886 61.0126C27.8221 61.0874 27.7873 61.1852 27.7914 61.2853V61.2853H27.5685C26.8551 61.7311 26.1862 62.5932 26.8253 63.3958C27.1242 63.7058 27.5199 63.9042 27.9471 63.9583C28.3742 64.0123 28.807 63.9188 29.1736 63.6931C29.4709 63.5133 29.7032 63.2435 29.8368 62.9228C29.9704 62.6022 29.9984 62.2472 29.9167 61.9096C29.7921 61.5562 29.5455 61.2589 29.2214 61.0709C28.8972 60.883 28.5167 60.8167 28.1481 60.884V60.884ZM28.7129 62.831C28.5643 62.9264 28.3915 62.9771 28.215 62.9771C28.0385 62.9771 27.8656 62.9264 27.7171 62.831C27.3306 62.6378 27.8806 62.1176 28.0589 61.9541C28.1118 61.9136 28.1487 61.8557 28.163 61.7906C28.4156 61.8798 28.7723 61.8947 28.8615 62.1622C28.9161 62.2741 28.9311 62.4011 28.9041 62.5226C28.8771 62.6441 28.8097 62.7528 28.7129 62.831V62.831Z" fill="#484751"/>
<path d="M26.3937 58.7293H26.1559C25.3087 58.5361 25.3087 59.9332 26.1559 59.74L26.3937 59.6508C26.5159 59.6508 26.6331 59.6022 26.7195 59.5158C26.8059 59.4294 26.8544 59.3123 26.8544 59.1901C26.8544 59.0679 26.8059 58.9507 26.7195 58.8643C26.6331 58.7779 26.5159 58.7293 26.3937 58.7293Z" fill="#484751"/>
<path d="M29.3661 59.9772C29.502 59.9553 29.6236 59.8803 29.7044 59.7689C29.7852 59.6575 29.8185 59.5186 29.7971 59.3826C29.7777 59.2755 29.726 59.1768 29.649 59.0998C29.572 59.0228 29.4733 58.9711 29.3661 58.9517C29.2302 58.9736 29.1085 59.0484 29.0278 59.1598C28.947 59.2713 28.9136 59.4102 28.935 59.5461C28.9545 59.6533 29.0062 59.752 29.0832 59.829C29.1602 59.9061 29.2589 59.9578 29.3661 59.9772V59.9772Z" fill="#484751"/>
<path d="M25.2936 62.1331C25.2716 61.9972 25.2019 61.8736 25.0971 61.7843C24.9922 61.6951 24.859 61.646 24.7213 61.646C24.5836 61.646 24.4504 61.6951 24.3456 61.7843C24.2407 61.8736 24.1711 61.9972 24.1491 62.1331C24.144 62.2493 24.1686 62.3649 24.2206 62.469C24.2726 62.573 24.3503 62.662 24.4464 62.7277C24.5409 62.7783 24.6477 62.8017 24.7548 62.7953C24.8619 62.7888 24.9651 62.7527 25.0529 62.6911C25.1407 62.6295 25.2097 62.5447 25.2522 62.4462C25.2947 62.3477 25.309 62.2393 25.2936 62.1331V62.1331Z" fill="#484751"/>
<path d="M31.4022 61.0625C31.27 61.0842 31.1498 61.1521 31.0631 61.2542C30.9763 61.3563 30.9287 61.4859 30.9287 61.6198C30.9287 61.7538 30.9763 61.8834 31.0631 61.9855C31.1498 62.0876 31.27 62.1555 31.4022 62.1772V62.1772C31.5344 62.1555 31.6546 62.0876 31.7413 61.9855C31.8281 61.8834 31.8757 61.7538 31.8757 61.6198C31.8757 61.4859 31.8281 61.3563 31.7413 61.2542C31.6546 61.1521 31.5344 61.0842 31.4022 61.0625V61.0625Z" fill="#484751"/>
<path d="M22.337 59.1901C22.5158 58.5874 22.7865 58.0159 23.1396 57.4957C23.3923 57.1539 22.8275 56.708 22.56 57.0499C22.0543 57.5868 21.7003 58.2485 21.5344 58.9671C21.5067 59.0715 21.5207 59.1827 21.5734 59.277C21.6261 59.3713 21.7134 59.4414 21.8168 59.4725C21.8695 59.4906 21.9253 59.4976 21.9808 59.493C22.0363 59.4884 22.0902 59.4724 22.1391 59.4458C22.188 59.4193 22.2309 59.3828 22.265 59.3388C22.299 59.2948 22.3236 59.2441 22.337 59.1901V59.1901Z" fill="#484751"/>
<path d="M32.71 56.8711C32.1452 56.5293 31.6845 57.3616 32.2047 57.7481C32.8625 58.1967 33.4235 58.7728 33.8544 59.4423C34.2097 60.2041 34.3779 61.0399 34.3449 61.8798C34.3449 62.4297 35.2961 62.623 35.3704 62.0136C35.5009 60.9878 35.3163 59.9465 34.8411 59.028C34.3659 58.1096 33.6227 57.3573 32.71 56.8711V56.8711Z" fill="#484751"/>
<path d="M98.4329 56.3363H98.2843C96.709 55.7055 94.9653 55.6328 93.343 56.1303C91.7207 56.6278 90.3175 57.6655 89.3667 59.071C87.1522 62.0435 88.8168 66.0564 91.8339 67.7508C93.2636 68.5931 94.9688 68.8346 96.5761 68.4223C98.1835 68.0101 99.5619 66.9776 100.41 65.5511L100.603 65.1796C102.074 62.3408 102.476 57.2429 98.4329 56.3363ZM99.2504 64.8972C97.7641 67.6319 94.5241 67.8697 92.0271 66.4726C90.91 65.879 90.0734 64.8671 89.7002 63.6584C89.327 62.4496 89.4476 61.1423 90.0355 60.0222C90.2288 59.6688 90.4633 59.3395 90.7341 59.0413C91.6029 58.0993 92.7145 57.415 93.9469 57.0636C95.1792 56.7123 96.4846 56.7075 97.7195 57.0497C97.7475 57.1441 97.7969 57.2308 97.864 57.303C97.931 57.3752 98.0138 57.431 98.1059 57.4659C101.316 58.7589 100.514 62.4894 99.2206 64.8972H99.2504Z" fill="#484751"/>
<path d="M95.6677 63.4108C95.7976 63.3836 95.9141 63.3126 95.998 63.2099C96.0818 63.1071 96.1279 62.9787 96.1285 62.846C96.1924 62.7966 96.2459 62.7349 96.2858 62.6647C96.3257 62.5944 96.3513 62.5169 96.361 62.4367C96.3707 62.3565 96.3643 62.2751 96.3422 62.1974C96.3202 62.1197 96.2829 62.0471 96.2325 61.9839C96.1834 61.9232 96.1228 61.8727 96.0542 61.8354C95.855 61.7417 95.6455 61.6718 95.4299 61.6273C95.3421 61.5548 95.2317 61.5151 95.1178 61.5151C95.0039 61.5151 94.8936 61.5548 94.8057 61.6273V61.6273H94.6571C94.5242 61.703 94.412 61.8101 94.3301 61.9393C94.2494 62.0908 94.2176 62.2635 94.2388 62.4338C94.2601 62.6041 94.3336 62.7636 94.449 62.8905C94.579 63.087 94.7638 63.241 94.9804 63.3334C95.197 63.4259 95.436 63.4528 95.6677 63.4108V63.4108Z" fill="#484751"/>
<path d="M95.8772 59.6506H96.1447C96.2942 59.6056 96.4206 59.505 96.4981 59.3695C96.5755 59.234 96.598 59.074 96.5609 58.9224C96.5431 58.7986 96.4858 58.6838 96.3974 58.5953C96.3974 58.6697 96.3974 58.5954 96.3082 58.4914C96.2491 58.4289 96.1784 58.3784 96.1001 58.3427C96.0166 58.2963 95.9245 58.2671 95.8295 58.257C95.7344 58.2468 95.6382 58.2558 95.5467 58.2836C95.4552 58.3113 95.3702 58.3571 95.2968 58.4184C95.2233 58.4796 95.1629 58.5549 95.1192 58.64C95.1136 58.6844 95.1136 58.7294 95.1192 58.7738C94.9409 59.2197 95.3867 59.7992 95.8772 59.6506Z" fill="#484751"/>
<path d="M92.8592 60.6314C92.904 60.4458 92.904 60.2522 92.8592 60.0666C92.8176 59.9189 92.7192 59.7937 92.5854 59.7185C92.4517 59.6432 92.2936 59.6241 92.1458 59.6653C92.0514 59.6946 91.9655 59.7464 91.8956 59.8163C91.8257 59.8862 91.7738 59.9722 91.7445 60.0666C91.6997 60.2522 91.6997 60.4458 91.7445 60.6314C91.7662 60.7636 91.8341 60.8838 91.9362 60.9705C92.0383 61.0572 92.1679 61.1048 92.3019 61.1048C92.4358 61.1048 92.5654 61.0572 92.6675 60.9705C92.7696 60.8838 92.8376 60.7636 92.8592 60.6314V60.6314Z" fill="#484751"/>
<path d="M90.8537 62.6678C90.7763 62.7016 90.7065 62.7504 90.6481 62.8114C90.5897 62.8724 90.544 62.9445 90.5136 63.0232C90.4832 63.102 90.4687 63.1859 90.4709 63.2703C90.4732 63.3547 90.4922 63.4379 90.5267 63.5149C90.5862 63.6285 90.6731 63.7256 90.7794 63.7973V63.7973C90.8554 63.8389 90.9389 63.865 91.025 63.874C91.1112 63.8831 91.1982 63.8749 91.2812 63.85C91.3642 63.8251 91.4414 63.784 91.5083 63.7291C91.5752 63.6741 91.6306 63.6063 91.6711 63.5298V63.4109C91.747 63.2787 91.7678 63.1218 91.7289 62.9743C91.6899 62.8269 91.5944 62.7007 91.4631 62.6232C91.3674 62.5731 91.2597 62.5508 91.152 62.5587C91.0444 62.5666 90.941 62.6044 90.8537 62.6678V62.6678Z" fill="#484751"/>
<path d="M99.0872 60.3493C98.9621 60.2593 98.807 60.2213 98.6545 60.2435C98.502 60.2657 98.364 60.3462 98.2697 60.4681C98.1973 60.5673 98.1582 60.6871 98.1582 60.81C98.1582 60.9329 98.1973 61.0526 98.2697 61.1518L98.3738 61.2707C98.8791 61.8058 99.7411 60.9586 99.1912 60.4532L99.0872 60.3493Z" fill="#484751"/>
<path d="M100.901 56.3065C100.485 56.0538 99.9941 56.6632 100.381 56.9753C100.974 57.4798 101.364 58.182 101.48 58.952C101.584 59.502 102.506 59.383 102.446 58.8331C102.409 58.3191 102.25 57.8215 101.981 57.3819C101.712 56.9423 101.342 56.5735 100.901 56.3065V56.3065Z" fill="#484751"/>
<path d="M102.595 44.0894C102.001 44.0894 101.823 45.0406 102.447 45.1446C102.779 45.1451 103.106 45.2249 103.4 45.3775C103.695 45.53 103.949 45.7509 104.141 46.0216C104.438 46.5863 103.77 47.0916 103.353 47.2997C102.937 47.5078 101.615 47.8348 101.065 47.2997C100.515 46.7647 100.99 45.8135 101.184 45.2635C101.377 44.7136 100.53 44.3718 100.247 44.8622C99.8994 45.3364 99.7119 45.9091 99.7119 46.4972C99.7119 47.0852 99.8994 47.6579 100.247 48.132C101.079 49.0981 102.774 48.8305 103.799 48.3847C104.299 48.202 104.72 47.852 104.991 47.3942C105.262 46.9363 105.366 46.3988 105.286 45.8729C105.099 45.319 104.733 44.8431 104.246 44.5201C103.759 44.1972 103.178 44.0456 102.595 44.0894V44.0894Z" fill="#484751"/>
<path d="M114.886 58.001C114.99 56.1729 115.347 54.5826 113.875 53.2449C113.697 53.0951 113.497 52.9747 113.281 52.8882C113.327 52.8618 113.367 52.8264 113.4 52.7842C114.514 51.4763 113.979 49.0983 113.637 47.5971C113.458 46.3672 112.944 45.2104 112.151 44.253C112.656 41.444 112.062 39.7943 109.862 39.17C109.891 39.1019 109.906 39.0286 109.906 38.9545C109.906 38.8804 109.891 38.8071 109.862 38.739C108.926 34.9787 107.603 27.5028 103.338 25.9274C102.695 25.6874 102.034 25.4985 101.361 25.3626C101.391 25.2556 101.391 25.1426 101.361 25.0356C101.301 24.4079 101.108 23.8 100.796 23.2521C100.811 23.1785 100.811 23.1027 100.796 23.0291C100.993 22.1015 100.945 21.1388 100.659 20.2349C100.372 19.331 99.8563 18.5168 99.1612 17.8718C101.197 16.5788 106.31 15.7762 105.79 12.8334C105.493 11.1688 102.743 10.2027 101.331 10.1135C99.9192 10.0243 98.6707 12.0011 97.6601 13.3388C97.748 11.7607 97.4523 10.1849 96.798 8.74616C96.0252 7.25989 94.0039 6.9775 92.3393 6.9775C93.454 3.64827 93.8255 -1.49421 89.3667 -1.94009C88.6087 -2.02926 87.8804 -2.05895 87.0333 -2.08868C87.0333 -2.35621 86.959 -2.63859 86.9441 -2.92098C86.9223 -3.04511 86.8522 -3.15551 86.7491 -3.22796C86.646 -3.30041 86.5183 -3.32901 86.3942 -3.30743C86.2979 -3.29056 86.2091 -3.2444 86.1399 -3.17526C86.0708 -3.10611 86.0246 -3.01731 86.0078 -2.92098C85.978 -2.64434 85.978 -2.36532 86.0078 -2.08868C83.6446 -2.08868 81.2369 -1.9401 78.9629 -1.95497H77.0159V-2.43058C76.9959 -2.54416 76.9365 -2.647 76.8481 -2.72114C76.7598 -2.79528 76.6481 -2.83598 76.5328 -2.83598C76.4175 -2.83598 76.3059 -2.79528 76.2175 -2.72114C76.1292 -2.647 76.0698 -2.54416 76.0498 -2.43058V-1.95497C73.5083 -1.95497 70.9817 -1.86572 68.4401 -1.79141V-2.32653C68.4449 -2.44029 68.4073 -2.55178 68.3347 -2.6395C68.2621 -2.72722 68.1597 -2.78489 68.047 -2.80151C67.9344 -2.81813 67.8196 -2.7925 67.7248 -2.72948C67.6299 -2.66646 67.5618 -2.57053 67.5335 -2.46024C67.4553 -2.2264 67.3908 -1.98822 67.3403 -1.74687L64.3677 -1.62794C64.2585 -1.63739 64.1496 -1.60621 64.0618 -1.5404C63.9741 -1.47459 63.9137 -1.37879 63.8921 -1.27125C63.4591 2.14063 63.7271 5.60497 64.6799 8.90962C64.7054 8.99907 64.7624 9.07633 64.8403 9.12716C64.9182 9.17799 65.0118 9.19904 65.104 9.18639C65.1961 9.17374 65.2806 9.12825 65.342 9.05831C65.4033 8.98836 65.4374 8.8986 65.4379 8.80558C65.4379 7.42335 63.5057 -0.661846 65.6905 -0.676709H67.1768C67.1639 0.670807 67.2934 2.01584 67.5632 3.33613C66.0769 4.52514 66.0769 7.02208 66.2702 9.38524C65.9528 9.23137 65.6047 9.15147 65.2521 9.15147C64.8994 9.15147 64.5513 9.23137 64.234 9.38524C64.152 9.43079 64.0839 9.49772 64.0368 9.57882C63.9897 9.65993 63.9654 9.7522 63.9665 9.84598C63.9254 10.7844 63.9702 11.7247 64.1002 12.655C63.3441 12.6697 62.5938 12.7897 61.8708 13.0117C59.7752 13.6805 60.8156 16.445 60.5778 18.0947C59.9687 18.2347 59.4025 18.5203 58.928 18.927C58.5724 19.3054 58.3116 19.7626 58.167 20.2613C58.0223 20.7599 57.9979 21.2857 58.0957 21.7956C56.1889 22.4785 54.4685 23.5982 53.0721 25.0653C51.9671 25.2982 50.8756 25.591 49.8024 25.9422C46.0713 27.3264 42.5655 29.2546 39.3985 31.6643C36.426 33.8194 33.8102 37.6094 30.0499 38.4714C29.9897 38.4786 29.9315 38.498 29.879 38.5284C29.8266 38.5588 29.7808 38.5996 29.7447 38.6483C29.7085 38.697 29.6826 38.7526 29.6687 38.8116C29.6547 38.8707 29.6529 38.9319 29.6635 38.9916C29.6565 39.0209 29.6565 39.0515 29.6635 39.0809C24.891 39.2632 20.1402 39.8198 15.4548 40.7455C11.6499 41.4589 7.33981 42.7817 5.64547 46.6014C5.60112 46.6782 5.57775 46.7653 5.57775 46.854C5.57775 46.9427 5.60112 47.0298 5.64547 47.1066C4.81028 47.5053 4.1674 48.2191 3.85808 49.0913C3.54876 49.9635 3.59826 50.9229 3.99569 51.7587C4.11127 51.9952 4.25071 52.2193 4.41184 52.4275C4.32501 52.4825 4.25983 52.5658 4.22733 52.6633C4.19483 52.7608 4.19701 52.8664 4.2335 52.9625C2.01897 54.2853 2.53914 57.1538 3.14851 59.5318C4.01054 62.861 6.89389 63.1732 9.88129 63.2921C10.2321 63.2799 10.5827 63.32 10.9217 63.411C12.1999 66.3835 16.6289 65.0162 19.0961 64.8973H19.1704C19.5521 66.6268 20.4401 68.2035 21.7212 69.4264C23.0023 70.6493 24.6186 71.463 26.364 71.7638C28.6463 71.9676 30.9278 71.3635 32.8102 70.0569C34.6926 68.7504 36.0565 66.8244 36.6638 64.6149C36.6657 64.6709 36.6788 64.7258 36.7024 64.7766C36.726 64.8274 36.7597 64.873 36.8013 64.9104C36.843 64.9479 36.8917 64.9765 36.9447 64.9947C36.9977 65.0129 37.0538 65.0201 37.1097 65.0161C45.6854 65.1796 54.2611 65.3283 62.8369 65.5215C70.5209 65.6998 78.1008 65.997 85.7254 64.8378H85.8145C86.2641 66.9098 87.4303 68.7568 89.1077 70.0537C90.7852 71.3505 92.8663 72.014 94.9848 71.9273C96.9753 71.8032 98.8793 71.0689 100.438 69.8243C101.996 68.5798 103.133 66.8854 103.694 64.9716C103.807 65.0648 103.939 65.1309 104.081 65.1648C104.65 65.2483 105.231 65.1384 105.731 64.8526C106.303 64.5432 106.841 64.1746 107.336 63.7528C107.771 63.4566 108.148 63.084 108.45 62.653C110.28 62.7111 112.099 62.3555 113.771 61.6126C115.213 60.81 114.812 59.2792 114.886 58.001ZM112.478 52.0559C112.421 52.1526 112.39 52.2629 112.39 52.3754C112.39 52.4879 112.421 52.5984 112.478 52.695C111.984 52.6355 111.485 52.6355 110.992 52.695C110.814 51.7735 110.68 50.8669 110.576 49.9455C111.285 50.0819 112.019 49.9881 112.671 49.6778C112.827 50.4781 112.76 51.3058 112.478 52.0708V52.0559ZM111.453 45.2934C111.886 46.1231 112.221 47.0011 112.448 47.9092C112.477 48.1813 112.532 48.4501 112.612 48.7118V48.7118L110.546 48.9793C110.442 47.8646 110.145 45.9176 110.828 45.0705C110.902 45.1661 110.997 45.2438 111.105 45.2979C111.213 45.3519 111.332 45.3809 111.453 45.3826V45.2934ZM110.784 43.8072C109.387 44.0747 109.446 46.3635 109.446 47.3742C109.466 48.5679 109.561 49.7592 109.729 50.9412C109.77 51.5364 109.88 52.1249 110.056 52.695C109.015 52.8683 107.958 52.9231 106.905 52.8585C105.671 52.6504 104.304 51.2534 103.278 50.5994C102.015 49.8521 100.647 49.2961 99.2207 48.9496C96.3286 48.1765 93.2843 48.1765 90.3922 48.9496L89.872 49.1131C90.2248 46.1398 90.0993 43.1292 89.5005 40.1956C91.938 40.1956 94.3903 40.1955 96.8278 40.0766C99.8003 39.9726 102.609 40.2253 105.493 40.1807H108.688C110.903 40.3739 111.17 42.1723 110.843 43.8963L110.784 43.8072ZM87.3305 27.8893C87.3277 27.8213 87.307 27.7552 87.2705 27.6978C87.2339 27.6403 87.1829 27.5937 87.1224 27.5623L90.6598 27.8595C91.1205 31.5157 90.7787 35.2166 91.1205 38.8728H86.8549C86.9689 38.8203 87.0634 38.733 87.1248 38.6236C87.1862 38.5141 87.2114 38.388 87.1968 38.2633C86.3942 34.7855 87.494 31.382 87.3305 27.8893V27.8893ZM91.6258 27.8893L94.2714 28.0527C97.4074 28.2013 100.514 28.4986 103.011 30.5794C105.24 32.4521 106.266 36.1083 107.395 38.8133C102.401 38.62 97.3925 38.8133 92.3838 38.8133C92.0123 35.2016 92.1758 31.5455 91.5515 27.9339L91.6258 27.8893ZM105.849 30.8618C106.783 32.7555 107.496 34.7503 107.975 36.8068C106.013 32.348 104.229 28.6026 99.0572 27.3839C96.6028 26.9579 94.1169 26.7391 91.6258 26.7299C87.4197 26.4773 83.2136 25.9571 79.0075 25.6152L74.9648 25.3329C81.7125 25.5559 88.4452 26.0314 95.2077 26.18C99.6665 26.18 103.486 26.4327 105.775 30.8618H105.849ZM86.2307 38.6795C86.2698 38.7687 86.3378 38.8421 86.4239 38.8876H85.8443C79.2155 38.8183 72.5868 38.7192 65.9581 38.5904C66.4719 36.836 66.6633 35.003 66.5228 33.1803C66.5656 30.8275 66.3008 28.4791 65.7351 26.1949C69.317 26.1949 72.9138 26.4624 76.2876 26.6407C79.6614 26.8191 83.3176 27.1907 86.8401 27.5326C86.7607 27.5558 86.69 27.602 86.6371 27.6655C86.5841 27.7291 86.5513 27.807 86.5428 27.8893C86.1415 31.1144 84.8187 35.5881 86.1564 38.6795H86.2307ZM62.3464 26.2395H63.0747C63.2233 28.0973 63.149 29.97 63.253 31.8427C63.273 31.9563 63.3324 32.0592 63.4208 32.1333C63.5091 32.2075 63.6208 32.2482 63.7361 32.2482C63.8514 32.2482 63.9631 32.2075 64.0514 32.1333C64.1398 32.0592 64.1991 31.9563 64.2191 31.8427C64.3183 29.9637 64.2086 28.0795 63.8921 26.2246H64.8731C65.3487 30.3328 65.3487 34.4822 64.8731 38.5904H62.614C62.6586 38.5284 62.689 38.4573 62.7031 38.3823C63.3868 34.3248 62.5396 30.2524 62.3316 26.2395H62.3464ZM62.9261 23.8763C62.9212 23.4441 62.9461 23.0121 63.0004 22.5833H63.5503L69.3319 22.7467C69.2595 23.1099 69.2099 23.4773 69.1833 23.8467C67.0282 23.8467 64.9325 23.8467 62.8518 23.8467L62.9261 23.8763ZM63.3868 21.2457C63.6232 20.852 63.953 20.5226 64.3471 20.2867C64.7411 20.0508 65.1872 19.9156 65.646 19.8931C67.1322 19.6851 68.5441 19.5067 69.9858 19.4473C69.9858 20.0566 70.0899 20.666 70.1493 21.2754V21.3497L63.3868 21.2457ZM72.3044 4.30224H71.7842C71.8585 3.9604 71.9477 3.61856 72.0369 3.27672C72.4439 3.31255 72.8335 3.45884 73.1635 3.69981C73.4935 3.94077 73.7515 4.26724 73.9096 4.64405C74.3852 6.13032 73.9096 7.92876 74.1771 9.53392C73.8773 10.0663 73.7623 10.683 73.8501 11.2877C73.7614 11.3535 73.6984 11.448 73.6718 11.5552C73.6422 11.8964 73.6422 12.2395 73.6718 12.5807C72.7949 12.6848 71.8585 12.7145 70.9073 12.7888C70.9221 10.3466 71.1459 7.91016 71.5761 5.50611L72.4828 5.38719C73.0624 5.25342 72.8097 4.36169 72.2598 4.30224H72.3044ZM73.4637 13.5468C74.7419 13.413 75.9755 13.2049 77.2685 13.1752C79.5722 13.1752 78.6656 15.8803 79.0966 17.0544C79.1272 17.1275 79.1727 17.1933 79.2304 17.2476C78.1304 17.4533 77.0545 17.772 76.0201 18.1988C75.7536 18.3216 75.5233 18.511 75.3513 18.7487C73.9179 18.4934 72.4669 18.3493 71.0113 18.3177C71.0113 16.8314 70.8776 15.3452 70.8776 13.7697C71.695 13.6806 72.5719 13.6359 73.4191 13.5468H73.4637ZM79.2899 8.9245C81.118 8.62725 82.9461 8.44894 84.789 8.31517C85.2328 10.0165 85.536 11.7513 85.6956 13.5022C83.5257 13.5022 81.3112 13.9481 81.5192 16.4748C81.5192 16.5812 81.5615 16.6832 81.6368 16.7585C81.712 16.8338 81.8141 16.8761 81.9205 16.8761C82.027 16.8761 82.129 16.8338 82.2043 16.7585C82.2795 16.6832 82.3218 16.5812 82.3218 16.4748C82.411 14.7061 84.1053 14.4683 85.7699 14.4831C85.7699 15.2114 85.8443 15.9694 85.8592 16.6382C83.8676 16.67 81.8809 16.8439 79.9141 17.1585V16.9949C79.8101 15.8356 80.3154 13.2941 78.8737 12.6402C77.4999 12.1648 76.0168 12.1028 74.6081 12.4618C74.6378 12.1703 74.6378 11.8765 74.6081 11.585V11.585C74.7568 9.1475 77.3428 9.29605 79.2453 8.9988L79.2899 8.9245ZM79.7655 4.46571C79.8483 4.4871 79.9352 4.4871 80.0181 4.46571C80.2186 4.42042 80.4224 4.39061 80.6275 4.37654C80.9587 4.34682 81.292 4.34682 81.6233 4.37654C81.7055 4.42077 81.7974 4.44394 81.8908 4.44394C81.9842 4.44394 82.0761 4.42077 82.1583 4.37654C82.5534 4.42108 82.9523 4.42108 83.3474 4.37654C83.7926 5.34343 84.1797 6.33604 84.5067 7.34907C82.5002 7.51255 80.5086 7.73554 78.5616 8.04766C78.413 6.56139 78.1454 5.07507 79.7209 4.55488L79.7655 4.46571ZM76.1092 23.7871C76.2081 23.4701 76.2484 23.1377 76.2282 22.8063C79.2899 22.8063 82.3515 22.8062 85.4133 22.9251C85.3945 23.2002 85.3547 23.4735 85.2944 23.7426C85.1755 24.456 86.2753 24.7681 86.3942 24.0398C86.4279 23.6704 86.4825 23.3032 86.5577 22.94H87.8805C89.3667 22.94 90.853 23.0292 92.4433 23.1035C92.3997 23.6556 92.5185 24.2083 92.7851 24.6937H91.2988C86.2158 24.6937 81.1922 24.0547 76.1092 23.9061H76.1836L76.1092 23.7871ZM77.7739 18.6001C80.2193 18.0663 82.7051 17.7382 85.2052 17.6192H85.9037C85.8892 18.9805 85.7999 20.34 85.6362 21.6916C83.6446 21.6024 81.6381 21.5132 79.6911 21.5132H76.1241C75.9196 20.9928 75.93 20.4126 76.1529 19.8999C76.3759 19.3871 76.7931 18.9838 77.3131 18.7784C77.4469 18.7232 77.5865 18.6833 77.7293 18.6595L77.7739 18.6001ZM74.8013 21.3943H71.1451V21.2902C71.1451 20.666 71.0708 20.0418 71.0262 19.4324C72.3207 19.4125 73.6143 19.512 74.8905 19.7297C74.7741 20.3015 74.7391 20.8869 74.7865 21.4686L74.8013 21.3943ZM75.0094 22.8805C75.0986 23.267 75.2026 23.6088 75.2918 23.8763L75.3958 24.0101L70.4763 23.8912C70.4563 23.5255 70.4964 23.159 70.5952 22.8063C72.0815 22.8063 73.5677 22.8954 75.054 22.8954L75.0094 22.8805ZM93.8255 24.7533C93.8785 24.459 93.8314 24.1555 93.6918 23.8912C93.6316 23.6817 93.5869 23.4681 93.558 23.2521H94.212C95.9212 23.2521 99.4436 22.3752 99.9192 25.0951C97.8944 24.8302 95.8522 24.721 93.8106 24.7681L93.8255 24.7533ZM97.6304 14.7953C98.968 13.9035 99.5476 12.2983 100.826 11.3471C102.104 10.3959 105.701 12.5808 104.437 13.9035C102.817 15.6127 99.8746 15.5384 98.2397 17.2179C97.9349 17.0568 97.6166 16.9225 97.2885 16.8166C97.4074 16.1775 97.5263 15.4938 97.6155 14.8101L97.6304 14.7953ZM98.9977 18.8082C99.9192 19.5662 99.83 21.0821 99.8449 22.3009C98.7399 21.8102 97.522 21.6304 96.3224 21.7807C93.1418 21.9591 89.9018 21.7807 86.6766 21.7807C86.8401 20.4134 86.9441 19.0014 86.9739 17.5746C89.2181 17.4557 91.4327 17.5746 93.7066 17.5746C95.5542 17.4081 97.4058 17.8463 98.9829 18.8231L98.9977 18.8082ZM86.959 14.4682H88.1926C89.9018 14.3939 94.0633 13.5319 93.885 16.2518C91.5961 16.1477 89.0992 16.4005 86.9887 16.4896C86.9887 15.8505 86.9887 15.1668 86.9887 14.4831L86.959 14.4682ZM93.454 8.12195C97.4817 8.33003 96.7386 13.7995 96.263 16.549C95.8023 16.4599 95.3415 16.3855 94.8659 16.3409C95.6834 12.8185 90.7787 13.2941 88.6236 13.4725H86.8846C86.7657 11.6864 86.4822 9.91523 86.0375 8.18137L88.4155 8.07732C90.0801 8.07732 91.7745 8.07732 93.4391 8.07732L93.454 8.12195ZM91.6704 1.56747C91.8727 3.2597 91.7209 4.97553 91.2246 6.60593C91.1802 6.72581 91.1802 6.85762 91.2246 6.9775H90.2139C90.2139 5.32775 90.3477 3.78205 88.9209 2.7268C88.5921 2.50338 88.2036 2.38427 87.8062 2.38499C87.7917 1.31313 87.657 0.246239 87.4048 -0.795635C89.0843 -0.795635 91.3881 -1.22669 91.6556 1.58235L91.6704 1.56747ZM86.9739 3.52935C87.0648 3.59468 87.174 3.62987 87.286 3.62987C87.398 3.62987 87.5071 3.59468 87.5981 3.52935C89.4708 3.52935 89.2627 5.71419 89.233 7.08155C88.0737 7.08155 86.8995 7.18559 85.7402 7.27477C85.4096 6.18562 84.987 5.12655 84.4769 4.10902C85.2914 3.86826 86.1205 3.67961 86.959 3.54423L86.9739 3.52935ZM77.0902 -0.82539H77.7441C80.5829 -0.82539 83.4514 -0.676767 86.2901 -0.736217C86.5423 0.319899 86.6622 1.40326 86.6469 2.48895C85.7254 2.63758 84.7593 2.94971 83.9716 3.15779C83.7107 2.68733 83.4177 2.23546 83.0947 1.80533C83.0353 1.71217 82.9445 1.64343 82.8387 1.61165C82.7329 1.57988 82.6192 1.58712 82.5183 1.63215C82.4175 1.67718 82.3361 1.75697 82.2891 1.85694C82.2422 1.95692 82.2327 2.0705 82.2624 2.17689C82.2044 2.19755 82.153 2.23351 82.1137 2.28094C82.0246 2.38498 81.876 2.39982 81.7719 2.53358L81.549 2.9349C81.5026 3.05651 81.4629 3.18055 81.4301 3.30647H80.0776C79.7209 2.25122 78.4724 2.31063 77.2239 2.51871C77.0777 1.41539 77.028 0.301442 77.0753 -0.810513L77.0902 -0.82539ZM76.3173 3.7077C76.3463 3.77427 76.3883 3.83449 76.4406 3.88477C76.493 3.93506 76.5549 3.97445 76.6226 4.00071C76.6903 4.02696 76.7626 4.03953 76.8352 4.03772C76.9078 4.0359 76.9793 4.0197 77.0456 3.99009C77.1445 3.94838 77.2286 3.87792 77.2869 3.7878C77.3452 3.69768 77.375 3.59212 77.3726 3.48481C77.6129 3.39548 77.8692 3.35725 78.1251 3.3726C78.381 3.38796 78.6309 3.45656 78.8588 3.57399C78.6433 3.66431 78.4389 3.77897 78.2494 3.9158C76.9564 4.92646 77.2388 6.71002 77.6847 8.13683L76.3916 8.37459C75.9221 8.45597 75.4633 8.59064 75.0243 8.77591C75.1596 7.10297 75.0088 5.41916 74.5784 3.79687C75.149 3.89361 75.7318 3.89361 76.3024 3.79687L76.3173 3.7077ZM76.0052 -0.82539C75.9135 0.354047 75.9484 1.53992 76.1092 2.71193C75.6233 2.83276 75.1185 2.85798 74.623 2.78622C74.5305 2.76558 74.4341 2.77138 74.3447 2.80291C74.2554 2.83445 74.1767 2.89045 74.1176 2.96457C73.8915 2.69624 73.5919 2.49991 73.2556 2.39978C73.2432 2.00674 73.2084 1.61476 73.1516 1.22566C73.144 1.12052 73.0969 1.02216 73.0197 0.950435C72.9424 0.878709 72.8408 0.83895 72.7354 0.839219H72.6611C72.6115 0.754862 72.5305 0.693541 72.4359 0.668495C72.3413 0.643449 72.2407 0.656752 72.1558 0.705506C72.0978 0.734338 72.0508 0.781255 72.022 0.839219C71.804 1.30492 71.596 1.76565 71.3978 2.22143C70.5061 2.30073 69.6247 2.47007 68.7671 2.7268C68.625 1.58297 68.5555 0.431277 68.559 -0.72134L76.0052 -0.82539ZM67.801 4.62918C67.9157 4.40374 68.0721 4.20208 68.2617 4.03472C68.3588 4.02029 68.4512 3.98313 68.5313 3.92632C68.6113 3.86951 68.6768 3.79459 68.7225 3.7077C69.4178 3.33688 70.1937 3.14291 70.9816 3.14291C70.8479 3.52934 70.7141 3.91583 70.6101 4.31712C70.0212 4.35293 69.4354 4.42735 68.8563 4.54C68.7261 4.56536 68.6105 4.63954 68.5332 4.74729C68.4558 4.85503 68.4225 4.98821 68.4401 5.11967C68.4594 5.22294 68.5094 5.31798 68.5837 5.39227C68.658 5.46655 68.753 5.51663 68.8563 5.53587H70.3426C69.8253 7.94821 69.581 10.4111 69.6143 12.878C69.1114 12.9498 68.6146 13.0591 68.128 13.205C68.0945 13.1465 68.0496 13.0954 67.996 13.0545C67.9424 13.0137 67.8811 12.984 67.8159 12.9672V12.9672C67.6821 10.2473 66.612 7.23015 67.8159 4.64405L67.801 4.62918ZM68.9455 14.0521C69.1506 13.9982 69.3591 13.9584 69.5697 13.9332C69.5697 15.4195 69.7035 16.9058 69.8224 18.3177C68.5613 18.345 67.3041 18.4692 66.0621 18.6893C66.1513 16.2667 66.1513 14.7507 68.9306 14.067L68.9455 14.0521ZM65.1406 10.2175C65.5253 10.185 65.9126 10.2202 66.285 10.3216C66.3486 10.3362 66.4147 10.3362 66.4783 10.3216C66.5823 11.2282 66.7012 12.0754 66.7607 12.774C66.2442 12.6852 65.7232 12.6257 65.2 12.5956C65.0936 11.8126 65.0688 11.0206 65.1258 10.2324L65.1406 10.2175ZM62.4207 13.8144C63.8555 13.5022 65.3407 13.5022 66.7755 13.8144C65.2 14.8102 65.0217 16.2518 65.1703 18.0502C63.9466 17.8596 62.7065 17.7948 61.4696 17.857C61.6182 16.4747 61.098 14.171 62.4059 13.8292L62.4207 13.8144ZM59.4482 19.9823C59.9387 19.046 61.8411 19.046 62.718 19.046C63.1749 19.0411 63.6317 19.0659 64.0854 19.1203H63.7584C63.334 19.3094 62.9567 19.59 62.6535 19.942C62.3503 20.2941 62.1287 20.7087 62.0046 21.1564C61.0584 21.1414 60.1128 21.2161 59.1807 21.3794C59.1795 20.9011 59.2861 20.4286 59.4928 19.9972L59.4482 19.9823ZM59.1807 23.9655C59.2401 23.5216 59.2401 23.0718 59.1807 22.6279C60.0045 22.5336 60.834 22.4989 61.6627 22.5239C61.6032 22.9916 61.6807 23.4666 61.8857 23.8912C60.9494 23.8912 59.9981 23.9952 59.0618 24.0844L59.1807 23.9655ZM55.7771 23.9655C56.4613 23.3816 57.2776 22.9735 58.1552 22.7765C58.17 23.0587 58.17 23.3415 58.1552 23.6237C58.134 23.7113 58.1366 23.8029 58.1627 23.8891C58.1888 23.9753 58.2376 24.0531 58.3038 24.1142C57.2337 24.2331 56.1784 24.3668 55.1381 24.5452L55.7771 23.9655ZM45.2395 29.1823C49.2073 27.0584 53.5773 25.7924 58.066 25.4666L55.6731 25.7937C52.2455 26.3253 48.9243 27.3988 45.834 28.9742C42.6386 30.6091 40.0822 33.225 37.0948 35.1571C39.6169 32.9041 42.3607 30.9123 45.2841 29.212L45.2395 29.1823ZM33.8102 38.0999C33.721 38.5913 33.721 39.0947 33.8102 39.5861C33.7558 39.5288 33.6877 39.4863 33.6122 39.4629C33.5367 39.4394 33.4564 39.4359 33.3791 39.4524C33.3513 39.3333 33.2825 39.2277 33.1847 39.1543C33.0868 39.081 32.9662 39.0444 32.8441 39.0511H32.0861C32.7045 38.7798 33.2883 38.4355 33.825 38.0256L33.8102 38.0999ZM16.7925 41.7115C21.9902 40.8677 27.2384 40.3711 32.5022 40.2252C32.0744 41.1889 31.8566 42.2326 31.8632 43.2869C31.7888 44.5205 31.5511 47.0472 32.3536 48.147C29.2273 47.8037 26.0645 48.2341 23.1437 49.4004C20.2228 50.5666 17.6334 52.433 15.6034 54.8352C14.6752 53.7434 13.5251 52.8619 12.2296 52.2491L12.5566 51.9221C13.5375 50.7182 14.0428 47.3148 12.3188 46.5122C10.5507 45.9924 8.66115 46.0654 6.93851 46.7202C8.88552 43.2126 13.0025 42.3654 16.7181 41.7115H16.7925ZM11.4716 47.2999C11.6608 47.3364 11.8366 47.4233 11.9805 47.5515C12.1244 47.6797 12.231 47.8444 12.2891 48.0281C12.4654 48.9174 12.3508 49.8398 11.9621 50.6588C11.8574 50.8822 11.7052 51.08 11.5162 51.2385C11.7668 49.9329 11.7262 48.588 11.3973 47.2999H11.4716ZM10.5204 51.5803H9.19762C9.06139 50.8499 8.99177 50.1087 8.98956 49.3658C8.98956 48.6672 8.98956 47.9835 8.98956 47.285C9.5105 47.198 10.037 47.1483 10.565 47.1364C10.6839 48.6227 10.4461 49.9603 10.461 51.3722C10.4461 51.4408 10.4461 51.5117 10.461 51.5803H10.5204ZM5.57113 48.5037C6.12454 47.9268 6.88255 47.5905 7.68164 47.5674H7.96404C7.66701 48.9437 7.66701 50.3675 7.96404 51.7438C7.13507 51.7335 6.30897 51.8436 5.51166 52.0708C5.486 52.0019 5.45102 51.9369 5.40766 51.8776C4.98753 51.3905 4.77155 50.7601 4.80477 50.1177C4.838 49.4753 5.11786 48.8706 5.58601 48.4294L5.57113 48.5037ZM12.5417 63.6488C14.2212 63.9014 16.1385 64.0649 17.1343 63.2921C17.2412 63.3219 17.3543 63.3219 17.4612 63.2921C17.9612 63.2603 18.458 63.1907 18.9475 63.084V63.7082C17.2829 63.8419 14.2806 64.6743 12.5714 63.7082L12.5417 63.6488ZM18.9773 62.0585C18.6964 62.0555 18.4164 62.0905 18.1449 62.1625H18.026C18.4125 60.8992 18.6651 59.5913 19.0367 58.2983C20.0771 54.642 24.4913 53.5571 27.7908 53.3638C25.935 53.4984 24.1585 54.1701 22.678 55.297C21.1975 56.4239 20.0768 57.9573 19.4528 59.7101C19.198 60.4684 19.0529 61.2592 19.0218 62.0585H18.9773ZM29.827 70.5599C24.0305 72.3137 19.9285 66.8145 20.1663 61.6423C20.4041 56.4701 25.7992 54.211 30.3769 54.8055C30.3928 54.8998 30.4367 54.9871 30.503 55.056C30.5693 55.125 30.6548 55.1723 30.7485 55.1919C39.1013 57.347 37.0353 68.39 29.8567 70.5599H29.827ZM85.4876 63.5596C77.5658 64.7635 69.5994 64.4067 61.6033 64.273C53.6072 64.1392 45.3584 64.0055 37.2434 64.1541C37.1828 64.1538 37.1227 64.1655 37.0666 64.1884C37.0105 64.2114 36.9595 64.2451 36.9164 64.2879C37.0647 63.7523 37.1691 63.2055 37.2286 62.653C37.3754 62.8269 37.565 62.9595 37.7787 63.0377C37.9925 63.1159 38.2229 63.137 38.4473 63.0989C38.5154 63.1279 38.5888 63.1429 38.6628 63.1429C38.7369 63.1429 38.8102 63.1279 38.8783 63.0989C46.3096 63.5299 53.8747 63.2475 61.3209 63.0989C65.0514 63.0989 68.7523 62.9205 72.4828 62.757C76.2133 62.5936 80.1519 62.9503 84.031 62.9354H84.2391C84.3342 62.9839 84.4444 62.9939 84.5468 62.9635C84.6491 62.9331 84.7359 62.8644 84.789 62.7718V62.6827H85.012C85.2722 62.6855 85.5249 62.596 85.7254 62.43C85.6956 62.7911 85.6956 63.1539 85.7254 63.515C85.6467 63.5008 85.5662 63.5008 85.4876 63.515V63.5596ZM36.8273 58.9076C37.3006 59.8158 37.6743 60.7726 37.942 61.7612H37.8677C37.7847 61.6962 37.6864 61.6538 37.5822 61.6382C37.478 61.6225 37.3715 61.6342 37.2732 61.672C37.2838 60.7585 37.1432 59.8495 36.857 58.9819L36.8273 58.9076ZM85.874 61.0329V61.3748C85.8053 61.3384 85.7288 61.3193 85.6511 61.3193C85.5733 61.3193 85.4968 61.3384 85.4281 61.3748L85.1457 61.5234C85.5598 59.9668 86.3054 58.518 87.3315 57.2764C88.3577 56.0348 89.64 55.0297 91.0908 54.3299V54.3299C89.769 54.967 88.6152 55.9053 87.722 57.0695C86.8289 58.2337 86.2214 59.5912 85.9483 61.0329H85.874ZM96.7683 70.114C91.2246 72.0313 86.9144 67.2752 87.0482 62.0436C87.1968 56.0985 93.6323 53.8543 98.5816 55.2366C98.688 55.2637 98.8008 55.2477 98.8955 55.192C98.9901 55.1363 99.0589 55.0455 99.0869 54.9393C99.0941 54.905 99.0941 54.8695 99.0869 54.8352C100.294 55.3401 101.328 56.1874 102.059 57.2727C105.359 61.7315 101.272 68.5831 96.8278 70.114H96.7683ZM105.939 63.3515C105.586 63.6169 105.195 63.8275 104.779 63.9758C104.669 64.0128 104.552 64.0185 104.439 63.9922C104.326 63.966 104.222 63.9088 104.14 63.8271C104.215 63.515 104.274 63.1881 104.333 62.8611C104.631 62.8686 104.923 62.78 105.166 62.6084C105.22 62.6907 105.296 62.7564 105.385 62.7984C105.474 62.8404 105.573 62.857 105.671 62.8462L106.593 62.7718C106.41 62.9566 106.216 63.1304 106.013 63.2921L105.939 63.3515ZM112.805 60.4681C110.548 60.9438 108.265 61.2862 105.968 61.4937C105.478 58.8333 104.943 56.5891 102.907 54.6866C101.753 53.6936 100.41 52.9445 98.9595 52.4847C97.5086 52.0249 95.9795 51.8638 94.4646 52.0113C89.5005 52.472 84.5661 56.6633 84.0607 61.6571C80.6423 61.6571 77.3429 61.2559 73.9096 61.4491C70.1939 61.6423 66.4782 61.7613 62.7477 61.8356C54.9597 62.0288 47.0825 61.7018 39.3093 62.2517C38.1352 56.9903 34.7317 53.0071 29.1433 52.5018C26.1124 52.187 23.0726 53.0079 20.6121 54.8055C18.3233 56.7822 17.9369 59.2643 17.1937 61.9395C17.1084 61.9418 17.0251 61.9663 16.9521 62.0106C16.8791 62.055 16.8189 62.1176 16.7776 62.1923C16.2425 63.2475 12.3188 62.3855 11.3378 62.2814C9.24221 62.0288 6.37372 62.5192 4.97663 60.5871C4.31507 59.3758 3.94365 58.0276 3.89164 56.6484C3.81493 56.3068 3.80638 55.9535 3.86651 55.6086C3.92664 55.2637 4.05429 54.934 4.24207 54.6386C4.42986 54.3431 4.67412 54.0875 4.96085 53.8866C5.24758 53.6857 5.57114 53.5435 5.91299 53.4679H6.09133C7.42835 53.0557 8.82485 52.8699 10.2231 52.918C12.3485 52.918 13.6118 54.5231 14.9346 55.8905C14.9626 55.9528 15.0094 56.0047 15.0684 56.0391L15.2913 56.2769C15.7966 56.7822 16.5398 56.0688 16.1831 55.5337C18.5165 53.4381 20.2554 51.3425 23.4955 50.317C26.1343 49.6056 28.8641 49.29 31.5956 49.3807C36.3368 49.3807 40.216 56.3512 41.9995 60.1263C42.3711 60.8992 43.4857 60.2155 43.1439 59.4575C41.6542 56.5305 39.807 53.7997 37.6447 51.3277C36.5274 49.783 34.8923 48.6911 33.0373 48.2511C33.1083 48.1874 33.1598 48.1049 33.1859 48.0132C33.248 46.7943 33.1682 45.5724 32.9481 44.372C32.7336 42.9302 33.0279 41.4587 33.7804 40.2104C33.8341 40.15 33.8746 40.0792 33.8993 40.0023C34.0795 40.6876 34.4885 41.2907 35.0586 41.7115C35.4891 41.9398 35.9921 41.9899 36.4591 41.8509C36.9262 41.7119 37.32 41.395 37.5556 40.9684C37.5964 40.8919 37.6312 40.8125 37.6596 40.7306C37.975 40.1202 38.1143 39.4339 38.0618 38.7488C38.0093 38.0636 37.7671 37.4067 37.3623 36.8515C37.2805 36.774 37.1758 36.7251 37.0638 36.7122C36.9518 36.6994 36.8387 36.7233 36.7415 36.7803C36.6443 36.8373 36.5682 36.9243 36.5247 37.0283C36.4812 37.1322 36.4726 37.2475 36.5003 37.3567C36.8854 38.0922 36.991 38.9423 36.7976 39.7496C36.6935 40.1212 36.2625 41.013 35.7423 40.7455C35.4294 40.4114 35.1907 40.0148 35.0421 39.5819C34.8936 39.1489 34.8384 38.6895 34.8803 38.2337C34.9754 37.7746 35.2249 37.3619 35.5873 37.0645C35.9497 36.767 36.403 36.6026 36.8719 36.5987C36.9662 36.5828 37.0535 36.5389 37.1224 36.4726C37.1913 36.4064 37.2387 36.3208 37.2583 36.2272C39.4187 34.9735 41.4674 33.5364 43.3817 31.9318C46.3361 29.7938 49.6933 28.277 53.2505 27.4731C55.8614 26.8306 58.5303 26.4523 61.2169 26.3436C60.9939 30.2673 62.183 34.1315 61.425 38.0701C61.4048 38.1566 61.4065 38.2467 61.4299 38.3323C61.4532 38.4179 61.4975 38.4964 61.5587 38.5606H61.2912C57.412 38.4714 53.5477 38.5606 49.6834 38.6795C46.1907 38.8133 42.0886 39.6159 38.6405 39.0362C38.578 39.0301 38.5149 39.0364 38.4549 39.0547C38.3948 39.0731 38.3389 39.1033 38.2906 39.1434C38.2422 39.1834 38.2023 39.2326 38.1731 39.2882C38.1438 39.3438 38.1259 39.4047 38.1203 39.4672C38.1141 39.5657 38.1377 39.6638 38.1881 39.7486C38.2385 39.8335 38.3133 39.9012 38.4027 39.9428C40.2692 40.3538 42.1982 40.3942 44.0802 40.0618C47.1717 39.7496 50.3226 39.8537 53.414 39.7496C56.5054 39.6456 59.6266 39.7496 62.7328 39.7496C62.7259 39.7661 62.7223 39.7838 62.7223 39.8017C62.7223 39.8196 62.7259 39.8372 62.7328 39.8537C62.7328 46.2446 63.1193 52.6356 63.1788 59.0265C57.5012 59.1751 51.8237 59.3238 46.1462 59.5021C45.73 59.5021 45.5962 60.1858 46.0421 60.2601C50.709 60.9735 55.5096 60.3642 60.2062 60.2601C65.8689 60.1264 71.5613 60.4384 77.2091 59.8291C77.9374 59.8291 77.9671 58.655 77.2091 58.6698L64.338 58.9968C64.338 52.6207 63.9219 46.2446 63.803 39.8537C67.4294 39.9428 71.0708 40.0915 74.6973 40.1509C79.2601 40.2252 83.8676 40.3738 88.4452 40.4036C88.7004 43.4929 88.7847 46.594 88.6979 49.6927V49.6927C86.8082 50.7062 85.1005 52.0273 83.6446 53.6016C82.1583 55.0879 81.7719 58.4914 79.7506 58.7887C79.1858 58.8778 79.3196 59.8142 79.8843 59.7845C80.5867 59.8146 81.2882 59.7086 81.9503 59.4724C82.0733 59.4372 82.1818 59.3632 82.2594 59.2615C82.3371 59.1597 82.3798 59.0356 82.3813 58.9076C82.7231 54.4488 87.8061 51.0007 91.7299 49.99C96.6494 48.7267 101.257 50.9115 105.106 53.7057C107.128 55.1919 113.563 53.1557 113.563 56.4701C113.563 57.1389 113.652 60.3493 112.879 60.4979L112.805 60.4681Z" fill="#484751"/>
<path d="M88.6833 38.1593C88.694 38.2373 88.7205 38.3124 88.7611 38.3798C88.8018 38.4473 88.8557 38.5057 88.9197 38.5516C88.9837 38.5975 89.0563 38.6298 89.1332 38.6467C89.2101 38.6636 89.2897 38.6647 89.367 38.6498C89.4898 38.6297 89.6032 38.5715 89.6912 38.4835C89.7792 38.3955 89.8373 38.2821 89.8575 38.1593C90.029 34.8189 89.8347 31.4698 89.2778 28.1717C89.2035 27.7258 88.4604 27.8298 88.4901 28.2757C88.7255 31.5647 88.79 34.8636 88.6833 38.1593Z" fill="#484751"/>
<path d="M80.9094 43.8667H81.6674C81.6366 43.9063 81.6141 43.9518 81.6013 44.0003C81.5886 44.0488 81.5857 44.0994 81.5931 44.1491C81.489 44.4017 81.7269 44.6693 81.9795 44.7139C82.4312 44.7887 82.8941 44.7582 83.332 44.6247C83.9868 44.6298 84.6401 44.5599 85.279 44.4166C85.4523 44.3555 85.596 44.2311 85.6814 44.0685C85.7669 43.9059 85.7877 43.7171 85.7398 43.5397C86.691 43.2573 87.8503 42.4547 86.8693 41.4441C86.8081 41.3829 86.7323 41.3385 86.649 41.3151C86.5657 41.2916 86.4778 41.2901 86.3937 41.3103C86.347 41.2413 86.2793 41.1891 86.2005 41.1617C84.1643 40.3294 79.7501 40.1064 80.3446 43.3911C80.366 43.5249 80.4348 43.6466 80.5385 43.734C80.6422 43.8213 80.7739 43.8684 80.9094 43.8667ZM85.9479 42.098V42.2466C85.7838 42.3374 85.6091 42.4073 85.4277 42.4547C84.8723 42.5956 84.3051 42.6852 83.7333 42.7222C82.9467 42.7817 82.1567 42.7817 81.3701 42.7222C81.5039 41.0873 84.7291 41.9197 85.9479 42.0237V42.098Z" fill="#484751"/>
<path d="M55.0498 43.9706C55.3072 43.9557 55.5652 43.9557 55.8226 43.9706C55.8529 44.0519 55.9042 44.1237 55.9713 44.1787C56.2155 44.4153 56.504 44.6014 56.8202 44.7263C57.1365 44.8513 57.4742 44.9127 57.8142 44.9069C58.5656 44.8313 59.3106 44.7021 60.0436 44.5205C60.2185 44.4781 60.3696 44.3685 60.4642 44.2155C60.5588 44.0625 60.5892 43.8784 60.549 43.7031C60.5178 43.5733 60.4509 43.4548 60.3558 43.3612C60.7114 43.1562 60.9898 42.8402 61.1483 42.4615C61.3067 42.0829 61.3364 41.6627 61.2327 41.2656C61.2189 41.2069 61.1933 41.1515 61.1576 41.103C61.1218 41.0545 61.0765 41.0137 61.0246 40.9832C60.9809 40.9161 60.9216 40.8607 60.8516 40.8219C60.7817 40.783 60.7033 40.7618 60.6233 40.7602C58.6746 40.6387 56.7187 40.7034 54.7823 40.9534C54.6853 40.9818 54.6 41.0403 54.5385 41.1205C54.477 41.2007 54.4427 41.2984 54.4404 41.3994V43.5544C54.4493 43.6206 54.4717 43.6843 54.5061 43.7416C54.5405 43.7989 54.5862 43.8485 54.6405 43.8875C54.6948 43.9265 54.7564 43.9539 54.8217 43.9682C54.887 43.9825 54.9545 43.9833 55.0201 43.9706H55.0498ZM60.222 41.7412C59.9545 43.2274 56.9968 42.9005 55.4065 42.9451V41.7412C56.9819 41.5777 58.6169 41.8452 60.222 41.7412V41.7412Z" fill="#484751"/>
<path d="M12.8835 44.5951C14.7075 43.6203 16.7633 43.1628 18.8285 43.2723C21.3255 43.1236 23.8224 42.7967 26.2599 42.5886C26.3918 42.5668 26.5097 42.4935 26.5877 42.3848C26.6657 42.2761 26.6975 42.141 26.676 42.009C26.6568 41.9057 26.6067 41.8107 26.5325 41.7364C26.4582 41.6621 26.3631 41.612 26.2599 41.5928C23.3168 41.6519 20.3793 41.8752 17.4612 42.2616C15.6261 42.2056 13.8322 42.8124 12.4079 43.9709C12.0809 44.2681 12.5119 44.8626 12.8835 44.5951Z" fill="#484751"/>
<path d="M38.0008 49.3361C37.9472 49.3173 37.8903 49.3094 37.8336 49.3127C37.7769 49.3161 37.7213 49.3305 37.6702 49.3554C37.6191 49.3803 37.5734 49.415 37.5358 49.4576C37.4981 49.5002 37.4693 49.5498 37.4509 49.6036C37.4213 49.6833 37.4167 49.7703 37.438 49.8527C37.4593 49.9351 37.5053 50.0089 37.5698 50.0643C38.4467 50.7034 39.1601 51.5506 39.9775 52.2045C40.4531 52.6058 41.1517 51.9371 40.6761 51.506C39.8667 50.6867 38.9696 49.9589 38.0008 49.3361V49.3361Z" fill="#484751"/>
<path d="M80.8797 54.4194C81.8412 52.8436 83.1534 51.511 84.7142 50.5254C84.8214 50.4403 84.8919 50.3175 84.9113 50.182C84.9306 50.0466 84.8973 49.9088 84.8183 49.7971C84.7462 49.7057 84.6462 49.6402 84.5336 49.6107C84.4209 49.5812 84.3017 49.5893 84.194 49.6337C82.2943 50.5496 80.7636 52.0856 79.8542 53.9884C79.6164 54.5978 80.5676 54.9545 80.8797 54.4194Z" fill="#484751"/>
<path d="M95.6239 46.0812C95.1366 46.2173 94.6398 46.3167 94.1376 46.3785C94.0312 46.3785 93.9291 46.4208 93.8538 46.496C93.7786 46.5713 93.7363 46.6734 93.7363 46.7798C93.7363 46.8862 93.7786 46.9883 93.8538 47.0636C93.9291 47.1388 94.0312 47.181 94.1376 47.181C94.7343 47.2009 95.3305 47.1308 95.9063 46.973C95.9655 46.9546 96.0205 46.9243 96.0678 46.8841C96.1151 46.8439 96.1538 46.7946 96.1816 46.7391C96.2093 46.6835 96.2256 46.623 96.2293 46.561C96.2331 46.499 96.2244 46.437 96.2035 46.3785C96.1661 46.2622 96.0839 46.1656 95.9752 46.1099C95.8666 46.0541 95.7402 46.0438 95.6239 46.0812V46.0812Z" fill="#484751"/>
<path d="M10.9069 53.8097C10.4164 53.6165 10.0449 54.4637 10.5353 54.6717C11.1027 54.9527 11.624 55.3186 12.0811 55.7567C12.123 55.7987 12.1728 55.8319 12.2277 55.8547C12.2825 55.8774 12.3413 55.889 12.4006 55.889C12.46 55.889 12.5187 55.8774 12.5736 55.8547C12.6284 55.8319 12.6782 55.7987 12.7201 55.7567C12.7621 55.7147 12.7954 55.6649 12.8181 55.6101C12.8408 55.5553 12.8525 55.4964 12.8525 55.4371C12.8525 55.3778 12.8408 55.319 12.8181 55.2642C12.7954 55.2094 12.7621 55.1596 12.7201 55.1176C12.2366 54.5347 11.6126 54.0846 10.9069 53.8097V53.8097Z" fill="#484751"/>
<path d="M8.73587 55.1024C8.20081 54.7755 7.74009 55.6078 8.24542 55.9645C8.65772 56.2352 9.08439 56.4832 9.52359 56.7076C9.98433 56.9306 10.5343 56.3212 10.1033 55.9645C9.67224 55.6078 9.21147 55.37 8.73587 55.1024Z" fill="#484751"/>
<path d="M60.4431 33.4629C60.1784 31.6624 60.069 29.8425 60.1161 28.0232C60.1161 27.6517 59.5513 27.4584 59.3878 27.83C58.7917 29.7745 58.8386 31.8594 59.5216 33.7751C59.6405 34.3399 60.5769 34.0723 60.4431 33.4629Z" fill="#484751"/>
<path d="M82.5452 29.6433C82.7682 31.1296 82.8573 32.5266 82.9911 33.9832C82.9911 34.5479 83.9274 34.5628 83.8829 33.9832C83.7894 32.4577 83.6058 30.939 83.333 29.4352C83.2289 28.915 82.4561 29.138 82.5452 29.6433Z" fill="#484751"/>
<path d="M68.01 32.8384C68.1141 34.0125 68.0843 35.2015 68.2775 36.3608C68.3519 36.8216 69.095 36.7175 69.0653 36.2568C69.0482 35.1133 68.9638 33.9719 68.8126 32.8384C68.6937 32.3182 67.8911 32.3182 68.01 32.8384Z" fill="#484751"/>
<path d="M40.6909 38.6496C40.8544 37.847 40.8247 37.0296 40.9436 36.227C40.9436 35.7514 40.2896 35.5433 40.2153 36.0338C40.0815 36.8661 40.037 37.6984 39.9478 38.5456C39.8883 38.9766 40.6166 39.0658 40.6909 38.6496Z" fill="#484751"/>
<path d="M59.8801 47.3894C60.3408 50.1836 60.4746 53.0075 60.9056 55.7869C60.9056 56.3516 61.9014 56.2179 61.8717 55.6679C61.6614 52.8157 61.2341 49.9836 60.5935 47.1962C60.5786 46.7206 59.7909 46.8395 59.8801 47.3894Z" fill="#484751"/>
<path d="M65.7342 41.8451C65.7342 41.7308 65.6888 41.6212 65.6079 41.5403C65.5271 41.4595 65.4174 41.4141 65.3031 41.4141C65.1888 41.4141 65.0792 41.4595 64.9984 41.5403C64.9175 41.6212 64.8721 41.7308 64.8721 41.8451C64.765 42.8421 64.8456 43.8504 65.1099 44.8177C65.1618 44.9314 65.2564 45.0201 65.3733 45.0646C65.4901 45.1091 65.6197 45.1058 65.7342 45.0554C65.8291 45.0167 65.9084 44.9475 65.9595 44.8587C66.0107 44.7698 66.0307 44.6665 66.0166 44.5649C65.8556 43.6665 65.7612 42.7575 65.7342 41.8451V41.8451Z" fill="#484751"/>
<path d="M73.5531 56.8269C71.3247 56.5147 69.0636 56.5147 66.8352 56.8269C66.2407 56.9755 66.4934 57.8376 67.0879 57.7336C69.2393 57.5553 71.4017 57.5553 73.5531 57.7336C73.8652 57.7336 74.1179 57.5999 74.1179 57.2877C74.1179 56.9756 73.8652 56.708 73.5531 56.8269Z" fill="#484751"/>
<path d="M91.6851 9.92061H93.1714C93.2936 9.92061 93.4108 9.87212 93.4972 9.78572C93.5836 9.69931 93.6321 9.58207 93.6321 9.45987C93.6321 9.33768 93.5836 9.22052 93.4972 9.13412C93.4108 9.04771 93.2936 8.99913 93.1714 8.99913C92.6465 8.95917 92.1187 9.00949 91.6108 9.14781C91.5084 9.15767 91.414 9.2078 91.3485 9.28724C91.283 9.36668 91.2517 9.46887 91.2615 9.57136C91.2714 9.67385 91.3216 9.7682 91.401 9.83371C91.4805 9.89921 91.5827 9.93046 91.6851 9.92061Z" fill="#484751"/>
<path d="M93.6621 11.4955C93.9105 11.508 94.1587 11.4675 94.3903 11.3767C94.4892 11.331 94.5687 11.2519 94.6147 11.1532C94.6608 11.0546 94.6704 10.9428 94.6419 10.8377C94.6134 10.7327 94.5486 10.6411 94.459 10.5792C94.3695 10.5173 94.2609 10.4892 94.1525 10.4997C93.9979 10.5661 93.8302 10.5966 93.6621 10.5889C93.5419 10.6106 93.4352 10.6792 93.3655 10.7795C93.2958 10.8798 93.2689 11.0037 93.2905 11.1239C93.3051 11.2172 93.349 11.3035 93.4157 11.3703C93.4825 11.4371 93.5688 11.4809 93.6621 11.4955V11.4955Z" fill="#484751"/>
<path d="M75.4413 14.5277C75.9277 14.6612 76.4411 14.6612 76.9275 14.5277C77.0597 14.5061 77.1799 14.4381 77.2666 14.336C77.3533 14.2339 77.401 14.1043 77.401 13.9704C77.401 13.8364 77.3533 13.7068 77.2666 13.6047C77.1799 13.5026 77.0597 13.4347 76.9275 13.413C76.6857 13.3832 76.4411 13.3832 76.1993 13.413C75.9972 13.3833 75.7919 13.3833 75.5899 13.413C75.5311 13.4214 75.4751 13.4431 75.4262 13.4766C75.3772 13.5101 75.3366 13.5545 75.3075 13.6062C75.2767 13.6578 75.2517 13.7126 75.2332 13.7697C75.1963 13.8329 75.1724 13.9029 75.1629 13.9755C75.1534 14.0481 75.1584 14.1218 75.1778 14.1924C75.1972 14.263 75.2305 14.3291 75.2757 14.3867C75.321 14.4442 75.3772 14.4922 75.4413 14.5277V14.5277Z" fill="#484751"/>
<path d="M76.7333 15.4344C76.5317 15.4349 76.3313 15.4048 76.1388 15.3452C76.0753 15.3188 76.0073 15.3052 75.9386 15.3052C75.87 15.3051 75.8019 15.3186 75.7384 15.3448C75.675 15.371 75.6172 15.4095 75.5686 15.458C75.52 15.5066 75.4814 15.5641 75.4551 15.6276C75.4287 15.691 75.4151 15.759 75.415 15.8277C75.415 15.8964 75.4285 15.9644 75.4547 16.0279C75.4809 16.0914 75.5194 16.1491 75.5679 16.1977C75.6164 16.2463 75.674 16.2849 75.7374 16.3113V16.3113C76.0634 16.4004 76.4073 16.4004 76.7333 16.3113C76.8387 16.2288 76.9095 16.1097 76.9315 15.9776C76.9535 15.8456 76.9252 15.71 76.8521 15.5978C76.8043 15.5498 76.7642 15.4947 76.7333 15.4344V15.4344Z" fill="#484751"/>
<path d="M78.9631 19.1494C78.5915 19.1494 77.7295 18.9563 77.3876 19.2684C77.2933 19.3631 77.2402 19.4913 77.2402 19.6251C77.2402 19.7588 77.2933 19.887 77.3876 19.9817C77.7295 20.2939 78.5915 20.175 78.9631 20.0858C79.087 20.048 79.191 19.9628 79.2522 19.8486C79.3135 19.7344 79.3271 19.6006 79.2901 19.4765C79.2655 19.3999 79.223 19.3302 79.1661 19.2734C79.1093 19.2165 79.0397 19.174 78.9631 19.1494V19.1494Z" fill="#484751"/>
<path d="M89.9323 19.3131C89.8394 19.3231 89.7525 19.364 89.6857 19.4294C89.6189 19.4948 89.576 19.5807 89.564 19.6734C89.552 19.7661 89.5715 19.8602 89.6195 19.9404C89.6674 20.0206 89.741 20.0824 89.8283 20.1158C92.1023 20.8737 94.837 20.3684 97.1704 20.1158C97.3006 20.0904 97.4162 20.0162 97.4936 19.9085C97.5709 19.8007 97.6042 19.6675 97.5866 19.5361C97.5674 19.4328 97.5173 19.3378 97.443 19.2635C97.3688 19.1892 97.2737 19.1391 97.1704 19.1199C94.7627 18.9564 92.3401 19.4617 89.9323 19.3131Z" fill="#484751"/>
<path d="M78.2195 0.943002C78.9076 0.905845 79.5972 0.905845 80.2854 0.943002C80.4115 0.943002 80.5325 0.892858 80.6217 0.803664C80.7109 0.714471 80.761 0.593524 80.761 0.467386C80.761 0.341248 80.7109 0.220301 80.6217 0.131108C80.5325 0.0419148 80.4115 -0.00822929 80.2854 -0.00822929C79.554 -0.0825434 78.817 -0.0825434 78.0857 -0.00822929C77.5506 0.0809466 77.6695 1.00245 78.2195 0.943002Z" fill="#484751"/>
<path d="M89.9753 1.12146C90.089 1.06955 90.1777 0.974942 90.2222 0.85812C90.2667 0.741298 90.2635 0.611679 90.2131 0.497258C90.1744 0.402336 90.1052 0.322979 90.0164 0.271833C89.9275 0.220687 89.8241 0.200668 89.7226 0.214864V0.214864C89.247 -0.171565 88.5633 0.497273 89.0389 0.883701C89.1577 1.00611 89.3082 1.09318 89.4735 1.13516C89.6388 1.17715 89.8125 1.17237 89.9753 1.12146Z" fill="#484751"/>
</g>
</svg>
