<svg width="174" height="207" viewBox="0 0 174 207" fill="none" xmlns="http://www.w3.org/2000/svg">
<path d="M157.048 11.1878C142.498 0.138959 120.185 2.05595 105.461 10.909C100.603 14.0638 96.4178 18.153 93.1493 22.9394C89.8809 27.7259 87.5938 33.1143 86.4207 38.7924C72.8801 37.468 59.409 39.8381 45.8336 39.4547C45.6247 38.3393 45.4507 37.224 45.2418 35.9692C43.3273 24.8507 44.3368 13.1396 42.2135 1.84682C42.1961 1.67428 42.1152 1.51439 41.9865 1.39838C41.8578 1.28237 41.6905 1.21858 41.5173 1.21944C41.3572 1.04171 41.153 0.909451 40.9255 0.836047C37.5337 -0.278682 33.8747 -0.278682 30.4829 0.836047C30.2619 0.907327 30.0659 1.04033 29.9179 1.2194C29.7699 1.39847 29.6761 1.61616 29.6475 1.84682C29.4109 1.97278 29.2257 2.1776 29.124 2.42583C29.0223 2.67407 29.0104 2.95009 29.0905 3.20614C31.5815 14.2454 32.8653 25.5232 32.9195 36.8406C32.8723 38.1596 32.9657 39.4799 33.198 40.7791C26.2362 41.4762 2.84464 45.589 3.22754 55.8362C-1.36723 70.1613 2.25289 86.5778 4.16738 101.147C6.68532 121.094 10.358 140.878 15.167 160.399C18.6479 173.888 20.4579 188.84 32.0493 198.042C41.2841 204.879 52.7697 207.944 64.1778 206.616C68.0262 206.756 71.8796 206.581 75.6996 206.093C83.6226 205.851 91.424 204.076 98.6734 200.865C112.04 193.894 118.793 182.462 122.692 168.276C126.962 150.95 129.7 133.28 130.872 115.472C131.672 107.072 132.716 98.7071 133.761 90.342C134.077 90.5475 134.446 90.6569 134.822 90.6569C135.199 90.6569 135.568 90.5475 135.884 90.342C154.194 93.4441 168.465 73.6468 172.503 58.3457C174.734 49.8297 174.462 40.8498 171.721 32.4846C168.979 24.1193 163.884 16.7244 157.048 11.1878ZM83.4271 49.2487C83.2531 48.2031 81.443 48.4471 81.5823 49.4927C81.8609 53.8218 81.8609 58.1643 81.5823 62.4934C70.4086 62.4934 59.235 62.4934 47.9917 61.9706C47.9817 56.6195 47.5159 51.2791 46.5994 46.0073C47.9221 46.0073 49.21 46.0073 50.5328 46.0073C62.1589 46.0073 73.5762 43.2189 85.3416 45.1359C84.9324 51.0508 86.1355 56.9659 88.8225 62.2494H83.81C84.0762 57.9132 83.9481 53.5617 83.4271 49.2487ZM85.8289 41.2671L85.6201 42.6961C72.7756 40.6746 59.6875 43.2538 46.7734 43.916H46.2861C46.2378 43.2551 46.1211 42.601 45.938 41.9642C59.3394 42.6613 72.532 40.3609 85.8289 41.2671ZM32.1189 5.50653C33.4162 6.26602 34.9242 6.58477 36.4174 6.41515C37.9106 6.24553 39.3089 5.59664 40.4034 4.56546C41.204 14.255 40.9951 24.049 42.1438 33.7037C43.2925 43.3584 45.6247 52.3508 45.6247 61.9357L38.2104 61.7615C40.5774 54.3723 36.0175 44.3343 35.7738 36.8406C35.5651 26.3025 34.3411 15.8092 32.1189 5.50653ZM30.831 53.3267C30.831 53.0679 30.7283 52.8196 30.5455 52.6366C30.3627 52.4536 30.1148 52.3508 29.8563 52.3508C29.5978 52.3508 29.3499 52.4536 29.1671 52.6366C28.9843 52.8196 28.8817 53.0679 28.8817 53.3267C28.8221 55.8299 29.044 58.3319 29.543 60.7855C29.5733 60.9389 29.6441 61.0813 29.7483 61.1979C29.8524 61.3144 29.9859 61.4007 30.1348 61.4478C26.0821 61.3022 22.051 60.7889 18.0909 59.9142C17.5688 57.4396 17.3236 54.9145 17.3599 52.3856C18.1953 52.0022 19.0656 51.6885 19.901 51.3749C20.2143 54.0238 20.4927 56.6727 20.9452 59.2519C21.1541 60.437 23.173 60.1582 23.0338 58.9731C22.7205 56.2196 22.2332 53.5358 21.9199 50.8172L23.7996 50.2944C27.2805 49.5973 30.7613 49.2836 34.2422 48.3774C34.9036 52.8387 35.6346 57.3001 36.1219 61.7266L30.9702 61.5175C31.0927 61.5048 31.2114 61.4672 31.3189 61.407C31.4265 61.3468 31.5206 61.2653 31.5955 61.1674C31.6705 61.0695 31.7247 60.9573 31.7548 60.8377C31.785 60.7181 31.7904 60.5936 31.7708 60.4718C31.4227 58.1017 30.9702 55.7316 30.831 53.3267ZM133.308 75.1804C132.995 78.4567 132.612 81.6981 132.229 84.9744C132.285 79.0484 131.618 73.1376 130.245 67.373C129.897 66.0834 128.087 66.6411 128.261 67.8958C128.754 71.1633 129.056 74.4569 129.166 77.7596C127.669 77.4111 126.416 77.2019 125.998 75.5638C125.755 74.192 125.755 72.7879 125.998 71.4161C125.998 70.1962 124.397 70.1614 124.014 71.1373C122.517 75.0061 123.666 80.2691 128.748 80.1297H129.062V87.8674C126.926 87.7187 124.826 87.2487 122.831 86.4732C121.438 86.0898 120.847 87.9371 121.891 88.7387C123.931 90.1372 126.389 90.7896 128.853 90.586C127.843 103.482 124.989 116.169 122.866 129.135C122.622 130.634 124.78 131.296 125.163 129.797C126.521 124.569 127.878 118.992 129.027 113.311C127.568 128.44 125.325 143.482 122.309 158.378C119.071 173.888 113.85 188.562 99.6133 197.066C89.5883 203.026 77.7185 202.434 66.51 204.037C66.4059 203.946 66.2842 203.877 66.1524 203.835C66.0207 203.793 65.8818 203.779 65.7442 203.793C53.5263 204.525 40.6122 201.841 31.3183 193.337C20.8756 183.752 19.1352 164.233 16.0024 151.058C12.1734 135.339 9.45832 119.411 7.19575 103.447C5.17683 89.0873 2.74021 74.6924 4.79393 60.3324C8.27482 65.456 15.2366 67.0942 20.806 68.3489C27.4582 70.0193 34.2776 70.9313 41.1344 71.0676C41.2899 71.0587 41.4421 71.0191 41.5823 70.9512C41.7226 70.8833 41.848 70.7883 41.9515 70.6717C42.055 70.5552 42.1345 70.4193 42.1854 70.2719C42.2363 70.1245 42.2577 69.9685 42.2483 69.8128C42.2288 69.5801 42.143 69.3578 42.0011 69.1725C41.8591 68.9871 41.6671 68.8464 41.4477 68.7672C31.2835 65.5954 20.3187 67.2684 10.5374 62.0054C0.756108 56.7424 10.5374 49.2487 16.803 47.1575C21.9199 45.4148 28.8817 45.7633 33.4068 42.8355C33.4561 43.8067 33.5724 44.7733 33.7549 45.7284C28.0462 47.1226 10.2937 46.8438 9.07542 54.5466C7.57864 64.1315 24.2173 63.8179 29.9607 64.027L46.1469 64.6195C46.4328 64.689 46.7312 64.689 47.0171 64.6195C62.4722 65.1772 77.8925 65.5257 93.4521 65.1772C103.651 64.8983 122.274 66.0485 128.261 55.6271C128.296 55.5374 128.296 55.4379 128.261 55.3483C129.897 55.0694 133.83 54.2678 133.378 56.7076C132.925 59.1474 129.897 61.4826 127.565 62.9116C123.92 64.9761 119.99 66.4911 115.904 67.4079C105.914 70.1613 95.0185 69.6385 84.5758 70.1614C84.3266 70.1614 84.0875 70.2605 83.9113 70.437C83.735 70.6135 83.636 70.8528 83.636 71.1024C83.636 71.352 83.735 71.5914 83.9113 71.7679C84.0875 71.9443 84.3266 72.0435 84.5758 72.0435C91.5376 72.3223 107.863 73.0543 120.499 69.6734C118.201 73.1588 113.258 72.8451 109.708 71.7646C108.281 71.3464 107.724 73.2634 108.768 74.065C111.017 75.3882 113.698 75.7643 116.223 75.1109C118.748 74.4575 120.912 72.8279 122.239 70.5796C122.334 70.3797 122.358 70.1536 122.307 69.9383C122.256 69.723 122.134 69.5313 121.961 69.3946C128.331 67.4776 133.517 64.4452 135.675 59.5656C135.258 64.6892 133.691 69.778 133.308 75.1804ZM15.4454 59.1822C9.94564 57.4744 11.9646 55.2088 15.2366 53.3964C14.9931 55.3236 15.0636 57.2776 15.4454 59.1822ZM136.302 87.3097C136.039 87.2402 135.764 87.2402 135.501 87.3097H135.083C134.994 87.2747 134.895 87.2747 134.805 87.3097C134.59 87.2404 134.359 87.2404 134.144 87.3097C134.208 86.3399 134.324 85.3742 134.492 84.4168C135.327 78.2476 136.963 71.7298 137.764 65.2469C139.535 68.7872 141.695 72.1189 144.203 75.1804C144.26 75.279 144.337 75.365 144.428 75.4329C144.52 75.5009 144.624 75.5494 144.735 75.5755C144.846 75.6017 144.961 75.6048 145.073 75.5848C145.185 75.5648 145.292 75.5221 145.387 75.4592C145.584 75.3428 145.728 75.1531 145.787 74.9312C145.846 74.7093 145.814 74.4732 145.7 74.2742C143.049 70.2028 140.899 65.826 139.295 61.2386C139.237 60.9863 139.087 60.7646 138.875 60.6165C138.663 60.4684 138.403 60.4044 138.147 60.437C138.251 58.6726 138.251 56.9035 138.147 55.1391C138.11 54.8376 137.973 54.557 137.759 54.3422C137.544 54.1274 137.264 53.9908 136.963 53.9541V53.6752C140.653 53.1524 145.561 56.2893 148.415 57.8926C150.097 58.8406 151.643 60.0132 153.01 61.3781C156.073 64.6195 153.637 66.7805 151.792 69.8128C151.061 70.9979 152.906 72.0435 153.637 70.8933C154.959 68.8369 157.57 65.8743 156.874 63.1905C155.834 60.6031 153.875 58.4925 151.374 57.2652C147.545 54.7209 140.061 50.2944 135.292 51.9674C135.132 52.0246 134.986 52.1169 134.866 52.2375C134.745 52.358 134.653 52.5039 134.596 52.6645C132.408 52.4565 130.205 52.4565 128.017 52.6645C127.814 52.6982 127.619 52.772 127.443 52.8815C127.268 52.991 127.117 53.1341 126.997 53.3025C126.877 53.471 126.792 53.6614 126.746 53.863C126.7 54.0645 126.694 54.2731 126.729 54.4769C126.729 54.4769 126.729 54.6512 126.729 54.7209C120.685 59.0297 113.504 61.4548 106.088 61.6917C111.692 57.0561 120.011 56.9515 125.824 52.525C126.869 51.7583 125.824 50.0504 124.815 50.7475C117.853 54.8951 108.559 54.7209 102.92 60.8552C102.783 60.9979 102.679 61.168 102.613 61.3542C102.547 61.5405 102.521 61.7387 102.537 61.9357C100.379 61.9357 98.1513 61.9357 95.9931 62.1449C96.0621 61.9414 96.0621 61.7209 95.9931 61.5175C91.468 47.5757 91.1895 33.634 101.667 22.3063C112.771 10.3164 128.609 9.58449 143.438 13.3488C143.755 13.4114 144.085 13.352 144.361 13.1823C144.637 13.0127 144.838 12.7452 144.926 12.4331C145.014 12.1211 144.981 11.7874 144.834 11.4985C144.688 11.2096 144.437 10.9867 144.134 10.8741C136.583 8.35468 128.491 7.9317 120.719 9.65015C112.947 11.3686 105.785 15.1642 99.9961 20.6333C88.3004 31.4033 89.1358 48.2728 93.7654 62.11H92.1293C92.2481 61.851 92.2599 61.5555 92.1621 61.2878C92.0643 61.0202 91.8649 60.8021 91.6072 60.681H91.3984C90.4585 60.4718 89.5535 54.1283 89.4143 53.5358C87.9992 47.1021 88.2872 40.4099 90.2497 34.1219C93.0787 25.4624 98.841 18.0651 106.54 13.2093C113.344 8.94859 121.135 6.52882 129.152 6.1867C137.17 5.84457 145.138 7.59179 152.279 11.2575C165.715 18.2284 171.285 34.2962 171.111 48.6911C170.902 65.3514 155.969 90.7603 136.302 87.3097Z" fill="#333184"/>
<path d="M40.7839 44.6824C41.7289 33.0532 39.8416 21.368 35.2841 10.6297C34.7968 9.54926 32.9519 10.3161 33.3696 11.4314C36.7898 22.1817 38.5162 33.3999 38.4866 44.6824C38.4866 44.9875 38.6076 45.28 38.823 45.4958C39.0384 45.7115 39.3306 45.8326 39.6352 45.8326C39.9399 45.8326 40.2321 45.7115 40.4475 45.4958C40.6629 45.28 40.7839 44.9875 40.7839 44.6824Z" fill="#333184"/>
<path d="M39.4992 55.836C39.6786 57.258 39.7716 58.6897 39.7777 60.1231C39.8027 60.2536 39.8532 60.3778 39.9262 60.4888C39.9993 60.5997 40.0935 60.6952 40.2034 60.7696C40.3133 60.8441 40.4368 60.8961 40.5668 60.9227C40.6969 60.9493 40.8309 60.95 40.9612 60.9247C41.1614 60.8912 41.3461 60.7959 41.4896 60.6522C41.6332 60.5085 41.7283 60.3235 41.7618 60.1231C41.8547 58.5176 41.7021 56.9073 41.3092 55.348C41.2226 55.1183 41.0527 54.9297 40.8333 54.8198C40.6139 54.71 40.3613 54.687 40.1257 54.7555C39.9074 54.8276 39.723 54.9775 39.6075 55.1766C39.4921 55.3757 39.4535 55.6103 39.4992 55.836Z" fill="#333184"/>
<path d="M50.5648 70.4748C58.4664 71.137 66.6813 71.5204 74.6177 71.4507C76.1841 71.4507 76.1145 69.2549 74.6177 69.0806C66.6316 68.1867 58.5806 68.0234 50.5648 68.5926C50.3156 68.5926 50.0765 68.6918 49.9003 68.8683C49.724 69.0448 49.625 69.2841 49.625 69.5337C49.625 69.7833 49.724 70.0227 49.9003 70.1991C50.0765 70.3756 50.3156 70.4748 50.5648 70.4748Z" fill="#333184"/>
<path d="M120.394 143.356C115.419 159.074 107.79 173.822 97.8377 186.959C96.8979 188.248 99.0212 189.852 100.065 188.667C110.676 175.571 118.207 160.251 122.099 143.844C122.164 143.618 122.136 143.375 122.022 143.169C121.908 142.963 121.717 142.811 121.49 142.746C121.264 142.681 121.022 142.709 120.816 142.824C120.61 142.938 120.458 143.13 120.394 143.356Z" fill="#333184"/>
<path d="M72.7407 195.219C61.4974 195.602 48.0264 198.53 38.2451 191.455C37.3401 190.757 36.3306 192.187 37.0616 192.988C45.2069 201.632 62.298 199.123 72.7407 197.659C74.133 197.45 74.3419 195.149 72.7407 195.219Z" fill="#333184"/>
<path d="M87.151 194.313C85.7543 194.849 84.2378 194.994 82.7651 194.731C82.6324 194.722 82.4992 194.738 82.3731 194.781C82.247 194.823 82.1305 194.89 82.0302 194.977C81.93 195.064 81.8479 195.171 81.7889 195.29C81.7298 195.409 81.6948 195.539 81.686 195.672C81.667 195.872 81.7104 196.074 81.8101 196.248C81.9098 196.423 82.061 196.563 82.2429 196.648C84.1699 197.252 86.2564 197.077 88.056 196.16C88.9262 195.637 88.2301 193.894 87.151 194.313Z" fill="#333184"/>
<path d="M80.0467 184.902C70.7179 188.91 60.31 186.331 50.5636 187.969C49.0668 188.248 49.4497 190.653 50.9117 190.618C61.1106 190.165 71.797 190.967 81.1953 186.854C82.5529 186.296 81.3694 184.344 80.0467 184.902Z" fill="#333184"/>
<path d="M34.1024 119.236C34.3113 114.774 34.6942 110.383 35.0771 105.956V103.516C36.0975 94.6063 36.249 85.618 35.5296 76.6785C35.5296 75.4586 33.4759 75.4238 33.5803 76.6785C33.9868 85.4273 33.6608 94.1947 32.6057 102.889L32.362 105.468C31.8747 110.069 31.3874 114.635 31.0741 119.236C30.5319 133.737 31.5824 148.254 34.2069 162.525C34.4505 163.989 36.9916 163.64 36.8523 162.141C34.8579 147.929 33.9386 133.587 34.1024 119.236Z" fill="#333184"/>
<path d="M52.0996 93.584L52.5521 97.8014L52.0996 93.584Z" fill="#333184"/>
<path d="M7.12227 68.7676C6.93362 73.6723 7.3782 78.5809 8.445 83.3716C8.75828 84.6264 10.812 84.3824 10.7076 83.0928C10.2551 78.2829 9.2108 73.5775 8.96713 68.7676C8.92537 68.5534 8.81052 68.3603 8.64223 68.2215C8.47395 68.0827 8.26272 68.0068 8.0447 68.0068C7.82668 68.0068 7.61545 68.0827 7.44716 68.2215C7.27888 68.3603 7.16403 68.5534 7.12227 68.7676Z" fill="#333184"/>
<path d="M100.064 137.744C100.308 137.744 100.552 137.291 100.865 136.594C100.467 136.867 100.183 137.276 100.064 137.744Z" fill="#333184"/>
<path d="M85.8991 78.3515C85.5858 78.3515 84.0543 78.3515 83.6366 78.6652C82.4531 80.1988 81.1999 81.6975 79.9468 83.1963C79.3041 84.1647 78.6068 85.0957 77.8583 85.9846C74.3402 89.7879 71.0729 93.8163 68.077 98.0442C65.2674 102.154 62.7213 106.438 60.4539 110.871L60.1406 111.777C58.7482 116.029 58.0172 119.689 61.15 123.697C60.1419 123.481 59.117 123.353 58.0869 123.314C58.0157 122.433 57.876 121.559 57.6692 120.7C57.4255 118.887 57.2166 117.214 56.9382 115.332C56.9382 112.892 55.5806 104.109 55.8243 104.144L54.8148 92.0841C54.2204 85.6124 53.15 79.1934 51.6124 72.8794C51.5225 72.5694 51.335 72.2968 51.0778 72.1021C50.8207 71.9074 50.5076 71.8011 50.1853 71.7989C46.2895 71.6532 42.3884 71.8398 38.5243 72.3566C38.2534 72.6188 38.0812 72.9667 38.0368 73.3413C37.9924 73.716 38.0785 74.0945 38.2806 74.413C38.3571 74.4844 38.4182 74.5707 38.4601 74.6666C38.502 74.7625 38.5238 74.866 38.5243 74.9706H38.6983C39.0812 82.8826 40.7521 90.6203 41.5527 98.5322C41.5527 98.5322 44.7551 120.246 45.4513 127.148C45.6253 128.821 45.6253 130.354 45.6253 130.354C45.6601 130.958 45.6601 131.563 45.6253 132.167C45.6253 132.515 45.0335 133.073 45.2772 133.352C41.5527 141.089 36.7838 150.988 44.8247 157.541C46.3786 158.758 48.032 159.842 49.7675 160.782C50.2524 163.446 50.6009 166.134 50.8118 168.833C50.9409 170.171 51.4389 171.447 52.2503 172.518C53.0617 173.589 54.1545 174.413 55.4066 174.898C60.3494 177.024 65.0486 171.064 63.3778 166.394C67.1629 167.547 71.15 167.88 75.0736 167.37C76.5108 166.968 77.8202 166.203 78.8752 165.146C79.9301 164.09 80.6949 162.779 81.0955 161.34C82.5953 162.254 84.3173 162.738 86.0732 162.738C87.829 162.738 89.5511 162.254 91.0508 161.34C93.7799 157.717 96.2906 153.934 98.5696 150.012C99.7286 147.859 100.752 145.636 101.633 143.355C102.242 142.084 102.676 140.735 102.921 139.347C105.914 135.199 112.876 95.221 112.876 94.977C110.822 84.7299 95.1931 78.5258 85.8991 78.3515ZM44.3374 97.2077C43.4323 89.7489 41.9007 82.3946 40.6476 74.9706C43.4323 74.9706 46.2519 74.7267 48.9669 74.7615C50.3649 80.7464 51.3995 86.8105 52.0649 92.9206V93.5829L52.3782 97.8351L53.2484 106.374V107.803C53.0744 107.978 53.6313 109.86 53.6313 110.104C53.6708 111.216 53.7988 112.323 54.0142 113.415C54.2106 114.627 54.3384 115.849 54.3971 117.075C54.421 119.247 54.6896 121.41 55.1977 123.523C53.6177 123.948 52.14 124.689 50.8537 125.701C49.5675 126.713 48.4994 127.976 47.7138 129.413C47.679 121.989 44.5114 97.2077 44.3374 97.2077ZM60.976 166.324C60.9348 168.028 60.5313 169.703 59.7925 171.238C58.4001 173.539 55.2325 172.145 54.0838 170.367C53.3315 168.57 52.9639 166.634 53.0048 164.686C52.9333 163.874 52.7936 163.069 52.5871 162.281C55.3558 163.67 58.2308 164.835 61.1849 165.766C61.0644 165.929 60.9921 166.122 60.976 166.324ZM89.5541 158.307C88.1965 160.817 84.6112 159.771 82.0702 159.039C83.2537 154.892 83.6714 150.186 84.4024 147.328C84.7504 145.934 82.6619 144.958 82.0005 146.317C80.5963 149.959 79.6039 153.747 79.0418 157.61C76.1875 169.67 62.3335 162.56 54.9889 159.283C51.5621 157.992 48.3018 156.295 45.2772 154.229C40.578 150.5 44.1285 142.518 45.9038 138.44C46.948 135.966 48.2012 133.561 49.3847 131.121C52.3434 124.778 57.1818 125.335 62.9253 126.276C63.1521 126.346 63.3947 126.346 63.6215 126.276C67.2741 130.175 71.3753 133.626 75.8394 136.558C82.279 140.88 91.4337 145.899 99.2309 141.926C98.2215 144.296 97.5949 145.028 96.3418 147.433L90.9464 156.216C89.9021 157.75 89.7977 157.854 89.5541 158.307ZM100.902 136.558C100.588 137.255 100.345 137.674 100.101 137.708C93.7659 144.679 81.8613 136.872 75.909 132.933C73.1815 131.049 70.5984 128.964 68.1814 126.695C65.062 124.777 62.6259 121.923 61.2197 118.539C60.9674 116.596 61.244 114.621 62.0203 112.822C64.5308 107.371 67.9306 102.377 72.08 98.0442C74.7255 93.9663 77.8583 90.3763 80.7822 86.6469C81.5835 85.9626 82.2353 85.1201 82.6967 84.1722C83.5573 83.0608 84.3479 81.8967 85.0637 80.6868C85.2194 80.8028 85.3971 80.8858 85.5859 80.9307C93.8356 82.2901 106.262 86.0543 109.952 94.5588C109.952 94.5588 103.826 129.587 100.902 136.558Z" fill="#333184"/>
<path d="M53.6662 152.522C49.698 158.482 61.9159 158.413 64.7354 158.378C66.4339 158.501 68.1399 158.284 69.7536 157.74C71.3673 157.195 72.8564 156.334 74.1338 155.206C76.1785 152.278 77.622 148.973 78.3805 145.482C78.833 144.297 76.9185 143.774 76.466 144.959C74.7952 149.281 73.4724 153.916 68.4948 155.101C67.0328 155.45 55.4763 156.043 56.0332 153.428C56.1476 153.114 56.1353 152.767 55.9989 152.461C55.8624 152.156 55.6126 151.915 55.3022 151.79C55.1494 151.729 54.9859 151.7 54.8215 151.704C54.657 151.708 54.4951 151.746 54.3455 151.814C54.1959 151.882 54.0617 151.98 53.9509 152.102C53.8401 152.224 53.7551 152.367 53.701 152.522H53.6662Z" fill="#333184"/>
<path d="M104.103 80.3386C104.375 80.5004 104.7 80.5472 105.007 80.4688C105.314 80.3903 105.577 80.1931 105.739 79.9204C105.9 79.6477 105.947 79.3219 105.869 79.0147C105.79 78.7075 105.593 78.444 105.321 78.2822C103.476 77.0434 101.782 75.5929 100.274 73.9603C99.4035 72.9844 97.6283 74.3437 98.4289 75.3893C99.9224 77.4471 101.862 79.1393 104.103 80.3386Z" fill="#333184"/>
<path d="M156.908 19.4137C174.313 32.7281 167.699 60.7161 156.177 75.5292C155.342 76.6097 156.734 78.1433 157.779 77.0977C171.702 62.4937 175.461 31.0551 157.779 17.8453C156.874 17.2527 156.038 18.7515 156.908 19.4137Z" fill="#333184"/>
<path d="M152.38 79.2931C147.897 81.5 143.146 83.1167 138.248 84.103C136.925 84.3121 137.378 86.2291 138.561 86.3336C144.026 86.717 148.726 83.127 153.285 80.7221C154.365 80.3038 153.425 78.84 152.38 79.2931Z" fill="#333184"/>
<path d="M159.484 54.3374C152.903 52.7311 146.409 50.7883 140.026 48.5168C143.841 46.2107 148.057 44.6496 152.453 43.916C154.229 43.3941 155.973 42.7656 157.674 42.0339C158.617 41.6463 159.616 41.411 160.633 41.3368C163.139 41.1625 162.13 45.2753 161.99 46.2512C161.851 47.2272 163.835 48.3425 164.218 46.8438C165.367 42.1384 164.218 38.0605 158.753 39.1061C155.211 40.0736 151.724 41.2372 148.31 42.5915C144.962 43.4496 141.807 44.9402 139.016 46.9832C138.842 47.1594 138.744 47.3974 138.744 47.6454C138.744 47.8934 138.842 48.1314 139.016 48.3076C139.097 48.3236 139.18 48.3236 139.26 48.3076C138.983 48.4097 138.758 48.6174 138.634 48.8853C138.511 49.1532 138.498 49.4593 138.599 49.7367C138.688 49.965 138.846 50.1598 139.051 50.2943C145.261 53.7389 152.156 55.7625 159.24 56.2196C159.365 56.2392 159.492 56.2327 159.613 56.2004C159.735 56.1681 159.849 56.1108 159.947 56.0321C160.045 55.9534 160.126 55.855 160.184 55.7432C160.242 55.6315 160.277 55.5088 160.285 55.3831C160.314 55.1385 160.247 54.8921 160.098 54.6966C159.948 54.5011 159.728 54.3721 159.484 54.3374Z" fill="#333184"/>
<path d="M143.956 38.4783L137.69 40.8135C137.69 35.3065 142.528 28.1963 145.626 24.4668C146.489 23.3846 147.568 22.4943 148.794 21.8528C151.057 20.9465 153.737 24.9199 154.781 26.4187C155.999 28.1494 156.486 30.2906 156.139 32.3788C155.791 34.5397 151.892 34.8186 150.256 35.2368C150.105 35.2803 149.964 35.3531 149.842 35.4511C149.719 35.5491 149.616 35.6703 149.541 35.8079C149.465 35.9454 149.416 36.0966 149.399 36.2528C149.381 36.409 149.394 36.5671 149.438 36.7181C149.481 36.8692 149.554 37.0102 149.652 37.1331C149.75 37.256 149.871 37.3584 150.008 37.4345C150.146 37.5105 150.297 37.5588 150.453 37.5764C150.609 37.594 150.766 37.5807 150.917 37.5372C156.173 36.2476 159.202 35.0277 158.471 28.9979C158.018 25.1988 153.145 19.0644 148.968 19.4478C144.791 19.8312 141.484 25.9656 139.639 29.207C137.794 32.4485 134.766 38.2692 135.532 42.7305C135.621 43.0302 135.824 43.2826 136.098 43.4328C136.372 43.5829 136.694 43.6186 136.994 43.5322C139.603 42.5657 142.16 41.4604 144.652 40.221C145.626 39.733 144.93 38.1297 143.956 38.4783Z" fill="#333184"/>
<path d="M132.821 40.8491C133.042 40.8104 133.247 40.7076 133.411 40.5534C133.574 40.3992 133.689 40.2004 133.741 39.9816C133.793 39.7627 133.779 39.5335 133.703 39.3222C133.626 39.1109 133.489 38.9268 133.308 38.7927C136.128 33.7039 144.029 14.3946 134.109 14.8129C133.843 14.8598 133.602 14.999 133.428 15.2062C133.254 15.4134 133.159 15.6752 133.159 15.9456C133.159 16.2161 133.254 16.4779 133.428 16.6851C133.602 16.8922 133.843 17.0315 134.109 17.0784C140.27 17.8801 133.308 34.5056 131.568 38.3047C123.666 35.2724 121.125 20.4244 129.27 16.4859C129.379 16.425 129.474 16.3424 129.549 16.2432C129.624 16.1441 129.678 16.0304 129.708 15.9094C129.737 15.7884 129.741 15.6626 129.72 15.5399C129.698 15.4172 129.652 15.3002 129.584 15.1963C129.506 15.0611 129.394 14.9484 129.26 14.869C129.126 14.7896 128.974 14.7463 128.818 14.7432C115.521 15.6842 122.866 44.2648 132.821 40.8491Z" fill="#333184"/>
<path d="M118.897 25.618C116.983 22.1325 113.885 20.0413 110.3 22.6205C106.714 25.1997 103.79 31.4386 106.819 35.8303C108.667 37.8693 110.971 39.4409 113.542 40.4163C116.113 41.3917 118.879 41.7432 121.612 41.4418C121.926 41.4201 122.222 41.2901 122.451 41.074C122.679 40.8579 122.826 40.569 122.866 40.2568C123.562 40.919 124.815 40.0477 124.536 39.1066C123.203 34.4005 121.31 29.8718 118.897 25.618ZM121.612 38.7929C117.064 39.0509 112.573 37.6795 108.942 34.9241C108.09 34.0565 107.588 32.9053 107.53 31.6902C107.472 30.4751 107.863 29.2813 108.629 28.3366C109.603 26.803 111.379 24.1541 113.398 23.8752C116.356 23.5267 118.201 29.4868 119.002 31.4735C119.813 33.9806 120.802 36.4266 121.961 38.7929H121.612Z" fill="#333184"/>
<path d="M125.964 44.8566C125.892 44.7317 125.796 44.6224 125.682 44.5353C125.567 44.4481 125.436 44.3848 125.296 44.349C125.157 44.3133 125.012 44.3059 124.869 44.3272C124.727 44.3486 124.59 44.3982 124.467 44.4732L123.249 45.1355C123.806 44.4732 123.736 43.2533 122.727 43.0791C115.765 42.0334 97.7342 35.5505 96.7944 47.2616C96.6635 48.2998 96.7405 49.3538 97.021 50.3619C97.3014 51.37 97.7797 52.312 98.4278 53.133C99.076 53.9539 99.881 54.6373 100.796 55.1433C101.711 55.6492 102.717 55.9676 103.756 56.0797C104.744 56.2134 105.749 56.1542 106.715 55.9055C113.628 54.0652 120.087 50.8138 125.686 46.3554C125.921 46.1932 126.082 45.9444 126.134 45.6636C126.186 45.3827 126.125 45.0926 125.964 44.8566ZM99.8227 46.0417C101.006 39.0708 118.097 45.4143 122.379 45.5189H122.623C115.487 49.4923 97.4209 60.0183 99.8227 46.0417Z" fill="#333184"/>
<path d="M133.723 45.0313C133.898 46.0582 133.687 47.1135 133.131 47.994C132.748 48.6213 132.052 49.5624 131.182 49.3881C130.976 49.3432 130.782 49.2574 130.611 49.1358C130.44 49.0143 130.295 48.8595 130.184 48.6807C130.074 48.5019 130 48.3026 129.968 48.0948C129.937 47.8871 129.947 47.6749 129.998 47.4711C129.963 47.3576 129.963 47.2361 129.998 47.1226C130.199 46.6507 130.541 46.253 130.978 45.9845C131.414 45.716 131.924 45.59 132.435 45.6239C133.583 45.6239 133.583 44.1251 132.678 43.7417C131.751 43.4428 130.747 43.4899 129.851 43.8743C128.955 44.2586 128.229 44.9543 127.805 45.833C127.27 46.8037 127.142 47.9474 127.449 49.0127C127.755 50.078 128.472 50.9778 129.441 51.5142C130.278 51.954 131.248 52.0655 132.162 51.827C133.076 51.5885 133.868 51.0171 134.384 50.2246C135.017 49.4802 135.467 48.597 135.697 47.6465C135.927 46.6959 135.93 45.7046 135.707 44.7525C135.428 43.7069 133.583 43.7417 133.723 45.0313Z" fill="#333184"/>
<path d="M16.6599 116.483C14.6763 110.144 13.9781 103.473 14.6062 96.8598C15.5113 91.8757 27.207 90.8997 31.0708 88.7736C31.941 88.2857 31.3493 86.6824 30.3746 87.1006C24.9445 89.3661 17.9827 88.8782 13.4575 93.0259C9.97665 96.5113 11.543 104.11 12.1348 108.187C14.7803 126.73 17.5998 146.527 25.7102 163.606C26.4412 165.174 28.669 163.606 28.0076 162.247C21.6028 147.259 20.106 132.167 16.6599 116.483Z" fill="#333184"/>
<path d="M120.394 91.5965C120.235 91.3394 119.982 91.1551 119.689 91.0833C119.396 91.0116 119.086 91.0582 118.827 91.2131C118.594 91.2486 118.376 91.3491 118.197 91.5033C118.019 91.6574 117.887 91.8588 117.818 92.0845C117.497 92.9709 117.089 93.8232 116.599 94.6288C116.878 88.8779 113.501 89.2264 113.119 94.9425C113.207 95.1785 113.207 95.4384 113.119 95.6745C113.119 96.8595 112.875 98.0794 112.701 99.1599L112.353 102.645C110.752 114.182 108.141 125.614 106.992 137.5C107.01 137.816 107.137 138.116 107.352 138.349C107.567 138.581 107.857 138.731 108.171 138.772C108.484 138.814 108.803 138.744 109.071 138.575C109.339 138.407 109.539 138.149 109.638 137.848C112.756 125.097 115.081 112.164 116.599 99.125C117.695 97.8372 118.63 96.421 119.384 94.9077C124.362 102.715 119.628 116.343 117.713 124.394C115.103 135.269 113.014 145.83 107.48 155.763C94.3914 179.046 62.228 185.912 38.5928 175.805C37.5485 175.351 36.6435 176.815 37.6878 177.338C60.6616 189.293 92.4769 181.381 107.654 160.957C115.764 150.047 118.096 136.559 121.02 123.523C123.318 114.078 127.634 99.857 120.394 91.5965Z" fill="#333184"/>
</svg>
