<?xml version="1.0" encoding="utf-8"?>
<!-- Generator: Adobe Illustrator 25.3.1, SVG Export Plug-In . SVG Version: 6.00 Build 0)  -->
<svg version="1.1" id="Layer_1" xmlns="http://www.w3.org/2000/svg" xmlns:xlink="http://www.w3.org/1999/xlink" x="0px" y="0px"
	 viewBox="0 0 52 59" style="enable-background:new 0 0 52 59;" xml:space="preserve">
<style type="text/css">
	.st0{fill:#333184;}
</style>
<path class="st0" d="M38.8,5.2c0.6,0,1.1-0.1,1.7,0c0.8,0,0.9,0.9,1,1.5c0.2,1,0.2,2.1,0.3,3.2c0.1,0.3,0.6,0.3,0.6-0.1
	c-0.1-1.3-0.1-2.7-0.4-4c-0.5-1.6-1.9-1-3.2-1C38.5,4.7,38.5,5.2,38.8,5.2z"/>
<path class="st0" d="M6.4,49.8c1.5,0.3,2.9-0.9,4.2-1.6c0.3-0.2,0-0.6-0.3-0.5c-1.2,0.5-2.4,1.6-3.8,1.5C6.2,49.3,6.2,49.8,6.4,49.8
	z"/>
<path class="st0" d="M15.7,45.1c0.9-0.3,1.6-0.9,2.4-1.5c0.3-0.2,0-0.6-0.3-0.4c-0.8,0.5-1.4,1.1-2.3,1.5
	C15.3,44.8,15.4,45.2,15.7,45.1z"/>
<path class="st0" d="M9,55.7c-0.7,0-5.3-0.6-4.5-1.7c0.2-0.2-0.2-0.5-0.4-0.3C2.4,55.5,8,56.3,9,56.3C9.4,56.3,9.4,55.7,9,55.7z"/>
<path class="st0" d="M20.6,55.2c-2,0.5-4.1,1.1-6.2,0.7c-0.3-0.1-0.5,0.4-0.1,0.5c2.2,0.5,4.3-0.1,6.5-0.7
	C21.1,55.7,21,55.1,20.6,55.2z"/>
<path class="st0" d="M28.8,55.6l-0.9,0c-0.3,0-0.3,0.4,0,0.4l0.9,0C29,56,29,55.6,28.8,55.6z"/>
<path class="st0" d="M47.6,55.2c-0.7,1.3-3.3,1-4.6,1c-1.6,0-3.2-0.1-4.8-0.4c-0.3-0.1-0.4,0.3-0.1,0.4c1.9,0.6,4.2,0.7,6.2,0.6
	c1.2,0,3.4-0.1,3.9-1.4C48.2,55.1,47.7,54.9,47.6,55.2z"/>
<path class="st0" d="M48.5,31.6c-0.8,0.5-1.5,1.1-2.1,1.8c-0.2,0.3,0.1,0.6,0.4,0.4c0.6-0.7,1.3-1.2,2-1.7
	C49,31.9,48.8,31.5,48.5,31.6z"/>
<path class="st0" d="M2.6,32.6c1.8,0.8,3.1,2.2,4.7,3.2c0.3,0.2,0.6-0.3,0.3-0.5c-1.6-1.1-3-2.5-4.9-3.1C2.5,32,2.3,32.5,2.6,32.6z"
	/>
<path class="st0" d="M13.5,39.7c0.3,0.2,0.6-0.3,0.3-0.5c-0.8-0.5-1.6-0.9-2.3-1.4c-0.3-0.2-0.5,0.3-0.3,0.5
	C11.9,38.8,12.7,39.2,13.5,39.7z"/>
<path class="st0" d="M27.4,42.3c-1.2,0.1-2.2,0.9-3.2,1.6c-0.2,0.2,0,0.5,0.2,0.4c1-0.5,1.9-1.3,3.1-1.5
	C27.8,42.8,27.7,42.3,27.4,42.3z"/>
<path class="st0" d="M29.5,42.7c-0.3-0.1-0.4,0.3-0.2,0.4c2.7,1.3,5.1,3,7.6,4.7c0.3,0.2,0.5-0.2,0.2-0.4
	C34.8,45.6,32.3,43.9,29.5,42.7z"/>
<path class="st0" d="M45.3,53.4c0.3,0.1,0.5-0.3,0.2-0.5c-0.4-0.2-0.9-0.4-1.3-0.7C44,52,43.7,52.5,44,52.7
	C44.4,53,44.8,53.2,45.3,53.4z"/>
<path class="st0" d="M25.3,24.2c-2.7,0.3-4.4,2.7-5.8,4.9c-0.1-2.4,2.2-4.7,3.8-6.1c0.3-0.2-0.1-0.6-0.3-0.5
	c-1.2,0.5-2.4,0.4-3.6,0.2c-0.3-0.1-0.5,0.4-0.1,0.5c0.9,0.2,1.8,0.3,2.8,0.2c-1.8,1.7-3.2,4.1-3,6.6c0,0.3,0.4,0.4,0.6,0.2
	c1.7-2.2,2.9-4.6,5.8-5.3C25.6,24.7,25.6,24.2,25.3,24.2z"/>
<path class="st0" d="M20.2,19.9c1.2,0.4,2.5,0.7,3.8,1.1c0.2,0.1,0.4-0.1,0.4-0.3c0-1.5-0.4-3,0.4-4.3c0.2-0.3-0.3-0.6-0.5-0.3
	c-0.8,1.3-0.6,2.8-0.6,4.2c-1.1-0.2-2.3-0.5-3.4-0.8C20,19.4,19.9,19.8,20.2,19.9z"/>
<path class="st0" d="M28.4,15.6c0.2-0.3-0.3-0.5-0.5-0.3c-1.2,1.6-2,3.9-1.5,5.9c0.1,0.3,0.6,0.3,0.6-0.1
	C27,19.1,27.2,17.2,28.4,15.6z"/>
<path class="st0" d="M27.8,21.3c1.4-0.8,2.9-1.6,4.5-1.8c-1.2,1.3-2.8,2.3-4,3.5c-0.1,0.1-0.1,0.3,0,0.5c0.8,0.7,1.5,1.3,2.5,1.6
	c0.3,0.1,0.5-0.4,0.2-0.5c-0.7-0.3-1.4-0.8-2-1.3c1.4-1.3,3.1-2.3,4.2-3.9c0.1-0.2,0-0.5-0.3-0.4c-2,0.2-3.7,1-5.5,2
	C27.3,21,27.6,21.4,27.8,21.3z"/>
<path class="st0" d="M25.1,16.5c0.2,1.4-0.2,2.9,0.4,4.3c0.1,0.3,0.6,0.1,0.5-0.2c-0.2-1.4-0.2-2.8-0.4-4.2
	C25.5,16,25.1,16.2,25.1,16.5z"/>
<path class="st0" d="M24.9,25.4c-0.8,0.3-1.5,0.7-2.2,1.1c-0.3,0.2-0.2,0.7,0.2,0.7c0.7,0,1.4-0.1,2-0.2c0.3-0.1,0.3-0.6-0.1-0.6
	c-0.1,0-0.2,0-0.3,0c0.2-0.1,0.4-0.2,0.6-0.3C25.4,25.9,25.3,25.3,24.9,25.4z"/>
<path class="st0" d="M51.2,55.3c0.1-0.1,0.1-0.2,0-0.3c-1.4-4.2-0.7-8.7-0.4-13c0.2-2.3,0.4-4.5,0.6-6.7c0.2-2.5,0.8-5.1,0.5-7.6
	c0,0,0-0.1,0-0.1c0.1-0.1,0-0.3-0.1-0.4c-0.6-0.3-1.1-0.8-1.6-1.3c-0.5-0.5-0.9-0.8-1.5-1.2c0.5-5.1,0.9-10.3,1.6-15.4
	c0.1-0.8,0.7-3.4-0.3-4c-1.8-1-4.2-0.2-5.8-1.5c-0.1-0.1-0.2-0.1-0.2,0c-0.1-0.5-0.2-1.1-0.3-1.7C43.3,0,41.1-0.1,39.3,0
	c-3,0.2-6.1,1.3-9.1,1.9c-2.3,0.5-4.5,1-6.7,1.6c0-0.1-0.1-0.3-0.3-0.3c-1.7-0.2-3.3-0.8-5-0.9c-1.7-0.1-3.4-0.2-5.1-0.1
	c-0.7,0.1-1.7,0.3-2.1,1c-0.7,1-0.4,2.1-0.8,3.2c0,0,0,0,0,0C8.7,6.8,6.9,7.1,5.9,8.1c-1.6,1.5-0.1,3.8-0.1,5.6
	C5,14,4.1,14.4,3.3,14.8c-2,1-2.4,2.3-2.1,4.4c0.3,2.1,1.1,4.1,1.9,6.1c-0.4,0.2-0.8,0.7-1.2,1c-0.5,0.4-1.2,1-1.8,1.2
	c-0.2,0-0.2,0.2-0.1,0.4C0,27.9,0,28,0,28.1c0.5,9.1,0.5,18.3,0.7,27.4c0,0.3,0.3,0.4,0.5,0.3c1.2,0.8,2.6,0.9,4,1.5
	c1.7,0.8,3.3,1.2,5.2,1.3c2.4,0.1,4.7-0.3,7.1-0.5c2.8-0.2,5.6-0.1,8.3-0.1c5.1,0,10.3,0,15.4-0.2c2.6-0.1,5.3-0.1,7.9-0.5
	c1.1-0.2,2.9-0.4,2.1-1.9C51.3,55.4,51.2,55.4,51.2,55.3z M50.9,32.1c-0.2,1-0.2,2.1-0.3,3.2c-0.2,2.5-0.4,4.9-0.6,7.4
	c-0.3,3.8-0.8,7.6,0.1,11.4c-1.3-1.2-3.1-2.1-4.4-2.9c-3.9-2.4-7.4-5.5-11.1-8.2c2.6-2.1,5.7-3.6,8.3-5.8c0.2-0.2-0.1-0.6-0.3-0.4
	c-2.7,2-5.9,3.5-8.3,5.9c0,0,0,0,0,0c-0.7-0.5-1.3-0.9-2-1.3c2.9-0.6,5.2-3.1,7.5-4.7c3.6-2.5,6.8-5.5,10.4-8
	C51.8,27.4,51,31.6,50.9,32.1z M26.8,36C26.8,36,26.8,36,26.8,36c0,0.5,0.1,0.9,0.1,1.4c0,0.4,0.6,0.4,0.6,0
	c0.2-4.3,0.2-8.2-1.4-12.2c-0.1-0.2-0.4-0.2-0.4,0c-0.2,1.3,0.7,2.7,0.9,3.9c0.5,2.1,0.2,4.2,0.2,6.4c0,0-0.1,0-0.1,0
	c-0.2,0-0.5,0-0.7,0c0.1,0,0.2-0.1,0.3-0.1c0.4-0.2,0.1-0.8-0.4-0.6c-1.6,0.7-2.6,0.2-4.2,0.2c-1.2,0-2.1,1-3.4,0.8
	c-0.8-0.2-1.5-0.6-2.3-0.8c-1-0.3-2,0.8-3,0.5c0,0,0,0,0,0c-0.4-0.3-0.8-0.5-1.2-0.8c-0.4-0.2-0.8-0.5-1.2-0.8c-0.8-2.7-2-5.3-2.9-8
	c-0.5-1.2-0.8-2.5-1.2-3.8c-0.7-2.4,0.6-3.2,2.5-3.8c5.4-1.7,10.4-4.2,15.7-6.4c2.6-1.1,5.2-2.1,7.9-2.6c3.4-0.7,3.9,3.3,4.6,5.8
	c1.7,6.1,3.1,12.3,5.3,18.3c0,0,0,0,0,0c-0.2,0.2-0.4,0.3-0.6,0.5c-0.6,0.5-1.3,1-2,1.5c0-0.1-0.1-0.2-0.2-0.2
	c-1.6-0.4-3.4-0.5-5.1-0.8c0,0,0,0-0.1,0c0-1.5,0.1-3.1,0.6-4.6c0.1-0.3-0.3-0.4-0.5-0.1c-1.2,3.1-1,6.7-0.7,9.9
	c-0.9,0.5-1.8,1-2.8,1.2c-1.3-0.8-2.7-1.5-4.2-2.1c-0.3-0.1-0.5,0.1-0.5,0.4C26,39.2,24,40.2,22,41.4c-1.4-0.6-2.6-1.4-3.8-2.2
	C21.1,38.2,23.7,36.6,26.8,36z M17.6,38.8C17.6,38.8,17.6,38.8,17.6,38.8c-1.2-0.9-2.4-1.8-3.6-2.7c0.5-0.1,1-0.3,1.6-0.4
	c1-0.2,2.1,0.8,3.1,0.8c1.4,0,2.5-0.8,4.1-0.6c0.4,0.1,0.8,0.1,1.2,0.1C21.8,36.6,19.7,38,17.6,38.8z M39.6,35.7
	c-0.9,0.7-1.8,1.3-2.7,2c-0.6,0.5-1.3,1-2,1.4c0-1.5-0.1-2.9-0.1-4.4C36.3,35.4,38,35.6,39.6,35.7z M48.2,29.1
	c0.1-0.8,0.2-1.6,0.3-2.3c0.4,0.4,0.9,0.8,1.3,1.2C49.2,28.3,48.7,28.7,48.2,29.1z M50.9,27.4c-0.2,0.1-0.3,0.1-0.5,0.2
	c-0.6-0.5-1.3-1-1.9-1.5c0-0.3,0.1-0.6,0.1-0.9C49.4,25.9,50.1,26.8,50.9,27.4z M47.2,5.3c0.9,0.1,2.5,0.1,2.5,1.3
	c0,1.3-0.2,2.6-0.3,3.9c-0.8,6.4-1.2,12.9-2,19.3c-0.1,0.1-0.2,0.2-0.3,0.2c-0.1,0.1-0.3,0.2-0.4,0.3C46,28,45.5,25.6,45,23.1
	c0-6.2,0-12.6-0.9-18.7C44.7,5.2,46.2,5.2,47.2,5.3z M11.1,5.5c0.1-2.2,1.5-2.6,3.5-2.6C16,3,17.4,3,18.8,3.1
	c1.2,0.1,2.3,0.5,3.5,0.7c-3.7,0.9-7.4,1.8-11.2,2.5c-0.1,0-0.2,0-0.2,0C11,6.1,11,5.9,11.1,5.5z M7.2,8.2c1.6-0.8,3.7-1.1,5.5-1.4
	C17.9,5.9,23,4.4,28.2,3.3c2.6-0.6,5.2-1.1,7.8-1.7c1.3-0.3,2.6-0.6,3.9-0.7c0.9-0.1,2.1,0,2.7,0.8C43,2.1,43,3.2,43.1,3.8
	c1,5.2,1,10.7,1.1,16.1c-0.2-0.7-0.4-1.5-0.6-2.2c-1-3.5-2.3-7.5-4.3-10.5c-1.6-2.3-4.6-2.1-7-1.7c-4.1,0.6-8,2-11.9,3.5
	c-3.3,1.3-6.6,2.7-10.1,3.6c-0.2,0.1-0.4,0.1-0.7,0.2c-0.3-1.8,3.2-2.3,4.4-2.6c0.4-0.1,0.2-0.7-0.2-0.6c-1.2,0.2-6,1.4-4.9,3.4
	c-0.9,0.2-1.8,0.5-2.6,0.7C6.4,11.6,5,9.3,7.2,8.2z M2.7,21.5c-0.5-1.3-1.3-3.4-0.6-4.7c0.5-1.1,2.1-1.7,3.1-2.1
	c1.9-0.8,4-1.2,6-1.7c3-0.8,5.9-2,8.8-3.1c3.2-1.3,6.5-2.5,9.9-3.3C31.5,6.2,33.3,6.1,35,6c2.2,0,3.4,1,4.3,2.8
	c3.7,6.9,4.6,14.6,6.5,22c0,0,0,0.1,0,0.1c-0.9,0.7-1.7,1.3-2.6,2c-1.3-3.5-2.3-7.1-3.4-10.7c-1.1-3.6-1.8-7.4-3.1-10.9
	c-0.6-1.5-1.3-2.7-3-2.9c-1.3-0.1-2.8,0.5-4,0.8c-1.8,0.5-3.6,1.2-5.3,1.9c-3.1,1.3-6.1,2.7-9.2,4.1c-2.7,1.2-5.7,1.8-8.3,3.2
	c-1.9,1-1.4,3.2-0.8,4.9c1.1,3.4,2.5,6.6,3.6,10c-1.2-0.8-2.4-1.7-3.7-2.5c-0.2-0.1-0.4-0.3-0.6-0.4C5.1,27.3,3.7,24.5,2.7,21.5z
	 M4.9,30.1c-1-0.5-2.1-0.9-3-1.4c0.7-0.4,1.4-1,2.1-1.3C4.4,28.3,4.7,29.2,4.9,30.1z M2.2,27.1c0.3-0.2,0.6-0.5,0.9-0.7
	c0.1-0.1,0.3-0.2,0.4-0.3c0.1,0.2,0.2,0.5,0.3,0.7c-0.9,0.4-1.5,1-2.4,1.4c0,0-0.1,0.1-0.1,0.1c-0.2-0.1-0.4-0.3-0.6-0.4
	C1.2,27.7,1.7,27.4,2.2,27.1z M0.8,28.9c1.2,0.9,2.6,1.3,3.9,2C7,31.9,8.8,33.8,11,35c3.6,2.1,6.5,5.2,10.4,6.8
	c-2.8,1.7-5.6,3.7-6,3.9c-2.8,2-5.4,3.9-8.6,5.3c-1.8,0.8-4,1.6-5.3,3.1C1.2,45.7,1.1,37.3,0.8,28.9z M49.6,56.6
	c-1.7,0.3-3.4,0.3-5.1,0.4c-5,0.2-9.9,0.4-14.9,0.4c-3.1,0-6.1,0-9.2,0c-2.9,0-5.7,0.4-8.6,0.5c-1.6,0.1-3.2-0.1-4.7-0.5
	c-1.1-0.3-2.1-1-3.2-1.3c-0.5-0.1-1-0.2-1.5-0.4c-1.4-0.4-0.8-0.8-0.2-1.4c0.7-0.7,1.7-1.2,2.7-1.7c1.6-0.8,3.3-1.5,5-2.3
	c2.4-1.2,4.3-2.8,6.5-4.4c0.5-0.4,10.4-6.4,10.4-6.4c0.2,0.2,0.5,0.2,0.6,0c4.9,2,8.8,5.7,13,8.9c2.6,2,5.4,3.5,8.1,5.3
	C49.2,54.4,51.8,56.1,49.6,56.6z"/>
<path class="st0" d="M30,36.7c-0.1-0.5-0.1-1-0.2-1.4c0.2,0,0.5,0,0.7-0.2c0.2-0.2,0.1-0.6-0.2-0.5c-0.2,0-0.4,0.1-0.5,0.1
	c0,0,0,0,0,0c-0.5-3.2-1.3-6.3-1.5-9.5c0-0.4-0.6-0.4-0.6,0c-0.1,3.9,0.8,7.9,1.7,11.7C29.4,37.2,30,37.1,30,36.7z"/>
<path class="st0" d="M33.9,27.9c-1.4,0.3-2.4,1.2-3.7,1.8c-0.3,0.2-0.1,0.7,0.2,0.6c1.1-0.3,1.9-1.1,3-1.5c-1,3-0.9,6.3-0.8,9.4
	c0,0.3,0.5,0.3,0.5,0c0.1-3.3-0.1-6.7,1.1-9.8C34.5,28.1,34.2,27.9,33.9,27.9z"/>
<path class="st0" d="M33.7,26.6c0.3-0.2-0.1-0.7-0.4-0.5c-1.3,0.9-2.1,2.4-3.6,3.1c-0.3,0.1-0.1,0.5,0.2,0.5
	C31.5,29.2,32.5,27.5,33.7,26.6z"/>
<path class="st0" d="M31.8,23.5c-0.1-0.2-0.5,0-0.4,0.2c0.4,0.8,0.9,1.5,1.7,1.9c0.3,0.2,0.6-0.3,0.3-0.5
	C32.7,24.7,32.1,24.2,31.8,23.5z"/>
<path class="st0" d="M35.4,26.8c0.4-0.6,0.9-1.2,1.4-1.7c-0.4,0.8-0.8,1.7-0.5,2.2c0.2,0.4,1.1,0.7,1.3,0.9c0.7,0.5,1.3,1,1.9,1.6
	c-1.2,0.1-2.6-0.7-3.7-1.1c-0.3-0.1-0.5,0.4-0.2,0.5c1.5,0.5,2.8,1.1,4.3,1c0.2,0,0.3-0.2,0.2-0.4c-0.5-1-1.6-1.8-2.6-2.5
	c-0.8-0.5-0.7-0.7-0.2-1.7c0.3-0.7,0.7-1.2,0.8-1.9c0.1-0.3-0.3-0.5-0.6-0.3c-0.9,0.7-1.7,1.4-2.3,2.3c-0.3-1.6-1-3.1-1.4-4.7
	c-0.1-0.3-0.6-0.2-0.5,0.1c0.3,1.9,1.1,3.6,1.2,5.5C34.7,27,35.2,27.1,35.4,26.8z"/>
<path class="st0" d="M18.9,17.5c-0.9,1.4-1.4,3-2.2,4.4c-1.6,2.9-5.1,2.5-7.7,1.3c-0.3-0.1-0.5,0.2-0.2,0.4c2.3,1.3,5,1.8,7.2,0.2
	c1.9-1.3,2.5-4.1,3.4-6C19.6,17.5,19.1,17.2,18.9,17.5z"/>
<path class="st0" d="M11.1,25.9c0,0.6,0,1.2,0,1.7c0,0.4,0.5,0.4,0.6,0c0-0.6,0-1.2,0-1.7C11.6,25.6,11.1,25.6,11.1,25.9z"/>
<path class="st0" d="M17.4,24.8c-0.3-0.2-0.6,0.1-0.4,0.4c0.4,0.4,0.9,0.8,1.4,1c0.3,0.1,0.6-0.2,0.3-0.5
	C18.3,25.4,17.8,25.1,17.4,24.8z"/>
<path class="st0" d="M21.8,17.7c0.4,0,0.4-0.6,0-0.6c-0.5,0-0.9-0.1-1.3-0.3c-0.3-0.2-0.6,0.3-0.3,0.5
	C20.6,17.6,21.2,17.7,21.8,17.7z"/>
<path class="st0" d="M20.4,22c0.4,0.1,0.6-0.5,0.2-0.6c-0.5-0.2-1.2-0.3-1.7,0c-0.2,0.1-0.1,0.6,0.1,0.5C19.5,21.8,20,21.9,20.4,22z
	"/>
<path class="st0" d="M14.6,26.3C14.5,25.9,14,26,14,26.3c0,0.9,0,1.8,0.4,2.6c0.2,0.3,0.7,0.1,0.5-0.2
	C14.7,27.9,14.7,27.1,14.6,26.3z"/>
</svg>
