<svg width="77" height="67" viewBox="0 0 77 67" fill="none" xmlns="http://www.w3.org/2000/svg">
<path d="M6.48862 41.0405C5.11976 31.3419 5.35246 21.5474 4.57221 11.7939C4.53114 11.3008 3.81934 11.3693 3.81934 11.8624C3.87409 17.1638 3.99729 22.4378 4.17524 27.7254C4.32582 32.1912 4.1068 36.9583 5.48935 41.2734C5.68099 41.8076 6.57075 41.6159 6.48862 41.0405Z" fill="#484751"/>
<path d="M5.99537 45.3011C6.54291 47.2874 6.11856 49.3695 6.54291 51.3695C6.63873 51.8216 7.39161 51.9723 7.43267 51.4106C7.56956 49.3148 7.32316 47.0545 6.65242 45.0682C6.50184 44.6435 5.87217 44.8764 5.99537 45.3011Z" fill="#484751"/>
<path d="M7.77488 62.397C7.88439 63.7532 8.06234 65.1367 8.25398 66.4929C8.32243 66.986 9.0753 67.0682 9.15743 66.534C9.37645 65.1367 8.81522 63.6984 8.65095 62.3148C8.58251 61.7669 7.73381 61.8217 7.77488 62.397Z" fill="#484751"/>
<path d="M17.4113 22.5198C15.0842 25.7664 14.5504 30.876 15.5359 34.6842C17.206 41.1636 23.1331 44.7116 29.4299 45.4513C29.471 45.5061 29.512 45.5609 29.5531 45.6157C29.8406 45.9581 30.3197 45.8349 30.5113 45.5472C31.6338 45.6157 32.7426 45.6157 33.8513 45.5061C41.0652 44.8486 44.1452 36.5198 44.4874 30.3417C44.7064 26.5061 43.6387 23.4102 40.942 20.6431C37.8621 17.4924 34.4536 17.0129 30.6345 16.6431C29.9638 16.3554 29.2656 16.1088 28.5401 15.9171C28.4306 15.8897 28.3348 15.9034 28.2527 15.9171C28.1706 15.8897 28.061 15.876 27.9515 15.9171C23.7217 17.2732 20.0669 18.7938 17.4113 22.5198ZM17.2881 25.2321C18.2326 25.3143 19.1771 25.328 20.1216 25.2869C19.4783 27.465 19.1771 29.7664 19.1224 31.9444C18.1231 31.9581 17.1375 31.876 16.1793 31.6568C16.1109 29.465 16.5215 27.2047 17.2881 25.2321ZM18.7391 38.739C18.0547 37.8897 17.466 36.9718 17.0554 35.9718C16.6174 34.9444 16.3573 33.8349 16.2341 32.6842C17.028 33.0677 18.0273 33.191 19.1087 33.1499C19.1771 35.1773 19.6425 37.054 20.4639 38.6842C19.8889 38.6979 19.314 38.7253 18.7391 38.739ZM34.4263 30.191C34.3031 28.1636 33.9882 26.1636 33.4544 24.2869C34.6453 24.2184 35.8362 24.1636 37.0271 24.1088C37.8895 25.9034 38.3686 27.9034 38.4918 30.054C37.1503 30.1088 35.7951 30.1499 34.4263 30.191ZM38.5328 31.2595C38.5328 31.876 38.5055 32.4924 38.437 33.1225C38.3001 34.4376 37.9716 35.8623 37.4378 37.2458C36.2468 37.5198 35.0559 37.739 33.865 37.9033C34.3031 35.8623 34.5084 33.6979 34.481 31.5335C35.8362 31.4787 37.1914 31.3828 38.5328 31.2595ZM36.6849 38.9034C35.7267 40.6568 34.3989 42.1636 32.6604 42.9444C32.5235 42.9992 32.3319 43.0677 32.1129 43.1225C32.6604 42.0129 33.1121 40.8075 33.4681 39.5472C34.5495 39.3828 35.6309 39.1636 36.6849 38.9034ZM32.6741 38.0677C30.7851 38.3006 28.896 38.4239 26.9796 38.5061C26.2952 36.4924 25.8435 34.3554 25.6518 32.1773C28.2116 31.8349 30.7714 31.7116 33.3312 31.602C33.3585 33.7938 33.1258 35.9992 32.6741 38.0677ZM26.6374 30.8349C26.2815 30.9034 25.9256 30.9581 25.5697 31.0403C25.4739 28.9307 25.5971 26.8075 25.9804 24.7801C26.61 24.7116 27.2534 24.6568 27.8831 24.6157C29.3615 24.5061 30.8398 24.4239 32.3319 24.3417C32.8658 26.2047 33.1806 28.2047 33.2901 30.2321C31.0589 30.3143 28.8413 30.4513 26.6374 30.8349ZM25.775 38.5472C24.4472 38.5883 23.1194 38.6157 21.778 38.6568C20.8471 37.0129 20.327 35.0951 20.1764 33.0814C21.7917 32.9034 23.4206 32.5061 24.5294 32.328C24.7073 34.4513 25.1317 36.5609 25.775 38.5472ZM24.4609 31.2458C23.0373 31.5198 21.5726 31.7938 20.1216 31.8897C20.108 29.6568 20.5323 27.3554 21.3262 25.2184C22.5035 25.1362 23.6944 25.0129 24.8716 24.8897C24.502 26.9581 24.3651 29.1088 24.4609 31.2458ZM19.5878 39.6705C20.108 39.739 20.6144 39.7938 21.1483 39.8486C21.9012 40.9855 22.8457 41.9581 23.9681 42.739C22.3255 41.9718 20.8198 40.9307 19.5878 39.6705ZM22.6814 39.9855C23.886 40.0677 25.118 40.1088 26.35 40.1088C26.8017 41.2458 27.3355 42.3417 27.9515 43.3554C25.6655 42.7527 23.9271 41.5609 22.6814 39.9855ZM30.4566 43.9581C30.4292 43.9855 30.4155 44.0266 30.3881 44.054C30.3197 44.1636 30.2512 44.2869 30.1828 44.3965C30.1417 44.3965 30.1006 44.3965 30.0596 44.3965C30.1828 44.1088 30.087 43.739 29.69 43.6842C29.6215 43.6705 29.5668 43.6568 29.512 43.6568C28.7592 42.5609 28.1295 41.3554 27.5819 40.0814C29.1424 40.0403 30.7029 39.9307 32.2361 39.7253C31.7843 41.2732 31.1957 42.6979 30.4566 43.9581ZM33.7281 44.2458C32.9616 44.3828 32.1813 44.4376 31.3874 44.4376C32.0171 44.1773 33.4544 43.8623 33.7692 43.6705C35.0559 42.8897 36.1921 41.7253 36.9997 40.4513C37.3967 39.8212 37.7252 39.191 38.0264 38.5335C39.3405 38.1499 40.6135 37.6705 41.8181 37.1225C40.3261 40.6431 37.6705 43.5609 33.7281 44.2458ZM41.8181 23.6431C42.8311 25.3554 43.2965 27.3417 43.3102 29.5472C43.3239 31.5746 43.009 33.7527 42.3246 35.7938C42.2562 35.7938 42.1877 35.8075 42.1056 35.8349C40.9557 36.2732 39.8196 36.6294 38.6697 36.9307C39.2994 35.0814 39.6142 33.1636 39.7238 31.1499C40.3671 31.0814 41.0242 30.9855 41.6675 30.8897C42.352 30.7801 42.2835 29.7253 41.5717 29.8075C40.9694 29.876 40.3534 29.9307 39.7511 29.9718C39.7511 27.8349 39.272 25.8349 38.4233 24.0403C39.4226 23.9992 40.4082 23.9444 41.3938 23.9034C41.6265 23.876 41.7497 23.7801 41.8181 23.6431ZM38.7108 20.328C39.7785 21.0677 40.6272 21.9171 41.3116 22.8486C40.1892 22.9034 39.0667 22.9718 37.9442 23.0403C36.8355 21.0951 35.275 19.4376 33.3996 18.1636C35.1928 18.4924 36.9176 19.0814 38.7108 20.328ZM36.5206 23.1362C35.4118 23.2047 34.3031 23.2732 33.1943 23.328C32.5235 21.2732 31.6064 19.3828 30.4292 17.8075C33.1395 18.9718 35.1654 20.8349 36.5206 23.1362ZM28.677 17.6157C28.7318 17.6157 28.8002 17.6294 28.855 17.6294C30.2512 19.191 31.3189 21.1773 32.0581 23.3828C31.4558 23.4239 30.8398 23.465 30.2375 23.4924C28.8824 23.5609 27.5272 23.6979 26.172 23.8349C26.6785 21.5883 27.5135 19.465 28.677 17.6157ZM27.226 17.4513C27.3766 17.4787 27.5135 17.4924 27.6504 17.5061C26.4458 19.4239 25.5971 21.6157 25.0632 23.9581C23.9408 24.0677 22.832 24.1773 21.7095 24.2458C22.9552 21.4513 24.8168 18.9992 27.226 17.4513ZM24.2693 18.3554C22.4761 19.9034 21.2441 22.0129 20.4365 24.3143C19.5193 24.3554 18.6022 24.3417 17.6714 24.3006C17.7261 24.191 17.7672 24.0814 17.8219 23.9855C19.1361 21.2321 21.6 19.5883 24.2693 18.3554Z" fill="#484751"/>
<path d="M12.5104 54.2874C11.2921 53.8628 9.84109 54.5751 9.14297 55.6162C9.03346 55.6847 8.93764 55.7943 8.93764 55.945C8.93764 55.945 8.93764 55.945 8.93764 55.9587C8.22583 57.4381 8.9924 59.3559 9.36199 60.808C9.49888 61.3559 10.3613 61.1367 10.3202 60.6025C10.2518 59.7669 10.1833 58.945 10.0875 58.1367C10.1422 58.1778 10.2107 58.2189 10.2928 58.2463C12.4009 58.808 15.0838 55.1778 12.5104 54.2874ZM12.3187 56.1641C11.9628 57.0135 11.1004 57.0682 10.3339 57.2189C10.1696 57.2463 10.0464 57.3422 9.96429 57.4655C9.92322 57.2052 9.86847 56.945 9.81372 56.6984C10.0054 55.9998 10.5118 55.4655 11.6206 55.2874C12.305 55.1778 12.5651 55.5751 12.3187 56.1641Z" fill="#484751"/>
<path d="M16.1393 53.5202C14.5651 55.1366 14.524 57.7531 14.0038 59.8353C13.8396 60.5065 14.8799 60.6983 15.0579 60.0407C15.2084 59.4654 15.318 58.8216 15.4412 58.164C16.153 58.2736 17.0153 58.4243 17.7682 58.2599C17.8777 58.6709 17.9735 59.0818 18.0557 59.4928C18.1926 60.1914 19.315 60.1366 19.1918 59.3969C18.8633 57.3421 18.0967 55.3558 17.029 53.575C16.8374 53.2325 16.372 53.2736 16.1393 53.5202ZM16.8921 57.1366C16.4815 57.164 16.0571 57.1366 15.6465 57.1092C15.8244 56.3147 16.0708 55.5476 16.4815 54.9037C16.8374 55.6161 17.1522 56.3421 17.4123 57.0818C17.2344 57.1092 17.0701 57.1366 16.8921 57.1366Z" fill="#484751"/>
<path d="M23.7089 57.0818C23.1614 56.4791 22.4906 55.986 21.8883 55.438C21.7788 55.3421 21.6693 55.2325 21.5735 55.1229C21.3955 54.9175 21.4914 55.0408 21.6009 54.8764C22.0389 54.2736 23.0245 54.2599 23.6679 54.4517C24.0922 54.5887 24.2428 53.9449 23.9006 53.7394C22.9834 53.2188 21.7515 53.2462 20.9712 54.0408C20.3005 54.7257 20.3005 55.3147 20.9301 55.986C21.4777 56.575 22.1347 57.0545 22.7097 57.6161C22.8192 57.7257 23.2161 58.0682 23.2024 58.2462C23.2024 58.301 22.0663 58.438 21.8747 58.4654C21.1902 58.575 21.286 59.4928 21.9568 59.5202C22.6549 59.5476 23.8184 59.438 24.188 58.7257C24.5029 58.1229 24.1196 57.5202 23.7089 57.0818Z" fill="#484751"/>
<path d="M27.5685 55.287C27.3084 55.109 27.0346 54.9446 26.7882 54.7391C26.8293 54.7665 28.4856 53.3692 28.7731 53.1774C29.129 52.9446 28.8278 52.3829 28.4309 52.5336C27.3768 52.9446 26.008 53.561 25.7753 54.8076C25.6384 55.5199 26.3365 55.835 26.8156 56.1637C27.5685 56.6706 28.3214 57.2048 28.9784 57.835C29.2385 58.0953 29.2385 58.287 29.4165 58.2048C28.8005 58.5062 27.9244 58.287 27.2673 58.3144C26.624 58.3418 26.6103 59.287 27.2126 59.424C28.1571 59.6295 29.5944 59.7254 30.3336 58.9857C30.9496 58.3829 30.2788 57.5062 29.8545 57.0542C29.1974 56.3555 28.3487 55.8213 27.5685 55.287Z" fill="#484751"/>
<path d="M33.1678 52.698C32.8803 52.7117 32.6066 52.7939 32.3739 52.9446C32.1822 52.7665 31.7989 52.7802 31.7031 53.0542C31.5662 53.4377 31.4841 53.8213 31.4293 54.2186C30.8407 55.7391 30.9776 57.972 31.7168 58.8076C32.0727 59.2186 32.853 59.0542 32.7845 58.424C32.7298 57.8624 32.675 57.3008 32.6339 56.7391C32.675 56.7665 32.7024 56.7939 32.7435 56.8213C35.7139 58.0816 36.4257 52.6021 33.1678 52.698ZM34.0712 55.4377C33.8796 55.8761 33.3184 55.7939 32.9351 55.8213C32.7845 55.835 32.6613 55.9172 32.5792 56.0131C32.5518 55.6569 32.5381 55.2871 32.5244 54.9309C32.5792 54.7665 32.6339 54.6021 32.6887 54.4651C32.9898 53.7939 33.5921 53.7254 34.0302 54.3556C34.2492 54.6706 34.2218 55.109 34.0712 55.4377Z" fill="#484751"/>
<path d="M40.5731 52.4656C40.5868 52.2053 40.4225 51.945 40.0803 51.9313C37.8491 51.9039 36.7129 54.7807 37.0825 56.6574C37.37 58.1231 38.7936 59.5341 40.2856 58.6848C41.5039 57.9861 41.983 56.1642 42.0241 54.8766C42.0515 54.0546 41.4492 52.7259 40.5731 52.4656ZM39.9434 57.4656C39.2453 58.2738 38.5472 57.3149 38.2871 56.6163C37.9038 55.5752 38.4103 53.8902 39.3959 53.1916C39.4369 53.3286 39.5054 53.4519 39.6423 53.5204C39.9571 53.6985 40.3678 53.5889 40.6142 53.8902C40.8469 54.1779 40.8606 54.6163 40.8606 54.9724C40.8606 55.8492 40.5046 56.8081 39.9434 57.4656Z" fill="#484751"/>
<path d="M44.5289 55.3692C44.0498 55.7254 44.3509 56.3966 44.8985 56.3966C45.8977 56.4103 46.4863 57.2185 47.2666 57.698C47.732 57.9857 48.3069 57.287 47.9647 56.8761C47.4172 56.2322 46.7054 55.7117 45.8977 55.4514C46.1715 54.9583 46.2947 54.3966 46.2399 53.7939C46.1715 52.8898 45.4323 52.2596 44.5425 52.4514C44.1866 52.5336 43.8992 52.6706 43.6665 52.8624C43.557 52.6569 43.4338 52.4514 43.2832 52.2733C43.0094 51.9309 42.4619 52.2048 42.5988 52.6295C42.763 53.1364 42.8588 53.6569 42.9273 54.1638C42.6672 55.5062 43.1463 57.2733 43.3927 58.3281C43.557 58.9994 44.5562 58.6158 44.392 57.9583C44.1182 56.8076 44.2414 55.4377 44.0361 54.2048C44.2688 53.6843 44.9943 53.0679 45.1312 53.8898C45.2544 54.4514 44.9669 55.0405 44.5289 55.3692Z" fill="#484751"/>
<path d="M48.6891 52.3149C49.0861 52.3012 49.5241 52.3149 49.9484 52.3012C49.6336 53.8491 49.6747 55.7943 50.5234 57.0683C50.8656 57.5751 51.6732 57.1368 51.4679 56.5751C50.9614 55.1642 50.6739 53.7532 50.893 52.2738C51.2762 52.2464 51.6458 52.2053 52.0017 52.1094C52.5082 51.9724 52.4398 51.1231 51.9196 51.0683C50.8656 50.9724 49.6747 51.2738 48.6206 51.4108C48.032 51.493 48.1005 52.3286 48.6891 52.3149Z" fill="#484751"/>
<path d="M51.5654 14.4104C51.3053 12.657 50.8673 10.9447 50.5114 9.20496C50.4156 8.73921 49.6764 8.794 49.7722 9.25975C50.1007 11.0406 50.3061 12.8351 50.6894 14.6022C50.7989 15.1091 51.6339 14.9036 51.5654 14.4104Z" fill="#484751"/>
<path d="M53.1259 24.8625C53.03 23.1775 52.6604 21.5474 52.2772 19.9036C52.1813 19.4926 51.4969 19.657 51.5653 20.068C51.8254 21.6844 52.0718 23.3145 52.2772 24.9447C52.3456 25.4789 53.1532 25.4104 53.1259 24.8625Z" fill="#484751"/>
<path d="M12.8264 10.287C13.2507 10.2459 13.6751 10.2185 14.0994 10.1911C14.5512 10.15 14.4964 9.45137 14.0447 9.49247C13.6203 9.53356 13.196 9.56096 12.7716 9.60206C12.3199 9.62945 12.3747 10.3281 12.8264 10.287Z" fill="#484751"/>
<path d="M74.9867 -2.2607C73.6179 -3.90454 70.5516 -3.83605 68.69 -3.95934C64.378 -4.24701 60.1756 -4.13742 55.9048 -4.93194C49.1289 -6.17851 42.4215 -7.16481 35.5498 -7.79495C31.6075 -8.15112 25.8993 -8.50728 23.4353 -4.68536C23.408 -4.64427 23.3806 -4.58947 23.3806 -4.54838C23.0247 -4.19221 22.7509 -3.74016 22.5456 -3.13742C21.8064 -0.91824 21.4505 1.56121 21.163 3.97217C21.5874 3.91738 22.0117 3.87628 22.4498 3.87628C22.7646 1.80779 23.1616 -0.233308 23.5722 -2.2881C24.243 -5.64427 29.7869 -4.90454 32.2508 -4.71276C45.3508 -3.69906 58.3277 -1.19221 71.4277 -0.192212C71.5098 -0.082623 71.6193 -0.000431061 71.7836 0.0406647C73.5084 0.451624 72.9745 6.88998 72.9471 7.95847C72.8239 12.89 72.249 17.8078 71.6467 22.6982C70.36 33.0955 68.5941 43.4379 66.8557 53.7804C66.5956 55.3283 66.3355 56.8763 66.0891 58.4242C66.007 58.9448 65.9249 59.4653 65.8564 59.9859C65.7058 61.0544 62.4069 60.3283 61.1612 60.2324C59.7513 60.1229 58.3414 59.9722 56.9314 59.7804C56.904 59.3557 56.8904 58.9311 56.8767 58.5201C59.1627 59.205 62.0647 60.3694 64.118 58.7804C64.5697 58.4242 64.0358 57.8078 63.5704 58.0955C61.5856 59.3009 58.9163 57.9585 56.8219 57.5475C56.7124 54.753 56.6303 51.9448 56.5481 49.1366C56.5892 49.1503 56.6303 49.1777 56.6713 49.1777C57.6569 49.3831 58.0676 50.2872 58.7383 50.9311C59.1353 51.3146 59.8471 50.7393 59.5733 50.2598C59.1627 49.5201 58.5604 48.8626 57.8349 48.4516C58.2045 48.027 58.4235 47.4927 58.5056 46.9037C58.6151 46.0133 58.0265 45.2324 57.1094 45.2461C56.863 45.2461 56.644 45.3009 56.4523 45.3694C56.3428 41.3283 56.2333 37.2872 56.0143 33.2598C58.6973 30.6571 60.5178 26.8626 61.3802 23.5475C62.3521 19.8215 61.9141 16.5749 59.806 13.342C58.3687 11.1366 56.6166 9.83519 54.6591 8.91738C54.618 8.17765 54.5907 7.45162 54.5359 6.7256C54.4264 5.08176 54.0842 3.43793 52.7427 2.36943C51.0727 1.02697 48.0749 1.6982 46.2406 1.94477C41.9561 2.50642 37.8632 3.43792 33.5102 3.50642C30.6629 3.54751 27.8568 3.6434 25.0369 3.78039C25.3518 1.6982 25.6529 -0.397691 25.8993 -2.49358C25.9541 -2.98673 25.2422 -3.05523 25.1464 -2.57577C24.7358 -0.438787 24.3525 1.6982 23.9692 3.83519C20.3143 4.02697 16.6595 4.31464 12.9772 4.6982C9.0486 5.12286 3.36781 5.90368 1.71149 10.1229C1.68411 10.1777 1.68411 10.2324 1.68411 10.2735C1.41034 10.6982 1.23239 11.1913 1.15026 11.8215C0.725909 15.1092 1.19132 18.7393 1.43772 22.0133C2.10846 31.0407 3.58683 39.9859 4.49028 48.9859C5.05152 54.6708 4.24389 60.9585 5.61275 66.5064C6.78997 71.2598 10.3353 72.2188 14.8663 71.9722C20.8482 71.6297 26.5837 69.4105 32.5383 68.7941C37.0555 68.3146 41.6138 68.205 46.1448 67.89C49.827 67.6297 53.345 67.6023 56.8904 66.4516C57.1504 66.3694 57.3147 66.0818 57.301 65.8215C57.1778 64.1777 57.0683 62.5338 56.9862 60.8763C60.1619 61.3146 63.2282 61.7804 66.4724 61.3968C66.7462 61.3694 66.9652 61.1229 66.9926 60.8489C68.4025 49.2598 70.9212 37.7804 72.4954 26.1913C73.0019 22.4379 73.481 18.6708 73.8232 14.89C73.919 14.8215 73.9875 14.7119 74.0148 14.5612C74.535 10.479 75.3837 6.45162 75.9039 2.36943C76.1092 0.725596 76.0955 -0.945637 74.9867 -2.2607ZM55.9185 31.5612C55.9048 31.2872 55.8911 31.0133 55.8774 30.7393C55.8637 30.4927 55.85 30.2324 55.8226 29.9859C56.3702 29.89 56.9177 29.7941 57.4516 29.6708C56.9999 30.342 56.4797 30.9722 55.9185 31.5612ZM60.0935 16.4516C60.7505 18.3283 60.819 20.3694 60.4083 22.5338C60.0251 24.5201 59.2859 26.6023 58.2182 28.4653C58.1497 28.4516 58.0813 28.4516 57.9991 28.4653C57.2463 28.5886 56.5071 28.6708 55.7679 28.7393C55.7131 27.9448 55.6584 27.1503 55.6036 26.3557C55.9869 25.3968 56.3291 24.4242 56.5892 23.3968C57.2463 23.4516 57.8896 23.4927 58.5467 23.5201C59.2448 23.5475 59.3817 22.5064 58.6699 22.4379C58.0676 22.3831 57.4516 22.3146 56.8493 22.2324C57.2599 20.1366 57.1915 18.0818 56.7124 16.1503C57.698 16.3009 58.6699 16.4516 59.6555 16.6023C59.8471 16.6434 59.9977 16.5749 60.0935 16.4516ZM55.2203 22.0133C55.1382 21.1366 55.0561 20.2735 54.9603 19.3968C55.0424 19.3146 55.0835 19.1913 55.0835 19.0407C55.015 17.9859 54.9603 16.9448 54.9192 15.89C55.0561 15.9037 55.193 15.9311 55.3162 15.9448C55.809 17.8626 55.8911 19.9311 55.5899 22.0544C55.4667 22.0544 55.3435 22.027 55.2203 22.0133ZM55.3709 23.2872C55.3572 23.3283 55.3435 23.3694 55.3435 23.4105C55.3435 23.3694 55.3435 23.3283 55.3298 23.2872C55.3435 23.2735 55.3572 23.2735 55.3709 23.2872ZM54.8781 14.89C54.8781 14.7804 54.8781 14.6845 54.8644 14.5749C54.9055 14.6845 54.9603 14.7941 54.9876 14.9037C54.9603 14.9037 54.9192 14.9037 54.8781 14.89ZM57.698 12.5886C58.5877 13.5338 59.2722 14.5338 59.7513 15.5749C58.6425 15.4105 57.52 15.2598 56.4113 15.0955C56.0143 13.9174 55.4667 12.8078 54.7823 11.7667C54.7686 11.2735 54.7549 10.7804 54.7276 10.2735C55.7542 10.8626 56.7398 11.5886 57.698 12.5886ZM15.4138 5.56121C20.6702 5.13655 25.8582 4.58861 31.142 4.62971C34.3315 4.6571 37.4525 4.56121 40.6009 4.06806C43.9135 3.54751 47.3768 2.49272 50.7578 2.83519C53.4819 3.10916 53.3861 6.38313 53.4956 8.41053C53.4956 8.41053 53.4956 8.42423 53.4956 8.43793C53.4545 8.42423 53.4134 8.39683 53.3587 8.38313C53.4271 8.61601 53.4682 8.86258 53.5229 9.09546C53.5366 9.50642 53.564 9.93108 53.5777 10.342C53.2355 8.45162 52.6606 5.52012 51.1548 4.42423C51.1001 4.27354 50.9769 4.15025 50.7578 4.15025C50.7305 4.15025 50.7031 4.15025 50.6757 4.15025C50.443 4.05436 50.2103 3.98587 49.9365 3.98587C49.7312 3.95847 49.5806 4.05436 49.4985 4.19135C41.0389 4.52012 32.5794 5.27354 24.1472 6.04066C20.2596 6.38313 16.3857 6.7393 12.4844 6.97217C9.66458 7.13655 6.59833 7.45162 3.97011 8.62971C6.98161 6.12286 11.7042 5.86258 15.4138 5.56121ZM51.456 66.3557C42.6405 67.4516 33.6471 66.6434 24.9411 68.7667C21.5737 69.5886 18.22 70.4242 14.7704 70.7393C12.9909 70.9037 11.1703 70.8215 9.48663 70.1777C7.29645 69.3283 6.81735 66.7393 6.5162 64.7119C6.0371 61.5338 6.2698 58.2598 6.20136 55.0681C6.09185 50.0818 5.29791 45.027 4.73668 40.0681C3.99749 33.6297 3.03929 27.205 2.57387 20.7256C2.36854 17.9859 2.34117 15.2187 2.34117 12.4653C2.34117 9.04066 7.92613 8.6708 10.3764 8.38313C23.408 6.79409 36.6312 6.6982 49.6628 5.09546C49.7723 5.17765 49.8955 5.24614 50.0597 5.24614C51.8256 5.31464 52.5648 11.7256 52.7564 12.7804C53.6051 17.6297 54.0157 22.5749 54.3717 27.479C55.1519 37.9311 55.453 48.4242 55.7816 58.89C55.8363 60.4653 55.8774 62.027 55.9322 63.6023C55.9458 64.1229 55.9732 64.6571 56.0006 65.1777C56.069 66.2598 52.6879 66.205 51.456 66.3557ZM56.4797 46.6571C56.863 46.2872 57.4516 46.0681 57.4242 46.7804C57.3968 47.342 56.9999 47.8626 56.5208 48.0955C56.5071 47.616 56.4934 47.1366 56.4797 46.6571ZM74.5487 3.80779C74.4529 4.43792 74.357 5.08176 74.2612 5.7119C74.3023 3.79409 74.3023 0.807788 73.0429 -0.562075C73.0293 -0.726459 72.9197 -0.877144 72.7007 -0.904541C72.6733 -0.904541 72.646 -0.918239 72.6186 -0.918239C72.4133 -1.05523 72.1942 -1.16481 71.9342 -1.23331C71.7151 -1.2881 71.5509 -1.21961 71.4414 -1.11002C63.0913 -2.45249 54.6317 -3.37029 46.2269 -4.2881C42.3393 -4.71276 38.4791 -5.12372 34.6053 -5.65797C31.8128 -6.04153 28.7328 -6.3429 25.9404 -5.69906C29.3762 -7.56208 34.0714 -6.89084 37.7673 -6.46618C43.0101 -5.84975 48.1981 -5.37029 53.3724 -4.2881C56.4934 -3.63057 59.5733 -3.11002 62.7628 -2.97303C66.1165 -2.83605 69.7166 -3.17851 72.9608 -2.17851C75.5753 -1.39769 74.8498 1.79409 74.5487 3.80779Z" fill="#484751"/>
<path d="M64.473 46.3689C64.9931 46.3415 65.1026 45.4784 64.5962 45.3278C63.5832 45.0264 62.3649 45.0812 61.2972 45.0127C60.7086 44.9716 60.6128 45.8072 61.1877 45.9168C61.5847 45.9853 62.009 46.0675 62.4334 46.1634C61.8174 47.6291 61.4751 49.5332 62.0501 50.9442C62.2828 51.5195 63.1588 51.2456 63.0767 50.6428C62.8577 49.1634 62.8577 47.7113 63.3642 46.3141C63.7338 46.3552 64.1171 46.3963 64.473 46.3689Z" fill="#484751"/>
<path d="M71.4546 9.31453C71.5504 7.53371 71.4546 5.78029 71.4409 3.99947C71.4409 3.53371 70.7154 3.42412 70.7017 3.91727C70.6744 5.72549 70.5238 7.52001 70.5512 9.32823C70.5649 9.84878 71.4272 9.82138 71.4546 9.31453Z" fill="#484751"/>
<path d="M70.3456 14.8625C70.2908 16.5064 70.2087 18.1365 70.0855 19.7803C70.0444 20.3283 70.8521 20.4242 70.9342 19.8762C71.1806 18.205 71.1258 16.5337 71.0848 14.8488C71.0711 14.4379 70.373 14.4516 70.3456 14.8625Z" fill="#484751"/>
<path d="M14.3869 29.2186C15.085 23.2323 17.6996 18.4651 23.5035 16.1501C23.9279 15.9857 23.7773 15.3419 23.3119 15.4514C17.2205 16.972 13.6614 23.1638 13.5793 29.2186C13.5656 29.7528 14.3185 29.7254 14.3869 29.2186Z" fill="#484751"/>
<path d="M13.1409 36.3829C13.8253 38.3418 14.7561 40.2596 16.0565 41.8897C16.3714 42.287 17.001 41.7801 16.7547 41.3555C15.7691 39.6431 14.7424 37.9993 14.0306 36.15C13.8116 35.602 12.9492 35.8212 13.1409 36.3829Z" fill="#484751"/>
<path d="M40.6688 44.4788C37.9995 45.7665 35.3987 46.8761 32.4556 47.3145C32.0176 47.383 32.1271 48.0953 32.5651 48.0816C35.6588 47.9035 38.5607 47.0131 41.1753 45.3282C41.6954 44.972 41.23 44.2049 40.6688 44.4788Z" fill="#484751"/>
<path d="M44.9947 39.8213C45.6654 38.2186 46.2266 36.6021 46.6236 34.9172C46.7468 34.3967 45.9392 34.1775 45.816 34.698C45.419 36.383 44.8988 38.0268 44.2555 39.6158C44.0912 40.0679 44.8167 40.2597 44.9947 39.8213Z" fill="#484751"/>
<path d="M36.3016 14.972C39.9154 15.9446 41.9413 19.5474 44.7885 21.6569C45.2402 21.9857 45.7057 21.3008 45.3634 20.9172C43.0501 18.4104 40.0523 14.5885 36.4111 14.246C35.9867 14.2049 35.9183 14.8624 36.3016 14.972Z" fill="#484751"/>
<path d="M14.5778 19.6572C14.7832 18.7394 15.2486 17.9997 15.8919 17.3284C16.2342 16.9723 15.7824 16.3284 15.3444 16.6298C14.3725 17.3284 13.7702 18.3558 13.6333 19.5339C13.5786 20.0682 14.4546 20.1778 14.5778 19.6572Z" fill="#484751"/>
<path d="M47.2941 29.6019C47.4858 30.0677 48.2113 29.9033 48.0744 29.3828C47.9649 28.9718 47.828 28.5745 47.7048 28.1773C47.5405 27.643 46.6918 27.8896 46.8835 28.4101C47.0067 28.8074 47.1436 29.2047 47.2941 29.6019Z" fill="#484751"/>
</svg>
