<svg width="31" height="27" viewBox="0 0 31 27" fill="none" xmlns="http://www.w3.org/2000/svg">
<path d="M22.267 16.4139C23.3469 15.8377 25.0782 14.588 25.5676 13.2777C25.6449 13.0722 25.9062 13.0135 26.0662 13.1639L29.6889 17.3425C30.0973 17.7315 30.1121 18.3793 29.722 18.7867L22.2706 25.3876C22.0774 25.5821 21.7444 25.4464 21.7444 25.1729L21.7334 20.2915C21.7334 20.2089 24.2043 19.117 23.2384 18.1518L22.2706 17.1865C22.0719 16.9938 21.8493 16.636 22.267 16.4139Z" fill="#6976EC"/>
<path d="M20.6589 21.1094V25.7889C20.6589 26.3945 20.2744 26.89 19.8034 26.89H10.2325C9.76148 26.89 9.37695 26.3945 9.37695 25.7889V21.1094C9.37695 20.5038 9.76148 20.0083 10.2325 20.0083H10.6004C10.8102 20.0083 11.0126 20.1019 11.1745 20.2615C12.1901 21.2672 13.8349 21.6599 15.2019 21.6599C16.5671 21.6599 18.0757 21.269 19.0729 20.2671C19.2367 20.1037 19.4391 20.0083 19.6525 20.0083H19.8034C20.2744 20.0083 20.6589 20.5038 20.6589 21.1094Z" fill="#6976EC"/>
<path d="M7.73635 16.4139C6.65637 15.8377 4.92507 14.588 4.43567 13.2777C4.3584 13.0722 4.09714 13.0135 3.93708 13.1639L0.316262 17.3425C-0.0921836 17.7315 -0.106902 18.3793 0.283145 18.7867L7.73452 25.3876C7.9277 25.5821 8.26071 25.4464 8.26071 25.1729L8.27175 20.2915C8.27175 20.2089 5.80084 19.117 6.76676 18.1518L7.73452 17.1865C7.92954 16.9938 8.154 16.636 7.73635 16.4139Z" fill="#6976EC"/>
<path d="M18.4648 17.8393C17.5817 19.3441 16.1503 19.7423 15.2304 19.8359C15.1512 19.8432 15.0776 19.8487 15.0059 19.8542C14.936 19.8505 14.8605 19.845 14.7814 19.8359C13.8615 19.7423 12.4301 19.3441 11.547 17.8393C11.2784 17.3805 11.7862 16.8648 12.2976 17.0814C12.9692 17.3676 13.8799 17.8429 15.0059 17.865C16.1319 17.8429 17.0426 17.3658 17.7141 17.0814C18.2256 16.863 18.7334 17.3805 18.4648 17.8393Z" fill="#6976EC"/>
<path d="M12.5196 2.34221C12.5196 2.34221 9.76531 1.05029 7.15825 3.65248C6.66517 4.14429 6.00835 5.12607 5.46191 6.05464C8.7442 2.83218 12.7937 3.54237 14.9813 5.561C16.4587 4.4691 19.7409 2.34037 23.8199 5.41786C23.0251 3.65248 22.0408 2.6138 22.0408 2.6138C22.0408 2.6138 23.0803 2.45048 24.7214 3.26894C23.8456 2.28715 21.5753 0.925498 19.8109 0.677758C20.6719 0.376799 21.0564 0.266693 21.0564 0.266693C21.0564 0.266693 14.8175 -1.0968 12.5196 2.34221Z" fill="#6976EC"/>
<path d="M10.7715 0.892135C10.7715 0.892135 12.3942 0.866443 12.8671 2.03908C13.3399 3.21172 12.8671 2.94563 12.8671 2.94563L11.248 2.97132C11.248 2.97315 12.144 2.17304 10.7715 0.892135Z" fill="#6976EC"/>
<path d="M10.1551 14.9824C12.6273 14.9824 14.6314 12.9834 14.6314 10.5176C14.6314 8.05171 12.6273 6.05273 10.1551 6.05273C7.68284 6.05273 5.67871 8.05171 5.67871 10.5176C5.67871 12.9834 7.68284 14.9824 10.1551 14.9824Z" fill="#B7C3F9"/>
<path d="M19.7674 14.9824C22.2396 14.9824 24.2437 12.9834 24.2437 10.5176C24.2437 8.05171 22.2396 6.05273 19.7674 6.05273C17.2951 6.05273 15.291 8.05171 15.291 10.5176C15.291 12.9834 17.2951 14.9824 19.7674 14.9824Z" fill="#B7C3F9"/>
<path d="M19.4155 8.0562C19.559 7.93875 19.3971 7.6433 19.156 7.59558C19.1542 7.59558 19.1524 7.59558 19.1505 7.59375C18.7071 7.51117 17.8166 7.48548 17.1432 8.36083C16.5453 9.13891 16.6796 9.89681 16.8544 10.3409L16.8581 10.3483C16.9997 10.7006 17.5259 10.8547 17.6234 10.5721C17.6234 10.5721 17.0715 9.71881 17.8185 8.74803C18.5654 7.77726 19.4155 8.0562 19.4155 8.0562Z" fill="white"/>
<path d="M9.51604 7.99614C9.65955 7.87869 9.49765 7.58324 9.25663 7.53552C9.25479 7.53552 9.25295 7.53552 9.25111 7.53369C8.8077 7.45111 7.91722 7.42542 7.24383 8.30077C6.64589 9.07885 6.78019 9.83676 6.95498 10.2809L6.95866 10.2882C7.10033 10.6405 7.62652 10.7947 7.72403 10.5121C7.72403 10.5121 7.17208 9.65875 7.91906 8.68798C8.66604 7.7172 9.51604 7.99614 9.51604 7.99614Z" fill="white"/>
<path d="M25.26 9.71329C25.2471 9.62521 25.2305 9.53712 25.214 9.45087C25.214 9.44903 25.214 9.44904 25.214 9.44904C25.1974 9.36278 25.1753 9.2747 25.1533 9.19028C25.1514 9.18294 25.1496 9.1756 25.1477 9.16643C25.133 9.10954 25.1165 9.05449 25.0999 8.9976C25.076 8.91685 25.0521 8.83611 25.0226 8.7572C25.0024 8.69847 24.9821 8.64342 24.9601 8.58653C24.9178 8.47642 24.8718 8.36632 24.8202 8.25805C24.7908 8.19382 24.7595 8.13142 24.7283 8.06903C24.697 8.01031 24.6657 7.95342 24.6363 7.89469C23.7016 6.19721 21.8931 5.05027 19.8122 5.05027C17.7755 5.05027 16 6.15134 15.0451 7.78642C15.0396 7.7956 15.0341 7.80661 15.0286 7.81578C15.0212 7.79927 15.012 7.78092 15.001 7.7644C14.8575 7.50932 14.6937 7.26709 14.5134 7.03953C14.5006 7.02302 14.4858 7.0065 14.473 6.99182C13.4629 5.74761 11.9211 4.95117 10.1898 4.95117C7.14301 4.95117 4.67578 7.41389 4.67578 10.451C4.67578 12.5596 5.86248 14.3892 7.60665 15.3086C8.37755 15.7178 9.25516 15.949 10.188 15.949C12.2339 15.949 14.0204 14.8369 14.9697 13.1853C14.9789 13.2018 14.99 13.2202 14.9992 13.2367C15.0139 13.2661 15.0323 13.2954 15.0488 13.323C16.0037 14.9525 17.7792 16.0481 19.8085 16.0481C20.9419 16.0481 21.9998 15.7068 22.8755 15.1159C22.9289 15.081 22.9841 15.0425 23.0374 15.0039C23.1 14.9599 23.1589 14.9158 23.2177 14.8681C23.3042 14.8002 23.3907 14.7287 23.4716 14.6571C23.4992 14.6332 23.525 14.6112 23.5507 14.5855C23.6004 14.5396 23.6519 14.4938 23.6998 14.4442C23.7035 14.4405 23.7071 14.4369 23.7108 14.4332C23.7715 14.3708 23.8304 14.3102 23.8893 14.246C23.95 14.18 24.007 14.1139 24.0641 14.0478C24.2609 13.8111 24.4376 13.556 24.5921 13.2881C24.6215 13.2385 24.651 13.1853 24.6767 13.1358C25.0889 12.3632 25.3207 11.486 25.3207 10.5501C25.3225 10.2675 25.3023 9.98672 25.26 9.71329ZM15.8768 11.431C15.8271 11.1777 15.7995 10.9171 15.7995 10.651C15.7995 8.44339 17.5952 6.65232 19.8085 6.65232C22.0218 6.65232 23.8175 8.44339 23.8175 10.651C23.8175 11.7466 23.3741 12.7412 22.6584 13.4624C22.6529 13.4679 22.6492 13.4716 22.6437 13.4771C21.9188 14.2001 20.9161 14.6479 19.8085 14.6479C17.8638 14.6497 16.2392 13.2661 15.8768 11.431ZM11.8512 14.2992C11.3415 14.525 10.7804 14.6497 10.188 14.6497C7.91759 14.6497 6.07774 12.8146 6.07774 10.5501C6.07774 8.28557 7.91759 6.45046 10.188 6.45046C11.0104 6.45046 11.7739 6.69086 12.4178 7.10743C12.4418 7.12028 12.462 7.13679 12.4859 7.15147C13.5788 7.88735 14.2963 9.13523 14.2963 10.5501C14.2963 12.2201 13.2955 13.6569 11.8604 14.2956C11.8567 14.2974 11.8549 14.2992 11.8512 14.2992Z" fill="#141B41"/>
</svg>
