<?xml version="1.0" encoding="utf-8"?>
<!-- Generator: Adobe Illustrator 25.3.1, SVG Export Plug-In . SVG Version: 6.00 Build 0)  -->
<svg version="1.1" id="Layer_1" xmlns="http://www.w3.org/2000/svg" xmlns:xlink="http://www.w3.org/1999/xlink" x="0px" y="0px"
	 viewBox="0 0 64 66" style="enable-background:new 0 0 64 66;" xml:space="preserve">
<style type="text/css">
	.st0{fill:#333184;}
</style>
<path class="st0" d="M62.4,26.2c-1.2-1.5-2.7-2.7-4.2-3.9c-0.5-0.4-1-0.7-1.5-1c-1-0.6-1.7-1.6-2.6-2.3c0,0-0.1,0-0.1-0.1
	c0.1-0.6-0.1-1.3-0.7-2.2c-1.1-1.8-2.8-4.1-4.8-4.9c-0.5-0.2-1-0.3-1.5-0.2c0,0,0,0-0.1-0.1c-1.7-1-2.8-3.3-4-4.8
	c-0.9-1.2-1.9-2.3-2.9-3.4c-2-2-4.5-3.2-7.4-3.5c-6.8-0.6-12.9,6.4-16,11.6c0,0,0,0.1,0,0.1c-0.1,0-0.2,0-0.3,0
	c-3.5,0-6.6,3.4-6.4,6.8c-5.7,0.9-10,6-9.9,11.7c0,2.9,1.2,6.1,2.7,8.6c0.6,1.1,1.5,2,2.3,2.9c1.3,1.3,2.4,2.8,3.8,4
	c-1,3,2.7,8.2,5.9,8.4c0.4,0,0.8,0,1.1-0.1c-0.1,6.1,6.9,10.3,12.3,11.2c6.7,1,11.3-5.7,16.1-9.1c0,0,0,0,0.1-0.1
	c0.3,0.1,0.7,0.2,1,0.1c1.5-0.2,3-1.9,4-2.9c1.1-1.1,3.1-2.6,3.1-4.4c0-0.1,0-0.1,0-0.2c0.1,0,0.2-0.1,0.2-0.3
	c0.3-0.9,1.7-1.9,2.4-2.6c1.1-1.1,2.2-2.1,3.4-3.1c2.5-2.3,4.2-5,5.2-8.3C64.3,31.7,64.2,28.5,62.4,26.2z M47.9,12.6
	c1.1,0.2,2,1.4,2.8,2.1c1.5,1.5,3.3,3.4,1.7,5.5c-0.1,0-0.2,0-0.2,0.1c-1.7,1.5-3.3,3-5,4.5c-0.9,0.7-3.5,4.1-4.5,2.4
	c-1.4-2.5-3.1-4.3-5.6-5.5c2.2-2.7,4.9-5.2,7.4-7.6C45.3,13.3,46.5,12.4,47.9,12.6z M43.1,34.3c-0.5,1.3-0.8,2.8-1.1,4.2
	c-0.1,0.1-0.2,0.2-0.2,0.3c-1,0.9-1.6,1.9-2.5,2.9c-1,1.1-2.6,1.7-3.8,2.5c-2.8,1.1-6.7,1.6-9.3-0.2c-0.1-0.2-0.2-0.4-0.3-0.6
	c-1-1.3-2.4-2.1-3.6-3.2c-1.1-1.8-1.7-3.5-2.1-5.6c-0.5-2.4,0.3-4.6,0.9-6.9c0.2-0.2,0.5-0.5,0.7-0.8c1.8-2.1,3.1-4.4,5.7-5.5
	c3.9,0.2,7.4,0.3,10.9,2.4c1.2,0.7,2.2,1.6,2.9,2.7c0.1,0.2,0.2,0.4,0.3,0.6c0.2,0.4,0.4,1,0.8,1.3C43.1,30.3,43.3,32.3,43.1,34.3z
	 M34.2,1c3.1,0.5,5.4,2.9,7.3,5.2c0.9,1.1,1.6,2.4,2.5,3.6C39.9,7,34.2,7,29.5,7.5c-2.6,0.3-8.6,0.7-11.1,3C22,5.3,27.5-0.1,34.2,1z
	 M29.5,8.4c5.3-0.6,12.2-0.6,15.7,4c-0.7,0.4-1.3,1-1.9,1.6c-2.6,2.4-5.2,4.9-7.4,7.7c-2.3-1-4.9-1.3-7.5-1
	c-0.1-0.1-0.2-0.2-0.4-0.2c-0.2,0-0.3,0.1-0.5,0.2c-2-3.2-5.2-7.4-9.1-8.5C19.6,9.2,27,8.7,29.5,8.4z M16.4,12.7
	c4-0.4,8.1,5.2,10.1,8.3c-1.7,0.8-3.1,2.3-4.3,3.8c-1.6,2.1-3,3.8-5.1,1c-0.8-1.2-1.6-2.2-2.6-3.2c-1.6-1.4-3.6-2.4-3.6-4.8
	C10.7,15,14,13,16.4,12.7z M5.2,40.5c-1.9-1.9-2.8-4.2-3.6-6.7c-2.2-7,1.9-12.5,8.5-14.5c0,0,0,0.1,0,0.1c-3.8,2.8-4.4,8.2-4.5,12.6
	c0,3.7,0.2,8,2.2,11.3C6.9,42.4,6.1,41.4,5.2,40.5z M6.5,32.7c-0.1-4.6,0.7-9.1,3.9-12.5c0.8,1.4,2.7,2.5,3.8,3.5
	c1.6,1.4,2.3,3.9,4.3,4.8c0.4,0.2,0.8,0.2,1.2,0.1c-0.7,2.5-1.1,5.3-0.5,7.8c0,0,0,0,0,0.1c0,0,0,0.1,0,0.1c-2.2,1-4,2.7-5.8,4.4
	c-1.2,1-2.8,2.1-3.8,3.4C6.9,41.2,6.6,36.6,6.5,32.7z M12.8,52.2c-1.5-1.2-3.7-3.6-3.4-5.7c0.3-1.8,2.7-3.4,4-4.5
	c1.9-1.6,3.7-3.5,5.9-4.6c0.5,2.1,2.5,3.8,3.9,5.1c0.3,0.3,0.6,0.5,0.9,0.8c0.1,0,0.1,0.1,0.2,0.2c0.1,0.4,0.3,0.7,0.6,1
	c0,1-1.5,1.9-2.4,2.6c-1.3,0.9-2.4,2.1-3.5,3.3C17.3,52.3,15.3,54.3,12.8,52.2z M31,64.2c-5.4,1.4-13.5-3.7-14.2-9.4
	c1.6,3.2,6.5,4.5,9.6,5.1c4.9,1,10.6-0.7,15.2-3C38.3,59.7,35.2,63.1,31,64.2z M28.1,59c-3.7-0.2-9.3-1.9-11-5.6
	c0.8-0.5,1.5-1.2,2.1-1.8c1.9-1.8,3.8-3.5,5.8-5.2c0.4-0.3,0.7-0.7,0.9-1.1c2.3,1.4,6.4,1,8.8,0.2c0.1,0.3,0.2,0.5,0.5,0.8
	c2.2,2.4,4.4,4.3,6.2,7l0,0c-2.5,2.3-5.6,3.2-8.9,3.4c-0.5,0-0.5,0.8,0,0.8c3.1,0.3,7.3-1.1,9.4-3.5c0.2,0.3,0.5,0.6,0.8,0.9
	C38.5,57.5,33.1,59.3,28.1,59z M51.1,49.8c-0.3,0.6-1.1,1.3-1.6,1.8c-1.2,1.4-3.7,4.8-5.9,2.9c-1.3-1.1-2.1-2.9-3.1-4.2
	C39.6,49,38.3,48,37.1,47c-2.2-2,0.7-3,2.1-4c1.2-0.8,2-2.3,2.9-3.4c0.1,0,0.2,0,0.3,0c1.3,1,2.3,2.3,3.5,3.4c1.2,1,2.3,2.2,3.5,3.3
	C50.3,47.1,51.8,48.3,51.1,49.8z M51.8,47.3c-0.9-1.3-2.5-2.4-3.3-3.3c-0.9-1-2.1-1.9-3.1-2.8c-1-0.8-1.6-1.8-2.6-2.5
	c0.5-1.7,1.1-3.3,1.4-5c0-0.2-0.1-0.4-0.2-0.4c0.1-1.5-0.2-2.8-0.6-4.1c0.1,0,0.2,0,0.3,0c1.4,0,2.1-1.7,2.9-2.5
	c1.8-2.1,4.3-3.6,6.1-5.7c0,0,0,0,0,0c0.2-0.1,0.3-0.2,0.4-0.4c0.1,0.1,0.2,0.2,0.4,0.2c0.7,0,1.6,4.6,1.7,5.3
	c0.5,2.6,1.1,5.1,1.1,7.7C56.2,38,54.9,44.1,51.8,47.3z M61.3,37.6c-1.4,2.9-4.1,4.7-6.3,6.9c-0.1,0.1-0.3,0.3-0.5,0.4
	c0.4-0.9,0.7-1.8,1-2.5c1.2-2.8,1.6-6.4,1.6-9.4c0-1.3-0.6-8.1-2.1-11.3c0.1,0.1,0.3,0.2,0.4,0.3c1.5,1.1,3.1,2.1,4.5,3.3
	C63.9,28.6,63.3,33.3,61.3,37.6z"/>
<path class="st0" d="M44.2,29.9c0.9,2.1,0.6,4.2,0.3,6.4c-0.1,0.5,0.6,0.5,0.8,0.1c0.8-2,0.5-4.8-0.5-6.7
	C44.6,29.4,44,29.6,44.2,29.9z"/>
<path class="st0" d="M44.4,37.5c-0.2,0.4-0.5,0.9-0.7,1.3c-0.1,0.4,0.4,0.6,0.6,0.3c0.2-0.4,0.4-0.8,0.6-1.2
	C45.2,37.5,44.6,37.1,44.4,37.5z"/>
<path class="st0" d="M33.5,46.7c-2.2-0.1-4.5,1-6.7,0c-0.4-0.2-0.8,0.4-0.4,0.6c2.2,1.2,4.8,0.8,7.1,0.2
	C34,47.4,33.9,46.8,33.5,46.7z"/>
<path class="st0" d="M17.4,35.6c0,0.4,0.6,0.5,0.7,0.1c0.6-1.5,0-3.4,0.2-5c0-0.5-0.7-0.6-0.8-0.1C17.2,32.3,17.6,34,17.4,35.6z"/>
<path class="st0" d="M28,19.3c2.1,0.3,4.1,0.2,6.2,0.6c0.5,0.1,0.7-0.6,0.2-0.8c-2-0.7-4.3-0.6-6.3-0.4C27.7,18.7,27.6,19.3,28,19.3
	z"/>
<path class="st0" d="M34.6,18.7c0.5,0.1,1,0.3,1.4,0.5c0.4,0.1,0.7-0.5,0.3-0.7c-0.5-0.2-1-0.3-1.6-0.4C34.4,18,34.2,18.6,34.6,18.7
	z"/>
<path class="st0" d="M39.7,20.9c-0.4-0.3-0.9,0.3-0.5,0.7c0.6,0.6,1.3,1,2,1.5c0.7,0.5,1.4,1.1,2.1,1.6c0.4,0.2,0.8-0.2,0.6-0.6
	C42.9,22.7,41,21.8,39.7,20.9z"/>
<path class="st0" d="M41.5,18.4c0.6,0.2,1,0.5,1.4,0.9c0.4,0.3,0.8-0.3,0.5-0.6c-0.5-0.5-1.1-0.8-1.8-0.9
	C41.2,17.7,41.2,18.3,41.5,18.4z"/>
<path class="st0" d="M22.1,23.1c0.9-0.7,1.7-1.5,2.6-2.1c0.3-0.2,0-0.8-0.3-0.6c-1,0.6-2.1,1.2-2.8,2.1C21.2,23,21.7,23.5,22.1,23.1
	z"/>
<path class="st0" d="M18.5,17.9c0.3-0.2,0.6-0.5,0.9-0.8c0.2-0.2,0.6-0.8,1-0.8c0.4,0.1,0.6-0.6,0.2-0.7c-1.2-0.3-1.9,0.8-2.6,1.6
	C17.7,17.6,18.1,18.2,18.5,17.9z"/>
<path class="st0" d="M13.9,15.7c0.7-0.5,1.2-1.2,2.1-1.5c0.4-0.1,0.2-0.6-0.2-0.6c-1,0.2-1.6,0.9-2.4,1.5
	C13.2,15.4,13.6,15.9,13.9,15.7z"/>
<path class="st0" d="M23.4,43.9c0.5,0.1,0.8-0.6,0.3-0.8c-1.6-0.8-3-1.6-4.3-2.8c-0.3-0.3-0.7,0.1-0.4,0.4
	C20.2,42,21.6,43.5,23.4,43.9z"/>
<path class="st0" d="M19.5,44c-0.8-1.2-2.1-1.8-2.3-3.3c0-0.3-0.5-0.3-0.6-0.1c-0.8,1.3,1.5,3.1,2.3,3.9
	C19.2,44.9,19.8,44.4,19.5,44z"/>
<path class="st0" d="M14.1,49.7c-0.1-0.4-0.6-0.2-0.6,0.1c-0.1,1,0.7,2.3,1.7,2.7c0.4,0.2,0.8-0.3,0.5-0.6
	C15,51.2,14.2,50.7,14.1,49.7z"/>
<path class="st0" d="M42.2,41c-0.8,0.5-1.4,1.3-2.1,2c-0.8,0.9-1.7,1.4-2.8,2c-0.5,0.2-0.1,0.8,0.3,0.8c2.1-0.3,3.9-2.7,5.1-4.3
	C42.9,41.2,42.5,40.8,42.2,41z"/>
<path class="st0" d="M41.1,45.4c-0.9,0.5-1.7,1.2-2.5,1.7c-0.4,0.3-0.1,1,0.4,0.7c0.9-0.4,1.6-1.2,2.5-1.8
	C42,45.9,41.6,45.2,41.1,45.4z"/>
<path class="st0" d="M48.3,51.5c-1,0.5-1.7,1.4-2.8,1.8c-0.3,0.1-0.1,0.7,0.2,0.6c1-0.4,2-1.1,2.9-1.7
	C49.1,51.9,48.8,51.3,48.3,51.5z"/>
<path class="st0" d="M53.7,37.5c-0.4,1.9-0.5,4.3-1.9,5.8c-0.4,0.4,0.2,1.1,0.6,0.6c1.6-1.6,1.8-4.2,2.1-6.3
	C54.6,37.1,53.8,37,53.7,37.5z"/>
<path class="st0" d="M54.5,32.3c-0.2-0.7-0.2-1.5-0.3-2.2c0-0.5-0.7-0.5-0.7,0c0,0.8,0.1,1.6,0.4,2.4C54,32.9,54.6,32.7,54.5,32.3z"
	/>
<path class="st0" d="M40.1,10.4c0.8,0.4,1.5,0.8,2.3,1.2c0.4,0.2,0.7-0.3,0.3-0.6c-0.7-0.5-1.5-0.9-2.3-1.3
	C40.1,9.6,39.7,10.2,40.1,10.4z"/>
<path class="st0" d="M24.2,10.6c1.3-0.2,2.6-0.6,3.9-0.6c0.4,0,0.4-0.6,0-0.6c-1.4-0.1-2.7,0.2-4,0.5C23.7,9.9,23.8,10.6,24.2,10.6z
	"/>
<path class="st0" d="M9.4,27.8c0.4-1.8,0.4-3.5,1.5-5c0.2-0.3-0.2-0.6-0.5-0.4c-1.4,1.4-1.8,3.4-1.9,5.3C8.5,28.2,9.3,28.3,9.4,27.8
	z"/>
<path class="st0" d="M8.8,36.3c-0.1-0.4-0.7-0.2-0.6,0.2c0.2,0.7,0.4,1.4,0.8,2c0.2,0.4,0.7,0,0.5-0.3C9.3,37.6,9,36.9,8.8,36.3z"/>
<path class="st0" d="M9.2,33.4c0-0.5,0-1,0-1.6c0.1-0.4-0.6-0.5-0.7-0.1c-0.2,0.5-0.2,1.1-0.2,1.7C8.4,34,9.2,34,9.2,33.4z"/>
<path class="st0" d="M13.6,35.7c-0.2-0.7-0.4-1.3-0.3-2c0.1-0.5-0.7-0.5-0.8,0c-0.1,0.7,0.1,1.5,0.4,2.2
	C13.1,36.3,13.7,36.2,13.6,35.7z"/>
<path class="st0" d="M19.2,53.2c-0.4-0.4-0.9,0.2-0.6,0.6c0.7,0.8,1.8,1.2,2.7,1.8c0.4,0.3,0.9-0.4,0.5-0.6C21,54.3,20,54,19.2,53.2
	z"/>
</svg>
