<?xml version="1.0" encoding="utf-8"?>
<!-- Generator: Adobe Illustrator 25.3.1, SVG Export Plug-In . SVG Version: 6.00 Build 0)  -->
<svg version="1.1" id="Layer_1" xmlns="http://www.w3.org/2000/svg" xmlns:xlink="http://www.w3.org/1999/xlink" x="0px" y="0px"
	 viewBox="0 0 50 60" style="enable-background:new 0 0 50 60;" xml:space="preserve">
<style type="text/css">
	.st0{fill:#333184;}
</style>
<path class="st0" d="M44.8,3.1C40.7-0.1,34.2,0.4,30,3c-2.7,1.6-4.8,4.7-5.5,8c-3.9-0.4-7.8,0.3-11.7,0.2c0,0,0,0,0,0
	c0-0.3-0.1-0.6-0.2-0.9c-0.6-3.2-0.3-6.6-0.9-9.8c0-0.1-0.1-0.2-0.2-0.2c-0.1,0-0.1-0.1-0.2-0.1c-1.1-0.3-2-0.3-3,0
	c-0.1,0-0.1,0.1-0.2,0.2C8.1,0.5,8,0.6,8.1,0.8c0.8,3.1,1,6.4,1.1,9.7c0,0.4,0,0.8,0.1,1.1c-2,0.2-8.7,1.4-8.6,4.3
	c-1.3,4.1-0.3,8.8,0.3,12.9c0.8,5.7,1.7,11.5,3.2,17.1c1,3.9,1.5,8.2,4.9,10.8c2.4,1.9,6.1,2.9,9.2,2.5c1.1,0.1,2.3-0.1,3.3-0.2
	c2.2-0.2,4.6-0.5,6.6-1.5c3.8-2,5.8-5.3,6.9-9.4c1.4-5,1.9-10,2.3-15.1c0.2-2.4,0.5-4.8,0.8-7.2c0.2,0.1,0.4,0.1,0.6,0
	c5.2,0.9,9.4-4.8,10.5-9.2C50.5,11.7,48.8,6.1,44.8,3.1z M23.7,14c0-0.3-0.6-0.2-0.5,0.1c0.1,1.2,0,2.5,0,3.7c-3.2,0-6.4,0-9.6-0.1
	c0-1.5-0.2-3.1-0.4-4.6c0,0,0,0,0,0c3.7,0.2,7.4-0.8,11.1-0.2c-0.1,1.7,0.2,3.4,1,4.9c-0.5,0-0.9,0-1.4,0
	C23.9,16.5,23.9,15.3,23.7,14z M24.4,11.7c0,0.1,0,0.3-0.1,0.4c-3.7-0.6-7.5,0.2-11.2,0.4c-0.1,0-0.1,0-0.1,0c0-0.2-0.1-0.4-0.1-0.6
	C16.8,12.1,20.6,11.4,24.4,11.7z M8.9,1.4c0.8,0.4,1.7,0.4,2.4-0.3c0.2,2.8,0.2,5.6,0.5,8.4c0.3,2.7,1,5.3,1,8.1
	c-0.7,0-1.4,0-2.1-0.1c0.7-2.1-0.6-5-0.7-7.1C9.9,7.4,9.6,4.4,8.9,1.4z M8.6,15.2c0-0.4-0.6-0.4-0.6,0c0,0.7,0.1,1.4,0.2,2.1
	c0,0.1,0.1,0.2,0.2,0.2c-1.2-0.1-2.4-0.2-3.5-0.5c-0.2-0.7-0.2-1.4-0.2-2.2c0.2-0.1,0.5-0.2,0.7-0.3c0.1,0.8,0.2,1.5,0.3,2.3
	c0.1,0.3,0.6,0.3,0.6-0.1C6.3,16,6.1,15.2,6,14.4v0c0.2-0.1,0.4-0.1,0.5-0.1c1-0.2,2-0.3,3-0.6c0.2,1.3,0.4,2.6,0.5,3.8
	c-0.5,0-1,0-1.5,0c0.1,0,0.2-0.1,0.2-0.3C8.7,16.5,8.6,15.9,8.6,15.2z M38,21.4c-0.1,0.9-0.2,1.9-0.3,2.8c0-1.7-0.2-3.4-0.6-5
	c-0.1-0.4-0.6-0.2-0.6,0.1c0.1,1,0.2,1.9,0.2,2.8c-0.4-0.1-0.8-0.2-0.9-0.6c-0.1-0.4,0-0.8,0-1.2c0-0.4-0.5-0.4-0.6-0.1
	c-0.4,1.1-0.1,2.6,1.4,2.6c0,0,0.1,0,0.1,0c0,0.7,0,1.5,0,2.2c-0.6,0-1.2-0.2-1.8-0.4c-0.4-0.1-0.6,0.4-0.3,0.6
	c0.6,0.4,1.3,0.6,2,0.5c-0.3,3.7-1.1,7.3-1.7,11.1c-0.1,0.4,0.5,0.6,0.7,0.2c0.4-1.5,0.8-3.1,1.1-4.7c-0.5,4.3-1,8.6-1.9,12.9
	c-0.9,4.5-2.4,8.7-6.5,11.1c-2.9,1.7-6.3,1.5-9.5,2c-0.1,0-0.1-0.1-0.2-0.1c-3.5,0.2-7.2-0.5-9.9-3c-3-2.8-3.5-8.3-4.4-12.1
	c-1.1-4.5-1.8-9.1-2.5-13.6c-0.6-4.1-1.3-8.3-0.7-12.4c1,1.5,3,1.9,4.6,2.3c1.8,0.4,3.9,0.8,5.9,0.8c0.4,0,0.5-0.5,0.1-0.7
	c-2.9-0.9-6.1-0.4-8.9-1.9c-2.7-1.5,0-3.7,1.8-4.3C6,12.9,8,13,9.3,12.1c0,0.3,0.1,0.5,0.1,0.8c-1.6,0.4-6.7,0.3-7.1,2.5
	c-0.4,2.8,4.4,2.7,6,2.7c1.6,0.1,3.1,0.1,4.7,0.2c0.1,0,0.2,0,0.2,0c4.4,0.1,8.9,0.3,13.3,0.1c2.9-0.1,8.3,0.3,10-2.7c0,0,0,0,0-0.1
	c0.5-0.1,1.6-0.3,1.5,0.4c-0.2,0.8-1,1.4-1.7,1.8c-1,0.6-2.2,1-3.4,1.3C30.1,20,27,19.8,24,20c-0.3,0-0.3,0.5,0,0.5
	c2,0.1,6.7,0.3,10.3-0.7c-0.7,1-2.1,0.9-3.1,0.6c-0.4-0.1-0.6,0.4-0.3,0.6c1.2,0.9,3.3,0.2,3.9-1c0.1-0.1,0-0.3-0.1-0.3
	c1.8-0.6,3.3-1.4,3.9-2.8C38.6,18.4,38.1,19.9,38,21.4z M4.2,16.8c-1.6-0.5-1-1.1-0.1-1.7C4.1,15.7,4,16.3,4.2,16.8z M38.9,24.9
	c-0.1,0-0.2,0-0.2,0c0,0-0.1,0-0.1,0c0,0-0.1,0-0.1,0c-0.1,0-0.1,0-0.2,0c0-0.3,0.1-0.5,0.1-0.8c0.2-1.8,0.7-3.6,0.9-5.5
	c0.4,1,1.2,1.9,1.8,2.8c0.2,0.3,0.6,0,0.4-0.2c-0.6-1.3-1.5-2.3-1.8-3.7c0-0.2-0.2-0.2-0.3-0.2c0-0.5,0-1,0-1.5
	c0-0.2-0.2-0.3-0.3-0.3c0,0,0-0.1,0-0.1c1.1-0.1,2.5,0.8,3.3,1.2c0.5,0.3,0.9,0.6,1.3,1c0.9,0.9,0.2,1.5-0.4,2.4
	c-0.2,0.3,0.3,0.6,0.5,0.3c0.4-0.6,1.1-1.4,0.9-2.2c-0.2-0.8-0.9-1.3-1.5-1.7c-1.1-0.7-3.2-2-4.6-1.5c-0.1,0-0.2,0.1-0.2,0.2
	c-0.6-0.1-1.2-0.1-1.9,0c-0.3,0-0.4,0.4-0.3,0.6c-1.8,1.4-3.8,1.8-5.9,2c1.6-1.3,4-1.4,5.7-2.6c0.3-0.2,0-0.7-0.3-0.5
	c-2,1.2-4.7,1.1-6.3,2.9c-0.1,0.1-0.1,0.2-0.1,0.3c-0.6,0-1.3,0.1-1.9,0.1c0,0,0-0.1,0-0.2c-1.3-4-1.4-8,1.6-11.3
	c3.2-3.4,7.8-3.6,12-2.6c0.5,0.1,0.6-0.6,0.2-0.7c-4.5-1.5-9.2-0.4-12.7,2.8c-3.4,3.1-3.1,7.9-1.8,11.9c0,0,0,0,0,0
	c-0.2,0-0.3,0-0.5,0c0.1-0.2,0-0.4-0.2-0.4c-0.3-0.1-0.5-1.9-0.6-2c-0.5-1.9-0.3-3.7,0.2-5.6c0.7-2.5,2.6-4.6,4.7-6
	c3.8-2.5,9.2-2.6,13.1-0.5c3.9,2,5.5,6.6,5.4,10.7C48.8,18.6,44.5,25.9,38.9,24.9z"/>
<path class="st0" d="M11.4,12.7c0.3-3.1-0.3-6.9-1.6-9.8C9.7,2.6,9.2,2.8,9.3,3.1c1.1,3.1,1.3,6.3,1.5,9.5
	C10.8,13.1,11.4,13.1,11.4,12.7z"/>
<path class="st0" d="M11.1,15.9c0.1,0.4,0.1,0.8,0.1,1.2c0,0.4,0.6,0.4,0.6,0c0-0.4,0-0.9-0.1-1.4C11.5,15.4,11,15.5,11.1,15.9z"/>
<path class="st0" d="M14.2,20.1c2.3,0.2,4.6,0.3,6.9,0.3c0.5,0,0.4-0.6,0-0.7c-2.2-0.2-4.7-0.3-6.9-0.1
	C13.9,19.6,13.9,20.1,14.2,20.1z"/>
<path class="st0" d="M34.3,41c-1.5,4.6-3.6,8.7-6.5,12.5c-0.3,0.4,0.3,0.8,0.6,0.5c3.2-3.7,5.1-8.2,6.3-12.9
	C34.9,40.8,34.4,40.7,34.3,41z"/>
<path class="st0" d="M20.6,55.9c-3.2,0.1-7.1,0.9-9.9-1.1c-0.3-0.2-0.5,0.2-0.3,0.4c2.3,2.5,7.2,1.7,10.2,1.3
	C21,56.5,21.1,55.9,20.6,55.9z"/>
<path class="st0" d="M24.8,55.6c-0.4,0.2-0.8,0.2-1.2,0.1c-0.4-0.1-0.5,0.5-0.1,0.5c0.5,0.1,1.1,0.1,1.6-0.1
	C25.3,56,25.1,55.5,24.8,55.6z"/>
<path class="st0" d="M22.7,52.9c-2.7,1.2-5.7,0.4-8.5,0.9c-0.4,0.1-0.3,0.8,0.1,0.8c2.9-0.1,5.9,0.1,8.7-1.1
	C23.4,53.3,23.1,52.8,22.7,52.9z"/>
<path class="st0" d="M4.5,33.3c-0.4-1.8-0.9-3.8-0.6-5.6c0.3-1.4,3.6-1.7,4.7-2.3c0.2-0.1,0.1-0.6-0.2-0.5c-1.6,0.6-3.6,0.5-4.9,1.7
	c-1,1-0.6,3.2-0.4,4.4c0.8,5.3,1.6,11,3.9,15.9c0.2,0.5,0.9,0.1,0.7-0.4C5.9,42.1,5.5,37.8,4.5,33.3z"/>
<path class="st0" d="M33.8,26.1c-0.1,0-0.2,0.1-0.3,0.2c-0.1,0.3-0.2,0.5-0.3,0.7c0.1-1.7,0-3.3-0.4-4.9c-0.1-0.4-0.7-0.3-0.6,0.1
	c0.2,2.1,0.1,4.2-0.1,6.2c-3.1,2.6-9.5,2.3-12.9,2.1c-2.9-0.2-6.2-0.2-9.2-0.9c0.2-2.6,0.4-5.1,0.1-7.7c0-0.4-0.6-0.4-0.6,0
	c0.2,2.5,0,5-0.3,7.5c-1.5-0.4-2.9-1-4.1-1.8c-0.3-0.2-0.5,0.2-0.3,0.4c1.2,1.2,2.7,1.8,4.3,2.1c-0.1,1.3-0.3,2.6-0.4,3.9
	c-0.3,4.1,0.2,8.4,0.8,12.4c0.1,0.4,0.8,0.3,0.7-0.1c-0.4-4.1-1-8.2-0.8-12.3c0.1-1.3,0.2-2.5,0.3-3.8c0.4,0.1,0.8,0.1,1.2,0.2
	c0.2,0,0.5,0.1,0.8,0.1c0,0.1,0,0.1,0,0.2c0.6,1.9,0.9,3.8,1,5.8c-0.7,0-1.4,0.2-2.1,0.2c-0.4,0-0.4,0.5,0,0.6c0.6,0,1.3,0,1.9,0
	c0,0.2,0,0.4,0,0.6c0,0.1,0.1,0.2,0.1,0.3c-1.1,2.2-2.4,5.1-0.1,6.9c0.4,0.3,0.9,0.6,1.4,1v0c0.4,1.5-0.1,3.3,1.6,4
	c1.4,0.6,2.8-1.1,2.3-2.4c1.2,0.3,2.4,0.5,3.4,0.3c0.9-0.2,1.4-0.9,1.8-1.7c0.9,0.4,2,0.7,2.9,0c0.4-0.3,0.5-0.9,0.7-1.3
	c0.2-0.7,0.6-1.5,0.6-2.2c0-0.4-0.6-0.5-0.8-0.2c-0.5,0.9-0.5,2-1,2.9c-0.4,0.7-1.4,0.4-2.1,0.2c0.4-1.2,0.5-2.5,0.7-3.3
	c0.1-0.4-0.5-0.7-0.7-0.3c-0.5,1-0.6,2.2-0.8,3.2c-0.8,3.5-4.8,1.4-6.9,0.5c-0.9-0.4-2-0.8-2.8-1.5c-1.4-1.1-0.3-3.4,0.2-4.5
	c0.3-0.7,0.7-1.4,1-2.1c0.9-1.8,2.2-1.7,3.9-1.4c0.1,0,0.1,0,0.2,0c1,1.1,2.2,2.1,3.5,3c1.9,1.2,4.7,2.6,6.7,1.5
	c-0.2,1-0.3,1.9-0.4,2.9c0,0.4,0.7,0.5,0.8,0.1c0.2-1.3,0.5-2.6,0.7-3.9c0,0,0,0,0.1-0.1c0.1-0.1,0.1-0.3,0-0.4
	c0.5-2.9,0.9-5.9,0.6-8.9c0.7-0.2,1.3-0.6,1.9-1c-0.5,3.3-1.2,6.6-1.5,10c0,0.4,0.7,0.5,0.8,0.1c0.7-3.5,1.7-7.3,2-11.1
	c0.4-0.4,0.7-0.8,0.9-1.3c1.4,2.2,0.1,6.2-0.5,8.5c-0.8,3.1-1.3,6.1-2.9,9c-3.8,6.7-13,8.6-19.8,5.7c-0.3-0.1-0.6,0.3-0.3,0.5
	c6.6,3.4,15.7,1.2,20.1-4.7c2.3-3.1,3-7,3.8-10.8c0.7-2.7,1.9-6.8-0.2-9.2C34.2,25.9,34,26,33.8,26.1z M17.3,47.5c0,0,0,0.1-0.1,0.1
	c-0.1,0.5-0.1,1-0.3,1.4c-0.4,0.7-1.3,0.2-1.6-0.3c-0.3-0.4-0.3-1.1-0.3-1.6c0-0.2-0.1-0.5-0.1-0.7C15.6,46.8,16.4,47.2,17.3,47.5z
	 M13.4,36.9c-0.1-2.1-0.2-4.3-0.8-6.3c0.8,0.1,1.7,0.2,2.5,0.3c0,0.1-0.1,0.1-0.1,0.2c0,0.2,0.1,0.5,0.1,0.7c0.1,0.5,0.1,1,0.2,1.6
	c0.1,0.5,0,1.3,0.2,1.9C14.7,35.4,14,36,13.4,36.9z M28.5,39.4c-1.8,1.9-5.2-0.2-7-1.4c-0.8-0.5-1.5-1.1-2.2-1.8
	c-0.8-0.7-1.4-1.3-1.8-2.3c0-0.1,0.1-1.8,0.2-2.2c0-0.3-0.4-0.3-0.5-0.1c-0.5,1.3-0.8,2.4,0.2,3.7c-0.3-0.1-0.6-0.1-0.9-0.1
	c0-0.2-0.1-0.5-0.1-0.8c-0.1-0.5-0.1-1-0.2-1.5c-0.1-0.5-0.1-1.5-0.5-1.9c1.6,0.2,3.3,0.3,4.9,0.4c2.5,0.1,6,0.1,8.9-0.8
	C29.6,33.6,29,36.5,28.5,39.4z"/>
<path class="st0" d="M1.8,19.6c0,1.4,0,2.8,0.4,4.2c0.1,0.3,0.7,0.3,0.6-0.1c-0.1-1.4-0.4-2.7-0.5-4.1C2.3,19.3,1.8,19.3,1.8,19.6z"
	/>
<path class="st0" d="M10.8,21.4C10.8,21.4,10.8,21.4,10.8,21.4c0.2,2.3,0.6,4.5,0.9,6.8c0,0.2,0.1,0.4,0.3,0.4
	c4.8,0.8,3.2-5,2.6-7.8c0-0.2-0.2-0.3-0.4-0.3c-1.1-0.1-2.2,0.1-3.3,0.2C10.3,20.7,10.3,21.3,10.8,21.4z M13.8,21.3
	c0.5,2.1,1.9,6.7-1.3,6.4c-0.3-2.1-0.7-4.2-1.1-6.4C12.2,21.4,13,21.3,13.8,21.3z"/>
<path class="st0" d="M16.1,24.1c-0.3,0-0.3,0.5,0,0.5c2,0.1,4-0.3,6-0.1c-1,1.1-1.9,2.2-2.8,3.5c-0.2,0.3,0.1,0.6,0.4,0.6
	c4.1,0.5,8.2,0,12.2-1c0.2-0.1,0.3-0.3,0.3-0.5c-0.6-2.9-5.1-4.7-7.8-4.8c-0.1,0-0.2,0-0.2,0.1c-0.1-0.1-0.3-0.1-0.4,0
	c-0.3,0.4-0.7,0.9-1.1,1.3C20.5,23.5,18.3,23.9,16.1,24.1z M22.9,24.7c0.1,0,0.2,0,0.3,0c0.5,0.1,0.7-0.6,0.3-0.8
	c0.2-0.3,0.5-0.6,0.7-1c0,0,0.1,0.1,0.1,0.1c2.4,0.4,5.9,1.5,7,3.9c0,0-5.8,0.9-6,1c-1.6,0.1-3.3,0.1-4.9,0
	C21.2,26.8,22.1,25.8,22.9,24.7z"/>
<path class="st0" d="M15.1,43.6c-1.1,1.7,2.4,1.7,3.2,1.7c1,0,1.9-0.2,2.6-0.9c0.7-0.7,0.9-1.9,1.2-2.8c0.1-0.3-0.4-0.5-0.5-0.1
	c-0.5,1.2-0.9,2.6-2.3,2.9c-0.4,0.1-3.7,0.3-3.6-0.5C15.8,43.5,15.4,43.3,15.1,43.6z"/>
<path class="st0" d="M29.6,22.9c0.4,0.2,0.7-0.3,0.4-0.6c-0.5-0.4-1-0.8-1.5-1.2c-0.2-0.3-0.8,0.1-0.5,0.4
	C28.4,22.1,29,22.6,29.6,22.9z"/>
<path class="st0" d="M44.8,5.4c5,3.8,3.1,11.9-0.2,16.1c-0.2,0.3,0.2,0.8,0.5,0.4c4-4.2,5.1-13.2,0-17C44.8,4.8,44.5,5.2,44.8,5.4z"
	/>
<path class="st0" d="M43.5,22.6c-1.4,0.6-2.6,1.2-4.1,1.4c-0.4,0.1-0.2,0.6,0.1,0.6c1.6,0.1,2.9-0.9,4.2-1.6
	C44.1,22.9,43.8,22.5,43.5,22.6z"/>
<path class="st0" d="M45.5,15.5c-1.9-0.4-3.7-1.1-5.6-1.7c0,0,0,0,0,0c1-0.8,2.4-1,3.6-1.3c0.5-0.1,1-0.4,1.4-0.5
	c0.3-0.1,0.6-0.2,0.9-0.2c0.7-0.1,0.4,1.1,0.4,1.4c-0.1,0.4,0.5,0.6,0.6,0.2c0.3-1.4,0-2.5-1.6-2.2c-1,0.2-2,0.7-3,1
	c-1,0.3-1.9,0.6-2.7,1.3c-0.2,0.1-0.1,0.3,0.1,0.4c-0.2,0.1-0.3,0.4-0.1,0.6c1.7,0.9,3.8,1.5,5.8,1.6C45.8,16,45.8,15.5,45.5,15.5z"
	/>
<path class="st0" d="M41.1,10.9c-0.6,0.2-1.2,0.4-1.8,0.7c0-1.6,1.4-3.6,2.3-4.7c0.2-0.3,0.5-0.6,0.9-0.8c0.6-0.3,1.4,0.9,1.7,1.3
	c0.4,0.5,0.5,1.1,0.4,1.7c-0.1,0.6-1.2,0.7-1.7,0.8c-0.4,0.1-0.2,0.8,0.2,0.7c1.5-0.4,2.4-0.7,2.2-2.5c-0.1-1.1-1.5-2.8-2.7-2.7
	c-1.2,0.1-2.2,1.9-2.7,2.8c-0.6,1.1-1.4,2.6-1.2,3.9c0,0.2,0.2,0.3,0.4,0.2c0.8-0.3,1.5-0.6,2.2-1C41.6,11.3,41.4,10.8,41.1,10.9z"
	/>
<path class="st0" d="M37.9,11.6c0.2-0.1,0.3-0.4,0.1-0.6c0.8-1.4,3.1-7,0.2-6.9c-0.4,0-0.4,0.6,0,0.7c1.8,0.2-0.2,4.9-0.7,6.1
	c-2.3-0.9-3-5.1-0.7-6.3c0.2-0.1,0.1-0.5-0.1-0.5C32.9,4.4,35,12.6,37.9,11.6z"/>
<path class="st0" d="M34.7,11.8c0.2,0,0.3-0.2,0.3-0.3c0.2,0.2,0.6-0.1,0.5-0.3c-0.4-1.3-0.9-2.7-1.6-3.9c-0.6-0.9-1.4-1.6-2.5-0.9
	c-1.2,0.8-1.9,2.5-1,3.8C31.3,11.3,33.3,11.9,34.7,11.8z M30.9,8c0.3-0.5,0.8-1.2,1.4-1.3c0.8-0.1,1.4,1.6,1.6,2.2
	c0.3,0.7,0.5,1.5,0.8,2.2c0,0-0.1,0-0.1,0c-1.3-0.1-2.6-0.2-3.6-1.1C30.4,9.3,30.5,8.6,30.9,8z"/>
<path class="st0" d="M35.5,12.6c-0.1,0.1-0.2,0.1-0.4,0.2c0.2-0.2,0.1-0.5-0.2-0.6c-2-0.3-7.2-2.2-7.4,1.2c-0.1,1.7,1.2,2.8,2.8,2.5
	c2-0.4,3.8-1.6,5.5-2.7C36.1,12.9,35.8,12.4,35.5,12.6z M28.4,13.1c0.3-2,5.2-0.2,6.5-0.1c0,0,0,0,0.1,0
	C32.9,14.1,27.7,17.1,28.4,13.1z"/>
<path class="st0" d="M38.1,12.8c0,0.3,0,0.6-0.2,0.8c-0.1,0.2-0.3,0.4-0.6,0.4c-0.3-0.1-0.4-0.4-0.3-0.6c0.1-0.3,0.4-0.4,0.7-0.4
	c0.3,0,0.3-0.4,0.1-0.5c-0.6-0.2-1.1,0.1-1.4,0.6c-0.3,0.6-0.1,1.3,0.5,1.6c0.5,0.3,1.1,0.1,1.4-0.4c0.3-0.4,0.6-1.1,0.4-1.6
	C38.6,12.4,38.1,12.4,38.1,12.8z"/>
</svg>
