<svg width="178" height="60" viewBox="0 0 178 60" fill="none" xmlns="http://www.w3.org/2000/svg">
<g filter="url(#filter0_d)">
<path fill-rule="evenodd" clip-rule="evenodd" d="M21 37C11.0589 37 3 28.9411 3 19C3 9.05888 11.0589 1 21 1H110C119.941 1 128 9.05888 128 19C128 28.9411 119.941 37 110 37H38.5149C38.468 37.379 38.0976 38.0269 37.5927 38.9103C35.8586 41.9441 32.5364 47.7563 35.2653 55C32.0146 53.872 26.162 48.0979 22.4322 37H21Z" fill="white"/>
<path d="M38.5149 37V36C38.0102 36 37.5846 36.3761 37.5225 36.877L38.5149 37ZM37.5927 38.9103L36.7245 38.4141V38.4141L37.5927 38.9103ZM35.2653 55L34.9375 55.9447C35.304 56.0719 35.711 55.9756 35.9817 55.6977C36.2524 55.4199 36.3379 55.0105 36.2011 54.6475L35.2653 55ZM22.4322 37L23.3801 36.6814C23.2433 36.2743 22.8618 36 22.4322 36V37ZM2 19C2 29.4934 10.5066 38 21 38V36C11.6112 36 4 28.3888 4 19H2ZM21 0C10.5066 0 2 8.50659 2 19H4C4 9.61116 11.6112 2 21 2V0ZM110 0H21V2H110V0ZM129 19C129 8.50659 120.493 0 110 0V2C119.389 2 127 9.61116 127 19H129ZM110 38C120.493 38 129 29.4934 129 19H127C127 28.3888 119.389 36 110 36V38ZM38.5149 38H110V36H38.5149V38ZM38.4608 39.4066C38.7088 38.9727 38.9424 38.5648 39.1181 38.217C39.2787 37.8991 39.4602 37.5033 39.5074 37.123L37.5225 36.877C37.5227 36.8757 37.4956 36.9933 37.333 37.315C37.1856 37.6068 36.9815 37.9645 36.7245 38.4141L38.4608 39.4066ZM36.2011 54.6475C33.6502 47.8762 36.7256 42.4424 38.4608 39.4066L36.7245 38.4141C34.9915 41.4459 31.4226 47.6364 34.3295 55.3525L36.2011 54.6475ZM21.4843 37.3186C23.3823 42.9658 25.8297 47.2872 28.2422 50.3567C30.6312 53.3963 33.0524 55.2906 34.9375 55.9447L35.5932 54.0553C34.2275 53.5814 32.097 52.0247 29.8146 49.1208C27.5557 46.2467 25.212 42.132 23.3801 36.6814L21.4843 37.3186ZM21 38H22.4322V36H21V38Z" fill="#484751"/>
<path d="M23.906 13.2C25.3153 13.2 26.3933 13.4567 27.14 13.97C27.896 14.4833 28.274 15.286 28.274 16.378C28.274 16.9473 28.1713 17.4373 27.966 17.848C27.77 18.2493 27.4807 18.5807 27.098 18.842C26.7153 19.094 26.2487 19.2807 25.698 19.402C25.1473 19.5233 24.5173 19.584 23.808 19.584H22.926V23H21.162V13.438C21.5727 13.3447 22.0253 13.284 22.52 13.256C23.024 13.2187 23.486 13.2 23.906 13.2ZM24.032 14.726C23.584 14.726 23.2153 14.74 22.926 14.768V18.072H23.78C24.6293 18.072 25.2827 17.9553 25.74 17.722C26.1973 17.4793 26.426 17.0267 26.426 16.364C26.426 16.0467 26.3653 15.7807 26.244 15.566C26.1227 15.3513 25.9547 15.1833 25.74 15.062C25.5253 14.9407 25.2687 14.8567 24.97 14.81C24.6807 14.754 24.368 14.726 24.032 14.726ZM32.3487 23.14C31.8447 23.1307 31.4247 23.0747 31.0887 22.972C30.762 22.8693 30.5007 22.7247 30.3047 22.538C30.1087 22.342 29.9687 22.104 29.8847 21.824C29.81 21.5347 29.7727 21.208 29.7727 20.844V12.416L31.4667 12.136V20.522C31.4667 20.7273 31.4807 20.9 31.5087 21.04C31.546 21.18 31.6067 21.3013 31.6907 21.404C31.7747 21.4973 31.8867 21.572 32.0267 21.628C32.176 21.6747 32.3627 21.712 32.5867 21.74L32.3487 23.14ZM33.5509 19.374C33.5509 18.73 33.6442 18.1653 33.8309 17.68C34.0269 17.1947 34.2836 16.7933 34.6009 16.476C34.9182 16.1493 35.2822 15.9067 35.6929 15.748C36.1036 15.58 36.5236 15.496 36.9529 15.496C37.9609 15.496 38.7449 15.8087 39.3049 16.434C39.8742 17.0593 40.1589 17.9927 40.1589 19.234C40.1589 19.3273 40.1542 19.4347 40.1449 19.556C40.1449 19.668 40.1402 19.7707 40.1309 19.864H35.3009C35.3476 20.452 35.5529 20.9093 35.9169 21.236C36.2902 21.5533 36.8269 21.712 37.5269 21.712C37.9376 21.712 38.3109 21.6747 38.6469 21.6C38.9922 21.5253 39.2629 21.446 39.4589 21.362L39.6829 22.748C39.5896 22.7947 39.4589 22.846 39.2909 22.902C39.1322 22.9487 38.9456 22.9907 38.7309 23.028C38.5256 23.0747 38.3016 23.112 38.0589 23.14C37.8162 23.168 37.5689 23.182 37.3169 23.182C36.6729 23.182 36.1129 23.0887 35.6369 22.902C35.1609 22.706 34.7689 22.44 34.4609 22.104C34.1529 21.7587 33.9242 21.3573 33.7749 20.9C33.6256 20.4333 33.5509 19.9247 33.5509 19.374ZM38.4649 18.618C38.4649 18.3847 38.4322 18.1653 38.3669 17.96C38.3016 17.7453 38.2036 17.5633 38.0729 17.414C37.9516 17.2553 37.7976 17.134 37.6109 17.05C37.4336 16.9567 37.2189 16.91 36.9669 16.91C36.7056 16.91 36.4769 16.9613 36.2809 17.064C36.0849 17.1573 35.9169 17.2833 35.7769 17.442C35.6462 17.6007 35.5436 17.7827 35.4689 17.988C35.3942 18.1933 35.3429 18.4033 35.3149 18.618H38.4649ZM44.531 21.81C45.0536 21.81 45.4503 21.782 45.721 21.726V19.85C45.6276 19.822 45.4923 19.794 45.315 19.766C45.1376 19.738 44.9416 19.724 44.727 19.724C44.5403 19.724 44.349 19.738 44.153 19.766C43.9663 19.794 43.7936 19.8453 43.635 19.92C43.4856 19.9947 43.3643 20.102 43.271 20.242C43.1776 20.3727 43.131 20.5407 43.131 20.746C43.131 21.1473 43.257 21.4273 43.509 21.586C43.761 21.7353 44.1016 21.81 44.531 21.81ZM44.391 15.496C44.951 15.496 45.4223 15.566 45.805 15.706C46.1876 15.846 46.491 16.042 46.715 16.294C46.9483 16.546 47.1116 16.854 47.205 17.218C47.3076 17.5727 47.359 17.9647 47.359 18.394V22.832C47.0976 22.888 46.701 22.9533 46.169 23.028C45.6463 23.112 45.0536 23.154 44.391 23.154C43.9523 23.154 43.551 23.112 43.187 23.028C42.823 22.944 42.5103 22.8087 42.249 22.622C41.997 22.4353 41.7963 22.1927 41.647 21.894C41.507 21.5953 41.437 21.2267 41.437 20.788C41.437 20.368 41.5163 20.0133 41.675 19.724C41.843 19.4347 42.067 19.2013 42.347 19.024C42.627 18.8373 42.949 18.7067 43.313 18.632C43.6863 18.548 44.0736 18.506 44.475 18.506C44.6616 18.506 44.8576 18.52 45.063 18.548C45.2683 18.5667 45.4876 18.604 45.721 18.66V18.38C45.721 18.184 45.6976 17.9973 45.651 17.82C45.6043 17.6427 45.5203 17.4887 45.399 17.358C45.287 17.218 45.133 17.1107 44.937 17.036C44.7503 16.9613 44.5123 16.924 44.223 16.924C43.831 16.924 43.4716 16.952 43.145 17.008C42.8183 17.064 42.5523 17.1293 42.347 17.204L42.137 15.832C42.3516 15.7573 42.6643 15.6827 43.075 15.608C43.4856 15.5333 43.9243 15.496 44.391 15.496ZM51.2675 21.782C51.7155 21.782 52.0421 21.7307 52.2475 21.628C52.4528 21.516 52.5555 21.3293 52.5555 21.068C52.5555 20.8253 52.4435 20.6247 52.2195 20.466C52.0048 20.3073 51.6455 20.1347 51.1415 19.948C50.8335 19.836 50.5488 19.7193 50.2875 19.598C50.0355 19.4673 49.8161 19.318 49.6295 19.15C49.4428 18.982 49.2935 18.7813 49.1815 18.548C49.0788 18.3053 49.0275 18.0113 49.0275 17.666C49.0275 16.994 49.2748 16.4667 49.7695 16.084C50.2641 15.692 50.9361 15.496 51.7855 15.496C52.2148 15.496 52.6255 15.538 53.0175 15.622C53.4095 15.6967 53.7035 15.7713 53.8995 15.846L53.5915 17.218C53.4048 17.134 53.1668 17.0593 52.8775 16.994C52.5881 16.9193 52.2521 16.882 51.8695 16.882C51.5241 16.882 51.2441 16.9427 51.0295 17.064C50.8148 17.176 50.7075 17.3533 50.7075 17.596C50.7075 17.7173 50.7261 17.8247 50.7635 17.918C50.8101 18.0113 50.8848 18.1 50.9875 18.184C51.0901 18.2587 51.2255 18.338 51.3935 18.422C51.5615 18.4967 51.7668 18.576 52.0095 18.66C52.4108 18.8093 52.7515 18.9587 53.0315 19.108C53.3115 19.248 53.5401 19.4113 53.7175 19.598C53.9041 19.7753 54.0395 19.9807 54.1235 20.214C54.2075 20.4473 54.2495 20.7273 54.2495 21.054C54.2495 21.754 53.9881 22.286 53.4655 22.65C52.9521 23.0047 52.2148 23.182 51.2535 23.182C50.6095 23.182 50.0915 23.126 49.6995 23.014C49.3075 22.9113 49.0321 22.8273 48.8735 22.762L49.1675 21.348C49.4195 21.4507 49.7181 21.5487 50.0635 21.642C50.4181 21.7353 50.8195 21.782 51.2675 21.782ZM55.4259 19.374C55.4259 18.73 55.5192 18.1653 55.7059 17.68C55.9019 17.1947 56.1586 16.7933 56.4759 16.476C56.7932 16.1493 57.1572 15.9067 57.5679 15.748C57.9786 15.58 58.3986 15.496 58.8279 15.496C59.8359 15.496 60.6199 15.8087 61.1799 16.434C61.7492 17.0593 62.0339 17.9927 62.0339 19.234C62.0339 19.3273 62.0292 19.4347 62.0199 19.556C62.0199 19.668 62.0152 19.7707 62.0059 19.864H57.1759C57.2226 20.452 57.4279 20.9093 57.7919 21.236C58.1652 21.5533 58.7019 21.712 59.4019 21.712C59.8126 21.712 60.1859 21.6747 60.5219 21.6C60.8672 21.5253 61.1379 21.446 61.3339 21.362L61.5579 22.748C61.4646 22.7947 61.3339 22.846 61.1659 22.902C61.0072 22.9487 60.8206 22.9907 60.6059 23.028C60.4006 23.0747 60.1766 23.112 59.9339 23.14C59.6912 23.168 59.4439 23.182 59.1919 23.182C58.5479 23.182 57.9879 23.0887 57.5119 22.902C57.0359 22.706 56.6439 22.44 56.3359 22.104C56.0279 21.7587 55.7992 21.3573 55.6499 20.9C55.5006 20.4333 55.4259 19.9247 55.4259 19.374ZM60.3399 18.618C60.3399 18.3847 60.3072 18.1653 60.2419 17.96C60.1766 17.7453 60.0786 17.5633 59.9479 17.414C59.8266 17.2553 59.6726 17.134 59.4859 17.05C59.3086 16.9567 59.0939 16.91 58.8419 16.91C58.5806 16.91 58.3519 16.9613 58.1559 17.064C57.9599 17.1573 57.7919 17.2833 57.6519 17.442C57.5212 17.6007 57.4186 17.7827 57.3439 17.988C57.2692 18.1933 57.2179 18.4033 57.1899 18.618H60.3399ZM68.9315 21.782C69.3795 21.782 69.7062 21.7307 69.9115 21.628C70.1169 21.516 70.2195 21.3293 70.2195 21.068C70.2195 20.8253 70.1075 20.6247 69.8835 20.466C69.6689 20.3073 69.3095 20.1347 68.8055 19.948C68.4975 19.836 68.2129 19.7193 67.9515 19.598C67.6995 19.4673 67.4802 19.318 67.2935 19.15C67.1069 18.982 66.9575 18.7813 66.8455 18.548C66.7429 18.3053 66.6915 18.0113 66.6915 17.666C66.6915 16.994 66.9389 16.4667 67.4335 16.084C67.9282 15.692 68.6002 15.496 69.4495 15.496C69.8789 15.496 70.2895 15.538 70.6815 15.622C71.0735 15.6967 71.3675 15.7713 71.5635 15.846L71.2555 17.218C71.0689 17.134 70.8309 17.0593 70.5415 16.994C70.2522 16.9193 69.9162 16.882 69.5335 16.882C69.1882 16.882 68.9082 16.9427 68.6935 17.064C68.4789 17.176 68.3715 17.3533 68.3715 17.596C68.3715 17.7173 68.3902 17.8247 68.4275 17.918C68.4742 18.0113 68.5489 18.1 68.6515 18.184C68.7542 18.2587 68.8895 18.338 69.0575 18.422C69.2255 18.4967 69.4309 18.576 69.6735 18.66C70.0749 18.8093 70.4155 18.9587 70.6955 19.108C70.9755 19.248 71.2042 19.4113 71.3815 19.598C71.5682 19.7753 71.7035 19.9807 71.7875 20.214C71.8715 20.4473 71.9135 20.7273 71.9135 21.054C71.9135 21.754 71.6522 22.286 71.1295 22.65C70.6162 23.0047 69.8789 23.182 68.9175 23.182C68.2735 23.182 67.7555 23.126 67.3635 23.014C66.9715 22.9113 66.6962 22.8273 66.5375 22.762L66.8315 21.348C67.0835 21.4507 67.3822 21.5487 67.7275 21.642C68.0822 21.7353 68.4835 21.782 68.9315 21.782ZM75.204 23H73.51V15.678H75.204V23ZM75.386 13.536C75.386 13.8533 75.2833 14.1053 75.078 14.292C74.8726 14.4787 74.63 14.572 74.35 14.572C74.0606 14.572 73.8133 14.4787 73.608 14.292C73.4026 14.1053 73.3 13.8533 73.3 13.536C73.3 13.2093 73.4026 12.9527 73.608 12.766C73.8133 12.5793 74.0606 12.486 74.35 12.486C74.63 12.486 74.8726 12.5793 75.078 12.766C75.2833 12.9527 75.386 13.2093 75.386 13.536ZM78.6951 19.15C78.6951 19.8687 78.8491 20.396 79.1571 20.732C79.4744 21.0587 79.8804 21.222 80.3751 21.222C80.6458 21.222 80.8978 21.1847 81.1311 21.11C81.3738 21.0353 81.5698 20.9467 81.7191 20.844V17.05C81.5978 17.022 81.4484 16.9987 81.2711 16.98C81.0938 16.952 80.8698 16.938 80.5991 16.938C79.9831 16.938 79.5118 17.1433 79.1851 17.554C78.8584 17.9553 78.6951 18.4873 78.6951 19.15ZM83.4131 22.258C83.4131 23.4247 83.1144 24.2787 82.5171 24.82C81.9291 25.3613 81.0238 25.632 79.8011 25.632C79.3531 25.632 78.9144 25.5947 78.4851 25.52C78.0651 25.4453 77.6824 25.3473 77.3371 25.226L77.6451 23.784C77.9344 23.9053 78.2611 24.0033 78.6251 24.078C78.9984 24.1527 79.3998 24.19 79.8291 24.19C80.5104 24.19 80.9958 24.05 81.2851 23.77C81.5744 23.49 81.7191 23.0747 81.7191 22.524V22.244C81.5511 22.328 81.3271 22.412 81.0471 22.496C80.7764 22.58 80.4638 22.622 80.1091 22.622C79.6424 22.622 79.2131 22.5473 78.8211 22.398C78.4384 22.2487 78.1071 22.0293 77.8271 21.74C77.5564 21.4507 77.3418 21.0913 77.1831 20.662C77.0338 20.2233 76.9591 19.7193 76.9591 19.15C76.9591 18.618 77.0384 18.128 77.1971 17.68C77.3651 17.232 77.6031 16.8493 77.9111 16.532C78.2284 16.2147 78.6111 15.9673 79.0591 15.79C79.5071 15.6127 80.0158 15.524 80.5851 15.524C81.1358 15.524 81.6584 15.566 82.1531 15.65C82.6478 15.734 83.0678 15.8227 83.4131 15.916V22.258ZM85.5682 15.916C85.8949 15.8227 86.3196 15.734 86.8422 15.65C87.3649 15.566 87.9436 15.524 88.5782 15.524C89.1756 15.524 89.6749 15.608 90.0762 15.776C90.4776 15.9347 90.7949 16.1633 91.0282 16.462C91.2709 16.7513 91.4389 17.106 91.5322 17.526C91.6349 17.9367 91.6862 18.3893 91.6862 18.884V23H89.9922V19.15C89.9922 18.758 89.9642 18.4267 89.9082 18.156C89.8616 17.876 89.7776 17.652 89.6562 17.484C89.5442 17.3067 89.3856 17.1807 89.1802 17.106C88.9842 17.022 88.7416 16.98 88.4522 16.98C88.2376 16.98 88.0136 16.994 87.7802 17.022C87.5469 17.05 87.3742 17.0733 87.2622 17.092V23H85.5682V15.916ZM98.7333 23H97.0393V15.678H98.7333V23ZM98.9153 13.536C98.9153 13.8533 98.8126 14.1053 98.6073 14.292C98.4019 14.4787 98.1593 14.572 97.8793 14.572C97.5899 14.572 97.3426 14.4787 97.1373 14.292C96.9319 14.1053 96.8293 13.8533 96.8293 13.536C96.8293 13.2093 96.9319 12.9527 97.1373 12.766C97.3426 12.5793 97.5899 12.486 97.8793 12.486C98.1593 12.486 98.4019 12.5793 98.6073 12.766C98.8126 12.9527 98.9153 13.2093 98.9153 13.536ZM100.894 15.916C101.221 15.8227 101.646 15.734 102.168 15.65C102.691 15.566 103.27 15.524 103.904 15.524C104.502 15.524 105.001 15.608 105.402 15.776C105.804 15.9347 106.121 16.1633 106.354 16.462C106.597 16.7513 106.765 17.106 106.858 17.526C106.961 17.9367 107.012 18.3893 107.012 18.884V23H105.318V19.15C105.318 18.758 105.29 18.4267 105.234 18.156C105.188 17.876 105.104 17.652 104.982 17.484C104.87 17.3067 104.712 17.1807 104.506 17.106C104.31 17.022 104.068 16.98 103.778 16.98C103.564 16.98 103.34 16.994 103.106 17.022C102.873 17.05 102.7 17.0733 102.588 17.092V23H100.894V15.916ZM110.988 22.076C110.988 22.4027 110.876 22.6687 110.652 22.874C110.437 23.0793 110.176 23.182 109.868 23.182C109.551 23.182 109.285 23.0793 109.07 22.874C108.855 22.6687 108.748 22.4027 108.748 22.076C108.748 21.7493 108.855 21.4833 109.07 21.278C109.285 21.0633 109.551 20.956 109.868 20.956C110.176 20.956 110.437 21.0633 110.652 21.278C110.876 21.4833 110.988 21.7493 110.988 22.076Z" fill="#484751"/>
</g>
<defs>
<filter id="filter0_d" x="0" y="0" width="131" height="60" filterUnits="userSpaceOnUse" color-interpolation-filters="sRGB">
<feFlood flood-opacity="0" result="BackgroundImageFix"/>
<feColorMatrix in="SourceAlpha" type="matrix" values="0 0 0 0 0 0 0 0 0 0 0 0 0 0 0 0 0 0 127 0" result="hardAlpha"/>
<feOffset dy="2"/>
<feGaussianBlur stdDeviation="1"/>
<feColorMatrix type="matrix" values="0 0 0 0 0 0 0 0 0 0 0 0 0 0 0 0 0 0 0.2 0"/>
<feBlend mode="normal" in2="BackgroundImageFix" result="effect1_dropShadow"/>
<feBlend mode="normal" in="SourceGraphic" in2="effect1_dropShadow" result="shape"/>
</filter>
</defs>
</svg>
