<svg width="42" height="39" viewBox="0 0 42 39" fill="none" xmlns="http://www.w3.org/2000/svg">
<g filter="url(#filter0_d)">
<path d="M30.684 22.1757C32.1238 21.3972 34.4319 19.7088 35.0843 17.9386C35.1873 17.6609 35.5356 17.5815 35.749 17.7849L40.5786 23.4302C41.1231 23.9558 41.1427 24.831 40.6228 25.3814L30.6889 34.2994C30.4313 34.5622 29.9874 34.3787 29.9874 34.0093L29.9727 27.4144C29.9727 27.3028 33.2668 25.8277 31.9791 24.5235L30.6889 23.2194C30.424 22.9591 30.1272 22.4757 30.684 22.1757Z" fill="#141B41"/>
<path d="M28.5426 28.5208V34.8429C28.5426 35.6611 28.0299 36.3305 27.402 36.3305H14.6425C14.0146 36.3305 13.502 35.6611 13.502 34.8429V28.5208C13.502 27.7026 14.0146 27.0332 14.6425 27.0332H15.1331C15.4127 27.0332 15.6825 27.1596 15.8983 27.3753C17.2523 28.734 19.4451 29.2646 21.2675 29.2646C23.0875 29.2646 25.0988 28.7365 26.4283 27.3828C26.6466 27.1621 26.9164 27.0332 27.2009 27.0332H27.402C28.0299 27.0332 28.5426 27.7026 28.5426 28.5208Z" fill="#141B41"/>
<path d="M11.3138 22.1757C9.87401 21.3972 7.56592 19.7088 6.91347 17.9386C6.81045 17.6609 6.46215 17.5815 6.24876 17.7849L1.42163 23.4302C0.877104 23.9558 0.857482 24.831 1.37748 25.3814L11.3114 34.2994C11.5689 34.5622 12.0129 34.3787 12.0129 34.0093L12.0276 27.4144C12.0276 27.3028 8.73345 25.8277 10.0212 24.5235L11.3114 23.2194C11.5714 22.9591 11.8706 22.4757 11.3138 22.1757Z" fill="#141B41"/>
<path d="M25.6166 24.1024C24.4392 26.1354 22.5309 26.6734 21.3045 26.7999C21.1991 26.8098 21.101 26.8172 21.0053 26.8247C20.9121 26.8197 20.8115 26.8123 20.7061 26.7999C19.4796 26.6734 17.5714 26.1354 16.394 24.1024C16.0359 23.4826 16.7129 22.7859 17.3948 23.0785C18.29 23.4652 19.5042 24.1074 21.0053 24.1371C22.5064 24.1074 23.7206 23.4628 24.6158 23.0785C25.2977 22.7834 25.9747 23.4826 25.6166 24.1024Z" fill="#141B41"/>
<path d="M17.6922 3.16438C17.6922 3.16438 14.0203 1.41896 10.5447 4.93459C9.88734 5.59904 9.01169 6.92546 8.2832 8.17998C12.659 3.82635 18.0577 4.78583 20.974 7.51305C22.9436 6.03787 27.3195 3.1619 32.7573 7.31966C31.6977 4.93459 30.3855 3.53131 30.3855 3.53131C30.3855 3.53131 31.7713 3.31066 33.9592 4.41642C32.7917 3.09 29.7649 1.25037 27.4127 0.915668C28.5606 0.509066 29.0732 0.360308 29.0732 0.360308C29.0732 0.360308 20.7557 -1.4818 17.6922 3.16438Z" fill="#141B41"/>
<path d="M15.3613 1.20612C15.3613 1.20612 17.5247 1.17141 18.1551 2.75567C18.7855 4.33993 18.1551 3.98044 18.1551 3.98044L15.9966 4.01515C15.9966 4.01763 17.1911 2.93666 15.3613 1.20612Z" fill="#141B41"/>
<path d="M26.8855 10.8842C27.0768 10.7256 26.861 10.3264 26.5397 10.2619C26.5372 10.2619 26.5348 10.2619 26.5323 10.2595C25.9412 10.1479 24.754 10.1132 23.8563 11.2958C23.0591 12.347 23.2382 13.371 23.4712 13.9709L23.4761 13.9809C23.665 14.4569 24.3665 14.6651 24.4965 14.2833C24.4965 14.2833 23.7606 13.1305 24.7565 11.8189C25.7523 10.5074 26.8855 10.8842 26.8855 10.8842Z" fill="#141B41"/>
<path d="M13.6863 10.8032C13.8776 10.6445 13.6618 10.2453 13.3404 10.1809C13.338 10.1809 13.3355 10.1809 13.3331 10.1784C12.742 10.0668 11.5548 10.0321 10.6571 11.2147C9.85991 12.266 10.039 13.2899 10.272 13.8899L10.2769 13.8998C10.4657 14.3758 11.1673 14.5841 11.2973 14.2023C11.2973 14.2023 10.5614 13.0494 11.5573 11.7379C12.5531 10.4263 13.6863 10.8032 13.6863 10.8032Z" fill="#141B41"/>
<path d="M34.6784 13.1242C34.6612 13.0052 34.6391 12.8862 34.617 12.7696C34.617 12.7672 34.617 12.7672 34.617 12.7672C34.595 12.6506 34.5655 12.5316 34.5361 12.4176C34.5336 12.4077 34.5312 12.3977 34.5287 12.3853C34.5091 12.3085 34.487 12.2341 34.465 12.1573C34.4331 12.0482 34.4012 11.9391 34.3619 11.8325C34.335 11.7531 34.308 11.6788 34.2785 11.6019C34.2221 11.4531 34.1608 11.3044 34.0921 11.1581C34.0529 11.0713 34.0112 10.987 33.9695 10.9027C33.9278 10.8234 33.8861 10.7465 33.8469 10.6672C32.6008 8.37386 30.1897 6.82431 27.4156 6.82431C24.7003 6.82431 22.3334 8.31188 21.0604 10.5209C21.053 10.5333 21.0456 10.5482 21.0383 10.5606C21.0285 10.5383 21.0162 10.5135 21.0015 10.4912C20.8102 10.1466 20.5919 9.81929 20.3515 9.51186C20.3343 9.48954 20.3147 9.46723 20.2975 9.44739C18.9509 7.76644 16.8955 6.69043 14.5874 6.69043C10.5255 6.69043 7.23633 10.0176 7.23633 14.1208C7.23633 16.9695 8.81839 19.4414 11.1437 20.6835C12.1714 21.2364 13.3414 21.5488 14.5849 21.5488C17.3125 21.5488 19.6941 20.0463 20.9598 17.815C20.9721 17.8373 20.9868 17.8621 20.999 17.8844C21.0187 17.9241 21.0432 17.9637 21.0653 18.0009C22.3383 20.2025 24.7052 21.6827 27.4107 21.6827C28.9216 21.6827 30.332 21.2215 31.4995 20.4232C31.5706 20.3761 31.6442 20.324 31.7154 20.272C31.7988 20.2125 31.8772 20.1529 31.9557 20.0885C32.071 19.9968 32.1863 19.9001 32.2942 19.8034C32.331 19.7711 32.3654 19.7414 32.3997 19.7067C32.4659 19.6447 32.5346 19.5827 32.5984 19.5158C32.6033 19.5108 32.6082 19.5059 32.6131 19.5009C32.694 19.4166 32.7725 19.3348 32.851 19.248C32.932 19.1588 33.008 19.0695 33.084 18.9802C33.3465 18.6604 33.582 18.3158 33.788 17.9538C33.8272 17.8869 33.8665 17.815 33.9008 17.748C34.4502 16.7043 34.7593 15.5192 34.7593 14.2547C34.7618 13.8729 34.7348 13.4936 34.6784 13.1242ZM22.169 15.4448C22.1028 15.1026 22.066 14.7506 22.066 14.3911C22.066 11.4085 24.46 8.98873 27.4107 8.98873C30.3614 8.98873 32.7554 11.4085 32.7554 14.3911C32.7554 15.8712 32.1642 17.215 31.2101 18.1894C31.2027 18.1968 31.1978 18.2018 31.1905 18.2092C30.2241 19.186 28.8873 19.791 27.4107 19.791C24.8181 19.7935 22.6522 17.9241 22.169 15.4448ZM16.8023 19.3199C16.1229 19.6249 15.3747 19.7935 14.5849 19.7935C11.5582 19.7935 9.10537 17.3142 9.10537 14.2547C9.10537 11.1953 11.5582 8.71601 14.5849 8.71601C15.6814 8.71601 16.6993 9.04079 17.5577 9.60359C17.5896 9.62094 17.6166 9.64326 17.6485 9.66309C19.1055 10.6573 20.0621 12.3432 20.0621 14.2547C20.0621 16.5109 18.7277 18.4522 16.8145 19.3149C16.8096 19.3174 16.8072 19.3199 16.8023 19.3199Z" fill="#141B41"/>
</g>
<defs>
<filter id="filter0_d" x="0" y="0" width="42.0002" height="38.3305" filterUnits="userSpaceOnUse" color-interpolation-filters="sRGB">
<feFlood flood-opacity="0" result="BackgroundImageFix"/>
<feColorMatrix in="SourceAlpha" type="matrix" values="0 0 0 0 0 0 0 0 0 0 0 0 0 0 0 0 0 0 127 0" result="hardAlpha"/>
<feOffset dy="1"/>
<feGaussianBlur stdDeviation="0.5"/>
<feColorMatrix type="matrix" values="0 0 0 0 0 0 0 0 0 0 0 0 0 0 0 0 0 0 0.15 0"/>
<feBlend mode="normal" in2="BackgroundImageFix" result="effect1_dropShadow"/>
<feBlend mode="normal" in="SourceGraphic" in2="effect1_dropShadow" result="shape"/>
</filter>
</defs>
</svg>
