<svg width="87" height="37" viewBox="0 0 87 37" fill="none" xmlns="http://www.w3.org/2000/svg">
<g clip-path="url(#clip0)">
<path d="M34.9133 26.8845C34.1715 27.0536 33.3732 26.6026 32.9459 26.0146C32.5024 25.4025 32.7443 24.6455 33.4781 24.4361C33.7361 24.3636 33.9135 24.7582 33.6635 24.879C33.2281 25.0804 33.091 25.3462 33.4135 25.7489C33.7199 26.1274 34.1876 26.3771 34.6714 26.361C35.2519 26.3449 35.6228 25.7891 35.4454 25.2576C35.2842 24.7582 34.6714 24.4522 34.1795 24.573C33.9135 24.6374 33.8167 24.2589 34.0667 24.1703C34.8326 23.8884 35.647 24.275 35.9534 25.0321C36.284 25.8697 35.7518 26.6912 34.9133 26.8845Z" fill="#6976EC"/>
<path d="M28.7926 26.3848C28.1637 26.2559 27.7847 25.6035 27.8008 24.9914C27.825 24.2666 28.4862 23.7028 29.2038 23.735C29.2199 23.735 29.228 23.743 29.2441 23.743C29.2925 23.7108 29.3489 23.7028 29.4134 23.7269C30.1068 23.9444 30.4939 24.6531 30.381 25.3619C30.252 26.1351 29.5424 26.5458 28.7926 26.3848ZM29.3892 24.2343C29.357 24.2585 29.3247 24.2746 29.2844 24.2827C28.8571 24.3632 28.4862 24.4599 28.3652 24.927C28.2765 25.2814 28.4862 25.6357 28.8006 25.7888C29.228 26.0062 29.6956 25.7002 29.8004 25.2814C29.8891 24.9028 29.6876 24.476 29.3892 24.2343Z" fill="#6976EC"/>
<path d="M22.1728 26.2481C21.6325 26.095 21.1488 25.5715 21.0601 25.0158C20.9391 24.2587 21.5922 23.7594 22.2937 23.7111C22.3582 23.703 22.4066 23.7272 22.4469 23.7513C23.1484 23.8158 23.7531 24.4601 23.6886 25.201C23.6322 25.942 22.8904 26.4494 22.1728 26.2481ZM22.3743 24.307C22.0599 24.4037 21.6648 24.4842 21.689 24.8869C21.7051 25.1849 22.0035 25.4507 22.2453 25.5796C22.5517 25.7407 22.8178 25.5957 22.9871 25.3218C23.2774 24.8628 22.8098 24.452 22.3743 24.307Z" fill="#6976EC"/>
<path d="M0.00038147 20.8676C0.0890808 20.0864 1.11308 19.5871 1.8065 19.5146C2.68537 19.426 3.58037 19.8126 4.3141 20.3119C4.16897 17.8152 8.87777 18.6931 10.1437 18.8622C10.6194 18.9266 11.1032 18.9508 11.587 18.9508C11.337 18.0246 11.1838 17.0581 11.0548 16.1238C10.95 15.3265 10.7645 14.1748 11.2886 13.4821C10.6678 13.4338 10.055 13.3855 9.43412 13.3533C9.17611 13.3372 9.00678 13.0231 9.21642 12.8217C10.5307 11.5653 11.9901 11.0901 13.5543 10.9371C14.1349 10.1881 14.9815 9.8659 15.8845 9.68871C15.8926 7.44971 15.9894 5.17043 15.7072 2.95559C15.6991 2.90726 15.7233 2.86699 15.7555 2.82672C15.7152 2.80256 15.6749 2.7784 15.6507 2.73813C15.5459 2.64953 15.4814 2.51262 15.5701 2.35154C17.1182 -0.394871 21.061 -0.0163341 23.7944 0.0400438C26.1568 0.0883677 28.5354 0.0883677 30.8979 0.241393C32.7846 0.370257 34.6391 1.03068 36.4775 1.50587C36.5501 1.52198 36.6226 1.53808 36.6952 1.56225C36.8887 1.61057 37.0822 1.65889 37.2757 1.69916C37.316 1.70722 37.3402 1.72333 37.3644 1.73943C37.945 1.90857 38.5174 2.10992 39.0738 2.35959C39.3963 2.50456 39.2189 2.97975 38.9045 2.9878C39.2028 4.63887 39.2189 6.37853 39.1302 8.05376C39.1867 8.07792 39.2512 8.10208 39.3076 8.12624C39.4286 8.18262 39.4286 8.31954 39.3721 8.40813C39.4689 8.42424 39.5737 8.44035 39.6704 8.45646C39.7833 7.39333 40.3558 6.37853 41.5411 6.37853C43.3391 6.37853 44.1374 8.03765 44.3873 9.5518C44.3954 9.58401 44.3954 9.62428 44.4034 9.6565C44.4115 9.6565 44.4115 9.6565 44.4196 9.6565C45.8548 10.0028 47.9431 10.623 48.8542 11.8713C48.8865 11.9116 48.8865 11.968 48.8784 12.0083C50.8055 12.7653 51.9504 15.0205 53.9017 15.7856C54.0226 15.8339 54.0871 15.9306 54.1033 16.0433C55.6675 16.5185 57.264 16.8487 58.8685 17.1145C59.1265 16.9292 59.3684 16.7279 59.6022 16.5104C58.3041 16.5185 57.0059 16.4943 55.732 16.3333C55.3288 16.2849 55.3046 15.6567 55.732 15.6889C57.2236 15.7856 58.7314 15.85 60.2312 15.8983C60.2553 15.8903 60.2876 15.8983 60.3118 15.8983C64.1901 16.0191 68.0926 16.0191 71.9548 16.1802C76.8249 16.3816 82.1223 15.7534 86.8552 17.1306C87.073 17.195 87.0407 17.5736 86.7988 17.5494C86.3392 17.493 85.8796 17.4528 85.42 17.4125C85.4039 17.4689 85.3717 17.5172 85.3071 17.5494C84.8637 17.783 84.6218 18.3065 84.1541 18.4756C84.1219 18.4837 84.0896 18.4917 84.0654 18.4917C82.8882 19.571 81.7514 20.6582 80.55 21.6972C80.0984 22.0838 79.6469 22.5107 79.147 22.8489C79.6711 23.1308 80.1952 23.4208 80.7112 23.7268C80.9612 23.8798 80.937 24.3148 80.6225 24.3792C80.5742 24.3872 80.5338 24.3953 80.4935 24.4033C77.7924 28.6639 73.6319 31.9902 69.1569 34.2534C64.4401 36.6373 58.8524 36.9917 53.6517 36.9998C47.4351 37.0159 41.1944 36.2669 35.0181 35.6467C32.1477 35.3568 29.2127 35.1957 26.3907 34.5594C23.4477 33.8909 20.674 32.6587 17.6987 32.0949C17.5455 32.0627 17.4649 31.966 17.4407 31.8613C12.3932 30.7257 7.30549 29.8317 2.46767 27.931C2.31448 27.8666 2.19353 27.7216 2.24997 27.5444C2.35479 27.2142 2.45155 26.884 2.55636 26.5538C2.44348 26.5457 2.33866 26.4893 2.29835 26.3766C2.07258 25.7886 2.09677 25.0879 2.10484 24.4678C2.10484 24.3872 2.14515 24.3228 2.19353 24.2906C1.98389 24.1859 1.78232 24.0651 1.62106 23.9121C1.22597 23.5255 1.2179 22.9536 1.29853 22.4382C0.524483 22.0596 -0.080246 21.5683 0.00038147 20.8676ZM12.2481 18.9427C12.5303 18.9347 12.8045 18.9186 13.0867 18.8944C12.9899 18.8461 12.9173 18.7494 12.9335 18.6045C13.0705 16.5024 14.1107 14.7225 15.941 14.2151C14.9089 13.9493 13.8688 13.7721 12.8125 13.6432C12.8609 14.8835 12.7158 16.0675 12.9415 17.2997C13.0141 17.6783 12.4981 17.8232 12.361 17.4608C11.9256 16.2447 12.2159 14.8594 12.3046 13.603C12.3046 13.5949 12.3046 13.5949 12.3126 13.5868C12.1352 13.5707 11.9578 13.5466 11.7805 13.5305C11.7885 13.5707 11.7966 13.6191 11.7724 13.6754C11.1193 15.2782 11.9417 17.2917 12.2481 18.9427ZM13.5059 18.8622C15.0218 18.7333 16.5538 18.5159 18.0212 18.54C21.2384 18.5884 24.4475 18.7656 27.6485 18.975C33.7764 19.3777 39.8962 19.9012 46.0241 20.2717C47.0481 20.3361 48.0721 20.4005 49.0881 20.473C43.6778 19.1763 38.2755 18.7011 32.7121 18.0729C29.7449 17.7427 26.7777 17.3883 23.8186 16.9615C21.061 16.5668 18.0938 16.2527 15.4411 15.3909C15.304 15.3507 15.2395 15.254 15.2072 15.1493C14.1832 15.8581 13.6995 17.5413 13.635 18.6206C13.635 18.7253 13.5785 18.8058 13.5059 18.8622ZM10.2243 12.7814C12.5868 12.9425 14.9492 13.2003 17.2149 13.9332C17.3036 13.9654 17.3601 14.0137 17.3923 14.0781C17.4246 14.0781 17.4488 14.0781 17.481 14.0781C19.4887 14.2634 21.4883 14.7788 23.5122 14.9882C23.8186 15.0205 24.1169 15.0446 24.4233 15.0768C24.0363 14.7305 23.6573 14.3761 23.2058 14.0942C22.9397 13.9251 23.1735 13.5144 23.4557 13.6674C24.1249 14.0459 24.6249 14.6339 25.1973 15.1252C25.2054 15.1332 25.2054 15.1332 25.2135 15.1413C25.6005 15.1735 25.9956 15.2137 26.3907 15.254C25.6005 14.7225 24.9232 14.0701 24.2217 13.4097C24.0524 13.2486 23.8831 13.1117 23.7137 12.9747C23.4799 13.0392 23.3267 12.8781 23.2945 12.6848C22.085 11.9197 20.7546 11.7505 19.2226 11.6781C16.1345 11.5572 12.8045 10.8485 10.2243 12.7814ZM27.2211 15.3426C28.4467 15.4473 29.6804 15.552 30.9059 15.6567C33.0104 15.8339 35.1229 16.0594 37.2435 16.2608C37.1951 16.2366 37.1548 16.2124 37.1306 16.1561C36.5662 15.1574 36.0905 14.054 35.7115 12.9747C34.4053 13.0311 33.0991 13.0794 31.7929 13.1358C31.7929 13.1439 31.7929 13.1439 31.7929 13.1439C31.6477 13.8446 31.7687 14.5131 31.7848 15.2057C31.7929 15.5279 31.2768 15.6084 31.2123 15.2862C31.0753 14.6016 31.0672 13.8204 31.293 13.1439C30.14 13.1761 28.995 13.1358 27.8339 13.0472C26.689 12.9586 25.5602 12.6848 24.4313 12.8298C25.2941 13.5868 26.0762 14.4567 27.0921 15.0446C27.2131 15.1252 27.2453 15.2379 27.2211 15.3426ZM37.4128 16.2769C40.001 16.5265 42.5973 16.744 45.1936 16.7923C43.7826 15.4956 42.5167 14.0218 41.1057 12.7251C41.0976 12.7251 41.0976 12.717 41.0976 12.709C41.0008 12.717 40.896 12.7251 40.8073 12.7331C39.3076 12.8137 37.816 12.8861 36.3162 12.9506C36.7355 13.9573 37.308 14.9077 37.6386 15.9467C37.6789 16.1158 37.5579 16.2447 37.4128 16.2769ZM25.9311 0.692416C23.238 0.644093 18.4244 -0.201576 16.457 2.15019C18.4889 2.0777 20.4724 1.55419 22.4882 1.28841C24.5039 1.01458 26.568 1.02263 28.5999 0.990414C29.7449 0.966252 30.914 0.958198 32.0831 0.998468C30.0755 0.587715 27.9629 0.732686 25.9311 0.692416ZM16.4973 5.11405C16.5135 6.60404 16.5296 8.09403 16.5296 9.58401C16.6505 9.56791 16.7634 9.5518 16.8763 9.54374C18.0857 9.40683 19.2952 9.23769 20.5046 9.06856C19.5693 8.02154 18.8356 6.80539 17.9245 5.73421C17.4165 5.13822 16.9005 4.54222 16.4731 3.88985C16.5135 4.32476 16.4893 4.78384 16.4973 5.11405ZM21.0126 8.83499C21.0287 8.73835 21.0852 8.64975 21.1981 8.62559C22.3753 8.35981 23.359 7.57052 24.4152 6.93425C24.4152 6.9262 24.4072 6.91815 24.3991 6.91009C24.0201 5.64562 24.004 4.08314 24.2862 2.7784C24.1491 2.7784 24.0121 2.77034 23.875 2.76229C21.5206 2.73813 19.1662 2.91532 16.8118 2.81061C16.6908 2.81867 16.578 2.81867 16.457 2.82672C17.731 4.97714 19.6097 6.76512 21.0126 8.83499ZM30.148 3.32607C29.6562 4.67914 29.5433 6.16107 29.0031 7.48998C31.1236 7.07117 33.2845 6.86177 35.397 7.09533C35.0665 6.35437 34.8085 5.58118 34.4295 4.85633C34.107 4.23617 33.6313 3.72877 33.4216 3.06029C32.7685 3.0764 32.1235 3.10056 31.4865 3.14083C31.043 3.16499 30.5996 3.16499 30.1561 3.16499C30.1722 3.20526 30.1722 3.26164 30.148 3.32607ZM29.5836 3.17304C29.5917 3.15694 29.5917 3.15694 29.5997 3.14083C28.0033 3.0764 26.4148 2.86699 24.8184 2.79451C24.6007 4.11536 24.8264 5.35567 24.899 6.66042C25.2135 6.49934 25.536 6.35437 25.8746 6.24967C27.2373 5.8228 27.7452 6.70069 28.3097 7.59468C28.9547 6.20134 29.0353 4.60665 29.5836 3.17304ZM27.6162 7.44165C26.8825 6.08053 25.0038 7.12755 24.1975 7.61079C23.5444 7.99738 22.98 8.49673 22.3269 8.83499C23.0929 8.7464 23.8508 8.66586 24.6249 8.61754C25.8746 8.537 27.1163 8.537 28.3661 8.56116C28.0274 8.239 27.8339 7.86046 27.6162 7.44165ZM28.0839 1.65889C25.9633 1.69916 23.8589 1.78776 21.7625 2.06965C22.2301 2.05354 22.6978 2.03743 23.1574 2.02938C25.7456 1.973 28.2613 2.49651 30.8253 2.48845C32.9056 2.4804 35.0181 2.36765 37.0983 2.33543C34.236 1.48171 31.0108 1.61057 28.0839 1.65889ZM33.9376 3.05223C34.2279 3.67239 34.7278 4.17979 35.0261 4.79995C35.3003 5.36373 35.5099 5.96778 35.7518 6.54766C36.3324 5.26708 37.3483 4.16368 38.1385 3.00391C36.7758 3.01196 35.3567 3.02002 33.9376 3.05223ZM38.4287 3.51936C37.7434 4.78384 36.8484 5.95972 36.1147 7.20003C36.921 7.3289 37.7192 7.53025 38.5013 7.82019C38.4126 6.38658 38.5416 4.95297 38.4287 3.51936ZM38.5416 8.31148C35.2842 7.31279 32.0751 7.50609 28.7209 8.09403C28.7128 8.11819 28.6967 8.14235 28.6886 8.15846C28.6967 8.17457 28.7128 8.19067 28.7209 8.19873C28.8176 8.32759 28.7854 8.48062 28.6967 8.56116C30.2367 8.60143 31.7768 8.66586 33.3249 8.66586C34.9375 8.66586 36.8323 8.23094 38.5416 8.31148C38.5416 8.31954 38.5416 8.31954 38.5416 8.31148ZM43.6939 9.21353C43.5004 7.99738 42.5328 6.80539 41.1702 7.01479C40.2107 7.16782 40.1139 9.0444 40.4364 9.70482C40.8396 10.5505 42.428 10.776 43.2424 10.9774C43.2585 10.9774 43.2666 10.9854 43.2746 10.9935C43.6616 10.9935 43.839 10.8485 43.839 10.325C43.831 9.9545 43.7503 9.58401 43.6939 9.21353ZM46.3305 10.921C45.7097 10.6874 45.0485 10.5183 44.4357 10.2605C44.4196 11.1948 44.0164 11.968 42.7908 11.525C42.7263 11.5009 42.686 11.4686 42.6538 11.4203C41.4201 11.1626 39.8559 10.7518 39.6704 9.35045C39.6543 9.22158 39.6463 9.09272 39.6463 8.96386C38.0417 8.85916 36.4452 9.27796 34.8407 9.34239C32.1477 9.45515 29.4546 9.22158 26.7616 9.24575C26.7212 9.24575 26.689 9.24575 26.6487 9.24575C27.8823 9.72093 29.0998 10.333 30.2367 10.921C30.5673 11.0901 30.277 11.5733 29.9464 11.4203C28.4306 10.7196 26.6567 10.2122 25.2699 9.28602C23.1977 9.37461 21.1336 9.61623 19.0936 9.96255C18.2309 10.1075 17.2472 10.1236 16.328 10.2847C16.2877 10.3008 16.2474 10.3008 16.2071 10.3008C15.6426 10.4055 15.1105 10.5747 14.6428 10.8727C15.7475 10.8565 16.9005 10.9451 18.0616 11.0096C19.6177 11.0901 21.4158 10.9935 22.859 11.7183C23.1574 11.8713 23.4396 12.0566 23.7057 12.2499C25.7859 11.6781 28.229 12.4271 30.3657 12.4593C33.5829 12.5076 36.8323 12.2338 40.0413 12.0969C42.6699 11.9841 45.4516 11.4123 48.0641 11.7989C47.5158 11.4445 46.9675 11.1626 46.3305 10.921ZM49.7331 13.3452C49.0397 12.717 48.1286 12.419 47.1368 12.3063C48.4995 13.16 49.6122 14.5694 50.7732 15.6003C51.0071 15.8097 50.7007 16.2124 50.4346 16.0353C48.8381 14.956 47.7012 13.3774 46.0241 12.3707C45.9677 12.3385 45.9435 12.2902 45.9193 12.2418C44.5083 12.2499 43.0166 12.4996 41.7346 12.6445C43.2504 13.7077 44.6534 15.109 45.7903 16.5346C45.8548 16.6232 45.8709 16.7118 45.8548 16.7923C48.3463 16.8084 50.8377 16.6554 53.305 16.2124V16.2044C51.894 15.5762 50.8861 14.3842 49.7331 13.3452ZM53.8372 16.6151C51.6118 17.6058 48.83 17.5494 46.4514 17.5252C43.2424 17.5011 40.0494 17.1064 36.8565 16.8245C32.6476 16.4621 28.4387 16.148 24.2378 15.7534C22.5607 15.5923 20.8675 15.4634 19.2146 15.1332C18.1502 14.9158 17.1424 14.6419 16.0539 14.811C18.5937 15.6164 21.3755 15.9144 23.9879 16.3091C27.3502 16.8084 30.7286 17.1789 34.107 17.5494C39.7269 18.1696 45.9596 18.1212 51.1925 20.5133C51.2489 20.5374 51.2812 20.5777 51.2973 20.618C52.4665 20.6985 53.6437 20.7871 54.8128 20.8757C55.5869 20.0139 56.2238 19.0313 57.143 18.3226C57.4575 18.081 57.78 17.8555 58.1106 17.638C56.6754 17.3883 55.2401 17.0742 53.8372 16.6151ZM59.062 17.7991C58.7959 18.0085 58.5137 18.2018 58.2315 18.4031C57.2156 19.1119 56.5867 20.0945 55.7723 20.9562C58.7556 21.1818 61.747 21.3992 64.7384 21.5683C65.3754 20.7066 66.0607 19.877 66.7622 19.0797C64.2223 18.4756 61.6261 18.2018 59.062 17.7991ZM63.5934 16.5185C62.5211 16.4782 61.4406 16.5024 60.3521 16.5104C60.1505 16.7843 59.9328 17.0339 59.699 17.2595C62.2388 17.6461 64.8029 17.936 67.3186 18.4998C67.9313 17.9038 68.6086 17.3722 69.1972 16.7521C67.3266 16.6635 65.456 16.5829 63.5934 16.5185ZM71.9548 16.8648C71.2372 16.8407 70.5196 16.8004 69.802 16.7762C69.4149 17.5494 68.7376 18.1051 68.0926 18.685C68.1168 18.6931 68.1329 18.6931 68.1571 18.7011C69.5923 19.0636 71.0195 19.4904 72.4386 19.9737C73.0675 18.8864 73.8899 17.7427 74.8736 16.9534C73.898 16.9292 72.9304 16.9051 71.9548 16.8648ZM75.567 16.9695C75.559 17.0017 75.5428 17.0339 75.5106 17.0662C74.93 17.6058 74.4382 18.2018 73.9786 18.8461C73.6641 19.2891 73.39 19.7723 73.0514 20.1992C73.9867 20.5374 74.9139 20.8838 75.825 21.2784C75.8734 21.2059 75.9299 21.1415 75.9863 21.069C76.4217 20.5455 76.9377 20.1267 77.4457 19.6757C78.3488 18.8783 79.0502 17.8635 79.9694 17.0903C78.502 17.0339 77.0345 17.0017 75.567 16.9695ZM80.6064 20.7952C81.8159 19.8689 82.6947 18.532 84.0009 17.7346C84.0574 17.7024 84.1219 17.6944 84.1783 17.7024C84.2509 17.638 84.3235 17.5736 84.396 17.5091C84.4686 17.4447 84.5412 17.3883 84.6137 17.34C83.372 17.2434 82.1223 17.1709 80.8806 17.1225C79.7679 18.0004 78.9374 19.1602 77.9134 20.1347C77.4135 20.6099 76.8974 21.0207 76.462 21.5522C77.1635 21.8663 77.865 22.1966 78.5423 22.5429C79.2841 22.0596 79.9211 21.3187 80.6064 20.7952ZM78.381 23.2838C78.0746 23.4208 77.744 23.5094 77.3973 23.5416C77.1071 23.5657 77.0426 23.0744 77.3248 23.0342C77.4538 23.0181 77.5828 22.9858 77.7037 22.9456C77.1474 22.6717 76.583 22.414 76.0105 22.1643C75.7928 22.5026 75.5993 22.8006 75.1961 23.0342C74.9059 23.1952 74.5511 22.7764 74.8252 22.559C75.0671 22.3737 75.2445 22.1402 75.4058 21.9066C72.8417 20.8193 70.1809 19.9656 67.4959 19.2649C66.7945 19.9898 66.2059 20.8274 65.5769 21.6167C67.504 21.7214 69.4391 21.8019 71.3742 21.8502C71.8177 21.8583 71.8177 22.5429 71.3742 22.5348C69.2456 22.4865 67.117 22.414 64.9964 22.3174C64.9722 22.3496 64.94 22.3818 64.9158 22.414C64.7464 22.5993 64.4642 22.4865 64.3836 22.2932C60.473 22.108 56.5705 21.8422 52.668 21.4636C46.5482 20.8596 40.3881 20.6663 34.2521 20.175C28.1161 19.6757 21.9721 19.2568 15.8039 19.2407C14.5783 19.2407 13.385 19.3938 12.1917 19.4904C12.0869 19.5951 11.9175 19.6193 11.7966 19.5226C10.9419 19.579 10.0872 19.5871 9.21642 19.4663C8.14404 19.3132 6.48306 18.8944 5.53162 19.6515C5.3623 19.7884 5.24941 19.9092 5.17684 20.03C5.15266 20.1428 5.12041 20.2636 5.08816 20.3764C5.15266 20.916 6.19279 21.222 6.71688 21.367C10.7806 22.4784 15.5056 22.0194 19.65 22.0355C25.923 22.0677 32.196 21.9469 38.4691 22.116C41.533 22.1966 44.5889 22.1482 47.6528 22.2207C50.7894 22.2932 53.8533 22.9214 56.9576 23.2758C59.9248 23.6221 62.9806 23.4449 65.964 23.3805C68.9553 23.3161 71.8016 23.5094 74.7768 23.8396C76.3411 24.0087 77.9053 24.0812 79.4615 23.8718C79.1147 23.6624 78.7439 23.4691 78.381 23.2838ZM3.27398 27.5605C6.09603 28.6639 9.08741 29.3404 12.0465 29.9767C18.2067 31.2976 24.3346 32.9567 30.6237 33.5929C42.1539 34.7447 54.1194 33.2386 65.1899 29.9606C65.585 29.8398 65.7382 30.4358 65.3592 30.5727C55.9174 34.0601 44.8872 34.946 34.8971 34.6238C31.8654 34.5272 28.9144 34.1648 25.9794 33.6574C28.6806 34.3581 31.5026 34.5272 34.2682 34.8091C40.0494 35.4051 45.8628 36.0252 51.6763 36.2185C56.8689 36.3877 62.384 36.1702 67.2863 34.3097C72.1483 32.4654 76.6313 28.7605 79.6953 24.5483C77.6231 24.8302 75.5428 24.6208 73.4545 24.3792C70.4309 24.0248 67.5282 24.049 64.4884 24.1053C61.489 24.1537 58.5218 24.1778 55.5385 23.7912C52.3858 23.3805 49.3219 22.9295 46.137 22.8811C34.1312 22.704 22.0769 23.0664 10.0792 22.5268C8.97453 22.4784 5.84608 22.4221 4.73338 21.3267C4.1851 22.9617 3.35461 25.4906 3.18528 26.7712C8.81327 26.892 14.4816 27.1095 20.0612 27.8263C25.9472 28.5834 32.059 28.3659 37.9772 28.1162C44.0003 27.8666 50.0234 27.5444 56.0464 27.335C58.9894 27.2303 61.9083 27.343 64.8432 27.4719C67.5282 27.5927 70.1648 27.0612 72.8337 27.1175C73.0836 27.1256 73.0836 27.5041 72.8337 27.5041C70.1487 27.488 67.5443 28.1404 64.8432 28.076C61.9002 28.0035 58.9894 27.8666 56.0464 27.9551C50.0234 28.1323 44.0003 28.5109 37.9772 28.7767C32.059 29.0424 25.9472 29.2438 20.0612 28.5028C14.4735 27.8021 8.81327 27.5444 3.18528 27.4316C3.20141 27.4961 3.23366 27.5444 3.27398 27.5605ZM2.55636 24.4517C2.57249 24.9349 2.66925 25.394 2.74988 25.8611C2.87888 25.4343 3.01595 25.0074 3.14497 24.5725C2.95145 24.5403 2.74988 24.4839 2.5483 24.4195C2.5483 24.4356 2.55636 24.4436 2.55636 24.4517ZM2.14515 23.5174C2.4838 23.7751 2.92726 23.8557 3.31429 24.0087C3.39492 23.7349 3.47555 23.461 3.56424 23.1872C3.15302 23.0583 2.49992 22.8892 1.86295 22.6556C1.83876 22.9778 1.87101 23.308 2.14515 23.5174ZM0.855072 21.3509C1.6775 21.9871 2.79019 22.2207 3.74969 22.5912C3.91901 22.0274 4.09641 21.4717 4.27379 20.916C3.65294 20.5213 2.95145 20.175 2.20965 20.1186C1.70975 20.0864 0.0568314 20.7388 0.855072 21.3509Z" fill="#6976EC"/>
<path d="M67.4078 33.5284C66.666 33.7217 65.9564 34.0439 65.2469 34.3177C64.9889 34.4144 64.8034 33.9875 65.0614 33.8667C65.7871 33.5365 66.5289 33.319 67.3029 33.1257C67.561 33.0613 67.6658 33.4559 67.4078 33.5284Z" fill="#6976EC"/>
<path d="M62.319 35.1879C61.7224 35.2765 61.1418 35.204 60.5452 35.1879C60.2065 35.1798 60.2065 34.6724 60.5452 34.6643C61.0854 34.6563 61.6337 34.7368 62.1739 34.6643C62.5206 34.6241 62.6657 35.1395 62.319 35.1879Z" fill="#6976EC"/>
<path d="M51.4828 35.4616C50.7974 35.5421 50.1121 35.4616 49.4348 35.3569C49.1606 35.3086 49.2252 34.8414 49.4993 34.8737C50.1605 34.9542 50.8136 35.0428 51.4828 34.9623C51.8053 34.922 51.7973 35.4294 51.4828 35.4616Z" fill="#6976EC"/>
<path d="M57.1756 30.6289C58.3931 30.3954 59.538 29.888 60.7636 29.6866C61.07 29.6383 61.2071 30.1054 60.8926 30.1618C59.6751 30.3873 58.5301 30.9189 57.3046 31.1122C56.9982 31.1605 56.853 30.6934 57.1756 30.6289Z" fill="#6976EC"/>
<path d="M35.8966 32.9732C38.3155 32.8846 40.7505 32.949 43.1694 32.9893C43.4839 32.9973 43.4839 33.4806 43.1694 33.4806C40.7425 33.5128 38.3155 33.5853 35.8966 33.4886C35.5579 33.4806 35.5579 32.9893 35.8966 32.9732Z" fill="#6976EC"/>
<path d="M21.0605 30.8954C22.3506 31.0645 23.6165 31.5075 24.9307 31.3706C25.2694 31.3383 25.2533 31.8457 24.9307 31.8941C23.6003 32.0713 22.2861 31.6766 20.9879 31.4189C20.7057 31.3544 20.7702 30.8551 21.0605 30.8954Z" fill="#6976EC"/>
<path d="M15.7227 30.4515C15.6662 30.4032 15.5533 30.4193 15.4888 30.4193C15.2308 30.4193 15.2308 30.0166 15.4888 30.0166C15.6823 30.0166 15.8517 30.0488 16.0049 30.1696C16.2064 30.3307 15.9242 30.6045 15.7227 30.4515Z" fill="#6976EC"/>
<path d="M10.201 26.5461C8.90286 26.5703 7.62083 26.4495 6.33074 26.4092C6.00016 26.4011 6.00016 25.9018 6.33074 25.9018C7.6289 25.8857 8.91093 26.087 10.201 26.1434C10.459 26.1515 10.459 26.5461 10.201 26.5461Z" fill="#6976EC"/>
<path d="M14.1355 26.4817C13.813 26.5944 13.4662 26.6025 13.1276 26.6025C12.797 26.6025 12.797 26.087 13.1276 26.087C13.4179 26.087 13.7243 26.0951 14.0065 26.0226C14.3129 25.942 14.4257 26.377 14.1355 26.4817Z" fill="#6976EC"/>
<path d="M36.4205 25.8372C36.6785 25.3217 36.4608 24.7499 36.1786 24.2828C36.0416 24.0492 36.3883 23.8559 36.5415 24.0734C36.9688 24.6774 37.3478 25.4023 36.8721 26.103C36.6866 26.3768 36.2673 26.1352 36.4205 25.8372Z" fill="#6976EC"/>
<path d="M32.5832 26.642C32.4623 26.4246 32.3172 26.2152 32.1398 26.0299C31.9301 25.8125 32.2607 25.4903 32.4704 25.6997C32.6719 25.9091 32.8493 26.1507 32.9703 26.4085C33.0912 26.6742 32.7203 26.8998 32.5832 26.642Z" fill="#6976EC"/>
<path d="M27.5356 25.1206C27.5194 25.4266 27.076 25.4266 27.0598 25.1206C27.0357 24.7098 27.0921 24.3393 27.2775 23.9608C27.4146 23.687 27.8178 23.9286 27.6888 24.2024C27.5517 24.4924 27.5517 24.7984 27.5356 25.1206Z" fill="#6976EC"/>
<path d="M24.2055 26.4571C23.6975 26.7229 23.1573 26.9323 22.5687 26.892C22.2139 26.8679 22.23 26.3927 22.5687 26.3524C23.0605 26.296 23.5443 26.143 24.02 26.0142C24.278 25.9497 24.4474 26.3283 24.2055 26.4571Z" fill="#6976EC"/>
<path d="M13.1273 21.3666C12.1759 21.3988 11.2647 21.3505 10.3133 21.2216C10.015 21.1814 10.0875 20.682 10.3859 20.6981C11.297 20.7545 12.2081 20.8914 13.1273 20.9398C13.4014 20.9478 13.4095 21.3586 13.1273 21.3666Z" fill="#6976EC"/>
<path d="M6.79848 20.6102H6.51627C6.25018 20.6102 6.25018 20.1914 6.51627 20.1914H6.79848C7.06457 20.1914 7.06457 20.6102 6.79848 20.6102Z" fill="#6976EC"/>
<path d="M60.836 20.7231C60.4006 20.7312 59.9652 20.7312 59.5459 20.6265C59.2476 20.554 59.3766 20.103 59.6749 20.1674C60.0539 20.256 60.449 20.256 60.836 20.2641C61.1263 20.2721 61.1263 20.7151 60.836 20.7231Z" fill="#6976EC"/>
<path d="M53.8452 20.2316C53.6033 20.2316 53.3936 20.2074 53.1759 20.1027C52.926 19.99 53.1437 19.6356 53.3856 19.7403C53.5307 19.8047 53.692 19.8047 53.8452 19.8047C54.1193 19.8047 54.1193 20.2316 53.8452 20.2316Z" fill="#6976EC"/>
<path d="M15.5871 17.6945C16.466 17.6542 17.3207 17.7186 18.1754 17.4529C18.4092 17.3804 18.5705 17.7428 18.3447 17.8556C17.482 18.2905 16.5305 18.2583 15.5871 18.2019C15.2566 18.1777 15.2566 17.7025 15.5871 17.6945Z" fill="#6976EC"/>
<path d="M20.3668 12.4353C20.7861 12.4998 21.2054 12.6206 21.6247 12.6447C21.8907 12.6609 21.8907 13.0474 21.6247 13.0555C21.157 13.0716 20.6893 12.9991 20.2378 12.8864C19.9476 12.8139 20.0766 12.3951 20.3668 12.4353Z" fill="#6976EC"/>
<path d="M37.5009 12.0566C36.9043 11.9922 36.3076 11.9036 35.7029 11.8714C35.3804 11.8552 35.3804 11.3801 35.7029 11.372C36.3318 11.3559 36.9526 11.4445 37.5654 11.5734C37.8315 11.6378 37.7751 12.0888 37.5009 12.0566Z" fill="#6976EC"/>
<path d="M24.4631 11.6542C23.6326 11.767 22.8505 11.5093 22.0361 11.3885C21.762 11.3482 21.8265 10.8649 22.1006 10.9052C22.8827 11.0019 23.6729 11.2515 24.4631 11.2113C24.7534 11.1952 24.7373 11.622 24.4631 11.6542Z" fill="#6976EC"/>
<path d="M17.449 12.2094C17.9247 12.2819 18.4085 12.3302 18.8922 12.3544C19.1583 12.3705 19.1583 12.7571 18.8922 12.7732C18.352 12.8054 17.844 12.8457 17.3119 12.7329C16.9571 12.6524 17.1103 12.1611 17.449 12.2094Z" fill="#6976EC"/>
<path d="M71.0913 26.6427C70.6075 26.7555 70.1238 26.8924 69.6158 26.8843C69.2852 26.8763 69.2933 26.4011 69.6158 26.3769C70.0754 26.3528 70.5269 26.3125 70.9784 26.24C71.2445 26.1917 71.3574 26.5783 71.0913 26.6427Z" fill="#6976EC"/>
<path d="M66.6893 26.9485C66.0684 26.9646 65.4476 26.9726 64.8348 26.8599C64.5768 26.8116 64.6332 26.3605 64.8993 26.3928C65.496 26.4652 66.0926 26.4814 66.6974 26.4975C66.9876 26.4975 66.9876 26.9404 66.6893 26.9485Z" fill="#6976EC"/>
<path d="M75.422 27.3431C76.0106 26.8277 76.5911 26.3041 77.1475 25.7484C77.3329 25.5712 77.5022 25.3779 77.6716 25.1927C77.849 24.9994 77.8651 24.79 77.9215 24.9833C77.8731 24.8222 78.0828 24.6289 78.2279 24.7497C79.0907 25.4182 73.5836 29.7915 72.7773 30.2587C72.4709 30.4439 72.221 29.9929 72.5032 29.7915C73.5272 29.0506 74.4786 28.1807 75.422 27.3431Z" fill="#6976EC"/>
<path d="M70.0193 31.1848C70.3661 31.0881 70.6886 30.9431 70.9466 30.6935C71.1804 30.476 71.5352 30.8223 71.3014 31.0478C70.9869 31.362 70.5838 31.5794 70.1564 31.6922C69.8339 31.7727 69.6968 31.2734 70.0193 31.1848Z" fill="#6976EC"/>
<path d="M51.8612 26.675C49.9664 26.6911 48.0797 26.8039 46.1929 26.5945C45.8865 26.5623 45.8704 26.0871 46.1929 26.1112C48.0797 26.2321 49.9664 26.2079 51.8612 26.2159C52.1595 26.2079 52.1595 26.667 51.8612 26.675Z" fill="#6976EC"/>
<path d="M30.1079 21.3989C29.4225 21.5036 28.7452 21.5439 28.0599 21.5197C27.7051 21.5116 27.7051 20.9801 28.0599 20.964C28.7211 20.9398 29.3822 20.964 30.0434 20.8915C30.3256 20.8673 30.3901 21.3586 30.1079 21.3989Z" fill="#6976EC"/>
</g>
<defs>
<clipPath id="clip0">
<rect width="87" height="37" fill="white" transform="matrix(-1 0 0 1 87 0)"/>
</clipPath>
</defs>
</svg>
