<svg width="134" height="137" viewBox="0 0 134 137" fill="none" xmlns="http://www.w3.org/2000/svg">
<g clip-path="url(#clip0)">
<path d="M130.582 55.0168C128.051 51.8919 125.027 49.4315 121.881 46.9218C120.874 46.1098 119.866 45.4947 118.76 44.8303C116.622 43.5509 115.295 41.5333 113.402 39.9586C113.328 39.9094 113.255 39.8602 113.181 39.8109C113.451 38.5561 113.009 37.1782 111.78 35.2344C109.445 31.5437 105.857 26.6719 101.678 24.9988C100.572 24.5559 99.5154 24.4329 98.4831 24.5559C98.4339 24.5313 98.4094 24.4821 98.3602 24.4329C94.8947 22.3907 92.4369 17.6173 90.0774 14.4433C88.2094 11.909 86.1694 9.52233 83.9574 7.30789C79.73 3.05125 74.4948 0.59076 68.5223 0.0740574C54.2424 -1.2054 41.5847 13.5329 34.9732 24.4329C34.8994 24.5313 34.8749 24.6297 34.8749 24.7282C34.6537 24.7035 34.457 24.6789 34.2358 24.6789C26.9116 24.5805 20.3492 31.7405 20.8162 38.8514C8.92036 40.6721 -0.173552 51.4737 -0.00150517 63.3824C0.0968074 69.4844 2.60378 76.177 5.55315 81.467C6.83122 83.7307 8.67458 85.6744 10.4688 87.5198C13.1724 90.251 15.4581 93.4496 18.3338 96.0085C16.1463 102.258 24.0605 113.232 30.672 113.65C31.4831 113.699 32.2696 113.601 33.0069 113.404C32.8595 126.273 47.4835 135.081 58.7894 136.803C72.8235 138.944 82.5073 124.821 92.5598 117.636C92.6335 117.587 92.6581 117.538 92.7072 117.489C93.3708 117.71 94.1082 117.808 94.8701 117.71C98.1144 117.366 101.162 113.749 103.227 111.583C105.512 109.221 109.642 106.047 109.642 102.43C109.642 102.283 109.617 102.16 109.592 102.012C109.789 101.914 109.986 101.741 110.084 101.471C110.797 99.5516 113.722 97.4602 115.147 96.0331C117.433 93.7448 119.817 91.6042 122.201 89.439C127.534 84.6164 131.049 78.9327 133.065 72.0187C134.711 66.3842 134.343 59.7163 130.582 55.0168ZM100.253 26.4013C102.489 26.795 104.529 29.3293 106.053 30.904C109.15 34.1272 112.861 38.1132 109.568 42.3945C109.396 42.3945 109.224 42.4683 109.076 42.6159C105.611 45.7899 102.17 48.964 98.606 52.015C96.7872 53.5651 91.2817 60.5775 89.2417 56.9605C86.3661 51.8181 82.7777 47.9306 77.4688 45.5193C82.1386 39.7863 87.6687 34.6439 93.0513 29.6245C94.8947 27.853 97.4508 25.9092 100.253 26.4013ZM90.1511 71.7973C89.1434 74.6269 88.4306 77.6533 87.7916 80.5812C87.5704 80.7535 87.4229 80.9995 87.3738 81.2702C85.3829 83.1401 83.982 85.3546 82.1632 87.4214C80.1724 89.685 76.7069 91.0383 74.1753 92.6622C68.3749 94.9751 60.0429 95.9593 54.6357 92.3178C54.5128 91.8995 54.2916 91.4566 53.9475 91.0383C51.8829 88.381 48.909 86.5356 46.4512 84.2966C44.19 80.5566 42.9119 76.9397 42.1008 72.6339C41.1423 67.516 42.6416 63.0626 43.9196 58.2646C44.4358 57.7479 44.9028 57.2066 45.3452 56.6899C49.081 52.261 51.9075 47.4139 57.3393 45.1256C65.4501 45.4455 72.8727 45.7653 80.1478 50.0712C82.6794 51.5721 84.7193 53.4913 86.2923 55.7057C86.5135 56.0994 86.7593 56.5177 86.9559 56.9359C87.3984 57.8463 87.8899 58.9289 88.5781 59.7655C90.1511 63.4316 90.6427 67.6145 90.1511 71.7973ZM71.5209 2.19008C77.9358 3.27269 82.8022 8.3659 86.7347 13.1885C88.5289 15.4029 90.1019 18.134 91.8961 20.6437C83.5887 14.6401 71.6683 14.7632 61.7142 15.7966C56.3562 16.3625 43.7722 17.1991 38.537 22.0954C45.9842 11.1709 57.6588 -0.171991 71.5209 2.19008ZM61.7388 17.6912C72.7989 16.4117 87.2509 16.3625 94.6981 26.0322C93.2479 26.9672 91.8961 28.1728 90.6672 29.3539C85.2355 34.4471 79.6808 39.6633 75.0847 45.5439C70.1936 43.5509 64.7373 42.7143 59.281 43.354C59.1089 43.0588 58.7894 42.8619 58.3716 42.9604C58.0275 43.0588 57.6834 43.1818 57.3393 43.2802C53.0627 36.6123 46.4757 27.8038 38.365 25.3679C40.9948 19.3397 56.4545 18.3063 61.7388 17.6912ZM34.2604 26.6719C42.617 25.7369 51.1948 37.6211 55.3485 44.043C51.6863 45.7899 48.8844 48.7671 46.4266 52.0642C43.084 56.5423 40.0609 60.0854 35.7843 54.0572C34.0884 51.6459 32.4662 49.4068 30.2788 47.4139C27.0099 44.4367 22.8316 42.296 22.6595 37.3259C22.4629 31.4699 29.2711 27.2378 34.2604 26.6719ZM10.8129 84.9117C6.88037 80.9257 4.91412 76.1277 3.29197 70.8623C-1.25499 56.1978 7.2982 44.7073 21.1111 40.5737C21.1357 40.6475 21.1603 40.7213 21.1603 40.7951C13.1478 46.6511 11.8452 58.0678 11.7223 67.27C11.624 75.0943 12.1893 84.0751 16.2446 91.0137C14.475 88.9715 12.7054 86.8309 10.8129 84.9117ZM13.7131 68.5987C13.4919 58.8797 15.114 49.5791 21.8239 42.296C23.5935 45.3224 27.5014 47.5615 29.8609 49.7021C33.179 52.7039 34.6537 57.7725 38.8811 59.6671C39.8151 60.0854 40.6507 60.0854 41.4372 59.8393C39.8888 65.154 39.2006 70.9361 40.3804 76.2508C40.3804 76.3 40.3558 76.3246 40.3558 76.3738C40.3558 76.4476 40.3558 76.5214 40.3558 76.6199C35.6614 78.7851 31.9746 82.3036 28.1159 85.7483C25.7072 87.9135 22.3154 90.1279 20.1034 92.8837C14.4996 86.4126 13.9097 76.8167 13.7131 68.5987ZM26.7149 109.492C23.6181 107.007 18.9728 101.938 19.6856 97.6078C20.3 93.7694 25.3877 90.5216 28.1405 88.1103C32.073 84.6656 35.8088 80.8027 40.577 78.539C41.5355 82.8449 45.763 86.5848 48.7861 89.316C49.4006 89.8819 50.0396 90.4478 50.7278 90.9399C50.8752 91.0383 50.9981 91.1613 51.121 91.2598C51.3914 92.0717 51.7846 92.7853 52.3254 93.425C52.3254 95.5164 49.2531 97.4602 47.2377 98.9119C44.4849 100.88 42.2729 103.316 39.938 105.727C36.2021 109.566 32.0238 113.749 26.7149 109.492ZM64.8356 134.466C53.4314 137.369 36.6445 126.715 35.1207 114.782C38.4879 121.401 48.7369 124.28 55.1518 125.51C65.4747 127.503 77.395 124.107 86.9314 119.26C80.0986 125.165 73.6592 132.227 64.8356 134.466ZM58.8386 123.714C51.1456 123.32 39.2744 119.728 35.8334 112.075C37.431 111.017 38.8811 109.566 40.2329 108.286C44.19 104.497 48.1962 101.003 52.3008 97.3864C53.1119 96.6728 53.8 95.9101 54.2424 95.0735C59.0352 97.9277 67.5884 97.2633 72.7252 95.5164C72.8727 96.0577 73.2168 96.6236 73.7083 97.1895C78.2307 102.184 82.9251 106.17 86.7593 111.829L86.7839 111.854C81.4996 116.652 75.1093 118.473 68.1291 119.063C67.0231 119.162 67.0477 120.663 68.1291 120.761C74.544 121.425 83.515 118.424 87.9145 113.429C88.4306 114.118 88.9714 114.782 89.5612 115.397C80.5902 120.515 69.2597 124.23 58.8386 123.714ZM107.036 104.374C106.397 105.703 104.677 107.105 103.644 108.237C101.064 111.116 95.9761 118.251 91.3063 114.364C88.5781 112.1 86.8331 108.336 84.7931 105.457C82.9006 102.75 80.0986 100.708 77.6654 98.5182C72.9956 94.2616 79.0909 92.2439 82.0895 90.1771C84.6702 88.4056 86.2432 85.453 88.234 83.0909C88.4306 83.1155 88.6518 83.0909 88.8239 82.9925C91.4783 85.0347 93.6412 87.9135 96.2219 90.0541C98.8272 92.2193 101.015 94.7536 103.472 97.0665C105.267 98.7642 108.56 101.249 107.036 104.374ZM108.462 99.0595C106.643 96.4022 103.227 94.0893 101.506 92.1701C99.5645 90.0049 97.1313 88.2087 94.9193 86.3388C92.9284 84.6656 91.6258 82.5496 89.5612 81.0241C90.5198 77.5302 91.9207 74.0855 92.4123 70.5424C92.486 70.075 92.2648 69.7551 91.9699 69.6075C92.0928 66.5564 91.6504 63.7023 90.7164 61.045C90.913 61.0696 91.0851 61.1188 91.2817 61.1188C94.1573 61.1188 95.7058 57.6495 97.2788 55.8041C101.015 51.3998 106.201 48.275 110.01 43.8461C110.035 43.8215 110.059 43.8215 110.084 43.7969C110.403 43.5263 110.698 43.2802 110.969 43.0342C111.116 43.3048 111.387 43.5017 111.804 43.5017C113.304 43.5017 115.098 53.196 115.393 54.6477C116.45 60.0608 117.605 65.3262 117.629 70.8623C117.629 79.6709 114.95 92.4162 108.462 99.0595ZM128.272 78.7113C125.322 84.7395 119.743 88.4794 115.147 93.1051C114.852 93.4004 114.533 93.7202 114.189 94.0401C115 92.2193 115.663 90.3494 116.376 88.7008C118.932 82.7465 119.694 75.365 119.669 68.9185C119.669 66.1136 118.416 51.9658 115.368 45.1502C115.639 45.3963 115.934 45.6423 116.253 45.8637C119.473 48.1766 122.717 50.2434 125.716 52.8761C133.753 59.9869 132.622 69.7797 128.272 78.7113Z" fill="#333184"/>
<path d="M92.4841 62.644C94.2783 67.0483 93.6392 71.4033 93.1231 75.9552C93.0002 77.0132 94.4749 77.0132 94.819 76.1767C96.5395 71.92 95.9004 66.0641 93.6884 62.1273C93.3197 61.5368 92.1891 61.9551 92.4841 62.644Z" fill="#333184"/>
<path d="M92.904 78.6375C92.437 79.5479 91.8717 80.4583 91.5276 81.4179C91.2327 82.2299 92.4616 82.6727 92.8794 81.9838C93.3956 81.1718 93.7642 80.2369 94.1821 79.3757C94.5753 78.5391 93.3464 77.801 92.904 78.6375Z" fill="#333184"/>
<path d="M70.0713 97.9513C65.4506 97.8036 60.5842 99.9689 56.1355 97.902C55.2261 97.4838 54.4396 98.7632 55.349 99.2553C59.896 101.79 65.4752 100.879 70.3171 99.5998C71.2265 99.3537 71.0053 98.0005 70.0713 97.9513Z" fill="#333184"/>
<path d="M36.5218 74.651C36.4481 75.5614 37.7262 75.6106 37.9965 74.8478C39.2254 71.6246 38.0457 67.8108 38.3652 64.4154C38.4635 63.4066 36.8168 63.2097 36.6201 64.1693C35.932 67.614 36.7676 71.2063 36.5218 74.651Z" fill="#333184"/>
<path d="M58.6178 40.4992C62.9435 41.1635 67.2693 40.9175 71.595 41.8032C72.7011 42.0247 73.1435 40.4746 72.062 40.1301C67.8592 38.7522 63.1402 38.8999 58.7898 39.2197C58.0771 39.2443 57.8313 40.3762 58.6178 40.4992Z" fill="#333184"/>
<path d="M72.5048 39.2196C73.5125 39.4903 74.5203 39.8594 75.5034 40.2038C76.339 40.4991 76.9289 39.1212 76.1178 38.7521C75.0364 38.2847 74.0041 38.0878 72.8489 37.9156C72.0133 37.7679 71.6446 38.9982 72.5048 39.2196Z" fill="#333184"/>
<path d="M83.1218 43.8955C82.2861 43.3296 81.3276 44.6091 82.0403 45.298C83.2938 46.479 84.7193 47.414 86.1449 48.3736C87.6687 49.407 88.9959 50.6865 90.4706 51.7445C91.208 52.2612 92.1419 51.2524 91.6995 50.5142C89.8562 47.5862 85.8991 45.7901 83.1218 43.8955Z" fill="#333184"/>
<path d="M86.857 38.531C88.0122 38.9001 88.9216 39.6136 89.8801 40.3518C90.6175 40.9177 91.576 39.6628 90.8633 39.0723C89.7327 38.1127 88.5529 37.35 87.0291 37.2516C86.2671 37.2023 86.1688 38.3342 86.857 38.531Z" fill="#333184"/>
<path d="M46.327 48.4954C48.1458 47.0437 49.7925 45.4444 51.7342 44.1403C52.447 43.6728 51.7833 42.4918 51.0706 42.9839C49.0798 44.3125 46.7448 45.4444 45.1718 47.3389C44.4836 48.1509 45.4913 49.1597 46.327 48.4954Z" fill="#333184"/>
<path d="M38.8062 37.5957C39.519 37.1036 40.0597 36.4639 40.625 35.8242C41.0428 35.3567 41.9768 34.1265 42.7141 34.2495C43.6235 34.3971 44.0168 33.0684 43.1074 32.847C40.6742 32.3057 39.1749 34.6185 37.7248 36.1687C37.0366 36.9068 37.946 38.2109 38.8062 37.5957Z" fill="#333184"/>
<path d="M29.1989 32.9214C30.6982 31.9372 31.8042 30.3871 33.5246 29.7966C34.3111 29.5259 33.9916 28.4433 33.1805 28.5909C31.1406 28.96 29.7642 30.4363 28.2403 31.6911C27.5522 32.257 28.4615 33.4135 29.1989 32.9214Z" fill="#333184"/>
<path d="M48.982 92.0956C49.9652 92.3171 50.6779 90.89 49.6948 90.3979C46.4259 88.774 43.3782 87.027 40.7729 84.4435C40.1585 83.8284 39.2983 84.7388 39.839 85.3785C42.2968 88.1342 45.2216 91.2098 48.982 92.0956Z" fill="#333184"/>
<path d="M40.8723 92.2686C39.2747 89.8328 36.4974 88.4303 35.9813 85.3547C35.8829 84.7395 35.0227 84.7395 34.7278 85.1824C32.9827 87.9382 37.8492 91.7027 39.4713 93.3513C40.1595 94.0648 41.4376 93.1298 40.8723 92.2686Z" fill="#333184"/>
<path d="M29.4428 104.275C29.3199 103.487 28.1893 103.758 28.1402 104.447C27.9927 106.612 29.6149 109.294 31.6549 110.155C32.5151 110.524 33.277 109.614 32.638 108.876C31.3845 107.399 29.7623 106.366 29.4428 104.275Z" fill="#333184"/>
<path d="M88.3812 85.9935C86.6853 87.1007 85.4318 88.7492 84.0554 90.2009C82.2858 92.0709 80.3933 93.2273 78.1075 94.3592C77.149 94.8267 77.8617 96.1061 78.7957 95.9585C83.146 95.2695 87.0048 90.3486 89.4134 87.0023C89.8313 86.3872 88.9956 85.5998 88.3812 85.9935Z" fill="#333184"/>
<path d="M86.1451 95.2459C84.3509 96.3531 82.6058 97.6572 80.9099 98.912C79.976 99.6009 80.7625 100.905 81.8193 100.437C83.7856 99.6009 85.2603 97.8786 87.0053 96.7222C87.9393 96.107 87.1036 94.6554 86.1451 95.2459Z" fill="#333184"/>
<path d="M101.185 107.892C99.1208 108.975 97.5478 110.796 95.4095 111.731C94.7705 112.001 95.2375 113.158 95.9011 112.887C98.0885 111.977 100.079 110.648 101.996 109.27C102.808 108.68 102.095 107.425 101.185 107.892Z" fill="#333184"/>
<path d="M112.467 78.5629C111.558 82.5489 111.508 87.6421 108.51 90.7423C107.65 91.6281 109.001 92.9813 109.862 92.0956C113.18 88.7493 113.671 83.2624 114.187 78.8089C114.286 77.8001 112.688 77.6033 112.467 78.5629Z" fill="#333184"/>
<path d="M114.138 67.7612C113.794 66.2357 113.72 64.7102 113.597 63.1601C113.523 62.2005 112.171 62.2005 112.122 63.1601C112.024 64.8333 112.368 66.531 112.884 68.1057C113.155 68.8685 114.334 68.5486 114.138 67.7612Z" fill="#333184"/>
<path d="M84.0057 21.8733C85.6032 22.7344 87.25 23.5218 88.8475 24.3583C89.6095 24.752 90.2731 23.6694 89.5357 23.2019C87.9873 22.2423 86.488 21.2335 84.8167 20.4708C83.8828 20.0279 83.0717 21.3566 84.0057 21.8733Z" fill="#333184"/>
<path d="M50.7505 22.1694C53.5033 21.8496 56.2069 20.9146 59.0088 20.9638C59.869 20.9884 59.8444 19.709 59.0088 19.6351C56.1086 19.3891 53.3558 20.0288 50.5539 20.6193C49.6691 20.8162 49.8657 22.2679 50.7505 22.1694Z" fill="#333184"/>
<path d="M19.6613 58.3621C20.4233 54.6467 20.5953 51.0052 22.8565 47.8066C23.2989 47.1668 22.3404 46.4779 21.7996 46.9946C18.8748 49.8488 18.0392 54.1792 17.9163 58.116C17.8917 59.1248 19.4647 59.3463 19.6613 58.3621Z" fill="#333184"/>
<path d="M18.5302 76.0288C18.3089 75.266 17.1046 75.5859 17.3258 76.3733C17.7437 77.8496 18.2352 79.2766 18.8988 80.6545C19.2675 81.3927 20.3735 80.7529 20.0048 80.0148C19.3904 78.7107 18.948 77.3821 18.5302 76.0288Z" fill="#333184"/>
<path d="M19.2432 70.0987C19.2678 69.0161 19.2186 67.9089 19.3415 66.8263C19.4644 65.9405 18.1126 65.8667 17.8668 66.6294C17.4981 67.7612 17.4981 68.9177 17.5227 70.0987C17.5227 71.2059 19.2186 71.2059 19.2432 70.0987Z" fill="#333184"/>
<path d="M28.4331 74.8971C28.0644 73.5193 27.6958 72.1906 27.8678 70.7389C27.9907 69.7055 26.344 69.7055 26.2457 70.7389C26.0736 72.289 26.4177 73.8391 26.983 75.2908C27.3271 76.1766 28.7035 75.8567 28.4331 74.8971Z" fill="#333184"/>
<path d="M40.2813 111.46C39.5194 110.648 38.315 111.853 39.0524 112.69C40.6008 114.388 42.7882 115.249 44.6562 116.504C45.4427 117.045 46.4504 115.765 45.6885 115.175C43.968 113.797 41.7805 113.108 40.2813 111.46Z" fill="#333184"/>
</g>
<defs>
<clipPath id="clip0">
<rect width="134" height="137" fill="white"/>
</clipPath>
</defs>
</svg>
