<svg width="351" height="79" viewBox="0 0 351 79" fill="none" xmlns="http://www.w3.org/2000/svg">
<g filter="url(#filter0_d)">
<path fill-rule="evenodd" clip-rule="evenodd" d="M23 56C11.9543 56 3 47.0457 3 36V21C3 9.95431 11.9543 1 23 1H328C339.046 1 348 9.95431 348 21V36C348 47.0457 339.046 56 328 56H90.515C90.468 56.379 90.0976 57.0269 89.5927 57.9103C87.8586 60.9441 84.5364 66.7563 87.2653 74C84.0146 72.872 78.162 67.0979 74.4323 56H23Z" fill="white"/>
<path d="M90.515 56V55C90.0102 55 89.5847 55.3761 89.5226 55.877L90.515 56ZM89.5927 57.9103L88.7245 57.4141V57.4141L89.5927 57.9103ZM87.2653 74L86.9375 74.9447C87.304 75.0719 87.711 74.9756 87.9817 74.6977C88.2524 74.4199 88.3379 74.0105 88.2011 73.6475L87.2653 74ZM74.4323 56L75.3801 55.6814C75.2433 55.2743 74.8618 55 74.4323 55V56ZM2 36C2 47.598 11.402 57 23 57V55C12.5066 55 4 46.4934 4 36H2ZM2 21V36H4V21H2ZM23 0C11.402 0 2 9.40202 2 21H4C4 10.5066 12.5066 2 23 2V0ZM328 0H23V2H328V0ZM349 21C349 9.40202 339.598 0 328 0V2C338.493 2 347 10.5066 347 21H349ZM349 36V21H347V36H349ZM328 57C339.598 57 349 47.598 349 36H347C347 46.4934 338.493 55 328 55V57ZM90.515 57H328V55H90.515V57ZM90.4608 58.4066C90.7088 57.9727 90.9424 57.5648 91.1181 57.217C91.2787 56.8991 91.4602 56.5033 91.5074 56.123L89.5226 55.877C89.5227 55.8757 89.4956 55.9933 89.333 56.315C89.1856 56.6068 88.9815 56.9645 88.7245 57.4141L90.4608 58.4066ZM88.2011 73.6475C85.6502 66.8762 88.7256 61.4424 90.4608 58.4066L88.7245 57.4141C86.9915 60.4459 83.4226 66.6364 86.3295 74.3525L88.2011 73.6475ZM73.4844 56.3186C75.3823 61.9658 77.8297 66.2872 80.2422 69.3567C82.6312 72.3963 85.0524 74.2906 86.9375 74.9447L87.5932 73.0553C86.2275 72.5814 84.097 71.0247 81.8146 68.1208C79.5557 65.2467 77.212 61.132 75.3801 55.6814L73.4844 56.3186ZM23 57H74.4323V55H23V57Z" fill="#484751"/>
<path d="M29.14 12.298H30.904V22H29.14V17.702H24.926V22H23.162V12.298H24.926V16.176H29.14V12.298ZM34.8485 22H33.1545V14.678H34.8485V22ZM35.0305 12.536C35.0305 12.8533 34.9278 13.1053 34.7225 13.292C34.5172 13.4787 34.2745 13.572 33.9945 13.572C33.7052 13.572 33.4578 13.4787 33.2525 13.292C33.0472 13.1053 32.9445 12.8533 32.9445 12.536C32.9445 12.2093 33.0472 11.9527 33.2525 11.766C33.4578 11.5793 33.7052 11.486 33.9945 11.486C34.2745 11.486 34.5172 11.5793 34.7225 11.766C34.9278 11.9527 35.0305 12.2093 35.0305 12.536ZM38.7596 20.138C38.7783 20.2967 38.7876 20.4133 38.7876 20.488C38.7876 20.5627 38.7876 20.6373 38.7876 20.712C38.7876 21.2907 38.6943 21.888 38.5076 22.504C38.3303 23.12 38.0783 23.7033 37.7516 24.254L36.4216 23.89C36.6456 23.3487 36.795 22.8167 36.8696 22.294C36.9536 21.7807 36.9956 21.328 36.9956 20.936C36.9956 20.824 36.991 20.684 36.9816 20.516C36.9816 20.348 36.977 20.222 36.9676 20.138H38.7596ZM44.1073 12.298H45.8713V22H44.1073V12.298ZM49.7352 11.388C49.7445 11.5 49.7492 11.6167 49.7492 11.738C49.7585 11.8593 49.7585 11.9573 49.7492 12.032C49.7305 12.592 49.6185 13.1333 49.4132 13.656C49.2172 14.1693 48.9745 14.6267 48.6852 15.028L47.4532 14.706C47.6399 14.2953 47.7845 13.8613 47.8872 13.404C47.9899 12.9467 48.0412 12.508 48.0412 12.088C48.0412 12.0227 48.0365 11.92 48.0272 11.78C48.0272 11.64 48.0179 11.5093 47.9992 11.388H49.7352ZM55.8105 18.15C55.8105 17.3847 55.7125 16.834 55.5165 16.498C55.3299 16.1527 54.9752 15.98 54.4525 15.98C54.2659 15.98 54.0605 15.994 53.8365 16.022C53.6125 16.05 53.4445 16.0733 53.3325 16.092V22H51.6385V14.916C51.9652 14.8227 52.3899 14.734 52.9125 14.65C53.4445 14.566 54.0045 14.524 54.5925 14.524C55.0965 14.524 55.5072 14.5893 55.8245 14.72C56.1512 14.8507 56.4219 15.0233 56.6365 15.238C56.7392 15.1633 56.8699 15.084 57.0285 15C57.1872 14.916 57.3645 14.8413 57.5605 14.776C57.7565 14.7013 57.9619 14.6407 58.1765 14.594C58.4005 14.5473 58.6245 14.524 58.8485 14.524C59.4179 14.524 59.8845 14.608 60.2485 14.776C60.6219 14.9347 60.9112 15.1633 61.1165 15.462C61.3312 15.7513 61.4759 16.106 61.5505 16.526C61.6345 16.9367 61.6765 17.3893 61.6765 17.884V22H59.9825V18.15C59.9825 17.3847 59.8892 16.834 59.7025 16.498C59.5159 16.1527 59.1565 15.98 58.6245 15.98C58.3539 15.98 58.0972 16.0267 57.8545 16.12C57.6119 16.204 57.4299 16.288 57.3085 16.372C57.3832 16.6053 57.4345 16.8527 57.4625 17.114C57.4905 17.3753 57.5045 17.6553 57.5045 17.954V22H55.8105V18.15ZM73.2354 20.474V22H67.1034V12.298H68.8674V20.474H73.2354ZM80.9832 18.332C80.9832 18.9107 80.8992 19.438 80.7312 19.914C80.5632 20.39 80.3252 20.796 80.0172 21.132C79.7092 21.468 79.3359 21.7293 78.8972 21.916C78.4679 22.1027 77.9919 22.196 77.4692 22.196C76.9465 22.196 76.4705 22.1027 76.0412 21.916C75.6119 21.7293 75.2432 21.468 74.9352 21.132C74.6272 20.796 74.3845 20.39 74.2072 19.914C74.0392 19.438 73.9552 18.9107 73.9552 18.332C73.9552 17.7533 74.0392 17.2307 74.2072 16.764C74.3845 16.288 74.6272 15.882 74.9352 15.546C75.2525 15.21 75.6259 14.9533 76.0552 14.776C76.4845 14.5893 76.9559 14.496 77.4692 14.496C77.9825 14.496 78.4539 14.5893 78.8832 14.776C79.3219 14.9533 79.6952 15.21 80.0032 15.546C80.3112 15.882 80.5492 16.288 80.7172 16.764C80.8945 17.2307 80.9832 17.7533 80.9832 18.332ZM79.2472 18.332C79.2472 17.604 79.0885 17.03 78.7712 16.61C78.4632 16.1807 78.0292 15.966 77.4692 15.966C76.9092 15.966 76.4705 16.1807 76.1532 16.61C75.8452 17.03 75.6912 17.604 75.6912 18.332C75.6912 19.0693 75.8452 19.6527 76.1532 20.082C76.4705 20.5113 76.9092 20.726 77.4692 20.726C78.0292 20.726 78.4632 20.5113 78.7712 20.082C79.0885 19.6527 79.2472 19.0693 79.2472 18.332ZM89.3504 18.332C89.3504 18.9107 89.2664 19.438 89.0984 19.914C88.9304 20.39 88.6924 20.796 88.3844 21.132C88.0764 21.468 87.7031 21.7293 87.2644 21.916C86.8351 22.1027 86.3591 22.196 85.8364 22.196C85.3137 22.196 84.8377 22.1027 84.4084 21.916C83.9791 21.7293 83.6104 21.468 83.3024 21.132C82.9944 20.796 82.7517 20.39 82.5744 19.914C82.4064 19.438 82.3224 18.9107 82.3224 18.332C82.3224 17.7533 82.4064 17.2307 82.5744 16.764C82.7517 16.288 82.9944 15.882 83.3024 15.546C83.6197 15.21 83.9931 14.9533 84.4224 14.776C84.8517 14.5893 85.3231 14.496 85.8364 14.496C86.3497 14.496 86.8211 14.5893 87.2504 14.776C87.6891 14.9533 88.0624 15.21 88.3704 15.546C88.6784 15.882 88.9164 16.288 89.0844 16.764C89.2617 17.2307 89.3504 17.7533 89.3504 18.332ZM87.6144 18.332C87.6144 17.604 87.4557 17.03 87.1384 16.61C86.8304 16.1807 86.3964 15.966 85.8364 15.966C85.2764 15.966 84.8377 16.1807 84.5204 16.61C84.2124 17.03 84.0584 17.604 84.0584 18.332C84.0584 19.0693 84.2124 19.6527 84.5204 20.082C84.8377 20.5113 85.2764 20.726 85.8364 20.726C86.3964 20.726 86.8304 20.5113 87.1384 20.082C87.4557 19.6527 87.6144 19.0693 87.6144 18.332ZM92.7896 17.534C93.0042 17.31 93.2329 17.072 93.4756 16.82C93.7182 16.5587 93.9562 16.302 94.1896 16.05C94.4229 15.7887 94.6422 15.5413 94.8476 15.308C95.0622 15.0653 95.2442 14.8553 95.3936 14.678H97.3956C96.9289 15.2007 96.4342 15.742 95.9116 16.302C95.3982 16.862 94.8802 17.408 94.3576 17.94C94.6376 18.1733 94.9316 18.458 95.2396 18.794C95.5476 19.1207 95.8462 19.4707 96.1356 19.844C96.4249 20.2173 96.6956 20.5907 96.9476 20.964C97.1996 21.3373 97.4096 21.6827 97.5776 22H95.6176C95.4496 21.7107 95.2536 21.4073 95.0296 21.09C94.8149 20.7727 94.5816 20.4647 94.3296 20.166C94.0776 19.8673 93.8209 19.5873 93.5596 19.326C93.2982 19.0553 93.0416 18.8267 92.7896 18.64V22H91.0956V11.416L92.7896 11.136V17.534ZM104.785 14.678C104.029 17.4593 103.151 19.9793 102.153 22.238C101.966 22.658 101.775 23.0173 101.579 23.316C101.383 23.6147 101.163 23.862 100.921 24.058C100.678 24.254 100.407 24.394 100.109 24.478C99.8098 24.5713 99.4645 24.618 99.0725 24.618C98.8112 24.618 98.5498 24.59 98.2885 24.534C98.0365 24.478 97.8452 24.4173 97.7145 24.352L98.0225 22.994C98.3585 23.1247 98.6898 23.19 99.0165 23.19C99.4552 23.19 99.7958 23.0827 100.039 22.868C100.291 22.6627 100.51 22.3407 100.697 21.902C100.165 20.8753 99.6512 19.7553 99.1565 18.542C98.6712 17.3287 98.2372 16.0407 97.8545 14.678H99.6605C99.7538 15.07 99.8658 15.4947 99.9965 15.952C100.137 16.4093 100.286 16.876 100.445 17.352C100.603 17.8187 100.771 18.2853 100.949 18.752C101.126 19.2187 101.303 19.6527 101.481 20.054C101.779 19.2233 102.059 18.3413 102.321 17.408C102.582 16.4653 102.82 15.5553 103.035 14.678H104.785ZM108.04 14.902C108.04 15.6767 108.012 16.386 107.956 17.03C107.9 17.674 107.83 18.3227 107.746 18.976H106.542C106.449 18.3227 106.374 17.674 106.318 17.03C106.262 16.3767 106.234 15.6673 106.234 14.902V12.298H108.04V14.902ZM108.25 21.076C108.25 21.4027 108.143 21.6687 107.928 21.874C107.714 22.0793 107.448 22.182 107.13 22.182C106.822 22.182 106.556 22.0793 106.332 21.874C106.118 21.6687 106.01 21.4027 106.01 21.076C106.01 20.7493 106.118 20.4833 106.332 20.278C106.556 20.0633 106.822 19.956 107.13 19.956C107.448 19.956 107.714 20.0633 107.928 20.278C108.143 20.4833 108.25 20.7493 108.25 21.076ZM23.162 33.298H24.926V43H23.162V33.298ZM28.7899 32.388C28.7992 32.5 28.8039 32.6167 28.8039 32.738C28.8132 32.8593 28.8132 32.9573 28.8039 33.032C28.7852 33.592 28.6732 34.1333 28.4679 34.656C28.2719 35.1693 28.0292 35.6267 27.7399 36.028L26.5079 35.706C26.6946 35.2953 26.8392 34.8613 26.9419 34.404C27.0446 33.9467 27.0959 33.508 27.0959 33.088C27.0959 33.0227 27.0912 32.92 27.0819 32.78C27.0819 32.64 27.0726 32.5093 27.0539 32.388H28.7899ZM34.8652 39.15C34.8652 38.3847 34.7672 37.834 34.5712 37.498C34.3846 37.1527 34.0299 36.98 33.5072 36.98C33.3206 36.98 33.1152 36.994 32.8912 37.022C32.6672 37.05 32.4992 37.0733 32.3872 37.092V43H30.6932V35.916C31.0199 35.8227 31.4446 35.734 31.9672 35.65C32.4992 35.566 33.0592 35.524 33.6472 35.524C34.1512 35.524 34.5619 35.5893 34.8792 35.72C35.2059 35.8507 35.4766 36.0233 35.6912 36.238C35.7939 36.1633 35.9246 36.084 36.0832 36C36.2419 35.916 36.4192 35.8413 36.6152 35.776C36.8112 35.7013 37.0166 35.6407 37.2312 35.594C37.4552 35.5473 37.6792 35.524 37.9032 35.524C38.4726 35.524 38.9392 35.608 39.3032 35.776C39.6766 35.9347 39.9659 36.1633 40.1712 36.462C40.3859 36.7513 40.5306 37.106 40.6052 37.526C40.6892 37.9367 40.7312 38.3893 40.7312 38.884V43H39.0372V39.15C39.0372 38.3847 38.9439 37.834 38.7572 37.498C38.5706 37.1527 38.2112 36.98 37.6792 36.98C37.4086 36.98 37.1519 37.0267 36.9092 37.12C36.6666 37.204 36.4846 37.288 36.3632 37.372C36.4379 37.6053 36.4892 37.8527 36.5172 38.114C36.5452 38.3753 36.5592 38.6553 36.5592 38.954V43H34.8652V39.15ZM48.6501 41.81C49.1728 41.81 49.5694 41.782 49.8401 41.726V39.85C49.7468 39.822 49.6114 39.794 49.4341 39.766C49.2568 39.738 49.0608 39.724 48.8461 39.724C48.6594 39.724 48.4681 39.738 48.2721 39.766C48.0854 39.794 47.9128 39.8453 47.7541 39.92C47.6048 39.9947 47.4834 40.102 47.3901 40.242C47.2968 40.3727 47.2501 40.5407 47.2501 40.746C47.2501 41.1473 47.3761 41.4273 47.6281 41.586C47.8801 41.7353 48.2208 41.81 48.6501 41.81ZM48.5101 35.496C49.0701 35.496 49.5414 35.566 49.9241 35.706C50.3068 35.846 50.6101 36.042 50.8341 36.294C51.0674 36.546 51.2308 36.854 51.3241 37.218C51.4268 37.5727 51.4781 37.9647 51.4781 38.394V42.832C51.2168 42.888 50.8201 42.9533 50.2881 43.028C49.7654 43.112 49.1728 43.154 48.5101 43.154C48.0714 43.154 47.6701 43.112 47.3061 43.028C46.9421 42.944 46.6294 42.8087 46.3681 42.622C46.1161 42.4353 45.9154 42.1927 45.7661 41.894C45.6261 41.5953 45.5561 41.2267 45.5561 40.788C45.5561 40.368 45.6354 40.0133 45.7941 39.724C45.9621 39.4347 46.1861 39.2013 46.4661 39.024C46.7461 38.8373 47.0681 38.7067 47.4321 38.632C47.8054 38.548 48.1928 38.506 48.5941 38.506C48.7808 38.506 48.9768 38.52 49.1821 38.548C49.3874 38.5667 49.6068 38.604 49.8401 38.66V38.38C49.8401 38.184 49.8168 37.9973 49.7701 37.82C49.7234 37.6427 49.6394 37.4887 49.5181 37.358C49.4061 37.218 49.2521 37.1107 49.0561 37.036C48.8694 36.9613 48.6314 36.924 48.3421 36.924C47.9501 36.924 47.5908 36.952 47.2641 37.008C46.9374 37.064 46.6714 37.1293 46.4661 37.204L46.2561 35.832C46.4708 35.7573 46.7834 35.6827 47.1941 35.608C47.6048 35.5333 48.0434 35.496 48.5101 35.496ZM56.1006 43.14C55.5966 43.1307 55.1766 43.0747 54.8406 42.972C54.5139 42.8693 54.2526 42.7247 54.0566 42.538C53.8606 42.342 53.7206 42.104 53.6366 41.824C53.5619 41.5347 53.5246 41.208 53.5246 40.844V32.416L55.2186 32.136V40.522C55.2186 40.7273 55.2326 40.9 55.2606 41.04C55.2979 41.18 55.3586 41.3013 55.4426 41.404C55.5266 41.4973 55.6386 41.572 55.7786 41.628C55.9279 41.6747 56.1146 41.712 56.3386 41.74L56.1006 43.14ZM62.0769 38.394C61.8622 39.2153 61.6289 40.018 61.3769 40.802C61.1342 41.5767 60.8915 42.3093 60.6489 43H59.2629C59.0762 42.5707 58.8802 42.0807 58.6749 41.53C58.4695 40.9793 58.2642 40.3913 58.0589 39.766C57.8535 39.1407 57.6482 38.4827 57.4429 37.792C57.2375 37.1013 57.0369 36.3967 56.8409 35.678H58.6329C58.7169 36.07 58.8149 36.4947 58.9269 36.952C59.0389 37.4 59.1555 37.862 59.2769 38.338C59.3982 38.8047 59.5242 39.262 59.6549 39.71C59.7855 40.158 59.9162 40.5687 60.0469 40.942C60.1869 40.5127 60.3222 40.0693 60.4529 39.612C60.5929 39.1547 60.7235 38.6973 60.8449 38.24C60.9662 37.7827 61.0782 37.3393 61.1809 36.91C61.2929 36.4713 61.3909 36.0607 61.4749 35.678H62.7769C62.8609 36.0607 62.9542 36.4713 63.0569 36.91C63.1595 37.3393 63.2669 37.7827 63.3789 38.24C63.5002 38.6973 63.6262 39.1547 63.7569 39.612C63.8969 40.0693 64.0369 40.5127 64.1769 40.942C64.2982 40.5687 64.4242 40.158 64.5549 39.71C64.6855 39.262 64.8115 38.8047 64.9329 38.338C65.0635 37.862 65.1849 37.4 65.2969 36.952C65.4089 36.4947 65.5069 36.07 65.5909 35.678H67.3409C67.1449 36.3967 66.9442 37.1013 66.7389 37.792C66.5335 38.4827 66.3282 39.1407 66.1229 39.766C65.9175 40.3913 65.7122 40.9793 65.5069 41.53C65.3015 42.0807 65.1009 42.5707 64.9049 43H63.5329C63.2902 42.3093 63.0382 41.5767 62.7769 40.802C62.5249 40.018 62.2915 39.2153 62.0769 38.394ZM71.2087 41.81C71.7314 41.81 72.128 41.782 72.3987 41.726V39.85C72.3054 39.822 72.17 39.794 71.9927 39.766C71.8154 39.738 71.6194 39.724 71.4047 39.724C71.218 39.724 71.0267 39.738 70.8307 39.766C70.644 39.794 70.4714 39.8453 70.3127 39.92C70.1634 39.9947 70.042 40.102 69.9487 40.242C69.8554 40.3727 69.8087 40.5407 69.8087 40.746C69.8087 41.1473 69.9347 41.4273 70.1867 41.586C70.4387 41.7353 70.7794 41.81 71.2087 41.81ZM71.0687 35.496C71.6287 35.496 72.1 35.566 72.4827 35.706C72.8654 35.846 73.1687 36.042 73.3927 36.294C73.626 36.546 73.7894 36.854 73.8827 37.218C73.9854 37.5727 74.0367 37.9647 74.0367 38.394V42.832C73.7754 42.888 73.3787 42.9533 72.8467 43.028C72.324 43.112 71.7314 43.154 71.0687 43.154C70.63 43.154 70.2287 43.112 69.8647 43.028C69.5007 42.944 69.188 42.8087 68.9267 42.622C68.6747 42.4353 68.474 42.1927 68.3247 41.894C68.1847 41.5953 68.1147 41.2267 68.1147 40.788C68.1147 40.368 68.194 40.0133 68.3527 39.724C68.5207 39.4347 68.7447 39.2013 69.0247 39.024C69.3047 38.8373 69.6267 38.7067 69.9907 38.632C70.364 38.548 70.7514 38.506 71.1527 38.506C71.3394 38.506 71.5354 38.52 71.7407 38.548C71.946 38.5667 72.1654 38.604 72.3987 38.66V38.38C72.3987 38.184 72.3754 37.9973 72.3287 37.82C72.282 37.6427 72.198 37.4887 72.0767 37.358C71.9647 37.218 71.8107 37.1107 71.6147 37.036C71.428 36.9613 71.19 36.924 70.9007 36.924C70.5087 36.924 70.1494 36.952 69.8227 37.008C69.496 37.064 69.23 37.1293 69.0247 37.204L68.8147 35.832C69.0294 35.7573 69.342 35.6827 69.7527 35.608C70.1634 35.5333 70.602 35.496 71.0687 35.496ZM81.9115 35.678C81.1555 38.4593 80.2781 40.9793 79.2795 43.238C79.0928 43.658 78.9015 44.0173 78.7055 44.316C78.5095 44.6147 78.2901 44.862 78.0475 45.058C77.8048 45.254 77.5341 45.394 77.2355 45.478C76.9368 45.5713 76.5915 45.618 76.1995 45.618C75.9381 45.618 75.6768 45.59 75.4155 45.534C75.1635 45.478 74.9721 45.4173 74.8415 45.352L75.1495 43.994C75.4855 44.1247 75.8168 44.19 76.1435 44.19C76.5821 44.19 76.9228 44.0827 77.1655 43.868C77.4175 43.6627 77.6368 43.3407 77.8235 42.902C77.2915 41.8753 76.7781 40.7553 76.2835 39.542C75.7981 38.3287 75.3641 37.0407 74.9815 35.678H76.7875C76.8808 36.07 76.9928 36.4947 77.1235 36.952C77.2635 37.4093 77.4128 37.876 77.5715 38.352C77.7301 38.8187 77.8981 39.2853 78.0755 39.752C78.2528 40.2187 78.4301 40.6527 78.6075 41.054C78.9061 40.2233 79.1861 39.3413 79.4475 38.408C79.7088 37.4653 79.9468 36.5553 80.1615 35.678H81.9115ZM85.0272 41.782C85.4752 41.782 85.8019 41.7307 86.0072 41.628C86.2126 41.516 86.3152 41.3293 86.3152 41.068C86.3152 40.8253 86.2032 40.6247 85.9792 40.466C85.7646 40.3073 85.4052 40.1347 84.9012 39.948C84.5932 39.836 84.3086 39.7193 84.0472 39.598C83.7952 39.4673 83.5759 39.318 83.3892 39.15C83.2026 38.982 83.0532 38.7813 82.9412 38.548C82.8386 38.3053 82.7872 38.0113 82.7872 37.666C82.7872 36.994 83.0346 36.4667 83.5292 36.084C84.0239 35.692 84.6959 35.496 85.5452 35.496C85.9746 35.496 86.3852 35.538 86.7772 35.622C87.1692 35.6967 87.4632 35.7713 87.6592 35.846L87.3512 37.218C87.1646 37.134 86.9266 37.0593 86.6372 36.994C86.3479 36.9193 86.0119 36.882 85.6292 36.882C85.2839 36.882 85.0039 36.9427 84.7892 37.064C84.5746 37.176 84.4672 37.3533 84.4672 37.596C84.4672 37.7173 84.4859 37.8247 84.5232 37.918C84.5699 38.0113 84.6446 38.1 84.7472 38.184C84.8499 38.2587 84.9852 38.338 85.1532 38.422C85.3212 38.4967 85.5266 38.576 85.7692 38.66C86.1706 38.8093 86.5112 38.9587 86.7912 39.108C87.0712 39.248 87.2999 39.4113 87.4772 39.598C87.6639 39.7753 87.7992 39.9807 87.8832 40.214C87.9672 40.4473 88.0092 40.7273 88.0092 41.054C88.0092 41.754 87.7479 42.286 87.2252 42.65C86.7119 43.0047 85.9746 43.182 85.0132 43.182C84.3692 43.182 83.8512 43.126 83.4592 43.014C83.0672 42.9113 82.7919 42.8273 82.6332 42.762L82.9272 41.348C83.1792 41.4507 83.4779 41.5487 83.8232 41.642C84.1779 41.7353 84.5792 41.782 85.0272 41.782ZM95.4073 43.14C94.9033 43.1307 94.4833 43.0747 94.1473 42.972C93.8206 42.8693 93.5593 42.7247 93.3633 42.538C93.1673 42.342 93.0273 42.104 92.9433 41.824C92.8686 41.5347 92.8313 41.208 92.8313 40.844V32.416L94.5253 32.136V40.522C94.5253 40.7273 94.5393 40.9 94.5673 41.04C94.6046 41.18 94.6653 41.3013 94.7493 41.404C94.8333 41.4973 94.9453 41.572 95.0853 41.628C95.2346 41.6747 95.4213 41.712 95.6453 41.74L95.4073 43.14ZM103.638 39.332C103.638 39.9107 103.554 40.438 103.386 40.914C103.218 41.39 102.98 41.796 102.672 42.132C102.364 42.468 101.99 42.7293 101.552 42.916C101.122 43.1027 100.646 43.196 100.124 43.196C99.6008 43.196 99.1248 43.1027 98.6955 42.916C98.2662 42.7293 97.8975 42.468 97.5895 42.132C97.2815 41.796 97.0388 41.39 96.8615 40.914C96.6935 40.438 96.6095 39.9107 96.6095 39.332C96.6095 38.7533 96.6935 38.2307 96.8615 37.764C97.0388 37.288 97.2815 36.882 97.5895 36.546C97.9068 36.21 98.2802 35.9533 98.7095 35.776C99.1388 35.5893 99.6102 35.496 100.124 35.496C100.637 35.496 101.108 35.5893 101.538 35.776C101.976 35.9533 102.35 36.21 102.658 36.546C102.966 36.882 103.204 37.288 103.372 37.764C103.549 38.2307 103.638 38.7533 103.638 39.332ZM101.902 39.332C101.902 38.604 101.743 38.03 101.426 37.61C101.118 37.1807 100.684 36.966 100.124 36.966C99.5635 36.966 99.1248 37.1807 98.8075 37.61C98.4995 38.03 98.3455 38.604 98.3455 39.332C98.3455 40.0693 98.4995 40.6527 98.8075 41.082C99.1248 41.5113 99.5635 41.726 100.124 41.726C100.684 41.726 101.118 41.5113 101.426 41.082C101.743 40.6527 101.902 40.0693 101.902 39.332ZM112.005 39.332C112.005 39.9107 111.921 40.438 111.753 40.914C111.585 41.39 111.347 41.796 111.039 42.132C110.731 42.468 110.357 42.7293 109.919 42.916C109.489 43.1027 109.013 43.196 108.491 43.196C107.968 43.196 107.492 43.1027 107.063 42.916C106.633 42.7293 106.265 42.468 105.957 42.132C105.649 41.796 105.406 41.39 105.229 40.914C105.061 40.438 104.977 39.9107 104.977 39.332C104.977 38.7533 105.061 38.2307 105.229 37.764C105.406 37.288 105.649 36.882 105.957 36.546C106.274 36.21 106.647 35.9533 107.077 35.776C107.506 35.5893 107.977 35.496 108.491 35.496C109.004 35.496 109.475 35.5893 109.905 35.776C110.343 35.9533 110.717 36.21 111.025 36.546C111.333 36.882 111.571 37.288 111.739 37.764C111.916 38.2307 112.005 38.7533 112.005 39.332ZM110.269 39.332C110.269 38.604 110.11 38.03 109.793 37.61C109.485 37.1807 109.051 36.966 108.491 36.966C107.931 36.966 107.492 37.1807 107.175 37.61C106.867 38.03 106.713 38.604 106.713 39.332C106.713 40.0693 106.867 40.6527 107.175 41.082C107.492 41.5113 107.931 41.726 108.491 41.726C109.051 41.726 109.485 41.5113 109.793 41.082C110.11 40.6527 110.269 40.0693 110.269 39.332ZM115.444 38.534C115.659 38.31 115.887 38.072 116.13 37.82C116.373 37.5587 116.611 37.302 116.844 37.05C117.077 36.7887 117.297 36.5413 117.502 36.308C117.717 36.0653 117.899 35.8553 118.048 35.678H120.05C119.583 36.2007 119.089 36.742 118.566 37.302C118.053 37.862 117.535 38.408 117.012 38.94C117.292 39.1733 117.586 39.458 117.894 39.794C118.202 40.1207 118.501 40.4707 118.79 40.844C119.079 41.2173 119.35 41.5907 119.602 41.964C119.854 42.3373 120.064 42.6827 120.232 43H118.272C118.104 42.7107 117.908 42.4073 117.684 42.09C117.469 41.7727 117.236 41.4647 116.984 41.166C116.732 40.8673 116.475 40.5873 116.214 40.326C115.953 40.0553 115.696 39.8267 115.444 39.64V43H113.75V32.416L115.444 32.136V38.534ZM123.169 43H121.475V35.678H123.169V43ZM123.351 33.536C123.351 33.8533 123.248 34.1053 123.043 34.292C122.837 34.4787 122.595 34.572 122.315 34.572C122.025 34.572 121.778 34.4787 121.573 34.292C121.367 34.1053 121.265 33.8533 121.265 33.536C121.265 33.2093 121.367 32.9527 121.573 32.766C121.778 32.5793 122.025 32.486 122.315 32.486C122.595 32.486 122.837 32.5793 123.043 32.766C123.248 32.9527 123.351 33.2093 123.351 33.536ZM125.33 35.916C125.657 35.8227 126.081 35.734 126.604 35.65C127.127 35.566 127.705 35.524 128.34 35.524C128.937 35.524 129.437 35.608 129.838 35.776C130.239 35.9347 130.557 36.1633 130.79 36.462C131.033 36.7513 131.201 37.106 131.294 37.526C131.397 37.9367 131.448 38.3893 131.448 38.884V43H129.754V39.15C129.754 38.758 129.726 38.4267 129.67 38.156C129.623 37.876 129.539 37.652 129.418 37.484C129.306 37.3067 129.147 37.1807 128.942 37.106C128.746 37.022 128.503 36.98 128.214 36.98C127.999 36.98 127.775 36.994 127.542 37.022C127.309 37.05 127.136 37.0733 127.024 37.092V43H125.33V35.916ZM134.849 39.15C134.849 39.8687 135.003 40.396 135.311 40.732C135.629 41.0587 136.035 41.222 136.529 41.222C136.8 41.222 137.052 41.1847 137.285 41.11C137.528 41.0353 137.724 40.9467 137.873 40.844V37.05C137.752 37.022 137.603 36.9987 137.425 36.98C137.248 36.952 137.024 36.938 136.753 36.938C136.137 36.938 135.666 37.1433 135.339 37.554C135.013 37.9553 134.849 38.4873 134.849 39.15ZM139.567 42.258C139.567 43.4247 139.269 44.2787 138.671 44.82C138.083 45.3613 137.178 45.632 135.955 45.632C135.507 45.632 135.069 45.5947 134.639 45.52C134.219 45.4453 133.837 45.3473 133.491 45.226L133.799 43.784C134.089 43.9053 134.415 44.0033 134.779 44.078C135.153 44.1527 135.554 44.19 135.983 44.19C136.665 44.19 137.15 44.05 137.439 43.77C137.729 43.49 137.873 43.0747 137.873 42.524V42.244C137.705 42.328 137.481 42.412 137.201 42.496C136.931 42.58 136.618 42.622 136.263 42.622C135.797 42.622 135.367 42.5473 134.975 42.398C134.593 42.2487 134.261 42.0293 133.981 41.74C133.711 41.4507 133.496 41.0913 133.337 40.662C133.188 40.2233 133.113 39.7193 133.113 39.15C133.113 38.618 133.193 38.128 133.351 37.68C133.519 37.232 133.757 36.8493 134.065 36.532C134.383 36.2147 134.765 35.9673 135.213 35.79C135.661 35.6127 136.17 35.524 136.739 35.524C137.29 35.524 137.813 35.566 138.307 35.65C138.802 35.734 139.222 35.8227 139.567 35.916V42.258ZM151.612 39.332C151.612 39.9107 151.528 40.438 151.36 40.914C151.192 41.39 150.954 41.796 150.646 42.132C150.338 42.468 149.965 42.7293 149.526 42.916C149.097 43.1027 148.621 43.196 148.098 43.196C147.575 43.196 147.099 43.1027 146.67 42.916C146.241 42.7293 145.872 42.468 145.564 42.132C145.256 41.796 145.013 41.39 144.836 40.914C144.668 40.438 144.584 39.9107 144.584 39.332C144.584 38.7533 144.668 38.2307 144.836 37.764C145.013 37.288 145.256 36.882 145.564 36.546C145.881 36.21 146.255 35.9533 146.684 35.776C147.113 35.5893 147.585 35.496 148.098 35.496C148.611 35.496 149.083 35.5893 149.512 35.776C149.951 35.9533 150.324 36.21 150.632 36.546C150.94 36.882 151.178 37.288 151.346 37.764C151.523 38.2307 151.612 38.7533 151.612 39.332ZM149.876 39.332C149.876 38.604 149.717 38.03 149.4 37.61C149.092 37.1807 148.658 36.966 148.098 36.966C147.538 36.966 147.099 37.1807 146.782 37.61C146.474 38.03 146.32 38.604 146.32 39.332C146.32 40.0693 146.474 40.6527 146.782 41.082C147.099 41.5113 147.538 41.726 148.098 41.726C148.658 41.726 149.092 41.5113 149.4 41.082C149.717 40.6527 149.876 40.0693 149.876 39.332ZM159.363 42.776C159.037 42.86 158.612 42.944 158.089 43.028C157.567 43.1213 156.993 43.168 156.367 43.168C155.779 43.168 155.285 43.084 154.883 42.916C154.491 42.748 154.174 42.5147 153.931 42.216C153.698 41.9173 153.53 41.5627 153.427 41.152C153.325 40.732 153.273 40.2747 153.273 39.78V35.678H154.967V39.514C154.967 40.298 155.079 40.858 155.303 41.194C155.537 41.53 155.938 41.698 156.507 41.698C156.713 41.698 156.927 41.6887 157.151 41.67C157.385 41.6513 157.557 41.628 157.669 41.6V35.678H159.363V42.776ZM161.435 33.746L163.129 33.466V35.678H165.733V37.092H163.129V40.074C163.129 40.662 163.223 41.082 163.409 41.334C163.596 41.586 163.913 41.712 164.361 41.712C164.669 41.712 164.94 41.6793 165.173 41.614C165.416 41.5487 165.607 41.488 165.747 41.432L166.027 42.776C165.831 42.86 165.575 42.944 165.257 43.028C164.94 43.1213 164.567 43.168 164.137 43.168C163.615 43.168 163.176 43.098 162.821 42.958C162.476 42.818 162.201 42.6173 161.995 42.356C161.79 42.0853 161.645 41.7633 161.561 41.39C161.477 41.0073 161.435 40.5733 161.435 40.088V33.746ZM173.621 32.136C174.013 32.136 174.358 32.1733 174.657 32.248C174.955 32.3133 175.179 32.374 175.329 32.43L175.007 33.83C174.848 33.7553 174.661 33.6947 174.447 33.648C174.241 33.6013 174.017 33.578 173.775 33.578C173.504 33.578 173.275 33.62 173.089 33.704C172.902 33.7787 172.753 33.886 172.641 34.026C172.529 34.166 172.449 34.3387 172.403 34.544C172.356 34.74 172.333 34.9547 172.333 35.188V35.678H174.993V37.092H172.333V43H170.639V35.16C170.639 34.2173 170.886 33.48 171.381 32.948C171.875 32.4067 172.622 32.136 173.621 32.136ZM182.729 39.332C182.729 39.9107 182.645 40.438 182.477 40.914C182.309 41.39 182.071 41.796 181.763 42.132C181.455 42.468 181.082 42.7293 180.643 42.916C180.214 43.1027 179.738 43.196 179.215 43.196C178.693 43.196 178.217 43.1027 177.787 42.916C177.358 42.7293 176.989 42.468 176.681 42.132C176.373 41.796 176.131 41.39 175.953 40.914C175.785 40.438 175.701 39.9107 175.701 39.332C175.701 38.7533 175.785 38.2307 175.953 37.764C176.131 37.288 176.373 36.882 176.681 36.546C176.999 36.21 177.372 35.9533 177.801 35.776C178.231 35.5893 178.702 35.496 179.215 35.496C179.729 35.496 180.2 35.5893 180.629 35.776C181.068 35.9533 181.441 36.21 181.749 36.546C182.057 36.882 182.295 37.288 182.463 37.764C182.641 38.2307 182.729 38.7533 182.729 39.332ZM180.993 39.332C180.993 38.604 180.835 38.03 180.517 37.61C180.209 37.1807 179.775 36.966 179.215 36.966C178.655 36.966 178.217 37.1807 177.899 37.61C177.591 38.03 177.437 38.604 177.437 39.332C177.437 40.0693 177.591 40.6527 177.899 41.082C178.217 41.5113 178.655 41.726 179.215 41.726C179.775 41.726 180.209 41.5113 180.517 41.082C180.835 40.6527 180.993 40.0693 180.993 39.332ZM188.646 37.204C188.506 37.1573 188.31 37.1107 188.058 37.064C187.816 37.008 187.531 36.98 187.204 36.98C187.018 36.98 186.817 36.9987 186.602 37.036C186.397 37.0733 186.252 37.106 186.168 37.134V43H184.474V36.028C184.801 35.9067 185.207 35.7947 185.692 35.692C186.187 35.58 186.733 35.524 187.33 35.524C187.442 35.524 187.573 35.5333 187.722 35.552C187.872 35.5613 188.021 35.58 188.17 35.608C188.32 35.6267 188.464 35.6547 188.604 35.692C188.744 35.72 188.856 35.748 188.94 35.776L188.646 37.204ZM194.719 39.15C194.719 39.8687 194.873 40.396 195.181 40.732C195.498 41.0587 195.904 41.222 196.399 41.222C196.669 41.222 196.921 41.1847 197.155 41.11C197.397 41.0353 197.593 40.9467 197.743 40.844V37.05C197.621 37.022 197.472 36.9987 197.295 36.98C197.117 36.952 196.893 36.938 196.623 36.938C196.007 36.938 195.535 37.1433 195.209 37.554C194.882 37.9553 194.719 38.4873 194.719 39.15ZM199.437 42.258C199.437 43.4247 199.138 44.2787 198.541 44.82C197.953 45.3613 197.047 45.632 195.825 45.632C195.377 45.632 194.938 45.5947 194.509 45.52C194.089 45.4453 193.706 45.3473 193.361 45.226L193.669 43.784C193.958 43.9053 194.285 44.0033 194.649 44.078C195.022 44.1527 195.423 44.19 195.853 44.19C196.534 44.19 197.019 44.05 197.309 43.77C197.598 43.49 197.743 43.0747 197.743 42.524V42.244C197.575 42.328 197.351 42.412 197.071 42.496C196.8 42.58 196.487 42.622 196.133 42.622C195.666 42.622 195.237 42.5473 194.845 42.398C194.462 42.2487 194.131 42.0293 193.851 41.74C193.58 41.4507 193.365 41.0913 193.207 40.662C193.057 40.2233 192.983 39.7193 192.983 39.15C192.983 38.618 193.062 38.128 193.221 37.68C193.389 37.232 193.627 36.8493 193.935 36.532C194.252 36.2147 194.635 35.9673 195.083 35.79C195.531 35.6127 196.039 35.524 196.609 35.524C197.159 35.524 197.682 35.566 198.177 35.65C198.671 35.734 199.091 35.8227 199.437 35.916V42.258ZM205.764 37.204C205.624 37.1573 205.428 37.1107 205.176 37.064C204.933 37.008 204.648 36.98 204.322 36.98C204.135 36.98 203.934 36.9987 203.72 37.036C203.514 37.0733 203.37 37.106 203.286 37.134V43H201.592V36.028C201.918 35.9067 202.324 35.7947 202.81 35.692C203.304 35.58 203.85 35.524 204.448 35.524C204.56 35.524 204.69 35.5333 204.84 35.552C204.989 35.5613 205.138 35.58 205.288 35.608C205.437 35.6267 205.582 35.6547 205.722 35.692C205.862 35.72 205.974 35.748 206.058 35.776L205.764 37.204ZM206.832 39.374C206.832 38.73 206.925 38.1653 207.112 37.68C207.308 37.1947 207.565 36.7933 207.882 36.476C208.199 36.1493 208.563 35.9067 208.974 35.748C209.385 35.58 209.805 35.496 210.234 35.496C211.242 35.496 212.026 35.8087 212.586 36.434C213.155 37.0593 213.44 37.9927 213.44 39.234C213.44 39.3273 213.435 39.4347 213.426 39.556C213.426 39.668 213.421 39.7707 213.412 39.864H208.582C208.629 40.452 208.834 40.9093 209.198 41.236C209.571 41.5533 210.108 41.712 210.808 41.712C211.219 41.712 211.592 41.6747 211.928 41.6C212.273 41.5253 212.544 41.446 212.74 41.362L212.964 42.748C212.871 42.7947 212.74 42.846 212.572 42.902C212.413 42.9487 212.227 42.9907 212.012 43.028C211.807 43.0747 211.583 43.112 211.34 43.14C211.097 43.168 210.85 43.182 210.598 43.182C209.954 43.182 209.394 43.0887 208.918 42.902C208.442 42.706 208.05 42.44 207.742 42.104C207.434 41.7587 207.205 41.3573 207.056 40.9C206.907 40.4333 206.832 39.9247 206.832 39.374ZM211.746 38.618C211.746 38.3847 211.713 38.1653 211.648 37.96C211.583 37.7453 211.485 37.5633 211.354 37.414C211.233 37.2553 211.079 37.134 210.892 37.05C210.715 36.9567 210.5 36.91 210.248 36.91C209.987 36.91 209.758 36.9613 209.562 37.064C209.366 37.1573 209.198 37.2833 209.058 37.442C208.927 37.6007 208.825 37.7827 208.75 37.988C208.675 38.1933 208.624 38.4033 208.596 38.618H211.746ZM217.812 41.81C218.335 41.81 218.732 41.782 219.002 41.726V39.85C218.909 39.822 218.774 39.794 218.596 39.766C218.419 39.738 218.223 39.724 218.008 39.724C217.822 39.724 217.63 39.738 217.434 39.766C217.248 39.794 217.075 39.8453 216.916 39.92C216.767 39.9947 216.646 40.102 216.552 40.242C216.459 40.3727 216.412 40.5407 216.412 40.746C216.412 41.1473 216.538 41.4273 216.79 41.586C217.042 41.7353 217.383 41.81 217.812 41.81ZM217.672 35.496C218.232 35.496 218.704 35.566 219.086 35.706C219.469 35.846 219.772 36.042 219.996 36.294C220.23 36.546 220.393 36.854 220.486 37.218C220.589 37.5727 220.64 37.9647 220.64 38.394V42.832C220.379 42.888 219.982 42.9533 219.45 43.028C218.928 43.112 218.335 43.154 217.672 43.154C217.234 43.154 216.832 43.112 216.468 43.028C216.104 42.944 215.792 42.8087 215.53 42.622C215.278 42.4353 215.078 42.1927 214.928 41.894C214.788 41.5953 214.718 41.2267 214.718 40.788C214.718 40.368 214.798 40.0133 214.956 39.724C215.124 39.4347 215.348 39.2013 215.628 39.024C215.908 38.8373 216.23 38.7067 216.594 38.632C216.968 38.548 217.355 38.506 217.756 38.506C217.943 38.506 218.139 38.52 218.344 38.548C218.55 38.5667 218.769 38.604 219.002 38.66V38.38C219.002 38.184 218.979 37.9973 218.932 37.82C218.886 37.6427 218.802 37.4887 218.68 37.358C218.568 37.218 218.414 37.1107 218.218 37.036C218.032 36.9613 217.794 36.924 217.504 36.924C217.112 36.924 216.753 36.952 216.426 37.008C216.1 37.064 215.834 37.1293 215.628 37.204L215.418 35.832C215.633 35.7573 215.946 35.6827 216.356 35.608C216.767 35.5333 217.206 35.496 217.672 35.496ZM222.631 33.746L224.325 33.466V35.678H226.929V37.092H224.325V40.074C224.325 40.662 224.418 41.082 224.605 41.334C224.791 41.586 225.109 41.712 225.557 41.712C225.865 41.712 226.135 41.6793 226.369 41.614C226.611 41.5487 226.803 41.488 226.943 41.432L227.223 42.776C227.027 42.86 226.77 42.944 226.453 43.028C226.135 43.1213 225.762 43.168 225.333 43.168C224.81 43.168 224.371 43.098 224.017 42.958C223.671 42.818 223.396 42.6173 223.191 42.356C222.985 42.0853 222.841 41.7633 222.757 41.39C222.673 41.0073 222.631 40.5733 222.631 40.088V33.746ZM233.71 43C233.243 42.0387 232.763 40.9373 232.268 39.696C231.783 38.4453 231.339 37.106 230.938 35.678H232.744C232.847 36.0887 232.963 36.532 233.094 37.008C233.234 37.4747 233.379 37.946 233.528 38.422C233.687 38.8887 233.845 39.346 234.004 39.794C234.172 40.2327 234.326 40.6293 234.466 40.984C234.606 40.6293 234.755 40.2327 234.914 39.794C235.073 39.346 235.227 38.8887 235.376 38.422C235.535 37.946 235.684 37.4747 235.824 37.008C235.964 36.532 236.085 36.0887 236.188 35.678H237.938C237.537 37.106 237.089 38.4453 236.594 39.696C236.109 40.9373 235.633 42.0387 235.166 43H233.71ZM241.779 41.81C242.302 41.81 242.698 41.782 242.969 41.726V39.85C242.876 39.822 242.74 39.794 242.563 39.766C242.386 39.738 242.19 39.724 241.975 39.724C241.788 39.724 241.597 39.738 241.401 39.766C241.214 39.794 241.042 39.8453 240.883 39.92C240.734 39.9947 240.612 40.102 240.519 40.242C240.426 40.3727 240.379 40.5407 240.379 40.746C240.379 41.1473 240.505 41.4273 240.757 41.586C241.009 41.7353 241.35 41.81 241.779 41.81ZM241.639 35.496C242.199 35.496 242.67 35.566 243.053 35.706C243.436 35.846 243.739 36.042 243.963 36.294C244.196 36.546 244.36 36.854 244.453 37.218C244.556 37.5727 244.607 37.9647 244.607 38.394V42.832C244.346 42.888 243.949 42.9533 243.417 43.028C242.894 43.112 242.302 43.154 241.639 43.154C241.2 43.154 240.799 43.112 240.435 43.028C240.071 42.944 239.758 42.8087 239.497 42.622C239.245 42.4353 239.044 42.1927 238.895 41.894C238.755 41.5953 238.685 41.2267 238.685 40.788C238.685 40.368 238.764 40.0133 238.923 39.724C239.091 39.4347 239.315 39.2013 239.595 39.024C239.875 38.8373 240.197 38.7067 240.561 38.632C240.934 38.548 241.322 38.506 241.723 38.506C241.91 38.506 242.106 38.52 242.311 38.548C242.516 38.5667 242.736 38.604 242.969 38.66V38.38C242.969 38.184 242.946 37.9973 242.899 37.82C242.852 37.6427 242.768 37.4887 242.647 37.358C242.535 37.218 242.381 37.1107 242.185 37.036C241.998 36.9613 241.76 36.924 241.471 36.924C241.079 36.924 240.72 36.952 240.393 37.008C240.066 37.064 239.8 37.1293 239.595 37.204L239.385 35.832C239.6 35.7573 239.912 35.6827 240.323 35.608C240.734 35.5333 241.172 35.496 241.639 35.496ZM249.23 43.14C248.726 43.1307 248.306 43.0747 247.97 42.972C247.643 42.8693 247.382 42.7247 247.186 42.538C246.99 42.342 246.85 42.104 246.766 41.824C246.691 41.5347 246.654 41.208 246.654 40.844V32.416L248.348 32.136V40.522C248.348 40.7273 248.362 40.9 248.39 41.04C248.427 41.18 248.488 41.3013 248.572 41.404C248.656 41.4973 248.768 41.572 248.908 41.628C249.057 41.6747 249.244 41.712 249.468 41.74L249.23 43.14ZM256.844 42.776C256.517 42.86 256.092 42.944 255.57 43.028C255.047 43.1213 254.473 43.168 253.848 43.168C253.26 43.168 252.765 43.084 252.364 42.916C251.972 42.748 251.654 42.5147 251.412 42.216C251.178 41.9173 251.01 41.5627 250.908 41.152C250.805 40.732 250.754 40.2747 250.754 39.78V35.678H252.448V39.514C252.448 40.298 252.56 40.858 252.784 41.194C253.017 41.53 253.418 41.698 253.988 41.698C254.193 41.698 254.408 41.6887 254.632 41.67C254.865 41.6513 255.038 41.628 255.15 41.6V35.678H256.844V42.776ZM258.594 39.374C258.594 38.73 258.687 38.1653 258.874 37.68C259.07 37.1947 259.327 36.7933 259.644 36.476C259.961 36.1493 260.325 35.9067 260.736 35.748C261.147 35.58 261.567 35.496 261.996 35.496C263.004 35.496 263.788 35.8087 264.348 36.434C264.917 37.0593 265.202 37.9927 265.202 39.234C265.202 39.3273 265.197 39.4347 265.188 39.556C265.188 39.668 265.183 39.7707 265.174 39.864H260.344C260.391 40.452 260.596 40.9093 260.96 41.236C261.333 41.5533 261.87 41.712 262.57 41.712C262.981 41.712 263.354 41.6747 263.69 41.6C264.035 41.5253 264.306 41.446 264.502 41.362L264.726 42.748C264.633 42.7947 264.502 42.846 264.334 42.902C264.175 42.9487 263.989 42.9907 263.774 43.028C263.569 43.0747 263.345 43.112 263.102 43.14C262.859 43.168 262.612 43.182 262.36 43.182C261.716 43.182 261.156 43.0887 260.68 42.902C260.204 42.706 259.812 42.44 259.504 42.104C259.196 41.7587 258.967 41.3573 258.818 40.9C258.669 40.4333 258.594 39.9247 258.594 39.374ZM263.508 38.618C263.508 38.3847 263.475 38.1653 263.41 37.96C263.345 37.7453 263.247 37.5633 263.116 37.414C262.995 37.2553 262.841 37.134 262.654 37.05C262.477 36.9567 262.262 36.91 262.01 36.91C261.749 36.91 261.52 36.9613 261.324 37.064C261.128 37.1573 260.96 37.2833 260.82 37.442C260.689 37.6007 260.587 37.7827 260.512 37.988C260.437 38.1933 260.386 38.4033 260.358 38.618H263.508ZM268.832 41.782C269.28 41.782 269.607 41.7307 269.812 41.628C270.017 41.516 270.12 41.3293 270.12 41.068C270.12 40.8253 270.008 40.6247 269.784 40.466C269.569 40.3073 269.21 40.1347 268.706 39.948C268.398 39.836 268.113 39.7193 267.852 39.598C267.6 39.4673 267.381 39.318 267.194 39.15C267.007 38.982 266.858 38.7813 266.746 38.548C266.643 38.3053 266.592 38.0113 266.592 37.666C266.592 36.994 266.839 36.4667 267.334 36.084C267.829 35.692 268.501 35.496 269.35 35.496C269.779 35.496 270.19 35.538 270.582 35.622C270.974 35.6967 271.268 35.7713 271.464 35.846L271.156 37.218C270.969 37.134 270.731 37.0593 270.442 36.994C270.153 36.9193 269.817 36.882 269.434 36.882C269.089 36.882 268.809 36.9427 268.594 37.064C268.379 37.176 268.272 37.3533 268.272 37.596C268.272 37.7173 268.291 37.8247 268.328 37.918C268.375 38.0113 268.449 38.1 268.552 38.184C268.655 38.2587 268.79 38.338 268.958 38.422C269.126 38.4967 269.331 38.576 269.574 38.66C269.975 38.8093 270.316 38.9587 270.596 39.108C270.876 39.248 271.105 39.4113 271.282 39.598C271.469 39.7753 271.604 39.9807 271.688 40.214C271.772 40.4473 271.814 40.7273 271.814 41.054C271.814 41.754 271.553 42.286 271.03 42.65C270.517 43.0047 269.779 43.182 268.818 43.182C268.174 43.182 267.656 43.126 267.264 43.014C266.872 42.9113 266.597 42.8273 266.438 42.762L266.732 41.348C266.984 41.4507 267.283 41.5487 267.628 41.642C267.983 41.7353 268.384 41.782 268.832 41.782ZM279.646 32.136C280.038 32.136 280.383 32.1733 280.682 32.248C280.981 32.3133 281.205 32.374 281.354 32.43L281.032 33.83C280.873 33.7553 280.687 33.6947 280.472 33.648C280.267 33.6013 280.043 33.578 279.8 33.578C279.529 33.578 279.301 33.62 279.114 33.704C278.927 33.7787 278.778 33.886 278.666 34.026C278.554 34.166 278.475 34.3387 278.428 34.544C278.381 34.74 278.358 34.9547 278.358 35.188V35.678H281.018V37.092H278.358V43H276.664V35.16C276.664 34.2173 276.911 33.48 277.406 32.948C277.901 32.4067 278.647 32.136 279.646 32.136ZM288.755 39.332C288.755 39.9107 288.671 40.438 288.503 40.914C288.335 41.39 288.097 41.796 287.789 42.132C287.481 42.468 287.107 42.7293 286.669 42.916C286.239 43.1027 285.763 43.196 285.241 43.196C284.718 43.196 284.242 43.1027 283.813 42.916C283.383 42.7293 283.015 42.468 282.707 42.132C282.399 41.796 282.156 41.39 281.979 40.914C281.811 40.438 281.727 39.9107 281.727 39.332C281.727 38.7533 281.811 38.2307 281.979 37.764C282.156 37.288 282.399 36.882 282.707 36.546C283.024 36.21 283.397 35.9533 283.827 35.776C284.256 35.5893 284.727 35.496 285.241 35.496C285.754 35.496 286.225 35.5893 286.655 35.776C287.093 35.9533 287.467 36.21 287.775 36.546C288.083 36.882 288.321 37.288 288.489 37.764C288.666 38.2307 288.755 38.7533 288.755 39.332ZM287.019 39.332C287.019 38.604 286.86 38.03 286.543 37.61C286.235 37.1807 285.801 36.966 285.241 36.966C284.681 36.966 284.242 37.1807 283.925 37.61C283.617 38.03 283.463 38.604 283.463 39.332C283.463 40.0693 283.617 40.6527 283.925 41.082C284.242 41.5113 284.681 41.726 285.241 41.726C285.801 41.726 286.235 41.5113 286.543 41.082C286.86 40.6527 287.019 40.0693 287.019 39.332ZM294.672 37.204C294.532 37.1573 294.336 37.1107 294.084 37.064C293.841 37.008 293.557 36.98 293.23 36.98C293.043 36.98 292.843 36.9987 292.628 37.036C292.423 37.0733 292.278 37.106 292.194 37.134V43H290.5V36.028C290.827 35.9067 291.233 35.7947 291.718 35.692C292.213 35.58 292.759 35.524 293.356 35.524C293.468 35.524 293.599 35.5333 293.748 35.552C293.897 35.5613 294.047 35.58 294.196 35.608C294.345 35.6267 294.49 35.6547 294.63 35.692C294.77 35.72 294.882 35.748 294.966 35.776L294.672 37.204ZM305.392 35.678C304.636 38.4593 303.759 40.9793 302.76 43.238C302.573 43.658 302.382 44.0173 302.186 44.316C301.99 44.6147 301.771 44.862 301.528 45.058C301.285 45.254 301.015 45.394 300.716 45.478C300.417 45.5713 300.072 45.618 299.68 45.618C299.419 45.618 299.157 45.59 298.896 45.534C298.644 45.478 298.453 45.4173 298.322 45.352L298.63 43.994C298.966 44.1247 299.297 44.19 299.624 44.19C300.063 44.19 300.403 44.0827 300.646 43.868C300.898 43.6627 301.117 43.3407 301.304 42.902C300.772 41.8753 300.259 40.7553 299.764 39.542C299.279 38.3287 298.845 37.0407 298.462 35.678H300.268C300.361 36.07 300.473 36.4947 300.604 36.952C300.744 37.4093 300.893 37.876 301.052 38.352C301.211 38.8187 301.379 39.2853 301.556 39.752C301.733 40.2187 301.911 40.6527 302.088 41.054C302.387 40.2233 302.667 39.3413 302.928 38.408C303.189 37.4653 303.427 36.5553 303.642 35.678H305.392ZM313.296 39.332C313.296 39.9107 313.212 40.438 313.044 40.914C312.876 41.39 312.638 41.796 312.33 42.132C312.022 42.468 311.648 42.7293 311.21 42.916C310.78 43.1027 310.304 43.196 309.782 43.196C309.259 43.196 308.783 43.1027 308.354 42.916C307.924 42.7293 307.556 42.468 307.248 42.132C306.94 41.796 306.697 41.39 306.52 40.914C306.352 40.438 306.268 39.9107 306.268 39.332C306.268 38.7533 306.352 38.2307 306.52 37.764C306.697 37.288 306.94 36.882 307.248 36.546C307.565 36.21 307.938 35.9533 308.368 35.776C308.797 35.5893 309.268 35.496 309.782 35.496C310.295 35.496 310.766 35.5893 311.196 35.776C311.634 35.9533 312.008 36.21 312.316 36.546C312.624 36.882 312.862 37.288 313.03 37.764C313.207 38.2307 313.296 38.7533 313.296 39.332ZM311.56 39.332C311.56 38.604 311.401 38.03 311.084 37.61C310.776 37.1807 310.342 36.966 309.782 36.966C309.222 36.966 308.783 37.1807 308.466 37.61C308.158 38.03 308.004 38.604 308.004 39.332C308.004 40.0693 308.158 40.6527 308.466 41.082C308.783 41.5113 309.222 41.726 309.782 41.726C310.342 41.726 310.776 41.5113 311.084 41.082C311.401 40.6527 311.56 40.0693 311.56 39.332ZM321.047 42.776C320.72 42.86 320.296 42.944 319.773 43.028C319.25 43.1213 318.676 43.168 318.051 43.168C317.463 43.168 316.968 43.084 316.567 42.916C316.175 42.748 315.858 42.5147 315.615 42.216C315.382 41.9173 315.214 41.5627 315.111 41.152C315.008 40.732 314.957 40.2747 314.957 39.78V35.678H316.651V39.514C316.651 40.298 316.763 40.858 316.987 41.194C317.22 41.53 317.622 41.698 318.191 41.698C318.396 41.698 318.611 41.6887 318.835 41.67C319.068 41.6513 319.241 41.628 319.353 41.6V35.678H321.047V42.776ZM325.107 42.076C325.107 42.4027 324.995 42.6687 324.771 42.874C324.556 43.0793 324.295 43.182 323.987 43.182C323.67 43.182 323.404 43.0793 323.189 42.874C322.974 42.6687 322.867 42.4027 322.867 42.076C322.867 41.7493 322.974 41.4833 323.189 41.278C323.404 41.0633 323.67 40.956 323.987 40.956C324.295 40.956 324.556 41.0633 324.771 41.278C324.995 41.4833 325.107 41.7493 325.107 42.076Z" fill="#484751"/>
</g>
<defs>
<filter id="filter0_d" x="0" y="0" width="351" height="79" filterUnits="userSpaceOnUse" color-interpolation-filters="sRGB">
<feFlood flood-opacity="0" result="BackgroundImageFix"/>
<feColorMatrix in="SourceAlpha" type="matrix" values="0 0 0 0 0 0 0 0 0 0 0 0 0 0 0 0 0 0 127 0" result="hardAlpha"/>
<feOffset dy="2"/>
<feGaussianBlur stdDeviation="1"/>
<feColorMatrix type="matrix" values="0 0 0 0 0 0 0 0 0 0 0 0 0 0 0 0 0 0 0.2 0"/>
<feBlend mode="normal" in2="BackgroundImageFix" result="effect1_dropShadow"/>
<feBlend mode="normal" in="SourceGraphic" in2="effect1_dropShadow" result="shape"/>
</filter>
</defs>
</svg>
