<svg width="182" height="147" viewBox="0 0 182 147" fill="none" xmlns="http://www.w3.org/2000/svg">
<g clip-path="url(#clip0)">
<path d="M161.898 124.872C152.982 121.27 142.365 119.004 132.73 119.505C138.982 108.102 142.303 95.4184 144.076 82.3944C145.052 75.216 145.052 67.9852 143.467 60.9018C142.719 57.5713 140.956 51.2018 136.614 51.5751C133.036 51.8862 130.531 58.5047 129.087 61.0263C124.842 68.4601 121.969 76.6832 118.749 84.6049C115.483 92.482 113.691 100.899 113.463 109.431C113.388 112.549 112.939 115.873 112.952 119.122C110.441 118.996 107.923 119.066 105.422 119.331C105.338 116.279 105.214 113.266 106.457 110.191C108.099 106.137 106.252 101.903 105.129 97.8942C103.981 93.8006 105.764 95.4806 106.356 93.3094C106.727 91.9471 106.434 90.159 106.167 88.8164C105.107 83.4653 107.41 79.3914 106.226 74.2107C105.383 70.5101 106.713 67.7429 107.13 64.1668C107.192 63.6527 105.78 55.482 105.419 55.9798C105.438 55.947 105.442 55.9208 105.461 55.8913C105.652 55.8457 105.828 55.7533 105.974 55.6225C106.121 55.4917 106.233 55.3264 106.3 55.1414C110.396 45.2253 113.014 25.5534 104.225 16.4986C110.08 18.0934 114.901 21.4108 117.217 28.2159C117.26 28.3606 117.334 28.4937 117.435 28.6055C117.536 28.7173 117.661 28.8048 117.799 28.8617C117.938 28.9186 118.088 28.9434 118.238 28.9342C118.388 28.925 118.533 28.8821 118.664 28.8086C119.24 28.4648 118.964 32.3061 118.931 32.4109C118.908 34.5657 120.574 36.8483 121.114 38.8754C122.35 43.5125 121.605 48.3069 124.165 52.5576C124.542 53.1798 125.603 53.2813 125.951 52.5576C128.228 47.8484 128.371 42.8641 129.477 37.8209C129.825 36.2326 130.183 34.9423 129.734 33.3115C129.503 32.46 125.873 29.326 128.719 29.2409C129 29.2392 129.268 29.1261 129.467 28.9263C129.665 28.7265 129.778 28.4559 129.779 28.1733C129.557 24.6733 128.708 21.2427 127.271 18.0476C131.445 20.5069 137.245 21.9446 138.965 27.1352C139.317 28.1897 140.878 28.0161 140.901 26.8699C141.051 19.5311 133.562 11.2065 128.13 6.96558C121.797 2.01733 114.446 0.415945 106.987 1.82084C107.032 1.69855 107.053 1.56813 107.046 1.43764C107.04 1.30715 107.007 1.17935 106.95 1.06212C106.893 0.944902 106.812 0.840746 106.713 0.756081C106.614 0.671417 106.499 0.608039 106.375 0.569862C102.504 -0.805561 98.2431 0.409396 94.9122 2.55768C92.8206 3.90035 90.4558 6.38921 89.9158 9.04509C86.1392 3.91673 78.2348 4.01169 72.8741 7.63037C69.8262 9.68695 68.138 12.6408 67.3443 16.0597C67.1983 16.0246 67.0452 16.0349 66.9052 16.0892C61.4241 18.1556 59.7489 25.9137 59.1796 31.0846C58.2916 39.1374 58.952 48.5754 63.9841 55.2167C64.6672 56.1173 66.0464 55.8488 66.1212 54.6338C66.5604 47.7141 66.1863 41.1285 68.7593 34.6967C69.9466 39.3535 71.3973 43.6828 72.3049 46.9118C72.3673 47.1194 72.4879 47.3045 72.6523 47.4448C72.8166 47.585 73.0177 47.6746 73.2314 47.7026C73.4451 47.7306 73.6622 47.6959 73.8568 47.6027C74.0513 47.5095 74.215 47.3617 74.3282 47.1771C78.3324 41.1809 75.5154 33.4228 78.8821 27.2793C79.1228 30.4067 79.9491 33.5505 80.7298 36.3669C81.4779 39.0588 81.338 42.7331 82.7725 45.2089C83.5695 46.5778 85.0105 46.581 84.6625 48.3429C83.7484 52.98 87.8014 59.9325 90.9404 63.1811C91.0536 63.3032 91.197 63.3927 91.356 63.4405C91.5149 63.4883 91.6836 63.4925 91.8447 63.4529C91.7309 64.1766 91.617 64.9036 91.5194 65.6372C91.4713 65.8174 91.4708 66.0072 91.5182 66.1876C91.5656 66.368 91.6591 66.5328 91.7894 66.6655C93.5785 68.0737 89.6946 75.74 89.5515 77.8392C89.5506 78.0699 89.6254 78.2944 89.7642 78.478C89.903 78.6615 90.098 78.7938 90.3191 78.8544C94.5739 80.0595 89.7369 89.4844 89.3693 91.8718C89.2848 92.4121 89.4962 93.0376 90.1012 93.1817C93.0288 93.8137 88.4488 104.339 88.0129 105.878C87.8566 106.411 87.767 106.961 87.7461 107.516C87.4046 106.923 87.0305 106.327 86.6304 105.688C84.8088 102.777 83.5109 100.524 83.1141 96.9215C83.0295 96.1618 82.4277 95.6968 81.9528 95.1269C80.7753 93.7155 76.8361 92.8673 77.8217 89.9822C78.0446 89.3142 78.011 88.5863 77.7274 87.942C77.0996 86.8711 76.101 86.4487 75.0698 85.9149C70.8736 83.7306 72.6822 83.7207 71.9536 81.055C71.0135 77.6165 65.6561 79.7451 65.1226 74.8132C64.7648 71.45 58.4608 72.7698 58.669 68.5256C58.667 68.3032 58.5938 68.0875 58.4601 67.9104C58.3265 67.7334 58.1396 67.6046 57.9273 67.5432C56.4245 66.6917 54.9206 65.8413 53.4156 64.9921C53.2613 64.8235 53.05 64.719 52.8232 64.699C52.5964 64.679 52.3703 64.745 52.1893 64.884C52.3115 64.7554 52.3792 64.5839 52.3779 64.4059C52.4105 60.8036 50.7808 57.4076 48.5949 54.4766C49.5826 55.0709 50.4817 55.803 51.2655 56.6511C52.4625 57.9414 53.7246 58.7896 55.3023 58.6749C55.9528 61.547 58.2005 63.9146 60.3019 65.8795C60.4784 66.0258 60.7038 66.0985 60.9319 66.0826C61.1599 66.0668 61.3733 65.9637 61.5282 65.7944C61.7201 66.2758 61.9153 66.7539 62.104 67.2222C62.4585 68.0999 63.7792 67.7888 63.5482 66.8227C61.4436 57.9807 56.1708 46.3977 46.0219 46.3977C47.1251 45.7054 48.3651 45.264 49.6553 45.1041C51.7827 44.8487 53.91 44.7439 56.0081 44.2821C58.8186 43.6665 59.5179 41.3806 57.1726 39.5336C54.5021 37.4378 49.909 37.7914 46.705 38.4955C46.7068 38.3521 46.6775 38.2101 46.619 38.0794C46.5605 37.9486 46.4743 37.8324 46.3664 37.7387C46.2585 37.6451 46.1316 37.5764 45.9945 37.5374C45.8575 37.4984 45.7136 37.4901 45.573 37.5131C44.456 37.7185 43.365 38.048 42.3201 38.4955C41.1394 38.2401 39.8838 38.8983 38.6997 40.0183C38.3913 39.0342 37.8114 38.1586 37.0278 37.4934C36.8455 37.3144 36.6009 37.2142 36.3463 37.2142C36.0917 37.2142 35.8471 37.3144 35.6648 37.4934C33.7359 39.311 29.6666 45.055 30.4212 48.5721C25.8445 46.3747 20.1292 45.6248 15.7834 47.8517C10.4065 50.5632 1.41236 55.9863 0.0298999 62.382C-0.201052 63.4464 0.956961 64.0194 1.7474 63.3874C7.43012 58.783 13.3145 55.5278 20.8318 56.3465C20.9865 56.3609 21.1411 56.3191 21.2677 56.2287C21.3845 56.3356 21.536 56.3961 21.6939 56.3989C21.902 56.3989 22.1135 56.4284 22.3249 56.4481C21.6776 56.8659 21.0563 57.323 20.4643 57.8169C17.052 60.6824 15.2337 65.11 13.5227 69.0856C13.441 69.2369 13.3991 69.4067 13.401 69.5789C13.403 69.7511 13.4487 69.92 13.5338 70.0694C13.6189 70.2187 13.7406 70.3437 13.8873 70.4323C14.034 70.5209 14.2007 70.5703 14.3717 70.5756C14.6742 70.592 14.98 70.6215 15.289 70.6444C10.735 78.5695 13.617 88.0599 21.7524 92.5529C21.9021 92.6454 22.0814 92.6766 22.2532 92.64C22.4251 92.6035 22.5764 92.502 22.6762 92.3564C23.2715 92.5366 24.0684 91.9798 23.857 91.2365C22.6722 87.1723 22.5601 82.8674 23.5317 78.7463C23.59 78.5303 23.5761 78.301 23.492 78.0939C23.4079 77.8867 23.2584 77.7132 23.0666 77.6001C22.277 77.2769 21.505 76.9118 20.7538 76.5063C20.4285 76.3459 23.6586 73.3265 23.8342 73.1562C26.0266 71.0734 27.819 68.4011 29.826 66.0564C30.5567 65.4921 31.2203 64.8449 31.8037 64.1275C31.5793 64.9888 31.3483 65.8599 31.0946 66.7277C31.0564 66.8724 31.0516 67.0239 31.0805 67.1708C31.1094 67.3176 31.1712 67.4559 31.2613 67.575C31.3513 67.6941 31.4673 67.7909 31.6002 67.8581C31.7331 67.9252 31.8795 67.9609 32.0281 67.9623C35.6681 67.7003 32.76 70.3988 33.5147 72.8156C34.6207 76.3753 37.1904 78.5138 39.7374 81.1238C45.0623 86.5829 52.7325 90.2376 60.2856 87.8896C60.4688 87.8335 60.6321 87.7255 60.7558 87.5784C60.8795 87.4313 60.9585 87.2513 60.9832 87.0602C61.0079 86.869 60.9773 86.6748 60.8952 86.5007C60.813 86.3266 60.6826 86.18 60.5198 86.0786C53.7799 81.3498 48.3477 76.2083 45.0363 69.7438C45.5741 70.0028 46.135 70.21 46.7115 70.3628C47.6873 70.6346 48.6177 71.0439 49.5642 71.3649C50.0229 72.5176 50.4653 73.6572 50.9012 74.8362C50.9518 74.9776 51.0325 75.1061 51.1377 75.2128C51.2428 75.3195 51.3699 75.4018 51.5099 75.4539C51.65 75.506 51.7997 75.5266 51.9485 75.5144C52.0973 75.5022 52.2416 75.4573 52.3714 75.3831C52.3923 75.4203 52.4151 75.4563 52.4398 75.4911C53.858 77.1482 54.0955 79.601 55.3283 81.4349C56.2781 82.8529 57.7907 83.164 59.3228 83.5898C59.5034 83.6423 59.6951 83.6423 59.8758 83.5898C60.4548 85.9542 62.091 88.5183 62.8196 90.0411C62.8858 90.1556 62.9738 90.2557 63.0786 90.3357C63.1835 90.4157 63.303 90.474 63.4304 90.5072C63.5577 90.5404 63.6903 90.5478 63.8205 90.5291C63.9508 90.5104 64.076 90.4658 64.189 90.3981L64.3712 90.2671C64.8201 91.4329 65.4381 92.5759 65.9683 93.6729C66.8173 95.4118 67.8225 97.1344 69.1887 98.5164C69.3758 98.696 69.6202 98.8028 69.8783 98.8177C69.7156 101.166 70.4768 103.73 71.1273 106.058C71.188 106.267 71.3137 106.451 71.4858 106.582C71.658 106.714 71.8676 106.786 72.0837 106.789C72.5089 106.792 72.9339 106.766 73.3556 106.71C74.5233 110.014 75.3691 113.479 74.6762 116.986C74.6345 117.151 74.6304 117.324 74.6642 117.491C74.698 117.658 74.7689 117.815 74.8715 117.95C74.9741 118.086 75.1058 118.196 75.2568 118.273C75.4077 118.35 75.574 118.391 75.7431 118.395H75.8895C75.7008 119.875 75.6073 121.366 75.6098 122.858C69.6018 122.626 62.9985 126.113 58.7991 130.145C58.5893 130.357 58.4716 130.644 58.4716 130.944C58.4716 131.243 58.5893 131.53 58.7991 131.743C62.774 135.571 68.2779 136.137 73.5149 136.825C83.8395 138.184 94.0306 138.643 104.443 138.662C114.273 138.706 124.099 138.193 133.872 137.123L134.317 137.074C140.328 136.39 146.48 136.334 152.478 135.489H152.514L153.06 135.407C154.319 135.211 155.5 134.998 156.593 134.772L156.781 134.733C161.205 133.803 164.201 132.633 165.434 131.209C166.192 131.536 166.735 131.651 166.924 131.474C170.29 128.281 164.191 125.802 161.898 124.872ZM44.711 67.5956C44.6034 67.5454 44.4863 67.5194 44.3678 67.5194C44.2493 67.5194 44.1322 67.5454 44.0246 67.5956C42.5288 63.981 41.6819 60.128 41.5232 56.2156C43.4749 58.2263 44.9777 61.4553 45.8592 63.1418C46.7993 64.9266 47.6418 66.7605 48.4355 68.614C47.1474 68.2931 45.7682 68.1195 44.711 67.5956Z" fill="white"/>
<path d="M86.2363 17.7992C84.6652 22.2333 84.2163 26.7624 84.0341 31.4356C83.9853 32.7029 85.9013 32.6833 85.9858 31.4356C86.2558 26.9884 86.3924 22.4953 87.661 18.1922C87.9213 17.272 86.5518 16.9183 86.2363 17.7992Z" fill="#333184"/>
<path d="M100.825 24.2694C102.494 26.7091 103.102 29.8366 104.276 32.5285C104.686 33.4618 106.131 32.7905 105.87 31.8539C105.047 28.8476 104.244 25.8937 102.657 23.192C101.001 20.3887 98.0538 18.509 95.8646 16.1642C95.2986 15.5584 94.1926 16.3804 94.7001 17.0714C96.564 19.6355 99.0524 21.6594 100.825 24.2694Z" fill="#333184"/>
<path d="M94.8231 71.5443C94.8271 72.831 94.5657 74.1045 94.0555 75.2842C93.6716 76.1487 94.9045 76.9216 95.3403 76.0374C96.002 74.635 96.3294 73.0965 96.2967 71.5443C96.2967 70.5881 94.8231 70.5881 94.8231 71.5443Z" fill="#333184"/>
<path d="M95.7565 58.5106C95.2162 60.4318 94.9028 62.4103 94.8229 64.4053C94.7839 65.4696 96.4819 65.7152 96.6836 64.6607C97.0349 62.7876 97.1292 60.8816 97.5033 59.0117C97.7505 57.8524 96.072 57.3677 95.7565 58.5106Z" fill="#333184"/>
<path d="M101.044 122.756C101.636 121.004 101.545 119.111 101.441 117.291C101.427 117.051 101.323 116.827 101.15 116.662C100.976 116.498 100.747 116.406 100.509 116.406C100.271 116.406 100.042 116.498 99.8689 116.662C99.6957 116.827 99.5914 117.051 99.5773 117.291C99.4732 119.036 99.2976 120.755 99.0796 122.491C98.9268 123.677 100.7 123.775 101.044 122.756Z" fill="#333184"/>
<path d="M60.2856 87.8929C60.4688 87.8368 60.6321 87.7287 60.7558 87.5816C60.8795 87.4345 60.9585 87.2546 60.9832 87.0635C61.0079 86.8723 60.9773 86.678 60.8952 86.5039C60.813 86.3298 60.6826 86.1833 60.5198 86.0819C53.7799 81.3531 48.3477 76.2116 45.0363 69.7471C45.5741 70.0061 46.135 70.2133 46.7115 70.366C47.6873 70.6378 48.6177 71.0472 49.5642 71.3681C50.0229 72.5209 50.4653 73.6605 50.9012 74.8394C50.9518 74.9808 51.0325 75.1094 51.1377 75.2161C51.2428 75.3228 51.3699 75.4051 51.5099 75.4572C51.65 75.5093 51.7997 75.5299 51.9485 75.5177C52.0973 75.5055 52.2416 75.4606 52.3714 75.3863C52.3923 75.4235 52.4151 75.4596 52.4398 75.4944C53.858 77.1515 54.0955 79.6043 55.3283 81.4382C56.2781 82.8562 57.7907 83.1673 59.3228 83.593C59.5034 83.6456 59.6951 83.6456 59.8758 83.593C60.4548 85.9574 62.091 88.5216 62.8196 90.0444C62.8858 90.1589 62.9738 90.259 63.0786 90.339C63.1835 90.419 63.303 90.4772 63.4304 90.5104C63.5577 90.5436 63.6903 90.5511 63.8205 90.5324C63.9508 90.5136 64.076 90.4691 64.189 90.4014L64.3712 90.2704C64.8201 91.4362 65.4381 92.5791 65.9683 93.6762C66.8173 95.4151 67.8225 97.1377 69.1887 98.5196C69.3758 98.6992 69.6202 98.806 69.8783 98.8209C69.7156 101.169 70.4768 103.733 71.1273 106.062C71.188 106.27 71.3137 106.454 71.4858 106.586C71.658 106.717 71.8676 106.789 72.0837 106.792C72.5089 106.795 72.9339 106.769 73.3556 106.713C74.5233 110.018 75.3691 113.482 74.6762 116.99C74.6345 117.155 74.6304 117.327 74.6642 117.494C74.698 117.661 74.7689 117.818 74.8715 117.953C74.9741 118.089 75.1058 118.199 75.2568 118.276C75.4077 118.353 75.574 118.395 75.7431 118.398H75.8895C75.7008 119.878 75.6073 121.369 75.6098 122.861C69.6018 122.629 62.9985 126.117 58.7991 130.148C58.5893 130.36 58.4716 130.647 58.4716 130.947C58.4716 131.246 58.5893 131.534 58.7991 131.746C62.774 135.574 68.2779 136.141 73.5149 136.828C83.8395 138.188 94.0306 138.646 104.443 138.666C114.423 138.711 124.397 138.181 134.317 137.077C143.477 136.036 152.959 136.452 161.742 133.315C163.043 132.843 162.542 130.822 161.16 131.186C151.57 133.708 141.756 133.832 131.946 134.955C121.96 136.101 111.931 136.295 101.89 136.285C92.3262 136.285 83.0068 135.846 73.5149 134.602C72.9002 134.52 60.1783 131.929 61.4534 130.744C65.1584 127.276 70.6557 125.396 75.6391 124.78C75.7071 126.371 75.869 127.957 76.1237 129.529C76.2148 130.079 76.7743 130.335 77.2492 130.39C80.7869 130.839 84.3671 130.829 87.9023 130.361C88.8521 130.23 90.9567 129.853 91.6756 129.051C91.9325 128.994 92.1574 128.839 92.3034 128.618C95.5888 129.971 102.54 130.423 104.583 126.981C105.162 127.017 105.741 127.033 106.323 127.033C107.449 127.033 107.449 125.272 106.323 125.272C105.93 125.272 105.546 125.272 105.159 125.291C105.253 124.754 105.312 124.217 105.36 123.683C107.657 124.089 110.025 124.03 112.354 123.893C112.578 123.889 112.793 123.805 112.961 123.656C113.13 123.507 113.241 123.304 113.274 123.081C113.419 123.944 113.637 124.793 113.925 125.619C113.405 125.586 112.887 125.553 112.367 125.54C111.287 125.507 111.32 127.109 112.367 127.204C117.861 127.688 123.231 129.329 128.732 129.607C129.675 129.657 129.91 128.065 128.956 127.931C128.407 127.852 127.85 127.764 127.298 127.672C127.532 127.585 127.736 127.43 127.883 127.227C128.052 126.994 128.208 126.752 128.371 126.516C129.401 126.88 130.455 127.17 131.526 127.384C132.551 127.541 133.019 126.008 131.965 125.789C131.068 125.602 130.183 125.36 129.288 125.17C129.64 124.63 129.991 124.086 130.332 123.533C130.376 123.56 130.423 123.582 130.472 123.598C132.749 124.227 134.974 125.059 137.346 125.111C138.357 125.131 138.611 123.5 137.59 123.307C135.446 122.901 133.286 122.531 131.129 122.223C131.357 121.84 131.598 121.466 131.822 121.083C139.453 121.594 146.489 123.048 153.922 124.685C155.256 124.98 166.673 128.455 165.47 129.945C164.637 130.97 165.941 132.358 166.937 131.422C170.316 128.235 164.204 125.756 161.911 124.826C152.995 121.224 142.378 118.958 132.743 119.459C138.995 108.056 142.316 95.3725 144.089 82.3486C145.065 75.1702 145.065 67.9394 143.48 60.856C142.732 57.5255 140.969 51.156 136.627 51.5293C133.049 51.8404 130.544 58.4588 129.1 60.9804C124.855 68.4142 121.982 76.6373 118.762 84.5591C115.486 92.4496 113.69 100.882 113.463 109.431C113.388 112.549 112.939 115.873 112.952 119.122C110.441 118.996 107.923 119.066 105.422 119.331C105.338 116.279 105.214 113.266 106.457 110.191C108.099 106.137 106.252 101.903 105.129 97.8942C103.981 93.8006 105.764 95.4806 106.356 93.3094C106.727 91.9471 106.434 90.159 106.167 88.8164C105.107 83.4653 107.41 79.3914 106.226 74.2107C105.383 70.5101 106.713 67.7429 107.13 64.1668C107.192 63.6527 105.78 55.482 105.419 55.9798C105.438 55.947 105.442 55.9208 105.461 55.8913C105.652 55.8457 105.828 55.7533 105.974 55.6225C106.121 55.4917 106.233 55.3264 106.3 55.1414C110.396 45.2253 113.014 25.5534 104.225 16.4986C110.08 18.0934 114.901 21.4108 117.217 28.2159C117.26 28.3606 117.334 28.4937 117.435 28.6055C117.536 28.7173 117.661 28.8048 117.799 28.8617C117.938 28.9186 118.088 28.9434 118.238 28.9342C118.388 28.925 118.533 28.8821 118.664 28.8086C119.24 28.4648 118.964 32.3061 118.931 32.4109C118.908 34.5657 120.574 36.8483 121.114 38.8754C122.35 43.5125 121.605 48.3069 124.165 52.5576C124.542 53.1798 125.603 53.2813 125.951 52.5576C128.228 47.8484 128.371 42.8641 129.477 37.8209C129.825 36.2326 130.183 34.9423 129.734 33.3115C129.503 32.46 125.873 29.326 128.719 29.2409C129 29.2392 129.268 29.1261 129.467 28.9263C129.665 28.7265 129.778 28.4559 129.779 28.1733C129.557 24.6733 128.708 21.2427 127.271 18.0476C131.445 20.5069 137.245 21.9446 138.965 27.1352C139.317 28.1897 140.878 28.0161 140.901 26.8699C141.051 19.5311 133.562 11.2065 128.13 6.96558C121.797 2.01733 114.446 0.415945 106.987 1.82084C107.032 1.69855 107.053 1.56813 107.046 1.43764C107.04 1.30715 107.007 1.17935 106.95 1.06212C106.893 0.944902 106.812 0.840746 106.713 0.756081C106.614 0.671417 106.499 0.608039 106.375 0.569862C102.504 -0.805561 98.2431 0.409396 94.9122 2.55768C92.8206 3.90035 90.4558 6.38921 89.9158 9.04509C86.1392 3.91673 78.2348 4.01169 72.8741 7.63037C69.8262 9.68695 68.138 12.6408 67.3443 16.0597C67.1983 16.0246 67.0452 16.0349 66.9052 16.0892C61.4241 18.1556 59.7489 25.9137 59.1796 31.0846C58.2916 39.1374 58.952 48.5754 63.9841 55.2167C64.6672 56.1173 66.0464 55.8488 66.1212 54.6338C66.5604 47.7141 66.1863 41.1285 68.7593 34.6967C69.9466 39.3535 71.3973 43.6828 72.3049 46.9118C72.3673 47.1194 72.4879 47.3045 72.6523 47.4448C72.8166 47.585 73.0177 47.6746 73.2314 47.7026C73.4451 47.7306 73.6622 47.6959 73.8568 47.6027C74.0513 47.5095 74.215 47.3617 74.3282 47.1771C78.3324 41.1809 75.5154 33.4228 78.8821 27.2793C79.1228 30.4067 79.9491 33.5505 80.7298 36.3669C81.4779 39.0588 81.338 42.7331 82.7725 45.2089C83.5695 46.5778 85.0105 46.581 84.6625 48.3429C83.7484 52.98 87.8014 59.9325 90.9404 63.1811C91.0536 63.3032 91.197 63.3927 91.356 63.4405C91.5149 63.4883 91.6836 63.4925 91.8447 63.4529C91.7309 64.1766 91.617 64.9036 91.5194 65.6372C91.4713 65.8174 91.4708 66.0072 91.5182 66.1876C91.5656 66.368 91.6591 66.5328 91.7894 66.6655C93.5785 68.0737 89.6946 75.74 89.5515 77.8392C89.5506 78.0699 89.6254 78.2944 89.7642 78.478C89.903 78.6615 90.098 78.7938 90.3191 78.8544C94.5739 80.0595 89.7369 89.4844 89.3693 91.8718C89.2848 92.4121 89.4962 93.0376 90.1012 93.1817C93.0288 93.8137 88.4488 104.339 88.0129 105.878C87.8566 106.411 87.767 106.961 87.7461 107.516C87.4046 106.923 87.0305 106.327 86.6304 105.688C84.8088 102.777 83.5109 100.524 83.1141 96.9215C83.0295 96.1618 82.4277 95.6968 81.9528 95.1269C80.7753 93.7155 76.8361 92.8673 77.8217 89.9822C78.0446 89.3142 78.011 88.5863 77.7274 87.942C77.0996 86.8711 76.101 86.4487 75.0698 85.9149C70.8736 83.7306 72.6822 83.7207 71.9536 81.055C71.0135 77.6165 65.6561 79.7451 65.1226 74.8132C64.7648 71.45 58.4608 72.7698 58.669 68.5256C58.667 68.3032 58.5938 68.0875 58.4601 67.9104C58.3265 67.7334 58.1396 67.6046 57.9273 67.5432C56.4245 66.6917 54.9206 65.8413 53.4156 64.9921C53.2613 64.8235 53.05 64.719 52.8232 64.699C52.5964 64.679 52.3703 64.745 52.1893 64.884C52.3115 64.7554 52.3792 64.5839 52.3779 64.4059C52.4105 60.8036 50.7808 57.4076 48.5949 54.4766C49.5826 55.0709 50.4817 55.803 51.2655 56.6511C52.4625 57.9414 53.7246 58.7896 55.3023 58.6749C55.9528 61.547 58.2005 63.9146 60.3019 65.8795C60.4784 66.0258 60.7038 66.0985 60.9319 66.0826C61.1599 66.0668 61.3733 65.9637 61.5282 65.7944C61.7201 66.2758 61.9153 66.7539 62.104 67.2222C62.4585 68.0999 63.7792 67.7888 63.5482 66.8227C61.4436 57.9807 56.1708 46.3944 46.0186 46.3977C47.123 45.7054 48.3641 45.2639 49.6553 45.1041C51.7827 44.8487 53.91 44.7439 56.0081 44.2821C58.8186 43.6665 59.5179 41.3806 57.1726 39.5336C54.5021 37.4378 49.909 37.7914 46.705 38.4955C46.7068 38.3521 46.6775 38.2101 46.619 38.0794C46.5605 37.9486 46.4743 37.8324 46.3664 37.7387C46.2585 37.6451 46.1316 37.5764 45.9945 37.5374C45.8575 37.4984 45.7136 37.4901 45.573 37.5131C44.456 37.7185 43.365 38.048 42.3201 38.4955C41.1394 38.2401 39.8838 38.8983 38.6997 40.0183C38.3913 39.0342 37.8114 38.1586 37.0278 37.4934C36.8455 37.3144 36.6009 37.2142 36.3463 37.2142C36.0917 37.2142 35.8471 37.3144 35.6648 37.4934C33.7359 39.311 29.6666 45.055 30.4212 48.5721C25.8445 46.3747 20.1292 45.6248 15.7834 47.8517C10.4065 50.5632 1.41236 55.9863 0.0298999 62.382C-0.201052 63.4464 0.956961 64.0194 1.7474 63.3874C7.43012 58.783 13.3145 55.5278 20.8318 56.3465C20.9865 56.3609 21.1411 56.3191 21.2677 56.2287C21.3845 56.3356 21.536 56.3961 21.6939 56.3989C21.902 56.3989 22.1135 56.4284 22.3249 56.4481C21.6776 56.8659 21.0563 57.323 20.4643 57.8169C17.052 60.6824 15.2337 65.11 13.5227 69.0856C13.441 69.2369 13.3991 69.4067 13.401 69.5789C13.403 69.7511 13.4487 69.92 13.5338 70.0694C13.6189 70.2187 13.7406 70.3437 13.8873 70.4323C14.034 70.5209 14.2007 70.5703 14.3717 70.5756C14.6742 70.592 14.98 70.6215 15.289 70.6444C10.735 78.5695 13.617 88.0599 21.7524 92.5529C21.9021 92.6454 22.0814 92.6766 22.2532 92.64C22.4251 92.6035 22.5764 92.502 22.6762 92.3564C23.2715 92.5366 24.0684 91.9798 23.857 91.2365C22.6722 87.1723 22.5601 82.8674 23.5317 78.7463C23.59 78.5303 23.5761 78.301 23.492 78.0939C23.4079 77.8867 23.2584 77.7132 23.0666 77.6001C22.277 77.2769 21.505 76.9118 20.7538 76.5063C20.4285 76.3459 23.6586 73.3265 23.8342 73.1562C26.0266 71.0734 27.819 68.4011 29.826 66.0564C30.5567 65.4921 31.2203 64.8449 31.8037 64.1275C31.5793 64.9888 31.3483 65.8599 31.0946 66.7277C31.0564 66.8724 31.0516 67.0239 31.0805 67.1708C31.1094 67.3176 31.1712 67.4559 31.2613 67.575C31.3513 67.6941 31.4673 67.7909 31.6002 67.8581C31.7331 67.9252 31.8795 67.9609 32.0281 67.9623C35.6681 67.7003 32.76 70.3988 33.5147 72.8156C34.6207 76.3753 37.1904 78.5138 39.7374 81.1238C45.0558 86.5862 52.7325 90.2409 60.2856 87.8929ZM115.366 111.075C115.981 104.477 116.462 98.2806 118.355 91.8816C122.061 79.5968 127.308 67.8381 133.969 56.8902C139.457 47.9041 142.296 68.519 142.397 71.4271C142.605 77.6263 141.607 83.8714 140.446 89.92C137.934 102.921 133.432 115.175 125.713 125.966C125.625 126.075 125.559 126.202 125.521 126.338C125.483 126.474 125.473 126.617 125.492 126.757C125.511 126.897 125.558 127.031 125.631 127.152C125.704 127.273 125.801 127.377 125.915 127.459C122.539 126.863 119.149 126.169 115.747 125.805C114.097 121.122 114.917 115.915 115.366 111.075ZM105.455 120.88C107.97 121.147 110.502 121.216 113.027 121.086C113.06 121.538 113.112 121.99 113.17 122.439C113.093 122.288 112.976 122.161 112.832 122.071C112.688 121.982 112.523 121.934 112.354 121.931C110.054 121.817 107.751 121.931 105.451 121.859C105.455 121.532 105.455 121.204 105.455 120.88ZM67.7021 31.7527C64.3354 37.798 64.2281 44.1708 64.0004 50.7859C59.4106 41.3348 58.9324 24.7085 66.98 18.1098C66.7009 20.6248 66.7205 23.1643 67.0385 25.6746L67.0223 25.691C64.9339 27.967 64.5371 30.8881 63.9386 33.8125C63.7174 34.8899 65.295 35.3451 65.5845 34.2677C66.1505 32.1751 66.427 29.9941 67.3606 28.0456C67.5395 29.1656 67.7542 30.2823 67.9916 31.3924C67.8715 31.4912 67.7729 31.6138 67.7021 31.7527ZM44.711 67.5956C44.6034 67.5454 44.4863 67.5194 44.3678 67.5194C44.2493 67.5194 44.1322 67.5454 44.0246 67.5956C42.5288 63.981 41.6819 60.128 41.5232 56.2156C43.4749 58.2263 44.9777 61.4553 45.8592 63.1418C46.7993 64.9266 47.6418 66.7605 48.4355 68.614C47.1474 68.2931 45.7682 68.1195 44.711 67.5956ZM128.179 9.63128C131.51 12.2511 135.843 17.5367 137.84 22.4653C135.088 19.7505 131.643 18.208 127.964 15.9746C127.84 15.8921 127.698 15.8395 127.55 15.8209C127.402 15.8023 127.251 15.8181 127.11 15.8671C126.969 15.9161 126.841 15.9971 126.736 16.1037C126.631 16.2103 126.551 16.3398 126.504 16.4822C123.463 10.6875 118.261 6.34566 112.042 4.41122C110.716 4.00412 109.354 3.72881 107.976 3.58924C115.317 2.54785 121.855 4.66338 128.179 9.64111V9.63128ZM91.2625 11.2228C92.5181 8.3803 93.276 6.2353 95.9205 4.31625C98.5651 2.39721 101.776 1.78482 104.947 2.28587C104.108 2.50528 103.265 2.75089 102.429 3.04562C102.263 3.09934 102.116 3.20303 102.009 3.34287C101.902 3.48271 101.84 3.65205 101.831 3.82831C97.3648 4.74525 93.4224 7.27341 91.2234 11.5012C91.2039 11.4554 91.1812 11.4128 91.1616 11.3669C91.2026 11.3283 91.2367 11.2829 91.2625 11.2327V11.2228ZM78.9016 23.8735C78.7205 23.9256 78.5587 24.0304 78.4365 24.1747C73.5833 29.7976 76.0424 37.3526 73.6581 43.5944C70.8151 33.8518 67.6663 24.4236 70.4735 14.1374C72.9685 5.00724 84.5681 5.13496 89.2847 11.5176C84.4705 9.46426 80.3427 9.06474 76.4685 13.8296C72.5131 18.6796 71.8918 26.0512 71.6185 32.0769C71.5665 33.2427 73.2872 33.2034 73.3978 32.0769C73.8858 27.1254 74.4745 22.2721 76.5694 17.707C78.0527 14.4715 81.0485 11.3047 84.8999 12.1398C85.9636 12.3658 86.8906 12.8439 87.8275 13.2369C85.1113 13.322 82.9482 14.8513 81.0908 17.5138C79.8151 19.4082 79.0619 21.6096 78.9082 23.8931L78.9016 23.8735ZM90.8851 59.7327C88.5626 56.2123 85.8985 50.0523 87.5835 47.3277C87.6501 47.2138 87.6938 47.0879 87.7118 46.957C87.7299 46.8261 87.7221 46.6929 87.6889 46.565C87.6556 46.4372 87.5976 46.3172 87.5181 46.2121C87.4386 46.1069 87.3392 46.0186 87.2257 45.9523C83.1759 44.1413 83.1694 37.4705 82.0894 33.508C80.3199 27.0402 79.9068 13.6167 90.5469 15.3196C90.6045 15.4919 90.7171 15.6402 90.8671 15.7415C91.0171 15.8428 91.1961 15.8913 91.3763 15.8796C92.0269 15.8534 92.4205 15.5751 92.9312 15.1526C95.7481 12.8308 98.5228 10.915 102.039 9.80812C111.882 6.71342 120.525 17.3009 122.025 25.8154C122.207 26.8503 123.807 26.5785 123.807 25.5731C123.807 17.481 117.217 11.1246 110.223 8.21656C103.874 5.59671 97.4624 8.64884 92.4986 12.7293C96.2068 5.13823 105.477 4.4669 112.939 6.83459C118.303 8.52112 122.168 12.8439 124.89 17.5891C126.692 20.7329 129.376 26.6407 124.549 27.574C123.863 27.7083 123.573 28.5925 123.915 29.1557C125.801 32.4306 127.968 34.9292 127.083 39.18C126.325 42.8183 126.162 46.1422 124.968 49.5218C123.414 45.556 123.7 40.9058 122.519 36.8155C121.742 34.1171 120.489 31.792 121.088 28.8348C121.27 28.2148 121.255 27.553 121.046 26.942C120.989 26.743 120.87 26.5677 120.707 26.4426C120.543 26.3174 120.344 26.249 120.138 26.2477C117.21 26.2477 115.678 20.4382 113.04 18.4536C108.284 14.84 102.347 13.1685 96.4182 13.7739C96.2198 13.7739 96.0295 13.8533 95.8892 13.9945C95.7489 14.1358 95.6701 14.3274 95.6701 14.5271C95.6701 14.7269 95.7489 14.9185 95.8892 15.0597C96.0295 15.201 96.2198 15.2803 96.4182 15.2803C97.6521 15.3677 98.8655 15.4965 100.058 15.6668C100.137 15.8359 100.259 15.9807 100.413 16.0859C109.823 22.4391 109.013 39.3961 105.79 50.144C105.217 45.0222 104.593 39.9725 102.657 35.0799C100.442 29.5127 96.6785 24.6005 92.7165 20.1827C92.6245 20.0764 92.5016 20.0019 92.3652 19.9699C92.3652 19.0169 92.3912 18.0639 92.4758 17.1044C92.5961 15.7945 90.5956 15.8272 90.4525 17.1044C89.8475 22.5603 90.6282 27.9866 90.8949 33.4458C90.9209 34.0319 87.7657 35.4106 87.4762 36.809C87.4256 36.9805 87.4225 37.1626 87.4672 37.3358C87.5119 37.5089 87.6028 37.6665 87.7299 37.7914C93.032 42.1535 91.617 52.6231 90.8917 59.7425L90.8851 59.7327ZM89.9451 37.0677C90.716 37.7554 92.1212 36.2392 92.6222 35.2567C92.697 38.6167 93.2207 41.957 93.4647 45.3104C93.4647 45.3432 93.4647 45.3661 93.4647 45.3956C93.0938 42.0061 92.0985 38.9802 89.9451 37.0677ZM90.8038 104.264C91.7016 101.447 92.8857 98.6801 93.2435 95.7492C94.6572 95.9909 96.0961 96.047 97.5242 95.9162C98.461 95.7852 98.4448 94.174 97.5242 94.0299C96.1152 93.8086 94.6873 93.7329 93.263 93.8039C92.9084 92.7854 91.5747 91.112 91.5292 91.4395C91.9944 88.2073 94.4991 84.8899 94.4568 81.5201C95.1891 81.4344 95.9283 81.4267 96.6622 81.4971C97.8007 81.5299 98.9392 81.71 100.068 81.6445C100.327 81.6445 100.575 81.541 100.758 81.3568C100.941 81.1725 101.044 80.9226 101.044 80.6621C101.044 80.4015 100.941 80.1516 100.758 79.9674C100.575 79.7831 100.327 79.6796 100.068 79.6796C98.3016 79.5323 95.9401 79.0738 94.1478 79.7386C93.4224 77.8555 91.5845 77.3087 92.2806 75.0556C92.9767 72.8025 94.3234 70.199 94.2974 67.7036C96.6429 67.9605 99.0071 67.9967 101.359 67.8117C102.66 67.7036 102.677 65.6896 101.359 65.7649C98.9294 65.9057 96.48 65.6994 94.0437 65.9123C93.341 63.335 94.3462 59.6705 95.0553 56.2843C97.007 56.4579 98.9912 56.7494 100.93 56.5005C101.906 56.3727 102.387 54.7353 101.19 54.5618C99.2825 54.2901 97.3533 54.2046 95.4294 54.3063C95.5591 53.5486 95.6352 52.7826 95.6571 52.014C95.6896 50.2783 95.6018 48.5492 95.4684 46.8234C95.5916 46.8835 95.7292 46.9074 95.8653 46.8921C96.2194 46.9394 96.5781 46.9394 96.9322 46.8921C97.5665 46.8463 98.1845 46.7972 98.8156 46.6891C99.7199 46.5286 99.7361 44.9797 98.8156 44.8388C97.986 44.7185 97.1413 44.7597 96.3272 44.96C95.9843 45.0111 95.6617 45.1548 95.3936 45.3759C95.3777 45.393 95.3635 45.4117 95.3513 45.4316C95.052 42.1568 94.6324 38.882 94.5251 35.6071C94.5825 35.6242 94.6413 35.6362 94.7007 35.6432C95.9835 35.7779 97.2757 35.7965 98.5619 35.6988C98.8233 35.6988 99.074 35.5943 99.2588 35.4082C99.4436 35.2221 99.5475 34.9697 99.5475 34.7066C99.5475 34.4434 99.4436 34.191 99.2588 34.0049C99.074 33.8188 98.8233 33.7143 98.5619 33.7143C97.2758 33.6155 95.9836 33.633 94.7007 33.7667C94.6333 33.7722 94.5668 33.7853 94.5023 33.806C94.5023 33.3115 94.5023 32.8235 94.5251 32.3192C94.5706 31.3597 93.4224 31.196 92.9214 31.7789C92.9214 28.7595 92.5734 25.7401 92.4205 22.7109C95.0878 26.3132 97.6413 29.9155 99.7394 33.9468C103.096 40.3654 103.22 47.6683 104.124 54.7026C104.051 54.7388 103.983 54.7851 103.923 54.8401C103.564 55.1879 103.307 55.6288 103.181 56.114C103.137 56.2868 103.138 56.4681 103.184 56.6402C103.23 56.8124 103.32 56.9696 103.444 57.0965C107.634 61.5568 102.469 66.7637 103.324 71.5679C103.679 73.5786 105.042 77.4298 104.105 79.1753C103.952 79.4668 103.249 80.6588 103.22 81.3072C103.116 83.8714 105.009 91.9274 103.194 93.5747C100.624 95.9096 104.056 103.072 104.749 105.466C105.399 107.758 102.748 113.682 102.839 116.6C102.882 117.962 103.191 119.983 103.061 121.872C102.922 122.002 102.832 122.177 102.809 122.366C102.785 122.555 102.828 122.747 102.93 122.907C102.576 124.924 101.519 126.604 98.7766 126.853C96.9907 127.014 94.4991 126.889 92.9475 126.175C92.8113 126.116 92.6661 126.081 92.5181 126.071C92.4921 123.172 92.0562 119.164 90.7745 116.344C90.7745 114.894 90.6412 113.397 90.5078 111.917C92.736 112.336 95.0618 112.991 97.2672 112.732C98.3602 112.605 98.8449 110.826 97.5535 110.62C95.2342 110.237 92.7295 109.661 90.3517 109.765C90.2476 107.837 90.2704 105.963 90.8168 104.264H90.8038ZM60.6369 63.6559C59.0756 61.8122 57.293 59.9292 57.1564 57.4567C57.1206 56.8247 56.5253 56.2418 55.8552 56.4743C53.4839 57.2668 50.9207 53.0914 49.1023 52.0271C47.873 51.3383 46.5385 50.8602 45.1534 50.6123L44.9972 50.4584C44.8226 50.3021 44.6006 50.2098 44.3673 50.1968C44.134 50.1837 43.9031 50.2505 43.7124 50.3864C43.1399 50.3143 42.5836 50.2914 42.0209 50.2587C42.5024 49.6034 43.0239 48.9789 43.5823 48.3887C43.6692 48.4191 43.7603 48.4357 43.8522 48.4379C53.1294 48.1268 57.4394 56.0453 60.6499 63.6527L60.6369 63.6559ZM36.3056 39.5664C36.6886 40.0657 36.9996 40.6169 37.2294 41.2038C37.2682 41.2893 37.3174 41.3696 37.3758 41.4429C35.4469 43.935 33.9473 47.3801 33.7164 49.5611C30.4538 47.2753 33.9571 42.1076 36.3186 39.5631L36.3056 39.5664ZM36.0064 68.1948C36.208 67.3368 35.8014 66.6786 35.0891 66.2627C34.3767 65.8468 33.1731 66.5083 33.6058 65.0608C34.6337 61.619 35.1932 58.4523 36.7253 55.125C37.2392 54.0051 35.6193 53.0193 35.063 54.1426C34.8972 54.4701 34.754 54.7976 34.6044 55.148C30.0081 54.3293 24.667 59.1531 22.7608 63.0075C22.1948 64.1537 23.8342 65.1493 24.4815 64.0194C26.2608 60.9051 30.0732 56.8345 33.9506 56.7461C33.5277 57.889 33.1764 59.0384 32.8446 60.2141C32.7627 60.2275 32.6828 60.2517 32.6072 60.2862C31.8004 60.689 31.2312 61.5208 30.6782 62.2117C30.1151 63.0066 29.46 63.7311 28.7265 64.3699C28.5988 64.4664 28.4943 64.5906 28.4207 64.7334C26.9028 66.1306 25.5156 67.6653 24.2766 69.3181C22.4615 71.8594 19.9243 73.6081 18.2426 76.2149C18.1086 76.4483 18.0718 76.7256 18.14 76.9863C18.2082 77.247 18.3761 77.47 18.6069 77.6067C21.9996 79.5322 20.9034 80.6588 20.7603 84.3331C20.6536 86.4974 20.9754 88.6614 21.7069 90.6994C15.2012 85.8494 12.0882 77.5739 17.6408 70.4938C17.7715 70.3558 17.8595 70.1826 17.8941 69.9951C17.9287 69.8077 17.9084 69.6142 17.8356 69.4382C17.7629 69.2622 17.6408 69.1113 17.4843 69.0039C17.3279 68.8965 17.1438 68.8373 16.9545 68.8334L15.829 68.7319C17.1301 65.8566 18.5418 63.1647 20.5911 60.666C23.5187 57.0899 27.8482 56.1402 31.6215 53.897C32.6397 53.2911 31.7484 51.8469 30.714 52.3283C30.3334 52.5052 29.9658 52.6558 29.5918 52.8359C27.5262 51.2771 24.4132 51.0282 21.9085 50.9038C20.718 50.8481 20.7961 52.5707 21.9085 52.7213C23.1135 52.8744 24.3083 53.0996 25.4867 53.3959C26.0258 53.5507 26.5568 53.7332 27.0773 53.9428C26.1665 54.3489 25.2687 54.7615 24.3937 55.22C24.3518 55.1915 24.3071 55.1673 24.2603 55.148C23.3918 54.9024 22.5656 55.0202 21.6776 55.0366C21.6321 55.041 21.5873 55.0509 21.5442 55.0661C21.5015 54.9648 21.434 54.876 21.3482 54.8079C21.2623 54.7398 21.1608 54.6946 21.053 54.6764C14.479 53.6939 8.86138 56.0813 3.59177 59.5886C6.02164 56.2352 10.5301 53.7496 13.5032 51.4638C19.7877 46.6269 27.6433 48.6704 33.814 52.4462C34.4645 52.8425 35.2127 51.955 34.7508 51.4016C34.9252 51.3922 35.0915 51.3242 35.223 51.2084C35.3545 51.0926 35.4437 50.9358 35.4762 50.763C36.091 47.2262 38.4232 41.1874 42.4665 40.5259C39.5032 42.9198 37.4604 46.8627 36.735 50.2718C36.6725 50.5097 36.7064 50.763 36.8293 50.9758C36.9522 51.1886 37.1541 51.3435 37.3905 51.4065C37.6268 51.4695 37.8784 51.4353 38.0898 51.3116C38.3011 51.1878 38.455 50.9846 38.5176 50.7466C40.1798 46.3944 42.5121 41.5935 47.4174 40.3818C48.9065 40.07 50.4304 39.9599 51.9486 40.0543C52.752 40.0773 58.3957 41.4527 55.4747 42.3107C52.8106 43.0934 49.9448 42.7954 47.2872 43.5649C43.9368 44.5474 41.5785 47.3768 39.9 50.2881C39.8247 50.4127 39.7835 50.5552 39.7807 50.701C39.7779 50.8468 39.8135 50.9908 39.8839 51.1183C39.9543 51.2457 40.057 51.3521 40.1815 51.4266C40.3061 51.5011 40.448 51.5411 40.5929 51.5424C40.6741 51.61 40.7682 51.6602 40.8694 51.6898C42.0274 52.0172 43.1171 52.3152 44.1613 52.6198C47.0075 56.1894 50.7971 59.5133 50.8784 64.3797C50.881 64.5104 50.9178 64.6381 50.9848 64.7501C51.0519 64.862 51.147 64.9543 51.2607 65.0176C51.3743 65.081 51.5024 65.1132 51.6323 65.111C51.7622 65.1088 51.8892 65.0723 52.0006 65.0052C51.9072 65.0951 51.8329 65.2031 51.7821 65.3227C51.7314 65.4423 51.7052 65.571 51.7052 65.7011C51.7052 65.8311 51.7314 65.9599 51.7821 66.0795C51.8329 66.1991 51.9072 66.3071 52.0006 66.397C53.2497 67.6709 56.1252 68.5944 56.6066 70.3431C57.3711 73.1398 63.0148 73.8308 63.2587 76.0315C63.4214 77.5248 63.5385 78.5367 64.9957 79.2179C65.9033 79.6436 66.8108 80.1283 67.7411 80.5278C72.2236 82.3846 68.717 82.8005 69.9238 84.8538C71.0135 86.7303 76.3807 87.8208 75.4048 90.552C74.8649 92.0617 75.8863 93.2734 76.989 94.1281C78.2543 95.1106 80.8599 96.6366 81.0388 98.428C81.3348 101.431 80.3329 98.7554 81.5657 101.958C83.2507 106.337 87.3461 108.423 86.0644 113.748C85.9971 113.994 86.0122 114.256 86.1075 114.492C86.2027 114.729 86.3728 114.928 86.5914 115.057C87.4069 115.559 88.0592 116.29 88.4683 117.16C88.4423 117.487 88.4097 117.815 88.3707 118.182C88.3471 118.319 88.354 118.46 88.391 118.594C88.4281 118.729 88.4942 118.853 88.5847 118.959C88.6753 119.064 88.7879 119.148 88.9146 119.205C89.0413 119.261 89.1788 119.289 89.3173 119.285C90.1142 121.941 90.3517 125.18 90.4363 127.305C89.4799 127.456 88.5236 127.819 87.59 128.003C84.6202 128.582 81.312 128.451 78.2641 128.16C77.6793 124.878 77.5938 121.526 78.0104 118.218C80.6127 117.756 83.1173 116.606 85.6741 115.984C86.6499 115.748 86.3995 114.298 85.4431 114.275C82.5156 114.209 79.9133 115.768 77.0378 116.128C77.3631 112.749 76.5954 109.464 75.3203 106.304C77.3899 105.621 79.2655 104.446 80.7883 102.878C81.3511 102.302 80.6029 101.241 79.9068 101.732C77.7924 103.232 75.4699 104.653 72.8546 104.811C71.9829 101.493 71.0005 98.2609 73.6125 95.4348C74.2956 94.6914 73.3621 93.3094 72.487 93.9709C71.5565 94.6467 70.8294 95.5681 70.3857 96.6334C70.3611 96.6368 70.3371 96.6434 70.3141 96.653C70.4638 96.4663 70.3141 96.2305 69.8392 95.9456C69.6278 95.6411 69.4229 95.33 69.2309 95.0123C68.7398 94.2296 68.3136 93.4044 67.894 92.5857C67.2988 91.4198 66.8011 90.1263 66.0659 89.0292C67.2345 88.1585 68.3582 87.2284 69.4326 86.2424C70.0832 85.6234 69.1984 84.4117 68.4568 84.9652C67.019 86.0459 65.5292 87.0447 64.0589 88.0861C62.7578 85.7151 60.8614 82.9479 62.3154 80.4852C62.7545 79.7353 61.847 78.7299 61.0891 79.2539C60.6984 79.5112 60.3703 79.8539 60.1293 80.2564C59.8883 80.659 59.7404 81.111 59.6968 81.579C59.0463 81.3301 58.3697 81.1566 57.7451 80.8553C56.8929 80.4361 56.3237 79.1229 55.9886 78.2911C55.4942 77.0663 55.0811 75.8874 54.3622 74.8263C54.6434 74.437 54.958 74.0732 55.3023 73.7391C56.0764 73.0055 55.0908 71.8397 54.2028 72.308C53.6722 72.6168 53.2166 73.0408 52.8691 73.5492C52.8709 73.5416 52.8709 73.5338 52.8691 73.5262C52.8785 73.4327 52.8689 73.3382 52.8409 73.2485C52.8129 73.1588 52.7671 73.0757 52.7063 73.0043C52.6454 72.933 52.5708 72.8748 52.487 72.8334C52.4032 72.7919 52.3118 72.7681 52.2186 72.7632C51.9844 72.1082 51.7241 71.4533 51.4704 70.7983C51.4834 70.6639 51.4688 70.5282 51.4273 70.3997C51.3859 70.2713 51.3186 70.1528 51.2297 70.0517C51.2093 70.0294 51.1864 70.0096 51.1614 69.9927C49.7664 66.4586 48.1362 63.0231 46.2821 59.7098C44.698 56.8738 41.6208 51.4245 37.6035 52.7017C36.6602 53.003 36.7773 54.6666 37.8507 54.5225C38.536 54.45 39.227 54.5894 39.8317 54.922C39.5227 68.8858 46.8644 78.8118 57.6085 86.5043C48.3542 87.5556 33.6969 78.0684 36.0194 68.1916L36.0064 68.1948Z" fill="#333184"/>
<path d="M38.6007 55.7178C38.5161 54.755 37.0426 54.7353 37.0849 55.7178C37.3939 63.1516 38.0607 70.9719 43.197 76.7748C44.0297 77.7147 45.3048 76.3622 44.5469 75.4191C40.1068 69.8879 39.1992 62.5818 38.6007 55.7178Z" fill="#333184"/>
<path d="M85.6203 120.136C86.0247 121.454 86.5069 122.747 87.0646 124.007C87.4874 124.891 88.9122 124.269 88.6259 123.352C88.2356 122.108 87.803 120.886 87.3996 119.648C87.0158 118.512 85.2365 119 85.6203 120.136Z" fill="#333184"/>
<path d="M81.9482 121.407C81.9219 122.302 82.0746 123.193 82.3971 124.027C82.4545 124.219 82.5706 124.388 82.7289 124.51C82.8872 124.631 83.0795 124.7 83.2786 124.705C83.3989 124.706 83.5181 124.682 83.6294 124.636C83.7407 124.59 83.8418 124.522 83.9271 124.437C84.0123 124.351 84.0799 124.25 84.126 124.138C84.1722 124.026 84.1959 123.906 84.1959 123.785C84.1113 122.969 83.7991 122.213 83.7503 121.398C83.6755 120.248 81.9677 120.228 81.9482 121.407Z" fill="#333184"/>
<path d="M78.348 107.287C78.0422 106.137 76.2597 106.632 76.5817 107.778C76.8768 108.686 77.2798 109.554 77.782 110.365C78.3545 111.377 79.7598 110.493 79.3011 109.471C78.9258 108.77 78.6071 108.039 78.348 107.287Z" fill="#333184"/>
<path d="M101.102 88.9238C101.362 89.9456 103.054 89.7589 102.963 88.6717C102.835 87.3286 102.535 86.0078 102.071 84.7419C101.671 83.5859 99.8791 84.0542 100.234 85.2528C100.588 86.4514 100.783 87.6991 101.102 88.9238Z" fill="#333184"/>
<path d="M123.612 113.971C123.234 115.33 125.137 115.755 125.645 114.534C129.376 105.558 130.28 95.2845 132.629 85.8367C134.785 77.1224 136.623 68.6439 136.207 59.6185C136.158 58.5804 134.58 58.5673 134.58 59.6185C134.671 69.1154 132.206 78.3865 129.86 87.5297C127.616 96.3194 126.051 105.227 123.612 113.971Z" fill="#333184"/>
<path d="M62.6209 136.138C60.0186 135.607 57.1886 135.434 54.71 134.383C53.3926 133.823 52.794 133.151 53.6951 131.845C54.3456 130.895 55.5329 130.328 56.4958 129.762C57.3448 129.261 58.0539 128.645 58.8541 128.082C59.5795 127.571 58.9126 126.379 58.1515 126.874C56.2323 128.121 53.7471 128.481 52.3614 130.548C51.5124 131.818 51.0147 133.309 52.0361 134.641C54.1635 137.432 59.02 137.396 62.1427 137.893C63.2715 138.077 63.7952 136.37 62.6209 136.138Z" fill="#333184"/>
<path d="M112.354 139.72C99.7748 140.25 85.0459 141.734 72.7339 138.597C71.6767 138.328 71.3221 139.821 72.2947 140.201C77.3724 142.199 82.8697 141.839 88.2337 141.999C96.2975 142.248 104.313 142.549 112.354 141.672C113.573 141.55 113.629 139.664 112.354 139.72Z" fill="#333184"/>
<path d="M140.344 138.755C136.034 138.633 131.744 139.275 127.424 139.223C126.357 139.223 126.376 140.811 127.424 140.877C131.714 141.155 136.06 140.693 140.344 140.48C141.45 140.425 141.457 138.781 140.344 138.755Z" fill="#333184"/>
<path d="M172.151 132.473C167.005 135.646 161.563 136.501 155.636 136.861C155.424 136.861 155.22 136.946 155.07 137.097C154.92 137.248 154.836 137.453 154.836 137.667C154.836 137.88 154.92 138.085 155.07 138.236C155.22 138.387 155.424 138.472 155.636 138.472C161.491 139.108 168.667 137.762 173.345 134.032C174.233 133.324 173.088 131.896 172.151 132.473Z" fill="#333184"/>
<path d="M60.8866 139.59C58.7429 139.333 56.5851 139.214 54.4264 139.236C53.3823 139.255 53.3855 140.831 54.4264 140.873C56.5863 140.945 58.7299 141.237 60.8866 141.394C62.0446 141.459 62.0023 139.714 60.8866 139.59Z" fill="#333184"/>
<path d="M121.171 144.734C119.408 144.947 117.573 145.333 115.797 145.091C114.75 144.943 114.255 146.463 115.348 146.728C117.414 147.242 119.353 146.912 121.421 146.614C122.492 146.46 122.244 144.596 121.171 144.734Z" fill="#333184"/>
<path d="M179.537 138.002C178.236 138.578 176.994 139.364 175.634 139.839C174.554 140.215 175.029 141.958 176.109 141.568C177.602 141.021 178.949 140.15 180.396 139.495C181.417 139.036 180.539 137.569 179.537 138.002Z" fill="#333184"/>
<path d="M179.723 127.466C178.766 126.948 177.769 126.51 176.74 126.156C176.178 125.937 174.977 125.675 174.629 125.131C174.517 124.957 174.342 124.833 174.141 124.785C173.94 124.738 173.729 124.769 173.55 124.874C173.372 124.979 173.241 125.149 173.184 125.349C173.127 125.548 173.148 125.763 173.244 125.947C174.441 128.184 180.992 128.419 179.922 131.576C179.574 132.585 181.193 133.282 181.642 132.303C182.592 130.224 181.542 128.537 179.723 127.466Z" fill="#333184"/>
<path d="M145.085 127.188C143.605 127.188 143.605 129.5 145.085 129.5C146.565 129.5 146.568 127.188 145.085 127.188Z" fill="#333184"/>
<path d="M156.494 129.918C157.958 129.918 157.958 127.626 156.494 127.626C155.03 127.626 155.037 129.918 156.494 129.918Z" fill="#333184"/>
<path d="M102.014 134.114C103.299 134.114 103.299 132.109 102.014 132.109C100.73 132.109 100.73 134.114 102.014 134.114Z" fill="#333184"/>
<path d="M118.166 135.024C119.503 135.024 119.503 132.935 118.166 132.935C116.829 132.935 116.826 135.024 118.166 135.024Z" fill="#333184"/>
<path d="M69.4732 127.252C68.5019 127.446 67.5602 127.767 66.6725 128.209C65.6153 128.733 66.5391 130.268 67.5866 129.781C68.3556 129.465 69.1458 129.204 69.9514 129.001C71.0769 128.664 70.6052 127.023 69.4732 127.252Z" fill="#333184"/>
<path d="M73.1606 130.157C72.6665 130.276 72.1591 130.33 71.6513 130.318C70.5746 130.318 70.5746 132.007 71.6513 132.004C72.3125 132.023 72.9722 131.93 73.603 131.729C74.5788 131.402 74.1787 129.892 73.1606 130.157Z" fill="#333184"/>
<path d="M150.48 124.908C149.137 124.535 147.748 124.358 146.392 124.04C145.279 123.782 144.938 125.291 145.933 125.711C147.304 126.281 148.769 126.585 150.253 126.605C151.232 126.624 151.424 125.167 150.48 124.908Z" fill="#333184"/>
<path d="M86.9421 132.791C87.9179 132.791 87.9179 131.265 86.9421 131.265C85.9662 131.265 85.963 132.791 86.9421 132.791Z" fill="#333184"/>
<path d="M88.8803 131.052C87.9045 131.052 87.9045 132.575 88.8803 132.578H90.8158C91.7916 132.578 91.7916 131.036 90.8158 131.039L88.8803 131.052Z" fill="#333184"/>
<path d="M126.078 78.1082C127.22 75.508 128.108 72.6458 130.145 70.5761C130.795 69.9211 129.819 68.9845 129.146 69.5707C126.752 71.6175 125.542 74.5157 124.511 77.4303C124.185 78.3571 125.688 79.0022 126.078 78.1082Z" fill="#333184"/>
<path d="M131.08 107.951C131.529 110.616 129.129 112.781 128.221 115.093C127.824 116.118 129.353 116.623 129.896 115.804C131.49 113.416 133.435 110.544 132.515 107.551C132.232 106.615 130.931 107.011 131.08 107.951Z" fill="#333184"/>
<path d="M123.611 86.8803C124.225 85.3732 124.734 83.8248 125.134 82.2464C125.394 81.1821 124.07 80.7433 123.478 81.5456C122.502 82.8555 122.245 84.8204 121.679 86.3432C121.224 87.5745 123.124 88.0592 123.611 86.8803Z" fill="#333184"/>
<path d="M139.335 86.0058C140.142 84.4437 140.165 82.6622 139.856 80.9724C139.693 80.0588 138.145 80.2651 138.246 81.1918C138.405 82.6753 137.989 83.8706 137.621 85.2788C137.358 86.294 138.838 86.9752 139.335 86.0058Z" fill="#333184"/>
</g>
<defs>
<clipPath id="clip0">
<rect width="182" height="147" fill="white"/>
</clipPath>
</defs>
</svg>
