<svg width="40" height="32" viewBox="0 0 40 32" fill="none" xmlns="http://www.w3.org/2000/svg">
<g clip-path="url(#clip0)">
<path d="M36.94 24.5942C38.8494 22.7125 39.9951 20.3517 39.9951 17.7756C39.9951 12.2207 34.6833 7.63102 27.7605 6.81167C25.5733 2.81216 20.435 0 14.4427 0C6.46449 0 0 4.97162 0 11.1098C0 13.6789 1.14569 16.0397 3.05518 17.9284C1.99281 20.0601 0.465221 21.7126 0.437447 21.7404C0.222998 21.9687 0.0799155 22.2547 0.0257827 22.5632C-0.0283502 22.8717 0.0088253 23.1893 0.13274 23.4769C0.256656 23.7646 0.461912 24.0098 0.723284 24.1824C0.984657 24.355 1.29076 24.4474 1.60397 24.4484C5.3188 24.4484 8.31843 23.0458 10.2974 21.7543C10.9485 21.9009 11.6067 22.0145 12.2693 22.0945C14.4496 26.0802 19.5671 28.8854 25.5524 28.8854C26.95 28.8864 28.3431 28.728 29.7047 28.4132C31.6836 29.6978 34.6763 31.1073 38.3981 31.1073C38.7113 31.1063 39.0174 31.0139 39.2788 30.8413C39.5402 30.6687 39.7454 30.4235 39.8693 30.1358C39.9933 29.8482 40.0304 29.5306 39.9763 29.2221C39.9222 28.9136 39.7791 28.6276 39.5646 28.3993C39.5369 28.3785 38.0023 26.7259 36.94 24.5942ZM9.66549 18.1853L8.47814 18.956C7.54286 19.568 6.53827 20.0668 5.48544 20.442C5.67292 20.1156 5.8604 19.7684 6.04093 19.4143L7.11719 17.2548L5.39518 15.5537C4.45779 14.6232 3.33293 13.1026 3.33293 11.1098C3.33293 6.895 8.42259 3.33293 14.4427 3.33293C20.4628 3.33293 25.5524 6.895 25.5524 11.1098C25.5524 15.3245 20.4628 18.8866 14.4427 18.8866C13.2975 18.8862 12.1561 18.7557 11.0403 18.4978L9.66549 18.1853ZM34.6 22.2195L32.8849 23.9138L33.9611 26.0732C34.1417 26.4273 34.3292 26.7745 34.5166 27.1009C33.4638 26.7257 32.4592 26.2269 31.5239 25.6149L30.3366 24.8442L28.9548 25.1636C27.8391 25.4216 26.6976 25.552 25.5524 25.5525C21.8029 25.5525 18.4561 24.1568 16.4355 22.1015C23.4694 21.3516 28.8854 16.7271 28.8854 11.1098C28.8854 10.8737 28.8576 10.6445 28.8368 10.4154C33.3084 11.4222 36.6622 14.3594 36.6622 17.7756C36.6622 19.7684 35.5373 21.2891 34.6 22.2195Z" fill="#141B41"/>
</g>
<defs>
<clipPath id="clip0">
<rect width="40" height="31.1073" fill="white"/>
</clipPath>
</defs>
</svg>
