<svg width="173" height="145" viewBox="0 0 173 145" fill="none" xmlns="http://www.w3.org/2000/svg">
<g clip-path="url(#clip0)">
<path d="M42.6919 24.7249C43.0646 22.565 43.3959 20.4257 43.7685 18.2658C43.8097 18.1185 43.7903 17.961 43.7146 17.828C43.6389 17.6949 43.5131 17.5971 43.3648 17.5562C43.2166 17.5153 43.058 17.5345 42.9241 17.6097C42.7901 17.685 42.6917 17.81 42.6505 17.9573C42.0316 20.1189 41.7112 22.3541 41.6982 24.6015C41.6361 25.0952 42.6091 25.2186 42.6919 24.7249Z" fill="#333184"/>
<path d="M85.01 9.95684C85.6311 10.2448 86.3557 9.50427 85.7967 8.96945C84.8501 8.25906 83.838 7.63921 82.7739 7.11813C82.6614 7.03084 82.5185 6.99154 82.3768 7.0089C82.2351 7.02626 82.1061 7.09882 82.0183 7.21066C81.9304 7.3225 81.8909 7.46447 81.9083 7.60527C81.9258 7.74608 81.9989 7.87423 82.1114 7.96152C82.9507 8.7923 83.9322 9.46796 85.01 9.95684Z" fill="#333184"/>
<path d="M109.275 114.412C109.613 112.773 109.8 111.107 109.834 109.434C110.147 104.093 111.163 98.8168 112.857 93.7388C115.383 92.1548 111.242 89.6247 108.447 90.2418C103.823 91.501 99.1291 92.4901 94.389 93.204L92.8569 93.4097C92.8654 93.3345 92.8654 93.2586 92.8569 93.1834L92.6706 92.916C92.7494 92.7892 92.7911 92.6432 92.7911 92.4943C92.7911 92.3453 92.7494 92.1993 92.6706 92.0726C87.3083 79.7304 81.0144 67.9642 75.8799 55.5809C74.0993 51.2817 72.1739 47.0648 70.2277 42.8479C72.2368 42.6764 74.214 42.2406 76.1076 41.5519C78.4885 40.8937 80.828 40.1531 83.1883 39.4949C83.3035 39.5753 83.4408 39.6184 83.5816 39.6183H83.7473C83.8665 39.6152 83.9833 39.5838 84.0878 39.5265C84.1923 39.4692 84.2814 39.3878 84.3477 39.2892C87.3667 33.6586 92.0387 29.074 97.743 26.1448C100.327 24.6532 103.044 23.4 105.859 22.401C108.55 21.393 111.469 21.3931 114.14 20.5703C114.258 20.5304 114.365 20.4631 114.452 20.3741C114.539 20.2851 114.603 20.1768 114.64 20.0583C114.676 19.9397 114.683 19.8143 114.661 19.6923C114.639 19.5703 114.589 19.4552 114.513 19.3566C114.578 19.2512 114.614 19.1305 114.616 19.0069C115.072 14.8928 115.776 11.581 119.296 9.09201C119.362 9.04744 119.418 8.98972 119.461 8.92245C119.504 8.85518 119.532 8.77983 119.544 8.70117C119.644 8.63927 119.729 8.55571 119.793 8.45665C119.856 8.3576 119.897 8.24563 119.91 8.12903C119.924 8.01243 119.912 7.89419 119.873 7.78314C119.835 7.67208 119.772 7.57105 119.689 7.48753C114.042 3.05112 107.074 0.598923 99.8754 0.514228C94.6995 0.205674 89.5236 0.061634 84.2856 0.143915C79.0475 0.226196 74.9896 2.20098 70.1449 2.81809C70.0852 2.79407 70.0184 2.79407 69.9586 2.81809C67.1425 2.62946 64.3185 3.04332 61.6771 4.03173C59.247 5.023 56.8941 6.19187 54.6379 7.52871C54.0789 6.02707 53.23 3.16779 51.1183 3.7849C49.0065 4.40201 49.8346 7.6521 50.9319 9.29772C48.5311 10.0036 46.3368 11.2736 44.5345 13.0003C44.4464 12.9498 44.3464 12.9232 44.2446 12.9232C44.1429 12.9232 44.0429 12.9498 43.9548 13.0003C38.4596 16.0832 33.31 19.7379 28.5926 23.9026C23.9565 28.2576 19.7929 33.0837 16.1704 38.3018C12.6922 43.0124 9.27608 50.068 9.3589 56.0128C9.36091 56.155 9.40524 56.2934 9.48629 56.4106C9.56734 56.5278 9.68148 56.6184 9.81433 56.6712C9.94719 56.724 10.0928 56.7366 10.2328 56.7073C10.3728 56.678 10.501 56.6081 10.6011 56.5066C10.749 56.387 10.8874 56.2563 11.0152 56.1157C13.3754 56.5889 13.686 60.0858 14.3278 61.9782C14.5555 62.6159 15.5907 62.7393 15.7563 61.9782C15.7471 61.9238 15.7471 61.8682 15.7563 61.8137C15.8382 61.8315 15.9229 61.8315 16.0048 61.8137C18.0706 60.6307 20.3041 59.7639 22.63 59.2424C22.7233 59.2267 22.8098 59.1837 22.8784 59.119C23.4057 59.7376 23.9655 60.328 24.5554 60.888C27.322 63.7796 29.804 66.9275 31.9673 70.2886C31.8788 70.3511 31.8038 70.4306 31.7468 70.5225C31.6899 70.6144 31.6522 70.7168 31.6361 70.8235C30.8286 78.4139 30.87 86.2306 30.6423 93.8828C30.6423 97.9968 30.456 102.111 30.4353 106.225C30.7364 110.159 30.6532 114.114 30.1868 118.032C30.1655 118.123 30.1677 118.218 30.193 118.308C30.2183 118.398 30.266 118.48 30.3317 118.547C26.8949 119.925 23.2718 120.953 19.9799 122.537C18.158 123.422 16.5638 124.43 17.1021 126.651C18.1787 130.971 31.5947 123.422 33.1474 122.537C37.8058 120.192 42.3192 117.477 46.8119 114.823C51.3046 112.17 55.9836 111.162 60.29 108.755L60.6627 109.269L63.6026 113.383C62.0705 114.35 60.29 115.029 58.7165 115.872C57.143 116.716 54.907 117.765 54.8242 119.534C54.7414 121.303 57.6813 121.138 58.7372 120.686C61.2631 119.616 63.3955 117.641 65.9007 116.572C69.7733 122.12 74.057 127.373 78.7163 132.288C78.8428 132.414 79.0131 132.487 79.1925 132.493C79.2891 132.594 79.4115 132.666 79.5466 132.702C79.6816 132.739 79.8241 132.737 79.9585 132.699C82.7121 131.958 81.8839 128.873 79.6065 125.129C85.0169 122.853 90.6922 121.256 96.5007 120.377C99.284 120.116 102.009 119.422 104.575 118.32C106.169 120.624 109.109 124.677 112.153 122.846C115.196 121.015 110.517 116.675 109.461 114.823C109.448 114.669 109.382 114.524 109.275 114.412ZM110.952 94.4587C110.559 95.8369 110.165 97.2151 109.813 98.5728C109.986 97.2775 110.055 95.9706 110.02 94.6644L110.952 94.4587ZM99.42 94.4587C102.241 93.964 105.013 93.2206 107.701 92.2372C112.339 90.8178 109.026 93.2245 107.453 93.3479C105.723 93.5738 104.008 93.9035 102.318 94.3353C97.4117 95.3227 92.4428 95.837 87.5153 96.8655C84.2374 97.8913 80.8785 98.6413 77.474 99.1076C77.6051 98.8492 77.6734 98.5639 77.6734 98.2745C77.6734 97.9852 77.6051 97.6999 77.474 97.4414C84.8031 96.5775 92.0908 95.261 99.42 94.397V94.4587ZM74.5755 118.176L73.1884 116.51C73.2774 116.445 73.3512 116.362 73.4048 116.266C73.4584 116.17 73.4905 116.064 73.4989 115.955C73.4989 115.05 73.6232 114.124 73.6439 113.198C73.6946 113.103 73.7212 112.997 73.7212 112.89C73.7212 112.782 73.6946 112.676 73.6439 112.581C73.6302 109.377 73.2693 106.184 72.5673 103.057C73.6198 102.439 74.6296 101.752 75.59 101C75.4671 103.989 75.0861 106.962 74.4513 109.886C74.2457 112.629 74.3081 115.384 74.6376 118.115L74.5755 118.176ZM75.238 99.2105C74.4868 99.9324 73.661 100.574 72.7743 101.124C70.2485 102.769 67.3292 104.044 64.6585 105.464C64.5291 105.487 64.4078 105.542 64.3063 105.625C64.2048 105.708 64.1264 105.815 64.0788 105.937L62.8779 104.394C62.8964 104.327 62.8964 104.256 62.8779 104.188C62.8779 104.188 63.0436 104.188 63.3334 103.9C63.7864 103.648 64.2569 103.428 64.7413 103.242C65.4515 102.941 66.1428 102.597 66.8116 102.214C68.8534 100.573 71.0928 99.1908 73.4782 98.0997C74.8861 97.6472 76.6252 97.7911 75.3002 99.1488L75.238 99.2105ZM71.677 107.027C71.677 107.48 71.677 107.912 71.8012 108.364C69.7431 108.203 67.7477 107.585 65.9628 106.554L67.3914 105.814C67.4265 105.875 67.4741 105.929 67.5311 105.971C67.5881 106.014 67.6533 106.044 67.7226 106.06C69.0078 106.569 70.361 106.888 71.7391 107.007L71.677 107.027ZM68.8613 104.97C69.7102 104.538 70.559 104.106 71.3872 103.654C71.3872 104.271 71.3872 104.888 71.5528 105.505C70.9936 105.466 70.4393 105.377 69.8965 105.238L68.8613 104.97ZM71.9047 109.804C71.9047 110.565 71.9047 111.326 71.9047 112.087C71.1594 112.087 70.3934 112.396 69.6688 112.54C67.8675 110.483 66.4804 109.084 66.1284 108.632L65.2175 107.459C67.185 108.888 69.5322 109.711 71.9669 109.825L71.9047 109.804ZM71.9047 113.527C71.9047 114.042 71.9047 114.535 71.9047 115.05L70.7039 113.713L71.9047 113.527ZM75.4658 95.9604C75.2583 95.9919 75.0682 96.0936 74.9275 96.2483C73.6523 96.2124 72.3918 96.5255 71.2836 97.1534C66.617 92.914 62.735 87.8942 59.8138 82.3223C59.5447 81.7874 58.5716 82.1783 58.82 82.7542C61.5467 88.5625 65.4025 93.7777 70.1656 98.0997C68.9441 98.902 67.8054 99.8276 66.7702 100.568C65.1002 101.249 63.5215 102.134 62.0705 103.201C56.6254 96.0632 51.4288 88.8019 46.1287 81.5612C43.872 78.4756 41.3875 75.5958 39.048 72.5925C39.1087 72.4971 39.141 72.3865 39.141 72.2737C39.141 72.1608 39.1087 72.0502 39.048 71.9548C37.3917 69.1984 36.5636 66.0512 34.9073 63.2947C33.3451 61.1874 31.9799 58.9428 30.8286 56.5888L32.7127 56.3009C32.7316 56.4414 32.7972 56.5717 32.899 56.6711C37.6194 61.2994 39.959 67.3882 42.3813 73.3742C42.6918 74.1353 43.9134 73.8473 43.6649 73.0245C41.8844 67.1208 38.841 60.2092 34.0377 56.0951C35.0522 55.9306 36.1081 55.766 37.0604 55.6632L44.2032 54.8815C44.17 54.964 44.1572 55.0533 44.166 55.1418C44.1747 55.2302 44.2046 55.3153 44.2533 55.3899C44.302 55.4644 44.368 55.5263 44.4457 55.5703C44.5235 55.6143 44.6107 55.6391 44.7001 55.6426C45.6939 55.766 48.4061 61.9782 49.0272 63.1507C50.2413 65.8598 51.6242 68.4911 53.1679 71.0292C53.5613 71.6052 54.6586 71.276 54.3687 70.5355C52.8383 66.9491 51.0747 63.4654 49.0893 60.1064C48.2241 58.1351 47.0346 56.3207 45.5697 54.7375L48.199 54.4907C48.1803 54.5569 48.1752 54.6261 48.1839 54.6943C48.1927 54.7625 48.215 54.8283 48.2498 54.8877C48.2845 54.9472 48.3309 54.9991 48.3862 55.0404C48.4415 55.0817 48.5046 55.1116 48.5717 55.1283C52.9816 56.5271 54.7828 64.7964 56.2528 68.5607C58.7165 74.7318 60.5384 81.0675 65.0932 86.0044C65.6522 86.5803 66.7288 85.778 66.2319 85.1198C61.3666 78.8047 58.8407 71.3377 55.8801 63.9941C54.7207 61.0731 53.0644 55.766 49.669 54.3672C51.7394 54.1821 53.8097 54.0793 55.7352 53.9764C55.7836 54.1137 55.8697 54.2348 55.9836 54.3261C57.8448 55.9982 59.0664 58.2584 59.4411 60.7235C59.6275 61.464 60.6419 61.1349 60.5384 60.4149C60.3984 57.9906 59.4097 55.6912 57.7434 53.9147H58.0333C58.1665 53.9166 58.2976 53.8809 58.4112 53.8117C58.5248 53.7425 58.6163 53.6427 58.6751 53.5239C61.0353 55.8894 61.967 59.0984 63.5819 61.9577C65.9214 66.0717 68.3851 69.9801 70.4141 74.2999C73.8923 81.6229 77.4533 89.0693 83.1054 94.9936L81.532 95.2404V95.0347C81.2532 94.7344 80.9484 94.459 80.621 94.2119C80.2533 93.8738 79.9267 93.4941 79.6479 93.0806C79.5738 92.9523 79.4515 92.8586 79.3078 92.82C79.1641 92.7815 79.0109 92.8012 78.8819 92.8748C78.7529 92.9485 78.6586 93.07 78.6197 93.2128C78.5809 93.3555 78.6007 93.5077 78.6749 93.6359C79.0525 94.3217 79.5423 94.9404 80.1241 95.4667C78.4471 95.6313 77.0807 95.8164 75.6314 95.981L75.4658 95.9604ZM34.9487 67.162C32.6989 63.5866 30.2305 60.1518 27.5574 56.8768C28.1578 56.8768 28.7376 56.8768 29.338 56.7534C30.1684 59.1075 31.3934 61.3052 32.9611 63.2536C33.7907 64.478 34.5112 65.7719 35.1143 67.1208L34.9487 67.162ZM55.6731 52.3925C53.23 52.5571 50.8077 52.8244 48.3647 53.1124C50.8044 51.213 53.4095 49.5334 56.1493 48.0933C59.2134 46.5505 62.6088 45.8717 65.7558 44.5141C66.6253 46.7356 67.5156 48.9367 68.53 51.0966C72.4223 59.3247 76.3974 67.6762 80.3519 75.966C75.4768 70.2701 70.9617 64.2795 66.8323 58.0288C65.1761 55.3958 61.1181 48.5664 57.495 48.5664C55.1555 48.5664 54.7207 50.8292 55.6731 52.3925ZM71.677 73.5799C72.7329 74.5467 73.7474 75.4312 74.3478 76.1101C79.2753 81.8492 83.6023 88.0614 88.1364 94.1091L84.8239 94.6439C84.7998 94.4764 84.728 94.3194 84.6168 94.1913C78.8198 88.3699 75.2173 80.9029 71.6563 73.5799H71.677ZM76.2732 119.04C76.2732 116.983 76.1283 114.926 76.1076 112.869C76.197 112.88 76.2873 112.88 76.3767 112.869C82.8984 111.738 89.6685 111.656 95.5691 108.755C96.5994 110.931 97.4041 113.205 97.9707 115.543L96.1902 116.16C90.124 118.217 83.768 119.39 77.5569 121.468C77.4593 121.517 77.3688 121.579 77.2877 121.653C76.8115 121.015 76.3354 120.357 75.8178 119.719C75.9518 119.664 76.0654 119.569 76.1432 119.448C76.221 119.326 76.2592 119.184 76.2525 119.04H76.2732ZM96.8113 108.035C97.2254 107.809 97.6394 107.541 98.0535 107.274C98.0126 107.335 97.9907 107.407 97.9907 107.48C97.9907 107.553 98.0126 107.625 98.0535 107.685C98.7781 108.755 99.5442 109.845 100.331 110.894C100.331 110.894 100.331 110.997 100.331 111.038C100.631 112.23 100.997 113.404 101.428 114.556C100.729 114.681 100.038 114.846 99.3578 115.05C98.7534 112.628 97.8929 110.277 96.7906 108.035H96.8113ZM95.4448 107.048C89.8549 110.421 82.4429 110.113 76.149 111.162C76.1806 110.141 76.2844 109.124 76.4596 108.117C77.1214 105.602 77.3247 102.99 77.06 100.404C81.2007 100.527 85.9833 98.7168 89.8755 97.894C95.1343 96.8038 100.683 96.454 106.024 95.4872C105.176 100.095 99.0266 104.95 95.4241 107.007L95.4448 107.048ZM89.7099 93.8622C89.7099 93.8622 89.7099 93.8622 89.7099 93.7593C83.975 85.2227 77.5155 75.5546 69.441 69.075C67.6398 65.7837 65.4452 62.7188 63.7682 59.3864C62.5467 56.9797 61.6978 53.8324 59.0892 52.5365C59.0035 52.4896 58.9074 52.4651 58.8097 52.4651C58.7119 52.4651 58.6158 52.4896 58.5302 52.5365C58.461 52.4653 58.3769 52.41 58.2839 52.3744C58.191 52.3389 58.0913 52.324 57.9919 52.3308H57.5157C58.8959 51.0966 59.9311 51.22 60.6212 52.7011C61.6941 53.8253 62.6967 55.0137 63.6233 56.2597C64.8817 58.0183 66.0295 59.8526 67.0601 61.752C69.1544 65.133 71.5224 68.3389 74.1407 71.3377C80.1655 78.5785 85.5071 86.1072 90.9935 93.7593L89.7099 93.8622ZM75.0517 57.6379C79.0061 67.4911 83.5402 77.2414 88.3228 86.786C86.9563 84.729 85.6106 82.8571 84.182 80.944C84.2439 80.8229 84.2761 80.6891 84.2761 80.5533C84.2761 80.4174 84.2439 80.2835 84.182 80.1624C79.4202 70.1652 74.5962 60.2298 69.6894 50.2738C65.5487 42.0457 63.4784 32.213 58.3645 24.4786L58.2403 24.3552L60.4556 23.2033C63.9545 35.1957 70.4348 46.242 75.0517 57.6379ZM75.7142 39.9474C73.6857 40.3733 71.6925 40.9509 69.7516 41.6753C66.8738 35.5043 64.0374 29.1275 61.7599 22.6067L63.5819 21.681L66.6874 20.1177C69.78 22.233 72.5664 24.7592 74.9689 27.6259C77.6811 30.7937 81.0351 33.9821 82.6086 37.911C80.2897 38.5693 78.0123 39.3304 75.7142 40.0297V39.9474ZM105.548 20.7554C103.065 21.6417 100.656 22.7216 98.3434 23.9849C93.4184 26.5842 89.0898 30.1704 85.6313 34.5169C84.2649 36.286 84.5133 38.4253 83.3746 35.9157C82.1268 33.6959 80.5728 31.6603 78.7577 29.868C75.4037 26.0214 72.4016 21.969 67.9089 19.4595L69.3168 18.7806C71.3872 21.3107 74.7204 22.6067 76.9357 25.1369C77.4119 25.6717 78.3436 24.9517 77.9295 24.3757C76.0041 21.7222 72.8157 20.5085 70.5176 18.2046C72.6592 17.2177 74.8497 16.3389 77.0807 15.5716C81.1287 14.4127 85.2333 13.4584 89.3787 12.7124L89.7099 13.3501C89.8094 13.5186 89.9718 13.6412 90.1618 13.6913C90.3518 13.7413 90.554 13.7149 90.7244 13.6175C92.3896 12.5401 94.1665 11.6435 96.0245 10.9433C98.0317 12.2162 100.291 13.0441 102.65 13.3707C106.625 14.3169 109.896 16.8881 113.271 19.048C110.703 19.8503 108.074 19.9737 105.548 20.8376V20.7554ZM115.196 11.581C114.637 12.5272 113.395 17.4641 113.126 17.3201C110.748 15.3835 108.088 13.8161 105.238 12.6713C102.608 12.0739 100.016 11.3251 97.4738 10.4291C104.059 8.58589 110.927 7.94473 117.743 8.53663C116.723 9.42953 115.862 10.4865 115.196 11.6633V11.581ZM51.7394 5.12195C52.4226 4.91625 53.2093 7.5081 53.3957 7.94007C53.3957 7.94007 53.3957 8.04296 53.3957 8.10467L52.2777 8.63946C51.8429 7.71379 50.6628 5.45108 51.7394 5.12195ZM15.1352 59.1396C14.5969 57.35 13.8309 55.5192 12.216 55.0255C14.3581 53.0294 16.6114 51.1545 18.9654 49.4098C17.7232 52.5982 16.336 55.8072 15.1352 59.1396ZM22.0503 57.679C20.8876 57.761 19.7635 58.1286 18.7791 58.7487C18.013 59.119 17.1228 59.3864 16.3568 59.8184C17.4541 55.9306 19.2346 52.2691 20.4975 48.443C20.5275 48.3353 20.5275 48.2215 20.4975 48.1139C26.4239 43.9415 32.8677 40.5467 39.6691 38.0138C40.5387 37.6847 40.166 36.2859 39.2757 36.6151C28.7703 40.5568 19.147 46.5116 10.9531 54.1409C11.9098 48.6458 14.1428 43.448 17.4748 38.9601C21.0048 33.8313 25.0944 29.1057 29.6692 24.8694C34.3001 20.7897 39.3442 17.1981 44.7208 14.1523L44.845 14.0495C44.9306 14.0291 45.0092 13.9865 45.0728 13.926C48.5303 10.8816 53.6027 9.81199 57.6813 7.56982C65.0311 3.70261 70.7453 3.1678 78.385 6.5619C79.0268 6.84988 79.5651 5.98589 78.944 5.61562C77.353 4.72332 75.656 4.03227 73.8923 3.55859C76.7736 2.7762 79.6976 2.15809 82.65 1.70728C87.1072 1.49823 91.5729 1.54633 96.0245 1.85128C100.103 1.87053 104.171 2.26304 108.178 3.02381C111.351 3.80934 114.312 5.27689 116.852 7.32299C112.401 7.32299 107.991 7.17896 103.54 7.67265C102.712 7.67265 89.9584 10.7171 90.683 12.1364C90.6607 12.0808 90.6252 12.0314 90.5795 11.9924C90.5505 11.8747 90.4806 11.771 90.3821 11.6995C90.2836 11.6279 90.1629 11.5933 90.0412 11.6016C80.8487 11.8896 72.2774 15.5511 64.203 19.6035C56.936 23.265 47.8471 27.4407 42.2778 33.7147C42.0086 33.4678 41.4289 33.5501 41.3668 33.9615C41.3047 34.3729 41.3668 34.702 41.2219 35.0723C41.0769 35.4426 41.8637 36.3476 42.3813 35.7511C46.7312 31.376 51.7915 27.76 57.3501 25.0546C57.3418 25.1229 57.3418 25.192 57.3501 25.2603C60.47 31.0259 63.1016 37.0394 65.2175 43.2387C61.615 44.8226 57.8262 45.6866 54.2859 47.4762C51.2984 49.0846 48.5177 51.0462 46.0044 53.3181C46.0044 53.3181 46.0044 53.3182 46.0044 53.421H45.3626C45.5075 48.299 45.3626 43.1359 45.7353 38.1167C45.7353 37.3556 44.5345 37.1705 44.4102 37.9316C43.7995 43.1068 43.6955 48.3287 44.0997 53.5239C43.0231 53.6267 42.0293 53.709 40.8906 53.7707C35.2592 54.0381 29.9384 56.054 24.6796 53.3181H24.5347C24.5216 53.2001 24.4786 53.0874 24.4095 52.9905C24.3405 52.8936 24.2477 52.8157 24.14 52.7643C24.0323 52.7128 23.9132 52.6895 23.7939 52.6964C23.6746 52.7033 23.5591 52.7403 23.4581 52.8039C22.9959 52.9736 22.5802 53.2487 22.2446 53.6072C21.9089 53.9656 21.6627 54.3975 21.5258 54.8678C21.3888 55.3381 21.3649 55.8337 21.456 56.3149C21.5471 56.796 21.7507 57.2492 22.0503 57.6379V57.679ZM32.1537 110.956C31.9052 106.451 32.1537 101.864 32.1537 97.3591C32.34 88.8842 32.1537 80.0801 33.0646 71.6257L34.6588 73.7856C34.5995 73.8355 34.5534 73.8991 34.5245 73.9709C34.4957 74.0426 34.4849 74.1202 34.4932 74.197C34.9577 81.061 34.708 87.9542 33.7479 94.7673C33.106 102.131 33.4994 109.598 33.5408 116.983L32.0087 117.703L31.3876 117.971C32.2314 115.733 32.4948 113.321 32.1537 110.956ZM52.3191 110.03C48.551 111.758 45.0728 113.98 41.4496 115.996C37.8265 118.012 34.4518 120.11 30.8286 121.879C28.7583 122.887 26.6879 123.771 24.6175 124.615C23.5823 125.026 22.5471 125.396 21.4913 125.746C20.4354 126.096 19.9178 125.746 19.7522 124.306C22.8517 122.791 26.0803 121.552 29.4001 120.604C32.741 119.28 36.0036 117.769 39.1722 116.078C42.9196 114.021 46.6048 111.964 50.3315 109.907C52.9816 108.447 55.9629 108.035 58.4473 106.266C58.7165 106.636 59.0063 107.007 59.2755 107.397C57.1016 108.529 54.6379 109.064 52.3191 110.03ZM35.901 75.3695C36.1909 75.7603 36.46 76.1512 36.7499 76.5214C36.6978 76.5877 36.66 76.6639 36.6386 76.7453C36.6172 76.8266 36.6128 76.9115 36.6257 76.9946C38.5511 88.1642 46.7705 98.7579 55.6524 105.587C52.5542 106.233 49.4126 106.652 46.2529 106.842C42.5289 107.542 38.7689 108.036 34.9901 108.323C34.9901 103.798 34.9901 99.2928 35.2799 94.7879C36.0554 88.3454 36.2632 81.8479 35.901 75.3695ZM38.5511 78.9899C39.7933 80.6972 41.0148 82.4046 42.2157 84.1531C47.1638 91.3938 52.5675 98.2437 57.7848 105.238L57.5985 105.34C57.5575 105.166 57.4546 105.013 57.3087 104.908C48.6745 98.2439 42.1611 89.2438 38.5511 78.9899ZM52.1948 107.788C50.2397 108.507 48.3313 109.345 46.4806 110.298C42.7125 112.355 38.9445 114.412 35.0729 116.284C35.0729 113.98 35.0729 111.676 35.0729 109.372C38.5476 109.606 42.038 109.315 45.4247 108.508C47.6678 108.16 49.9275 107.926 52.1948 107.809V107.788ZM61.2009 117.539C60.1658 118.248 59.0549 118.841 57.8884 119.308C57.3501 119.513 55.9836 119.76 56.7082 118.958C58.7786 116.716 62.2775 116.325 64.4721 114.371L65.0725 115.173C63.7061 115.872 62.4639 116.778 61.2009 117.559V117.539ZM79.8343 130.992C75.5279 126.075 71.3872 120.974 67.412 115.77C67.4955 115.641 67.5382 115.491 67.5347 115.339C67.5311 115.186 67.4815 115.038 67.3922 114.914C67.3029 114.79 67.1781 114.695 67.0339 114.642C66.8898 114.589 66.733 114.581 66.5839 114.618C64.8448 112.375 63.1471 110.133 61.4494 107.891C61.4699 107.774 61.4661 107.655 61.4381 107.54C61.4101 107.425 61.3586 107.316 61.2867 107.222C61.2149 107.127 61.1243 107.048 61.0205 106.99C60.9167 106.932 60.8019 106.896 60.6833 106.883C56.5426 101.453 52.671 95.9809 48.758 90.5504C43.9755 83.8856 39.5242 77.0563 34.5139 70.5561C32.4435 67.7379 30.663 64.3849 28.3028 61.7931C27.0399 60.4355 21.4913 56.5683 23.9343 54.3055L24.0792 54.4495C24.866 54.9844 25.4871 55.766 26.1496 56.2803C26.1384 56.3346 26.1384 56.3906 26.1496 56.4449C36.5014 70.2887 45.9009 84.9347 56.7911 98.4288C62.1947 105.135 67.1429 112.129 72.8778 118.547C73.8716 119.842 82.5879 129.901 79.7308 131.012L79.8343 130.992ZM104.451 116.757C101.2 118.814 96.48 118.814 92.7948 119.472C88.0533 120.413 83.4246 121.847 78.9854 123.751C78.737 123.367 78.4678 122.976 78.178 122.578C83.2711 121.159 88.3642 119.842 93.478 118.464C94.9687 118.073 96.4179 117.456 97.8879 116.963L98.861 116.654C99.0681 116.674 99.2751 116.615 99.4407 116.489L100.414 116.202C99.7512 116.448 106.625 115.379 104.347 116.778L104.451 116.757ZM105.031 114.7C105.033 114.534 104.974 114.373 104.865 114.247C103.685 112.828 102.588 111.326 101.47 109.866C100.761 108.792 99.9038 107.822 98.9231 106.986H98.7367C99.2129 106.636 99.7305 106.246 100.248 105.814C102.243 107.873 104.006 110.142 105.507 112.581C105.561 112.693 105.647 112.786 105.755 112.849C105.706 113.607 105.762 114.368 105.921 115.111L105.031 114.7ZM101.822 105.628C102.989 105.793 104.174 105.793 105.341 105.628C105.528 105.628 105.707 105.555 105.839 105.424C105.971 105.292 106.045 105.114 106.045 104.929C106.045 104.744 105.971 104.566 105.839 104.434C105.707 104.303 105.528 104.23 105.341 104.23C104.223 104.23 103.126 104.23 102.029 104.127C104.741 101.617 107.349 98.4083 107.515 95.261L108.861 94.973C108.308 99.8213 107.451 104.63 106.294 109.372C106.294 109.681 106.149 109.969 106.087 110.277C104.816 108.553 103.35 106.979 101.718 105.587L101.822 105.628ZM108.654 105.628C108.654 105.628 108.654 105.628 108.654 105.731C108.467 108.159 108.964 112.643 107.557 115.091C106.583 112.231 107.846 108.549 108.55 105.608L108.654 105.628ZM111.78 121.138C110.745 123.401 107.246 118.876 106.128 117.395L106.708 117.004C106.781 117.087 106.872 117.154 106.974 117.199C107.076 117.245 107.186 117.268 107.298 117.268C107.409 117.268 107.52 117.245 107.621 117.199C107.723 117.154 107.814 117.087 107.888 117.004C108.226 116.694 108.513 116.333 108.737 115.934C109.213 116.654 109.772 117.312 110.31 117.991C110.848 118.67 112.111 120.192 111.677 121.118L111.78 121.138Z" fill="#333184"/>
<path d="M73.6852 98.6352C73.5519 98.586 73.4064 98.5794 73.2691 98.6163C73.1318 98.6532 73.0095 98.7317 72.9192 98.841C72.7675 98.8864 72.6322 98.9741 72.5291 99.0937C72.4261 99.2133 72.3597 99.3596 72.338 99.5156C72.3162 99.6715 72.3398 99.8303 72.4062 99.9733C72.4725 100.116 72.5787 100.237 72.7122 100.322C72.8547 100.407 73.0155 100.458 73.1816 100.47C73.3476 100.482 73.5141 100.455 73.6675 100.391C73.8209 100.327 73.9569 100.227 74.0643 100.101C74.1717 99.9745 74.2476 99.8248 74.2857 99.6638C74.3426 99.4483 74.3114 99.2192 74.1989 99.0265C74.0864 98.8338 73.9017 98.6931 73.6852 98.6352Z" fill="#333184"/>
<path d="M61.4288 104.95C61.3091 104.882 61.1736 104.846 61.0359 104.847C60.8981 104.847 60.7628 104.884 60.6437 104.952C60.5245 105.021 60.4256 105.12 60.3569 105.238C60.2881 105.357 60.252 105.491 60.252 105.628C60.252 105.765 60.2881 105.9 60.3569 106.018C60.4256 106.137 60.5245 106.236 60.6437 106.304C60.7628 106.373 60.8981 106.41 61.0359 106.41C61.1736 106.41 61.3091 106.375 61.4288 106.307C61.61 106.307 61.7838 106.236 61.9119 106.108C62.04 105.981 62.112 105.808 62.112 105.628C62.112 105.448 62.04 105.276 61.9119 105.148C61.7838 105.021 61.61 104.95 61.4288 104.95Z" fill="#333184"/>
<path d="M63.4982 98.2643C57.4942 94.2531 55.4238 87.6706 52.7737 81.3144C49.8545 74.3411 45.2583 68.1905 41.8422 61.464C41.5109 60.8264 40.6207 61.4641 40.8898 61.9989C44.5337 70.3504 49.6682 77.7969 53.0636 86.2719C55.1339 91.2499 57.5356 97.1535 62.6908 99.622C62.872 99.7284 63.0883 99.7589 63.2922 99.7068C63.496 99.6547 63.6707 99.5243 63.7777 99.3443C63.8848 99.1642 63.9155 98.9493 63.8631 98.7468C63.8107 98.5442 63.6794 98.3707 63.4982 98.2643Z" fill="#333184"/>
<path d="M51.9455 74.4846C52.3803 75.0812 53.3948 74.2995 52.96 73.703C49.2541 68.4164 47.5357 61.9779 43.0637 57.2467C42.6082 56.753 41.925 57.473 42.339 57.9667C46.4798 62.9241 47.9704 69.4038 51.9455 74.4846Z" fill="#333184"/>
<path d="M53.6027 77.817C55.1348 81.8282 58.054 85.0783 59.8138 89.0484C61.4968 92.8485 63.7826 96.3558 66.5839 99.4364C67.205 100.136 68.1781 99.1278 67.5984 98.4285C65.018 95.3303 62.815 91.9402 61.0353 88.3285C59.1513 84.5436 56.584 81.1905 54.6793 77.4056C54.2652 76.8708 53.3336 77.2411 53.6027 77.817Z" fill="#333184"/>
<path d="M71.5316 92.4429C70.2589 91.2752 69.0883 90.0021 68.0326 88.6374C67.515 87.9791 66.3971 88.6374 66.8732 89.3162C67.7152 90.6019 68.7092 91.7828 69.8339 92.8337C70.978 94.0848 72.2553 95.2091 73.6433 96.1866C74.1609 96.5158 74.927 95.8164 74.5336 95.2815C73.6206 94.2478 72.6159 93.2978 71.5316 92.4429Z" fill="#333184"/>
<path d="M54.3073 55.0261C53.8932 54.5324 53.0651 55.17 53.4171 55.7049C53.8205 56.428 54.2845 57.1161 54.8042 57.7619C54.9115 57.862 55.0512 57.9211 55.1982 57.9284C55.3453 57.9357 55.4902 57.8909 55.6071 57.802C55.724 57.713 55.8052 57.5857 55.8364 57.4427C55.8676 57.2997 55.8466 57.1504 55.7773 57.0214C55.3391 56.3201 54.8476 55.6531 54.3073 55.0261Z" fill="#333184"/>
<path d="M57.5351 61.6288C57.2039 61.0117 56.355 61.6288 56.6242 62.1637C58.384 66.2777 59.1086 70.8855 61.945 74.5058C62.4212 75.123 63.4564 74.3207 63.0216 73.683C60.4751 69.9803 59.6469 65.5783 57.5351 61.6288Z" fill="#333184"/>
<path d="M72.8968 92.2985C72.9936 92.4293 73.1357 92.5199 73.2957 92.5529C73.4557 92.5859 73.6224 92.559 73.7636 92.4773C73.9049 92.3957 74.0108 92.265 74.061 92.1105C74.1111 91.956 74.1021 91.7885 74.0355 91.6402C72.8264 89.693 71.4844 87.8305 70.019 86.0657C68.3213 83.6589 67.1412 80.8819 65.5677 78.3929C65.4936 78.2702 65.3734 78.1817 65.2336 78.147C65.0938 78.1123 64.9459 78.1341 64.8223 78.2078C64.6988 78.2815 64.6098 78.4008 64.5748 78.5397C64.5399 78.6786 64.5619 78.8255 64.636 78.9483C65.8368 81.3139 67.0583 83.6795 68.3627 86.004C69.667 88.3284 71.4475 90.1592 72.8968 92.2985Z" fill="#333184"/>
<path d="M61.8835 63.4589C61.5522 62.8418 60.6413 63.4589 60.9311 63.9937C65.5273 73.3327 69.0677 83.7618 76.1483 91.6196C76.6452 92.175 77.6597 91.4139 77.2042 90.7968C71.3762 82.102 66.2532 72.9605 61.8835 63.4589Z" fill="#333184"/>
<path d="M100.868 98.12C98.1293 99.6483 95.5435 101.432 93.1454 103.448C92.3794 104.024 93.1454 105.299 93.9115 104.744C96.4787 102.954 98.9011 100.959 101.468 99.1485C101.592 99.063 101.679 98.9344 101.711 98.7883C101.744 98.6422 101.72 98.4892 101.645 98.3597C101.569 98.2303 101.447 98.1338 101.303 98.0894C101.159 98.045 101.004 98.0559 100.868 98.12Z" fill="#333184"/>
<path d="M89.8318 100.341C88.7687 100.922 87.7695 101.612 86.8504 102.399C86.2914 102.872 87.0575 103.88 87.6579 103.427C88.5464 102.704 89.4953 102.057 90.4943 101.493C91.281 101.103 90.5978 99.9507 89.8318 100.341Z" fill="#333184"/>
<path d="M24.0365 41.1815C20.7653 43.6911 17.1215 45.6658 13.6847 48.0726C13.1257 48.4634 13.6847 49.3685 14.2437 48.9982C17.9632 46.972 21.527 44.6756 24.9061 42.1277C25.6721 41.6135 24.6162 40.7084 24.0365 41.1815Z" fill="#333184"/>
<path d="M47.1012 27.6465C51.4903 23.4296 57.453 21.9279 62.6082 19.1098C63.2914 18.7601 62.6082 17.7933 62.0078 18.1019C56.6663 20.5703 50.0825 22.0308 46.2937 26.8443C45.8589 27.3997 46.5629 28.1608 47.1012 27.6465Z" fill="#333184"/>
<path d="M95.0084 8.55712C97.5756 7.81659 100.267 7.48741 102.834 6.70574C102.999 6.65937 103.139 6.54992 103.222 6.4014C103.306 6.25288 103.326 6.07749 103.28 5.91383C103.233 5.75016 103.123 5.61158 102.973 5.52864C102.824 5.4457 102.647 5.4252 102.482 5.47157C99.8502 5.98017 97.2561 6.66746 94.7185 7.5286C93.9732 7.75487 94.2216 8.76282 95.0084 8.55712Z" fill="#333184"/>
<path d="M88.9633 26.0629C88.8342 26.1911 88.7617 26.365 88.7617 26.5463C88.7617 26.7277 88.8342 26.9015 88.9633 27.0297C89.0923 27.1579 89.2673 27.23 89.4498 27.23C89.6323 27.23 89.8073 27.1579 89.9363 27.0297C94.0771 23.5739 100.599 18.5753 106.499 20.0358C106.645 20.074 106.8 20.0532 106.93 19.978C107.06 19.9028 107.154 19.7793 107.193 19.6347C107.231 19.4901 107.21 19.3363 107.135 19.2071C107.059 19.0778 106.935 18.9838 106.789 18.9456C101.034 16.7034 92.7106 21.8871 88.9633 26.0629Z" fill="#333184"/>
<path d="M74.0153 39.1247C75.7785 38.9505 77.4999 38.4846 79.1085 37.7465C79.2214 37.6656 79.3037 37.5493 79.3421 37.4163C79.3806 37.2833 79.3729 37.1413 79.3203 37.0131C79.2678 36.885 79.1734 36.7781 79.0524 36.7097C78.9314 36.6412 78.7907 36.6152 78.653 36.6357C77.0174 37.1911 75.299 37.3557 73.6634 37.8082C72.7731 38.0962 73.1665 39.3304 74.0153 39.1247Z" fill="#333184"/>
<path d="M47.929 49.8626C49.0409 48.9883 50.2495 48.2429 51.5315 47.641C52.3389 47.3119 51.9869 46.0159 51.1588 46.3451C49.7638 46.9422 48.4605 47.7316 47.2872 48.6901C46.5626 49.2043 47.1837 50.3563 47.929 49.8626Z" fill="#333184"/>
<path d="M39.5854 19.1713C37.6098 24.0855 36.6725 29.3509 36.8318 34.6402C36.8318 34.8093 36.8995 34.9715 37.0198 35.0911C37.1402 35.2107 37.3034 35.2779 37.4736 35.2779C37.6439 35.2779 37.8071 35.2107 37.9275 35.0911C38.0479 34.9715 38.1155 34.8093 38.1155 34.6402C38.157 29.4768 39.0235 24.3527 40.6827 19.4593C40.9312 18.7805 39.8546 18.5542 39.5854 19.1713Z" fill="#333184"/>
<path d="M67.5973 7.85792C70.4544 7.26138 73.2494 8.47508 75.8787 9.13333C76.0183 9.14461 76.1575 9.10703 76.2722 9.02711C76.3868 8.9472 76.4698 8.82992 76.5066 8.69566C76.5435 8.5614 76.5319 8.41858 76.474 8.29189C76.416 8.1652 76.3153 8.06263 76.1893 8.00193C73.352 6.82539 70.2543 6.40699 67.2039 6.78829C66.6035 6.95285 66.8933 8.00191 67.5973 7.85792Z" fill="#333184"/>
<path d="M29.4824 109.29C19.6068 109.702 10.3522 115.173 0.497277 115.153C-0.123834 115.153 -0.310167 116.181 0.352351 116.284C4.49309 116.963 8.88227 115.214 12.7746 114.227C18.2811 112.717 23.8654 111.501 29.5031 110.586C30.3727 110.401 30.1864 109.249 29.4824 109.29Z" fill="#333184"/>
<path d="M163.208 113.177C163.119 113.1 163.01 113.048 162.894 113.026C162.777 113.004 162.657 113.014 162.545 113.054C160.405 112.01 158.136 111.249 155.796 110.791C151.221 109.742 146.583 108.734 141.987 107.829C131.882 105.824 121.584 104.941 111.283 105.196C111.151 105.221 111.031 105.292 110.945 105.395C110.86 105.498 110.812 105.628 110.812 105.762C110.812 105.896 110.86 106.026 110.945 106.129C111.031 106.232 111.151 106.302 111.283 106.328C120.786 106.924 130.351 107.521 139.771 109.022C144.078 109.701 148.26 110.915 152.504 111.799C156.604 112.372 160.543 113.772 164.078 115.913C164.241 116.004 164.43 116.04 164.616 116.016C168.301 118.711 173.022 121.694 170.827 126.301C168.984 129.983 164.326 132.328 160.848 134.2C153.726 138.068 145.9 140.371 138.591 143.745C137.742 144.136 138.488 145.329 139.316 144.979C148.57 140.865 158.363 138.212 166.81 132.452C169.398 130.683 173.022 127.782 173.022 124.224C173.084 118.814 166.79 116.098 163.208 113.177Z" fill="#333184"/>
<path d="M149.149 122.189C146.76 121.565 144.448 120.682 142.254 119.556C140.251 118.219 138.379 116.697 136.664 115.01C135.94 114.331 134.863 115.38 135.546 116.079C135.029 117.519 134.573 118.98 133.973 120.378C132.917 122.785 128.217 123.628 125.857 124.287C123.347 124.961 121.019 126.184 119.046 127.866C118.972 127.939 118.913 128.025 118.873 128.12C118.833 128.216 118.812 128.318 118.812 128.421C118.812 128.525 118.833 128.627 118.873 128.722C118.913 128.818 118.972 128.904 119.046 128.977C121.364 130.787 124.781 130.005 127.472 129.47C130.163 128.936 132.4 128.894 131.406 132.289C130.792 133.957 130.28 135.66 129.874 137.39C129.846 137.503 129.844 137.622 129.868 137.736C129.892 137.85 129.942 137.958 130.013 138.051C130.085 138.143 130.176 138.219 130.281 138.272C130.386 138.325 130.501 138.354 130.619 138.357C131.933 138.446 133.234 138.043 134.263 137.225C135.422 136.279 136.478 135.271 137.72 134.428C140.018 132.885 143.931 134.428 146.374 134.983C146.49 135.015 146.611 135.019 146.729 134.997C146.847 134.975 146.958 134.926 147.054 134.854C147.15 134.783 147.228 134.691 147.282 134.585C147.337 134.479 147.366 134.362 147.368 134.243C147.368 133.152 145.878 128.257 146.416 128.072C147.596 127.578 152.337 126.22 152.316 124.616C152.296 123.011 150.329 122.641 149.149 122.189ZM144.408 127.146C144.207 127.203 144.038 127.337 143.937 127.519C143.836 127.7 143.812 127.914 143.869 128.113C144.646 129.753 145.27 131.461 145.733 133.214C143.756 132.457 141.63 132.168 139.522 132.371C138.267 132.604 137.079 133.11 136.043 133.852C134.597 135.078 133.068 136.205 131.468 137.225C131.841 135.271 135.484 128.997 132.772 127.393C131.716 126.776 129.956 127.393 128.88 127.578C127.803 127.763 126.665 127.969 125.547 128.133C122.565 128.586 120.391 127.948 124.884 126.241C127.534 125.233 131.24 125.068 133.455 123.135C135.089 121.446 136.141 119.285 136.457 116.964C138.68 119.176 141.254 121.011 144.076 122.394C145.592 122.955 147.149 123.395 148.735 123.711C152.275 124.657 144.697 127.043 144.408 127.146Z" fill="#333184"/>
<path d="M137.038 130.889C136.84 131.033 136.601 131.112 136.355 131.115C136.231 131.115 136.231 130.642 136.231 130.539C136.203 130.387 136.123 130.25 136.004 130.15C135.885 130.051 135.734 129.997 135.579 129.997C135.423 129.997 135.273 130.051 135.153 130.15C135.034 130.25 134.954 130.387 134.926 130.539C134.85 130.895 134.897 131.266 135.061 131.591C135.224 131.917 135.494 132.177 135.826 132.33C136.158 132.484 136.533 132.52 136.888 132.434C137.244 132.347 137.56 132.144 137.783 131.856C138.363 131.383 137.639 130.622 137.038 130.889Z" fill="#333184"/>
<path d="M145.898 124.553C145.609 124.669 145.299 124.725 144.988 124.718C144.845 124.718 144.708 124.774 144.607 124.874C144.506 124.975 144.449 125.111 144.449 125.253C144.449 125.394 144.506 125.53 144.607 125.631C144.708 125.731 144.845 125.787 144.988 125.787C145.443 125.809 145.896 125.724 146.313 125.541C146.872 125.273 146.478 124.327 145.898 124.553Z" fill="#333184"/>
<path d="M138.072 121.549V121.735C138.072 121.871 138.127 122.002 138.224 122.098C138.321 122.195 138.453 122.249 138.59 122.249C138.727 122.249 138.859 122.195 138.956 122.098C139.053 122.002 139.107 121.871 139.107 121.735V121.549C139.107 121.413 139.053 121.282 138.956 121.186C138.859 121.089 138.727 121.035 138.59 121.035C138.453 121.035 138.321 121.089 138.224 121.186C138.127 121.282 138.072 121.413 138.072 121.549Z" fill="#333184"/>
<path d="M132.959 124.553C132.648 124.718 132.379 124.903 132.089 125.088C131.966 125.174 131.879 125.302 131.846 125.448C131.814 125.595 131.837 125.748 131.913 125.877C131.989 126.006 132.11 126.103 132.254 126.147C132.398 126.192 132.554 126.181 132.69 126.117C133 125.973 133.269 125.767 133.58 125.602C133.692 125.509 133.768 125.378 133.793 125.234C133.818 125.091 133.79 124.943 133.716 124.817C133.641 124.691 133.525 124.596 133.386 124.547C133.247 124.499 133.096 124.501 132.959 124.553Z" fill="#333184"/>
<path d="M138.238 126.178C138.038 126.209 137.856 126.31 137.725 126.463C137.594 126.616 137.521 126.81 137.521 127.011C137.521 127.212 137.594 127.406 137.725 127.559C137.856 127.712 138.038 127.813 138.238 127.844C138.438 127.813 138.62 127.712 138.751 127.559C138.883 127.406 138.955 127.212 138.955 127.011C138.955 126.81 138.883 126.616 138.751 126.463C138.62 126.31 138.438 126.209 138.238 126.178Z" fill="#333184"/>
<path d="M143.745 131.835C143.93 131.805 144.097 131.711 144.218 131.569C144.339 131.428 144.405 131.249 144.405 131.063C144.405 130.878 144.339 130.699 144.218 130.557C144.097 130.416 143.93 130.322 143.745 130.292C143.561 130.322 143.394 130.416 143.273 130.557C143.152 130.699 143.086 130.878 143.086 131.063C143.086 131.249 143.152 131.428 143.273 131.569C143.394 131.711 143.561 131.805 143.745 131.835Z" fill="#333184"/>
<path d="M99.1512 130.045C99.0194 130.045 98.893 130.097 98.7998 130.189C98.7066 130.282 98.6543 130.408 98.6543 130.539C98.6543 130.67 98.7066 130.795 98.7998 130.888C98.893 130.98 99.0194 131.032 99.1512 131.032C99.283 131.032 99.4094 130.98 99.5025 130.888C99.5957 130.795 99.6481 130.67 99.6481 130.539C99.6481 130.408 99.5957 130.282 99.5025 130.189C99.4094 130.097 99.283 130.045 99.1512 130.045Z" fill="#333184"/>
<path d="M105.548 131.321C104.699 130.704 103.684 132.062 104.657 132.638C104.908 132.798 105.207 132.866 105.503 132.828C105.798 132.79 106.071 132.65 106.272 132.432C106.38 132.322 106.447 132.179 106.463 132.025C106.478 131.872 106.44 131.719 106.356 131.59C106.272 131.461 106.146 131.364 105.999 131.315C105.852 131.266 105.693 131.269 105.548 131.321Z" fill="#333184"/>
<path d="M126.541 110.77C127.162 110.565 127.245 109.557 126.541 109.413C126.122 109.361 125.698 109.361 125.278 109.413C124.202 109.413 124.264 111.182 125.278 111.038C125.708 110.992 126.131 110.903 126.541 110.77Z" fill="#333184"/>
<path d="M164.654 121.406C164.116 120.85 162.936 121.056 163.04 121.982C163.034 122.228 163.105 122.471 163.242 122.676C163.379 122.882 163.575 123.042 163.806 123.133C164.029 123.197 164.267 123.189 164.486 123.111C164.705 123.034 164.894 122.891 165.027 122.702C165.116 122.601 165.178 122.479 165.207 122.348C165.237 122.218 165.233 122.082 165.196 121.953C165.159 121.824 165.09 121.706 164.995 121.611C164.901 121.515 164.784 121.445 164.654 121.406Z" fill="#333184"/>
<path d="M22.3799 117.004C22.0994 117.136 21.7984 117.219 21.4897 117.251C20.4959 117.251 20.5373 118.896 21.4897 118.793C21.998 118.728 22.4857 118.552 22.9182 118.279C23.56 117.868 23.1459 116.716 22.3799 117.004Z" fill="#333184"/>
<path d="M45.9845 125.809C45.8065 125.84 45.6242 125.84 45.4462 125.809C44.3903 125.809 44.3903 127.495 45.4462 127.434C45.7037 127.451 45.9612 127.401 46.1935 127.289C46.4258 127.177 46.6248 127.007 46.7712 126.796C46.8289 126.678 46.8518 126.546 46.8374 126.415C46.8229 126.284 46.7717 126.16 46.6896 126.057C46.6074 125.954 46.4977 125.876 46.373 125.832C46.2483 125.788 46.1137 125.78 45.9845 125.809Z" fill="#333184"/>
<path d="M57.3286 123.936C57.1836 123.936 56.9766 123.936 56.811 124.121C56.7034 124.183 56.6141 124.271 56.5519 124.377C56.4898 124.484 56.457 124.605 56.457 124.728C56.457 124.851 56.4898 124.972 56.5519 125.079C56.6141 125.185 56.7034 125.274 56.811 125.335C57.0401 125.454 57.3034 125.49 57.5563 125.437C57.8092 125.385 58.036 125.247 58.1981 125.047C58.3043 124.921 58.3637 124.762 58.3667 124.598C58.3696 124.433 58.3157 124.273 58.2141 124.143C58.1125 124.013 57.9692 123.922 57.8081 123.884C57.647 123.847 57.4778 123.865 57.3286 123.936Z" fill="#333184"/>
<path d="M53.9346 115.708C53.9593 115.621 53.9659 115.53 53.9539 115.441C53.942 115.352 53.9119 115.266 53.8653 115.189C53.8188 115.112 53.7568 115.045 53.6833 114.993C53.6097 114.941 53.5261 114.904 53.4377 114.885C52.6303 114.7 52.2783 115.399 52.1748 116.078C52.0299 117.23 54.2452 117.25 53.976 116.078C53.9862 115.955 53.9862 115.831 53.976 115.708H53.9346Z" fill="#333184"/>
</g>
<defs>
<clipPath id="clip0">
<rect width="173" height="145" fill="white"/>
</clipPath>
</defs>
</svg>
