<?xml version="1.0" encoding="utf-8"?>
<!-- Generator: Adobe Illustrator 25.4.1, SVG Export Plug-In . SVG Version: 6.00 Build 0)  -->
<svg version="1.1" id="Layer_1" xmlns="http://www.w3.org/2000/svg" xmlns:xlink="http://www.w3.org/1999/xlink" x="0px" y="0px"
	 viewBox="0 0 113 75.2" style="enable-background:new 0 0 113 75.2;" xml:space="preserve">
<style type="text/css">
	.st0{fill:#484751;}
</style>
<path class="st0" d="M26.9,59.8c0-0.1-0.1-0.1-0.1-0.2c-0.1,0-0.1-0.1-0.2-0.1c-4-0.1-6.1,2.6-6.6,6.5c-0.1,0.9,0.1,1.7,0.4,2.5
	c0.3,0.8,0.8,1.5,1.5,2c0.6,0.6,1.4,1,2.2,1.2c0.8,0.2,1.7,0.2,2.5,0C32.9,70.7,33.3,61,26.9,59.8z M29.4,67.8
	c-0.1,0-0.2,0.1-0.3,0.1C29,68,29,68.1,29,68.2c0,0.1,0.1,0.2,0.1,0.3c0.1,0.1,0.2,0.1,0.3,0.1c-0.4,0.6-1,1.1-1.6,1.5
	c-0.7,0.4-1.5,0.5-2.2,0.5c-0.8,0-1.5-0.3-2.2-0.7c-0.7-0.4-1.2-1-1.6-1.7c-0.4-0.7-0.5-1.5-0.5-2.2c0-1.4,0.5-2.7,1.4-3.7
	c0.9-1,2.2-1.7,3.5-1.9c0,0.1,0,0.2,0.1,0.2c0,0.1,0.1,0.1,0.2,0.2c2,1,3.5,2.1,3.8,4.5c0.1,0.9-0.1,1.8-0.4,2.6
	c-0.1-0.1-0.1-0.1-0.2-0.1C29.6,67.7,29.5,67.7,29.4,67.8L29.4,67.8z"/>
<path class="st0" d="M26.1,64.2c-0.1,0-0.2,0.1-0.3,0.1c-0.1,0.1-0.1,0.2-0.1,0.3h-0.2c-0.7,0.4-1.4,1.3-0.7,2.1
	c0.3,0.3,0.7,0.5,1.1,0.6c0.4,0.1,0.9,0,1.2-0.3c0.3-0.2,0.5-0.4,0.7-0.8c0.1-0.3,0.2-0.7,0.1-1c-0.1-0.4-0.4-0.7-0.7-0.8
	C26.9,64.2,26.5,64.1,26.1,64.2z M26.7,66.1c-0.1,0.1-0.3,0.1-0.5,0.1s-0.3-0.1-0.5-0.1c-0.4-0.2,0.2-0.7,0.3-0.9
	c0.1,0,0.1-0.1,0.1-0.2c0.3,0.1,0.6,0.1,0.7,0.4c0.1,0.1,0.1,0.2,0,0.4C26.9,66,26.8,66.1,26.7,66.1z"/>
<path class="st0" d="M24.4,62h-0.2c-0.8-0.2-0.8,1.2,0,1l0.2-0.1c0.1,0,0.2,0,0.3-0.1c0.1-0.1,0.1-0.2,0.1-0.3s0-0.2-0.1-0.3
	C24.6,62.1,24.5,62,24.4,62z"/>
<path class="st0" d="M27.4,63.3c0.1,0,0.3-0.1,0.3-0.2c0.1-0.1,0.1-0.3,0.1-0.4c0-0.1-0.1-0.2-0.1-0.3s-0.2-0.1-0.3-0.1
	c-0.1,0-0.3,0.1-0.3,0.2c-0.1,0.1-0.1,0.3-0.1,0.4c0,0.1,0.1,0.2,0.1,0.3C27.2,63.2,27.3,63.3,27.4,63.3z"/>
<path class="st0" d="M23.3,65.4c0-0.1-0.1-0.3-0.2-0.3C23,65,22.9,65,22.7,65c-0.1,0-0.3,0-0.4,0.1c-0.1,0.1-0.2,0.2-0.2,0.3
	c0,0.1,0,0.2,0.1,0.3c0.1,0.1,0.1,0.2,0.2,0.3c0.1,0.1,0.2,0.1,0.3,0.1c0.1,0,0.2,0,0.3-0.1c0.1-0.1,0.2-0.1,0.2-0.2
	C23.3,65.7,23.3,65.6,23.3,65.4z"/>
<path class="st0" d="M29.4,64.4c-0.1,0-0.3,0.1-0.3,0.2c-0.1,0.1-0.1,0.2-0.1,0.4c0,0.1,0,0.3,0.1,0.4c0.1,0.1,0.2,0.2,0.3,0.2
	c0.1,0,0.3-0.1,0.3-0.2c0.1-0.1,0.1-0.2,0.1-0.4c0-0.1,0-0.3-0.1-0.4C29.7,64.5,29.5,64.4,29.4,64.4z"/>
<path class="st0" d="M20.3,62.5c0.2-0.6,0.4-1.2,0.8-1.7c0.3-0.3-0.3-0.8-0.6-0.4c-0.5,0.5-0.9,1.2-1,1.9c0,0.1,0,0.2,0,0.3
	s0.1,0.2,0.2,0.2c0.1,0,0.1,0,0.2,0s0.1,0,0.2,0c0,0,0.1-0.1,0.1-0.1C20.3,62.6,20.3,62.6,20.3,62.5z"/>
<path class="st0" d="M30.7,60.2c-0.6-0.3-1,0.5-0.5,0.9c0.7,0.4,1.2,1,1.6,1.7c0.4,0.8,0.5,1.6,0.5,2.4c0,0.5,1,0.7,1,0.1
	c0.1-1-0.1-2.1-0.5-3C32.4,61.4,31.6,60.7,30.7,60.2z"/>
<path class="st0" d="M96.4,59.7h-0.1c-1.6-0.6-3.3-0.7-4.9-0.2c-1.6,0.5-3,1.5-4,2.9c-2.2,3-0.5,7,2.5,8.7c1.4,0.8,3.1,1.1,4.7,0.7
	c1.6-0.4,3-1.4,3.8-2.9l0.2-0.4C100.1,65.7,100.5,60.6,96.4,59.7z M97.3,68.2c-1.5,2.7-4.7,3-7.2,1.6c-1.1-0.6-2-1.6-2.3-2.8
	c-0.4-1.2-0.3-2.5,0.3-3.6c0.2-0.4,0.4-0.7,0.7-1c0.9-0.9,2-1.6,3.2-2c1.2-0.4,2.5-0.4,3.8,0c0,0.1,0.1,0.2,0.1,0.3
	c0.1,0.1,0.1,0.1,0.2,0.2C99.3,62.1,98.5,65.8,97.3,68.2L97.3,68.2z"/>
<path class="st0" d="M93.7,66.7c0.1,0,0.2-0.1,0.3-0.2c0.1-0.1,0.1-0.2,0.1-0.4c0.1,0,0.1-0.1,0.2-0.2c0-0.1,0.1-0.1,0.1-0.2
	s0-0.2,0-0.2c0-0.1-0.1-0.2-0.1-0.2c0-0.1-0.1-0.1-0.2-0.1c-0.2-0.1-0.4-0.2-0.6-0.2c-0.1-0.1-0.2-0.1-0.3-0.1s-0.2,0-0.3,0.1h-0.1
	c-0.1,0.1-0.2,0.2-0.3,0.3c-0.1,0.2-0.1,0.3-0.1,0.5c0,0.2,0.1,0.3,0.2,0.5c0.1,0.2,0.3,0.4,0.5,0.4C93.2,66.7,93.4,66.8,93.7,66.7z
	"/>
<path class="st0" d="M93.9,63h0.3c0.1,0,0.3-0.1,0.4-0.3c0.1-0.1,0.1-0.3,0.1-0.4c0-0.1-0.1-0.2-0.2-0.3c0,0.1,0,0-0.1-0.1
	c-0.1-0.1-0.1-0.1-0.2-0.1c-0.1,0-0.2-0.1-0.3-0.1c-0.1,0-0.2,0-0.3,0c-0.1,0-0.2,0.1-0.2,0.1c-0.1,0.1-0.1,0.1-0.2,0.2
	c0,0,0,0.1,0,0.1C92.9,62.5,93.4,63.1,93.9,63z"/>
<path class="st0" d="M90.9,63.9c0-0.2,0-0.4,0-0.6c0-0.1-0.1-0.3-0.3-0.3c-0.1-0.1-0.3-0.1-0.4-0.1c-0.1,0-0.2,0.1-0.3,0.2
	s-0.1,0.2-0.2,0.3c0,0.2,0,0.4,0,0.6c0,0.1,0.1,0.3,0.2,0.3c0.1,0.1,0.2,0.1,0.4,0.1c0.1,0,0.3,0,0.4-0.1
	C90.8,64.2,90.8,64.1,90.9,63.9z"/>
<path class="st0" d="M88.9,66c-0.1,0-0.1,0.1-0.2,0.1c-0.1,0.1-0.1,0.1-0.1,0.2c0,0.1,0,0.2,0,0.2c0,0.1,0,0.2,0.1,0.2
	c0.1,0.1,0.1,0.2,0.3,0.3c0.1,0,0.2,0.1,0.2,0.1c0.1,0,0.2,0,0.3,0c0.1,0,0.2-0.1,0.2-0.1c0.1-0.1,0.1-0.1,0.2-0.2v-0.1
	c0.1-0.1,0.1-0.3,0.1-0.4c0-0.1-0.1-0.3-0.3-0.4c-0.1-0.1-0.2-0.1-0.3-0.1C89,65.9,88.9,65.9,88.9,66z"/>
<path class="st0" d="M97.1,63.7c-0.1-0.1-0.3-0.1-0.4-0.1c-0.2,0-0.3,0.1-0.4,0.2c-0.1,0.1-0.1,0.2-0.1,0.3c0,0.1,0,0.2,0.1,0.3
	l0.1,0.1c0.5,0.5,1.4-0.3,0.8-0.8L97.1,63.7z"/>
<path class="st0" d="M98.9,59.6c-0.4-0.3-0.9,0.4-0.5,0.7c0.6,0.5,1,1.2,1.1,2c0.1,0.5,1,0.4,1-0.1c0-0.5-0.2-1-0.5-1.5
	C99.7,60.3,99.3,59.9,98.9,59.6z"/>
<path class="st0" d="M100.6,47.4c-0.6,0-0.8,1-0.1,1.1c0.3,0,0.7,0.1,1,0.2c0.3,0.2,0.5,0.4,0.7,0.6c0.3,0.6-0.4,1.1-0.8,1.3
	c-0.4,0.2-1.7,0.5-2.3,0c-0.5-0.5-0.1-1.5,0.1-2c0.2-0.5-0.7-0.9-0.9-0.4c-0.3,0.5-0.5,1-0.5,1.6c0,0.6,0.2,1.2,0.5,1.6
	c0.8,1,2.5,0.7,3.6,0.3c0.5-0.2,0.9-0.5,1.2-1c0.3-0.5,0.4-1,0.3-1.5c-0.2-0.6-0.6-1-1-1.4C101.8,47.5,101.2,47.4,100.6,47.4z"/>
<path class="st0" d="M112.9,61.3c0.1-1.8,0.5-3.4-1-4.8c-0.2-0.1-0.4-0.3-0.6-0.4c0,0,0.1-0.1,0.1-0.1c1.1-1.3,0.6-3.7,0.2-5.2
	c-0.2-1.2-0.7-2.4-1.5-3.3c0.5-2.8-0.1-4.5-2.3-5.1c0-0.1,0-0.1,0-0.2c0-0.1,0-0.1,0-0.2c-0.9-3.8-2.3-11.2-6.5-12.8
	c-0.6-0.2-1.3-0.4-2-0.6c0-0.1,0-0.2,0-0.3c-0.1-0.6-0.3-1.2-0.6-1.8c0-0.1,0-0.1,0-0.2c0.2-0.9,0.1-1.9-0.1-2.8
	c-0.3-0.9-0.8-1.7-1.5-2.4c2-1.3,7.1-2.1,6.6-5c-0.3-1.7-3-2.6-4.5-2.7c-1.4-0.1-2.7,1.9-3.7,3.2c0.1-1.6-0.2-3.2-0.9-4.6
	c-0.8-1.5-2.8-1.8-4.5-1.8c1.1-3.3,1.5-8.5-3-8.9c-0.8-0.1-1.5-0.1-2.3-0.1C85,1,85,0.7,84.9,0.4c0-0.1-0.1-0.2-0.2-0.3
	C84.6,0,84.5,0,84.4,0c-0.1,0-0.2,0.1-0.3,0.1C84.1,0.2,84,0.3,84,0.4c0,0.3,0,0.6,0,0.8c-2.4,0-4.8,0.1-7,0.1H75V0.9
	c0-0.1-0.1-0.2-0.2-0.3c-0.1-0.1-0.2-0.1-0.3-0.1c-0.1,0-0.2,0-0.3,0.1c-0.1,0.1-0.1,0.2-0.2,0.3v0.5c-2.5,0-5.1,0.1-7.6,0.2V1
	c0-0.1,0-0.2-0.1-0.3c-0.1-0.1-0.2-0.1-0.3-0.2c-0.1,0-0.2,0-0.3,0.1c-0.1,0.1-0.2,0.2-0.2,0.3c-0.1,0.2-0.1,0.5-0.2,0.7l-3,0.1
	c-0.1,0-0.2,0-0.3,0.1C62,1.8,61.9,1.9,61.9,2c-0.4,3.4-0.2,6.9,0.8,10.2c0,0.1,0.1,0.2,0.2,0.2s0.2,0.1,0.3,0.1
	c0.1,0,0.2-0.1,0.2-0.1c0.1-0.1,0.1-0.2,0.1-0.3c0-1.4-1.9-9.5,0.3-9.5h1.5c0,1.3,0.1,2.7,0.4,4c-1.5,1.2-1.5,3.7-1.3,6
	c-0.3-0.2-0.7-0.2-1-0.2c-0.4,0-0.7,0.1-1,0.2c-0.1,0-0.2,0.1-0.2,0.2c0,0.1-0.1,0.2-0.1,0.3c0,0.9,0,1.9,0.1,2.8
	c-0.8,0-1.5,0.1-2.2,0.4c-2.1,0.7-1.1,3.4-1.3,5.1c-0.6,0.1-1.2,0.4-1.6,0.8c-0.4,0.4-0.6,0.8-0.8,1.3c-0.1,0.5-0.2,1-0.1,1.5
	c-1.9,0.7-3.6,1.8-5,3.3c-1.1,0.2-2.2,0.5-3.3,0.9c-3.7,1.4-7.2,3.3-10.4,5.7c-3,2.2-5.6,5.9-9.3,6.8c-0.1,0-0.1,0-0.2,0.1
	c-0.1,0-0.1,0.1-0.1,0.1c0,0-0.1,0.1-0.1,0.2c0,0.1,0,0.1,0,0.2c0,0,0,0.1,0,0.1c-4.8,0.2-9.5,0.7-14.2,1.7c-3.8,0.7-8.1,2-9.8,5.9
	c0,0.1-0.1,0.2-0.1,0.3s0,0.2,0.1,0.3c-0.8,0.4-1.5,1.1-1.8,2S1.6,54.2,2,55.1c0.1,0.2,0.3,0.5,0.4,0.7c-0.1,0.1-0.2,0.1-0.2,0.2
	s0,0.2,0,0.3c-2.2,1.3-1.7,4.2-1.1,6.6c0.9,3.3,3.7,3.6,6.7,3.8c0.4,0,0.7,0,1,0.1c1.3,3,5.7,1.6,8.2,1.5h0.1
	c0.4,1.7,1.3,3.3,2.6,4.5c1.3,1.2,2.9,2,4.6,2.3c2.3,0.2,4.6-0.4,6.4-1.7c1.9-1.3,3.2-3.2,3.9-5.4c0,0.1,0,0.1,0,0.2
	c0,0.1,0.1,0.1,0.1,0.1c0,0,0.1,0.1,0.1,0.1c0.1,0,0.1,0,0.2,0c8.6,0.2,17.2,0.3,25.7,0.5c7.7,0.2,15.3,0.5,22.9-0.7h0.1
	c0.4,2.1,1.6,3.9,3.3,5.2c1.7,1.3,3.8,2,5.9,1.9c2-0.1,3.9-0.9,5.5-2.1c1.6-1.2,2.7-2.9,3.3-4.9c0.1,0.1,0.2,0.2,0.4,0.2
	c0.6,0.1,1.2,0,1.7-0.3c0.6-0.3,1.1-0.7,1.6-1.1c0.4-0.3,0.8-0.7,1.1-1.1c1.8,0.1,3.6-0.3,5.3-1C113.2,64.1,112.8,62.6,112.9,61.3z
	 M110.5,55.4c-0.1,0.1-0.1,0.2-0.1,0.3s0,0.2,0.1,0.3c-0.5-0.1-1-0.1-1.5,0c-0.2-0.9-0.3-1.8-0.4-2.7c0.7,0.1,1.4,0,2.1-0.3
	C110.8,53.8,110.8,54.6,110.5,55.4L110.5,55.4z M109.5,48.6c0.4,0.8,0.8,1.7,1,2.6c0,0.3,0.1,0.5,0.2,0.8l-2.1,0.3
	c-0.1-1.1-0.4-3.1,0.3-3.9c0.1,0.1,0.2,0.2,0.3,0.2C109.2,48.7,109.3,48.7,109.5,48.6L109.5,48.6z M108.8,47.1
	c-1.4,0.3-1.3,2.6-1.3,3.6c0,1.2,0.1,2.4,0.3,3.6c0,0.6,0.2,1.2,0.3,1.8c-1,0.2-2.1,0.2-3.2,0.2c-1.2-0.2-2.6-1.6-3.6-2.3
	c-1.3-0.7-2.6-1.3-4.1-1.6c-2.9-0.8-5.9-0.8-8.8,0l-0.5,0.2c0.4-3,0.2-6-0.4-8.9c2.4,0,4.9,0,7.3-0.1c3-0.1,5.8,0.1,8.7,0.1h3.2
	C108.9,43.7,109.2,45.5,108.8,47.1L108.8,47.1z M85.3,31.2c0-0.1,0-0.1-0.1-0.2c0-0.1-0.1-0.1-0.1-0.1l3.5,0.3
	c0.5,3.7,0.1,7.4,0.5,11h-4.3c0.1-0.1,0.2-0.1,0.3-0.2c0.1-0.1,0.1-0.2,0.1-0.4C84.4,38.1,85.5,34.7,85.3,31.2z M89.6,31.2l2.6,0.2
	c3.1,0.1,6.2,0.4,8.7,2.5c2.2,1.9,3.3,5.5,4.4,8.2c-5-0.2-10,0-15,0C90,38.5,90.2,34.9,89.6,31.2L89.6,31.2z M103.8,34.2
	c0.9,1.9,1.6,3.9,2.1,5.9c-2-4.5-3.7-8.2-8.9-9.4c-2.5-0.4-4.9-0.6-7.4-0.7c-4.2-0.3-8.4-0.8-12.6-1.1l-4-0.3
	c6.7,0.2,13.5,0.7,20.2,0.8C97.7,29.5,101.5,29.7,103.8,34.2L103.8,34.2z M84.2,42c0,0.1,0.1,0.2,0.2,0.2h-0.6
	C77.2,42.1,70.6,42,64,41.9c0.5-1.8,0.7-3.6,0.6-5.4c0-2.4-0.2-4.7-0.8-7c3.6,0,7.2,0.3,10.6,0.4c3.4,0.2,7,0.6,10.6,0.9
	c-0.1,0-0.2,0.1-0.2,0.1c-0.1,0.1-0.1,0.1-0.1,0.2C84.1,34.4,82.8,38.9,84.2,42L84.2,42z M60.3,29.6h0.7c0.1,1.9,0.1,3.7,0.2,5.6
	c0,0.1,0.1,0.2,0.2,0.3c0.1,0.1,0.2,0.1,0.3,0.1s0.2,0,0.3-0.1c0.1-0.1,0.1-0.2,0.2-0.3c0.1-1.9,0-3.8-0.3-5.6h1
	c0.5,4.1,0.5,8.3,0,12.4h-2.3c0-0.1,0.1-0.1,0.1-0.2C61.4,37.6,60.5,33.6,60.3,29.6L60.3,29.6z M60.9,27.2c0-0.4,0-0.9,0.1-1.3h0.5
	l5.8,0.2c-0.1,0.4-0.1,0.7-0.1,1.1C65,27.2,62.9,27.2,60.9,27.2L60.9,27.2z M61.4,24.6c0.2-0.4,0.6-0.7,1-1c0.4-0.2,0.8-0.4,1.3-0.4
	c1.5-0.2,2.9-0.4,4.3-0.4c0,0.6,0.1,1.2,0.2,1.8v0.1L61.4,24.6z M70.3,7.6h-0.5c0.1-0.3,0.2-0.7,0.3-1c0.4,0,0.8,0.2,1.1,0.4
	c0.3,0.2,0.6,0.6,0.7,0.9c0.5,1.5,0,3.3,0.3,4.9c-0.3,0.5-0.4,1.1-0.3,1.8c-0.1,0.1-0.2,0.2-0.2,0.3c0,0.3,0,0.7,0,1
	c-0.9,0.1-1.8,0.1-2.8,0.2c0-2.4,0.2-4.9,0.7-7.3l0.9-0.1C71.1,8.6,70.8,7.7,70.3,7.6L70.3,7.6z M71.5,16.9c1.3-0.1,2.5-0.3,3.8-0.4
	c2.3,0,1.4,2.7,1.8,3.9c0,0.1,0.1,0.1,0.1,0.2c-1.1,0.2-2.2,0.5-3.2,1c-0.3,0.1-0.5,0.3-0.7,0.5c-1.4-0.3-2.9-0.4-4.3-0.4
	c0-1.5-0.1-3-0.1-4.5C69.7,17,70.6,17,71.5,16.9L71.5,16.9z M77.3,12.2c1.8-0.3,3.7-0.5,5.5-0.6c0.4,1.7,0.7,3.4,0.9,5.2
	c-2.2,0-4.4,0.4-4.2,3c0,0.1,0,0.2,0.1,0.3c0.1,0.1,0.2,0.1,0.3,0.1c0.1,0,0.2,0,0.3-0.1c0.1-0.1,0.1-0.2,0.1-0.3
	c0.1-1.8,1.8-2,3.4-2c0,0.7,0.1,1.5,0.1,2.2c-2,0-4,0.2-5.9,0.5v-0.2c-0.1-1.2,0.4-3.7-1-4.4c-1.4-0.5-2.9-0.5-4.3-0.2
	c0-0.3,0-0.6,0-0.9C72.8,12.5,75.3,12.6,77.3,12.2L77.3,12.2z M77.8,7.8c0.1,0,0.2,0,0.3,0c0.2,0,0.4-0.1,0.6-0.1c0.3,0,0.7,0,1,0
	c0.1,0,0.2,0.1,0.3,0.1s0.2,0,0.3-0.1c0.4,0,0.8,0,1.2,0c0.4,1,0.8,2,1.2,3c-2,0.2-4,0.4-5.9,0.7C76.4,9.9,76.1,8.4,77.8,7.8
	L77.8,7.8z M74.1,27.1c0.1-0.3,0.1-0.6,0.1-1c3.1,0,6.1,0,9.2,0.1c0,0.3-0.1,0.5-0.1,0.8c-0.1,0.7,1,1,1.1,0.3
	c0-0.4,0.1-0.7,0.2-1.1h1.3c1.5,0,3,0.1,4.6,0.2c0,0.6,0.1,1.1,0.3,1.6h-1.5c-5.1,0-10.1-0.6-15.2-0.8h0.1L74.1,27.1z M75.8,21.9
	c2.4-0.5,4.9-0.9,7.4-1h0.7c0,1.4-0.1,2.7-0.3,4.1c-2-0.1-4-0.2-5.9-0.2h-3.6c-0.2-0.5-0.2-1.1,0-1.6c0.2-0.5,0.6-0.9,1.2-1.1
	C75.4,22,75.6,22,75.8,21.9L75.8,21.9z M72.8,24.7h-3.7v-0.1c0-0.6-0.1-1.2-0.1-1.9c1.3,0,2.6,0.1,3.9,0.3
	C72.8,23.6,72.7,24.2,72.8,24.7L72.8,24.7z M73,26.2c0.1,0.4,0.2,0.7,0.3,1l0.1,0.1l-4.9-0.1c0-0.4,0-0.7,0.1-1.1
	C70.1,26.1,71.6,26.2,73,26.2L73,26.2z M91.8,28.1c0.1-0.3,0-0.6-0.1-0.9c-0.1-0.2-0.1-0.4-0.1-0.6h0.7c1.7,0,5.2-0.9,5.7,1.8
	C95.9,28.1,93.9,28,91.8,28.1L91.8,28.1z M95.6,18.1c1.3-0.9,1.9-2.5,3.2-3.4c1.3-1,4.9,1.2,3.6,2.6c-1.6,1.7-4.6,1.6-6.2,3.3
	c-0.3-0.2-0.6-0.3-1-0.4C95.4,19.5,95.5,18.8,95.6,18.1L95.6,18.1z M97,22.1c0.9,0.8,0.8,2.3,0.8,3.5c-1.1-0.5-2.3-0.7-3.5-0.5
	c-3.2,0.2-6.4,0-9.6,0c0.2-1.4,0.3-2.8,0.3-4.2c2.2-0.1,4.5,0,6.7,0C93.6,20.7,95.4,21.2,97,22.1L97,22.1z M85,17.8h1.2
	c1.7-0.1,5.9-0.9,5.7,1.8c-2.3-0.1-4.8,0.1-6.9,0.2C85,19.2,85,18.5,85,17.8L85,17.8z M91.5,11.4c4,0.2,3.3,5.7,2.8,8.4
	c-0.5-0.1-0.9-0.2-1.4-0.2c0.8-3.5-4.1-3-6.2-2.9h-1.7c-0.1-1.8-0.4-3.6-0.8-5.3l2.4-0.1C88.1,11.4,89.8,11.4,91.5,11.4L91.5,11.4z
	 M89.7,4.9c0.2,1.7,0.1,3.4-0.4,5c0,0.1,0,0.3,0,0.4h-1c0-1.6,0.1-3.2-1.3-4.3c-0.3-0.2-0.7-0.3-1.1-0.3c0-1.1-0.1-2.1-0.4-3.2
	C87.1,2.5,89.4,2.1,89.7,4.9L89.7,4.9z M85,6.8c0.1,0.1,0.2,0.1,0.3,0.1c0.1,0,0.2,0,0.3-0.1c1.9,0,1.7,2.2,1.6,3.6
	c-1.2,0-2.3,0.1-3.5,0.2c-0.3-1.1-0.8-2.1-1.3-3.2C83.3,7.2,84.1,7,85,6.8L85,6.8z M75.1,2.5h0.7c2.8,0,5.7,0.1,8.5,0.1
	c0.3,1.1,0.4,2.1,0.4,3.2C83.7,6,82.8,6.3,82,6.5c-0.3-0.5-0.6-0.9-0.9-1.4C81,5,80.9,5,80.8,4.9c-0.1,0-0.2,0-0.3,0
	c-0.1,0-0.2,0.1-0.2,0.2c0,0.1-0.1,0.2,0,0.3c-0.1,0-0.1,0.1-0.1,0.1c-0.1,0.1-0.2,0.1-0.3,0.3l-0.2,0.4c0,0.1-0.1,0.2-0.1,0.4h-1.4
	c-0.4-1.1-1.6-1-2.9-0.8C75.1,4.7,75,3.6,75.1,2.5L75.1,2.5z M74.3,7c0,0.1,0.1,0.1,0.1,0.2c0.1,0.1,0.1,0.1,0.2,0.1
	c0.1,0,0.1,0,0.2,0c0.1,0,0.1,0,0.2,0c0.1,0,0.2-0.1,0.2-0.2c0.1-0.1,0.1-0.2,0.1-0.3c0.2-0.1,0.5-0.1,0.8-0.1s0.5,0.1,0.7,0.2
	c-0.2,0.1-0.4,0.2-0.6,0.3c-1.3,1-1,2.8-0.6,4.2l-1.3,0.2c-0.5,0.1-0.9,0.2-1.4,0.4c0.1-1.7,0-3.4-0.4-5C73.1,7.2,73.7,7.2,74.3,7
	L74.3,7z M74,2.5c-0.1,1.2-0.1,2.4,0.1,3.5c-0.5,0.1-1,0.1-1.5,0.1c-0.1,0-0.2,0-0.3,0c-0.1,0-0.2,0.1-0.2,0.2
	c-0.2-0.3-0.5-0.5-0.9-0.6c0-0.4,0-0.8-0.1-1.2c0-0.1-0.1-0.2-0.1-0.3c-0.1-0.1-0.2-0.1-0.3-0.1h-0.1c0-0.1-0.1-0.1-0.2-0.2
	c-0.1,0-0.2,0-0.3,0c-0.1,0-0.1,0.1-0.1,0.1c-0.2,0.5-0.4,0.9-0.6,1.4c-0.9,0.1-1.8,0.2-2.6,0.5c-0.1-1.1-0.2-2.3-0.2-3.4L74,2.5z
	 M65.8,7.9c0.1-0.2,0.3-0.4,0.5-0.6c0.1,0,0.2-0.1,0.3-0.1c0.1-0.1,0.1-0.1,0.2-0.2c0.7-0.4,1.5-0.6,2.3-0.6
	c-0.1,0.4-0.3,0.8-0.4,1.2c-0.6,0-1.2,0.1-1.8,0.2c-0.1,0-0.2,0.1-0.3,0.2c-0.1,0.1-0.1,0.2-0.1,0.4c0,0.1,0.1,0.2,0.1,0.3
	c0.1,0.1,0.2,0.1,0.3,0.1h1.5c-0.5,2.4-0.8,4.9-0.7,7.3c-0.5,0.1-1,0.2-1.5,0.3c0-0.1-0.1-0.1-0.1-0.2c-0.1,0-0.1-0.1-0.2-0.1
	C65.7,13.6,64.6,10.5,65.8,7.9L65.8,7.9z M66.9,17.4c0.2-0.1,0.4-0.1,0.6-0.1c0,1.5,0.1,3,0.3,4.4c-1.3,0-2.5,0.2-3.8,0.4
	C64.2,19.6,64.2,18.1,66.9,17.4L66.9,17.4z M63.1,13.5c0.4,0,0.8,0,1.1,0.1c0.1,0,0.1,0,0.2,0c0.1,0.9,0.2,1.8,0.3,2.5
	c-0.5-0.1-1-0.1-1.6-0.2C63.1,15.1,63.1,14.3,63.1,13.5L63.1,13.5z M60.4,17.1c1.4-0.3,2.9-0.3,4.4,0c-1.6,1-1.8,2.4-1.6,4.2
	c-1.2-0.2-2.5-0.3-3.7-0.2C59.6,19.8,59.1,17.5,60.4,17.1L60.4,17.1z M57.4,23.3c0.5-0.9,2.4-0.9,3.3-0.9c0.5,0,0.9,0,1.4,0.1h-0.3
	c-0.4,0.2-0.8,0.5-1.1,0.8c-0.3,0.4-0.5,0.8-0.6,1.2c-0.9,0-1.9,0.1-2.8,0.2C57.2,24.2,57.3,23.7,57.4,23.3L57.4,23.3z M57.2,27.3
	c0.1-0.4,0.1-0.9,0-1.3c0.8-0.1,1.7-0.1,2.5-0.1c-0.1,0.5,0,0.9,0.2,1.4c-0.9,0-1.9,0.1-2.8,0.2L57.2,27.3z M53.8,27.3
	c0.7-0.6,1.5-1,2.4-1.2c0,0.3,0,0.6,0,0.8c0,0.1,0,0.2,0,0.3c0,0.1,0.1,0.2,0.1,0.2c-1.1,0.1-2.1,0.3-3.2,0.4L53.8,27.3z M43.2,32.5
	c4-2.1,8.3-3.4,12.8-3.7l-2.4,0.3c-3.4,0.5-6.7,1.6-9.8,3.2c-3.2,1.6-5.8,4.3-8.7,6.2C37.6,36.2,40.4,34.2,43.2,32.5L43.2,32.5z
	 M31.8,41.4c-0.1,0.5-0.1,1,0,1.5c-0.1-0.1-0.1-0.1-0.2-0.1c-0.1,0-0.2,0-0.2,0c0-0.1-0.1-0.2-0.2-0.3c-0.1-0.1-0.2-0.1-0.3-0.1
	h-0.8C30.7,42.1,31.3,41.7,31.8,41.4L31.8,41.4z M14.8,45c5.2-0.8,10.4-1.3,15.7-1.5c-0.4,1-0.6,2-0.6,3.1c-0.1,1.2-0.3,3.8,0.5,4.9
	c-3.1-0.3-6.3,0.1-9.2,1.3c-2.9,1.2-5.5,3-7.5,5.4c-0.9-1.1-2.1-2-3.4-2.6l0.3-0.3c1-1.2,1.5-4.6-0.2-5.4c-1.8-0.5-3.7-0.4-5.4,0.2
	C6.9,46.5,11,45.7,14.8,45L14.8,45z M9.5,50.6c0.2,0,0.4,0.1,0.5,0.3c0.1,0.1,0.3,0.3,0.3,0.5c0.2,0.9,0.1,1.8-0.3,2.6
	c-0.1,0.2-0.3,0.4-0.4,0.6C9.8,53.2,9.7,51.9,9.5,50.6L9.5,50.6z M8.5,54.9H7.2C7.1,54.2,7,53.4,7,52.7c0-0.7,0-1.4,0-2.1
	c0.5-0.1,1-0.1,1.6-0.1c0.1,1.5-0.1,2.8-0.1,4.2C8.4,54.8,8.4,54.8,8.5,54.9L8.5,54.9z M3.6,51.8c0.6-0.6,1.3-0.9,2.1-0.9H6
	c-0.3,1.4-0.3,2.8,0,4.2c-0.8,0-1.7,0.1-2.5,0.3c0-0.1-0.1-0.1-0.1-0.2c-0.4-0.5-0.6-1.1-0.6-1.8C2.8,52.8,3.1,52.2,3.6,51.8
	L3.6,51.8z M10.5,67c1.7,0.3,3.6,0.4,4.6-0.4c0.1,0,0.2,0,0.3,0c0.5,0,1-0.1,1.5-0.2V67C15.3,67.2,12.3,68,10.5,67L10.5,67z
	 M17,65.4c-0.3,0-0.6,0-0.8,0.1H16c0.4-1.3,0.6-2.6,1-3.9c1-3.7,5.5-4.7,8.8-4.9c-1.9,0.1-3.6,0.8-5.1,1.9c-1.5,1.1-2.6,2.7-3.2,4.4
	C17.2,63.8,17.1,64.6,17,65.4L17,65.4z M27.8,73.9c-5.8,1.8-9.9-3.7-9.7-8.9c0.2-5.2,5.6-7.4,10.2-6.8c0,0.1,0.1,0.2,0.1,0.3
	c0.1,0.1,0.2,0.1,0.2,0.1C37.1,60.7,35,71.7,27.8,73.9L27.8,73.9z M83.5,66.9c-7.9,1.2-15.9,0.8-23.9,0.7c-8-0.1-16.2-0.3-24.4-0.1
	c-0.1,0-0.1,0-0.2,0c-0.1,0-0.1,0.1-0.2,0.1c0.1-0.5,0.3-1.1,0.3-1.6c0.1,0.2,0.3,0.3,0.6,0.4c0.2,0.1,0.4,0.1,0.7,0.1
	c0.1,0,0.1,0,0.2,0c0.1,0,0.1,0,0.2,0c7.4,0.4,15,0.1,22.4,0c3.7,0,7.4-0.2,11.2-0.3c3.7-0.2,7.7,0.2,11.5,0.2h0.2
	c0.1,0,0.2,0.1,0.3,0c0.1,0,0.2-0.1,0.2-0.2V66H83c0.3,0,0.5-0.1,0.7-0.3c0,0.4,0,0.7,0,1.1C83.6,66.8,83.6,66.8,83.5,66.9
	L83.5,66.9z M34.8,62.2c0.5,0.9,0.8,1.9,1.1,2.9h-0.1C35.8,65,35.7,65,35.6,65c-0.1,0-0.2,0-0.3,0C35.3,64.1,35.1,63.2,34.8,62.2
	L34.8,62.2z M83.9,64.3v0.3c-0.1,0-0.1-0.1-0.2-0.1c-0.1,0-0.2,0-0.2,0.1l-0.3,0.1c0.4-1.6,1.2-3,2.2-4.2c1-1.2,2.3-2.2,3.8-2.9
	c-1.3,0.6-2.5,1.6-3.4,2.7C84.8,61.5,84.2,62.9,83.9,64.3L83.9,64.3z M94.8,73.4c-5.5,1.9-9.9-2.8-9.7-8.1c0.1-5.9,6.6-8.2,11.5-6.8
	c0.1,0,0.2,0,0.3,0c0.1-0.1,0.2-0.1,0.2-0.3c0,0,0-0.1,0-0.1c1.2,0.5,2.2,1.4,3,2.4C103.4,65,99.3,71.9,94.8,73.4L94.8,73.4z
	 M103.9,66.7c-0.4,0.3-0.7,0.5-1.2,0.6c-0.1,0-0.2,0-0.3,0c-0.1,0-0.2-0.1-0.3-0.2c0.1-0.3,0.1-0.6,0.2-1c0.3,0,0.6-0.1,0.8-0.3
	c0.1,0.1,0.1,0.1,0.2,0.2c0.1,0,0.2,0.1,0.3,0l0.9-0.1C104.4,66.3,104.2,66.4,103.9,66.7L103.9,66.7z M110.8,63.8
	c-2.3,0.5-4.5,0.8-6.8,1c-0.5-2.7-1-4.9-3.1-6.8c-1.2-1-2.5-1.7-3.9-2.2c-1.5-0.5-3-0.6-4.5-0.5c-5,0.5-9.9,4.7-10.4,9.6
	c-3.4,0-6.7-0.4-10.2-0.2c-3.7,0.2-7.4,0.3-11.2,0.4C53,65.3,45.1,65,37.3,65.6c-1.2-5.3-4.6-9.2-10.2-9.7c-3-0.3-6.1,0.5-8.5,2.3
	c-2.3,2-2.7,4.5-3.4,7.1c-0.1,0-0.2,0-0.2,0.1c-0.1,0-0.1,0.1-0.2,0.2c-0.5,1.1-4.5,0.2-5.4,0.1c-2.1-0.3-5,0.2-6.4-1.7
	c-0.7-1.2-1-2.6-1.1-3.9c-0.1-0.3-0.1-0.7,0-1c0.1-0.3,0.2-0.7,0.4-1c0.2-0.3,0.4-0.6,0.7-0.8s0.6-0.3,1-0.4h0.2
	c1.3-0.4,2.7-0.6,4.1-0.5c2.1,0,3.4,1.6,4.7,3c0,0.1,0.1,0.1,0.1,0.1l0.2,0.2c0.5,0.5,1.2-0.2,0.9-0.7c2.3-2.1,4.1-4.2,7.3-5.2
	c2.6-0.7,5.4-1,8.1-0.9c4.7,0,8.6,7,10.4,10.7c0.4,0.8,1.5,0.1,1.1-0.7c-1.5-2.9-3.3-5.7-5.5-8.1c-1.1-1.5-2.8-2.6-4.6-3.1
	c0.1-0.1,0.1-0.1,0.1-0.2c0.1-1.2,0-2.4-0.2-3.6c-0.2-1.4,0.1-2.9,0.8-4.2c0.1-0.1,0.1-0.1,0.1-0.2c0.2,0.7,0.6,1.3,1.2,1.7
	c0.4,0.2,0.9,0.3,1.4,0.1c0.5-0.1,0.9-0.5,1.1-0.9c0-0.1,0.1-0.2,0.1-0.2c0.3-0.6,0.5-1.3,0.4-2c-0.1-0.7-0.3-1.3-0.7-1.9
	c-0.1-0.1-0.2-0.1-0.3-0.1c-0.1,0-0.2,0-0.3,0.1c-0.1,0.1-0.2,0.1-0.2,0.2c0,0.1-0.1,0.2,0,0.3c0.4,0.7,0.5,1.6,0.3,2.4
	c-0.1,0.4-0.5,1.3-1.1,1c-0.3-0.3-0.6-0.7-0.7-1.2c-0.1-0.4-0.2-0.9-0.2-1.3c0.1-0.5,0.3-0.9,0.7-1.2c0.4-0.3,0.8-0.5,1.3-0.5
	c0.1,0,0.2-0.1,0.3-0.1c0.1-0.1,0.1-0.2,0.1-0.2c2.2-1.3,4.2-2.7,6.1-4.3c3-2.1,6.3-3.7,9.9-4.5c2.6-0.6,5.3-1,8-1.1
	c-0.2,3.9,1,7.8,0.2,11.7c0,0.1,0,0.2,0,0.3c0,0.1,0.1,0.2,0.1,0.2h-0.3c-3.9-0.1-7.7,0-11.6,0.1c-3.5,0.1-7.6,0.9-11,0.4
	c-0.1,0-0.1,0-0.2,0c-0.1,0-0.1,0-0.2,0.1c0,0-0.1,0.1-0.1,0.1c0,0.1,0,0.1-0.1,0.2c0,0.1,0,0.2,0.1,0.3c0.1,0.1,0.1,0.2,0.2,0.2
	c1.9,0.4,3.8,0.5,5.7,0.1c3.1-0.3,6.2-0.2,9.3-0.3s6.2,0,9.3,0c0,0,0,0,0,0.1c0,0,0,0,0,0.1c0,6.4,0.4,12.8,0.4,19.2
	c-5.7,0.1-11.4,0.3-17,0.5c-0.4,0-0.5,0.7-0.1,0.8c4.7,0.7,9.5,0.1,14.2,0c5.7-0.1,11.4,0.2,17-0.4c0.7,0,0.8-1.2,0-1.2l-12.9,0.3
	c0-6.4-0.4-12.8-0.5-19.1c3.6,0.1,7.3,0.2,10.9,0.3c4.6,0.1,9.2,0.2,13.7,0.3c0.3,3.1,0.3,6.2,0.3,9.3c-1.9,1-3.6,2.3-5.1,3.9
	c-1.5,1.5-1.9,4.9-3.9,5.2c-0.6,0.1-0.4,1,0.1,1c0.7,0,1.4-0.1,2.1-0.3c0.1,0,0.2-0.1,0.3-0.2c0.1-0.1,0.1-0.2,0.1-0.4
	c0.3-4.5,5.4-7.9,9.3-8.9c4.9-1.3,9.5,0.9,13.4,3.7c2,1.5,8.5-0.5,8.5,2.8C111.6,60.5,111.7,63.7,110.8,63.8L110.8,63.8z"/>
<path class="st0" d="M86.7,41.5c0,0.1,0,0.2,0.1,0.2c0,0.1,0.1,0.1,0.2,0.2c0.1,0,0.1,0.1,0.2,0.1c0.1,0,0.2,0,0.2,0
	c0.1,0,0.2-0.1,0.3-0.2c0.1-0.1,0.1-0.2,0.2-0.3c0.2-3.3,0-6.7-0.6-10c-0.1-0.4-0.8-0.3-0.8,0.1C86.7,34.9,86.8,38.2,86.7,41.5z"/>
<path class="st0" d="M78.9,47.2h0.8c0,0-0.1,0.1-0.1,0.1c0,0,0,0.1,0,0.1C79.5,47.7,79.7,48,80,48c0.5,0.1,0.9,0,1.4-0.1
	c0.7,0,1.3-0.1,1.9-0.2c0.2-0.1,0.3-0.2,0.4-0.3c0.1-0.2,0.1-0.4,0.1-0.5c1-0.3,2.1-1.1,1.1-2.1c-0.1-0.1-0.1-0.1-0.2-0.1
	c-0.1,0-0.2,0-0.3,0c0-0.1-0.1-0.1-0.2-0.1c-2-0.8-6.5-1.1-5.9,2.2c0,0.1,0.1,0.3,0.2,0.3C78.6,47.1,78.8,47.2,78.9,47.2z
	 M83.9,45.4v0.1c-0.2,0.1-0.3,0.2-0.5,0.2c-0.6,0.1-1.1,0.2-1.7,0.3c-0.8,0.1-1.6,0.1-2.4,0C79.5,44.4,82.7,45.2,83.9,45.4
	L83.9,45.4z"/>
<path class="st0" d="M53,47.3c0.3,0,0.5,0,0.8,0c0,0.1,0.1,0.2,0.1,0.2c0.2,0.2,0.5,0.4,0.8,0.5c0.3,0.1,0.7,0.2,1,0.2
	c0.8-0.1,1.5-0.2,2.2-0.4c0.2,0,0.3-0.2,0.4-0.3s0.1-0.3,0.1-0.5c0-0.1-0.1-0.2-0.2-0.3c0.4-0.2,0.6-0.5,0.8-0.9
	c0.2-0.4,0.2-0.8,0.1-1.2c0-0.1,0-0.1-0.1-0.2c0,0-0.1-0.1-0.1-0.1c0-0.1-0.1-0.1-0.2-0.2c-0.1,0-0.1-0.1-0.2-0.1
	c-1.9-0.1-3.9-0.1-5.8,0.2c-0.1,0-0.2,0.1-0.2,0.2c-0.1,0.1-0.1,0.2-0.1,0.3v2.2c0,0.1,0,0.1,0.1,0.2s0.1,0.1,0.1,0.1
	c0.1,0,0.1,0.1,0.2,0.1C52.9,47.3,53,47.3,53,47.3L53,47.3z M58.2,45.1c-0.3,1.5-3.2,1.2-4.8,1.2v-1.2C55,44.9,56.6,45.2,58.2,45.1z
	"/>
<path class="st0" d="M10.9,47.9c1.8-1,3.9-1.4,5.9-1.3c2.5-0.1,5-0.5,7.4-0.7c0.1,0,0.2-0.1,0.3-0.2c0.1-0.1,0.1-0.2,0.1-0.4
	c0-0.1-0.1-0.2-0.1-0.3c-0.1-0.1-0.2-0.1-0.3-0.1c-2.9,0.1-5.9,0.3-8.8,0.7c-1.8-0.1-3.6,0.6-5.1,1.7C10.1,47.6,10.5,48.2,10.9,47.9
	z"/>
<path class="st0" d="M36,52.7c-0.1,0-0.1,0-0.2,0c-0.1,0-0.1,0-0.2,0c-0.1,0-0.1,0.1-0.1,0.1c0,0-0.1,0.1-0.1,0.1c0,0.1,0,0.2,0,0.2
	c0,0.1,0.1,0.2,0.1,0.2c0.9,0.6,1.6,1.5,2.4,2.1c0.5,0.4,1.2-0.3,0.7-0.7C37.9,54,37,53.3,36,52.7z"/>
<path class="st0" d="M78.9,57.7c1-1.6,2.3-2.9,3.8-3.9c0.1-0.1,0.2-0.2,0.2-0.3c0-0.1,0-0.3-0.1-0.4c-0.1-0.1-0.2-0.2-0.3-0.2
	c-0.1,0-0.2,0-0.3,0c-1.9,0.9-3.4,2.5-4.3,4.4C77.6,57.9,78.6,58.3,78.9,57.7z"/>
<path class="st0" d="M93.6,49.4c-0.5,0.1-1,0.2-1.5,0.3c-0.1,0-0.2,0-0.3,0.1c-0.1,0.1-0.1,0.2-0.1,0.3s0,0.2,0.1,0.3
	c0.1,0.1,0.2,0.1,0.3,0.1c0.6,0,1.2-0.1,1.8-0.2c0.1,0,0.1,0,0.2-0.1c0,0,0.1-0.1,0.1-0.1c0-0.1,0-0.1,0-0.2c0-0.1,0-0.1,0-0.2
	c0-0.1-0.1-0.2-0.2-0.3C93.9,49.4,93.7,49.4,93.6,49.4z"/>
<path class="st0" d="M8.9,57.1C8.4,56.9,8,57.8,8.5,58c0.6,0.3,1.1,0.6,1.5,1.1c0,0,0.1,0.1,0.1,0.1c0.1,0,0.1,0,0.2,0
	c0.1,0,0.1,0,0.2,0c0.1,0,0.1-0.1,0.1-0.1c0,0,0.1-0.1,0.1-0.1c0-0.1,0-0.1,0-0.2s0-0.1,0-0.2c0-0.1-0.1-0.1-0.1-0.1
	C10.2,57.8,9.6,57.4,8.9,57.1z"/>
<path class="st0" d="M6.7,58.4c-0.5-0.3-1,0.5-0.5,0.9c0.4,0.3,0.8,0.5,1.3,0.7c0.5,0.2,1-0.4,0.6-0.7C7.7,58.9,7.2,58.7,6.7,58.4z"
	/>
<path class="st0" d="M58.4,36.8c-0.3-1.8-0.4-3.6-0.3-5.4c0-0.4-0.6-0.6-0.7-0.2c-0.6,1.9-0.5,4,0.1,5.9
	C57.6,37.7,58.6,37.4,58.4,36.8z"/>
<path class="st0" d="M80.5,33c0.2,1.5,0.3,2.9,0.4,4.3c0,0.6,0.9,0.6,0.9,0c-0.1-1.5-0.3-3-0.5-4.5C81.2,32.2,80.5,32.5,80.5,33z"/>
<path class="st0" d="M66,36.2c0.1,1.2,0.1,2.4,0.3,3.5c0.1,0.5,0.8,0.4,0.8-0.1c0-1.1-0.1-2.3-0.3-3.4C66.7,35.6,65.9,35.6,66,36.2z
	"/>
<path class="st0" d="M38.7,42c0.2-0.8,0.1-1.6,0.3-2.4c0-0.5-0.7-0.7-0.7-0.2c-0.1,0.8-0.2,1.7-0.3,2.5C37.9,42.3,38.6,42.4,38.7,42
	z"/>
<path class="st0" d="M57.9,50.7c0.5,2.8,0.6,5.6,1,8.4c0,0.6,1,0.4,1-0.1c-0.2-2.9-0.6-5.7-1.3-8.5C58.6,50,57.8,50.2,57.9,50.7z"/>
<path class="st0" d="M63.7,45.2c0-0.1,0-0.2-0.1-0.3c-0.1-0.1-0.2-0.1-0.3-0.1s-0.2,0-0.3,0.1c-0.1,0.1-0.1,0.2-0.1,0.3
	c-0.1,1,0,2,0.2,3c0.1,0.1,0.1,0.2,0.3,0.2c0.1,0,0.2,0,0.4,0c0.1,0,0.2-0.1,0.2-0.2C64,48.1,64,48,64,47.9
	C63.9,47,63.8,46.1,63.7,45.2z"/>
<path class="st0" d="M71.6,60.1c-2.2-0.3-4.5-0.3-6.7,0c-0.6,0.1-0.3,1,0.3,0.9c2.2-0.2,4.3-0.2,6.5,0c0.3,0,0.6-0.1,0.6-0.4
	C72.1,60.3,71.9,60,71.6,60.1z"/>
<path class="st0" d="M89.7,13.2h1.5c0.1,0,0.2,0,0.3-0.1c0.1-0.1,0.1-0.2,0.1-0.3c0-0.1,0-0.2-0.1-0.3c-0.1-0.1-0.2-0.1-0.3-0.1
	c-0.5,0-1.1,0-1.6,0.1c-0.1,0-0.2,0.1-0.3,0.1c-0.1,0.1-0.1,0.2-0.1,0.3c0,0.1,0.1,0.2,0.1,0.3C89.5,13.2,89.6,13.2,89.7,13.2z"/>
<path class="st0" d="M91.7,14.8c0.2,0,0.5,0,0.7-0.1c0.1,0,0.2-0.1,0.2-0.2c0-0.1,0.1-0.2,0-0.3c0-0.1-0.1-0.2-0.2-0.3
	c-0.1-0.1-0.2-0.1-0.3-0.1c-0.2,0.1-0.3,0.1-0.5,0.1c-0.1,0-0.2,0.1-0.3,0.2s-0.1,0.2-0.1,0.3c0,0.1,0.1,0.2,0.1,0.2
	C91.5,14.8,91.6,14.8,91.7,14.8z"/>
<path class="st0" d="M73.4,17.8c0.5,0.1,1,0.1,1.5,0c0.1,0,0.3-0.1,0.3-0.2c0.1-0.1,0.1-0.2,0.1-0.4c0-0.1,0-0.3-0.1-0.4
	s-0.2-0.2-0.3-0.2c-0.2,0-0.5,0-0.7,0c-0.2,0-0.4,0-0.6,0c-0.1,0-0.1,0-0.2,0.1c0,0-0.1,0.1-0.1,0.1c0,0.1-0.1,0.1-0.1,0.2
	c0,0.1-0.1,0.1-0.1,0.2c0,0.1,0,0.1,0,0.2c0,0.1,0.1,0.1,0.1,0.2C73.3,17.8,73.4,17.8,73.4,17.8z"/>
<path class="st0" d="M74.7,18.7c-0.2,0-0.4,0-0.6-0.1c-0.1,0-0.1,0-0.2,0c-0.1,0-0.1,0-0.2,0c-0.1,0-0.1,0.1-0.2,0.1
	c0,0-0.1,0.1-0.1,0.2c0,0.1,0,0.1,0,0.2c0,0.1,0,0.1,0,0.2c0,0.1,0.1,0.1,0.1,0.2c0,0,0.1,0.1,0.2,0.1c0.3,0.1,0.7,0.1,1,0
	c0.1-0.1,0.2-0.2,0.2-0.3c0-0.1,0-0.3-0.1-0.4C74.8,18.9,74.8,18.8,74.7,18.7z"/>
<path class="st0" d="M77,22.5c-0.4,0-1.2-0.2-1.6,0.1c-0.1,0.1-0.1,0.2-0.1,0.4c0,0.1,0.1,0.3,0.1,0.4c0.3,0.3,1.2,0.2,1.6,0.1
	c0.1,0,0.2-0.1,0.3-0.2c0.1-0.1,0.1-0.2,0-0.4c0-0.1-0.1-0.1-0.1-0.2C77.1,22.5,77,22.5,77,22.5z"/>
<path class="st0" d="M87.9,22.6c-0.1,0-0.2,0.1-0.2,0.1c-0.1,0.1-0.1,0.2-0.1,0.2c0,0.1,0,0.2,0.1,0.3c0,0.1,0.1,0.1,0.2,0.2
	c2.3,0.8,5,0.3,7.3,0c0.1,0,0.2-0.1,0.3-0.2c0.1-0.1,0.1-0.2,0.1-0.4c0-0.1-0.1-0.2-0.1-0.3c-0.1-0.1-0.2-0.1-0.3-0.1
	C92.8,22.3,90.3,22.8,87.9,22.6z"/>
<path class="st0" d="M76.2,4.3c0.7,0,1.4,0,2.1,0c0.1,0,0.2-0.1,0.3-0.1c0.1-0.1,0.1-0.2,0.1-0.3s-0.1-0.2-0.1-0.3
	c-0.1-0.1-0.2-0.1-0.3-0.1c-0.7-0.1-1.5-0.1-2.2,0C75.6,3.4,75.7,4.3,76.2,4.3z"/>
<path class="st0" d="M88,4.4c0.1-0.1,0.2-0.1,0.2-0.3c0-0.1,0-0.2,0-0.4c0-0.1-0.1-0.2-0.2-0.2c-0.1-0.1-0.2-0.1-0.3-0.1
	c-0.5-0.4-1.2,0.3-0.7,0.7c0.1,0.1,0.3,0.2,0.4,0.3C87.6,4.5,87.8,4.5,88,4.4z"/>
</svg>
