<?xml version="1.0" encoding="utf-8"?>
<!-- Generator: Adobe Illustrator 25.4.1, SVG Export Plug-In . SVG Version: 6.00 Build 0)  -->
<svg version="1.1" xmlns="http://www.w3.org/2000/svg" xmlns:xlink="http://www.w3.org/1999/xlink" x="0px" y="0px"
	 viewBox="0 0 88 68.4" style="enable-background:new 0 0 88 68.4;" xml:space="preserve">
<style type="text/css">
	.st0{display:none;}
	.st1{display:inline;fill:none;stroke:#484751;stroke-width:0.75;}
	.st2{display:inline;fill:#FFFFFF;filter:url(#Adobe_OpacityMaskFilter);}
	.st3{display:inline;mask:url(#path-34-inside-1_00000132057356214606326800000000326992965322312126_);fill:#484751;}
	.st4{display:inline;fill:#FFFFFF;filter:url(#Adobe_OpacityMaskFilter_00000050620909727082511390000010805358413687281843_);}
	.st5{display:inline;mask:url(#path-36-inside-2_00000085211867309403124630000007661708937144237212_);fill:#484751;}
	.st6{display:inline;fill:none;stroke:#484751;stroke-width:1.5;}
	.st7{fill:none;stroke:#484751;stroke-width:0.75;}
	.st8{fill:#484751;}
	.st9{fill:none;stroke:#484751;stroke-width:1.5;}
</style>
<g id="Layer_1" class="st0">
	<path class="st1" d="M23.8,38l0-3.6c0,0,0,0,0,0c0-0.3,0.2-0.5,0.4-0.6c0.1-0.1,0.3-0.1,0.5,0l0,0l0,0c3.2,0.5,6,2.3,7.6,4.7l0,0
		c0.2,0.3,0.1,0.7-0.2,0.9c-0.3,0.2-0.7,0.1-0.9-0.2c-0.9-1.5-2.9-3.1-5.5-3.9l-0.5-0.1l0,0.5l0,4c0,0,0,0,0,0
		c0,0.2-0.1,0.4-0.3,0.6c-0.2,0.1-0.4,0.1-0.7,0c0,0,0,0,0,0l-5.6-2.7l-0.2-0.1l-0.2,0.1l-5.5,2.8l0,0c-0.2,0.1-0.5,0.1-0.6,0
		c-0.2-0.1-0.3-0.3-0.3-0.6v0l0-4l0-0.5l-0.5,0.1c-5.6,1.6-8.5,6.6-9,10.9l0,0.2l0.2,0.1c4.6,3.5,10.4,5.5,16.2,5.4l0,0
		c1.1,0,2.4-0.1,3.8-0.2c0.4,0,0.7,0.2,0.7,0.6c0,0.4-0.2,0.7-0.6,0.7h0c-1.4,0.1-2.7,0.2-3.9,0.2h0h0h0h0h0h0h0h0h0h0h0h0h0h0h0h0
		h0h0h0h0h0h0h0h0h0h0h0h0h0h0h0h0h0h0h0h0h0h0h0h0h0h0h0h0h0h0h0h0h0h0h0h0h0h0h0h0h0h0h0h0h0h0h0h0h0h0h0h0h0h0h0h0h0h0h0h0h0h0h0
		h0h0h0h0h0h0h0h0h0h0h0h0h0h0h0h0h0h0h0h0h0h0h0h0h0h0h0h0h0h0h0h0h0h0h0h0h0h0h0h0h0h0h0h0h0h0h0h0h0h0h0h0h0h0h0h0h0h0h0h0h0h0h0
		h0h0h0h0h0h0h0h0h0h0h0h0h0h0h0h0h0h0h0h0h0h0h0h0h0h0h0h0h0h0h0h0h0h0h0h0h0h0h0h0h0h0h0h0h0h0h0h0h0h0h0h0h0h0h0h0h0h0h0h0h0h0h0
		h0h0h0h0h0h0h0h0h0h0h0h0h0h0h0h0h0h0h0h0h0h0h0h0h0h0h0h0h0h0h0h0h0h0h0h0h0h0h0h0h0h0h0h0h0h0h0h0h0h0h0h0h0h0h0h0h0h0h0h0h0h0h0
		h0h0h0h0h0h0h0h0h0h0h0h0h0h0h0h0h0h0h0h0h0h0h0h0h0h0h0h0h0h0h0h0h0h0h0h0h0h0h0h0h0h0h0h0h0h0h0h0h0h0h0h0h0h0h0h0h0h0h0h0h0h0h0
		h0h0h0h0h0h0h0h0h0h0h0h0h0h0h0h0h0h0h0h0h0h0h0h0h0h0h0h0h0h0h0h0h0h0h0h0h0h0h0h0h0h0h0h0h0h0h0h0h0h0h0h0h0h0h0h0h0h0h0h0h0h0h0
		h0h0h0h0h0h0h0h0h0h0h0h0h0h0h0h0h0h0h0h0h0h0h0h0h0h0h0h0h0h0h0h0h0h0h0h0h0h0h0h0h0h0h0h0h0h0h0h0h0h0h0h0h0h0h0h0h0h0h0h0h0h0h0
		h0h0h0h0h0h0h0h0h0h0h0h0h0h0h0h0h0h0h0h0h0h0h0h0h0h0h0h0h0h0h0h0h0h0h0h0h0h0h0h0h0h0h0h0h0h0h0h0h0c-6.3,0-12.4-2.1-17.3-6
		c-0.2-0.1-0.3-0.3-0.2-0.6C1.3,40.4,6,35,12.3,33.8l0,0c0.2,0,0.4,0,0.5,0.1l0.2-0.3L12.8,34c0.2,0.1,0.2,0.3,0.2,0.5v0l0,3.6
		l0,0.6l0.5-0.3l4.5-2.3l0,0c0.2-0.1,0.4-0.1,0.6,0h0l4.5,2.2l0.5,0.3L23.8,38z"/>
	<path class="st1" d="M63.5,38.5c-0.1,0.1-0.2,0.3-0.3,0.4l0-2.5l0-0.5L62.7,36c-2.1,0.6-3.5,1.6-4.4,2.5c-0.3,0.3-0.6,0.6-0.7,0.8
		c0,0,0,0,0,0c0,0,0,0,0,0l0,0l0,0c-0.2,0.3-0.6,0.3-0.9,0.1l0,0c-0.2-0.2-0.3-0.5-0.2-0.7h0l0,0c0-0.1,0.1-0.1,0.1-0.2l0,0
		c0.2-0.2,0.3-0.4,0.5-0.5l0,0l0,0c1.7-1.8,4.1-3.1,6.7-3.5l0,0l0,0c0.1,0,0.3,0,0.4,0l0,0l0,0c0.3,0.1,0.4,0.3,0.4,0.6c0,0,0,0,0,0
		l0,2.5C64.2,37.9,63.8,38.2,63.5,38.5z"/>
	<path class="st1" d="M85.3,47.8c0.2-0.1,0.4-0.3,0.6-0.4l0.2-0.1l0-0.2c-0.5-4.3-3.4-9.2-9-10.9L76.6,36l0,0.5l0,2.6
		c-0.1-0.2-0.3-0.3-0.4-0.5l0,0l0,0c0,0,0,0,0,0c-0.1-0.1-0.1-0.1-0.2-0.2c-0.2-0.2-0.4-0.4-0.6-0.6l0-2.6v0c0-0.2,0.1-0.4,0.2-0.5
		l0,0l0,0c0.2-0.1,0.4-0.2,0.5-0.1c6.3,1.2,11,6.5,11.4,13c0,0.2-0.1,0.4-0.2,0.6c-0.3,0.2-0.6,0.5-0.9,0.7
		C86,48.4,85.7,48.1,85.3,47.8z"/>
	<path class="st1" d="M21.3,21.5c-0.4,0-0.7-0.3-0.7-0.7l0,0c0-0.4,0.3-0.7,0.7-0.7l0,0l2.3,0l0,0l0,0l0,0l0,0h0l0,0l0,0l0,0l0,0
		l0,0h0l0,0l0,0l0,0l0,0h0l0,0l0,0l0,0l0,0h0l0,0l0,0l0,0l0,0h0l0,0l0,0l0,0l0,0h0l0,0l0,0l0,0l0,0h0l0,0l0,0l0,0l0,0h0l0,0l0,0l0,0
		h0l0,0l0,0l0,0l0,0h0l0,0l0,0l0,0l0,0h0l0,0l0,0l0,0h0l0,0l0,0l0,0h0l0,0l0,0l0,0l0,0h0l0,0l0,0l0,0h0l0,0l0,0l0,0h0l0,0l0,0l0,0h0
		l0,0l0,0l0,0h0l0,0l0,0l0,0l0,0h0l0,0l0,0l0,0h0l0,0l0,0l0,0h0l0,0l0,0l0,0h0l0,0l0,0h0l0,0l0,0l0,0h0l0,0l0,0l0,0h0l0,0l0,0l0,0h0
		l0,0l0,0l0,0h0l0,0l0,0h0l0,0l0,0l0,0h0l0,0l0,0l0,0h0l0,0l0,0h0l0,0l0,0l0,0h0l0,0l0,0l0,0h0l0,0l0,0h0l0,0l0,0l0,0h0l0,0l0,0h0
		l0,0l0,0l0,0h0l0,0l0,0h0l0,0l0,0l0,0h0l0,0l0,0h0l0,0l0,0h0l0,0l0,0l0,0h0l0,0l0,0h0l0,0l0,0l0,0h0l0,0l0,0h0l0,0l0,0h0l0,0l0,0h0
		l0,0l0,0l0,0h0l0,0l0,0h0l0,0l0,0h0l0,0l0,0l0,0h0l0,0l0,0h0l0,0l0,0h0l0,0l0,0h0l0,0l0,0h0l0,0l0,0l0,0h0l0,0l0,0h0l0,0l0,0h0l0,0
		l0,0h0l0,0l0,0h0l0,0l0,0h0l0,0l0,0l0,0h0l0,0l0,0h0l0,0l0,0h0l0,0l0,0h0l0,0l0,0h0l0,0l0,0h0l0,0l0,0h0l0,0l0,0h0l0,0l0,0h0l0,0
		l0,0h0l0,0l0,0h0l0,0l0,0h0l0,0l0,0h0l0,0l0,0h0l0,0l0,0h0l0,0l0,0h0l0,0l0,0h0l0,0l0,0l0,0h0l0,0l0,0h0l0,0l0,0h0l0,0l0,0h0l0,0
		l0,0h0l0,0h0l0,0l0,0h0l0,0l0,0h0l0,0l0,0h0l0,0l0,0h0l0,0l0,0h0l0,0l0,0h0l0,0l0,0h0l0,0l0,0h0l0,0l0,0h0l0,0l0,0h0l0,0l0,0h0l0,0
		l0,0h0l0,0l0,0h0l0,0l0,0h0l0,0l0,0h0l0,0l0,0h0l0,0c0.4,0,0.7,0.3,0.7,0.7c0,0.4-0.3,0.7-0.7,0.7l0,0L21.3,21.5L21.3,21.5
		L21.3,21.5L21.3,21.5L21.3,21.5L21.3,21.5L21.3,21.5L21.3,21.5L21.3,21.5L21.3,21.5L21.3,21.5L21.3,21.5L21.3,21.5L21.3,21.5
		L21.3,21.5L21.3,21.5L21.3,21.5L21.3,21.5L21.3,21.5L21.3,21.5L21.3,21.5L21.3,21.5L21.3,21.5L21.3,21.5L21.3,21.5L21.3,21.5
		L21.3,21.5L21.3,21.5L21.3,21.5L21.3,21.5L21.3,21.5L21.3,21.5L21.3,21.5L21.3,21.5L21.3,21.5L21.3,21.5L21.3,21.5L21.3,21.5
		L21.3,21.5L21.3,21.5L21.3,21.5L21.3,21.5L21.3,21.5L21.3,21.5L21.3,21.5L21.3,21.5L21.3,21.5L21.3,21.5L21.3,21.5L21.3,21.5
		L21.3,21.5L21.3,21.5L21.3,21.5L21.3,21.5L21.3,21.5L21.3,21.5L21.3,21.5L21.3,21.5L21.3,21.5L21.3,21.5L21.3,21.5L21.3,21.5
		L21.3,21.5L21.3,21.5L21.3,21.5L21.3,21.5L21.3,21.5L21.3,21.5L21.3,21.5L21.3,21.5L21.3,21.5L21.3,21.5L21.3,21.5L21.3,21.5
		L21.3,21.5L21.3,21.5L21.3,21.5L21.3,21.5L21.3,21.5L21.3,21.5L21.3,21.5L21.3,21.5L21.3,21.5L21.3,21.5L21.3,21.5L21.3,21.5
		L21.3,21.5L21.3,21.5L21.3,21.5L21.3,21.5L21.3,21.5L21.3,21.5L21.3,21.5L21.3,21.5L21.3,21.5L21.3,21.5L21.3,21.5L21.3,21.5
		L21.3,21.5L21.3,21.5L21.3,21.5L21.3,21.5L21.3,21.5L21.3,21.5L21.3,21.5L21.3,21.5L21.3,21.5L21.3,21.5L21.3,21.5L21.3,21.5
		L21.3,21.5L21.3,21.5L21.3,21.5L21.3,21.5L21.3,21.5L21.3,21.5L21.3,21.5L21.3,21.5L21.3,21.5L21.3,21.5L21.3,21.5L21.3,21.5
		L21.3,21.5L21.3,21.5L21.3,21.5L21.3,21.5L21.3,21.5L21.3,21.5L21.3,21.5L21.3,21.5L21.3,21.5L21.3,21.5L21.3,21.5L21.3,21.5
		L21.3,21.5L21.3,21.5L21.3,21.5L21.3,21.5L21.3,21.5L21.3,21.5L21.3,21.5L21.3,21.5L21.3,21.5L21.3,21.5L21.3,21.5L21.3,21.5
		L21.3,21.5L21.3,21.5L21.3,21.5L21.3,21.5L21.3,21.5L21.3,21.5L21.3,21.5L21.3,21.5L21.3,21.5L21.3,21.5L21.3,21.5L21.3,21.5
		L21.3,21.5L21.3,21.5L21.3,21.5L21.3,21.5L21.3,21.5L21.3,21.5L21.3,21.5L21.3,21.5L21.3,21.5L21.3,21.5L21.3,21.5L21.3,21.5
		L21.3,21.5L21.3,21.5L21.3,21.5L21.3,21.5L21.3,21.5L21.3,21.5L21.3,21.5L21.3,21.5L21.3,21.5L21.3,21.5L21.3,21.5L21.3,21.5
		L21.3,21.5L21.3,21.5L21.3,21.5L21.3,21.5L21.3,21.5L21.3,21.5L21.3,21.5L21.3,21.5L21.3,21.5L21.3,21.5L21.3,21.5L21.3,21.5
		L21.3,21.5L21.3,21.5L21.3,21.5L21.3,21.5L21.3,21.5L21.3,21.5L21.3,21.5L21.3,21.5L21.3,21.5L21.3,21.5L21.3,21.5L21.3,21.5
		L21.3,21.5L21.3,21.5L21.3,21.5L21.3,21.5L21.3,21.5L21.3,21.5L21.3,21.5L21.3,21.5L21.3,21.5L21.3,21.5L21.3,21.5L21.3,21.5
		L21.3,21.5L21.3,21.5L21.3,21.5L21.3,21.5L21.3,21.5L21.3,21.5L21.3,21.5L21.3,21.5L21.3,21.5L21.3,21.5L21.3,21.5L21.3,21.5
		L21.3,21.5L21.3,21.5L21.3,21.5L21.3,21.5L21.3,21.5L21.3,21.5L21.3,21.5L21.3,21.5L21.3,21.5L21.3,21.5L21.3,21.5L21.3,21.5
		L21.3,21.5L21.3,21.5L21.3,21.5L21.3,21.5L21.3,21.5L21.3,21.5L21.3,21.5L21.3,21.5L21.3,21.5L21.3,21.5L21.3,21.5L21.3,21.5
		L21.3,21.5L21.3,21.5L21.3,21.5L21.3,21.5L21.3,21.5L21.3,21.5L21.3,21.5L21.3,21.5L21.3,21.5L21.3,21.5L21.3,21.5L21.3,21.5
		L21.3,21.5L21.3,21.5L21.3,21.5L21.3,21.5L21.3,21.5L21.3,21.5L21.3,21.5L21.3,21.5L21.3,21.5L21.3,21.5L21.3,21.5L21.3,21.5
		L21.3,21.5L21.3,21.5L21.3,21.5L21.3,21.5L21.3,21.5L21.3,21.5L21.3,21.5L21.3,21.5L21.3,21.5L21.3,21.5L21.3,21.5L21.3,21.5
		L21.3,21.5L21.3,21.5L21.3,21.5L21.3,21.5L21.3,21.5L21.3,21.5L21.3,21.5L21.3,21.5L21.3,21.5L21.3,21.5L21.3,21.5L21.3,21.5
		L21.3,21.5L21.3,21.5L21.3,21.5L21.3,21.5L21.3,21.5L21.3,21.5L21.3,21.5L21.3,21.5L21.3,21.5L21.3,21.5L21.3,21.5L21.3,21.5
		L21.3,21.5L21.3,21.5L21.3,21.5L21.3,21.5L21.3,21.5L21.3,21.5L21.3,21.5L21.3,21.5L21.3,21.5L21.3,21.5L21.3,21.5L21.3,21.5
		L21.3,21.5L21.3,21.5L21.3,21.5L21.3,21.5L21.3,21.5L21.3,21.5L21.3,21.5L21.3,21.5L21.3,21.5L21.3,21.5L21.3,21.5L21.3,21.5
		L21.3,21.5L21.3,21.5L21.3,21.5L21.3,21.5L21.3,21.5L21.3,21.5L21.3,21.5L21.3,21.5L21.3,21.5L21.3,21.5L21.3,21.5L21.3,21.5
		L21.3,21.5L21.3,21.5L21.3,21.5L21.3,21.5z"/>
	<path class="st1" d="M12.3,21c0,0,0-0.7,0.7-0.7c0.7,0,0,0,0,0 M13,20.3l2.3,0c0.4,0,0.7,0.3,0.7,0.7c0,0.4-0.3,0.7-0.7,0.7l0,0
		 M15.3,21.6 M13,20.3 M15.3,21.6l-2.3,0l0,0l0,0h0l0,0l0,0l0,0l0,0l0,0h0l0,0l0,0l0,0l0,0l0,0h0l0,0l0,0l0,0l0,0h0l0,0l0,0l0,0l0,0
		l0,0h0l0,0l0,0l0,0l0,0l0,0h0l0,0l0,0l0,0l0,0h0l0,0l0,0l0,0l0,0l0,0h0l0,0l0,0l0,0l0,0l0,0h0l0,0l0,0l0,0l0,0h0l0,0l0,0l0,0l0,0
		l0,0h0l0,0l0,0l0,0l0,0h0l0,0l0,0l0,0l0,0h0l0,0l0,0l0,0l0,0l0,0h0l0,0l0,0l0,0l0,0h0l0,0l0,0l0,0l0,0h0l0,0l0,0l0,0l0,0l0,0h0l0,0
		l0,0l0,0l0,0h0l0,0l0,0l0,0l0,0h0l0,0l0,0l0,0l0,0h0l0,0l0,0l0,0l0,0l0,0h0l0,0l0,0l0,0l0,0h0l0,0l0,0l0,0l0,0h0l0,0l0,0l0,0l0,0h0
		l0,0l0,0l0,0l0,0h0l0,0l0,0l0,0l0,0h0l0,0l0,0l0,0l0,0h0l0,0l0,0l0,0l0,0h0l0,0l0,0l0,0l0,0h0l0,0l0,0l0,0h0l0,0l0,0l0,0l0,0h0l0,0
		l0,0l0,0l0,0h0l0,0l0,0l0,0l0,0h0l0,0l0,0l0,0h0l0,0l0,0l0,0l0,0h0l0,0l0,0l0,0l0,0h0l0,0l0,0l0,0h0l0,0l0,0l0,0l0,0h0l0,0l0,0l0,0
		h0l0,0l0,0l0,0l0,0h0l0,0l0,0l0,0h0l0,0l0,0l0,0l0,0h0l0,0l0,0l0,0h0l0,0l0,0l0,0h0l0,0l0,0l0,0l0,0h0l0,0l0,0l0,0h0l0,0l0,0l0,0h0
		l0,0l0,0l0,0l0,0h0l0,0l0,0l0,0h0l0,0l0,0l0,0h0l0,0l0,0l0,0h0l0,0l0,0l0,0h0l0,0l0,0l0,0h0l0,0l0,0l0,0h0l0,0l0,0l0,0h0l0,0l0,0
		l0,0h0l0,0l0,0l0,0h0l0,0l0,0l0,0h0l0,0l0,0l0,0h0l0,0l0,0l0,0h0l0,0l0,0l0,0h0l0,0l0,0l0,0h0l0,0l0,0h0l0,0l0,0l0,0h0l0,0l0,0l0,0
		h0l0,0l0,0l0,0h0l0,0l0,0h0l0,0l0,0l0,0h0l0,0l0,0l0,0h0l0,0l0,0h0l0,0l0,0l0,0h0l0,0l0,0h0l0,0l0,0l0,0h0l0,0l0,0h0l0,0l0,0l0,0h0
		l0,0l0,0h0l0,0l0,0l0,0h0l0,0l0,0h0l0,0l0,0l0,0h0l0,0l0,0h0l0,0l0,0h0l0,0l0,0l0,0h0l0,0l0,0h0l0,0l0,0h0l0,0l0,0l0,0h0l0,0l0,0h0
		l0,0l0,0h0l0,0l0,0h0l0,0l0,0h0l0,0l0,0l0,0h0l0,0l0,0h0l0,0l0,0h0l0,0l0,0h0l0,0l0,0h0l0,0l0,0h0l0,0l0,0h0l0,0l0,0h0l0,0l0,0h0
		l0,0l0,0h0l0,0l0,0h0l0,0l0,0c-0.4,0-0.7-0.3-0.7-0.7"/>
	<path class="st1" d="M15.2,28.8L15.2,28.8c-0.3-0.2-0.4-0.6-0.1-0.9c0.2-0.3,0.6-0.4,0.9-0.1l0,0c0.7,0.5,1.4,0.8,2.2,0.8l0,0h0
		l0,0h0l0,0h0l0,0h0l0,0h0l0,0h0l0,0h0l0,0h0h0l0,0h0l0,0h0l0,0h0l0,0h0l0,0h0l0,0h0l0,0h0l0,0h0l0,0h0l0,0h0l0,0h0l0,0h0l0,0h0l0,0
		h0l0,0h0l0,0h0l0,0h0l0,0h0l0,0h0l0,0h0l0,0h0l0,0h0l0,0h0l0,0h0l0,0h0l0,0h0l0,0h0l0,0h0l0,0h0l0,0h0l0,0h0l0,0h0l0,0h0l0,0h0l0,0
		h0l0,0h0l0,0h0h0l0,0h0l0,0h0l0,0h0l0,0h0l0,0h0l0,0h0l0,0h0l0,0h0l0,0h0l0,0h0l0,0h0l0,0h0l0,0h0l0,0h0l0,0h0l0,0h0l0,0h0l0,0h0
		l0,0h0l0,0h0l0,0h0l0,0h0l0,0h0l0,0h0l0,0h0l0,0h0l0,0h0l0,0h0l0,0h0l0,0h0l0,0h0l0,0h0l0,0h0l0,0h0l0,0h0l0,0h0l0,0h0h0l0,0h0l0,0
		h0l0,0h0l0,0h0l0,0h0l0,0h0l0,0h0l0,0h0l0,0h0l0,0h0l0,0h0l0,0h0l0,0h0l0,0h0l0,0h0l0,0h0l0,0h0l0,0h0l0,0h0l0,0h0l0,0h0l0,0h0l0,0
		h0l0,0h0l0,0h0l0,0h0l0,0h0l0,0h0l0,0h0l0,0h0l0,0h0l0,0h0l0,0h0l0,0h0l0,0h0l0,0h0h0l0,0h0l0,0h0l0,0h0l0,0h0l0,0h0l0,0h0l0,0h0
		l0,0h0l0,0h0l0,0h0l0,0h0l0,0h0l0,0h0l0,0h0l0,0h0l0,0h0l0,0h0l0,0h0l0,0h0l0,0h0l0,0h0l0,0h0l0,0h0l0,0h0l0,0h0l0,0h0l0,0h0l0,0h0
		l0,0h0l0,0h0l0,0h0l0,0h0l0,0h0l0,0h0l0,0h0l0,0h0l0,0h0h0l0,0h0l0,0h0l0,0h0l0,0h0l0,0h0l0,0h0l0,0h0l0,0h0l0,0h0l0,0h0l0,0h0l0,0
		h0l0,0h0l0,0h0l0,0h0l0,0h0l0,0h0l0,0h0l0,0h0l0,0h0l0,0h0l0,0h0l0,0h0l0,0h0l0,0h0l0,0h0l0,0h0l0,0h0l0,0h0l0,0h0l0,0h0l0,0h0l0,0
		h0l0,0h0l0,0h0l0,0h0l0,0h0h0l0,0h0l0,0h0l0,0h0l0,0h0l0,0h0l0,0h0l0,0h0l0,0h0l0,0h0l0,0h0l0,0h0l0,0h0l0,0h0l0,0h0l0,0h0l0,0h0
		l0,0h0l0,0h0l0,0h0l0,0h0l0,0h0l0,0h0l0,0h0l0,0h0l0,0h0l0,0h0l0,0h0l0,0h0l0,0h0l0,0h0l0,0h0l0,0h0l0,0h0l0,0h0l0,0h0l0,0h0l0,0h0
		h0l0,0h0l0,0h0l0,0h0l0,0h0l0,0h0l0,0h0l0,0h0l0,0h0l0,0h0l0,0h0l0,0h0l0,0h0l0,0h0l0,0h0l0,0h0l0,0h0l0,0h0l0,0h0l0,0h0l0,0h0l0,0
		h0l0,0h0l0,0h0l0,0v0l0,0c0.8,0,1.5-0.3,2.2-0.8c0.3-0.2,0.7-0.2,0.9,0.1c0.2,0.3,0.2,0.7-0.1,0.9l0,0c-0.9,0.7-2,1.1-3,1.1h0l0,0
		h0h0h0h0h0h0l0,0h0h0h0h0h0h0l0,0h0h0h0h0h0h0h0l0,0h0h0h0h0h0h0h0l0,0h0h0h0h0h0h0h0l0,0h0h0h0h0h0h0h0h0l0,0h0h0h0h0h0h0h0h0l0,0
		h0h0h0h0h0h0h0h0l0,0h0h0h0h0h0h0h0h0h0l0,0h0h0h0h0h0h0h0h0l0,0h0h0h0h0h0h0h0h0h0h0l0,0h0h0h0h0h0h0h0h0h0l0,0h0h0h0h0h0h0h0h0h0
		h0h0l0,0h0h0h0h0h0h0h0h0h0h0l0,0h0h0h0h0h0h0h0h0h0h0h0l0,0h0h0h0h0h0h0h0h0h0h0h0h0l0,0h0h0h0h0h0h0h0h0h0h0h0l0,0h0h0h0h0h0h0h0
		h0h0h0h0h0h0l0,0h0h0h0h0h0h0h0h0h0h0h0h0l0,0h0h0h0h0h0h0h0h0h0h0h0h0h0l0,0h0h0h0h0h0h0h0h0h0h0h0h0h0l0,0h0h0h0h0h0h0h0h0h0h0h0
		h0h0l0,0h0h0h0h0h0h0h0h0h0h0h0h0h0l0,0h0h0h0h0h0h0h0h0h0h0h0h0h0l0,0h0h0h0h0h0h0h0h0h0h0h0h0h0l0,0h0h0h0h0h0h0h0h0h0h0h0h0l0,0
		h0h0h0h0h0h0h0h0h0h0h0h0l0,0h0h0h0h0h0h0h0h0h0h0h0h0l0,0h0h0h0h0h0h0h0h0h0h0h0l0,0h0h0h0h0h0h0h0h0h0h0h0l0,0h0h0h0h0h0h0h0h0h0
		h0l0,0h0h0h0h0h0h0h0h0h0h0l0,0h0h0h0h0h0h0h0h0h0h0l0,0h0h0h0h0h0h0h0h0h0l0,0h0h0h0h0h0h0h0h0h0l0,0h0h0h0h0h0h0h0h0l0,0h0h0h0h0
		h0h0h0h0l0,0h0h0h0h0h0h0h0h0l0,0h0h0h0h0h0h0h0h0l0,0h0h0h0h0h0h0h0l0,0h0h0h0h0h0h0h0l0,0h0h0h0h0h0h0l0,0h0h0h0h0h0h0h0l0,0h0h0
		h0h0h0h0l0,0h0h0h0h0h0h0l0,0h0h0h0h0h0l0,0h0h0h0h0h0h0l0,0h0C17.1,29.8,16.1,29.5,15.2,28.8z"/>
	<path class="st1" d="M7.2,50.3L7.2,50.3l-0.1-4.4c0,0,0,0,0,0c0-0.4,0.3-0.7,0.7-0.7h0h0h0h0h0h0h0h0h0h0h0h0h0h0h0h0h0h0h0h0h0h0
		h0h0h0h0h0h0h0h0h0h0h0h0h0h0h0h0h0h0h0h0h0h0h0h0h0h0h0h0h0h0h0h0h0h0h0h0h0h0h0h0h0h0h0h0h0h0h0h0h0h0h0h0h0h0h0h0h0h0h0h0h0h0h0
		h0h0h0h0h0h0h0h0h0h0h0h0h0h0h0h0h0h0h0h0h0h0h0h0h0h0h0h0h0h0h0h0h0h0h0h0h0h0h0h0h0h0h0h0h0h0h0h0h0h0h0h0h0h0h0h0h0h0h0h0h0h0h0
		h0h0h0h0h0h0h0h0h0h0h0h0h0h0h0h0h0h0h0h0h0h0h0h0h0h0h0h0h0h0h0h0h0h0h0h0h0h0h0h0h0h0h0h0h0h0h0h0h0h0h0h0h0h0h0h0h0h0h0h0h0h0h0
		h0h0h0h0h0h0h0h0h0h0h0h0h0h0h0h0h0h0h0h0h0h0h0h0h0h0h0h0h0h0h0h0h0h0h0h0h0h0h0h0h0h0h0h0h0h0h0h0h0h0h0h0h0h0h0h0h0h0h0h0h0h0h0
		h0h0h0h0h0h0h0h0h0h0h0h0h0h0h0h0h0h0h0h0h0h0h0h0h0h0h0h0h0h0h0h0h0h0h0h0h0h0h0h0h0h0h0h0h0h0h0h0h0h0h0h0h0h0h0h0h0h0h0h0h0h0h0
		h0h0h0h0h0h0h0h0h0h0h0h0h0h0h0h0h0h0h0h0h0h0h0h0h0h0h0h0h0h0h0h0h0h0h0h0h0h0h0h0h0h0h0h0h0h0h0h0h0h0h0h0h0h0h0h0h0h0h0h0h0h0h0
		h0h0h0h0h0h0h0h0c0.4,0,0.7,0.3,0.7,0.7v0l0.1,4.4c0,0,0,0,0,0c0,0.4-0.3,0.7-0.7,0.7h0h0h0h0h0h0h0h0h0h0h0h0h0h0h0h0h0h0h0h0h0h0
		h0h0h0h0h0h0h0h0h0h0h0h0h0h0h0h0h0h0h0h0h0h0h0h0h0h0h0h0h0h0h0h0h0h0h0h0h0h0h0h0h0h0h0h0h0h0h0h0h0h0h0h0h0h0h0h0h0h0h0h0h0h0h0
		h0h0h0h0h0h0h0h0h0h0h0h0h0h0h0h0h0h0h0h0h0h0h0h0h0h0h0h0h0h0h0h0h0h0h0h0h0h0h0h0h0h0h0h0h0h0h0h0h0h0h0h0h0h0h0h0h0h0h0h0h0h0h0
		h0h0h0h0h0h0h0h0h0h0h0h0h0h0h0h0h0h0h0h0h0h0h0h0h0h0h0h0h0h0h0h0h0h0h0h0h0h0h0h0h0h0h0h0h0h0h0h0h0h0h0h0h0h0h0h0h0h0h0h0h0h0h0
		h0h0h0h0h0h0h0h0h0h0h0h0h0h0h0h0h0h0h0h0h0h0h0h0h0h0h0h0h0h0h0h0h0h0h0h0h0h0h0h0h0h0h0h0h0h0h0h0h0h0h0h0h0h0h0h0h0h0h0h0h0h0h0
		h0h0h0h0h0h0h0h0h0h0h0h0h0h0h0h0h0h0h0h0h0h0h0h0h0h0h0h0h0h0h0h0h0h0h0h0h0h0h0h0h0h0h0h0h0h0h0h0h0h0h0h0h0h0h0h0h0h0h0h0h0h0h0
		h0h0h0h0h0h0h0h0h0h0h0h0h0h0h0h0h0h0h0h0h0h0h0h0h0h0h0h0h0h0h0h0h0h0h0h0h0h0h0h0h0h0h0h0h0h0h0h0h0h0h0h0h0h0h0h0h0h0h0h0h0h0h0
		h0h0h0h0h0h0h0h0h0C7.5,51,7.2,50.7,7.2,50.3z"/>
	<path class="st1" d="M8.2,36.1 M3.5,26.3L3.5,26.3c0.3,3.6,1.2,7,3.1,10.3 M3.5,26.3c-0.1-0.7-0.3-4.1,0.5-8
		c0.8-4,2.5-8.4,6.4-11.3v0c3.2-2.3,6.6-2.5,6.7-2.6l0,0l0,0c0.6-0.1,1.2-0.1,1.9,0l0,0l0,0l0,0l0,0l0,0l0,0c0,0,0.1,0,0.1,0
		c0.1,0,0.3,0,0.5,0c0.4,0,0.9,0.1,1.6,0.3c1.3,0.3,2.9,0.9,4.5,2.1c2.3,1.7,4.1,4,5.4,7.1l0,0c0.1,0.3,1,3.1,1.2,4 M3.5,26.3
		 M29.6,14.6 M25,8 M29.9,14.5 M30.8,14.8"/>
	<path class="st1" d="M30.5,35.9l-0.1,0.2l-0.2,0.3c0.7-1.3,1.8-3.6,2-7.6 M30.9,28.8 M32.3,28.9"/>
	<path class="st1" d="M19.9,17.3L19.9,17.3l-3.2,0c0,0,0,0,0,0c-1.9,0-3.7-1-4.5-2.6l0,0v0c0,0,0,0,0,0c0-0.1-0.1-0.1-0.1-0.2
		C12,14.2,11.8,14,11.5,14c-0.3,0-0.5,0.1-0.7,0.3l0,0l0,0c-0.9,1.4-2.4,4.2-2.3,7.9l0,0c0,0.9,0.1,3.7,1.9,6.4 M19.9,17.3
		c1.8,0,3.5-1,4.3-2.6c0.1-0.1,0.1-0.2,0.1-0.3c0,0,0-0.1,0-0.1c0,0,0,0,0,0c0,0,0,0,0,0c0.1-0.2,0.3-0.4,0.5-0.5
		c0.3,0,0.5,0.1,0.7,0.3c0.9,1.3,2.5,4.2,2.5,7.9v0c0,0.9,0,3.7-1.7,6.4c-0.8,1.3-2,2.6-3.3,3.6c-1.4,1-2.9,1.7-4.5,1.8l0,0
		 M18.4,33.8 M19.9,17.3 M18.4,33.8L18.4,33.8 M18.4,33.8L18.4,33.8 M18.4,33.8L18.4,33.8L18.4,33.8c-1.6,0-3.2-0.7-4.6-1.7
		c-1.4-1-2.6-2.3-3.4-3.5 M25.2,27.7L25.2,27.7c0,0,1.4-2.3,1.5-5.1s0-0.6,0-0.6c0,0,0,0,0,0c0-2.3-0.7-4.3-1.4-5.6l-0.3-0.5
		l-0.4,0.4c-1.2,1.4-2.9,2.3-4.8,2.3h0l-3.2,0l0,0c-1.9,0-3.7-0.8-4.9-2.2L11.4,16l-0.2,0.5c-0.7,1.4-1.3,3.3-1.2,5.7l0,0l0,0
		c0,0.9,0.1,3.3,1.7,5.7l0,0c0.7,1.1,1.7,2.2,2.9,3c1.2,0.9,2.5,1.5,3.9,1.5l0,0l0,0c1.4-0.1,2.7-0.7,3.9-1.6
		C23.5,29.9,25.2,27.7,25.2,27.7z"/>
	<path class="st1" d="M34.4,22 M34.4,21.9 M33.2,20.2 M32.5,18.4 M53.8,22.1 M55.8,18.4L55.8,18.4c0.3-1.4,0.3-2.7,0.2-3.8
		c0-0.5-0.1-1-0.2-1.3c0-0.2-0.1-0.3-0.1-0.4c0,0,0-0.1,0-0.1c0,0,0,0,0,0c-1.4-5.1-5.9-8.5-11.5-8.5C39.5,4.4,34,7,32.5,12.9
		c0,0,0,0,0,0c0,0,0,0.1,0,0.1c0,0.1,0,0.2-0.1,0.4c-0.1,0.3-0.1,0.7-0.2,1.3c-0.1,1.1-0.1,2.4,0.3,3.8l1.9,1.6l0.3-1.4
		c0.1-0.4,0.2-0.8,0.3-1.3c0.2-0.8,0.5-1.6,0.9-2.5l0,0l0,0c0.1-0.3,0.4-0.4,0.7-0.4l0,0c0.9,0.2,1.7,0.5,2.5,0.9l0,0l0,0
		c1.4,0.6,2.8,1.3,5,1.3c2.1,0,3.6-0.7,5-1.3l0,0l0,0l0,0c0.9-0.4,1.7-0.8,2.5-0.9l0,0l0,0c0.3-0.1,0.6,0.1,0.7,0.4
		c0.4,0.8,0.7,1.7,0.9,2.5l0,0c0.1,0.4,0.2,0.8,0.3,1.3l0.3,1.4L55.8,18.4z"/>
	<path class="st1" d="M60.6,24.6L60.6,24.6c-0.1-0.4,0.2-0.7,0.6-0.8v0l0,0c0.4-0.1,0.7,0.2,0.8,0.6c0.8,5.2,4.2,9.2,8.3,9.2
		c4.1,0,7.5-4,8.3-9.2c0.1-0.4,0.4-0.6,0.8-0.6l0,0c0.4,0.1,0.6,0.4,0.6,0.8l0,0c-0.9,6-5,10.3-9.6,10.3
		C65.6,34.9,61.5,30.7,60.6,24.6z"/>
	<path class="st1" d="M66.9,23.9L66.9,23.9L66.9,23.9c-0.2,0-0.3,0.1-0.4,0.1c0,0-0.1,0-0.1,0.1c0,0,0,0,0,0c0,0,0,0,0,0l0,0l0,0
		c-0.3,0.2-0.7,0.2-0.9-0.1h0l0,0c-0.2-0.3-0.2-0.7,0.1-0.9l0,0l0,0c0.2-0.2,0.7-0.5,1.4-0.6h0l0,0h0h0h0l0,0h0h0l0,0h0h0h0l0,0h0h0
		l0,0h0h0h0l0,0h0h0l0,0h0h0h0l0,0h0h0l0,0h0h0h0l0,0h0h0l0,0h0h0h0l0,0h0h0h0l0,0h0h0l0,0h0h0h0l0,0h0h0h0l0,0h0h0l0,0h0h0h0l0,0h0
		h0h0l0,0h0h0l0,0h0h0h0l0,0h0h0h0l0,0h0h0h0l0,0h0h0h0l0,0h0h0h0l0,0h0h0l0,0h0h0h0l0,0h0h0h0l0,0h0h0h0l0,0h0h0h0l0,0h0h0h0l0,0h0
		h0h0l0,0h0h0h0l0,0h0h0h0l0,0h0h0h0l0,0h0h0h0l0,0h0h0h0l0,0h0h0h0l0,0h0h0h0l0,0h0h0h0l0,0h0h0h0l0,0h0h0h0l0,0h0h0h0h0l0,0h0h0h0
		l0,0h0h0h0l0,0h0h0h0l0,0h0h0h0l0,0h0h0h0l0,0h0h0h0l0,0h0h0h0h0l0,0h0h0h0l0,0h0h0h0l0,0h0h0h0l0,0h0h0h0l0,0h0h0h0l0,0h0h0h0h0
		l0,0h0h0h0l0,0h0h0h0l0,0h0h0h0l0,0h0h0h0l0,0h0h0h0l0,0h0h0h0h0l0,0h0h0h0l0,0h0h0h0l0,0h0h0h0l0,0h0h0h0l0,0h0h0h0l0,0h0h0h0l0,0
		h0h0h0l0,0h0h0h0l0,0h0h0h0h0l0,0h0h0h0l0,0h0h0h0l0,0h0h0h0l0,0h0h0h0l0,0h0h0h0l0,0h0h0h0l0,0h0h0h0l0,0h0h0h0l0,0h0h0h0l0,0h0h0
		h0l0,0h0h0l0,0h0h0h0l0,0h0h0h0l0,0h0h0h0l0,0h0h0h0l0,0h0h0h0l0,0h0h0h0l0,0h0h0l0,0h0h0h0l0,0h0h0h0l0,0h0h0h0l0,0h0h0l0,0h0h0h0
		l0,0h0h0h0l0,0h0h0l0,0h0h0h0l0,0h0h0h0l0,0h0h0l0,0h0h0h0l0,0h0h0l0,0h0h0h0l0,0h0h0l0,0h0h0h0l0,0h0h0l0,0h0h0h0l0,0h0h0l0,0h0h0
		h0l0,0h0h0l0,0h0h0l0,0h0h0h0l0,0h0h0l0,0h0h0l0,0h0h0h0l0,0h0h0l0,0h0h0l0,0h0h0l0,0h0h0l0,0h0h0h0l0,0h0h0l0,0h0h0l0,0h0h0l0,0h0
		h0l0,0h0c0.8,0,1.3,0.4,1.5,0.6l0,0c0.3,0.2,0.3,0.7,0.1,0.9c-0.1,0.1-0.3,0.2-0.5,0.2c-0.2,0-0.3-0.1-0.4-0.2
		C67.4,24,67.2,23.9,66.9,23.9z"/>
	<path class="st1" d="M75.4,24.1c-0.3,0.3-0.7,0.3-0.9,0c0,0-0.2-0.2-0.6-0.2v0h0h0c-0.3,0-0.6,0.2-0.6,0.2l0,0l0,0
		c-0.1,0.1-0.3,0.2-0.5,0.2c-0.2,0-0.3-0.1-0.5-0.2c-0.3-0.3-0.2-0.7,0-0.9c0.2-0.2,0.7-0.6,1.5-0.6h0h0l0,0h0h0l0,0h0h0l0,0h0h0
		l0,0h0h0l0,0h0h0l0,0h0h0l0,0h0h0l0,0h0h0l0,0h0h0l0,0h0h0l0,0h0h0l0,0h0h0l0,0h0l0,0h0h0l0,0h0h0l0,0h0h0l0,0h0h0l0,0h0h0l0,0h0
		l0,0h0h0l0,0h0h0l0,0h0h0l0,0h0h0l0,0h0l0,0h0h0l0,0h0h0l0,0h0l0,0h0h0l0,0h0h0l0,0h0h0l0,0h0l0,0h0h0l0,0h0h0l0,0h0l0,0h0h0l0,0h0
		l0,0h0h0l0,0h0h0l0,0h0l0,0h0h0l0,0h0h0l0,0h0l0,0h0h0l0,0h0l0,0h0h0l0,0h0h0l0,0h0l0,0h0h0l0,0h0l0,0h0h0l0,0h0l0,0h0h0l0,0h0l0,0
		h0h0l0,0h0h0l0,0h0l0,0h0h0l0,0h0l0,0h0h0l0,0h0l0,0h0h0l0,0h0l0,0h0h0l0,0h0l0,0h0h0l0,0h0l0,0h0h0l0,0h0l0,0h0h0l0,0h0l0,0h0h0
		l0,0h0l0,0h0l0,0h0h0l0,0h0l0,0h0h0l0,0h0l0,0h0h0l0,0h0l0,0h0h0l0,0h0l0,0h0h0l0,0h0l0,0h0h0l0,0h0l0,0h0l0,0h0h0l0,0h0l0,0h0h0
		l0,0h0l0,0h0h0l0,0h0l0,0h0h0l0,0h0l0,0h0h0l0,0h0l0,0h0l0,0h0h0l0,0h0l0,0h0h0l0,0h0l0,0h0h0l0,0h0l0,0h0h0l0,0h0l0,0h0l0,0h0h0
		l0,0h0l0,0h0h0l0,0h0l0,0h0h0l0,0h0l0,0h0h0l0,0h0l0,0h0h0l0,0h0l0,0h0l0,0h0h0l0,0h0l0,0h0h0l0,0h0l0,0h0h0l0,0h0l0,0h0h0l0,0h0
		l0,0h0h0l0,0h0l0,0h0h0l0,0h0l0,0h0h0l0,0h0l0,0h0h0l0,0h0l0,0h0h0l0,0h0l0,0h0h0l0,0h0l0,0h0h0l0,0h0l0,0h0h0l0,0h0l0,0h0h0l0,0h0
		h0l0,0h0l0,0h0h0l0,0h0l0,0h0h0l0,0h0l0,0h0h0l0,0h0h0l0,0h0l0,0h0h0l0,0h0l0,0h0h0l0,0h0h0l0,0h0l0,0h0h0l0,0h0l0,0h0h0l0,0h0h0
		l0,0h0l0,0h0h0l0,0h0h0l0,0h0l0,0h0h0l0,0h0h0l0,0h0h0l0,0h0l0,0h0h0l0,0h0h0l0,0h0h0l0,0h0l0,0h0h0l0,0h0h0l0,0h0h0l0,0h0l0,0h0h0
		l0,0h0h0l0,0h0h0l0,0h0h0l0,0h0h0l0,0h0l0,0c0.8,0,1.3,0.4,1.5,0.6l0,0l0,0C75.6,23.4,75.6,23.8,75.4,24.1z"/>
	<path class="st1" d="M68.3,29.3L68.3,29.3c0.6,0.5,1.3,0.7,2,0.7s1.3-0.3,2-0.7l0,0c0.3-0.2,0.7-0.2,0.9,0.1
		c0.2,0.3,0.2,0.7-0.1,0.9c-0.9,0.7-1.8,1-2.8,1c-0.9,0-1.9-0.3-2.8-1c-0.3-0.2-0.3-0.6-0.1-0.9C67.6,29.2,68,29.1,68.3,29.3z"/>
	<path class="st1" d="M60.6,24.7l0-0.1l-0.1-0.1c0,0,0,0,0,0c0,0,0,0,0,0c0,0,0,0,0,0l0,0l0,0c-0.3-0.2-0.5-0.4-0.8-0.7
		c-0.2-0.3-0.4-0.7-0.6-1.3v0c-0.3-1.1-0.2-1.8-0.1-2.3c0.1-0.5,0.4-0.8,0.7-1l0,0c0.5-0.4,1.2-0.3,1.8,0.1c0.3,0.2,0.4,0.6,0.2,0.9
		c-0.2,0.3-0.6,0.4-0.9,0.2l-0.4-0.2l-0.1,0.5c-0.1,0.3-0.1,0.7,0.1,1.5l0,0c0.1,0.4,0.2,0.6,0.4,0.8c0.1,0.2,0.3,0.3,0.5,0.4
		c0,0,0,0,0,0c0.3,0.2,0.7,0.5,0.8,1c0.1,0.4-0.2,0.7-0.5,0.8c-0.1,0-0.1,0-0.1,0C61,25.2,60.7,25,60.6,24.7z"/>
	<path class="st1" d="M79.1,25.2L79.1,25.2L79.1,25.2c-0.4-0.1-0.6-0.4-0.5-0.8c0.1-0.6,0.5-0.8,0.8-1c0,0,0,0,0,0
		c0.1-0.1,0.3-0.2,0.5-0.4c0.2-0.2,0.3-0.5,0.4-0.8c0.2-0.8,0.2-1.3,0.1-1.5l-0.1-0.5l-0.4,0.2c-0.3,0.2-0.7,0.1-0.9-0.2l0,0
		c-0.2-0.3-0.1-0.7,0.2-0.9c0.6-0.4,1.3-0.4,1.8-0.1l0,0c0.3,0.2,0.5,0.5,0.7,1c0.2,0.5,0.2,1.2-0.1,2.3l0,0c-0.2,0.6-0.4,1-0.6,1.3
		c-0.2,0.3-0.5,0.5-0.7,0.7l0,0c0,0-0.1,0.1-0.1,0.1l-0.1,0.1l0,0.1c-0.1,0.3-0.3,0.5-0.6,0.5C79.2,25.2,79.2,25.2,79.1,25.2z"/>
	<path class="st1" d="M58.6,29.8l-0.1-0.1l-0.1,0c-0.6-0.2-1.2-0.6-1.4-1.4c-0.1-0.3,0.1-0.7,0.4-0.8c0.4-0.1,0.7,0.1,0.8,0.4l0,0
		l0,0c0.2,0.5,0.6,0.5,0.8,0.5l0,0h0c0.3,0,0.5,0.2,0.6,0.4c0.2,0.7,0.9,1.2,1.7,1.2l0,0l0,0c0.5,0,1-0.3,1.3-0.7
		c0.2-0.3,0.6-0.3,0.9-0.1c0.3,0.2,0.3,0.6,0.1,0.9l0,0c-0.6,0.8-1.5,1.2-2.4,1.2C60.2,31.3,59.2,30.7,58.6,29.8z"/>
	<path class="st1" d="M77.1,30.4L77.1,30.4c0.6,0.6,1.3,0.9,2.2,0.9c1.1,0,2.1-0.7,2.7-1.6l0.1-0.1l0.1,0c1.3-0.4,2.2-1.6,2.2-3
		c0-0.1,0-0.2,0-0.3l0-0.3l0.2-0.1c1.1-0.5,1.9-1.6,1.9-2.8c0-0.5-0.1-1-0.3-1.4L86,21.4l0.3-0.2c0.8-0.6,1.4-1.5,1.4-2.6
		c0-0.8-0.3-1.5-0.8-2.1l-0.2-0.2l0.1-0.2c0.3-0.5,0.4-1,0.4-1.6c0-1.3-0.8-2.4-1.9-2.9L85,11.6l0.1-0.3c0.1-0.2,0.1-0.5,0.1-0.8
		c0-1.6-1.2-2.9-2.9-3.1l-0.3,0L82,7c0-1.6-1.4-3-3.1-3.1c-0.3,0-0.5,0-0.8,0.1l-0.3,0.1l-0.1-0.3c-0.5-1-1.6-1.8-2.8-1.8
		c-0.5,0-0.9,0.1-1.3,0.3l-0.3,0.2l-0.2-0.3c-0.5-0.9-1.5-1.5-2.7-1.5c0,0,0,0,0,0c0,0,0,0,0,0c0,0,0,0-0.1,0c0,0,0,0-0.1,0l0,0
		c0,0,0,0-0.1,0c-1.1,0-2.1,0.6-2.6,1.5l-0.2,0.3l-0.3-0.2c-0.4-0.2-0.9-0.3-1.4-0.3c-1.2,0-2.3,0.8-2.8,1.8l-0.1,0.3l-0.3-0.1
		C62.2,4,62,4,61.7,4c-1.7,0-3,1.4-3.1,3.1l0,0.3l-0.3,0c-1,0.1-1.8,0.6-2.4,1.4v0c-0.2,0.3-0.1,0.7,0.2,0.9l0,0
		c0.3,0.2,0.7,0.1,0.9-0.2 M77.1,30.4c-0.3-0.3-0.3-0.7,0-0.9l0,0 M77.1,30.4l0-0.9 M77.2,29.5c0.3-0.3,0.7-0.3,0.9,0l0,0
		 M77.2,29.5l0.9,0 M78.1,29.5 M79.4,30 M78.1,29.5 M80.3,7.1c0-0.8-0.6-1.4-1.4-1.4c-0.4,0-0.7,0.2-0.9,0.4
		c-0.3,0.3-0.8,0.4-1.1,0.2c-0.4-0.2-0.6-0.6-0.6-1c0,0,0,0,0-0.1c0-0.7-0.6-1.4-1.4-1.4c-0.4,0-0.9,0.3-1.1,0.7l-0.3-0.2
		c0.3-0.5,0.9-0.9,1.5-0.9l0,0l0,0c1,0,1.7,0.8,1.8,1.7l0,0l0,0c0,0,0,0,0,0l0,0v0h0c0,0.3,0.1,0.5,0.4,0.6l0,0
		c0.2,0.1,0.5,0.1,0.7-0.1c0.2-0.2,0.6-0.5,1.1-0.5l0,0l0,0c1,0,1.8,0.8,1.8,1.8 M73.7,4.5C73.5,4.9,73,5.1,72.6,5
		c-0.5-0.1-0.8-0.6-0.8-1c0,0,0-0.1,0-0.1c0-0.7-0.6-1.4-1.4-1.4l0,0 M73.7,4.5l-0.3-0.2c-0.2,0.3-0.5,0.4-0.8,0.3
		c-0.3-0.1-0.5-0.4-0.5-0.7l0,0v0 M70.4,2.5l0-0.2l0-0.1c0,0,0,0,0,0c0,0,0,0,0,0 M70.4,2.5l-0.1-0.4l0,0 M70.4,2.5
		c-0.1,0-0.1,0-0.2,0l-0.1,0c-0.7,0-1.3,0.6-1.3,1.4l0,0.1 M70.4,2.1L70.4,2.1L70.4,2.1L70.4,2.1c1,0,1.8,0.8,1.8,1.7l0,0l0,0
		c0,0,0,0,0,0l0,0c0,0,0,0,0,0 M70.4,2.1C70.3,2.1,70.3,2.1,70.4,2.1L70.4,2.1l-0.1,0l-0.1,0l0,0l0,0c-0.9,0-1.7,0.8-1.7,1.7l0,0
		l0,0l0,0.1l0,0 M72.2,3.9L72.2,3.9C72.2,3.9,72.2,3.9,72.2,3.9C72.2,3.9,72.2,3.9,72.2,3.9z M68.5,4C68.5,4,68.5,4,68.5,4l0.4,0
		 M68.5,4c0,0.3-0.2,0.6-0.5,0.6 M68.5,4L68.5,4l0.4,0 M68.8,3.9c0,0.5-0.3,0.9-0.8,1 M68,4.6C68,4.6,68,4.6,68,4.6L68.1,5 M68,4.6
		c-0.3,0.1-0.6,0-0.8-0.3 M68,4.6C68,4.6,68,4.6,68,4.6L68.1,5 M68.1,5c-0.5,0.1-0.9-0.1-1.2-0.5c-0.3-0.4-0.7-0.7-1.2-0.7
		c-0.7,0-1.3,0.6-1.3,1.4c0,0,0,0.1,0,0.1c0,0.4-0.2,0.8-0.6,0.9 M67.2,4.3c-0.3-0.5-0.9-0.9-1.5-0.9l0,0l0,0
		c-0.9,0-1.7,0.8-1.7,1.7l0,0l0,0c0,0,0,0.1,0,0.1c0,0.3-0.2,0.5-0.4,0.6 M67.2,4.3C67.2,4.3,67.2,4.3,67.2,4.3l-0.3,0.2L67.2,4.3
		C67.2,4.3,67.2,4.3,67.2,4.3z M63.7,6.2l-0.1-0.3c0,0,0,0,0,0 M63.7,6.2l-0.2-0.3c0,0,0,0,0,0 M63.7,6.2c-0.4,0.2-0.8,0.1-1.1-0.2
		c-0.2-0.2-0.5-0.4-0.9-0.4c-0.7,0-1.3,0.7-1.3,1.4c0,0.3,0.1,0.5,0.2,0.7 M63.6,5.9c-0.2,0.1-0.5,0.1-0.7-0.1l0,0
		c-0.2-0.2-0.6-0.5-1.2-0.5l0,0l0,0c-0.9,0-1.7,0.8-1.7,1.8c0,0.3,0.1,0.7,0.3,0.9 M60.2,8C60.2,8,60.2,8,60.2,8l0.3-0.2 M60.2,8
		c0.2,0.3,0.1,0.6-0.1,0.8 M60.2,8l0.3-0.2 M60.6,7.8 M60.1,8.8C60.1,8.8,60.1,8.8,60.1,8.8 M60.1,8.8c-0.2,0.2-0.5,0.3-0.8,0.1
		 M60.1,8.8C60.1,8.8,60.1,8.8,60.1,8.8 M59.1,9.3 M59.3,8.9C59.3,8.9,59.3,8.9,59.3,8.9 M59.3,8.9c-0.3-0.2-0.6-0.2-0.8-0.2l0,0
		l0,0c-0.6,0-1.1,0.3-1.4,0.8c0,0,0,0,0,0l0.3,0.2 M59.3,8.9C59.3,8.9,59.3,8.9,59.3,8.9"/>
	<path class="st1" d="M33.4,24.1 M32.9,25.4L32.9,25.4 M32.9,25.4L32.9,25.4 M31.7,19.1 M32.2,20.6 M32.3,20.3 M33,20.3 M32.8,25.4
		c-0.1,0-0.1-0.1-0.2-0.1 M32.8,25.4l-0.2-0.1 M32.6,25.2c-0.2-0.2-0.5-0.4-0.8-0.7c-0.3-0.3-0.6-0.9-0.7-1.6
		c-0.3-1.2-0.3-2.1-0.1-2.7c0.2-0.6,0.5-0.9,0.8-1.1L32.6,25.2z"/>
	<path class="st1" d="M55.2,24.7l0.8,0.5c0.2-0.2,0.5-0.4,0.8-0.7c0.3-0.3,0.6-0.9,0.7-1.6c0.3-1.2,0.3-2.1,0.1-2.7
		c-0.2-0.6-0.5-0.9-0.8-1.1L55.2,24.7 M55.2,24.7 M54.3,25.3 M54.3,25.3 M55.7,20.2 M56.8,19.1"/>
	<path class="st1" d="M32.9,25.5L32.9,25.5c-0.1-0.4,0.2-0.7,0.6-0.8c0.4-0.1,0.7,0.2,0.8,0.6c1,6.3,5.1,11,10,11
		c4.9,0,9.1-4.7,10-11c0.1-0.4,0.4-0.6,0.8-0.6h0c0.4,0.1,0.6,0.4,0.6,0.8l0,0c-1.1,7.1-5.9,12.2-11.3,12.2
		C38.8,37.7,34,32.6,32.9,25.5z"/>
	<path class="st1" d="M42,25h-2.5c-0.4,0-0.7-0.3-0.7-0.7c0-0.4,0.3-0.7,0.7-0.7H42c0.4,0,0.7,0.3,0.7,0.7C42.6,24.7,42.3,25,42,25z
		"/>
	<path class="st1" d="M49.8,25h-2.5c-0.4,0-0.7-0.3-0.7-0.7c0-0.4,0.3-0.7,0.7-0.7h2.5c0.4,0,0.7,0.3,0.7,0.7
		C50.5,24.7,50.2,25,49.8,25z"/>
	<path class="st1" d="M41.1,32.3L41.1,32.3c-0.3-0.2-0.3-0.6-0.1-0.9l0,0c0.2-0.3,0.6-0.3,0.9-0.1l0,0c0.8,0.6,1.6,0.9,2.4,0.9
		s1.6-0.3,2.4-0.9l0,0c0.3-0.2,0.7-0.2,0.9,0.1c0.2,0.3,0.2,0.7-0.1,0.9c-1,0.8-2.1,1.2-3.2,1.2C43.2,33.4,42.1,33,41.1,32.3z"/>
	<path class="st1" d="M31.3,58.1c-0.4,0-0.7-0.3-0.7-0.7V50c0-0.4,0.3-0.7,0.7-0.7c0.4,0,0.7,0.3,0.7,0.7v7.4
		C32,57.8,31.7,58.1,31.3,58.1z"/>
	<path class="st1" d="M51,44.4L51,44.4L51,44.4l-7.2-3.7c0,0,0,0,0,0c-0.3-0.2-0.5-0.6-0.3-0.9c0.2-0.3,0.6-0.5,0.9-0.3l0,0l5.9,3
		l0.5,0.3l0.1-0.6l0.5-5c0,0,0,0,0,0c0-0.4,0.3-0.6,0.7-0.6c0.4,0,0.6,0.4,0.6,0.7v0L52,43.8c0,0,0,0,0,0c0,0.2-0.1,0.4-0.3,0.5
		c-0.1,0.1-0.2,0.1-0.3,0.1C51.2,44.4,51.1,44.4,51,44.4z"/>
	<path class="st1" d="M36.7,44.3L36.7,44.3c-0.2-0.1-0.3-0.3-0.3-0.5c0,0,0,0,0,0l-0.6-6.5v0c0-0.4,0.2-0.7,0.6-0.7
		c0.4,0,0.7,0.2,0.7,0.6c0,0,0,0,0,0l0.5,5l0.1,0.6l0.5-0.3l5.9-3l0,0c0.3-0.2,0.7,0,0.9,0.3l0.3-0.2l-0.3,0.2
		c0.2,0.3,0,0.7-0.3,0.9l0,0l-7.2,3.7l0,0c-0.1,0-0.2,0.1-0.3,0.1C36.9,44.4,36.8,44.4,36.7,44.3z"/>
	<path class="st1" d="M22.5,57.6L22.5,57.6c0.2-0.3,0.6-0.4,0.9-0.2l0,0c6,4,13.1,6.1,20.3,6.1c4,0,7.9-0.6,11.7-1.9
		c0.5,0.3,1.1,0.6,1.8,0.8c-4.3,1.6-8.8,2.4-13.4,2.4c-7.5,0-14.8-2.2-21.1-6.4C22.4,58.4,22.3,57.9,22.5,57.6z"/>
	<path class="st1" d="M76.1,15.9c0.3,0.2,0.7,0.3,1,0.3l0.4,0.1l-0.1,0.4c-0.1,0.7-0.1,1.6,0.4,2.5l0,0c0.2,0.4,0.6,0.8,1,1.2
		c0.1,0.1,0.3,0.1,0.4,0.1c0.2,0,0.4-0.1,0.5-0.3l0,0l0,0c0.2-0.3,0.1-0.7-0.1-0.9l0.2-0.3 M76.1,15.9l-11.9-1.2 M76.1,15.9
		c-0.5-0.3-0.9-0.7-1.2-1l-0.2-0.3l-0.3,0.2c-0.4,0.3-0.8,0.5-1.3,0.6 M76.1,15.9l-1.3-0.6l-0.2-0.3l-0.2,0.2
		c-0.4,0.2-0.8,0.4-1.2,0.5 M79.8,18.9l-0.2,0.3c-0.3-0.2-0.5-0.4-0.7-0.7l0,0c-0.3-0.6-0.3-1.3-0.2-1.8c0.1-0.5,0.3-0.9,0.3-0.9
		l0,0c0.1-0.2,0.1-0.5-0.1-0.7c-0.2-0.2-0.4-0.3-0.7-0.2l-0.1-0.4 M79.8,18.9c-0.2-0.2-0.4-0.4-0.6-0.6 M78.3,14.5l0.1,0.4
		c-0.3,0.1-0.9,0.2-1.6-0.2l0,0c-0.6-0.3-0.9-0.8-1-1.2c-0.1-0.2-0.1-0.4-0.2-0.5c0-0.1,0-0.1,0-0.2c0,0,0,0,0-0.1l0,0l0,0l0,0
		c0-0.3-0.3-0.6-0.6-0.6c-0.4,0-0.6,0.2-0.7,0.6l0,0c-0.1,0.7-0.6,1.2-1.3,1.4l-0.1-0.4 M79.3,18.3 M72.8,13.7l0.1,0.4
		c-0.7,0.1-1.5-0.2-1.8-0.9c-0.1-0.2-0.3-0.3-0.5-0.4l0,0c-0.2,0-0.4,0-0.6,0.2l0,0h0l0,0c-0.1,0.1-1,0.8-2.1,0.6
		c-0.8-0.2-1.2-0.7-1.4-0.9c-0.2-0.2-0.5-0.3-0.8-0.2l0,0l0,0c-0.3,0.1-0.4,0.4-0.4,0.6l0,0v0c0,0,0,0.1,0,0.2c0,0.1,0,0.3-0.1,0.5
		c-0.1,0.4-0.3,0.9-0.8,1.2 M64.4,15C64.4,15,64.4,15,64.4,15l-0.2-0.3 M64.4,15C64.4,15,64.4,15,64.4,15l-0.2-0.3 M64.4,15
		c-0.6,0.4-1.2,0.3-1.4,0.3 M64.2,14.6c-0.5,0.3-1,0.3-1.2,0.2 M63,15.2C63,15.2,63,15.2,63,15.2l0.1-0.4 M63,15.2
		c-0.2,0-0.5,0-0.6,0.2c-0.2,0.2-0.2,0.4-0.1,0.6 M63,15.2C63,15.2,63,15.2,63,15.2l0.1-0.4 M63,14.9l-0.8,1.2 M62.2,16.1
		C62.2,16.1,62.2,16.1,62.2,16.1l-0.4,0.1L62.2,16.1C62.2,16.1,62.2,16.1,62.2,16.1z M62.2,16.1c0.1,0.3,0.3,1.1-0.1,2 M62.2,16.1
		l-0.5,1.8 M62.1,18.1C62.1,18.1,62.1,18.1,62.1,18.1l-0.3-0.2 M62.1,18.1C62.1,18.1,62.1,18.1,62.1,18.1l-0.3-0.2 M62.1,18.1
		c-0.3,0.6-0.8,0.9-1.1,1.1l0,0c-0.3,0.2-0.4,0.6-0.3,0.9c0.2,0.3,0.6,0.4,0.9,0.3l0,0c0.5-0.3,1.2-0.8,1.6-1.7v0
		c0.3-0.6,0.4-1.2,0.4-1.8l0-0.3l0.3-0.1c0.4-0.1,0.8-0.2,1.1-0.5l0,0c0.5-0.4,0.9-0.8,1.1-1.3l0.2-0.3l0.3,0.2
		c0.2,0.1,0.5,0.2,0.8,0.3l0,0c1,0.2,1.8,0,2.5-0.4l0.2-0.1l0.2,0.2c0.7,0.7,1.7,1,2.6,0.8 M61.7,17.9c-0.3,0.5-0.7,0.8-0.9,0.9
		c-0.5,0.3-0.7,0.9-0.4,1.4c0.3,0.5,0.9,0.7,1.4,0.4c0.5-0.3,1.3-0.9,1.7-1.8c0.3-0.7,0.4-1.4,0.4-1.9c0.4-0.1,0.9-0.2,1.3-0.5
		c0.6-0.4,0.9-0.8,1.2-1.3l0.1-0.2l0.2,0.1c0.2,0.1,0.5,0.2,0.8,0.2c1.1,0.2,2-0.1,2.7-0.4c0.8,0.7,1.9,1.1,3,0.9 M73.1,15.3
		C73.1,15.3,73.1,15.3,73.1,15.3l0.1,0.4 M73.1,15.3C73.1,15.3,73.1,15.3,73.1,15.3l0.1,0.4"/>
	<path class="st1" d="M22.8,52.8L22.8,52.8L22.8,52.8c-0.4,0-0.7-0.3-0.6-0.7l0,0c0.5-7.8,6.3-14.2,14-15.5l0.1,0l0,0l0,0
		c0,0,0.1,0,0.1,0l0,0l0,0c0.4-0.1,0.7,0.2,0.8,0.6c0.1,0.4-0.2,0.7-0.6,0.7l0,0l0,0c-0.1,0-0.2,0-0.2,0l0,0l0,0
		C29.3,39.2,24,45,23.5,52.2l0,0C23.5,52.6,23.2,52.8,22.8,52.8L22.8,52.8L22.8,52.8C22.9,52.8,22.8,52.8,22.8,52.8z"/>
	<path class="st1" d="M31.2,58.1C31.2,58.1,31.2,58.1,31.2,58.1C31.2,58.1,31.2,58.1,31.2,58.1C31.1,58,31,58,31,58l0,0l-0.1,0l0,0
		l0,0l0,0c-2.8-1.2-5.5-2.8-7.9-4.8c-0.2-0.1-0.3-0.3-0.5-0.4l0,0l0,0c0,0,0,0,0,0c0,0,0,0,0,0c0,0,0,0,0,0l0,0l0,0
		c0,0-0.1-0.1-0.1-0.1l0,0l0,0c0,0,0,0,0,0c0,0,0,0,0,0c0,0,0,0,0,0c0,0,0,0,0,0l0,0l0,0c0,0,0,0,0-0.1v0l0,0c0,0,0,0,0,0l0,0l0,0
		c0,0,0,0,0-0.1c0,0,0,0,0,0c0,0,0,0,0,0c0,0,0,0,0,0l0,0c0-0.1,0.1-0.2,0.2-0.3l0,0l0,0c0.1-0.2,0.3-0.2,0.5-0.2l0,0
		c0.1,0,0.3,0.1,0.4,0.2l0,0l0,0c0.1,0.1,0.3,0.2,0.4,0.3c2,1.6,4.1,3,6.4,4.1c0.7,0.3,1.4,0.6,2.1,0.9C36,58.6,40,59.3,44,59.3h0.1
		h0c2.7,0,5.4-0.4,8-1c0.1,0.2,0.3,0.5,0.4,0.7c0.1,0.2,0.2,0.3,0.3,0.5c-2.8,0.8-5.8,1.2-8.8,1.2c0,0,0,0,0,0H44
		C39.6,60.7,35.2,59.8,31.2,58.1z M22.4,51.8L22.4,51.8L22.4,51.8z M22.2,52.1C22.2,52.1,22.2,52.1,22.2,52.1
		C22.2,52.1,22.2,52.1,22.2,52.1z M22.2,52.3C22.2,52.3,22.2,52.3,22.2,52.3L22.2,52.3z M31.3,58.1L31.3,58.1L31.3,58.1z"/>
	<path class="st1" d="M51.9,37.9L51.9,37.9L51.9,37.9L51.9,37.9L51.9,37.9L51.9,37.9c-0.1,0-0.2,0-0.2,0v0l0,0c0,0-0.1,0-0.1,0
		c0,0,0,0,0,0l0,0l0,0c-0.2,0-0.4-0.1-0.5-0.3l0,0l0,0c-0.1-0.1-0.1-0.3-0.1-0.4c0-0.4,0.4-0.6,0.7-0.6c0.1,0,0.2,0,0.2,0l0,0l0,0
		c0,0,0,0,0.1,0c1.6,0.3,3.1,0.8,4.5,1.4c0.2,0.1,0.5,0.2,0.7,0.4l0,0l0,0c0.4,0.2,0.8,0.4,1.1,0.7l0,0c1.2,0.8,2.2,1.6,3.2,2.6
		c-0.1,0.3-0.2,0.7-0.3,1c0,0,0,0,0,0c0,0,0,0,0,0c0,0.2-0.1,0.3-0.1,0.5c-2.1-2.5-4.9-4.4-8.3-5.2C52.6,38.1,52.3,38,51.9,37.9z"/>
	<defs>
		<filter id="Adobe_OpacityMaskFilter" filterUnits="userSpaceOnUse" x="55.4" y="55.2" width="1.9" height="3.7">
			<feColorMatrix  type="matrix" values="1 0 0 0 0  0 1 0 0 0  0 0 1 0 0  0 0 0 1 0"/>
		</filter>
	</defs>
	
		<mask maskUnits="userSpaceOnUse" x="55.4" y="55.2" width="1.9" height="3.7" id="path-34-inside-1_00000132057356214606326800000000326992965322312126_" style="display:inline;">
		<path style="fill:#FFFFFF;filter:url(#Adobe_OpacityMaskFilter);" d="M56.6,56.4v0.2c0-0.1-0.1-0.1-0.1-0.2
			C56.5,56.4,56.5,56.4,56.6,56.4z"/>
	</mask>
	<path class="st3" d="M56.6,56.4h0.8v-1.2l-1.1,0.5L56.6,56.4z M56.6,56.6L56,57l1.4,1.8v-2.3H56.6z M56.4,56.4l-0.3-0.7l-0.7,0.3
		l0.4,0.7L56.4,56.4z M55.8,56.4v0.2h1.5v-0.2H55.8z M57.2,56.1C57.1,56.1,57.1,56.1,57.2,56.1l-1.4,0.6c0.1,0.1,0.1,0.2,0.2,0.2
		L57.2,56.1z M56.8,57.1C56.8,57.1,56.8,57.1,56.8,57.1C56.8,57.1,56.8,57.1,56.8,57.1c0,0,0.1,0,0.1,0l-0.6-1.4c0,0,0,0,0,0
		c0,0,0,0,0,0c0,0-0.1,0-0.1,0L56.8,57.1z"/>
	<defs>
		
			<filter id="Adobe_OpacityMaskFilter_00000118386306449796263390000008117954875953037759_" filterUnits="userSpaceOnUse" x="57.6" y="57" width="3" height="1.7">
			<feColorMatrix  type="matrix" values="1 0 0 0 0  0 1 0 0 0  0 0 1 0 0  0 0 0 1 0"/>
		</filter>
	</defs>
	
		<mask maskUnits="userSpaceOnUse" x="57.6" y="57" width="3" height="1.7" id="path-36-inside-2_00000085211867309403124630000007661708937144237212_" style="display:inline;">
		<path style="fill:#FFFFFF;filter:url(#Adobe_OpacityMaskFilter_00000118386306449796263390000008117954875953037759_);" d="
			M58.2,57.9C58.2,57.9,58.1,57.9,58.2,57.9C58.1,57.9,58.2,57.9,58.2,57.9C58.2,57.9,58.2,57.9,58.2,57.9z"/>
	</mask>
	<path class="st5" d="M58.2,57.9l0.4,0.6l2.1-1.4h-2.5V57.9z M58.1,57.9l-0.4-0.6l0.6,1.4L58.1,57.9z M58.2,57.9l0.5-0.5L58.3,57
		l-0.5,0.3L58.2,57.9z M57.8,57.3C57.8,57.3,57.8,57.3,57.8,57.3c0.1,0,0.1-0.1,0.1-0.1l0.4,1.4c0.1,0,0.2-0.1,0.3-0.1L57.8,57.3z
		 M58.5,58.6C58.5,58.6,58.5,58.6,58.5,58.6C58.6,58.6,58.6,58.5,58.5,58.6l-0.7-1.3c0,0,0,0,0,0c0,0,0,0,0,0L58.5,58.6z M57.6,58.4
		c0.1,0.1,0.2,0.1,0.2,0.1c0,0,0.2,0.1,0.3,0.1v-1.5c0.1,0,0.2,0,0.2,0c0,0,0.1,0,0.1,0c0,0,0.1,0.1,0.2,0.1L57.6,58.4z"/>
	<path class="st6" d="M72.9,57.5h0.8h6c1.8,0,3.2-1.4,3.2-3.2c0-1.7-1.4-3.2-3.2-3.2h-6h-0.8v-0.8v-6c0-0.9-0.4-1.7-0.9-2.2l0,0
		c-0.6-0.6-1.4-0.9-2.3-0.9c-0.9,0-1.7,0.4-2.3,1 M72.9,57.5v0.8 M72.9,57.5v0.8 M72.9,58.2v6c0,0.4-0.1,0.9-0.3,1.3l0,0.1
		 M72.9,58.2l-0.3,7.3 M72.6,65.6c-0.1,0.3-0.3,0.5-0.5,0.8c-0.1,0.1-0.2,0.2-0.4,0.3h-1.1l0.2,0.5c-0.4,0.1-0.7,0.2-1.1,0.2
		c-0.7,0-1.3-0.2-1.9-0.6c-0.6-0.4-1-1-1.2-1.7v0l0,0c-0.1-0.3-0.1-0.6-0.1-0.9v-6v-0.8h-0.8h-6c-1.8,0-3.2-1.4-3.2-3.2
		c0-0.9,0.4-1.7,0.9-2.2c0.6-0.6,1.4-0.9,2.3-0.9h6h0.8v-0.8v-6c0,0,0-0.1,0-0.2l0,0c0-0.2,0-0.3,0.1-0.4h0l0,0
		c0.1-0.6,0.4-1.2,0.8-1.6"/>
</g>
<g id="Layer_2">
	<g>
		<path class="st7" d="M23.4,34.4V38v0.6l-0.5-0.3l-4.5-2.2l0,0c-0.2-0.1-0.4-0.1-0.6,0l0,0l-4.5,2.3l-0.5,0.3v-0.6v-3.6l0,0
			c0-0.2-0.1-0.4-0.2-0.5c-0.2-0.1-0.4-0.2-0.5-0.1l0,0c-6.3,1.2-11,6.5-11.4,13c0,0.2,0.1,0.4,0.2,0.6c4.9,3.9,11,6,17.3,6h0.2
			c1.2,0,2.8-0.1,4.2-0.3h-0.3 M23.4,34.4L23.4,34.4L23.4,34.4z"/>
		<path class="st7" d="M56.6,38L56.6,38L56.6,38c1.7-1.8,4.1-3.1,6.7-3.5l0,0l0,0c0.1,0,0.3,0,0.4,0l0,0l0,0
			c0.3,0.1,0.4,0.3,0.4,0.6l0,0v2.5c-0.4,0.3-0.7,0.6-1,0.9c-0.1,0.1-0.2,0.3-0.3,0.4"/>
		<path class="st7" d="M56,38.7L56,38.7"/>
		<path class="st7" d="M56.2,39.5"/>
		<path class="st7" d="M74.8,37.8v-2.6l0,0c0-0.2,0.1-0.4,0.2-0.5l0,0l0,0c0.2-0.1,0.4-0.2,0.5-0.1c6.3,1.2,11,6.5,11.4,13"/>
		<path class="st7" d="M20.9,21.6c-0.4,0-0.7-0.3-0.7-0.7l0,0c0-0.4,0.3-0.7,0.7-0.7l0,0h2.3l0,0l0,0l0,0l0,0l0,0l0,0l0,0l0,0l0,0
			l0,0l0,0l0,0l0,0l0,0l0,0l0,0l0,0l0,0l0,0l0,0l0,0l0,0l0,0l0,0l0,0l0,0l0,0l0,0l0,0l0,0l0,0l0,0l0,0l0,0l0,0l0,0l0,0l0,0l0,0l0,0
			l0,0l0,0l0,0l0,0l0,0l0,0l0,0l0,0l0,0l0,0l0,0l0,0l0,0l0,0l0,0l0,0l0,0l0,0l0,0l0,0l0,0l0,0l0,0l0,0l0,0l0,0l0,0l0,0l0,0l0,0l0,0
			l0,0l0,0l0,0l0,0l0,0l0,0l0,0l0,0l0,0l0,0l0,0l0,0l0,0l0,0l0,0l0,0l0,0l0,0l0,0l0,0l0,0l0,0l0,0l0,0l0,0l0,0l0,0l0,0l0,0l0,0l0,0
			l0,0l0,0l0,0l0,0l0,0l0,0l0,0l0,0l0,0l0,0l0,0l0,0l0,0l0,0l0,0l0,0l0,0l0,0l0,0l0,0l0,0l0,0l0,0l0,0l0,0l0,0l0,0l0,0l0,0l0,0l0,0
			l0,0l0,0l0,0l0,0l0,0l0,0l0,0l0,0l0,0l0,0l0,0l0,0l0,0l0,0l0,0l0,0l0,0l0,0l0,0l0,0l0,0l0,0l0,0l0,0l0,0l0,0l0,0l0,0l0,0l0,0l0,0
			l0,0l0,0l0,0l0,0l0,0l0,0l0,0l0,0l0,0l0,0l0,0l0,0l0,0l0,0l0,0l0,0l0,0l0,0l0,0l0,0l0,0l0,0l0,0l0,0l0,0l0,0l0,0l0,0l0,0l0,0l0,0
			l0,0l0,0l0,0l0,0l0,0l0,0l0,0l0,0l0,0l0,0l0,0l0,0l0,0l0,0l0,0l0,0l0,0l0,0l0,0l0,0l0,0l0,0l0,0l0,0l0,0l0,0l0,0l0,0l0,0l0,0l0,0
			l0,0l0,0l0,0l0,0l0,0l0,0l0,0l0,0l0,0l0,0l0,0l0,0l0,0l0,0l0,0l0,0l0,0l0,0l0,0l0,0l0,0l0,0l0,0l0,0l0,0l0,0l0,0l0,0l0,0l0,0l0,0
			l0,0l0,0l0,0l0,0l0,0l0,0l0,0l0,0l0,0l0,0l0,0l0,0l0,0l0,0l0,0l0,0l0,0l0,0l0,0l0,0l0,0l0,0l0,0l0,0l0,0l0,0l0,0l0,0l0,0l0,0l0,0
			l0,0l0,0l0,0l0,0l0,0l0,0l0,0l0,0l0,0l0,0l0,0l0,0l0,0l0,0l0,0l0,0l0,0l0,0l0,0l0,0l0,0l0,0l0,0l0,0l0,0l0,0l0,0l0,0l0,0l0,0l0,0
			l0,0l0,0l0,0l0,0l0,0l0,0l0,0l0,0l0,0l0,0l0,0l0,0l0,0l0,0l0,0l0,0l0,0l0,0l0,0l0,0l0,0l0,0l0,0l0,0l0,0l0,0l0,0l0,0l0,0l0,0l0,0
			l0,0l0,0l0,0c0.4,0,0.7,0.3,0.7,0.7c0,0.4-0.3,0.7-0.7,0.7l0,0H20.9L20.9,21.6L20.9,21.6L20.9,21.6L20.9,21.6L20.9,21.6L20.9,21.6
			L20.9,21.6L20.9,21.6L20.9,21.6L20.9,21.6L20.9,21.6L20.9,21.6L20.9,21.6L20.9,21.6L20.9,21.6L20.9,21.6L20.9,21.6L20.9,21.6
			L20.9,21.6L20.9,21.6L20.9,21.6L20.9,21.6L20.9,21.6L20.9,21.6L20.9,21.6L20.9,21.6L20.9,21.6L20.9,21.6L20.9,21.6L20.9,21.6
			L20.9,21.6L20.9,21.6L20.9,21.6L20.9,21.6L20.9,21.6L20.9,21.6L20.9,21.6L20.9,21.6L20.9,21.6L20.9,21.6L20.9,21.6L20.9,21.6
			L20.9,21.6L20.9,21.6L20.9,21.6L20.9,21.6L20.9,21.6L20.9,21.6L20.9,21.6L20.9,21.6L20.9,21.6L20.9,21.6L20.9,21.6L20.9,21.6
			L20.9,21.6L20.9,21.6L20.9,21.6L20.9,21.6L20.9,21.6L20.9,21.6L20.9,21.6L20.9,21.6L20.9,21.6L20.9,21.6L20.9,21.6L20.9,21.6
			L20.9,21.6L20.9,21.6L20.9,21.6L20.9,21.6L20.9,21.6L20.9,21.6L20.9,21.6L20.9,21.6L20.9,21.6L20.9,21.6L20.9,21.6L20.9,21.6
			L20.9,21.6L20.9,21.6L20.9,21.6L20.9,21.6L20.9,21.6L20.9,21.6L20.9,21.6L20.9,21.6L20.9,21.6L20.9,21.6L20.9,21.6L20.9,21.6
			L20.9,21.6L20.9,21.6L20.9,21.6L20.9,21.6L20.9,21.6L20.9,21.6L20.9,21.6L20.9,21.6L20.9,21.6L20.9,21.6L20.9,21.6L20.9,21.6
			L20.9,21.6L20.9,21.6L20.9,21.6L20.9,21.6L20.9,21.6L20.9,21.6L20.9,21.6L20.9,21.6L20.9,21.6L20.9,21.6L20.9,21.6L20.9,21.6
			L20.9,21.6L20.9,21.6L20.9,21.6L20.9,21.6L20.9,21.6L20.9,21.6L20.9,21.6L20.9,21.6L20.9,21.6L20.9,21.6L20.9,21.6L20.9,21.6
			L20.9,21.6L20.9,21.6L20.9,21.6L20.9,21.6L20.9,21.6L20.9,21.6L20.9,21.6L20.9,21.6L20.9,21.6L20.9,21.6L20.9,21.6L20.9,21.6
			L20.9,21.6L20.9,21.6L20.9,21.6L20.9,21.6L20.9,21.6L20.9,21.6L20.9,21.6L20.9,21.6L20.9,21.6L20.9,21.6L20.9,21.6L20.9,21.6
			L20.9,21.6L20.9,21.6L20.9,21.6L20.9,21.6L20.9,21.6L20.9,21.6L20.9,21.6L20.9,21.6L20.9,21.6L20.9,21.6L20.9,21.6L20.9,21.6
			L20.9,21.6L20.9,21.6L20.9,21.6L20.9,21.6L20.9,21.6L20.9,21.6L20.9,21.6L20.9,21.6L20.9,21.6L20.9,21.6L20.9,21.6L20.9,21.6
			L20.9,21.6L20.9,21.6L20.9,21.6L20.9,21.6L20.9,21.6L20.9,21.6L20.9,21.6L20.9,21.6L20.9,21.6L20.9,21.6L20.9,21.6L20.9,21.6
			L20.9,21.6L20.9,21.6L20.9,21.6L20.9,21.6L20.9,21.6L20.9,21.6L20.9,21.6L20.9,21.6L20.9,21.6L20.9,21.6L20.9,21.6L20.9,21.6
			L20.9,21.6L20.9,21.6L20.9,21.6L20.9,21.6L20.9,21.6L20.9,21.6L20.9,21.6L20.9,21.6L20.9,21.6L20.9,21.6L20.9,21.6L20.9,21.6
			L20.9,21.6L20.9,21.6L20.9,21.6L20.9,21.6L20.9,21.6L20.9,21.6L20.9,21.6L20.9,21.6L20.9,21.6L20.9,21.6L20.9,21.6L20.9,21.6
			L20.9,21.6L20.9,21.6L20.9,21.6L20.9,21.6L20.9,21.6L20.9,21.6L20.9,21.6L20.9,21.6L20.9,21.6L20.9,21.6L20.9,21.6L20.9,21.6
			L20.9,21.6L20.9,21.6L20.9,21.6L20.9,21.6L20.9,21.6L20.9,21.6L20.9,21.6L20.9,21.6L20.9,21.6L20.9,21.6L20.9,21.6L20.9,21.6
			L20.9,21.6L20.9,21.6L20.9,21.6L20.9,21.6L20.9,21.6L20.9,21.6L20.9,21.6L20.9,21.6L20.9,21.6L20.9,21.6L20.9,21.6L20.9,21.6
			L20.9,21.6L20.9,21.6L20.9,21.6L20.9,21.6L20.9,21.6L20.9,21.6L20.9,21.6L20.9,21.6L20.9,21.6L20.9,21.6L20.9,21.6L20.9,21.6
			L20.9,21.6L20.9,21.6L20.9,21.6L20.9,21.6L20.9,21.6L20.9,21.6L20.9,21.6L20.9,21.6L20.9,21.6L20.9,21.6L20.9,21.6L20.9,21.6
			L20.9,21.6L20.9,21.6L20.9,21.6L20.9,21.6L20.9,21.6L20.9,21.6L20.9,21.6L20.9,21.6L20.9,21.6L20.9,21.6L20.9,21.6L20.9,21.6
			L20.9,21.6L20.9,21.6L20.9,21.6L20.9,21.6L20.9,21.6L20.9,21.6L20.9,21.6L20.9,21.6L20.9,21.6L20.9,21.6L20.9,21.6L20.9,21.6
			L20.9,21.6L20.9,21.6L20.9,21.6L20.9,21.6L20.9,21.6L20.9,21.6L20.9,21.6L20.9,21.6L20.9,21.6L20.9,21.6L20.9,21.6L20.9,21.6
			L20.9,21.6L20.9,21.6L20.9,21.6L20.9,21.6L20.9,21.6L20.9,21.6L20.9,21.6L20.9,21.6L20.9,21.6L20.9,21.6L20.9,21.6L20.9,21.6
			L20.9,21.6L20.9,21.6L20.9,21.6L20.9,21.6L20.9,21.6L20.9,21.6L20.9,21.6L20.9,21.6L20.9,21.6L20.9,21.6L20.9,21.6L20.9,21.6
			L20.9,21.6L20.9,21.6L20.9,21.6L20.9,21.6L20.9,21.6L20.9,21.6L20.9,21.6L20.9,21.6L20.9,21.6L20.9,21.6L20.9,21.6z"/>
		<path class="st7" d="M12.6,20.3L12.6,20.3c-0.4,0-0.7,0.3-0.7,0.7 M12.6,20.3h2.3c0.4,0,0.7,0.3,0.7,0.7c0,0.4-0.3,0.7-0.7,0.7
			l0,0 M14.9,21.6h-2.3l0,0l0,0l0,0l0,0l0,0l0,0l0,0l0,0l0,0l0,0l0,0l0,0l0,0l0,0l0,0l0,0l0,0l0,0l0,0l0,0l0,0l0,0l0,0l0,0l0,0l0,0
			l0,0l0,0l0,0l0,0l0,0l0,0l0,0l0,0l0,0l0,0l0,0l0,0l0,0l0,0l0,0l0,0l0,0l0,0l0,0l0,0l0,0l0,0l0,0l0,0l0,0l0,0l0,0l0,0l0,0l0,0l0,0
			l0,0l0,0l0,0l0,0l0,0l0,0l0,0l0,0l0,0l0,0l0,0l0,0l0,0l0,0l0,0l0,0l0,0l0,0l0,0l0,0l0,0l0,0l0,0l0,0l0,0l0,0l0,0l0,0l0,0l0,0l0,0
			l0,0l0,0l0,0l0,0l0,0l0,0l0,0l0,0l0,0l0,0l0,0l0,0l0,0l0,0l0,0l0,0l0,0l0,0l0,0l0,0l0,0l0,0l0,0l0,0l0,0l0,0l0,0l0,0l0,0l0,0l0,0
			l0,0l0,0l0,0l0,0l0,0l0,0l0,0l0,0l0,0l0,0l0,0l0,0l0,0l0,0l0,0l0,0l0,0l0,0l0,0l0,0l0,0l0,0l0,0l0,0l0,0l0,0l0,0l0,0l0,0l0,0l0,0
			l0,0l0,0l0,0l0,0l0,0l0,0l0,0l0,0l0,0l0,0l0,0l0,0l0,0l0,0l0,0l0,0l0,0l0,0l0,0l0,0l0,0l0,0l0,0l0,0l0,0l0,0l0,0l0,0l0,0l0,0l0,0
			l0,0l0,0l0,0l0,0l0,0l0,0l0,0l0,0l0,0l0,0l0,0l0,0l0,0l0,0l0,0l0,0l0,0l0,0l0,0l0,0l0,0l0,0l0,0l0,0l0,0l0,0l0,0l0,0l0,0l0,0l0,0
			l0,0l0,0l0,0l0,0l0,0l0,0l0,0l0,0l0,0l0,0l0,0l0,0l0,0l0,0l0,0l0,0l0,0l0,0l0,0l0,0l0,0l0,0l0,0l0,0l0,0l0,0l0,0l0,0l0,0l0,0l0,0
			l0,0l0,0l0,0l0,0l0,0l0,0l0,0l0,0l0,0l0,0l0,0l0,0l0,0l0,0l0,0l0,0l0,0l0,0l0,0l0,0l0,0l0,0l0,0l0,0l0,0l0,0l0,0l0,0l0,0l0,0l0,0
			l0,0l0,0l0,0l0,0l0,0l0,0l0,0l0,0l0,0l0,0l0,0l0,0l0,0l0,0l0,0l0,0l0,0l0,0l0,0l0,0l0,0l0,0l0,0l0,0l0,0l0,0l0,0l0,0l0,0l0,0l0,0
			l0,0l0,0l0,0l0,0l0,0l0,0l0,0l0,0l0,0l0,0l0,0l0,0l0,0l0,0l0,0l0,0l0,0l0,0l0,0l0,0l0,0l0,0l0,0l0,0l0,0l0,0l0,0l0,0l0,0l0,0l0,0
			l0,0l0,0l0,0l0,0l0,0l0,0l0,0l0,0l0,0l0,0l0,0l0,0l0,0l0,0l0,0l0,0l0,0l0,0l0,0l0,0l0,0l0,0l0,0l0,0l0,0l0,0l0,0l0,0l0,0l0,0l0,0
			l0,0l0,0l0,0l0,0l0,0l0,0l0,0l0,0l0,0l0,0l0,0l0,0l0,0l0,0l0,0l0,0l0,0l0,0l0,0l0,0l0,0l0,0l0,0l0,0l0,0l0,0l0,0l0,0l0,0l0,0l0,0
			l0,0l0,0l0,0l0,0l0,0l0,0l0,0l0,0l0,0l0,0l0,0l0,0l0,0l0,0l0,0l0,0l0,0l0,0l0,0l0,0l0,0l0,0l0,0l0,0l0,0l0,0
			c-0.4,0-0.7-0.3-0.7-0.7"/>
		<path class="st7" d="M14.8,28.8L14.8,28.8c-0.3-0.2-0.4-0.6-0.1-0.9c0.2-0.3,0.6-0.4,0.9-0.1l0,0c0.7,0.5,1.4,0.8,2.2,0.8l0,0l0,0
			l0,0l0,0l0,0l0,0l0,0l0,0l0,0l0,0l0,0l0,0l0,0l0,0l0,0l0,0l0,0l0,0l0,0l0,0l0,0l0,0l0,0l0,0l0,0l0,0l0,0l0,0l0,0l0,0l0,0l0,0l0,0
			l0,0l0,0l0,0l0,0l0,0l0,0l0,0l0,0l0,0l0,0l0,0l0,0l0,0l0,0l0,0l0,0l0,0l0,0l0,0l0,0l0,0l0,0l0,0l0,0l0,0l0,0l0,0l0,0l0,0l0,0l0,0
			l0,0l0,0l0,0l0,0l0,0l0,0l0,0l0,0l0,0l0,0l0,0l0,0l0,0l0,0l0,0l0,0l0,0l0,0l0,0l0,0l0,0l0,0l0,0l0,0l0,0l0,0l0,0l0,0l0,0l0,0l0,0
			l0,0l0,0l0,0l0,0l0,0l0,0l0,0l0,0l0,0l0,0l0,0l0,0l0,0l0,0l0,0l0,0l0,0l0,0l0,0l0,0l0,0l0,0l0,0l0,0l0,0l0,0l0,0l0,0l0,0l0,0l0,0
			l0,0l0,0l0,0l0,0l0,0l0,0l0,0l0,0l0,0l0,0l0,0l0,0l0,0l0,0l0,0l0,0l0,0l0,0l0,0l0,0l0,0l0,0l0,0l0,0l0,0l0,0l0,0l0,0l0,0l0,0l0,0
			l0,0l0,0l0,0l0,0l0,0l0,0l0,0l0,0l0,0l0,0l0,0l0,0l0,0l0,0l0,0l0,0l0,0l0,0l0,0l0,0l0,0l0,0l0,0l0,0l0,0l0,0l0,0l0,0l0,0l0,0l0,0
			l0,0l0,0l0,0l0,0l0,0l0,0l0,0l0,0l0,0l0,0l0,0l0,0l0,0l0,0l0,0l0,0l0,0l0,0l0,0l0,0l0,0l0,0l0,0l0,0l0,0l0,0l0,0l0,0l0,0l0,0l0,0
			l0,0l0,0l0,0l0,0l0,0l0,0l0,0l0,0l0,0l0,0l0,0l0,0l0,0l0,0l0,0l0,0l0,0l0,0l0,0l0,0l0,0l0,0l0,0l0,0l0,0l0,0l0,0l0,0l0,0l0,0l0,0
			l0,0l0,0l0,0l0,0l0,0l0,0l0,0l0,0l0,0l0,0l0,0l0,0l0,0l0,0l0,0l0,0l0,0l0,0l0,0l0,0l0,0l0,0l0,0l0,0l0,0l0,0l0,0l0,0l0,0l0,0l0,0
			l0,0l0,0l0,0l0,0l0,0l0,0l0,0l0,0l0,0l0,0l0,0l0,0l0,0l0,0l0,0l0,0l0,0l0,0l0,0l0,0l0,0l0,0l0,0l0,0l0,0l0,0l0,0l0,0l0,0l0,0l0,0
			l0,0l0,0l0,0l0,0l0,0l0,0l0,0l0,0l0,0l0,0l0,0l0,0l0,0l0,0l0,0l0,0l0,0l0,0l0,0l0,0l0,0l0,0l0,0l0,0l0,0l0,0l0,0l0,0l0,0l0,0l0,0
			l0,0l0,0l0,0l0,0l0,0l0,0l0,0l0,0l0,0l0,0l0,0l0,0l0,0l0,0l0,0l0,0l0,0l0,0l0,0l0,0l0,0l0,0l0,0l0,0l0,0l0,0l0,0l0,0l0,0l0,0l0,0
			l0,0l0,0l0,0l0,0l0,0l0,0l0,0l0,0l0,0l0,0l0,0l0,0l0,0l0,0l0,0l0,0l0,0l0,0l0,0l0,0l0,0l0,0l0,0l0,0l0,0l0,0l0,0l0,0l0,0l0,0l0,0
			l0,0l0,0l0,0l0,0l0,0l0,0l0,0l0,0l0,0l0,0l0,0l0,0l0,0l0,0l0,0l0,0l0,0l0,0l0,0l0,0l0,0l0,0l0,0l0,0l0,0l0,0l0,0l0,0l0,0l0,0l0,0
			l0,0l0,0l0,0l0,0l0,0l0,0l0,0l0,0l0,0l0,0l0,0l0,0l0,0l0,0l0,0l0,0l0,0l0,0l0,0l0,0l0,0l0,0l0,0l0,0l0,0l0,0l0,0l0,0l0,0l0,0l0,0
			l0,0l0,0l0,0l0,0l0,0l0,0l0,0l0,0l0,0l0,0l0,0l0,0l0,0l0,0l0,0l0,0l0,0l0,0l0,0l0,0l0,0l0,0l0,0l0,0l0,0l0,0l0,0l0,0l0,0l0,0l0,0
			l0,0l0,0l0,0l0,0l0,0l0,0l0,0l0,0l0,0l0,0l0,0l0,0l0,0l0,0l0,0l0,0c0.8,0,1.5-0.3,2.2-0.8c0.3-0.2,0.7-0.2,0.9,0.1
			c0.2,0.3,0.2,0.7-0.1,0.9l0,0c-0.9,0.7-2,1.1-3,1.1l0,0l0,0l0,0l0,0l0,0l0,0l0,0l0,0l0,0l0,0l0,0l0,0l0,0l0,0l0,0l0,0l0,0l0,0l0,0
			l0,0l0,0l0,0l0,0l0,0l0,0l0,0l0,0l0,0l0,0l0,0l0,0l0,0l0,0l0,0l0,0l0,0l0,0l0,0l0,0l0,0l0,0l0,0l0,0l0,0l0,0l0,0l0,0l0,0l0,0l0,0
			l0,0l0,0l0,0l0,0l0,0l0,0l0,0l0,0l0,0l0,0l0,0l0,0l0,0l0,0l0,0l0,0l0,0l0,0l0,0l0,0l0,0l0,0l0,0l0,0l0,0l0,0l0,0l0,0l0,0l0,0l0,0
			l0,0l0,0l0,0l0,0l0,0l0,0l0,0l0,0l0,0l0,0l0,0l0,0l0,0l0,0l0,0l0,0l0,0l0,0l0,0l0,0l0,0l0,0l0,0l0,0l0,0l0,0l0,0l0,0l0,0l0,0l0,0
			l0,0l0,0l0,0l0,0l0,0l0,0l0,0l0,0l0,0l0,0l0,0l0,0l0,0l0,0l0,0l0,0l0,0l0,0l0,0l0,0l0,0l0,0l0,0l0,0l0,0l0,0l0,0l0,0l0,0l0,0l0,0
			l0,0l0,0l0,0l0,0l0,0l0,0l0,0l0,0l0,0l0,0l0,0l0,0l0,0l0,0l0,0l0,0l0,0l0,0l0,0l0,0l0,0l0,0l0,0l0,0l0,0l0,0l0,0l0,0l0,0l0,0l0,0
			l0,0l0,0l0,0l0,0l0,0l0,0l0,0l0,0l0,0l0,0l0,0l0,0l0,0l0,0l0,0l0,0l0,0l0,0l0,0l0,0l0,0l0,0l0,0l0,0l0,0l0,0l0,0l0,0l0,0l0,0l0,0
			l0,0l0,0l0,0l0,0l0,0l0,0l0,0l0,0l0,0l0,0l0,0l0,0l0,0l0,0l0,0l0,0l0,0l0,0l0,0l0,0l0,0l0,0l0,0l0,0l0,0l0,0l0,0l0,0l0,0l0,0l0,0
			l0,0l0,0l0,0l0,0l0,0l0,0l0,0l0,0l0,0l0,0l0,0l0,0l0,0l0,0l0,0l0,0l0,0l0,0l0,0l0,0l0,0l0,0l0,0l0,0l0,0l0,0l0,0l0,0l0,0l0,0l0,0
			l0,0l0,0l0,0l0,0l0,0l0,0l0,0l0,0l0,0l0,0l0,0l0,0l0,0l0,0l0,0l0,0l0,0l0,0l0,0l0,0l0,0l0,0l0,0l0,0l0,0l0,0l0,0l0,0l0,0l0,0l0,0
			l0,0l0,0l0,0l0,0l0,0l0,0l0,0l0,0l0,0l0,0l0,0l0,0l0,0l0,0l0,0l0,0l0,0l0,0l0,0l0,0l0,0l0,0l0,0l0,0l0,0l0,0l0,0l0,0l0,0l0,0l0,0
			l0,0l0,0l0,0l0,0l0,0l0,0l0,0l0,0l0,0l0,0l0,0l0,0l0,0l0,0l0,0l0,0l0,0l0,0l0,0l0,0l0,0l0,0l0,0l0,0l0,0l0,0l0,0l0,0l0,0l0,0l0,0
			l0,0l0,0l0,0l0,0l0,0l0,0l0,0l0,0l0,0l0,0l0,0l0,0l0,0l0,0l0,0l0,0l0,0l0,0l0,0l0,0l0,0l0,0l0,0l0,0l0,0l0,0l0,0l0,0l0,0l0,0l0,0
			l0,0l0,0l0,0l0,0l0,0l0,0l0,0l0,0l0,0l0,0l0,0l0,0l0,0l0,0l0,0l0,0l0,0l0,0l0,0l0,0l0,0l0,0l0,0l0,0l0,0l0,0l0,0l0,0l0,0l0,0l0,0
			l0,0l0,0l0,0l0,0l0,0l0,0l0,0l0,0l0,0l0,0l0,0l0,0l0,0l0,0l0,0l0,0l0,0l0,0l0,0l0,0l0,0l0,0l0,0l0,0l0,0l0,0l0,0l0,0l0,0l0,0l0,0
			l0,0l0,0l0,0l0,0l0,0l0,0l0,0l0,0l0,0l0,0l0,0l0,0l0,0l0,0l0,0l0,0l0,0l0,0l0,0l0,0l0,0l0,0l0,0l0,0l0,0l0,0l0,0l0,0l0,0l0,0l0,0
			l0,0l0,0l0,0l0,0l0,0C16.7,29.9,15.7,29.5,14.8,28.8z"/>
		<path class="st7" d="M6.8,50.3L6.8,50.3l-0.1-4.4l0,0c0-0.4,0.3-0.7,0.7-0.7l0,0l0,0l0,0l0,0l0,0l0,0l0,0l0,0l0,0l0,0l0,0l0,0l0,0
			l0,0l0,0l0,0l0,0l0,0l0,0l0,0l0,0l0,0l0,0l0,0l0,0l0,0l0,0l0,0l0,0l0,0l0,0l0,0l0,0l0,0l0,0l0,0l0,0l0,0l0,0l0,0l0,0l0,0l0,0l0,0
			l0,0l0,0l0,0l0,0l0,0l0,0l0,0l0,0l0,0l0,0l0,0l0,0l0,0l0,0l0,0l0,0l0,0l0,0l0,0l0,0l0,0l0,0l0,0l0,0l0,0l0,0l0,0l0,0l0,0l0,0l0,0
			l0,0l0,0l0,0l0,0l0,0l0,0l0,0l0,0l0,0l0,0l0,0l0,0l0,0l0,0l0,0l0,0l0,0l0,0l0,0l0,0l0,0l0,0l0,0l0,0l0,0l0,0l0,0l0,0l0,0l0,0l0,0
			l0,0l0,0l0,0l0,0l0,0l0,0l0,0l0,0l0,0l0,0l0,0l0,0l0,0l0,0l0,0l0,0l0,0l0,0l0,0l0,0l0,0l0,0l0,0l0,0l0,0l0,0l0,0l0,0l0,0l0,0l0,0
			l0,0l0,0l0,0l0,0l0,0l0,0l0,0l0,0l0,0l0,0l0,0l0,0l0,0l0,0l0,0l0,0l0,0l0,0l0,0l0,0l0,0l0,0l0,0l0,0l0,0l0,0l0,0l0,0l0,0l0,0l0,0
			l0,0l0,0l0,0l0,0l0,0l0,0l0,0l0,0l0,0l0,0l0,0l0,0l0,0l0,0l0,0l0,0l0,0l0,0l0,0l0,0l0,0l0,0l0,0l0,0l0,0l0,0l0,0l0,0l0,0l0,0l0,0
			l0,0l0,0l0,0l0,0l0,0l0,0l0,0l0,0l0,0l0,0l0,0l0,0l0,0l0,0l0,0l0,0l0,0l0,0l0,0l0,0l0,0l0,0l0,0l0,0l0,0l0,0l0,0l0,0l0,0l0,0l0,0
			l0,0l0,0l0,0l0,0l0,0l0,0l0,0l0,0l0,0l0,0l0,0l0,0l0,0l0,0l0,0l0,0l0,0l0,0l0,0l0,0l0,0l0,0l0,0l0,0l0,0l0,0l0,0l0,0l0,0l0,0l0,0
			l0,0l0,0l0,0l0,0l0,0l0,0l0,0l0,0l0,0l0,0l0,0l0,0l0,0l0,0l0,0l0,0l0,0l0,0l0,0l0,0l0,0l0,0l0,0l0,0l0,0l0,0l0,0l0,0l0,0l0,0l0,0
			l0,0l0,0l0,0l0,0l0,0l0,0l0,0l0,0l0,0l0,0l0,0l0,0l0,0l0,0l0,0l0,0l0,0l0,0l0,0l0,0l0,0l0,0l0,0l0,0l0,0l0,0l0,0l0,0l0,0l0,0l0,0
			l0,0l0,0l0,0l0,0l0,0l0,0l0,0l0,0l0,0l0,0l0,0l0,0l0,0l0,0l0,0l0,0l0,0l0,0l0,0l0,0l0,0l0,0l0,0l0,0l0,0l0,0l0,0l0,0l0,0l0,0l0,0
			l0,0l0,0l0,0l0,0l0,0l0,0l0,0l0,0l0,0l0,0l0,0l0,0l0,0l0,0l0,0l0,0l0,0l0,0l0,0l0,0l0,0l0,0l0,0l0,0l0,0l0,0l0,0l0,0l0,0l0,0l0,0
			l0,0l0,0l0,0l0,0l0,0l0,0l0,0l0,0l0,0l0,0l0,0l0,0l0,0l0,0l0,0l0,0l0,0l0,0l0,0l0,0l0,0l0,0l0,0c0.4,0,0.7,0.3,0.7,0.7l0,0
			l0.1,4.4l0,0c0,0.4-0.3,0.7-0.7,0.7l0,0l0,0l0,0l0,0l0,0l0,0l0,0l0,0l0,0l0,0l0,0l0,0l0,0l0,0l0,0l0,0l0,0l0,0l0,0l0,0l0,0l0,0
			l0,0l0,0l0,0l0,0l0,0l0,0l0,0l0,0l0,0l0,0l0,0l0,0l0,0l0,0l0,0l0,0l0,0l0,0l0,0l0,0l0,0l0,0l0,0l0,0l0,0l0,0l0,0l0,0l0,0l0,0l0,0
			l0,0l0,0l0,0l0,0l0,0l0,0l0,0l0,0l0,0l0,0l0,0l0,0l0,0l0,0l0,0l0,0l0,0l0,0l0,0l0,0l0,0l0,0l0,0l0,0l0,0l0,0l0,0l0,0l0,0l0,0l0,0
			l0,0l0,0l0,0l0,0l0,0l0,0l0,0l0,0l0,0l0,0l0,0l0,0l0,0l0,0l0,0l0,0l0,0l0,0l0,0l0,0l0,0l0,0l0,0l0,0l0,0l0,0l0,0l0,0l0,0l0,0l0,0
			l0,0l0,0l0,0l0,0l0,0l0,0l0,0l0,0l0,0l0,0l0,0l0,0l0,0l0,0l0,0l0,0l0,0l0,0l0,0l0,0l0,0l0,0l0,0l0,0l0,0l0,0l0,0l0,0l0,0l0,0l0,0
			l0,0l0,0l0,0l0,0l0,0l0,0l0,0l0,0l0,0l0,0l0,0l0,0l0,0l0,0l0,0l0,0l0,0l0,0l0,0l0,0l0,0l0,0l0,0l0,0l0,0l0,0l0,0l0,0l0,0l0,0l0,0
			l0,0l0,0l0,0l0,0l0,0l0,0l0,0l0,0l0,0l0,0l0,0l0,0l0,0l0,0l0,0l0,0l0,0l0,0l0,0l0,0l0,0l0,0l0,0l0,0l0,0l0,0l0,0l0,0l0,0l0,0l0,0
			l0,0l0,0l0,0l0,0l0,0l0,0l0,0l0,0l0,0l0,0l0,0l0,0l0,0l0,0l0,0l0,0l0,0l0,0l0,0l0,0l0,0l0,0l0,0l0,0l0,0l0,0l0,0l0,0l0,0l0,0l0,0
			l0,0l0,0l0,0l0,0l0,0l0,0l0,0l0,0l0,0l0,0l0,0l0,0l0,0l0,0l0,0l0,0l0,0l0,0l0,0l0,0l0,0l0,0l0,0l0,0l0,0l0,0l0,0l0,0l0,0l0,0l0,0
			l0,0l0,0l0,0l0,0l0,0l0,0l0,0l0,0l0,0l0,0l0,0l0,0l0,0l0,0l0,0l0,0l0,0l0,0l0,0l0,0l0,0l0,0l0,0l0,0l0,0l0,0l0,0l0,0l0,0l0,0l0,0
			l0,0l0,0l0,0l0,0l0,0l0,0l0,0l0,0l0,0l0,0l0,0l0,0l0,0l0,0l0,0l0,0l0,0l0,0l0,0l0,0l0,0l0,0l0,0l0,0l0,0l0,0l0,0l0,0l0,0l0,0l0,0
			l0,0l0,0l0,0l0,0l0,0l0,0l0,0l0,0l0,0l0,0l0,0l0,0l0,0l0,0l0,0l0,0l0,0l0,0l0,0l0,0l0,0l0,0l0,0l0,0l0,0l0,0l0,0l0,0l0,0l0,0l0,0
			l0,0l0,0l0,0l0,0l0,0l0,0l0,0l0,0l0,0l0,0l0,0l0,0l0,0l0,0l0,0l0,0l0,0l0,0l0,0l0,0l0,0l0,0l0,0l0,0l0,0l0,0l0,0l0,0l0,0l0,0l0,0
			l0,0l0,0l0,0l0,0C7.5,51,6.8,50.7,6.8,50.3z"/>
		<path class="st7" d="M3.1,26.4L3.1,26.4c0.3,3.6,1.1,6.7,2.9,10 M3.1,26.4c-0.1-0.7-0.3-4.1,0.5-8c0.8-4,2.5-8.4,6.4-11.3l0,0
			 M10.1,7.1c3.2-2.3,6.6-2.5,6.7-2.6l0,0 M16.8,4.5L16.8,4.5 M16.8,4.5L16.8,4.5 M16.8,4.5c0.6-0.1,1.2-0.1,1.9,0l0,0 M16.8,4.5
			h1.9 M18.7,4.5L18.7,4.5 M18.7,4.5L18.7,4.5 M18.7,4.5L18.7,4.5L18.7,4.5L18.7,4.5L18.7,4.5c0.1,0,0.1,0,0.2,0c0.1,0,0.3,0,0.5,0
			c0.4,0,0.9,0.1,1.6,0.3c1.3,0.3,2.9,0.9,4.5,2.1c2.3,1.7,4.1,4,5.4,7.1l0,0"/>
		<path class="st7" d="M23.4,34.4l8.2,3.5l-1.9-1.2c0.1-0.1,0.1-0.3,0.2-0.4c0.7-1.4,1.8-3.8,1.9-7.4"/>
		<path class="st7" d="M19.5,17.3L19.5,17.3h-3.2l0,0c-1.9,0-3.7-1-4.5-2.6l0,0l0,0l0,0c0-0.1-0.1-0.1-0.1-0.2
			c-0.1-0.2-0.3-0.4-0.5-0.5c-0.3,0-0.5,0.1-0.7,0.3l0,0l0,0c-0.9,1.4-2.4,4.2-2.3,7.9l0,0c0,0.9,0.1,3.7,1.9,6.4 M19.5,17.3
			c1.8,0,3.5-1,4.3-2.6c0.1-0.1,0.1-0.2,0.1-0.3v-0.1l0,0l0,0c0.1-0.2,0.3-0.4,0.5-0.5c0.3,0,0.5,0.1,0.7,0.3
			c0.9,1.3,2.5,4.2,2.5,7.9l0,0c0,0.9,0,3.7-1.7,6.4c-0.8,1.3-2,2.6-3.3,3.6c-1.4,1-2.9,1.7-4.5,1.8l0,0 M18,33.8L18,33.8 M18,33.8
			L18,33.8 M18,33.8L18,33.8L18,33.8c-1.6,0-3.2-0.7-4.6-1.7c-1.4-1-2.6-2.3-3.4-3.5"/>
		<path class="st7" d="M32.1,18.5L32.1,18.5c0.1,0.6,0.4,1.2,0.7,1.8l0,0l0,0c0,0.1,0.1,0.2,0.1,0.3 M32.1,18.5
			c-0.3-1.4-0.3-2.8-0.3-3.8c0-0.5,0.1-1,0.2-1.3c0-0.2,0.1-0.3,0.1-0.4v-0.1l0,0l0,0c1.6-5.8,7-8.5,11.8-8.5
			c5.6,0,10.1,3.3,11.5,8.5l0,0l0,0V13c0,0.1,0,0.2,0.1,0.4c0.1,0.3,0.1,0.7,0.2,1.3c0.1,1,0.1,2.4-0.2,3.8l0,0
			c-0.2,0.6-0.4,1.3-0.7,1.8c-0.1,0.1-0.1,0.2-0.2,0.3l0,0 M34,20.1l0.3-1.4c0.1-0.4,0.2-0.8,0.3-1.3c0.2-0.8,0.5-1.6,0.9-2.5l0,0
			l0,0c0.1-0.3,0.4-0.4,0.7-0.4l0,0c0.9,0.2,1.7,0.5,2.5,0.9l0,0l0,0c1.4,0.6,2.8,1.3,5,1.3c2.1,0,3.6-0.7,5-1.3l0,0l0,0l0,0
			c0.9-0.4,1.7-0.8,2.5-0.9l0,0l0,0c0.3-0.1,0.6,0.1,0.7,0.4c0.4,0.8,0.7,1.7,0.9,2.5l0,0c0.1,0.4,0.2,0.8,0.3,1.3l0.3,1.4"/>
		<path class="st7" d="M79.5,24.6L79.5,24.6c-0.9,6-5,10.3-9.6,10.3s-8.7-4.3-9.6-10.3l0,0 M59.8,24.7L59.8,24.7L59.8,24.7z"/>
		<path class="st7" d="M66.5,23.9L66.5,23.9L66.5,23.9c-0.2,0-0.3,0.1-0.4,0.1c0,0-0.1,0-0.1,0.1l0,0l0,0l0,0l0,0
			c-0.3,0.2-0.7,0.2-0.9-0.1l0,0l0,0c-0.2-0.3-0.2-0.7,0.1-0.9l0,0l0,0c0.2-0.2,0.7-0.5,1.4-0.6l0,0l0,0l0,0l0,0l0,0l0,0l0,0l0,0
			l0,0l0,0l0,0l0,0l0,0l0,0l0,0l0,0l0,0l0,0l0,0l0,0l0,0l0,0l0,0l0,0l0,0l0,0l0,0l0,0l0,0l0,0l0,0l0,0l0,0l0,0l0,0l0,0l0,0l0,0l0,0
			l0,0l0,0l0,0l0,0l0,0l0,0l0,0l0,0l0,0l0,0l0,0l0,0l0,0l0,0l0,0l0,0l0,0l0,0l0,0l0,0l0,0l0,0l0,0l0,0l0,0l0,0l0,0l0,0l0,0l0,0l0,0
			l0,0l0,0l0,0l0,0l0,0l0,0l0,0l0,0l0,0l0,0l0,0l0,0l0,0l0,0l0,0l0,0l0,0l0,0l0,0l0,0l0,0l0,0l0,0l0,0l0,0l0,0l0,0l0,0l0,0l0,0l0,0
			l0,0l0,0l0,0l0,0l0,0l0,0l0,0l0,0l0,0l0,0l0,0l0,0l0,0l0,0l0,0l0,0l0,0l0,0l0,0l0,0l0,0l0,0l0,0l0,0l0,0l0,0l0,0l0,0l0,0l0,0l0,0
			l0,0l0,0l0,0l0,0l0,0l0,0l0,0l0,0l0,0l0,0l0,0l0,0l0,0l0,0l0,0l0,0l0,0l0,0l0,0l0,0l0,0l0,0l0,0l0,0l0,0l0,0l0,0l0,0l0,0l0,0l0,0
			l0,0l0,0l0,0l0,0l0,0l0,0l0,0l0,0l0,0l0,0l0,0l0,0l0,0l0,0l0,0l0,0l0,0l0,0l0,0l0,0l0,0l0,0l0,0l0,0l0,0l0,0l0,0l0,0l0,0l0,0l0,0
			l0,0l0,0l0,0l0,0l0,0l0,0l0,0l0,0l0,0l0,0l0,0l0,0l0,0l0,0l0,0l0,0l0,0l0,0l0,0l0,0l0,0l0,0l0,0l0,0l0,0l0,0l0,0l0,0l0,0l0,0l0,0
			l0,0l0,0l0,0l0,0l0,0l0,0l0,0l0,0l0,0l0,0l0,0l0,0l0,0l0,0l0,0l0,0l0,0l0,0l0,0l0,0l0,0l0,0l0,0l0,0l0,0l0,0l0,0l0,0l0,0l0,0l0,0
			l0,0l0,0l0,0l0,0l0,0l0,0l0,0l0,0l0,0l0,0l0,0l0,0l0,0l0,0l0,0l0,0l0,0l0,0l0,0l0,0l0,0l0,0l0,0l0,0l0,0l0,0l0,0l0,0l0,0l0,0l0,0
			l0,0l0,0l0,0l0,0l0,0l0,0l0,0l0,0l0,0l0,0l0,0l0,0l0,0l0,0l0,0l0,0l0,0l0,0l0,0l0,0l0,0l0,0l0,0l0,0l0,0l0,0l0,0l0,0l0,0l0,0l0,0
			l0,0l0,0l0,0l0,0l0,0l0,0l0,0l0,0l0,0l0,0l0,0l0,0l0,0l0,0l0,0l0,0l0,0l0,0l0,0l0,0l0,0l0,0l0,0l0,0l0,0l0,0l0,0l0,0l0,0l0,0l0,0
			l0,0l0,0l0,0l0,0l0,0l0,0l0,0l0,0l0,0l0,0l0,0l0,0l0,0l0,0l0,0l0,0l0,0l0,0l0,0l0,0l0,0l0,0l0,0l0,0l0,0l0,0l0,0l0,0l0,0l0,0l0,0
			l0,0l0,0l0,0l0,0l0,0l0,0l0,0l0,0l0,0l0,0l0,0l0,0l0,0l0,0l0,0l0,0l0,0l0,0l0,0l0,0l0,0l0,0l0,0l0,0l0,0l0,0l0,0l0,0l0,0l0,0l0,0
			l0,0l0,0l0,0l0,0l0,0l0,0l0,0l0,0l0,0l0,0l0,0l0,0l0,0l0,0l0,0l0,0l0,0l0,0l0,0l0,0l0,0l0,0l0,0l0,0l0,0l0,0l0,0l0,0l0,0l0,0l0,0
			l0,0l0,0l0,0l0,0l0,0l0,0l0,0l0,0l0,0l0,0l0,0l0,0l0,0l0,0l0,0l0,0l0,0l0,0l0,0l0,0l0,0l0,0l0,0l0,0c0.8,0,1.3,0.4,1.5,0.6l0,0
			c0.3,0.2,0.3,0.7,0.1,0.9c-0.1,0.1-0.3,0.2-0.5,0.2s-0.3-0.1-0.4-0.2C67,24,66.8,23.9,66.5,23.9z"/>
		<path class="st7" d="M74.9,23.1L74.9,23.1L74.9,23.1c0.3,0.3,0.3,0.7,0,0.9c-0.3,0.3-0.7,0.3-0.9,0c0,0-0.2-0.2-0.6-0.2l0,0l0,0
			l0,0c-0.3,0-0.6,0.2-0.6,0.2l0,0l0,0c-0.1,0.1-0.3,0.2-0.5,0.2S72,24.1,71.8,24c-0.3-0.3-0.2-0.7,0-0.9c0.2-0.2,0.7-0.6,1.5-0.6
			l0,0l0,0l0,0l0,0l0,0l0,0l0,0l0,0l0,0l0,0l0,0l0,0l0,0l0,0l0,0l0,0l0,0l0,0l0,0l0,0l0,0l0,0l0,0l0,0l0,0l0,0l0,0l0,0l0,0l0,0l0,0
			l0,0l0,0l0,0l0,0l0,0l0,0l0,0l0,0l0,0l0,0l0,0l0,0l0,0l0,0l0,0l0,0l0,0l0,0l0,0l0,0l0,0l0,0l0,0l0,0l0,0l0,0l0,0l0,0l0,0l0,0l0,0
			l0,0l0,0l0,0l0,0l0,0l0,0l0,0l0,0l0,0l0,0l0,0l0,0l0,0l0,0l0,0l0,0l0,0l0,0l0,0l0,0l0,0l0,0l0,0l0,0l0,0l0,0l0,0l0,0l0,0l0,0l0,0
			l0,0l0,0l0,0l0,0l0,0l0,0l0,0l0,0l0,0l0,0l0,0l0,0l0,0l0,0l0,0l0,0l0,0l0,0l0,0l0,0l0,0l0,0l0,0l0,0l0,0l0,0l0,0l0,0l0,0l0,0l0,0
			l0,0l0,0l0,0l0,0l0,0l0,0l0,0l0,0l0,0l0,0l0,0l0,0l0,0l0,0l0,0l0,0l0,0l0,0l0,0l0,0l0,0l0,0l0,0l0,0l0,0l0,0l0,0l0,0l0,0l0,0l0,0
			l0,0l0,0l0,0l0,0l0,0l0,0l0,0l0,0l0,0l0,0l0,0l0,0l0,0l0,0l0,0l0,0l0,0l0,0l0,0l0,0l0,0l0,0l0,0l0,0l0,0l0,0l0,0l0,0l0,0l0,0l0,0
			l0,0l0,0l0,0l0,0l0,0l0,0l0,0l0,0l0,0l0,0l0,0l0,0l0,0l0,0l0,0l0,0l0,0l0,0l0,0l0,0l0,0l0,0l0,0l0,0l0,0l0,0l0,0l0,0l0,0l0,0l0,0
			l0,0l0,0l0,0l0,0l0,0l0,0l0,0l0,0l0,0l0,0l0,0l0,0l0,0l0,0l0,0l0,0l0,0l0,0l0,0l0,0l0,0l0,0l0,0l0,0l0,0l0,0l0,0l0,0l0,0l0,0l0,0
			l0,0l0,0l0,0l0,0l0,0l0,0l0,0l0,0l0,0l0,0l0,0l0,0l0,0l0,0l0,0l0,0l0,0l0,0l0,0l0,0l0,0l0,0l0,0l0,0l0,0l0,0l0,0l0,0l0,0l0,0l0,0
			l0,0l0,0l0,0l0,0l0,0l0,0l0,0l0,0l0,0l0,0l0,0l0,0l0,0l0,0l0,0l0,0l0,0l0,0l0,0l0,0l0,0l0,0l0,0l0,0l0,0l0,0l0,0l0,0l0,0l0,0l0,0
			l0,0l0,0l0,0l0,0l0,0l0,0l0,0l0,0l0,0l0,0l0,0l0,0l0,0l0,0l0,0l0,0l0,0l0,0l0,0l0,0l0,0l0,0l0,0l0,0l0,0l0,0l0,0l0,0l0,0l0,0l0,0
			l0,0l0,0l0,0l0,0l0,0l0,0l0,0l0,0l0,0l0,0l0,0l0,0l0,0l0,0l0,0l0,0l0,0l0,0l0,0l0,0l0,0l0,0l0,0l0,0l0,0l0,0l0,0l0,0l0,0l0,0l0,0
			l0,0l0,0l0,0l0,0l0,0l0,0l0,0l0,0l0,0l0,0l0,0l0,0l0,0l0,0l0,0l0,0l0,0l0,0l0,0l0,0l0,0l0,0l0,0l0,0l0,0l0,0l0,0l0,0l0,0l0,0l0,0
			l0,0l0,0l0,0l0,0l0,0l0,0l0,0l0,0l0,0l0,0l0,0l0,0l0,0l0,0l0,0l0,0l0,0l0,0l0,0l0,0l0,0l0,0l0,0l0,0l0,0l0,0l0,0l0,0l0,0l0,0l0,0
			l0,0l0,0l0,0l0,0l0,0l0,0l0,0l0,0l0,0l0,0l0,0l0,0l0,0l0,0l0,0l0,0l0,0l0,0l0,0l0,0l0,0l0,0l0,0l0,0l0,0l0,0l0,0l0,0l0,0l0,0l0,0
			l0,0l0,0l0,0l0,0l0,0l0,0l0,0l0,0l0,0l0,0l0,0C74.2,22.5,74.8,23,74.9,23.1z"/>
		<path class="st7" d="M67.9,29.3L67.9,29.3c0.6,0.5,1.3,0.7,2,0.7s1.3-0.3,2-0.7l0,0c0.3-0.2,0.7-0.2,0.9,0.1
			c0.2,0.3,0.2,0.7-0.1,0.9c-0.9,0.7-1.8,1-2.8,1c-0.9,0-1.9-0.3-2.8-1c-0.3-0.2-0.3-0.6-0.1-0.9C67.2,29.2,67.6,29.1,67.9,29.3z"/>
		<path class="st7" d="M60.2,24.7v-0.1l-0.1-0.1l0,0l0,0l0,0l0,0l0,0c-0.3-0.2-0.5-0.4-0.8-0.7c-0.2-0.3-0.4-0.7-0.6-1.3l0,0
			c-0.3-1.1-0.2-1.8-0.1-2.3s0.4-0.8,0.7-1l0,0c0.5-0.4,1.2-0.3,1.8,0.1"/>
		<path class="st7" d="M78.7,19.2c0.6-0.4,1.3-0.4,1.8-0.1l0,0c0.3,0.2,0.5,0.5,0.7,1s0.2,1.2-0.1,2.3l0,0c-0.2,0.6-0.4,1-0.6,1.3
			s-0.5,0.5-0.7,0.7l0,0l-0.1,0.1l-0.1,0.1v0.1"/>
		<path class="st7" d="M78.5,20.1"/>
		<path class="st7" d="M59,30.1c0.5,0.9,0.8,1.3,2,1.3c1,0,1.3,0.1,1.8-0.7 M59.2,30.1c-1.1,0.4-2.7-0.9-2.4-1.8"/>
		<path class="st7" d="M79,31.4c1.1,0,2.1-0.7,2.7-1.6l0.1-0.1h0.1c1.3-0.4,2.2-1.6,2.2-3c0-0.1,0-0.2,0-0.3v-0.3l0.2-0.1
			c1.1-0.5,1.9-1.6,1.9-2.8c0-0.5-0.1-1-0.3-1.4l-0.2-0.3l0.3-0.2c0.8-0.6,1.4-1.5,1.4-2.6c0-0.8-0.3-1.5-0.8-2.1l-0.2-0.2l0.1-0.2
			c0.3-0.5,0.4-1,0.4-1.6c0-1.3-0.8-2.4-1.9-2.9l-0.4-0.1l0.1-0.3c0.1-0.2,0.1-0.5,0.1-0.8c0-1.6-1.2-2.9-2.9-3.1h-0.3V7.1
			c0-1.6-1.4-3-3.1-3.1c-0.3,0-0.5,0-0.8,0.1l-0.3,0.1l-0.1-0.3c-0.5-1-1.6-1.8-2.8-1.8c-0.5,0-0.9,0.1-1.3,0.3l-0.3,0.2l-0.2-0.3
			c-0.6-0.9-1.6-1.5-2.7-1.5l0,0l0,0c0,0,0,0-0.1,0c0,0,0,0-0.1,0l0,0c0,0,0,0-0.1,0c-1.1,0-2.1,0.6-2.6,1.5l-0.2,0.3l-0.3-0.2
			c-0.4-0.2-0.9-0.3-1.4-0.3c-1.2,0-2.3,0.8-2.8,1.8l-0.1,0.3L62,4.1C61.7,4,61.5,4,61.2,4c-1.7,0-3,1.4-3.1,3.1v0.3h-0.3
			c-1,0.1-1.8,0.6-2.4,1.4l0,0c-0.2,0.3-0.1,0.7,0.2,0.9l0,0c0.4,0.2,0.8,0.1,1-0.2 M77.7,29.5L77.7,29.5 M69.8,2.1L69.8,2.1
			L69.8,2.1"/>
		<path class="st7" d="M32.5,25.5v0.1 M32.5,25.5L32.5,25.5 M32.5,25.5L32.5,25.5 M32.4,25.4c-0.1,0-0.1-0.1-0.2-0.1 M32.4,25.4
			l-0.2-0.1 M32.2,25.2c-0.2-0.2-0.5-0.4-0.8-0.7c-0.3-0.3-0.6-0.9-0.7-1.6c-0.3-1.2-0.3-2.1-0.1-2.7s0.5-0.9,0.8-1.1"/>
		<path class="st7" d="M55.2,25.6v-0.1l0.1-0.1c0,0,0.1-0.1,0.2-0.1 M56.4,19.1l0.2-0.3L56.4,19.1c0.3,0.2,0.6,0.5,0.8,1.1
			c0.2,0.6,0.2,1.4-0.1,2.7c-0.2,0.8-0.5,1.3-0.7,1.6c-0.3,0.3-0.6,0.5-0.8,0.7 M55.5,25.2L55.5,25.2L55.5,25.2"/>
		<path class="st7" d="M55.2,25.5L55.2,25.5c-1.1,7.1-5.9,12.2-11.3,12.2s-10.3-5-11.3-12.2l0,0"/>
		<path class="st7" d="M54.7,24.8"/>
		<path class="st7" d="M41.6,25h-2.5c-0.4,0-0.7-0.3-0.7-0.7c0-0.4,0.3-0.7,0.7-0.7h2.5c0.4,0,0.7,0.3,0.7,0.7
			C42.2,24.7,41.9,25,41.6,25z"/>
		<path class="st7" d="M49.4,25h-2.5c-0.4,0-0.7-0.3-0.7-0.7c0-0.4,0.3-0.7,0.7-0.7h2.5c0.4,0,0.7,0.3,0.7,0.7
			C50.1,24.7,49.8,25,49.4,25z"/>
		<path class="st7" d="M40.7,32.3L40.7,32.3c-0.3-0.2-0.3-0.6-0.1-0.9l0,0c0.2-0.3,0.6-0.3,0.9-0.1l0,0c0.8,0.6,1.6,0.9,2.4,0.9
			s1.6-0.3,2.4-0.9l0,0c0.3-0.2,0.7-0.2,0.9,0.1c0.2,0.3,0.2,0.7-0.1,0.9c-1,0.8-2.1,1.2-3.2,1.2C42.8,33.5,41.7,33.1,40.7,32.3z"/>
		<path class="st7" d="M30.9,58.1c-0.4,0-0.7-0.3-0.7-0.7V50c0-0.4,0.3-0.7,0.7-0.7s0.7,0.3,0.7,0.7v7.4
			C31.6,57.8,31.3,58.1,30.9,58.1z"/>
		<path class="st7" d="M51.6,43.8"/>
		<path class="st7" d="M43.1,39.8c0.2-0.3,0.6-0.5,0.9-0.3l0,0l5.9,3l0.5,0.3l0.1-0.6l0.5-5l0,0c0-0.4,0.4-0.6,0.7-0.6"/>
		<path class="st7" d="M36,36.6c0.4,0,0.7,0.2,0.7,0.6l0,0l0.5,5l0.1,0.6l0.5-0.3l5.9-3l0,0c0.3-0.2,0.7,0,0.9,0.3"/>
		<path class="st7" d="M56.8,62.5c-4.3,1.6-8.8,2.4-13.4,2.4c-7.5,0-14.8-2.2-21.1-6.4"/>
		<path class="st7" d="M60.6,19.2L60.6,19.2c0.3-0.1,0.7-0.5,1.1-1.1c0.4-0.8,0.2-1.7,0.1-2c-0.1-0.2,0-0.5,0.1-0.6
			c0.2-0.2,0.4-0.3,0.6-0.2c0.2,0,0.9,0.1,1.4-0.3c0.5-0.3,0.7-0.8,0.8-1.2c0.1-0.2,0.1-0.4,0.1-0.5s0-0.2,0-0.2l0,0l0,0
			c0-0.3,0.2-0.6,0.4-0.6l0,0l0,0c0.3-0.1,0.6,0,0.8,0.2c0.2,0.2,0.6,0.7,1.4,0.9c1.2,0.2,2-0.5,2.1-0.6l0,0l0,0l0,0
			c0.2-0.1,0.4-0.2,0.6-0.2l0,0c0.2,0,0.4,0.2,0.5,0.4c0.3,0.7,1.1,1.1,1.8,0.9l-0.1-0.4l0.1,0.4c0.7-0.1,1.2-0.7,1.3-1.4l0,0
			c0.1-0.3,0.3-0.6,0.7-0.6c0.3,0,0.6,0.3,0.6,0.6l0,0l0,0l0,0c0,0,0,0,0,0.1c0,0,0,0.1,0,0.2c0,0.1,0.1,0.3,0.2,0.5
			c0.2,0.4,0.5,0.9,1,1.2l0,0c0.7,0.4,1.4,0.2,1.6,0.2l-0.1-0.4l0.1,0.4c0.3-0.1,0.5,0,0.7,0.2s0.2,0.5,0.1,0.7l0,0
			c0,0-0.2,0.4-0.3,0.9c-0.1,0.5-0.2,1.2,0.2,1.8l0,0c0.2,0.3,0.4,0.5,0.7,0.7"/>
		<path class="st7" d="M22.5,52.9L22.5,52.9C22.4,52.9,22.4,52.9,22.5,52.9L22.5,52.9L22.5,52.9c-0.4,0-0.7-0.3-0.7-0.7l0,0
			c0.5-7.8,6.3-14.2,14-15.5h0.1l0,0l0,0H36l0,0l0,0c0.4-0.1,0.7,0.2,0.8,0.6 M21.4,52.1L21.4,52.1L21.4,52.1z"/>
		<path class="st7" d="M30.5,58L30.5,58L30.5,58z M30.5,58L30.5,58L30.5,58z M30.9,58.2L30.9,58.2L30.9,58.2L30.9,58.2z M30.9,58.2
			L30.9,58.2L30.9,58.2L30.9,58.2z M52.5,59.5c-2.8,0.8-5.8,1.2-8.8,1.2l0,0h-0.1c-4.4,0-8.8-0.9-12.8-2.6l0,0l0,0
			c-0.1,0-0.1-0.1-0.2-0.1l0,0h-0.1l0,0l0,0l0,0l0,0c-2.8-1.2-5.5-2.8-7.9-4.8c-0.2-0.1-0.3-0.3-0.5-0.4l0,0l0,0l0,0l0,0l0,0l0,0
			l0,0L22,52.7l0,0l0,0l0,0l0,0l0,0l0,0l0,0l0,0c0,0,0,0,0-0.1l0,0l0,0l0,0l0,0l0,0c0,0,0,0,0-0.1l0,0l0,0 M22,51.8L22,51.8L22,51.8
			z M21.8,52.3L21.8,52.3L21.8,52.3z"/>
		<path class="st7" d="M51.2,37.9"/>
		<path class="st7" d="M51.2,37.9L51.2,37.9c-0.2,0-0.4-0.1-0.5-0.3l0,0l0,0c-0.1-0.1-0.1-0.3-0.1-0.4c0-0.4,0.4-0.6,0.7-0.6
			c0.1,0,0.2,0,0.2,0l0,0l0,0c0,0,0,0,0.1,0c1.6,0.3,3.1,0.8,4.5,1.4c0.2,0.1,0.5,0.2,0.7,0.4l0,0l0,0c0.4,0.2,0.8,0.4,1.1,0.7l0,0
			c1.2,0.8,2.2,1.6,3.2,2.6c-0.1,0.3-0.2,0.7-0.3,1l0,0l0,0c0,0.2-0.1,0.3-0.1,0.5"/>
		<path class="st8" d="M56.8,56.2C56.7,56.1,56.7,56.1,56.8,56.2"/>
		<path class="st8" d="M57.4,57.3L57.4,57.3C57.5,57.3,57.5,57.2,57.4,57.3 M57.9,58.6"/>
		<path class="st9" d="M69.2,67.5c-0.7,0-1.3-0.2-1.9-0.6s-1-1-1.2-1.7l0,0l0,0C66,64.9,66,64.6,66,64.3v-6v-0.8h-0.8h-6
			c-1.8,0-3.2-1.4-3.2-3.2c0-0.9,0.4-1.7,0.9-2.2c0.6-0.6,1.4-0.9,2.3-0.9h6h0.8v-0.8v-6c0,0,0-0.1,0-0.2l0,0c0-0.2,0-0.3,0.1-0.4
			l0,0l0,0c0.1-0.6,0.4-1.2,0.8-1.6c0.6-0.6,1.4-1,2.3-1s1.7,0.4,2.3,0.9l0,0c0.6,0.6,0.9,1.4,0.9,2.2v6v0.8h0.8h6
			c1.8,0,3.2,1.4,3.2,3.2c0,1.7-1.4,3.2-3.2,3.2c0,0-6,0-6,0h-0.8v0.8v6C72.4,67.3,70.1,67.5,69.2,67.5z"/>
	</g>
</g>
</svg>
