<?xml version="1.0" encoding="utf-8"?>
<!-- Generator: Adobe Illustrator 25.4.1, SVG Export Plug-In . SVG Version: 6.00 Build 0)  -->
<svg version="1.1" id="Layer_1" xmlns="http://www.w3.org/2000/svg" xmlns:xlink="http://www.w3.org/1999/xlink" x="0px" y="0px"
	 viewBox="0 0 77 80.1" style="enable-background:new 0 0 77 80.1;" xml:space="preserve">
<style type="text/css">
	.st0{fill:#484751;}
</style>
<path class="st0" d="M6.5,49c-1.4-9.7-1.1-19.5-1.9-29.2c0-0.5-0.8-0.4-0.8,0.1C3.9,25.2,4,30.4,4.2,35.7c0.2,4.5-0.1,9.2,1.3,13.5
	C5.7,49.8,6.6,49.6,6.5,49z"/>
<path class="st0" d="M6,53.3c0.5,2,0.1,4.1,0.5,6.1c0.1,0.5,0.8,0.6,0.9,0c0.1-2.1-0.1-4.4-0.8-6.3C6.5,52.6,5.9,52.9,6,53.3z"/>
<path class="st0" d="M7.8,70.4c0.1,1.4,0.3,2.7,0.5,4.1c0.1,0.5,0.8,0.6,0.9,0c0.2-1.4-0.3-2.8-0.5-4.2C8.6,69.8,7.7,69.8,7.8,70.4z
	"/>
<path class="st0" d="M17.4,30.5c-2.3,3.2-2.9,8.4-1.9,12.2c1.7,6.5,7.6,10,13.9,10.8c0,0.1,0.1,0.1,0.1,0.2c0.3,0.3,0.8,0.2,1-0.1
	c1.1,0.1,2.2,0.1,3.3,0c7.2-0.7,10.3-9,10.6-15.2c0.2-3.8-0.8-6.9-3.5-9.7c-3.1-3.2-6.5-3.6-10.3-4c-0.7-0.3-1.4-0.5-2.1-0.7
	c-0.1,0-0.2,0-0.3,0c-0.1,0-0.2,0-0.3,0C23.7,25.3,20.1,26.8,17.4,30.5z M17.3,33.2c0.9,0.1,1.9,0.1,2.8,0.1c-0.6,2.2-0.9,4.5-1,6.7
	c-1,0-2-0.1-2.9-0.3C16.1,37.5,16.5,35.2,17.3,33.2z M18.7,46.7c-0.7-0.8-1.3-1.8-1.7-2.8c-0.4-1-0.7-2.1-0.8-3.3
	c0.8,0.4,1.8,0.5,2.9,0.5c0.1,2,0.5,3.9,1.4,5.5C19.9,46.7,19.3,46.7,18.7,46.7z M34.4,38.2c-0.1-2-0.4-4-1-5.9
	c1.2-0.1,2.4-0.1,3.6-0.2c0.9,1.8,1.3,3.8,1.5,5.9C37.2,38.1,35.8,38.2,34.4,38.2z M38.5,39.3c0,0.6,0,1.2-0.1,1.9
	c-0.1,1.3-0.5,2.7-1,4.1c-1.2,0.3-2.4,0.5-3.6,0.7c0.4-2,0.6-4.2,0.6-6.4C35.8,39.5,37.2,39.4,38.5,39.3z M36.7,46.9
	c-1,1.8-2.3,3.3-4,4c-0.1,0.1-0.3,0.1-0.5,0.2c0.5-1.1,1-2.3,1.4-3.6C34.5,47.4,35.6,47.2,36.7,46.9z M32.7,46.1
	c-1.9,0.2-3.8,0.4-5.7,0.4c-0.7-2-1.1-4.2-1.3-6.3c2.6-0.3,5.1-0.5,7.7-0.6C33.4,41.8,33.1,44,32.7,46.1z M26.6,38.8
	c-0.4,0.1-0.7,0.1-1.1,0.2c-0.1-2.1,0-4.2,0.4-6.3c0.6-0.1,1.3-0.1,1.9-0.2c1.5-0.1,3-0.2,4.4-0.3c0.5,1.9,0.8,3.9,1,5.9
	C31.1,38.3,28.8,38.5,26.6,38.8z M25.8,46.6c-1.3,0-2.7,0.1-4,0.1c-0.9-1.6-1.5-3.6-1.6-5.6c1.6-0.2,3.2-0.6,4.4-0.8
	C24.7,42.5,25.1,44.6,25.8,46.6z M24.5,39.2c-1.4,0.3-2.9,0.5-4.3,0.6c0-2.2,0.4-4.5,1.2-6.7c1.2-0.1,2.4-0.2,3.5-0.3
	C24.5,35,24.4,37.1,24.5,39.2z M19.6,47.7c0.5,0.1,1,0.1,1.6,0.2c0.8,1.1,1.7,2.1,2.8,2.9C22.3,50,20.8,48.9,19.6,47.7z M22.7,48
	c1.2,0.1,2.4,0.1,3.7,0.1c0.5,1.1,1,2.2,1.6,3.2C25.7,50.8,23.9,49.6,22.7,48z M30.5,52C30.4,52,30.4,52,30.5,52
	c-0.1,0.2-0.2,0.3-0.3,0.4c0,0-0.1,0-0.1,0c0.1-0.3,0-0.7-0.4-0.7c-0.1,0-0.1,0-0.2,0c-0.8-1.1-1.4-2.3-1.9-3.6
	c1.6,0,3.1-0.2,4.7-0.4C31.8,49.3,31.2,50.7,30.5,52z M33.7,52.2c-0.8,0.1-1.5,0.2-2.3,0.2c0.6-0.3,2.1-0.6,2.4-0.8
	c1.3-0.8,2.4-1.9,3.2-3.2c0.4-0.6,0.7-1.3,1-1.9c1.3-0.4,2.6-0.9,3.8-1.4C40.3,48.6,37.7,51.6,33.7,52.2z M41.8,31.6
	c1,1.7,1.5,3.7,1.5,5.9c0,2-0.3,4.2-1,6.2c-0.1,0-0.1,0-0.2,0c-1.1,0.4-2.3,0.8-3.4,1.1c0.6-1.8,0.9-3.8,1.1-5.8
	c0.6-0.1,1.3-0.2,1.9-0.3c0.7-0.1,0.6-1.2-0.1-1.1c-0.6,0.1-1.2,0.1-1.8,0.2c0-2.1-0.5-4.1-1.3-5.9c1,0,2-0.1,3-0.1
	C41.6,31.9,41.7,31.8,41.8,31.6z M38.7,28.3c1.1,0.7,1.9,1.6,2.6,2.5c-1.1,0.1-2.2,0.1-3.4,0.2c-1.1-1.9-2.7-3.6-4.5-4.9
	C35.2,26.5,36.9,27.1,38.7,28.3z M36.5,31.1c-1.1,0.1-2.2,0.1-3.3,0.2c-0.7-2.1-1.6-3.9-2.8-5.5C33.1,27,35.2,28.8,36.5,31.1z
	 M28.7,25.6c0.1,0,0.1,0,0.2,0c1.4,1.6,2.5,3.5,3.2,5.8c-0.6,0-1.2,0.1-1.8,0.1c-1.4,0.1-2.7,0.2-4.1,0.3
	C26.7,29.6,27.5,27.5,28.7,25.6z M27.2,25.5c0.2,0,0.3,0,0.4,0.1c-1.2,1.9-2.1,4.1-2.6,6.5c-1.1,0.1-2.2,0.2-3.4,0.3
	C23,29.5,24.8,27,27.2,25.5z M24.3,26.4c-1.8,1.5-3,3.7-3.8,6c-0.9,0-1.8,0-2.8,0c0.1-0.1,0.1-0.2,0.2-0.3
	C19.1,29.2,21.6,27.6,24.3,26.4z"/>
<path class="st0" d="M12.5,62.3c-1.2-0.4-2.7,0.3-3.4,1.3c-0.1,0.1-0.2,0.2-0.2,0.3c0,0,0,0,0,0c-0.7,1.5,0.1,3.4,0.4,4.8
	c0.1,0.5,1,0.3,1-0.2c-0.1-0.8-0.1-1.7-0.2-2.5c0.1,0,0.1,0.1,0.2,0.1C12.4,66.8,15.1,63.2,12.5,62.3z M12.3,64.2
	c-0.4,0.8-1.2,0.9-2,1.1c-0.2,0-0.3,0.1-0.4,0.2c0-0.3-0.1-0.5-0.2-0.8c0.2-0.7,0.7-1.2,1.8-1.4C12.3,63.2,12.6,63.6,12.3,64.2z"/>
<path class="st0" d="M16.1,61.5c-1.6,1.6-1.6,4.2-2.1,6.3c-0.2,0.7,0.9,0.9,1.1,0.2c0.2-0.6,0.3-1.2,0.4-1.9
	c0.7,0.1,1.6,0.3,2.3,0.1c0.1,0.4,0.2,0.8,0.3,1.2c0.1,0.7,1.3,0.6,1.1-0.1c-0.3-2.1-1.1-4-2.2-5.8C16.8,61.2,16.4,61.3,16.1,61.5z
	 M16.9,65.1c-0.4,0-0.8,0-1.2,0c0.2-0.8,0.4-1.6,0.8-2.2c0.4,0.7,0.7,1.4,0.9,2.2C17.2,65.1,17.1,65.1,16.9,65.1z"/>
<path class="st0" d="M23.7,65.1c-0.5-0.6-1.2-1.1-1.8-1.6c-0.1-0.1-0.2-0.2-0.3-0.3c-0.2-0.2-0.1-0.1,0-0.2c0.4-0.6,1.4-0.6,2.1-0.4
	c0.4,0.1,0.6-0.5,0.2-0.7C23,61.2,21.8,61.2,21,62c-0.7,0.7-0.7,1.3,0,1.9c0.5,0.6,1.2,1.1,1.8,1.6c0.1,0.1,0.5,0.5,0.5,0.6
	c0,0.1-1.1,0.2-1.3,0.2c-0.7,0.1-0.6,1,0.1,1.1c0.7,0,1.9-0.1,2.2-0.8C24.5,66.1,24.1,65.5,23.7,65.1z"/>
<path class="st0" d="M27.6,63.3c-0.3-0.2-0.5-0.3-0.8-0.5c0,0,1.7-1.4,2-1.6c0.4-0.2,0.1-0.8-0.3-0.6c-1.1,0.4-2.4,1-2.7,2.3
	c-0.1,0.7,0.6,1,1,1.4c0.8,0.5,1.5,1,2.2,1.7c0.3,0.3,0.3,0.5,0.4,0.4c-0.6,0.3-1.5,0.1-2.1,0.1c-0.6,0-0.7,1-0.1,1.1
	c0.9,0.2,2.4,0.3,3.1-0.4c0.6-0.6-0.1-1.5-0.5-1.9C29.2,64.4,28.3,63.8,27.6,63.3z"/>
<path class="st0" d="M33.2,60.7c-0.3,0-0.6,0.1-0.8,0.2c-0.2-0.2-0.6-0.2-0.7,0.1c-0.1,0.4-0.2,0.8-0.3,1.2
	c-0.6,1.5-0.5,3.8,0.3,4.6c0.4,0.4,1.1,0.2,1.1-0.4c-0.1-0.6-0.1-1.1-0.2-1.7c0,0,0.1,0.1,0.1,0.1C35.7,66.1,36.4,60.6,33.2,60.7z
	 M34.1,63.4c-0.2,0.4-0.8,0.4-1.1,0.4c-0.2,0-0.3,0.1-0.4,0.2c0-0.4,0-0.7-0.1-1.1c0.1-0.2,0.1-0.3,0.2-0.5c0.3-0.7,0.9-0.7,1.3-0.1
	C34.2,62.7,34.2,63.1,34.1,63.4z"/>
<path class="st0" d="M40.6,60.5c0-0.3-0.2-0.5-0.5-0.5c-2.2,0-3.4,2.8-3,4.7c0.3,1.5,1.7,2.9,3.2,2c1.2-0.7,1.7-2.5,1.7-3.8
	C42.1,62.1,41.4,60.7,40.6,60.5z M39.9,65.5c-0.7,0.8-1.4-0.2-1.7-0.8c-0.4-1,0.1-2.7,1.1-3.4c0,0.1,0.1,0.3,0.2,0.3
	c0.3,0.2,0.7,0.1,1,0.4c0.2,0.3,0.2,0.7,0.2,1.1C40.9,63.9,40.5,64.8,39.9,65.5z"/>
<path class="st0" d="M44.5,63.4c-0.5,0.4-0.2,1,0.4,1c1,0,1.6,0.8,2.4,1.3c0.5,0.3,1-0.4,0.7-0.8c-0.5-0.6-1.3-1.2-2.1-1.4
	c0.3-0.5,0.4-1.1,0.3-1.7c-0.1-0.9-0.8-1.5-1.7-1.3c-0.4,0.1-0.6,0.2-0.9,0.4c-0.1-0.2-0.2-0.4-0.4-0.6c-0.3-0.3-0.8-0.1-0.7,0.4
	c0.2,0.5,0.3,1,0.3,1.5c-0.3,1.3,0.2,3.1,0.5,4.2c0.2,0.7,1.2,0.3,1-0.4c-0.3-1.2-0.2-2.5-0.4-3.8c0.2-0.5,1-1.1,1.1-0.3
	C45.3,62.5,45,63,44.5,63.4z"/>
<path class="st0" d="M48.7,60.3c0.4,0,0.8,0,1.3,0c-0.3,1.5-0.3,3.5,0.6,4.8c0.3,0.5,1.1,0.1,0.9-0.5c-0.5-1.4-0.8-2.8-0.6-4.3
	c0.4,0,0.8-0.1,1.1-0.2c0.5-0.1,0.4-1-0.1-1c-1.1-0.1-2.2,0.2-3.3,0.3C48,59.5,48.1,60.3,48.7,60.3z"/>
<path class="st0" d="M51.6,22.4c-0.3-1.8-0.7-3.5-1.1-5.2c-0.1-0.5-0.8-0.4-0.7,0.1c0.3,1.8,0.5,3.6,0.9,5.3
	C50.8,23.1,51.6,22.9,51.6,22.4z"/>
<path class="st0" d="M53.1,32.9c-0.1-1.7-0.5-3.3-0.8-5c-0.1-0.4-0.8-0.2-0.7,0.2c0.3,1.6,0.5,3.2,0.7,4.9
	C52.3,33.5,53.2,33.4,53.1,32.9z"/>
<path class="st0" d="M12.8,18.3c0.4,0,0.8-0.1,1.3-0.1c0.5,0,0.4-0.7-0.1-0.7c-0.4,0-0.8,0.1-1.3,0.1C12.3,17.6,12.4,18.3,12.8,18.3
	z"/>
<path class="st0" d="M75,5.7c-1.4-1.6-4.4-1.6-6.3-1.7c-4.3-0.3-8.5-0.2-12.8-1c-6.8-1.2-13.5-2.2-20.4-2.9
	c-3.9-0.4-9.7-0.7-12.1,3.1c0,0-0.1,0.1-0.1,0.1c-0.4,0.4-0.6,0.8-0.8,1.4c-0.7,2.2-1.1,4.7-1.4,7.1c0.4-0.1,0.8-0.1,1.3-0.1
	c0.3-2.1,0.7-4.1,1.1-6.2c0.7-3.4,6.2-2.6,8.7-2.4c13.1,1,26.1,3.5,39.2,4.5C71.5,7.9,71.6,8,71.8,8c1.7,0.4,1.2,6.8,1.2,7.9
	c-0.1,4.9-0.7,9.8-1.3,14.7c-1.3,10.4-3.1,20.7-4.8,31.1c-0.3,1.5-0.5,3.1-0.8,4.6c-0.1,0.5-0.2,1-0.2,1.6c-0.2,1.1-3.4,0.3-4.7,0.2
	c-1.4-0.1-2.8-0.3-4.2-0.5c0-0.4,0-0.8-0.1-1.3c2.3,0.7,5.2,1.8,7.2,0.3c0.5-0.4-0.1-1-0.5-0.7c-2,1.2-4.7-0.1-6.7-0.5
	c-0.1-2.8-0.2-5.6-0.3-8.4c0,0,0.1,0,0.1,0c1,0.2,1.4,1.1,2.1,1.8c0.4,0.4,1.1-0.2,0.8-0.7c-0.4-0.7-1-1.4-1.7-1.8
	c0.4-0.4,0.6-1,0.7-1.5c0.1-0.9-0.5-1.7-1.4-1.7c-0.2,0-0.5,0.1-0.7,0.1c-0.1-4-0.2-8.1-0.4-12.1c2.7-2.6,4.5-6.4,5.4-9.7
	c1-3.7,0.5-7-1.6-10.2c-1.4-2.2-3.2-3.5-5.1-4.4c0-0.7-0.1-1.5-0.1-2.2c-0.1-1.6-0.5-3.3-1.8-4.4c-1.7-1.3-4.7-0.7-6.5-0.4
	c-4.3,0.6-8.4,1.5-12.7,1.6c-2.8,0-5.7,0.1-8.5,0.3c0.3-2.1,0.6-4.2,0.9-6.3C26,5,25.2,4.9,25.1,5.4c-0.4,2.1-0.8,4.3-1.2,6.4
	c-3.7,0.2-7.3,0.5-11,0.9C9,13.1,3.4,13.9,1.7,18.1c0,0.1,0,0.1,0,0.2c-0.3,0.4-0.5,0.9-0.5,1.5c-0.4,3.3,0,6.9,0.3,10.2
	c0.7,9,2.1,18,3.1,27c0.6,5.7-0.2,12,1.1,17.5c1.2,4.8,4.7,5.7,9.3,5.5c6-0.3,11.7-2.6,17.7-3.2c4.5-0.5,9.1-0.6,13.6-0.9
	c3.7-0.3,7.2-0.3,10.7-1.4c0.3-0.1,0.4-0.4,0.4-0.6c-0.1-1.6-0.2-3.3-0.3-4.9c3.2,0.4,6.2,0.9,9.5,0.5c0.3,0,0.5-0.3,0.5-0.5
	c1.4-11.6,3.9-23.1,5.5-34.7c0.5-3.8,1-7.5,1.3-11.3c0.1-0.1,0.2-0.2,0.2-0.3c0.5-4.1,1.4-8.1,1.9-12.2C76.1,8.7,76.1,7.1,75,5.7z
	 M55.9,39.6c0-0.3,0-0.5,0-0.8c0-0.2,0-0.5-0.1-0.8c0.5-0.1,1.1-0.2,1.6-0.3C57,38.3,56.5,39,55.9,39.6z M60.1,24.5
	c0.7,1.9,0.7,3.9,0.3,6.1c-0.4,2-1.1,4.1-2.2,5.9c-0.1,0-0.1,0-0.2,0c-0.8,0.1-1.5,0.2-2.2,0.3c-0.1-0.8-0.1-1.6-0.2-2.4
	c0.4-1,0.7-1.9,1-3c0.7,0.1,1.3,0.1,2,0.1c0.7,0,0.8-1,0.1-1.1c-0.6-0.1-1.2-0.1-1.8-0.2c0.4-2.1,0.3-4.2-0.1-6.1
	c1,0.2,2,0.3,2.9,0.5C59.8,24.6,60,24.6,60.1,24.5z M55.2,30c-0.1-0.9-0.2-1.7-0.3-2.6c0.1-0.1,0.1-0.2,0.1-0.4
	C55,26,55,24.9,54.9,23.9c0.1,0,0.3,0,0.4,0.1c0.5,1.9,0.6,4,0.3,6.1C55.5,30.1,55.3,30,55.2,30z M55.4,31.3c0,0,0,0.1,0,0.1
	C55.3,31.4,55.3,31.3,55.4,31.3C55.3,31.3,55.4,31.3,55.4,31.3z M54.9,22.9c0-0.1,0-0.2,0-0.3c0,0.1,0.1,0.2,0.1,0.3
	C55,22.9,54.9,22.9,54.9,22.9z M57.7,20.6c0.9,0.9,1.6,1.9,2.1,3c-1.1-0.2-2.2-0.3-3.3-0.5c-0.4-1.2-0.9-2.3-1.6-3.3
	c0-0.5,0-1-0.1-1.5C55.8,18.9,56.7,19.6,57.7,20.6z M15.4,13.6c5.3-0.4,10.4-1,15.7-0.9c3.2,0,6.3-0.1,9.5-0.6
	c3.3-0.5,6.8-1.6,10.2-1.2c2.7,0.3,2.6,3.5,2.7,5.6c0,0,0,0,0,0c0,0-0.1,0-0.1-0.1c0.1,0.2,0.1,0.5,0.2,0.7c0,0.4,0,0.8,0.1,1.2
	c-0.3-1.9-0.9-4.8-2.4-5.9c-0.1-0.2-0.2-0.3-0.4-0.3c0,0-0.1,0-0.1,0c-0.2-0.1-0.5-0.2-0.7-0.2c-0.2,0-0.4,0.1-0.4,0.2
	C41,12.5,32.6,13.3,24.1,14c-3.9,0.3-7.8,0.7-11.7,0.9c-2.8,0.2-5.9,0.5-8.5,1.7C7,14.1,11.7,13.9,15.4,13.6z M51.5,74.4
	c-8.8,1.1-17.8,0.3-26.5,2.4c-3.4,0.8-6.7,1.7-10.2,2c-1.8,0.2-3.6,0.1-5.3-0.6c-2.2-0.8-2.7-3.4-3-5.5c-0.5-3.2-0.2-6.5-0.3-9.6
	c-0.1-5-0.9-10-1.5-15C4,41.6,3,35.2,2.6,28.7c-0.2-2.7-0.2-5.5-0.2-8.3c0-3.4,5.6-3.8,8-4.1c13-1.6,26.3-1.7,39.3-3.3
	c0.1,0.1,0.2,0.2,0.4,0.2c1.8,0.1,2.5,6.5,2.7,7.5c0.8,4.8,1.3,9.8,1.6,14.7c0.8,10.5,1.1,20.9,1.4,31.4c0.1,1.6,0.1,3.1,0.2,4.7
	c0,0.5,0,1.1,0.1,1.6C56.1,74.3,52.7,74.2,51.5,74.4z M56.5,54.7c0.4-0.4,1-0.6,0.9,0.1c0,0.6-0.4,1.1-0.9,1.3
	C56.5,55.6,56.5,55.1,56.5,54.7z M74.5,11.8c-0.1,0.6-0.2,1.3-0.3,1.9c0-1.9,0-4.9-1.2-6.3c0-0.2-0.1-0.3-0.3-0.3c0,0-0.1,0-0.1,0
	c-0.2-0.1-0.4-0.2-0.7-0.3c-0.2-0.1-0.4,0-0.5,0.1c-8.4-1.3-16.8-2.3-25.2-3.2c-3.9-0.4-7.7-0.8-11.6-1.4c-2.8-0.4-5.9-0.7-8.7,0
	c3.4-1.9,8.1-1.2,11.8-0.8C43,2.2,48.2,2.6,53.4,3.7c3.1,0.7,6.2,1.2,9.4,1.3c3.4,0.1,7-0.2,10.2,0.8C75.6,6.6,74.8,9.8,74.5,11.8z"
	/>
<path class="st0" d="M64.5,54.4c0.5,0,0.6-0.9,0.1-1c-1-0.3-2.2-0.2-3.3-0.3c-0.6,0-0.7,0.8-0.1,0.9c0.4,0.1,0.8,0.2,1.2,0.2
	c-0.6,1.5-1,3.4-0.4,4.8c0.2,0.6,1.1,0.3,1-0.3c-0.2-1.5-0.2-2.9,0.3-4.3C63.7,54.4,64.1,54.4,64.5,54.4z"/>
<path class="st0" d="M71.5,17.3c0.1-1.8,0-3.5,0-5.3c0-0.5-0.7-0.6-0.7-0.1c0,1.8-0.2,3.6-0.2,5.4C70.6,17.9,71.4,17.8,71.5,17.3z"
	/>
<path class="st0" d="M70.3,22.9c-0.1,1.6-0.1,3.3-0.3,4.9c0,0.5,0.8,0.6,0.8,0.1c0.2-1.7,0.2-3.3,0.2-5
	C71.1,22.4,70.4,22.5,70.3,22.9z"/>
<path class="st0" d="M14.4,37.2c0.7-6,3.3-10.8,9.1-13.1c0.4-0.2,0.3-0.8-0.2-0.7c-6.1,1.5-9.7,7.7-9.7,13.8
	C13.6,37.8,14.3,37.7,14.4,37.2z"/>
<path class="st0" d="M13.1,44.4c0.7,2,1.6,3.9,2.9,5.5c0.3,0.4,0.9-0.1,0.7-0.5c-1-1.7-2-3.4-2.7-5.2C13.8,43.6,12.9,43.8,13.1,44.4
	z"/>
<path class="st0" d="M40.7,52.5c-2.7,1.3-5.3,2.4-8.2,2.8c-0.4,0.1-0.3,0.8,0.1,0.8c3.1-0.2,6-1.1,8.6-2.8
	C41.7,53,41.2,52.2,40.7,52.5z"/>
<path class="st0" d="M45,47.8c0.7-1.6,1.2-3.2,1.6-4.9c0.1-0.5-0.7-0.7-0.8-0.2c-0.4,1.7-0.9,3.3-1.6,4.9
	C44.1,48.1,44.8,48.3,45,47.8z"/>
<path class="st0" d="M36.3,23c3.6,1,5.6,4.6,8.5,6.7c0.5,0.3,0.9-0.4,0.6-0.7c-2.3-2.5-5.3-6.3-9-6.7C36,22.2,35.9,22.9,36.3,23z"/>
<path class="st0" d="M14.6,27.7c0.2-0.9,0.7-1.7,1.3-2.3c0.3-0.4-0.1-1-0.5-0.7c-1,0.7-1.6,1.7-1.7,2.9
	C13.6,28.1,14.5,28.2,14.6,27.7z"/>
<path class="st0" d="M47.3,37.6c0.2,0.5,0.9,0.3,0.8-0.2c-0.1-0.4-0.2-0.8-0.4-1.2c-0.2-0.5-1-0.3-0.8,0.2
	C47,36.8,47.1,37.2,47.3,37.6z"/>
</svg>
