<?xml version="1.0" encoding="utf-8"?>
<!-- Generator: Adobe Illustrator 25.4.1, SVG Export Plug-In . SVG Version: 6.00 Build 0)  -->
<svg version="1.1" id="Layer_1" xmlns="http://www.w3.org/2000/svg" xmlns:xlink="http://www.w3.org/1999/xlink" x="0px" y="0px"
	 viewBox="0 0 84 75.1" style="enable-background:new 0 0 84 75.1;" xml:space="preserve">
<style type="text/css">
	.st0{fill:none;stroke:#484751;}
	.st1{fill-rule:evenodd;clip-rule:evenodd;fill:#FFFFFF;filter:url(#Adobe_OpacityMaskFilter);}
	.st2{mask:url(#path-5-inside-1_00000155113881324440473000000006391202335555989912_);fill:#484751;}
	.st3{fill:#484751;}
</style>
<g>
	<path class="st0" d="M60.9,56.3L60.9,56.3 M62.1,46L62.1,46c1.5-0.8,3.5-2.1,5.2-3.6c1.7-1.5,3.3-3.4,4-5.3
		c0.1-0.2,0.4-0.3,0.5-0.1l9.9,11.5l0,0l0,0c0.9,0.9,1,2.4,0.1,3.3L61.5,70l0,0l0,0c-0.2,0.2-0.6,0.1-0.6-0.2v0l0-13.3c0,0,0,0,0,0
		c0.1-0.1,0.2-0.1,0.3-0.2c0.1-0.1,0.3-0.2,0.4-0.2c0.6-0.4,1.4-0.9,2.1-1.4c0.7-0.6,1.4-1.3,1.7-2.1c0.2-0.4,0.2-0.8,0.1-1.3
		c-0.1-0.5-0.3-0.9-0.7-1.3l0,0l-2.6-2.7l0,0l0,0c-0.2-0.2-0.4-0.5-0.5-0.8c0-0.1,0-0.2,0-0.3C61.8,46.2,61.9,46.1,62.1,46z"/>
	<path class="st0" d="M57,58.5v13c0,0.7-0.2,1.4-0.6,1.8C56,73.8,55.6,74,55.1,74H29c-0.5,0-0.9-0.2-1.3-0.7
		c-0.4-0.5-0.6-1.1-0.6-1.8v-13c0-0.7,0.2-1.4,0.6-1.8c0.4-0.5,0.8-0.7,1.3-0.7h1c0.4,0,0.8,0.2,1.2,0.6c2.9,2.9,7.6,4,11.4,4
		c3.8,0,8.1-1.1,10.9-4c0.4-0.4,0.8-0.6,1.2-0.6h0.4c0.5,0,0.9,0.2,1.3,0.7C56.7,57.1,57,57.8,57,58.5z"/>
	<path class="st0" d="M21.9,46L21.9,46c0.2,0.1,0.3,0.2,0.3,0.3c0,0.1,0,0.2,0,0.3c0,0.2-0.3,0.5-0.5,0.8l0,0L19.1,50l0,0
		c-0.4,0.4-0.6,0.8-0.7,1.3c-0.1,0.5,0,0.9,0.1,1.3c0.3,0.8,1,1.5,1.7,2.1c0.7,0.6,1.5,1.1,2.1,1.4c0.2,0.1,0.3,0.2,0.4,0.2
		c0.1,0.1,0.2,0.1,0.3,0.2c0,0,0,0,0,0l0,13.3v0c0,0.3-0.4,0.5-0.6,0.2l0,0l0,0L2.1,51.7c-0.9-0.9-0.8-2.4,0.1-3.3l0,0l0,0l9.9-11.5
		c0.2-0.2,0.5-0.1,0.5,0.1l0.5-0.2L12.7,37c0.7,1.9,2.3,3.8,4,5.3C18.5,43.9,20.4,45.1,21.9,46z"/>
	<path class="st0" d="M41.5,54.5L41.5,54.5L41.5,54.5c-2.4-0.3-6.2-1.3-8.5-5.3c-0.2-0.4-0.1-0.8,0.2-1.2c0.3-0.3,0.8-0.4,1.3-0.2
		c0.2,0.1,0.5,0.2,0.7,0.3c1.7,0.8,4.1,1.8,6.8,1.9l0,0l0,0c2.8-0.1,5.1-1.1,6.8-1.9c0.3-0.1,0.5-0.2,0.8-0.3l0,0
		c0.5-0.2,1-0.1,1.3,0.2c0.3,0.3,0.4,0.7,0.2,1.2c-2.3,4-6,5-8.5,5.3c-0.2,0-0.4,0-0.6,0c0,0,0,0,0,0C41.8,54.5,41.6,54.5,41.5,54.5
		z"/>
	<defs>
		<filter id="Adobe_OpacityMaskFilter" filterUnits="userSpaceOnUse" x="15.1" y="-0.9" width="54.2" height="18.5">
			<feColorMatrix  type="matrix" values="1 0 0 0 0  0 1 0 0 0  0 0 1 0 0  0 0 0 1 0"/>
		</filter>
	</defs>
	
		<mask maskUnits="userSpaceOnUse" x="15.1" y="-0.9" width="54.2" height="18.5" id="path-5-inside-1_00000155113881324440473000000006391202335555989912_">
		<path class="st1" d="M36,5.4c-1.4-3-5.6-2.9-5.6-2.9c1.3,1.3,1.9,2.4,2,3.3c-2.8-0.4-7.5-0.1-11.9,4.4c-1.3,1.4-3.1,4.1-4.6,6.7
			c9-8.9,20-7,26-1.4c4-3,13-8.9,24.2-0.4c-2.2-4.9-4.9-7.8-4.9-7.8s2.8-0.5,7.3,1.8C66.2,6.4,60,2.6,55.1,1.9
			c2.4-0.8,3.4-1.1,3.4-1.1S42.9-2.7,36,5.4z"/>
	</mask>
	<path class="st2" d="M30.4,2.5l0-1l-2.5,0l1.8,1.7L30.4,2.5z M36,5.4l-0.9,0.4l0.7,1.4l1-1.2L36,5.4z M32.5,5.8l-0.1,1L33.7,7
		l-0.2-1.4L32.5,5.8z M20.6,10.2l0.7,0.7l0,0L20.6,10.2z M15.9,16.8l-0.9-0.5l1.6,1.2L15.9,16.8z M41.9,15.5l-0.7,0.7l0.6,0.6
		l0.7-0.5L41.9,15.5z M66.1,15.1l-0.6,0.8l1.5-1.2L66.1,15.1z M61.2,7.3l-0.2-1l-1.9,0.3L60.5,8L61.2,7.3z M68.6,9.1L68.1,10
		l1.2-1.6L68.6,9.1z M55.1,1.9L54.8,1L55,2.9L55.1,1.9z M58.5,0.8l0.3,1l-0.1-1.9L58.5,0.8z M30.4,2.5c0,1,0,1,0,1c0,0,0,0,0,0
		c0,0,0,0,0,0c0,0,0,0,0,0c0,0,0,0,0,0c0,0,0,0,0,0c0,0,0.1,0,0.1,0c0.1,0,0.2,0,0.4,0c0.4,0,0.9,0.1,1.4,0.3c1.1,0.3,2.2,0.9,2.7,2
		L36.9,5c-0.9-1.9-2.6-2.7-4-3.1c-0.7-0.2-1.3-0.3-1.8-0.3c-0.2,0-0.4,0-0.6,0c-0.1,0-0.1,0-0.2,0c0,0,0,0,0,0c0,0,0,0,0,0
		c0,0,0,0,0,0c0,0,0,0,0,0c0,0,0,0,0,0C30.4,1.5,30.4,1.5,30.4,2.5z M33.5,5.6c-0.2-1.2-0.9-2.5-2.3-3.8l-1.4,1.5
		C31,4.4,31.4,5.3,31.5,6L33.5,5.6z M32.6,4.8c-3.1-0.5-8-0.1-12.8,4.7l1.4,1.4c4.2-4.2,8.5-4.5,11.1-4.1L32.6,4.8z M19.9,9.5
		c-1.4,1.5-3.3,4.3-4.8,6.9l1.7,1c1.5-2.6,3.2-5.2,4.5-6.5L19.9,9.5z M16.6,17.5c8.5-8.5,19-6.6,24.6-1.3l1.4-1.5
		c-6.3-5.9-18-8-27.4,1.4L16.6,17.5z M42.5,16.3c2-1.5,5.1-3.6,9-4.3c3.9-0.7,8.6-0.1,13.9,3.9l1.2-1.6C60.9,9.8,55.6,9.1,51.2,10
		c-4.4,0.8-7.8,3.2-9.8,4.7L42.5,16.3z M67,14.7c-1.1-2.5-2.4-4.5-3.3-5.9c-0.5-0.7-0.9-1.2-1.2-1.6c-0.2-0.2-0.3-0.3-0.4-0.4
		c0,0-0.1-0.1-0.1-0.1c0,0,0,0,0,0c0,0,0,0,0,0c0,0,0,0,0,0c0,0,0,0,0,0c0,0,0,0,0,0c0,0,0,0-0.7,0.7C60.5,8,60.5,8,60.5,8
		c0,0,0,0,0,0c0,0,0,0,0,0c0,0,0,0,0,0c0,0,0,0,0,0c0,0,0,0,0,0c0,0,0,0,0.1,0.1c0.1,0.1,0.2,0.2,0.3,0.4c0.3,0.3,0.7,0.8,1.1,1.5
		c0.9,1.3,2.1,3.2,3.1,5.5L67,14.7z M61.2,7.3c0.2,1,0.2,1,0.2,1c0,0,0,0,0,0c0,0,0,0,0,0c0,0,0,0,0,0c0,0,0,0,0,0c0,0,0,0,0,0
		c0,0,0,0,0.1,0c0.1,0,0.2,0,0.3,0c0.3,0,0.7,0,1.3,0.1c1.2,0.2,2.9,0.6,5,1.7L69,8.2c-2.3-1.2-4.3-1.7-5.7-1.9
		c-0.7-0.1-1.2-0.1-1.6-0.1c-0.2,0-0.3,0-0.5,0c-0.1,0-0.1,0-0.1,0c0,0,0,0,0,0c0,0,0,0,0,0c0,0,0,0,0,0c0,0,0,0,0,0c0,0,0,0,0,0
		C61.1,6.3,61.1,6.3,61.2,7.3z M69.3,8.5C68,7,65.8,5.3,63.3,3.9c-2.5-1.4-5.4-2.6-8-2.9l-0.3,2c2.2,0.3,4.9,1.4,7.3,2.7
		c2.4,1.3,4.4,2.9,5.5,4.1L69.3,8.5z M55.5,2.9c1.2-0.4,2-0.7,2.6-0.9c0.3-0.1,0.5-0.2,0.6-0.2c0.1,0,0.1,0,0.1,0c0,0,0,0,0,0
		c0,0,0,0,0,0c0,0,0,0,0,0c0,0,0,0,0,0c0,0,0,0,0,0c0,0,0,0,0,0c0,0,0,0-0.3-1c-0.3-1-0.3-1-0.3-1c0,0,0,0,0,0c0,0,0,0,0,0
		c0,0,0,0,0,0c0,0,0,0,0,0c0,0,0,0,0,0c0,0,0,0,0,0c0,0-0.1,0-0.2,0c-0.1,0-0.3,0.1-0.6,0.2C56.9,0.3,56,0.6,54.8,1L55.5,2.9z
		 M58.5,0.8c0.2-1,0.2-1,0.2-1c0,0,0,0,0,0c0,0,0,0,0,0c0,0,0,0,0,0c0,0,0,0,0,0c0,0-0.1,0-0.1,0c-0.1,0-0.3-0.1-0.5-0.1
		c-0.5-0.1-1.1-0.2-1.9-0.3c-1.6-0.2-3.8-0.4-6.3-0.3C45-0.8,39,0.4,35.3,4.8l1.5,1.3c3.1-3.7,8.4-4.9,13.1-5c2.3-0.1,4.4,0.1,6,0.3
		c0.8,0.1,1.4,0.2,1.8,0.3c0.2,0,0.4,0.1,0.5,0.1c0.1,0,0.1,0,0.1,0c0,0,0,0,0,0c0,0,0,0,0,0c0,0,0,0,0,0c0,0,0,0,0,0
		C58.3,1.8,58.3,1.8,58.5,0.8z"/>
	<path class="st3" d="M54.1,22.4c0.4-0.3-0.1-1.1-0.7-1.3c0,0,0,0,0,0c-1.2-0.2-3.6-0.3-5.5,2.1c-1.6,2.2-1.3,4.3-0.8,5.5l0,0
		c0.4,1,1.8,1.4,2.1,0.6c0,0-1.5-2.4,0.5-5.1C51.7,21.6,54.1,22.4,54.1,22.4z"/>
	<path class="st3" d="M27,22.2c0.4-0.3-0.1-1.1-0.7-1.3c0,0,0,0,0,0c-1.2-0.2-3.6-0.3-5.5,2.1c-1.6,2.2-1.3,4.3-0.8,5.5l0,0
		c0.4,1,1.8,1.4,2.1,0.6c0,0-1.5-2.4,0.5-5.1C24.7,21.4,27,22.2,27,22.2z"/>
	<path class="st0" d="M66.3,39.5 M63.7,41.2 M63.7,41.2 M68.4,23.1c-0.1-0.2-0.2-0.3-0.2-0.5c0,0,0-0.1-0.1-0.1
		c-0.1-0.1-0.1-0.2-0.2-0.4c-2.5-4.5-7.2-7.6-12.7-7.6c-5.4,0-10.1,2.9-12.6,7.3l0,0v0c0,0,0,0,0,0l0,0c0,0,0,0,0,0.1L42,22.8
		l-0.4-0.9c0,0,0-0.1,0-0.1l0,0l0,0c-0.4-0.7-0.8-1.3-1.3-1.9l0,0l0,0c0,0,0-0.1-0.1-0.1l0,0l0,0l0,0c-2.7-3.3-6.7-5.5-11.3-5.5
		c-8,0-14.6,6.6-14.6,14.7c0,5.7,3.1,10.6,7.7,13l0,0c2,1.1,4.4,1.7,6.8,1.7c5.4,0,10.1-3,12.6-7.4l0.4-0.8l0.4,0.8c0,0,0,0,0,0.1
		c0,0,0,0.1,0,0.1l0,0l0,0c0,0,0.1,0.1,0.1,0.2c0,0,0,0,0,0l0,0l0,0c2.5,4.4,7.2,7.3,12.6,7.3c3,0,5.8-0.9,8.1-2.5l0,0 M69.5,27
		L69.5,27c0-0.2-0.1-0.5-0.1-0.7l0,0v0c0-0.2-0.1-0.4-0.2-0.6l0,0l0,0c0,0,0,0,0-0.1c0-0.1-0.1-0.2-0.1-0.4
		c-0.3-1.3-1.1-2.7-1.1-2.7 M69.5,27c0.1,0.7,0.2,1.5,0.2,2.2v0c0,2.5-0.6,4.9-1.7,6.9l0,0c-0.1,0.1-0.1,0.3-0.2,0.4l0,0l0,0
		c-0.4,0.7-0.9,1.4-1.4,2c-1.5,1.9-3.1,2.9-3.1,2.9 M43.9,31.8L43.9,31.8c-0.1-0.7-0.2-1.5-0.2-2.3c0-6.4,5.1-11.6,11.5-11.6
		c6.3,0,11.5,5.2,11.5,11.6c0,3.2-1.3,6-3.3,8.1l0,0l0,0c-2.1,2.1-4.9,3.4-8.1,3.4 M43.9,31.8c1,5.3,5.7,9.3,11.2,9.3 M35.4,19.5
		L35.4,19.5L35.4,19.5C35.4,19.4,35.4,19.4,35.4,19.5C35.3,19.4,35.3,19.4,35.4,19.5c-0.1-0.1-0.2-0.1-0.2-0.1
		c-1.8-1.2-4-1.9-6.4-1.9c-6.5,0-11.7,5.3-11.7,11.9c0,6.5,5.2,11.9,11.7,11.9c1.7,0,3.3-0.4,4.7-1c0,0,0.1,0,0.1,0c0,0,0,0,0,0
		c4.1-1.9,6.9-6,6.9-10.8C40.6,25.2,38.5,21.6,35.4,19.5z M33.7,40.1C33.7,40.1,33.7,40.1,33.7,40.1L33.7,40.1z"/>
</g>
</svg>
