<?xml version="1.0" encoding="utf-8"?>
<!-- Generator: Adobe Illustrator 25.4.1, SVG Export Plug-In . SVG Version: 6.00 Build 0)  -->
<svg version="1.1" id="Layer_1" xmlns="http://www.w3.org/2000/svg" xmlns:xlink="http://www.w3.org/1999/xlink" x="0px" y="0px"
	 viewBox="0 0 95 91.4" style="enable-background:new 0 0 95 91.4;" xml:space="preserve">
<style type="text/css">
	.st0{fill:#484751;}
</style>
<path class="st0" d="M16.8,0.7c-2,10.6-4,21.4-7.6,31.6C8.4,34.8,6,40.4,7.9,43c0.6,0.9,1.8,1.1,3,1.4c-3.3,0.6-6.5,1.3-9.6,2.6
	c-0.5,0.2-0.5,0.7-0.3,1c0,0,0,0,0,0c2.6,9.3,3.6,18.9,6.3,28.1c1.7,5.7,4.4,14.4,11.2,15.2c3,0.3,6.2-1,8.9-1.8
	c5.6-1.6,11.2-3.1,16.7-4.7c11.1-3.2,22.1-6.9,33-10.8c4.9-1.7,9.8-3.6,14.7-5.3c1.2-0.4,2.9-0.9,2.6-2.5c-0.7-3.7-3.2-7.2-4.5-10.7
	c-1.8-4.8-3.5-9.6-5.3-14.4c3.4-4.8,4.2-12,5.2-17.6c0.4-2.1,0.5-4.7-1.5-6c-2.5-1.6-6.5-1.3-9.3-2C68.5,13,57.8,10.4,47.1,8.2
	C42,7.2,36.9,6.1,32,4.5C27.2,3,22.6,1,17.5,0.3C17.2,0.3,16.9,0.4,16.8,0.7z M8.5,40.1c0.1-1.3,0.5-2.7,0.8-3.8
	c0.7-2.9,1.9-5.6,2.8-8.4c0.9-2.8,1.5-5.6,2.2-8.5c1.2,0.4,2.4,0.7,3.6,1c-1.1-0.1-2.3-0.2-3.4-0.2c-0.4,0-0.5,0.7-0.1,0.7
	c11.5,1.8,22.2,5.2,33.4,8.3c0.6,0.2,0.8-0.7,0.2-0.9c-5.3-1.7-10.8-3.7-16.4-5.2c5.3,0.8,10.6,1.4,15.8,2.4
	c5.5,1,10.9,2.2,16.5,2.9c1.7,0.2,3.3,0.4,5,0.4c0.8,0,2.1-0.2,3.1,0c-3.2,0.9-6.5,2.2-9.6,3.2C56.7,33.6,51,35,45.3,36.4
	c-6.2,1.5-12.4,3.3-18.5,4.9c0-0.1-0.2-0.3-0.3-0.3c-2.6-0.6-5.4-0.7-8-1.1c-0.5-0.1-0.8,0.7-0.2,0.8c2.1,0.5,4.4,0.8,6.5,1.1
	c-0.4,0.1-0.7,0.2-1.1,0.3c-2.1,0.5-4.2,0.9-6.4,1.2c0.1-0.2,0-0.5-0.3-0.6C14.4,41.8,11.4,39.8,8.5,40.1z M10.5,42.9
	c-1.3-0.2-1.8-1-2-2c2.7,0.1,5,1.8,7.6,2.6c-1,0.2-2.1,0.3-3.1,0.5C12.3,43.5,11.5,43.1,10.5,42.9z M27.1,88.3
	c-3.4,0.9-7.2,2.6-10.7,1.2c7.5,0.6,15.1-3,22-5.4c10.4-3.6,21.1-6.1,31.4-10.1c0.7-0.3,0.4-1.3-0.3-1.1c-5.2,1.5-10.3,3.5-15.4,5.3
	c-4.7,1.6-9.5,2.7-14.2,4.2c-7.7,2.4-16.1,7.2-24.4,6c-0.2,0-0.4,0.1-0.5,0.2c-3.4-2.8-5.1-9.1-6.3-12.8c-1.3-4.3-2.2-8.6-3.1-13
	c13.3-3.4,26.8-5.6,40-9.1c6.3-1.7,12.5-3.7,18.8-5.6c1.5,8.7,5.2,17.8,8.9,25.8C57.9,79.1,42.6,84,27.1,88.3z M91.5,67.5
	c-5.9,2.1-11.7,4.1-17.6,6.1c-0.1-0.4-0.2-0.7-0.3-1.1c6.6-1.6,13.2-4.4,19.4-7C93.1,66.3,92.8,67,91.5,67.5z M89.2,57
	c0.7,1.8,1.6,3.4,2.4,5.1c0.4,0.9,0.9,1.7,1.2,2.5c-6.6,2.1-12.9,4.9-19.5,7.1c-1.1-3.5-2.5-6.9-3.8-10.3c-1.6-4.5-2.9-9.1-4.3-13.7
	c6.2-1.8,12.4-3,18.8-4.2c0.1,0,0.1,0,0.1-0.1C85.9,48,87.5,52.5,89.2,57z M83.6,41.8c0.1,0.2,0.2,0.4,0.2,0.6c0,0,0,0-0.1,0
	c-6.5,1.2-12.8,2.4-19.2,4.2c-6.5,1.9-12.9,4-19.5,5.8c-13.2,3.6-26.7,5.7-39.9,9.2c-0.9-4.6-1.8-9.1-3.1-13.6
	c4.6-1.7,9.5-2.4,14.2-3.1c5.6-0.9,11.2-2.4,16.7-3.9c10.8-2.9,21.6-5.4,32.3-8.7c3.9-1.2,8-3.2,12.2-3.4c3.2-0.1,3.4,3.2,3.8,5.4
	c0.4,2.2,1.2,4.4,2,6.5C83.2,41.3,83.3,41.6,83.6,41.8z M84.2,39.5c-0.7-2.4-1.1-5.2-1.9-7.6c1.4,0.5,2.9,0.9,4.3,1.3
	C86.1,35.4,85.3,37.6,84.2,39.5z M20.9,2.1C27.5,3.5,33.7,6.4,40.3,8c13.3,3.1,26.6,6,39.9,9.2c1.8,0.4,3.7,0.6,5.6,0.9
	c4.3,0.8,3,4.7,2.4,7.9c-0.4,1.9-0.7,4-1.2,6.1c-1.7-0.5-3.4-1.3-5.2-1.6c-0.1-0.3-0.3-0.6-0.5-0.9c-1.3-2.3-4.5-1.9-6.7-1.5
	c-0.4,0.1-0.9,0.2-1.3,0.3c0-0.1-0.1-0.2-0.1-0.3c-0.8-0.9-4-0.5-5.1-0.6c-6-0.2-12-1.6-17.8-2.8c-11.9-2.5-24.1-2.9-35.7-6.6
	c0,0,0,0,0,0c0-0.1,0-0.2,0.1-0.3c0.7-3,1.3-6,2-9.1c0.4-1.7,0.7-3.4,1-5.2C17.9,1.2,18.8,1.6,20.9,2.1z"/>
<path class="st0" d="M27.6,47.1c0-0.6-0.7-0.8-1.1-0.4c-1.3,1.4-2.4,2.7-4.2,3.3c0.1-2.4-0.6-4.9-3.5-4.1c-0.3,0.1-0.5,0.4-0.5,0.6
	c0.1,2.6,0.2,5.1-2.7,6.3c-0.8,0.3-1.3,1-1.6,1.7c0,0,0,0.1,0,0.1c-0.4,0.3-0.1,1.1,0.5,0.9c3.8-0.6,6.8,2.7,10.6,1.2
	c0.4-0.2,0.6-0.7,0.3-1c-0.7-0.7-1-1.3-1.5-2.2c-0.2-0.5,5.2-0.3,5.5-0.2c0.5,0.1,1-0.4,0.7-0.9C28.9,50.6,27.4,49.5,27.6,47.1z
	 M28.2,52c-1.9-0.2-3.7,0.1-5.5,0.9c-0.3,0.1-0.3,0.6-0.2,0.8c0.4,0.8,0.8,1.5,1.3,2.2c-2.7,0.5-5.4-1.4-8.2-1.4
	c1.3-1.2,3.6-1.1,4-3.2c0.3-1.3,0.2-2.5,0.1-3.9c1.1,0.1,1.6,0.6,1.4,1.6c0.1,0.6,0,1.2-0.1,1.9c0,0.5,0.5,0.7,0.8,0.6
	c2.1-0.4,3.3-1.4,4.6-2.8C26.7,49.9,27.4,50.9,28.2,52z"/>
<path class="st0" d="M28,11.6c0.4-0.2,1-1,1-1.5c-0.1-1.8-1.7-2.4-3.3-2.7c-0.2,0-0.4,0-0.6,0.2c-1.4,1.8-2.9,3.2-5.3,3.2
	c-1,0-1.5,0.8-1.9,1.5c0,0.1-0.1,0.1-0.1,0.2c-0.4,0.1-0.4,0.6,0,0.8c2.6,1,5,2,4.5,5.3c-0.1,0.3,0.1,0.7,0.4,0.8
	c1.1,0.3,2.3,0.4,3.4,0.2c0.4-0.1,0.5-0.5,0.4-0.8c-0.7-4,2.5-3.4,4.3-1.2c0.4,0.4,1.1,0.3,1.1-0.3c0-2.1,0.1-3.8,1.1-5.7
	c0.3-0.6-0.3-1.1-0.8-0.8c-0.5,0.2-1,0.5-1.4,0.7C30.4,11.6,26.2,12.6,28,11.6z M31.4,12.3c-0.4,1.1-0.6,2.2-0.6,3.4
	c-2.6-2.2-5.8-1.5-5.5,2.6c-0.6,0-1.2,0-1.8-0.1c0.1-3-1.7-4.8-4.4-5.5c0.9-0.9,3.2-0.6,4.3-1.5c0.5-0.4,2.1-2.5,2.8-2.4
	c3,0.5,0.1,2.1,0.1,2.9C26.3,14,29.4,13.1,31.4,12.3z"/>
<path class="st0" d="M40.2,47.1c-0.3-0.8-0.6-1.7-0.9-2.6c0.8-0.2,1.7-0.5,2.6-0.6c0.9-0.2,0.5-1.5-0.4-1.3c-1.3,0.2-2.6,0.6-3.9,1
	c-0.7,0.2-1.3,0.4-2,0.6c-0.2,0-0.4,0.1-0.6,0.2c-0.2,0.1-0.6,0.2-0.1,0.1c-0.6,0.1-0.6,0.9,0,0.9c-0.3,0-0.1,0,0.1,0.1
	c0.2,0.1,0.4,0,0.7-0.1c0.6-0.1,1.3-0.3,1.9-0.4c0.2,0,0.4-0.1,0.6-0.2c0.1,0.7,0.3,1.3,0.5,2c0.3,0.9,0.4,2.3,1,3
	c0.3,0.4,0.9,0.4,1-0.2C40.9,48.8,40.5,47.8,40.2,47.1z"/>
<path class="st0" d="M44.5,41.9c0.3,2.5,1.2,5,2,7.4c0.3,0.8,1.6,0.5,1.3-0.4c-0.8-2.4-1.5-4.8-2.4-7.1
	C45.3,41.2,44.4,41.3,44.5,41.9z"/>
<path class="st0" d="M55.1,45.2c-0.1-0.7-1-0.5-1.2,0c-0.2,0.5-0.2,1.3-0.6,1.7c-0.1,0.1,0,0.1-0.1,0.1c0,0-0.1-0.1-0.3-0.2
	c-0.9-0.6-1.6-2-2-3c-0.4-1-1-2.4-0.7-3.4c0.1-0.3,0.1-0.4,0.5-0.4c0.7,0,1.6,0.6,2.2,0.9c0.5,0.3,1.1-0.5,0.6-0.9
	c-1.1-0.9-3.4-2.3-4.4-0.5c-0.8,1.3,0,3.4,0.5,4.7c0.6,1.4,1.5,3.3,3,3.9C54.5,49,55.4,46.6,55.1,45.2z"/>
<path class="st0" d="M58.6,41.6c1.4,0.3,2.6,1,3.8,1.6c0.8,0.4,1.4-0.8,0.6-1.1c-1.2-0.6-2.4-1.2-3.7-1.5c0.6-0.8,1.3-1.5,2-2.3
	c0.6-0.7-0.5-1.7-1-1c-0.8,1-1.6,2-2.2,3.1c0,0-0.1,0-0.1,0c-0.3-0.8-0.7-1.5-1.1-2.3c-0.4-0.7-1.3-0.1-1,0.6c1,2.2,1.7,4.5,2.3,6.8
	c0.2,0.8,1.5,0.5,1.3-0.4C59.3,43.9,59,42.8,58.6,41.6C58.6,41.6,58.6,41.6,58.6,41.6z"/>
<path class="st0" d="M71.2,40.9c-1,0.5-1.9,1-3,1.1c-0.2-0.9-0.4-1.8-0.6-2.7c1-0.2,2.2-0.2,2.9-0.7c0.5-0.3,0.3-1.1-0.3-1.1
	c-0.9,0-1.9,0.5-2.8,0.8c-0.1-0.6-0.2-1.2-0.3-1.8c0.9-0.5,1.9-0.8,2.9-0.9c0.7-0.1,0.7-1.2,0-1.1c-1.4,0.1-2.7,0.5-3.9,1.1
	c-0.2,0.1-0.3,0.4-0.3,0.6c0.3,2.3,0.9,4.6,1.4,6.9c0.1,0.3,0.4,0.5,0.7,0.5c1.5-0.1,3.5-0.4,4.3-1.7C72.4,41.2,71.7,40.7,71.2,40.9
	z"/>
<path class="st0" d="M77.7,33.7c0.6-0.2,0.6-1.1,0-1.2c-0.9-0.2-1.9,0.2-2.7,0.5c-0.8,0.3-2.3,0.6-2.7,1.5c-0.1,0.3,0,0.7,0.4,0.7
	c0.7-0.1,1.4-0.4,2.1-0.7c-0.2,2.3,0.9,4.3,1.7,6.5c0.3,0.9,1.7,0.4,1.4-0.4c-0.8-2.1-2-4.1-1.9-6.5C76.5,34,77.1,33.8,77.7,33.7z"
	/>
<path class="st0" d="M42.4,12.9c0.8,0,1.6,0.1,2.4,0.3c0.3,2.6-0.4,5.1-0.6,7.6c-0.1,0.8,1.2,0.8,1.3,0c0.3-2.4,1-5,0.5-7.3
	c0.4,0.1,0.8,0.3,1.3,0.4c0.8,0.4,1.5-0.8,0.7-1.2c-1.7-0.8-3.6-1-5.5-0.9C41.6,11.8,41.6,12.8,42.4,12.9z"/>
<path class="st0" d="M51,14c-1,2.4-1.7,4.7-2,7.2c-0.1,0.9,1.3,0.8,1.4,0c0.2-2.3,0.8-4.7,1.4-6.9C51.9,13.8,51.2,13.5,51,14z"/>
<path class="st0" d="M59.6,21.1c-0.1-0.6-1-0.5-1.1,0c-0.2,0.6-0.4,1.2-1.1,0.9c-0.9-0.4-1.4-1.3-1.7-2.2c-0.3-1.2,0.4-2.4,1.3-3.2
	c0.3-0.2,0.7-0.6,1.1-0.5c0.6,0.1,0.8,1,1,1.4c0.2,0.5,1.1,0.4,1-0.2c-0.1-0.9-0.3-1.7-1.1-2.3c-0.6-0.4-1.4-0.3-2.1,0
	c-1.7,0.8-2.8,2.9-2.5,4.7c0.2,1.6,1.3,2.9,2.8,3.5C58.6,23.9,59.8,22.6,59.6,21.1z"/>
<path class="st0" d="M63.4,15.1c-0.3,1.2-0.5,2.5-0.7,3.7c-0.1,0.1-0.2,0.3-0.1,0.5c-0.4,1.8-0.7,3.6-1.4,5.4
	c-0.2,0.6,0.7,0.9,1,0.4c0.8-1.4,1.2-2.9,1.6-4.5c1.4,1.6,2.4,3.6,3.9,5.1c0.6,0.6,1.6-0.4,1-1c-1.4-1.4-2.3-3-3.6-4.4
	c0.1-0.1,0.2-0.2,0.3-0.2c0.4-0.3,0.8-0.5,1.3-0.7c0.7-0.4,2.1-0.8,2.5-1.6c0.2-0.5-0.2-1-0.7-0.9c-0.5,0.1-0.9,0.5-1.4,0.7
	c-0.6,0.3-1.2,0.6-1.8,0.9c-0.4,0.2-0.7,0.5-1,0.8c-0.1-0.1-0.1-0.1-0.2-0.2c0.2-1.2,0.5-2.5,0.7-3.8C64.9,14.5,63.6,14.2,63.4,15.1
	z"/>
<path class="st0" d="M72,19c-1.6,1.8-1.1,4.5-1.7,6.8c-0.1,0.3,0.1,0.8,0.5,0.8c1.5,0.2,3.7,1,5.1,0.3c0.4-0.2,0.4-1-0.2-1.1
	c-1.3-0.2-2.7-0.3-4-0.4c0.1-0.8,0.1-1.6,0.2-2.5c0,0,0.1,0,0.1,0c1.3-0.2,2.5-0.1,3.8,0.2c0.7,0.2,1.2-0.9,0.5-1.2
	c-1.3-0.6-2.9-0.6-4.3-0.3c0.1-0.8,0.4-1.6,0.8-2.3c0.6,0.2,1.3,0.4,1.9,0.5c0.6,0.2,1.3,0.4,2,0.3c0.6,0,0.8-0.8,0.3-1.1
	c-0.5-0.3-1.1-0.4-1.7-0.5c-0.7-0.1-1.5-0.3-2.2-0.4c-0.1-0.1-0.2-0.1-0.4-0.1c-0.1,0-0.2,0-0.3,0C72,18.2,71.8,18.7,72,19z"/>
<path class="st0" d="M79.5,20.9c0.9,0.2,1.9,0.5,2.9,0.7c0.1,2.2-0.7,4.3-1.4,6.4c-0.2,0.6,0.8,1,1.1,0.4c0.7-1.7,2.1-4.4,1.8-6.5
	c0.4,0.1,0.8,0.1,1.2,0.1c0.8,0,0.9-1.2,0.2-1.4c-1.8-0.4-3.8-0.6-5.6-0.8C79.1,19.8,78.9,20.8,79.5,20.9z"/>
<path class="st0" d="M33.3,59.4c0.7-0.2,0.4-1.2-0.3-1c-8.8,2.1-18.6,2-26.9,5.9c-0.7,0.3-0.1,1.3,0.6,1
	C15.1,61.4,24.7,62.3,33.3,59.4z"/>
<path class="st0" d="M70.5,49c-0.6,0.1-0.4,1,0.2,1c2.3-0.3,4.6-0.9,6.7-1.9c0.6-0.3,0.1-1.2-0.4-1C74.7,47.6,72.7,48.5,70.5,49z"/>
<path class="st0" d="M71.6,56c3.6-1.3,7.3-2,11.1-2.9c0.6-0.1,0.5-1.2-0.2-1.2c-3.8,0.4-7.6,1.7-11.1,3.2
	C70.9,55.4,71.1,56.2,71.6,56z"/>
<path class="st0" d="M73.4,60.4c-0.6-0.1-0.7,1-0.1,1.1c3.4,0.4,7.1-0.6,9.9-2.5c0.7-0.4,0.1-1.4-0.6-1
	C79.7,59.5,76.8,60.8,73.4,60.4z"/>
<path class="st0" d="M76,65.9c-0.6,0.1-0.3,1,0.3,0.9c3.9-0.8,7.6-2.2,11.3-3.6c0.8-0.3,0.4-1.6-0.4-1.3
	C83.5,63.3,79.8,64.9,76,65.9z"/>
<path class="st0" d="M53,58.2c-4.7-0.2-9,2.4-13.5,3.4c-0.6,0.1-0.4,1.1,0.2,1.1c2.4-0.3,12.4-5,13.2-2.2c0.5,1.8-5,2.8-6.5,3.2
	c-2.6,0.7-5.3,1.2-7.9,1.8c-5.5,1.2-11,2.8-16.4,4.4c-2.8,0.8-5.6,1.8-8.2,3c-1.3,0.5-1.6,1.3-2.4-0.8c-0.5-1.2-0.9-2.3-1.4-3.5
	c-0.2-0.4-0.9-0.1-0.7,0.3c0.7,1.9,1.3,3.8,2,5.7c0.1,0.4,0.5,0.5,0.9,0.3c7.1-3.4,14.9-5.1,22.4-7.3c6.6-1.9,13.4-2.5,19.6-5.6
	c0.2-0.1,0.4-0.4,0.3-0.7c-0.3-0.9-0.5-1.9-0.8-2.8C53.5,58.3,53.3,58.2,53,58.2z"/>
<path class="st0" d="M13.3,68.6c6.8-1.1,13.6-2.8,20.3-4.3c0.6-0.1,0.4-1.2-0.2-1.1c-6.9,0.9-13.6,3.4-20.4,4.7
	C12.6,68,12.8,68.7,13.3,68.6z"/>
<path class="st0" d="M56.7,56.8c-0.1,0-0.2,0-0.2,0.1c-0.7,0.2-0.4,1.2,0.2,1.2c0.1,1.5,0.7,2.8,2.4,2.9c1.2,0.1,2.3-0.4,3.3-1.1
	c0.7-0.5,1.5-1.1,1.7-1.9c0.8-2.6-4.3-1.9-6.6-1.4C57.2,56.4,56.7,56.4,56.7,56.8z M62.9,57.6c0,0-0.5,0.6-0.6,0.7
	c-0.7,0.6-1.5,1.1-2.4,1.4c-1.5,0.4-2.2-0.7-2.4-1.9c0.9-0.2,1.8-0.4,2.6-0.4C60.9,57.2,62.4,57.1,62.9,57.6z"/>
<path class="st0" d="M56.7,73.1c-0.6,0.1-0.4,1.1,0.2,1.1c2.9-0.3,5.7-1.3,8.2-2.8c0.5-0.3,0.1-1.2-0.4-1
	C62,71.5,59.6,72.7,56.7,73.1z"/>
<path class="st0" d="M45.7,33.8C36,31.6,25.2,33.1,15.9,29c0.7-2.5,2.7-2.5,5.3-2.4c2.7,0.1,5.3,0.7,7.9,1.2c4.2,0.9,8.4,2,12.7,1.8
	c0.7,0,0.7-1.1,0-1.1c-8.6-0.5-17.7-4.7-26.2-2.6c-0.3,0.1-0.4,0.3-0.4,0.5c-0.1,0.8-0.2,1.4-0.3,2.1c-0.5-0.1-0.9,0.5-0.5,0.8
	c0.1,0.1,0.3,0.2,0.4,0.3c0.1,0.2,0.2,0.3,0.4,0.3c3.2,2.1,7.9,2.4,11.5,2.9c6.2,0.8,12.5,0.9,18.6,2.1C46.2,35.2,46.5,34,45.7,33.8
	z"/>
<path class="st0" d="M9.4,48.7c0.6-0.3,0.4-1.2-0.3-1c-1,0.3-2,0.5-3,0.7c-0.8,0.2-1.8,0.3-2.5,0.8c-0.5,0.4-0.1,1.1,0.5,0.8
	C5.7,49.2,7.7,49.4,9.4,48.7z"/>
<path class="st0" d="M6.5,56.9C6.2,56,6,55.2,5.6,54.4c-0.2-0.5-1-0.3-0.8,0.3c0.3,0.9,0.5,1.7,0.8,2.6C5.8,57.7,6.7,57.5,6.5,56.9z
	"/>
<path class="st0" d="M35.5,7.9c2.5,0.8,5,1.7,7.6,1.8c0.6,0,0.7-0.9,0.1-1c-2.6-0.4-5-1-7.5-1.6C35.2,7,35,7.7,35.5,7.9z"/>
<path class="st0" d="M39.1,20.2c-1.1-0.1-2.2,0-3.2-0.2c-0.5-0.1-0.8,0.7-0.2,0.8c1.1,0.3,2.3,0.4,3.5,0.2
	C39.7,21,39.7,20.2,39.1,20.2z"/>
</svg>
