<svg width="211" height="117" viewBox="0 0 211 117" fill="none" xmlns="http://www.w3.org/2000/svg">
<path d="M200.249 41.2229C200.228 41.1095 200.168 41.0072 200.079 40.9342C199.99 40.8611 199.878 40.8221 199.763 40.824C185.321 40.7132 174.456 52.77 172.955 66.4891C172.447 71.2542 172.955 76.9058 176.444 80.4963C179.933 84.0867 186.447 82.4023 190.444 80.1638C190.537 80.1202 190.62 80.0586 190.689 79.9826C190.758 79.9067 190.812 79.8178 190.847 79.721C190.882 79.6243 190.897 79.5216 190.892 79.4189C190.888 79.3161 190.863 79.2153 190.819 79.1222C190.776 79.029 190.715 78.9454 190.639 78.8761C190.563 78.8067 190.475 78.753 190.378 78.718C190.282 78.6831 190.18 78.6675 190.077 78.6722C189.975 78.6768 189.874 78.7017 189.782 78.7454C184.813 80.8066 179.027 82.7126 175.936 76.8615C173.992 73.2267 174.346 68.4838 174.854 64.5609C176.355 53.4792 184.548 45.8107 194.728 42.9738C194.748 43.0903 194.802 43.1983 194.883 43.2841C202.656 51.1743 190.466 71.8526 180.485 71.5423C179.623 71.5423 179.182 72.8943 180.131 73.1381C186.756 74.8003 192.785 66.4891 195.413 61.5467C198.04 56.6043 201.684 47.074 196.274 42.5749C196.98 42.4198 197.687 42.2646 198.482 42.1538C198.493 42.3341 198.573 42.5033 198.704 42.6269C198.835 42.7504 199.009 42.819 199.189 42.8187C206.542 42.5527 207.624 53.1468 206.211 58.5546C204.798 63.9625 201.64 72.5175 195.832 74.889C195.729 74.9552 195.651 75.0537 195.61 75.1692C195.569 75.2847 195.567 75.4106 195.605 75.5272C195.643 75.6438 195.718 75.7445 195.819 75.8135C195.92 75.8825 196.041 75.9159 196.163 75.9085C207.072 73.1381 214.647 41.4002 200.249 41.2229Z" fill="#333184"/>
<path d="M191.106 57.3802C191.214 57.2244 191.257 57.0319 191.223 56.8448C191.19 56.6578 191.085 56.4916 190.929 56.3829C190.774 56.2741 190.582 56.2317 190.396 56.265C190.21 56.2982 190.044 56.4044 189.936 56.5602C186.226 61.3253 182.56 66.2677 176.686 68.617C176.001 68.9051 176.487 69.8581 177.172 69.6365C183.114 67.333 188.051 62.9906 191.106 57.3802Z" fill="#333184"/>
<path d="M203.603 58.2891C203.758 57.5798 202.698 57.1587 202.499 57.8901C200.909 64.1402 196.25 68.5728 191.458 72.4071C191.318 72.524 191.225 72.6881 191.197 72.8686C191.168 73.0492 191.206 73.234 191.304 73.3885C191.401 73.5431 191.551 73.6569 191.725 73.7087C191.9 73.7606 192.087 73.747 192.253 73.6704C195.099 72.0303 197.577 69.8173 199.53 67.1704C201.483 64.5234 202.87 61.4997 203.603 58.2891Z" fill="#333184"/>
<path d="M84.821 103.857C83.7831 104.455 84.5118 106.073 85.616 105.564C96.6573 99.8898 108.361 90.958 107.699 77.2167C107.699 76.4853 106.572 76.3302 106.528 77.1059C105.866 90.5812 95.3986 97.6291 84.821 103.857Z" fill="#333184"/>
<path d="M91.2027 105.298C86.7862 108.578 79.9848 111.947 74.8837 108.113C74.3316 107.714 73.647 108.467 74.0887 108.955C78.8806 114.296 87.9124 110.905 92.329 106.738C92.5193 106.589 92.6425 106.369 92.6715 106.128C92.7005 105.887 92.6329 105.644 92.4835 105.453C92.3342 105.262 92.1154 105.138 91.8752 105.109C91.635 105.08 91.3931 105.148 91.2027 105.298Z" fill="#333184"/>
<path d="M104.895 96.6757C103.79 97.806 102.686 98.892 101.538 100C101.357 100.153 101.243 100.372 101.222 100.609C101.201 100.846 101.275 101.081 101.428 101.263C101.58 101.446 101.798 101.56 102.034 101.581C102.27 101.601 102.505 101.527 102.686 101.374C103.972 100.343 105.089 99.1163 105.999 97.7395C106.507 97.0303 105.557 96.0108 104.895 96.6757Z" fill="#333184"/>
<path d="M95.5747 40.9125C95.2435 41.0677 94.9785 41.3115 94.6693 41.4666C94.6597 41.4005 94.6597 41.3333 94.6693 41.2671C94.7674 41.0347 94.9099 40.8239 95.0889 40.6466C95.212 40.5252 95.2897 40.365 95.3089 40.1928C95.3281 40.0207 95.2876 39.8472 95.1943 39.7015C95.101 39.5558 94.9605 39.4469 94.7965 39.3929C94.6326 39.339 94.4551 39.3434 94.2939 39.4054C94.0029 39.5305 93.7421 39.717 93.5291 39.9521C93.3162 40.1873 93.1561 40.4656 93.0598 40.7683C92.9635 41.071 92.9331 41.391 92.9708 41.7065C93.0084 42.022 93.1133 42.3257 93.2781 42.5969C93.5075 42.8511 93.8002 43.0393 94.1261 43.1422C94.4521 43.245 94.7994 43.2587 95.1324 43.182C95.4654 43.1052 95.772 42.9407 96.0205 42.7054C96.269 42.4701 96.4506 42.1725 96.5464 41.8434C96.5874 41.7096 96.5905 41.567 96.5553 41.4316C96.5202 41.2961 96.4481 41.1732 96.3472 41.0765C96.2463 40.9799 96.1206 40.9133 95.9842 40.8844C95.8478 40.8554 95.706 40.8651 95.5747 40.9125Z" fill="#333184"/>
<path d="M139.322 29.942L139.19 30.075C139.19 29.9642 139.19 29.8534 139.079 29.7647C139.03 29.652 138.958 29.5505 138.868 29.4666C138.778 29.3827 138.672 29.318 138.556 29.2766C138.44 29.2351 138.317 29.2177 138.195 29.2254C138.072 29.2331 137.952 29.2658 137.843 29.3214C137.624 29.4314 137.456 29.6218 137.374 29.8531C137.291 30.0843 137.301 30.3385 137.401 30.5626C137.534 30.9394 137.6 31.3605 137.732 31.7372C137.799 31.8909 137.907 32.0236 138.043 32.1211C138.179 32.2187 138.339 32.2775 138.505 32.2913C138.789 32.3724 139.089 32.3739 139.373 32.2958C139.657 32.2176 139.915 32.0628 140.117 31.8481C140.38 31.4837 140.54 31.0549 140.581 30.6069C140.593 30.4553 140.561 30.3033 140.488 30.1699C140.415 30.0365 140.305 29.9276 140.171 29.8568C140.037 29.7859 139.885 29.7562 139.734 29.7714C139.583 29.7865 139.44 29.8459 139.322 29.942Z" fill="#333184"/>
<path d="M206.343 40.248C206.297 40.0792 206.196 39.9308 206.056 39.8269C199.431 34.4191 191.282 31.8703 183.377 28.7453C179.258 26.9575 175.014 25.4759 170.679 24.3126C169.324 22.1481 167.214 20.5679 164.761 19.8799C162.707 19.1042 160.477 18.7718 158.401 18.129L157.805 17.9296C157.847 17.7743 157.839 17.6099 157.784 17.459C157.729 17.3082 157.628 17.1783 157.496 17.0874C155.539 15.6469 153.268 14.697 150.871 14.317C145.505 11.0811 141.287 5.45164 135.413 3.34613C135.443 3.22983 135.443 3.10781 135.413 2.99152C131.129 -3.63531 117.394 1.57307 116.599 8.62099C116.587 8.71667 116.587 8.81344 116.599 8.90911L114.965 9.3967C112.811 7.84801 110.32 6.83745 107.699 6.44899C105.442 6.18995 103.157 6.53401 101.075 7.44634C99.8095 6.75585 98.4111 6.34698 96.9745 6.24754C95.5379 6.14811 94.0969 6.36044 92.7494 6.87009C90.7178 7.53499 87.03 9.99511 88.7082 12.5439C85.9479 13.6299 83.1876 14.7602 80.4052 15.6689C74.5532 10.0173 66.5593 11.2363 60.067 15.0262C51.2339 9.01993 28.9525 15.2035 29.1512 27.5263C24.0096 31.1819 20.0236 36.2441 17.6683 42.1097C16.8757 43.8948 16.5626 45.857 16.7602 47.8011C16.9578 49.7453 17.6592 51.6037 18.7945 53.1914C16.5862 60.9042 8.04021 64.8271 3.8445 71.4761C0.554179 76.6401 -1.83075 84.22 1.87914 89.7608C9.03393 100.466 26.3247 97.6952 35.489 91.2014C47.9215 82.3361 41.5396 66.5337 31.0724 59.1311C30.6308 58.8208 30.1891 58.5549 29.7254 58.2889C29.7241 58.1925 29.6967 58.0983 29.6461 58.0163C29.5955 57.9343 29.5237 57.8677 29.4383 57.8235C27.4126 56.733 25.5777 55.3181 24.006 53.6346C24.1148 53.5662 24.1997 53.4655 24.2489 53.3465C26.8988 47.6062 30.4983 41.5113 30.7191 35.0396C30.7335 34.9516 30.7335 34.8617 30.7191 34.7737C36.176 29.9632 42.8584 26.7709 50.0194 25.5537C49.5336 26.3738 48.9815 27.3711 48.3853 28.4571C48.2656 28.4085 48.1341 28.3973 48.008 28.425C47.8819 28.4527 47.7671 28.518 47.6786 28.6123C43.8141 32.5352 38.8455 33.2001 37.9181 39.3615C36.9906 45.5229 42.8646 48.0495 46.9941 50.6426C47.0889 50.6606 47.1863 50.6606 47.2811 50.6426C47.5682 51.6178 47.8111 52.5929 47.9878 53.5238C47.9753 53.6194 47.9753 53.7163 47.9878 53.8119C47.1041 55.7447 46.842 57.9056 47.2377 59.9947C47.6334 62.0838 48.6674 63.9974 50.196 65.4698C50.6366 66.8326 51.3935 68.0708 52.4043 69.0824C52.4898 69.1773 52.5963 69.2507 52.7152 69.2969C52.834 69.3431 52.962 69.3607 53.0889 69.3484C53.8618 74.18 55.2971 78.9894 55.9155 83.821C55.3467 86.7738 55.5289 89.823 56.4454 92.6863C56.4454 97.7396 60.4424 107.336 65.6318 108.954C67.5128 111.219 69.8348 113.074 72.4554 114.406C84.6009 120.723 103.371 114.251 112.072 104.743C119.845 96.3433 120.066 81.9593 113.551 72.7394C113.721 72.6452 113.85 72.4904 113.911 72.3056C113.972 72.1208 113.962 71.9196 113.882 71.742C113.087 69.7102 111.805 67.9062 110.151 66.4893C110.184 66.3318 110.17 66.168 110.111 66.0182C110.052 65.8684 109.951 65.7394 109.819 65.6471C107.818 64.1139 105.908 62.4636 104.1 60.7047C108.516 55.5407 109.974 47.6505 104.983 42.5308H105.182C106.021 41.9546 106.86 41.3562 107.744 40.8242C108.627 40.2923 109.775 39.9599 110.769 39.4723C110.93 39.4112 111.064 39.2929 111.144 39.1398C112.465 39.9655 114.008 40.3603 115.561 40.2702C117.143 40.2197 118.676 39.7118 119.977 38.8074L122.782 38.9625C123.375 38.9927 123.966 39.0668 124.548 39.1842C124.335 39.7937 124.158 40.4154 124.018 41.0459C122.87 46.2764 125.807 49.3128 129.252 52.7259C129.411 52.8739 129.62 52.9561 129.837 52.9561C130.054 52.9561 130.263 52.8739 130.422 52.7259C135.126 56.3829 143.451 50.155 148.243 51.108C150.391 54.567 152.836 57.8302 155.553 60.8599C161.117 67.6861 165.953 75.1108 171.827 81.6712C171.916 81.7777 172.028 81.8628 172.154 81.9204C172.28 81.9779 172.418 82.0064 172.556 82.0036C174.911 84.4485 178.028 86.0125 181.389 86.4363C201.264 89.7386 219.968 51.5291 206.343 40.248ZM132.653 2.57041C128.284 2.87626 124.139 4.62149 120.861 7.53499C120.767 7.60174 120.693 7.69251 120.646 7.79778C120.6 7.90306 120.582 8.01897 120.596 8.1334C119.851 8.17516 119.112 8.28646 118.387 8.46585C119.536 3.94454 128.722 -0.798406 132.653 2.6369V2.57041ZM123.135 10.3276C121.567 11.2735 119.75 11.7216 117.924 11.613L117.04 10.8373C119.072 10.3497 121.081 9.41887 123.135 10.3941V10.3276ZM100.324 20.1016C99.9925 20.5227 99.6612 20.9216 99.3521 21.3649C97.347 19.4023 95.1242 17.677 92.7273 16.223L93.0144 15.7797C93.3235 15.3586 93.6548 14.9819 93.986 14.6051C95.7254 16.8305 97.8776 18.697 100.324 20.1016ZM94.9576 13.5191C96.121 12.455 97.3774 11.4981 98.7117 10.66C98.7633 10.7588 98.8304 10.8486 98.9104 10.926C100.754 12.8207 102.708 14.6043 104.762 16.2673C103.574 17.0346 102.465 17.918 101.45 18.9048C100.329 18.225 99.2454 17.4851 98.2038 16.6884C97.0681 15.7044 95.9845 14.6613 94.9576 13.5634C94.9576 13.5634 94.9576 13.5412 94.9576 13.5191ZM98.4688 22.739C98.4585 22.7827 98.4585 22.8283 98.4688 22.872C96.7243 23.825 95.0018 24.8224 93.2794 25.7532H93.1469C89.2824 24.778 90.4749 20.3675 91.9544 17.5085C94.2199 19.1307 96.3946 20.8768 98.4688 22.739ZM112.933 20.5227C113.499 20.4889 114.067 20.4889 114.633 20.5227C114.074 20.4896 113.514 20.4896 112.955 20.5227C105.204 21.3427 99.7054 28.9004 91.8881 30.4075H91.6894C91.0564 30 90.4001 29.63 89.724 29.2993C97.2984 26.2408 104.431 20.4119 112.933 20.434V20.5227ZM109.378 18.9712C106.592 19.33 103.884 20.1461 101.362 21.387C106.463 15.2921 116.488 11.9455 121.236 19.6361H119.999C116.493 19.0235 112.935 18.771 109.378 18.8826V18.9712ZM106.684 8.35503C107.536 9.89641 108.693 11.2465 110.084 12.3223C110.835 13.0536 112.094 11.9898 111.343 11.2584C110.592 10.527 109.311 9.6405 108.494 8.68748C111.9 9.76742 115.028 11.5831 117.659 14.0067C115.326 13.1847 112.798 13.0996 110.416 13.7629C110.353 13.6852 110.278 13.6179 110.195 13.5634C108.171 12.0793 106.371 10.3102 104.851 8.3107C105.462 8.26395 106.076 8.2788 106.684 8.35503ZM100.059 9.77348L100.633 9.48536C100.74 9.53873 100.858 9.56774 100.978 9.57035C101.098 9.57296 101.216 9.5491 101.326 9.50046C101.436 9.45182 101.533 9.37959 101.612 9.28889C101.69 9.19818 101.748 9.09123 101.781 8.9756C102.291 8.78702 102.816 8.63882 103.349 8.53234C103.323 8.64913 103.323 8.77016 103.349 8.88695C104.673 10.9893 106.346 12.8484 108.296 14.3834C107.535 14.6496 106.797 14.9757 106.087 15.3586C103.879 13.5191 101.936 11.5022 99.7054 9.86213L100.059 9.77348ZM90.5853 9.77348C91.5436 8.95148 92.7157 8.42096 93.9639 8.24421C95.598 7.83613 97.3142 7.90534 98.9104 8.44368C98.248 8.82046 97.5855 9.2194 96.9451 9.66266C96.8323 9.57901 96.7005 9.52504 96.5616 9.50568C96.4228 9.48632 96.2813 9.50219 96.1501 9.55185L89.9449 12.0563C89.9018 11.6441 89.9464 11.2275 90.0759 10.8339C90.2053 10.4404 90.4166 10.0789 90.6957 9.77348H90.5853ZM92.7935 13.0536C92.3519 13.5191 91.9102 14.0067 91.5127 14.5164C87.6924 16.5554 80.4714 21.4092 77.5123 18.5945C82.7262 17.0116 87.8561 15.1623 92.8819 13.0536H92.7935ZM58.4108 16.0679C57.8808 16.4446 57.395 16.8214 56.8871 17.2203C56.7757 17.122 56.637 17.0601 56.4896 17.043C51.467 16.4367 46.3728 17.0056 41.6059 18.7053C39.7401 19.4398 37.9743 20.4079 36.3502 21.5865C35.1478 22.5788 34.0657 23.7095 33.1261 24.9553L30.9179 26.2851L30.675 26.4403C33.4353 15.6689 49.1361 13.4747 58.4108 16.0679ZM55.4517 18.4172C54.8776 18.9491 54.3255 19.5032 53.8176 20.0572C53.654 19.952 53.4569 19.9124 53.2655 19.9464C49.4894 20.5448 45.647 20.3897 41.8709 21.1654C40.2684 21.5246 38.7124 22.0674 37.2335 22.7833C42.2463 18.5501 49.2907 18.1069 55.4517 18.4172ZM9.38725 67.0434C13.4505 62.9432 18.2203 60.3944 20.1415 54.8314C20.5627 55.2317 21.005 55.6091 21.4665 55.9618C21.4544 56.0871 21.4544 56.2132 21.4665 56.3385C22.4381 66.9326 8.57019 72.6951 4.10949 81.0506C3.60292 81.9665 3.25918 82.964 3.09369 83.9983C2.67653 83.0264 2.47316 81.9756 2.49745 80.9176C2.50454 80.8138 2.48112 80.7102 2.43009 80.6195C2.37907 80.5289 2.30267 80.4553 2.21038 80.4079C3.2958 75.3617 5.78429 70.7277 9.38725 67.0434ZM7.62064 92.642C6.26755 91.9944 5.078 91.0478 4.14106 89.8734C3.20412 88.6989 2.54409 87.3269 2.21038 85.86C2.63819 86.5976 3.14145 87.2884 3.712 87.9212C4.72334 89.5217 6.30153 90.678 8.12854 91.1571C18.4191 94.1713 35.7098 88.8299 40.5017 78.3024C40.5017 91.9106 19.214 98.9142 7.62064 92.642ZM29.9904 60.5717C33.8307 63.1654 36.8865 66.769 38.8235 70.9885C39.329 72.0058 39.7429 73.0665 40.0601 74.1578C39.9592 74.2873 39.891 74.4394 39.8613 74.6011C39.8613 74.8449 39.8613 75.1108 39.6847 75.3546C38.3367 71.6491 36.0541 68.3578 33.0599 65.8023C30.3216 63.2092 27.5613 60.5274 24.7789 57.9786C26.6117 58.8208 28.3784 59.5744 29.9904 60.5717ZM29.88 65.1595C33.9432 68.7057 37.4323 72.4734 38.4701 77.9477C38.4614 78.0362 38.4614 78.1253 38.4701 78.2137C35.4669 83.7102 28.4225 87.2785 22.7031 88.7191C18.528 89.9518 14.139 90.2767 9.8289 89.6721C7.92988 88.9997 6.21344 87.8917 4.81614 86.4363C2.87286 81.649 13.2517 73.1383 15.6146 70.7668C19.1036 67.3315 22.5485 63.453 23.0564 58.577C25.0335 61.062 27.3277 63.2752 29.88 65.1595ZM22.9239 52.2162C22.0692 50.7186 21.6988 48.9916 21.864 47.2738C22.2173 43.0184 25.7505 39.2506 28.6654 36.4802L28.9746 36.1921C28.2017 41.9546 24.9114 46.8527 22.9239 52.2162ZM22.2173 54.4325L21.4223 53.8784C21.1431 53.6744 20.8776 53.4523 20.6273 53.2135C20.6339 52.954 20.5416 52.7018 20.3693 52.5082C20.197 52.3146 19.9575 52.1943 19.6999 52.1718C15.725 46.8083 20.8702 38.5636 24.4697 34.2196C26.5668 31.7837 29.0157 29.677 31.7349 27.9695C32.2567 27.7382 32.7466 27.4403 33.1924 27.083C34.694 26.1743 36.2398 25.3764 37.8077 24.6229C42.5554 22.4066 47.4357 22.4066 52.4264 21.7638C52.0731 22.2292 51.7197 22.6947 51.4106 23.1601C51.2194 23.4237 51.0425 23.6975 50.8806 23.9801C50.7222 23.9321 50.5532 23.9321 50.3948 23.9801C38.426 25.0661 12.9646 42.5308 22.2173 54.3217V54.4325ZM39.6626 38.9182C39.7232 38.4698 39.8117 38.0257 39.9276 37.5884C40.7226 34.5964 44.1675 33.2444 46.707 31.4713C46.1328 32.6017 45.6028 33.6877 45.117 34.8845C45.0039 34.8532 44.8851 34.8489 44.77 34.872C44.655 34.8951 44.5469 34.9449 44.4545 35.0175C42.7541 36.1394 41.1774 37.4395 39.7509 38.896L39.6626 38.9182ZM40.4134 41.9989C39.508 40.5361 42.4009 38.4084 44.2558 37.123C42.9529 40.8686 42.71 43.772 45.3599 43.772C45.3599 43.9271 45.3599 44.0822 45.3599 44.2152C43.6596 43.8163 41.2746 43.373 40.4134 41.9767V41.9989ZM41.6721 44.858C43.0283 45.3304 44.4155 45.7081 45.8237 45.9883C46.0003 46.764 46.2212 47.5397 46.442 48.3154C44.718 47.353 43.1164 46.1846 41.6721 44.8358V44.858ZM45.7795 37.5662C45.3535 38.7143 45.1438 39.9318 45.1612 41.1567C44.1454 37.4554 52.0951 25.3321 53.398 23.4261C58.3446 16.1122 70.5121 9.8843 78.3294 16.4225L77.4019 16.7549C77.3561 16.6228 77.2735 16.5067 77.1639 16.4202C77.0543 16.3338 76.9223 16.2807 76.7836 16.2673C73.3608 15.8905 69.4301 14.051 65.9852 15.4916C61.3402 17.829 57.3082 21.2303 54.2151 25.4208C50.7686 28.9775 47.9197 33.0718 45.7795 37.5441V37.5662ZM47.4136 38.1868C48.3411 34.3747 52.0289 30.6513 54.4801 27.7036C57.4217 23.7819 61.0239 20.4065 65.1239 17.7301C68.3922 15.8241 71.9475 17.2203 75.3924 17.7301C75.3228 17.8595 75.2864 18.0042 75.2864 18.1512C75.2864 18.2982 75.3228 18.4429 75.3924 18.5723C77.8215 23.005 84.7334 20.7886 89.5695 17.9961C89.2779 18.7065 89.0776 19.4512 88.9732 20.2124C88.7082 22.5839 89.3045 25.7975 91.4465 26.8614C90.3036 27.4523 89.1317 27.9849 87.9353 28.4571C87.797 28.5143 87.6755 28.6058 87.582 28.7231C85.1196 27.9195 82.5189 27.6328 79.9414 27.8809C76.694 27.8703 73.4991 28.7025 70.6667 30.2967C67.1555 32.9784 65.0798 36.6797 61.1711 38.9847C56.1761 42.0767 52.0312 46.3739 49.114 51.4848C48.0319 47.0965 46.3757 42.6638 47.4136 38.1646V38.1868ZM49.6219 62.1232C45.9341 53.147 56.4013 44.1487 63.3352 39.6496C65.0537 38.4838 66.5937 37.0726 67.9063 35.4607C70.1009 32.4824 73.3198 30.4287 76.9382 29.6983C79.5331 29.079 82.2334 29.0523 84.8399 29.62C87.4465 30.1877 89.8928 31.3354 91.9986 32.9784C87.8122 30.5939 82.9785 29.6081 78.1969 30.1637C74.7741 30.6956 72.5658 33.3995 70.6888 36.0591C67.288 40.9129 61.8557 41.9546 57.8808 45.9883C53.9059 50.022 49.7102 56.2499 49.5777 62.0567L49.6219 62.1232ZM108.914 105.43C101.34 112.678 87.4495 116.778 76.9823 114.163C85.5283 115.581 96.2826 111.725 102.046 107.514C112.425 100.022 119.712 84.7076 110.879 73.4929C102.245 62.6329 85.3075 67.8191 76.4965 75.3546C76.3208 75.5045 76.2116 75.7183 76.193 75.949C76.1744 76.1797 76.2478 76.4084 76.3971 76.5847C76.5465 76.761 76.7595 76.8706 76.9894 76.8893C77.2192 76.908 77.447 76.8343 77.6227 76.6844C85.9037 69.9025 98.3363 65.7579 107.766 72.8059C120.176 82.1144 109.974 98.9807 100.964 106.051C93.5002 111.924 79.8531 114.717 71.4175 109.663C67.7297 107.447 66.2501 102.904 66.206 98.0277C77.9761 105.984 97.983 95.8114 100.302 82.1809C100.33 81.9769 100.28 81.7697 100.163 81.6006C100.046 81.4314 99.8699 81.3127 99.6695 81.268C99.4692 81.2233 99.2594 81.256 99.082 81.3594C98.9045 81.4629 98.7723 81.6295 98.7117 81.8263C95.2226 93.9496 78.241 103.99 66.6476 96.4984C66.5365 96.4244 66.4056 96.3858 66.2722 96.3876C66.4684 91.164 68.291 86.1336 71.4837 82.0036C72.1462 81.2944 71.2408 80.1198 70.49 80.8068C63.8652 87.1898 62.0765 102.505 68.2818 109.619L68.7455 110.107C59.6253 102.416 62.7611 88.1872 70.0042 78.7678C74.929 72.5277 81.7803 68.1072 89.4811 66.2012C96.3488 64.5611 101.759 67.6418 108.053 69.2597C108.102 69.4328 108.202 69.5871 108.34 69.703C119.469 78.258 118.608 96.1438 108.914 105.43ZM109.311 68.0851C101.582 64.8492 94.5822 62.6994 86.1246 65.2039C78.6432 67.7813 72.1301 72.6008 67.4647 79.0116C61.1049 87.2785 59.1616 97.6952 63.3352 105.718C59.7271 101.067 57.9577 95.2423 58.3666 89.3618C59.3824 80.8511 64.9914 73.4929 71.6162 68.3732C81.4651 60.6161 100.037 58.2446 109.311 68.0851ZM102.841 59.4192C100.511 57.1418 98.0004 55.0589 95.333 53.1914C89.3045 49.1798 82.0834 46.7197 75.7015 43.4838C74.9728 43.1292 74.3545 44.326 75.0391 44.725C81.2664 48.4041 87.9574 51.1745 94.251 54.6985C97.5011 56.8252 100.469 59.3573 103.084 62.234C100.572 61.2399 97.9684 60.4975 95.311 60.0177C85.9479 58.3111 76.4523 62.234 69.1871 67.9521C63.4243 72.5311 59.2948 78.8608 57.4171 85.993C58.488 79.5546 61.5833 73.6289 66.2501 69.0824C71.1083 63.9849 77.7994 61.835 84.2034 59.4414C84.3833 59.3576 84.5267 59.211 84.6068 59.0289C84.687 58.8468 84.6984 58.6416 84.6389 58.4517C84.5794 58.2618 84.4531 58.1 84.2836 57.9967C84.1141 57.8933 83.9129 57.8554 83.7176 57.89C75.7049 59.6942 68.4458 63.9448 62.9377 70.0576C60.3729 73.0313 58.3542 76.4381 56.9754 80.1198C55.805 73.7367 53.8397 67.5532 54.7672 60.9263C55.8492 52.6816 61.392 47.6284 68.7234 44.7471C69.408 44.4812 69.0326 43.4395 68.348 43.5503C65.0705 44.2321 62.03 45.7692 59.5332 48.0066C57.0364 50.244 55.1715 53.1027 54.1268 56.2942C52.8879 59.6629 52.4567 63.277 52.868 66.8439C47.8774 59.5301 57.5937 47.2738 63.9094 44.0379C66.1527 43.0733 68.22 41.74 70.0263 40.0929C71.8591 38.2311 73.0516 35.8597 74.8845 33.998C81.5093 27.1495 91.579 35.3721 97.4309 39.1177C100.157 40.7118 102.647 42.6813 104.829 44.9688C108.207 49.0247 105.999 55.7623 102.841 59.4192ZM104.034 40.9794C103.909 41.061 103.809 41.1762 103.747 41.3118C101.671 39.5609 99.33 37.7657 97.1217 36.1035C97.183 35.96 97.2011 35.8017 97.1736 35.648C97.1461 35.4944 97.0743 35.3522 96.9672 35.2391C95.8563 33.8828 94.597 32.6561 93.2131 31.5822C99.5508 31.0502 104.254 26.1522 109.841 23.6477C108.928 24.4166 108.192 25.3759 107.684 26.459C107.177 27.5422 106.911 28.7231 106.904 29.9199C106.809 31.3302 107.001 32.7452 107.468 34.0788C107.935 35.4124 108.667 36.6367 109.621 37.6771C107.557 38.3912 105.657 39.5142 104.034 40.9794ZM117.46 37.8322C113.198 39.7604 109.621 35.9262 108.803 32.0476C108.503 30.7847 108.521 29.4666 108.857 28.2126C109.192 26.9587 109.834 25.8086 110.725 24.8667C111.538 24.2184 112.474 23.7443 113.477 23.4737C114.48 23.203 115.527 23.1416 116.554 23.2931C116.582 23.405 116.636 23.5083 116.713 23.5935C116.79 23.6787 116.888 23.7431 116.996 23.7807C118.676 24.352 120.146 25.4178 121.214 26.8392C120.068 26.1921 118.754 25.9093 117.445 26.028C116.136 26.1467 114.894 26.6614 113.882 27.5041C112.915 28.3633 112.233 29.4997 111.929 30.7599C111.625 32.0202 111.713 33.3437 112.182 34.552C113.971 38.4084 118.807 36.7684 121.28 34.2417C120.431 35.8246 119.089 37.0854 117.46 37.8322ZM121.126 31.693C119.845 33.7763 116.201 36.7462 113.927 34.0866C112.69 32.6017 113.927 29.9421 114.965 28.7896C115.792 28.0741 116.812 27.619 117.896 27.4811C118.979 27.3431 120.08 27.5284 121.059 28.0139C121.18 28.0673 121.316 28.0718 121.44 28.0263C121.563 27.9808 121.664 27.8889 121.722 27.7701C122.156 28.7977 122.338 29.9151 122.252 31.0281C122.252 31.2054 122.252 31.3827 122.252 31.56C122.176 31.4796 122.083 31.418 121.979 31.3803C121.876 31.3425 121.765 31.3296 121.655 31.3425C121.546 31.3554 121.441 31.3938 121.349 31.4547C121.257 31.5155 121.181 31.5971 121.126 31.693ZM121.7 36.99C125.189 32.7125 124.791 25.2878 119.227 22.739C119.215 22.6442 119.176 22.555 119.112 22.4837C119.049 22.4123 118.966 22.3622 118.873 22.3401L118.299 22.1628C124.548 22.5839 130.908 25.0218 136.76 21.6087C136.959 21.5007 137.114 21.3265 137.199 21.1162C137.283 20.9058 137.292 20.6724 137.224 20.4562C137.338 20.3766 137.431 20.2705 137.495 20.147C137.559 20.0235 137.593 19.8863 137.593 19.747C137.593 19.6077 137.559 19.4704 137.495 19.3469C137.431 19.2234 137.338 19.1174 137.224 19.0377C136.857 18.8016 136.516 18.5267 136.208 18.2177C135.892 17.9411 135.636 17.6015 135.457 17.2203C135.418 17.0721 135.328 16.9427 135.202 16.8556C135.076 16.7686 134.923 16.7295 134.771 16.7456C134.619 16.7616 134.478 16.8317 134.373 16.9432C134.268 17.0546 134.206 17.2001 134.199 17.3533C130.631 18.5744 126.919 19.3196 123.157 19.5697C122.622 18.2472 121.834 17.0426 120.839 16.0235C120.935 15.9657 121.019 15.8878 121.083 15.7952C121.148 15.7025 121.192 15.5972 121.213 15.4861C121.234 15.3751 121.231 15.2608 121.204 15.151C121.178 15.0411 121.128 14.9381 121.059 14.8489C120.574 14.2726 120.021 13.6742 119.447 13.098C120.535 13.1224 121.617 12.9248 122.627 12.5171C123.636 12.1095 124.553 11.5003 125.321 10.7265C125.461 10.5321 125.518 10.2904 125.481 10.0538C125.444 9.81724 125.315 9.60498 125.123 9.46319C124.344 8.84863 123.439 8.41694 122.473 8.19989C125.513 5.71421 129.328 4.38053 133.249 4.43213C139.123 6.33817 143.098 11.0811 148.089 14.5608C142.391 15.3143 137.798 20.6335 133.382 26.1078C130.356 29.8534 127.132 32.9784 125.233 37.1895C124.088 36.8431 122.877 36.7747 121.7 36.99ZM124.085 21.4757C127.639 21.0051 131.12 20.0816 134.441 18.7274C134.654 19.2808 134.986 19.7803 135.413 20.1902C131.841 21.7159 127.895 22.1328 124.085 21.387V21.4757ZM127.817 48.4706C126.956 47.4557 126.334 46.2592 125.998 44.9699C125.661 43.6806 125.619 42.3318 125.873 41.0237C126.558 35.7267 130.886 32.0476 134.088 28.2133C138.041 23.4926 141.95 18.0847 146.984 16.6441C141.795 18.6166 138.792 24.5786 135.06 28.9004C130.732 33.7763 125.873 41.5556 127.817 48.3819V48.4706ZM137.224 51.8616C124.394 55.0974 130.952 37.5219 134.265 32.8011C135.987 30.3632 138.196 28.3685 139.962 25.8197C142.391 22.4287 144.666 19.4367 148.795 18.129C152.152 17.0652 156.281 20.3454 159.439 20.9881C162.348 21.372 165.134 22.4099 167.588 24.0245C164.974 23.6754 162.322 23.7352 159.726 24.2018L159.395 24.091C149.193 23.4704 145.483 35.904 145.947 44.0379C146.056 45.7899 146.475 47.5083 147.183 49.1133C143.65 48.7587 140.956 50.8199 137.224 51.7729V51.8616ZM162.751 66.4893C158.335 60.5717 153.19 55.4077 149.303 49.1576C144.622 41.6 149.303 26.3073 158.821 25.4208C158.95 25.5105 159.105 25.557 159.262 25.5537C168.581 25.1105 175.78 27.7701 184.304 31.1389C187.285 32.2914 190.266 33.3552 193.137 34.6185C184.591 35.3499 177.679 37.8987 171.783 44.5033C166.095 50.8257 163.14 59.1562 163.569 67.664C163.414 67.2207 163.039 66.8218 162.751 66.4893ZM165.49 70.2793C165.019 65.8432 165.465 61.3575 166.798 57.1019C168.132 52.8463 170.325 48.9122 173.241 45.545C178.607 38.896 186.115 36.9678 194.197 36.3029C194.309 36.2995 194.418 36.2711 194.518 36.2198C194.617 36.1685 194.704 36.0956 194.771 36.0064C194.839 35.9172 194.886 35.814 194.909 35.7043C194.932 35.5945 194.93 35.481 194.904 35.3721C196.229 35.9705 197.532 36.5911 198.79 37.2781C181.433 33.7985 165.622 59.5522 169.155 75.2217C167.83 73.5816 166.682 71.9193 165.49 70.2349V70.2793ZM182.847 84.7519C169.42 85.1065 169.597 69.0824 172.313 60.0841C175.559 49.0025 185.563 38.7852 197.51 38.5636C197.573 38.6664 197.661 38.7523 197.764 38.8141C197.868 38.8758 197.985 38.9115 198.106 38.9182C210.251 40.0929 210.671 53.8119 207.469 63.054C204.046 72.8502 193.822 84.4194 182.847 84.7076V84.7519Z" fill="#333184"/>
<path d="M157.011 54.1887C156.525 53.6568 155.575 54.1887 155.929 54.898C156.709 56.5968 157.795 58.1369 159.131 59.4414C159.815 60.0177 160.698 58.976 160.168 58.3111C158.998 56.9813 158.137 55.4077 157.011 54.1887Z" fill="#333184"/>
<path d="M150.164 45.2791C149.789 44.7472 149.502 43.9493 148.795 43.8385C148.688 43.8309 148.581 43.8514 148.484 43.898C148.387 43.9447 148.304 44.0158 148.243 44.1044C147.779 44.858 148.508 45.7002 148.906 46.3207C149.346 47.084 149.978 47.7182 150.738 48.1603C151.578 48.6257 152.152 47.2959 151.489 46.7418C150.987 46.3135 150.541 45.8218 150.164 45.2791Z" fill="#333184"/>
<path d="M137.355 48.2936C135.947 48.5416 134.499 48.4427 133.137 48.0054C132.992 47.9761 132.842 47.9998 132.713 48.0723C132.584 48.1448 132.485 48.2614 132.434 48.4008C132.383 48.5402 132.384 48.6932 132.436 48.8321C132.488 48.971 132.588 49.0866 132.718 49.1579C134.251 49.863 135.972 50.0496 137.62 49.6899C137.804 49.6546 137.967 49.5472 138.073 49.3913C138.179 49.2355 138.218 49.0439 138.183 48.8587C138.148 48.6736 138.041 48.51 137.886 48.404C137.73 48.298 137.539 48.2583 137.355 48.2936Z" fill="#333184"/>
<path d="M177.944 37.3666C179.828 36.3794 181.843 35.6703 183.928 35.2611C184.768 35.0394 184.834 33.6431 183.928 33.6653C181.521 33.7674 179.206 34.6195 177.304 36.1033C176.487 36.613 177.215 37.8098 177.944 37.3666Z" fill="#333184"/>
<path d="M165.137 51.4626C166.047 48.74 167.618 46.2875 169.708 44.3261C170.481 43.6168 169.465 42.3979 168.67 43.0849C166.124 45.079 164.332 47.8861 163.591 51.0415C163.415 51.9946 164.85 52.2827 165.137 51.4626Z" fill="#333184"/>
<path d="M89.1049 58.9539C90.7215 59.3603 92.3853 59.5466 94.0514 59.508C94.2622 59.5286 94.4726 59.4643 94.6362 59.3292C94.7998 59.1941 94.9032 58.9993 94.9237 58.7877C94.9442 58.5761 94.8801 58.365 94.7455 58.2008C94.6109 58.0366 94.4168 57.9328 94.206 57.9123C92.616 57.6685 91.004 57.9123 89.414 57.5576C89.2473 57.5563 89.0851 57.6125 88.9546 57.7167C88.8241 57.821 88.7332 57.967 88.697 58.1303C88.6609 58.2937 88.6816 58.4646 88.7558 58.6145C88.8301 58.7644 88.9533 58.8842 89.1049 58.9539Z" fill="#333184"/>
<path d="M52.3156 44.4593C53.4431 43.2871 54.6861 42.2327 56.0255 41.3121C56.6879 40.8023 56.0255 39.6055 55.2084 40.0488C53.6578 40.8812 52.2907 42.0195 51.1894 43.3954C50.7919 44.1047 51.6973 45.102 52.3156 44.4593Z" fill="#333184"/>
<path d="M62.4739 35.4603C64.2405 34.0197 65.9188 32.5126 67.7516 31.1606C69.5845 29.8087 71.9915 28.5011 73.9789 26.994C74.5531 26.5285 73.979 25.6863 73.3165 25.9301C68.8589 27.8946 64.8636 30.7794 61.5906 34.3965C60.9943 34.9506 61.8335 35.9701 62.4739 35.4603Z" fill="#333184"/>
<path d="M76.0553 26.994C76.7908 27.0351 77.528 27.0351 78.2636 26.994C78.3986 26.9841 78.5257 26.9267 78.6226 26.8318C78.7195 26.7369 78.7799 26.6108 78.7931 26.4755C78.8063 26.3403 78.7715 26.2048 78.6948 26.0928C78.6181 25.9809 78.5045 25.8997 78.374 25.8637C77.6011 25.7529 76.8282 25.8637 76.0553 25.8637C75.9059 25.8637 75.7627 25.9232 75.6571 26.0292C75.5515 26.1352 75.4922 26.279 75.4922 26.4289C75.4922 26.5788 75.5515 26.7225 75.6571 26.8285C75.7627 26.9345 75.9059 26.994 76.0553 26.994Z" fill="#333184"/>
<path d="M141.728 10.2826C140.514 9.46255 139.255 8.68683 137.974 8.06626C137.356 7.71165 136.693 8.59818 137.312 9.01928C138.526 9.83932 139.675 10.7702 140.955 11.5016C141.684 11.834 142.457 10.7702 141.728 10.2826Z" fill="#333184"/>
<path d="M85.3086 26.4184C85.4902 26.4929 85.6928 26.4974 85.8775 26.431C86.0622 26.3646 86.2159 26.232 86.309 26.0588C86.4022 25.8855 86.4282 25.6838 86.3822 25.4925C86.3361 25.3011 86.2212 25.1336 86.0595 25.0221C85.2628 24.4775 84.6473 23.7054 84.2928 22.8058C83.8733 21.7641 82.3054 22.5177 82.725 23.5594C82.9343 24.1898 83.2722 24.7696 83.717 25.2618C84.1618 25.7541 84.7039 26.1479 85.3086 26.4184Z" fill="#333184"/>
<path d="M100.698 35.4605C99.6862 34.8634 98.7704 34.1161 97.9816 33.2441C97.8722 33.1426 97.7301 33.0841 97.5813 33.0794C97.4324 33.0747 97.2868 33.124 97.1713 33.2184C97.0558 33.3127 96.9782 33.4458 96.9526 33.593C96.927 33.7403 96.9552 33.8918 97.032 34.0199C97.808 35.1166 98.8389 36.0067 100.035 36.613C100.764 36.9676 101.36 35.8151 100.698 35.4605Z" fill="#333184"/>
<path d="M130.423 24.5788C128.74 25.9512 127.465 27.7603 126.735 29.8094C126.58 30.5186 127.729 30.9397 128.06 30.3191C129.07 28.6382 130.206 27.0377 131.461 25.5319C131.946 24.8891 130.997 24.0026 130.423 24.5788Z" fill="#333184"/>
</svg>
