<svg width="178" height="60" viewBox="0 0 178 60" fill="none" xmlns="http://www.w3.org/2000/svg">
<g filter="url(#filter0_d)">
<path fill-rule="evenodd" clip-rule="evenodd" d="M21 37C11.0589 37 3 28.9411 3 19C3 9.05888 11.0589 1 21 1H94C103.941 1 112 9.05888 112 19C112 28.9411 103.941 37 94 37H38.5149C38.468 37.379 38.0976 38.0269 37.5927 38.9103C35.8586 41.9441 32.5364 47.7563 35.2653 55C32.0146 53.872 26.162 48.0979 22.4322 37H21Z" fill="white"/>
<path d="M38.5149 37V36C38.0102 36 37.5846 36.3761 37.5225 36.877L38.5149 37ZM37.5927 38.9103L36.7245 38.4141V38.4141L37.5927 38.9103ZM35.2653 55L34.9375 55.9447C35.304 56.0719 35.711 55.9756 35.9817 55.6977C36.2524 55.4199 36.3379 55.0105 36.2011 54.6475L35.2653 55ZM22.4322 37L23.3801 36.6814C23.2433 36.2743 22.8618 36 22.4322 36V37ZM2 19C2 29.4934 10.5066 38 21 38V36C11.6112 36 4 28.3888 4 19H2ZM21 0C10.5066 0 2 8.50659 2 19H4C4 9.61116 11.6112 2 21 2V0ZM94 0H21V2H94V0ZM113 19C113 8.50659 104.493 0 94 0V2C103.389 2 111 9.61116 111 19H113ZM94 38C104.493 38 113 29.4934 113 19H111C111 28.3888 103.389 36 94 36V38ZM38.5149 38H94V36H38.5149V38ZM38.4608 39.4066C38.7088 38.9727 38.9424 38.5648 39.1181 38.217C39.2787 37.8991 39.4602 37.5033 39.5074 37.123L37.5225 36.877C37.5227 36.8757 37.4956 36.9933 37.333 37.315C37.1856 37.6068 36.9815 37.9645 36.7245 38.4141L38.4608 39.4066ZM36.2011 54.6475C33.6502 47.8762 36.7256 42.4424 38.4608 39.4066L36.7245 38.4141C34.9915 41.4459 31.4226 47.6364 34.3295 55.3525L36.2011 54.6475ZM21.4843 37.3186C23.3823 42.9658 25.8297 47.2872 28.2422 50.3567C30.6312 53.3963 33.0524 55.2906 34.9375 55.9447L35.5932 54.0553C34.2275 53.5814 32.097 52.0247 29.8146 49.1208C27.5557 46.2467 25.212 42.132 23.3801 36.6814L21.4843 37.3186ZM21 38H22.4322V36H21V38Z" fill="#484751"/>
<path d="M21.162 23V13.298H27.392V14.796H22.926V17.19H26.902V18.66H22.926V21.502H27.728V23H21.162ZM33.4531 19.15C33.4531 18.3847 33.3551 17.834 33.1591 17.498C32.9725 17.1527 32.6178 16.98 32.0951 16.98C31.9085 16.98 31.7031 16.994 31.4791 17.022C31.2551 17.05 31.0871 17.0733 30.9751 17.092V23H29.2811V15.916C29.6078 15.8227 30.0325 15.734 30.5551 15.65C31.0871 15.566 31.6471 15.524 32.2351 15.524C32.7391 15.524 33.1498 15.5893 33.4671 15.72C33.7938 15.8507 34.0645 16.0233 34.2791 16.238C34.3818 16.1633 34.5125 16.084 34.6711 16C34.8298 15.916 35.0071 15.8413 35.2031 15.776C35.3991 15.7013 35.6045 15.6407 35.8191 15.594C36.0431 15.5473 36.2671 15.524 36.4911 15.524C37.0605 15.524 37.5271 15.608 37.8911 15.776C38.2645 15.9347 38.5538 16.1633 38.7591 16.462C38.9738 16.7513 39.1185 17.106 39.1931 17.526C39.2771 17.9367 39.3191 18.3893 39.3191 18.884V23H37.6251V19.15C37.6251 18.3847 37.5318 17.834 37.3451 17.498C37.1585 17.1527 36.7991 16.98 36.2671 16.98C35.9965 16.98 35.7398 17.0267 35.4971 17.12C35.2545 17.204 35.0725 17.288 34.9511 17.372C35.0258 17.6053 35.0771 17.8527 35.1051 18.114C35.1331 18.3753 35.1471 18.6553 35.1471 18.954V23H33.4531V19.15ZM43.9704 21.81C44.4931 21.81 44.8897 21.782 45.1604 21.726V19.85C45.0671 19.822 44.9317 19.794 44.7544 19.766C44.5771 19.738 44.3811 19.724 44.1664 19.724C43.9797 19.724 43.7884 19.738 43.5924 19.766C43.4057 19.794 43.2331 19.8453 43.0744 19.92C42.9251 19.9947 42.8037 20.102 42.7104 20.242C42.6171 20.3727 42.5704 20.5407 42.5704 20.746C42.5704 21.1473 42.6964 21.4273 42.9484 21.586C43.2004 21.7353 43.5411 21.81 43.9704 21.81ZM43.8304 15.496C44.3904 15.496 44.8617 15.566 45.2444 15.706C45.6271 15.846 45.9304 16.042 46.1544 16.294C46.3877 16.546 46.5511 16.854 46.6444 17.218C46.7471 17.5727 46.7984 17.9647 46.7984 18.394V22.832C46.5371 22.888 46.1404 22.9533 45.6084 23.028C45.0857 23.112 44.4931 23.154 43.8304 23.154C43.3917 23.154 42.9904 23.112 42.6264 23.028C42.2624 22.944 41.9497 22.8087 41.6884 22.622C41.4364 22.4353 41.2357 22.1927 41.0864 21.894C40.9464 21.5953 40.8764 21.2267 40.8764 20.788C40.8764 20.368 40.9557 20.0133 41.1144 19.724C41.2824 19.4347 41.5064 19.2013 41.7864 19.024C42.0664 18.8373 42.3884 18.7067 42.7524 18.632C43.1257 18.548 43.5131 18.506 43.9144 18.506C44.1011 18.506 44.2971 18.52 44.5024 18.548C44.7077 18.5667 44.9271 18.604 45.1604 18.66V18.38C45.1604 18.184 45.1371 17.9973 45.0904 17.82C45.0437 17.6427 44.9597 17.4887 44.8384 17.358C44.7264 17.218 44.5724 17.1107 44.3764 17.036C44.1897 16.9613 43.9517 16.924 43.6624 16.924C43.2704 16.924 42.9111 16.952 42.5844 17.008C42.2577 17.064 41.9917 17.1293 41.7864 17.204L41.5764 15.832C41.7911 15.7573 42.1037 15.6827 42.5144 15.608C42.9251 15.5333 43.3637 15.496 43.8304 15.496ZM50.5809 23H48.8869V15.678H50.5809V23ZM50.7629 13.536C50.7629 13.8533 50.6603 14.1053 50.4549 14.292C50.2496 14.4787 50.0069 14.572 49.7269 14.572C49.4376 14.572 49.1903 14.4787 48.9849 14.292C48.7796 14.1053 48.6769 13.8533 48.6769 13.536C48.6769 13.2093 48.7796 12.9527 48.9849 12.766C49.1903 12.5793 49.4376 12.486 49.7269 12.486C50.0069 12.486 50.2496 12.5793 50.4549 12.766C50.6603 12.9527 50.7629 13.2093 50.7629 13.536ZM55.2901 23.14C54.7861 23.1307 54.3661 23.0747 54.0301 22.972C53.7034 22.8693 53.4421 22.7247 53.2461 22.538C53.0501 22.342 52.9101 22.104 52.8261 21.824C52.7514 21.5347 52.7141 21.208 52.7141 20.844V12.416L54.4081 12.136V20.522C54.4081 20.7273 54.4221 20.9 54.4501 21.04C54.4874 21.18 54.5481 21.3013 54.6321 21.404C54.7161 21.4973 54.8281 21.572 54.9681 21.628C55.1174 21.6747 55.3041 21.712 55.5281 21.74L55.2901 23.14ZM61.9999 21.782C62.4479 21.782 62.7746 21.7307 62.9799 21.628C63.1852 21.516 63.2879 21.3293 63.2879 21.068C63.2879 20.8253 63.1759 20.6247 62.9519 20.466C62.7372 20.3073 62.3779 20.1347 61.8739 19.948C61.5659 19.836 61.2812 19.7193 61.0199 19.598C60.7679 19.4673 60.5486 19.318 60.3619 19.15C60.1752 18.982 60.0259 18.7813 59.9139 18.548C59.8112 18.3053 59.7599 18.0113 59.7599 17.666C59.7599 16.994 60.0072 16.4667 60.5019 16.084C60.9966 15.692 61.6686 15.496 62.5179 15.496C62.9472 15.496 63.3579 15.538 63.7499 15.622C64.1419 15.6967 64.4359 15.7713 64.6319 15.846L64.3239 17.218C64.1372 17.134 63.8992 17.0593 63.6099 16.994C63.3206 16.9193 62.9846 16.882 62.6019 16.882C62.2566 16.882 61.9766 16.9427 61.7619 17.064C61.5472 17.176 61.4399 17.3533 61.4399 17.596C61.4399 17.7173 61.4586 17.8247 61.4959 17.918C61.5426 18.0113 61.6172 18.1 61.7199 18.184C61.8226 18.2587 61.9579 18.338 62.1259 18.422C62.2939 18.4967 62.4992 18.576 62.7419 18.66C63.1432 18.8093 63.4839 18.9587 63.7639 19.108C64.0439 19.248 64.2726 19.4113 64.4499 19.598C64.6366 19.7753 64.7719 19.9807 64.8559 20.214C64.9399 20.4473 64.9819 20.7273 64.9819 21.054C64.9819 21.754 64.7206 22.286 64.1979 22.65C63.6846 23.0047 62.9472 23.182 61.9859 23.182C61.3419 23.182 60.8239 23.126 60.4319 23.014C60.0399 22.9113 59.7646 22.8273 59.6059 22.762L59.8999 21.348C60.1519 21.4507 60.4506 21.5487 60.7959 21.642C61.1506 21.7353 61.5519 21.782 61.9999 21.782ZM66.1583 19.374C66.1583 18.73 66.2517 18.1653 66.4383 17.68C66.6343 17.1947 66.891 16.7933 67.2083 16.476C67.5257 16.1493 67.8897 15.9067 68.3003 15.748C68.711 15.58 69.131 15.496 69.5603 15.496C70.5683 15.496 71.3523 15.8087 71.9123 16.434C72.4817 17.0593 72.7663 17.9927 72.7663 19.234C72.7663 19.3273 72.7617 19.4347 72.7523 19.556C72.7523 19.668 72.7477 19.7707 72.7383 19.864H67.9083C67.955 20.452 68.1603 20.9093 68.5243 21.236C68.8977 21.5533 69.4343 21.712 70.1343 21.712C70.545 21.712 70.9183 21.6747 71.2543 21.6C71.5997 21.5253 71.8703 21.446 72.0663 21.362L72.2903 22.748C72.197 22.7947 72.0663 22.846 71.8983 22.902C71.7397 22.9487 71.553 22.9907 71.3383 23.028C71.133 23.0747 70.909 23.112 70.6663 23.14C70.4237 23.168 70.1763 23.182 69.9243 23.182C69.2803 23.182 68.7203 23.0887 68.2443 22.902C67.7683 22.706 67.3763 22.44 67.0683 22.104C66.7603 21.7587 66.5317 21.3573 66.3823 20.9C66.233 20.4333 66.1583 19.9247 66.1583 19.374ZM71.0723 18.618C71.0723 18.3847 71.0397 18.1653 70.9743 17.96C70.909 17.7453 70.811 17.5633 70.6803 17.414C70.559 17.2553 70.405 17.134 70.2183 17.05C70.041 16.9567 69.8263 16.91 69.5743 16.91C69.313 16.91 69.0843 16.9613 68.8883 17.064C68.6923 17.1573 68.5243 17.2833 68.3843 17.442C68.2537 17.6007 68.151 17.7827 68.0763 17.988C68.0017 18.1933 67.9503 18.4033 67.9223 18.618H71.0723ZM74.5624 15.916C74.889 15.8227 75.3137 15.734 75.8364 15.65C76.359 15.566 76.9377 15.524 77.5724 15.524C78.1697 15.524 78.669 15.608 79.0704 15.776C79.4717 15.9347 79.789 16.1633 80.0224 16.462C80.265 16.7513 80.433 17.106 80.5264 17.526C80.629 17.9367 80.6804 18.3893 80.6804 18.884V23H78.9864V19.15C78.9864 18.758 78.9584 18.4267 78.9024 18.156C78.8557 17.876 78.7717 17.652 78.6504 17.484C78.5384 17.3067 78.3797 17.1807 78.1744 17.106C77.9784 17.022 77.7357 16.98 77.4464 16.98C77.2317 16.98 77.0077 16.994 76.7744 17.022C76.541 17.05 76.3684 17.0733 76.2564 17.092V23H74.5624V15.916ZM82.6678 13.746L84.3618 13.466V15.678H86.9658V17.092H84.3618V20.074C84.3618 20.662 84.4552 21.082 84.6418 21.334C84.8285 21.586 85.1458 21.712 85.5938 21.712C85.9018 21.712 86.1725 21.6793 86.4058 21.614C86.6485 21.5487 86.8398 21.488 86.9798 21.432L87.2598 22.776C87.0638 22.86 86.8072 22.944 86.4898 23.028C86.1725 23.1213 85.7992 23.168 85.3698 23.168C84.8472 23.168 84.4085 23.098 84.0538 22.958C83.7085 22.818 83.4332 22.6173 83.2278 22.356C83.0225 22.0853 82.8778 21.7633 82.7938 21.39C82.7098 21.0073 82.6678 20.5733 82.6678 20.088V13.746ZM90.5774 15.902C90.5774 16.6767 90.5494 17.386 90.4934 18.03C90.4374 18.674 90.3674 19.3227 90.2834 19.976H89.0794C88.9861 19.3227 88.9114 18.674 88.8554 18.03C88.7994 17.3767 88.7714 16.6673 88.7714 15.902V13.298H90.5774V15.902ZM90.7874 22.076C90.7874 22.4027 90.6801 22.6687 90.4654 22.874C90.2507 23.0793 89.9847 23.182 89.6674 23.182C89.3594 23.182 89.0934 23.0793 88.8694 22.874C88.6547 22.6687 88.5474 22.4027 88.5474 22.076C88.5474 21.7493 88.6547 21.4833 88.8694 21.278C89.0934 21.0633 89.3594 20.956 89.6674 20.956C89.9847 20.956 90.2507 21.0633 90.4654 21.278C90.6801 21.4833 90.7874 21.7493 90.7874 22.076Z" fill="#484751"/>
</g>
<defs>
<filter id="filter0_d" x="0" y="0" width="115" height="60" filterUnits="userSpaceOnUse" color-interpolation-filters="sRGB">
<feFlood flood-opacity="0" result="BackgroundImageFix"/>
<feColorMatrix in="SourceAlpha" type="matrix" values="0 0 0 0 0 0 0 0 0 0 0 0 0 0 0 0 0 0 127 0" result="hardAlpha"/>
<feOffset dy="2"/>
<feGaussianBlur stdDeviation="1"/>
<feColorMatrix type="matrix" values="0 0 0 0 0 0 0 0 0 0 0 0 0 0 0 0 0 0 0.2 0"/>
<feBlend mode="normal" in2="BackgroundImageFix" result="effect1_dropShadow"/>
<feBlend mode="normal" in="SourceGraphic" in2="effect1_dropShadow" result="shape"/>
</filter>
</defs>
</svg>
