<svg width="227" height="27" viewBox="0 0 227 27" fill="none" xmlns="http://www.w3.org/2000/svg">
<path d="M125.787 25.3816L123.832 20.4569H114.099L112.253 25.3816H105.645L116.196 0.291992H122.094L132.541 25.3816H125.787ZM119.036 6.99125L115.841 15.603H122.165L119.036 6.99125Z" fill="#333184"/>
<path d="M125.787 25.3816L123.832 20.4569H114.099L112.253 25.3816H105.645L116.196 0.291992H122.094L132.541 25.3816H125.787ZM119.036 6.99125L115.841 15.603H122.165L119.036 6.99125Z" stroke="#484751"/>
<path d="M143.552 25.3816H137.479L127.955 0.291992H134.776L140.603 18.0821H140.745L146.535 0.291992H153.251L143.552 25.3816Z" fill="#333184"/>
<path d="M143.552 25.3816H137.479L127.955 0.291992H134.776L140.603 18.0821H140.745L146.535 0.291992H153.251L143.552 25.3816Z" stroke="#484751"/>
<path d="M155.31 25.3816V0.291992H172.222V5.39566H161.174V10.1452H171.621V14.999H161.174V20.2071H172.862V25.3816H155.31Z" fill="#333184"/>
<path d="M155.31 25.3816V0.291992H172.222V5.39566H161.174V10.1452H171.621V14.999H161.174V20.2071H172.862V25.3816H155.31Z" stroke="#484751"/>
<path d="M192.862 25.3816L182.736 8.97456H182.628L182.77 25.3816H176.872V0.291992H183.802L193.893 16.6655H194.002L193.86 0.291992H199.758V25.3816H192.862Z" fill="#333184"/>
<path d="M192.862 25.3816L182.736 8.97456H182.628L182.77 25.3816H176.872V0.291992H183.802L193.893 16.6655H194.002L193.86 0.291992H199.758V25.3816H192.862Z" stroke="#484751"/>
<path d="M225.496 20.0468C224.988 21.2882 224.259 22.3507 223.31 23.2342C222.36 24.1215 221.22 24.8112 219.882 25.307C218.544 25.8028 217.056 26.0526 215.423 26.0526C213.764 26.0526 212.272 25.8028 210.945 25.307C209.619 24.8112 208.494 24.1215 207.57 23.2342C206.647 22.347 205.937 21.2845 205.44 20.0468C204.943 18.8091 204.692 17.4297 204.692 15.9199V0.291992H210.732V15.424C210.732 16.11 210.822 16.7587 210.998 17.3738C211.173 17.9889 211.446 18.5369 211.816 19.0216C212.183 19.5062 212.668 19.8902 213.274 20.1735C213.879 20.4569 214.605 20.5985 215.46 20.5985C216.313 20.5985 217.042 20.4569 217.647 20.1735C218.253 19.8902 218.742 19.5062 219.12 19.0216C219.497 18.5369 219.77 17.9889 219.938 17.3738C220.103 16.7587 220.185 16.11 220.185 15.424V0.291992H226.262V15.9199C226.262 17.4334 226.008 18.8091 225.496 20.0468Z" fill="#333184"/>
<path d="M225.496 20.0468C224.988 21.2882 224.259 22.3507 223.31 23.2342C222.36 24.1215 221.22 24.8112 219.882 25.307C218.544 25.8028 217.056 26.0526 215.423 26.0526C213.764 26.0526 212.272 25.8028 210.945 25.307C209.619 24.8112 208.494 24.1215 207.57 23.2342C206.647 22.347 205.937 21.2845 205.44 20.0468C204.943 18.8091 204.692 17.4297 204.692 15.9199V0.291992H210.732V15.424C210.732 16.11 210.822 16.7587 210.998 17.3738C211.173 17.9889 211.446 18.5369 211.816 19.0216C212.183 19.5062 212.668 19.8902 213.274 20.1735C213.879 20.4569 214.605 20.5985 215.46 20.5985C216.313 20.5985 217.042 20.4569 217.647 20.1735C218.253 19.8902 218.742 19.5062 219.12 19.0216C219.497 18.5369 219.77 17.9889 219.938 17.3738C220.103 16.7587 220.185 16.11 220.185 15.424V0.291992H226.262V15.9199C226.262 17.4334 226.008 18.8091 225.496 20.0468Z" stroke="#484751"/>
<path d="M6.00264 5.8117V10.9862H15.7354V15.9817H6.00264V25.7268H0V0.637207H16.5577V5.8117H6.00264Z" fill="#333184"/>
<path d="M6.00264 5.8117V10.9862H15.7354V15.9817H6.00264V25.7268H0V0.637207H16.5577V5.8117H6.00264Z" stroke="#484751"/>
<path d="M20.46 25.7268V0.637207H26.571V25.7268H20.46Z" fill="#333184"/>
<path d="M20.46 25.7268V0.637207H26.571V25.7268H20.46Z" stroke="#484751"/>
<path d="M45.2256 25.7268L39.765 15.7692H37.6943V25.7268H31.7627V0.637207H41.3572C42.5645 0.637207 43.7418 0.760232 44.893 1.01001C46.0442 1.25979 47.072 1.67733 47.984 2.27008C48.896 2.86284 49.6248 3.64199 50.1705 4.60755C50.7162 5.57684 50.9891 6.78099 50.9891 8.22373C50.9891 9.92371 50.5256 11.3553 49.6024 12.511C48.6792 13.6704 47.401 14.4943 45.7639 14.9901L52.3346 25.7268H45.2256ZM44.9752 8.32812C44.9752 7.73909 44.8482 7.25817 44.6015 6.89283C44.351 6.52748 44.0296 6.24415 43.6372 6.04284C43.2447 5.84153 42.8037 5.70732 42.314 5.63648C41.8244 5.56565 41.3572 5.52837 40.9049 5.52837H37.6569V11.3739H40.5499C41.0507 11.3739 41.5628 11.3329 42.086 11.2509C42.6093 11.1689 43.084 11.0197 43.5138 10.8073C43.9436 10.5948 44.2912 10.2891 44.5678 9.88643C44.8369 9.48753 44.9752 8.96561 44.9752 8.32812Z" fill="#333184"/>
<path d="M45.2256 25.7268L39.765 15.7692H37.6943V25.7268H31.7627V0.637207H41.3572C42.5645 0.637207 43.7418 0.760232 44.893 1.01001C46.0442 1.25979 47.072 1.67733 47.984 2.27008C48.896 2.86284 49.6248 3.64199 50.1705 4.60755C50.7162 5.57684 50.9891 6.78099 50.9891 8.22373C50.9891 9.92371 50.5256 11.3553 49.6024 12.511C48.6792 13.6704 47.401 14.4943 45.7639 14.9901L52.3346 25.7268H45.2256ZM44.9752 8.32812C44.9752 7.73909 44.8482 7.25817 44.6015 6.89283C44.351 6.52748 44.0296 6.24415 43.6372 6.04284C43.2447 5.84153 42.8037 5.70732 42.314 5.63648C41.8244 5.56565 41.3572 5.52837 40.9049 5.52837H37.6569V11.3739H40.5499C41.0507 11.3739 41.5628 11.3329 42.086 11.2509C42.6093 11.1689 43.084 11.0197 43.5138 10.8073C43.9436 10.5948 44.2912 10.2891 44.5678 9.88643C44.8369 9.48753 44.9752 8.96561 44.9752 8.32812Z" stroke="#484751"/>
<path d="M67.5345 7.1578C67.015 6.49794 66.331 5.97229 65.4938 5.58085C64.6528 5.18941 63.8418 4.99555 63.0606 4.99555C62.6569 4.99555 62.2495 5.0291 61.8347 5.10366C61.4198 5.17449 61.046 5.3087 60.7171 5.51002C60.3845 5.71133 60.1079 5.97229 59.8836 6.28917C59.6594 6.60978 59.5472 7.01614 59.5472 7.51196C59.5472 7.93696 59.6369 8.29112 59.8126 8.57445C59.9883 8.85778 60.2499 9.10756 60.5938 9.32005C60.9376 9.53255 61.345 9.72641 61.8197 9.90535C62.2944 10.0843 62.8251 10.267 63.4194 10.4534C64.2716 10.7367 65.1611 11.0499 66.0843 11.3928C67.0075 11.7358 67.8485 12.1906 68.6072 12.7573C69.366 13.3239 69.9939 14.0285 70.491 14.8674C70.9881 15.7062 71.2385 16.75 71.2385 18.0026C71.2385 19.4454 70.9732 20.6905 70.4387 21.7418C69.9042 22.7931 69.1903 23.6618 68.2896 24.3477C67.3888 25.0337 66.3572 25.5407 65.1985 25.8725C64.0361 26.2043 62.8401 26.3683 61.6104 26.3683C59.8089 26.3683 58.0709 26.0551 56.3889 25.4288C54.707 24.8025 53.3091 23.9115 52.1953 22.7521L56.1759 18.7109C56.7926 19.4677 57.6037 20.0978 58.6091 20.6085C59.6145 21.1155 60.6162 21.369 61.6104 21.369C62.0589 21.369 62.5 21.3206 62.9261 21.2274C63.3521 21.1342 63.7259 20.9776 64.0436 20.7651C64.3613 20.5526 64.6192 20.2693 64.8061 19.9151C64.9967 19.5609 65.0901 19.1359 65.0901 18.6401C65.0901 18.1666 64.9705 17.7678 64.7351 17.436C64.4996 17.1042 64.1595 16.8059 63.7222 16.5338C63.2849 16.2616 62.7392 16.0156 62.0888 15.7882C61.4385 15.5645 60.6984 15.3222 59.8687 15.0612C59.0613 14.8002 58.2764 14.4945 57.5065 14.1404C56.7365 13.7862 56.0488 13.3314 55.447 12.7759C54.8415 12.2205 54.3594 11.5494 53.9894 10.7553C53.6231 9.965 53.4399 8.99944 53.4399 7.86613C53.4399 6.47185 53.724 5.27888 54.2921 4.28722C54.8602 3.29557 55.6078 2.47913 56.531 1.84164C57.4542 1.20415 58.4969 0.738148 59.6594 0.443635C60.818 0.149121 61.9916 0 63.1765 0C64.5968 0 66.047 0.260962 67.5271 0.779157C69.0072 1.30108 70.3041 2.06905 71.418 3.08307L67.5345 7.1578Z" fill="#333184"/>
<path d="M67.5345 7.1578C67.015 6.49794 66.331 5.97229 65.4938 5.58085C64.6528 5.18941 63.8418 4.99555 63.0606 4.99555C62.6569 4.99555 62.2495 5.0291 61.8347 5.10366C61.4198 5.17449 61.046 5.3087 60.7171 5.51002C60.3845 5.71133 60.1079 5.97229 59.8836 6.28917C59.6594 6.60978 59.5472 7.01614 59.5472 7.51196C59.5472 7.93696 59.6369 8.29112 59.8126 8.57445C59.9883 8.85778 60.2499 9.10756 60.5938 9.32005C60.9376 9.53255 61.345 9.72641 61.8197 9.90535C62.2944 10.0843 62.8251 10.267 63.4194 10.4534C64.2716 10.7367 65.1611 11.0499 66.0843 11.3928C67.0075 11.7358 67.8485 12.1906 68.6072 12.7573C69.366 13.3239 69.9939 14.0285 70.491 14.8674C70.9881 15.7062 71.2385 16.75 71.2385 18.0026C71.2385 19.4454 70.9732 20.6905 70.4387 21.7418C69.9042 22.7931 69.1903 23.6618 68.2896 24.3477C67.3888 25.0337 66.3572 25.5407 65.1985 25.8725C64.0361 26.2043 62.8401 26.3683 61.6104 26.3683C59.8089 26.3683 58.0709 26.0551 56.3889 25.4288C54.707 24.8025 53.3091 23.9115 52.1953 22.7521L56.1759 18.7109C56.7926 19.4677 57.6037 20.0978 58.6091 20.6085C59.6145 21.1155 60.6162 21.369 61.6104 21.369C62.0589 21.369 62.5 21.3206 62.9261 21.2274C63.3521 21.1342 63.7259 20.9776 64.0436 20.7651C64.3613 20.5526 64.6192 20.2693 64.8061 19.9151C64.9967 19.5609 65.0901 19.1359 65.0901 18.6401C65.0901 18.1666 64.9705 17.7678 64.7351 17.436C64.4996 17.1042 64.1595 16.8059 63.7222 16.5338C63.2849 16.2616 62.7392 16.0156 62.0888 15.7882C61.4385 15.5645 60.6984 15.3222 59.8687 15.0612C59.0613 14.8002 58.2764 14.4945 57.5065 14.1404C56.7365 13.7862 56.0488 13.3314 55.447 12.7759C54.8415 12.2205 54.3594 11.5494 53.9894 10.7553C53.6231 9.965 53.4399 8.99944 53.4399 7.86613C53.4399 6.47185 53.724 5.27888 54.2921 4.28722C54.8602 3.29557 55.6078 2.47913 56.531 1.84164C57.4542 1.20415 58.4969 0.738148 59.6594 0.443635C60.818 0.149121 61.9916 0 63.1765 0C64.5968 0 66.047 0.260962 67.5271 0.779157C69.0072 1.30108 70.3041 2.06905 71.418 3.08307L67.5345 7.1578Z" stroke="#484751"/>
<path d="M86.0108 5.8117V25.7268H79.9334V5.8117H72.8281V0.637207H93.116V5.8117H86.0108Z" fill="#333184"/>
<path d="M86.0108 5.8117V25.7268H79.9334V5.8117H72.8281V0.637207H93.116V5.8117H86.0108Z" stroke="#484751"/>
</svg>
