<svg width="32" height="44" viewBox="0 0 32 44" fill="none" xmlns="http://www.w3.org/2000/svg">
<path d="M18.3375 3.22388C18.3322 2.93017 18.1272 2.61547 18.0064 2.35847C17.917 2.16966 17.8382 1.98609 17.7646 1.79203C17.7331 1.7186 17.712 1.64517 17.6963 1.5665C17.691 1.53503 17.6858 1.5088 17.6805 1.47733V1.47209C17.7593 1.39866 17.7173 1.24131 17.5859 1.24131C16.8711 1.22558 17.8592 3.05605 18.0116 3.31305C18.0957 3.4599 18.3375 3.40221 18.3375 3.22388Z" fill="#6976EC"/>
<path d="M4.44658 19.247C4.09971 18.3292 3.71079 17.4323 3.39545 16.4987C3.33763 16.3256 3.06959 16.3938 3.1169 16.5722C3.39019 17.5267 3.73707 18.4603 4.14175 19.3729C4.22059 19.546 4.51491 19.4201 4.44658 19.247Z" fill="#6976EC"/>
<path d="M31.077 12.0982C31.0928 11.9461 30.9141 11.8779 30.7932 11.9304C30.7827 11.6838 30.7669 11.4373 30.7459 11.1908C30.6618 10.1838 30.4095 8.69425 29.2375 8.4897C28.8749 6.39174 27.9131 3.66964 25.6111 3.58572C25.569 3.58572 25.5375 3.60146 25.5112 3.62244C25.4639 3.56474 25.4166 3.50705 25.3693 3.4546C24.3392 2.3217 22.6258 0.874112 21.0281 1.49825C20.0295 0.832153 18.7734 0.48599 17.2125 0.596133C17.1442 0.601378 17.0969 0.638092 17.0706 0.690541C16.4399 0.208011 15.7567 -0.180112 14.9473 0.087378C14.6372 0.192276 14.3639 0.402072 14.1274 0.664316C12.8608 0.333888 11.4207 0.695786 10.2119 1.44581C10.1909 1.43532 10.1751 1.41958 10.1488 1.41434C8.48279 0.984255 7.15836 2.1696 6.21233 3.47558C4.5673 3.11368 3.37426 5.30605 2.78037 6.50188C2.50182 7.06309 2.28634 7.68199 2.13392 8.33235C0.872556 9.12433 0.509914 10.5509 0.51517 12.0248C0.467868 12.0405 0.420567 12.0772 0.399544 12.1349C-0.32574 13.9601 0.0526692 15.9165 0.615028 17.7312C1.25097 19.7872 2.14443 21.8432 3.27966 23.6737C4.3308 25.3678 6.35424 26.6056 7.78378 27.9692C9.51816 29.6266 11.4207 31.0218 13.3285 32.4589C13.4231 33.0306 13.6596 33.4134 14.0013 33.6757C13.9802 33.6914 13.9645 33.7176 13.954 33.7439C13.6439 34.4939 13.5125 35.2964 13.3128 36.0779C13.1183 36.8331 12.7031 37.5202 12.4561 38.2597C12.4508 38.2755 12.4508 38.2859 12.4508 38.2964C12.3825 38.244 12.2616 38.2545 12.2354 38.3594C12.0882 38.9153 12.104 39.4608 12.1145 40.0325C12.1197 40.3787 12.0251 40.8979 12.2091 41.2231C12.598 41.9049 13.502 42.3612 14.2062 42.6182C14.427 42.7021 15.0839 42.9644 15.5202 42.9224C15.5464 42.9696 15.5937 43.0064 15.6568 43.0011C16.3611 42.9277 16.9917 42.6025 17.696 42.5186C18.1375 42.4661 18.6 42.4032 18.8785 42.0308C19.4724 41.2388 18.9416 39.6286 18.9206 38.7318C18.9206 38.6688 18.8943 38.6216 18.8575 38.5902C18.8628 38.5692 18.8628 38.5429 18.8575 38.5167C18.7051 37.6461 18.4949 36.7597 18.2006 35.9257C17.9535 35.2282 17.5751 34.5726 17.6697 33.8016C17.675 33.7544 17.6592 33.7176 17.6329 33.6914C17.9956 33.4187 18.2741 33.0411 18.4371 32.5533C18.4476 32.5271 18.4476 32.5008 18.4476 32.4799C18.8155 32.2124 19.1781 31.8295 19.5092 31.4099C19.5723 31.4309 19.6459 31.4256 19.7089 31.3574C21.0964 29.8784 22.8939 28.8399 24.3655 27.4343C25.8003 26.0706 27.2351 24.6807 28.4124 23.0862C29.5476 21.5442 30.4095 19.7662 30.893 17.9148C31.1716 16.8501 31.3187 15.7644 31.3555 14.6629C31.3766 13.7923 30.9982 12.9584 31.077 12.0982ZM29.3741 9.46001C29.3531 9.28168 29.3321 9.09286 29.3058 8.89356C30.5146 9.3656 30.3937 11.6734 30.3937 12.7014C30.3885 14.8675 29.7683 16.7242 28.775 18.6438C27.6555 20.8047 26.7253 22.9394 25.0487 24.7279C23.9293 25.9185 22.7204 27.0933 21.601 28.3206C22.1581 27.4815 22.7204 26.6475 23.3249 25.8398C24.6703 24.0408 26.247 22.3782 27.3087 20.3851C29.0641 17.0808 29.7578 13.1577 29.3741 9.46001ZM9.71788 1.78148C8.74032 2.52101 7.97299 3.51229 7.67342 4.57701C7.62611 4.74484 7.8889 4.86548 7.96773 4.69764C8.41972 3.69587 9.06092 2.92487 9.89131 2.21681C11.1106 1.17307 12.3667 0.895092 13.9014 0.931806C13.6281 1.2937 13.4074 1.69756 13.2234 2.02799C12.3194 3.68013 11.9883 5.56829 11.8359 7.46695C11.8254 7.46695 11.8202 7.46695 11.8096 7.46695C10.1383 7.99144 8.65623 7.89178 6.95864 7.5666C6.95864 7.5666 6.95864 7.5666 6.95339 7.5666C7.00069 7.20995 7.06376 6.85854 7.13208 6.50188C7.16887 6.33405 6.91134 6.25537 6.86929 6.42846C6.2754 8.96174 6.39628 11.5108 6.81674 14.065C6.83251 14.1647 6.85353 14.2643 6.86929 14.3692C6.83776 14.3482 6.80097 14.3325 6.75367 14.3378C6.18606 14.4059 5.34515 14.5685 4.82483 14.2329C4.32554 11.8045 4.19415 9.41805 4.94571 6.93721C5.53961 5.02807 7.28449 1.52448 9.71788 1.78148ZM2.82767 7.39352C3.25864 6.04033 4.42014 3.93189 5.99159 3.79552C5.81816 4.05252 5.66049 4.30952 5.51858 4.55603C4.33605 6.58056 3.88932 8.87782 3.9629 11.1803C3.48463 11.259 2.79614 11.4321 2.41247 11.0649C2.39145 11.044 2.37043 11.0335 2.3494 11.023C2.29685 9.80617 2.43875 8.59984 2.82767 7.39352ZM6.18606 23.2226C7.1531 25.3048 8.66674 27.3399 10.1699 29.0707C10.2329 29.1441 10.3013 29.2175 10.3696 29.291C9.25538 28.2577 8.20424 27.1563 7.26347 25.9762C7.16361 25.8503 6.98492 26.0076 7.05324 26.1388C7.6629 27.2926 8.69827 28.179 9.6443 29.0654C9.34472 28.8137 9.0504 28.5567 8.76134 28.2944C7.31077 26.9622 5.76034 25.7034 4.36233 24.3293C2.80139 22.7978 2.02355 20.3537 1.27199 18.3606C0.625539 16.6403 0.163039 14.7521 0.562471 12.9426C0.63605 13.7556 0.788465 14.5528 0.925113 15.2241C1.66091 18.7697 3.23762 22.352 5.89174 24.8852C6.05992 25.0426 6.28591 24.8066 6.13875 24.6335C3.99969 22.1002 2.51233 19.5931 1.61361 16.378C1.0092 14.2329 0.189317 10.6978 2.0183 8.90405C1.75551 10.4303 1.8396 12.0615 2.30736 13.4199C2.38094 13.6349 2.69102 13.5458 2.64372 13.3255C2.51233 12.7171 2.41773 12.1087 2.37043 11.5055C2.82242 11.7573 3.48989 11.7625 3.97867 11.6104C4.00495 12.0929 4.0575 12.5755 4.12583 13.058C4.62512 16.4357 5.79188 19.9183 7.28975 22.9813C8.03606 24.5024 8.98734 25.9342 9.80197 27.4185C10.2224 28.1895 10.7007 28.9395 11.242 29.6476C10.8636 29.27 10.4905 28.8871 10.1331 28.4885C8.75083 26.9255 7.34756 24.9587 6.41731 23.081C6.34373 22.9289 6.11773 23.0653 6.18606 23.2226ZM13.7122 36.1932C13.9382 35.4275 14.0643 34.6303 14.2956 33.8645C14.5163 33.9746 14.7738 34.0481 15.0471 34.0953C15.0419 34.1058 15.0366 34.111 15.0366 34.1215C14.7423 35.16 14.7949 36.3401 14.7371 37.41C14.7265 37.6094 15.0366 37.6461 15.0787 37.4573C15.3204 36.403 15.1996 35.2806 15.3572 34.2107C15.3625 34.1844 15.3572 34.1635 15.3572 34.1425C15.4203 34.1477 15.4834 34.1582 15.5517 34.1635C15.5307 35.4432 15.4834 36.723 15.4623 38.008C14.6214 37.9765 13.7858 38.0185 12.9238 38.181C13.1919 37.5202 13.5072 36.8803 13.7122 36.1932ZM15.4571 38.4328C15.4571 38.5902 15.4518 38.7475 15.4518 38.9049C14.6267 38.9678 13.8594 38.6583 13.0657 38.4853C13.791 38.4328 14.5216 38.4538 15.2521 38.4328C15.3257 38.4328 15.3888 38.4328 15.4571 38.4328ZM15.3625 42.4766C15.0156 42.4242 14.653 42.3035 14.3166 42.2091C13.7437 42.0413 12.598 41.4748 12.5244 40.8087C12.4508 40.1269 12.4613 39.4031 12.4824 38.7055C13.3758 38.9888 14.2588 39.2877 15.1996 39.3559C15.3152 39.3664 15.4256 39.3612 15.5412 39.3612C15.415 40.043 15.5149 40.7196 15.5885 41.4067C15.6042 41.5797 15.7409 42.5343 15.3625 42.4766ZM18.621 41.3385C18.5737 42.0413 17.9956 42.0518 17.428 42.1619C16.9129 42.2616 16.4346 42.4661 15.9301 42.6025C16.3348 41.6479 15.7987 40.3419 15.9091 39.3349C16.771 39.2458 17.6382 38.9573 18.4896 38.9101C18.5264 39.723 18.6788 40.5255 18.621 41.3385ZM15.8513 38.8629C15.8513 38.7265 15.8565 38.5849 15.8565 38.4485C16.3295 38.4748 16.7815 38.5429 17.2388 38.6216C16.7815 38.7003 16.319 38.7895 15.8513 38.8629ZM17.6382 35.5481C17.9798 36.4607 18.2321 37.4153 18.4108 38.3751C17.5488 38.2178 16.7079 38.0866 15.8618 38.0289C15.8881 36.7492 15.9248 35.4642 15.9143 34.1844C16.4294 34.2002 16.9077 34.0953 17.3176 33.8802C17.223 34.4519 17.4385 35.0079 17.6382 35.5481ZM15.8565 33.7334C15.3152 33.7491 14.7686 33.6127 14.2798 33.403C13.9487 33.2613 13.8436 32.9886 13.7805 32.7001C13.9014 32.7578 14.0328 32.7998 14.1747 32.826C14.5163 33.0515 14.9 33.1564 15.3362 33.0515C15.3415 33.0515 15.3467 33.0463 15.352 33.0463C15.4834 33.0883 15.6305 33.0935 15.7987 33.0515C15.867 33.0306 15.9301 32.9939 15.9932 32.9519C16.0089 32.9624 16.0247 32.9781 16.0457 32.9834C16.4031 33.1145 16.6712 33.0096 16.8971 32.8103C16.9497 32.8365 17.0128 32.8365 17.0811 32.7945C17.0969 32.7841 17.1074 32.7736 17.1231 32.7683C17.3491 32.8627 17.5804 32.8627 17.8116 32.7998C17.4175 33.4869 16.6869 33.7072 15.8565 33.7334ZM16.3243 32.5585C16.8236 31.7141 17.0285 30.0567 17.1389 29.506C17.2756 28.8137 17.3964 28.1109 17.5015 27.4133C17.7381 27.665 18.0324 27.7699 18.3792 27.8119C18.7314 27.8539 19.1413 27.8906 19.5092 27.8434C19.1413 28.5304 18.7524 29.2018 18.3477 29.8679C18.1322 30.2193 17.0075 32.4169 16.3243 32.5585ZM17.5594 32.3697C17.7906 32.1022 17.9641 31.798 18.1533 31.4728C18.7104 30.5183 19.4829 29.6843 20.1241 28.777C21.4748 26.8731 22.9464 24.922 24.0291 22.8555C25.0277 20.9568 25.8528 18.8746 26.5886 16.8606C27.1773 15.2451 27.6293 13.2049 27.3507 11.4845C27.3244 11.3272 27.0669 11.3639 27.0774 11.5212C27.3244 15.3133 25.3115 19.3414 23.6612 22.6404C22.8045 24.3555 21.5484 25.866 20.492 27.4605C20.0033 28.2 19.4882 28.9186 18.9521 29.6266C19.2412 29.1493 19.525 28.6668 19.793 28.1738C20.5025 26.8573 21.1385 25.4936 21.643 24.088C22.0793 22.866 23.02 21.5495 23.0883 20.2383C23.0989 20.0599 22.8256 20.0285 22.7835 20.1963C22.5155 21.2295 21.9163 22.1212 21.5484 23.123C21.0912 24.3712 20.6234 25.5933 20.0453 26.7944C19.9402 27.0147 19.8246 27.235 19.7142 27.4552C19.7089 27.4552 19.7037 27.45 19.6932 27.4448C19.3831 27.3766 19.0467 27.429 18.7261 27.4185C18.3635 27.408 17.9851 27.3451 17.654 27.1825C17.6119 27.1615 17.5699 27.1615 17.5383 27.1773C17.7591 25.7297 17.9483 24.2716 18.2111 22.8292C18.2531 22.6037 17.9167 22.5041 17.8642 22.7348C17.265 25.5041 17.0863 28.3521 16.319 31.0847C16.2402 31.3522 16.1561 31.6197 16.0562 31.8819C15.9354 32.7211 15.5675 32.7264 14.9578 31.8977C14.7633 31.1529 14.5952 30.4029 14.448 29.6424C14.1589 28.1318 13.975 26.6056 13.7122 25.0898C13.6859 24.9429 13.4284 24.9744 13.4442 25.1265C13.6596 26.978 13.8804 28.8294 14.264 30.6546C14.3481 31.0532 14.469 32.0655 14.8579 32.6477C13.6859 32.4641 12.9449 30.4029 12.5139 29.5322C11.6888 27.8643 11.0633 26.0286 9.94913 24.5286C9.84927 24.3975 9.63379 24.5129 9.72313 24.6597C10.8584 26.5374 11.6309 28.6249 12.577 30.5969C12.5822 30.6074 12.5875 30.6179 12.5927 30.6232C10.8636 28.7455 9.79671 26.4377 8.4933 24.2559C6.96915 21.7068 6.00736 18.9166 5.25054 16.0581C5.13492 15.6228 5.0298 15.1927 4.92995 14.7626C5.49756 14.9776 6.29117 14.8622 6.80097 14.7731C6.85353 14.7626 6.89032 14.7311 6.9166 14.6944C7.12682 15.8221 7.39486 16.9392 7.68393 18.0511C8.04131 19.4148 8.74032 20.9253 8.87697 22.3257C8.89799 22.546 9.19756 22.546 9.21859 22.3257C9.30268 21.4603 8.66148 20.1648 8.40921 19.3047C8.95055 19.6561 9.69685 19.7033 10.3118 19.7243C10.9214 19.7452 11.9305 19.7505 12.5349 19.3833C12.5927 19.8397 12.6453 20.296 12.6716 20.7575C12.6821 20.9621 12.9974 20.9673 12.9922 20.7575C12.9817 20.1911 12.9291 19.6246 12.8503 19.0634C12.8555 19.0267 12.8503 18.9952 12.8398 18.9638C12.6926 17.9672 12.4613 16.9759 12.2248 16.0004C12.1828 15.8273 11.9305 15.9007 11.9621 16.0738C12.146 17.0231 12.33 17.9672 12.4719 18.9166C11.3682 19.3519 9.29217 19.6561 8.33038 18.8484C8.31461 18.8326 8.29359 18.8274 8.27782 18.8169C7.95722 17.6525 7.65765 16.4829 7.38961 15.3081C6.83251 12.8587 6.60125 10.3359 6.90608 7.84458C8.3041 8.5369 10.3486 8.46872 11.7886 7.88654C11.7203 8.93027 11.6888 9.97401 11.6415 10.981C11.6309 11.1961 11.9463 11.1856 11.9726 10.981C12.2038 8.80439 12.146 6.62252 12.6611 4.4826C12.9028 3.49656 13.3128 2.55772 13.8331 1.68707C14.0959 1.25174 14.4217 0.884602 14.8317 0.580398C15.578 0.0191943 16.4241 0.75348 17.0443 1.04719C17.1494 1.0944 17.2703 1.01572 17.2861 0.916071C22.4051 0.884602 23.9818 5.52109 24.129 10.3779C24.1132 10.3779 24.0974 10.3779 24.0764 10.3884C23.3196 10.6716 22.5943 10.787 21.7849 10.8079C21.0859 10.8237 20.2135 11.0177 19.546 10.7398C19.5408 8.82013 19.341 6.8428 18.7629 5.05954C18.6998 4.86548 18.4055 4.94415 18.4581 5.14346C19.1045 7.64003 19.2359 10.1681 19.1098 12.7381C19.0415 14.1227 18.9837 15.5126 18.8102 16.8868C18.7944 16.8868 18.7839 16.8868 18.7682 16.8868C17.4122 17.212 15.4991 17.149 14.1537 16.8029C13.9855 16.7609 13.9224 16.9969 14.0854 17.0599C14.9946 17.406 15.8933 17.406 16.8498 17.4322C17.4648 17.448 18.1848 17.5476 18.7577 17.2749C18.6368 18.1193 18.4739 18.9533 18.2321 19.7715C18.1848 19.9393 18.4265 19.9918 18.4844 19.8397C19.3831 17.6053 19.3358 15.1035 19.4777 12.7328C19.5092 12.2083 19.5302 11.6681 19.5355 11.1226C20.1241 11.3954 20.8599 11.238 21.4854 11.2223C22.3946 11.1961 23.3091 11.1856 24.1342 10.766C24.1763 13.7556 23.698 16.7871 23.1882 18.8064C23.1251 19.0582 23.5035 19.1631 23.5771 18.9113C24.807 14.6472 25.5848 5.08052 21.3802 1.73428C22.9359 1.48252 24.7124 3.13466 25.4954 4.30427C26.4257 5.69417 26.5991 7.36729 26.8882 8.96174C26.9197 9.14531 27.2193 9.10335 27.2141 8.91978C27.1615 7.3096 26.741 5.3585 25.7793 3.96336C28.5805 4.66617 28.9642 8.72572 29.0483 11.0859C29.1639 14.2853 28.1811 17.6892 26.6832 20.5005C25.2274 23.2226 22.8256 25.4779 21.1437 28.0741C20.655 28.8556 18.8207 32.2438 17.5594 32.3697ZM30.5672 17.3431C30.1362 19.3466 29.1902 21.1928 28.0182 22.8607C26.8251 24.5601 25.2695 26.0444 23.7611 27.4605C22.9675 28.2053 22.0477 28.8189 21.1753 29.4798C22.9097 27.5654 24.7964 25.7874 26.4572 23.7995C27.2193 22.8817 27.582 21.754 28.1233 20.7103C28.775 19.4515 29.4898 18.2295 30.0416 16.9182C30.5146 15.8011 30.7301 14.6157 30.7932 13.4147C30.8089 13.4986 30.8247 13.5825 30.8405 13.6612C31.0665 14.8727 30.8247 16.1525 30.5672 17.3431Z" fill="#6976EC"/>
<path d="M19.8134 25.6249C19.661 25.7979 19.4613 26.0917 19.6557 26.3067C19.7713 26.4326 19.9816 26.2752 19.908 26.1284C19.908 26.1284 19.908 26.1284 19.908 26.1231C19.9132 26.0917 19.929 26.0654 19.9448 26.0392C19.9816 25.9658 20.0289 25.8976 20.0709 25.8294C20.1708 25.6668 19.9395 25.4833 19.8134 25.6249Z" fill="#6976EC"/>
<path d="M20.6022 23.5637C20.5391 23.7263 20.4918 23.8837 20.4865 24.0567C20.476 24.298 20.8597 24.298 20.8597 24.0567C20.8597 23.9151 20.8755 23.784 20.907 23.6476C20.9543 23.4483 20.6757 23.3801 20.6022 23.5637Z" fill="#6976EC"/>
<path d="M23.4768 8.64189C23.5346 8.22755 23.482 7.82894 23.4558 7.41459C23.4452 7.22053 23.1614 7.22053 23.1562 7.41459C23.1457 7.8132 23.2298 8.20657 23.214 8.60518C23.2087 8.75728 23.4558 8.794 23.4768 8.64189Z" fill="#6976EC"/>
<path d="M22.5102 5.17487C22.6206 5.28501 22.8098 5.1434 22.731 5.00703C22.5943 4.78675 22.4734 4.55597 22.2685 4.38813C22.1108 4.25177 21.9163 4.45107 22.0425 4.61367C22.1949 4.80248 22.3368 5.00179 22.5102 5.17487Z" fill="#6976EC"/>
<path d="M12.8289 6.43333C12.5608 7.40888 12.461 8.50506 12.5135 9.51208C12.524 9.73237 12.8446 9.73237 12.8604 9.51208C12.9235 8.48933 13.0128 7.48755 13.1284 6.47004C13.1442 6.29696 12.8709 6.27074 12.8289 6.43333Z" fill="#6976EC"/>
<path d="M13.4287 2.60504C13.3341 2.87778 13.1817 3.17149 13.1974 3.47045C13.2079 3.64353 13.4287 3.65927 13.4865 3.50717C13.5916 3.24492 13.6862 2.96694 13.7545 2.68896C13.8071 2.48441 13.497 2.40049 13.4287 2.60504Z" fill="#6976EC"/>
<path d="M8.71398 5.28523C9.01881 4.62437 9.33415 3.98974 9.78614 3.41805C9.90702 3.26594 9.72307 3.07188 9.57066 3.20301C9.01356 3.68029 8.60361 4.45654 8.4039 5.15411C8.3566 5.33243 8.62989 5.45831 8.71398 5.28523Z" fill="#6976EC"/>
<path d="M3.53679 9.51254C3.62088 9.18736 3.65767 8.85693 3.68395 8.52126C3.69972 8.36391 3.43693 8.3272 3.4054 8.48455C3.34233 8.81497 3.21619 9.12967 3.21094 9.46534C3.21094 9.65416 3.49474 9.69612 3.53679 9.51254Z" fill="#6976EC"/>
<path d="M4.55176 21.1405C4.56752 20.9779 4.31 20.9517 4.27321 21.1038C4.15758 21.5443 4.46241 21.7908 4.74096 22.0846C4.89863 22.2524 5.12463 22.0111 4.98798 21.838C4.8198 21.6282 4.52548 21.4394 4.55176 21.1405Z" fill="#6976EC"/>
<path d="M13.0498 26.5634V26.6473C13.0498 26.8151 13.3073 26.8151 13.3073 26.6473V26.5634C13.3073 26.3955 13.0498 26.3955 13.0498 26.5634Z" fill="#6976EC"/>
<path d="M13.8588 31.8664C13.9481 32.0395 14.2057 31.9188 14.1636 31.7353C14.0375 31.195 13.8693 30.6915 13.822 30.1356C13.801 29.8943 13.4173 29.889 13.4383 30.1356C13.4909 30.7177 13.5802 31.3471 13.8588 31.8664Z" fill="#6976EC"/>
<path d="M14.5322 26.6471C14.5322 27.0772 14.5375 27.5021 14.6321 27.9217C14.6741 28.1262 14.9737 28.037 14.9422 27.8377C14.8791 27.4444 14.8738 27.0458 14.8738 26.6471C14.8738 26.4269 14.5322 26.4269 14.5322 26.6471Z" fill="#6976EC"/>
<path d="M15.2933 29.8945C15.2671 29.7109 14.9833 29.7896 15.0095 29.9732C15.0516 30.2774 15.0884 30.5816 15.1725 30.8753C15.225 31.0536 15.4983 30.9802 15.451 30.7966C15.3827 30.5029 15.3406 30.1987 15.2933 29.8945Z" fill="#6976EC"/>
<path d="M23.756 20.532C23.5878 21.1037 23.3933 21.6597 23.1778 22.2156C23.1148 22.373 23.3723 22.4412 23.4354 22.2838C23.6456 21.7279 23.8453 21.1719 24.0082 20.6002C24.0608 20.4376 23.8033 20.3694 23.756 20.532Z" fill="#6976EC"/>
<path d="M24.6016 15.0617C24.4912 15.6176 24.5017 16.1841 24.4386 16.7453C24.4176 16.9079 24.6962 16.9446 24.7277 16.782C24.8223 16.226 24.8538 15.6596 24.9011 15.0984C24.9169 14.9305 24.6331 14.8938 24.6016 15.0617Z" fill="#6976EC"/>
<path d="M27.8291 14.8989C27.9605 14.2328 28.0761 13.5667 28.1234 12.8849C28.1392 12.6751 27.8186 12.6803 27.7976 12.8849C27.745 13.5352 27.6294 14.1751 27.5138 14.815C27.477 15.0143 27.7871 15.1035 27.8291 14.8989Z" fill="#6976EC"/>
<path d="M26.7572 17.4902C26.5522 17.9308 26.3157 18.3556 26.137 18.8014C26.0739 18.9535 26.3262 19.0532 26.3998 18.9116C26.6152 18.492 26.8307 18.0724 27.0252 17.6423C27.104 17.464 26.8412 17.3066 26.7572 17.4902Z" fill="#6976EC"/>
<path d="M27.0515 6.06647C27.0883 6.26577 27.0778 6.47557 27.0988 6.67488C27.1198 6.88467 27.4036 6.88467 27.4246 6.67488C27.4457 6.43885 27.4351 6.20283 27.3878 5.97206C27.3458 5.75177 27.0094 5.84618 27.0515 6.06647Z" fill="#6976EC"/>
<path d="M24.7021 4.06299C24.6023 3.93187 24.3763 4.04726 24.4709 4.19936C24.8283 4.7763 25.1226 5.35848 25.3959 5.97738C25.4695 6.14522 25.7323 6.02459 25.685 5.85675C25.5115 5.19589 25.1068 4.59797 24.7021 4.06299Z" fill="#6976EC"/>
<path d="M20.2182 10.1684C20.2235 9.78555 20.1814 9.40267 20.1919 9.0198C20.1972 8.86245 19.9449 8.82573 19.9186 8.98308C19.8345 9.40792 19.7294 9.838 19.9134 10.2523C19.9817 10.4097 20.2182 10.3205 20.2182 10.1684Z" fill="#6976EC"/>
<path d="M11.6995 16.8607C11.6627 16.6404 11.3264 16.7349 11.3632 16.9551C11.3999 17.2016 11.3999 17.4586 11.4946 17.6947C11.5734 17.894 11.873 17.8205 11.8204 17.6055C11.7626 17.359 11.7416 17.1072 11.6995 16.8607Z" fill="#6976EC"/>
<path d="M14.9945 41.8314C14.6161 41.6321 14.1746 41.5482 13.7594 41.501C13.5755 41.48 13.5334 41.7947 13.7174 41.8209C14.1115 41.8839 14.4742 42.0675 14.8631 42.1514C15.047 42.1986 15.1784 41.9311 14.9945 41.8314Z" fill="#6976EC"/>
<path d="M14.7747 41.213C14.9586 41.2392 15.0427 40.9822 14.8535 40.9245C14.843 40.9245 14.8378 40.9193 14.8325 40.9088C14.6906 40.7567 14.4541 41.0084 14.6118 41.1291C14.6643 41.1763 14.7116 41.2077 14.7747 41.213Z" fill="#6976EC"/>
<path d="M17.5697 39.7128C17.6958 39.7023 17.8062 39.6551 17.9166 39.5974C18.0848 39.5082 17.9376 39.2669 17.7694 39.3456C17.7063 39.3771 17.638 39.4086 17.5697 39.4138C17.37 39.419 17.3752 39.7285 17.5697 39.7128Z" fill="#6976EC"/>
<path d="M17.6117 41.4643C17.454 41.5429 17.5223 41.8262 17.701 41.8052C17.885 41.7842 18.0636 41.737 18.2423 41.7108C18.3002 41.7003 18.3422 41.6321 18.3422 41.5797C18.3422 41.4957 18.2791 41.4538 18.2055 41.4433C18.0006 41.4066 17.8114 41.3646 17.6117 41.4643Z" fill="#6976EC"/>
</svg>
