<svg width="128" height="67" viewBox="0 0 128 67" fill="none" xmlns="http://www.w3.org/2000/svg">
<mask id="mask0" style="mask-type:alpha" maskUnits="userSpaceOnUse" x="0" y="0" width="128" height="63">
<path d="M0 0H128V63H0V0Z" fill="#31C02E"/>
</mask>
<g mask="url(#mask0)">
<g filter="url(#filter0_d)">
<path d="M89.0908 43.2838L89.0914 43.2834C90.5966 42.4696 92.5493 41.1842 94.3 39.6379C96.0414 38.0997 97.6314 36.261 98.3428 34.3315C98.4264 34.107 98.6978 34.039 98.8765 34.1915L108.756 45.7403L108.772 45.7584L108.789 45.775C109.703 46.6572 109.741 48.1271 108.877 49.0573L88.5297 67.3237L88.5178 67.3344L88.5066 67.3458C88.2975 67.5591 87.9257 67.4182 87.9257 67.1011L87.9257 67.1L87.8961 53.8262C87.9101 53.8174 87.9252 53.8081 87.9414 53.7983C88.0337 53.7418 88.1378 53.68 88.2582 53.6086C88.3775 53.5378 88.5126 53.4576 88.6678 53.3639C89.265 53.0032 90.0518 52.5052 90.7597 51.9221C91.4559 51.3486 92.1346 50.6462 92.4444 49.8617C92.6035 49.459 92.6703 49.0221 92.5798 48.5709C92.4892 48.1194 92.2494 47.6953 91.8642 47.3052L91.8638 47.3048L89.2191 44.6316L89.2192 44.6315L89.2141 44.6266C88.9679 44.3847 88.7657 44.0908 88.7175 43.847C88.6964 43.7399 88.7077 43.6587 88.7435 43.588C88.781 43.5139 88.8704 43.4025 89.0908 43.2838Z" stroke="#484751"/>
<path d="M83.9653 55.8487V68.8084C83.9653 69.5458 83.7336 70.1991 83.3821 70.6578C83.0306 71.1164 82.5817 71.3577 82.1273 71.3577H55.9718C55.5173 71.3577 55.0684 71.1164 54.717 70.6578C54.3654 70.1991 54.1338 69.5458 54.1338 68.8084V55.8487C54.1338 55.1112 54.3654 54.4579 54.717 53.9992C55.0684 53.5406 55.5173 53.2993 55.9718 53.2993H56.9774C57.3953 53.2993 57.8265 53.4885 58.1924 53.8541C61.1001 56.7714 65.7504 57.8733 69.5523 57.8733C73.3596 57.8733 77.6343 56.7714 80.4872 53.8669C80.8592 53.4913 81.2897 53.2993 81.715 53.2993H82.1273C82.5817 53.2993 83.0306 53.5406 83.3821 53.9992C83.7336 54.4579 83.9653 55.1112 83.9653 55.8487Z" stroke="#484751"/>
<path d="M48.9082 43.2834L48.9088 43.2838C49.129 43.4024 49.218 43.5136 49.2552 43.5874C49.2908 43.6579 49.3021 43.7393 49.2808 43.847C49.2324 44.0921 49.0303 44.3865 48.7872 44.6299L48.7855 44.6316L46.1408 47.3048L46.1405 47.3052C45.7552 47.6953 45.5154 48.1194 45.4249 48.5709C45.3344 49.0221 45.4012 49.459 45.5602 49.8617C45.8701 50.6462 46.5487 51.3486 47.2449 51.9221C47.9528 52.5052 48.7396 53.0032 49.3368 53.3639C49.492 53.4576 49.6272 53.5378 49.7464 53.6086C49.8668 53.68 49.971 53.7418 50.0632 53.7983C50.0794 53.8081 50.0945 53.8174 50.1086 53.8262L50.079 67.1V67.1011C50.079 67.4182 49.7071 67.5591 49.4981 67.3458L49.4869 67.3344L49.475 67.3237L29.1278 49.0573C28.2635 48.1271 28.3014 46.6572 29.2154 45.775L29.2327 45.7583L29.2482 45.7402L39.1231 34.1914C39.302 34.0388 39.5736 34.1071 39.657 34.332L40.1258 34.1581L39.6567 34.331C40.3679 36.2606 41.958 38.0995 43.6996 39.6379C45.4503 41.1842 47.403 42.4696 48.9082 43.2834Z" stroke="#484751"/>
<path d="M68.4581 51.824L68.4581 51.824L68.451 51.8232C66.0195 51.5725 62.2944 50.5139 59.9934 46.5408C59.7528 46.1242 59.8505 45.6911 60.1448 45.3893C60.4419 45.0847 60.9206 44.9398 61.4143 45.1514C61.648 45.2524 61.8954 45.3635 62.1561 45.4806C63.8941 46.2615 66.2211 47.307 69.0032 47.3622L69.0131 47.3624L69.023 47.3622C71.7895 47.3073 74.107 46.2691 75.8407 45.4924C76.1121 45.3708 76.3692 45.2556 76.6115 45.1516L76.6128 45.151C77.106 44.9376 77.5841 45.0821 77.8812 45.3872C78.1758 45.6897 78.2735 46.1243 78.0328 46.541C75.7325 50.5127 72.0091 51.5719 69.5775 51.823C69.3859 51.841 69.2063 51.8549 69.0272 51.8688C69.0206 51.8693 69.014 51.8698 69.0074 51.8704C68.8331 51.8606 68.649 51.8464 68.4581 51.824Z" stroke="#484751"/>
<mask id="path-6-inside-1" fill="white">
<path fill-rule="evenodd" clip-rule="evenodd" d="M63.0482 2.76101C61.6237 -0.210481 57.4404 -0.143363 57.4404 -0.143363C58.7879 1.13104 59.3353 2.23359 59.4836 3.12305C56.6542 2.70353 52.0318 2.9848 47.5674 7.50057C46.2199 8.86261 44.4249 11.5816 42.9316 14.1532C51.9015 5.22881 62.9681 7.19564 68.9463 12.7861C72.9838 9.76217 81.9537 3.86677 93.1007 12.3897C90.9286 7.50057 88.2386 4.62403 88.2386 4.62403C88.2386 4.62403 91.0794 4.17171 95.5644 6.43839C93.1711 3.71939 86.9666 -0.0516334 82.1447 -0.737736C84.4978 -1.57122 85.5487 -1.87616 85.5487 -1.87616C85.5487 -1.87616 69.8751 -5.34746 63.0482 2.76101Z"/>
</mask>
<path d="M57.4404 -0.143363L57.4244 -1.14323L54.9695 -1.10385L56.7533 0.583175L57.4404 -0.143363ZM63.0482 2.76101L62.1464 3.19329L62.8158 4.58963L63.8132 3.40507L63.0482 2.76101ZM59.4836 3.12305L59.3369 4.11224L60.6958 4.31373L60.47 2.95864L59.4836 3.12305ZM47.5674 7.50057L48.2783 8.20387L48.2786 8.20362L47.5674 7.50057ZM42.9316 14.1532L42.0669 13.6511L43.6369 14.8621L42.9316 14.1532ZM68.9463 12.7861L68.2633 13.5165L68.8752 14.0887L69.5458 13.5865L68.9463 12.7861ZM93.1007 12.3897L92.4933 13.1841L94.0146 11.9837L93.1007 12.3897ZM88.2386 4.62403L88.0814 3.63647L86.2228 3.9324L87.5082 5.30705L88.2386 4.62403ZM95.5644 6.43839L95.1133 7.33088L96.315 5.77766L95.5644 6.43839ZM82.1447 -0.737736L81.8109 -1.68035L82.0039 0.252292L82.1447 -0.737736ZM85.5487 -1.87616L85.8274 -0.915774L85.7649 -2.8525L85.5487 -1.87616ZM57.4404 -0.143363C57.4565 0.856509 57.4561 0.856514 57.4558 0.856519C57.4557 0.85652 57.4554 0.856525 57.4553 0.856527C57.4549 0.856532 57.4546 0.856536 57.4544 0.856539C57.454 0.856545 57.4538 0.856547 57.4538 0.856546C57.454 0.856545 57.455 0.856534 57.457 0.856525C57.4611 0.856507 57.4689 0.856495 57.4802 0.856581C57.5029 0.856752 57.5398 0.857313 57.5891 0.858984C57.688 0.862332 57.8359 0.870101 58.0199 0.887923C58.3904 0.923799 58.8942 0.999202 59.4318 1.155C60.5307 1.47345 61.6112 2.07685 62.1464 3.19329L63.9499 2.32873C63.0606 0.473674 61.3373 -0.375104 59.9885 -0.765971C59.3022 -0.96483 58.6712 -1.05837 58.2127 -1.10276C57.9823 -1.12508 57.7923 -1.13528 57.6568 -1.13987C57.589 -1.14217 57.5346 -1.14307 57.4953 -1.14336C57.4757 -1.14351 57.4598 -1.14351 57.4479 -1.14345C57.442 -1.14343 57.437 -1.14339 57.4331 -1.14335C57.4311 -1.14333 57.4294 -1.14331 57.428 -1.14329C57.4272 -1.14328 57.4266 -1.14327 57.426 -1.14326C57.4257 -1.14325 57.4253 -1.14325 57.4251 -1.14325C57.4248 -1.14324 57.4244 -1.14323 57.4404 -0.143363ZM60.47 2.95864C60.276 1.79477 59.5832 0.506775 58.1276 -0.8699L56.7533 0.583175C57.9927 1.7553 58.3947 2.6724 58.4972 3.28746L60.47 2.95864ZM59.6302 2.13387C56.5589 1.67848 51.5921 2.00716 46.8563 6.79752L48.2786 8.20362C52.4715 3.96245 56.7494 3.72858 59.3369 4.11224L59.6302 2.13387ZM46.8565 6.79727C45.4105 8.25892 43.5608 11.0783 42.0669 13.6511L43.7964 14.6554C45.2891 12.0849 47.0294 9.4663 48.2783 8.20387L46.8565 6.79727ZM43.6369 14.8621C52.1844 6.35803 62.6347 8.25298 68.2633 13.5165L69.6294 12.0557C63.3015 6.1383 51.6187 4.0996 42.2263 13.4443L43.6369 14.8621ZM69.5458 13.5865C71.5379 12.0945 74.6376 9.98227 78.544 9.24026C82.398 8.50823 87.1398 9.09081 92.4933 13.1841L93.7081 11.5953C87.9146 7.16565 82.598 6.43447 78.1708 7.27539C73.7962 8.10633 70.3922 10.4538 68.3469 11.9857L69.5458 13.5865ZM94.0146 11.9837C92.8964 9.46693 91.6451 7.46783 90.6707 6.09472C90.1831 5.40766 89.7638 4.87582 89.4636 4.51268C89.3134 4.33107 89.1929 4.19151 89.1084 4.09571C89.0662 4.0478 89.0329 4.01081 89.0094 3.98496C88.9977 3.97204 88.9884 3.96189 88.9816 3.95456C88.9782 3.95089 88.9755 3.94793 88.9734 3.94567C88.9723 3.94454 88.9715 3.94358 88.9707 3.94281C88.9704 3.94242 88.97 3.94207 88.9698 3.94177C88.9696 3.94162 88.9694 3.94143 88.9694 3.94136C88.9692 3.94117 88.969 3.941 88.2386 4.62403C87.5082 5.30705 87.5081 5.3069 87.508 5.30676C87.508 5.30673 87.5078 5.3066 87.5078 5.30654C87.5077 5.30642 87.5076 5.30634 87.5076 5.3063C87.5075 5.30622 87.5076 5.30632 87.5078 5.30659C87.5083 5.30713 87.5095 5.30837 87.5112 5.31029C87.5148 5.31414 87.5209 5.32075 87.5293 5.33009C87.5463 5.34876 87.573 5.37835 87.6085 5.41865C87.6796 5.49925 87.7862 5.62262 87.9222 5.78708C88.1942 6.11608 88.5832 6.60894 89.0396 7.25216C89.9532 8.5396 91.1329 10.4233 92.1868 12.7957L94.0146 11.9837ZM88.2386 4.62403C88.3959 5.61159 88.3954 5.61166 88.3949 5.61174C88.3948 5.61176 88.3943 5.61183 88.394 5.61188C88.3935 5.61197 88.3929 5.61205 88.3925 5.61213C88.3915 5.61228 88.3907 5.6124 88.39 5.6125C88.3888 5.61269 88.3882 5.61278 88.3882 5.61277C88.3884 5.61275 88.3912 5.61234 88.3967 5.61166C88.4076 5.61028 88.4291 5.60775 88.461 5.60482C88.5246 5.59897 88.6295 5.59154 88.7734 5.58855C89.061 5.58258 89.5048 5.59436 90.0869 5.67235C91.2492 5.82806 92.9728 6.24904 95.1133 7.33088L96.0155 5.54589C93.6711 4.36106 91.7318 3.87485 90.3525 3.69006C89.6637 3.59778 89.117 3.58098 88.7318 3.58898C88.5393 3.59298 88.3872 3.60318 88.278 3.61321C88.2234 3.61823 88.1795 3.6232 88.1466 3.62734C88.1302 3.62941 88.1165 3.63128 88.1056 3.63283C88.1002 3.63361 88.0955 3.63431 88.0914 3.63492C88.0894 3.63522 88.0876 3.6355 88.0859 3.63576C88.085 3.63589 88.0843 3.63602 88.0835 3.63613C88.0831 3.63619 88.0826 3.63627 88.0824 3.6363C88.0819 3.63639 88.0814 3.63647 88.2386 4.62403ZM96.315 5.77766C95.0155 4.30133 92.7599 2.61342 90.2524 1.21468C87.7414 -0.18607 84.8637 -1.36092 82.2856 -1.72776L82.0039 0.252292C84.2476 0.571556 86.8831 1.62526 89.2781 2.9613C91.6767 4.29934 93.7199 5.85644 94.8138 7.09911L96.315 5.77766ZM82.4786 0.204879C83.6472 -0.209046 84.4896 -0.490731 85.0374 -0.668191C85.3112 -0.756918 85.5113 -0.81958 85.6417 -0.859679C85.7069 -0.879728 85.7546 -0.894136 85.7854 -0.903339C85.8008 -0.907941 85.812 -0.911242 85.8189 -0.913296C85.8224 -0.914323 85.8249 -0.915038 85.8263 -0.915449C85.827 -0.915655 85.8274 -0.915784 85.8276 -0.915838C85.8277 -0.915865 85.8277 -0.915873 85.8277 -0.915862C85.8277 -0.915857 85.8276 -0.915847 85.8276 -0.915832C85.8275 -0.915825 85.8275 -0.91581 85.8275 -0.915807C85.8274 -0.915791 85.8274 -0.915774 85.5487 -1.87616C85.27 -2.83654 85.2699 -2.83652 85.2699 -2.8365C85.2698 -2.83649 85.2698 -2.83647 85.2697 -2.83645C85.2696 -2.83642 85.2695 -2.83638 85.2693 -2.83634C85.269 -2.83625 85.2687 -2.83615 85.2682 -2.83603C85.2674 -2.83578 85.2663 -2.83546 85.2649 -2.83506C85.2622 -2.83427 85.2585 -2.83317 85.2537 -2.83176C85.2441 -2.82894 85.2304 -2.82488 85.2125 -2.81951C85.1766 -2.80879 85.1238 -2.79286 85.0537 -2.7713C84.9135 -2.72817 84.7039 -2.66251 84.4209 -2.57082C83.8549 -2.38744 82.9954 -2.09991 81.8109 -1.68035L82.4786 0.204879ZM85.5487 -1.87616C85.7649 -2.8525 85.7646 -2.85257 85.7642 -2.85266C85.764 -2.85271 85.7635 -2.85281 85.7631 -2.8529C85.7622 -2.85309 85.7611 -2.85333 85.7598 -2.85362C85.7572 -2.8542 85.7536 -2.85499 85.749 -2.85597C85.7399 -2.85794 85.7271 -2.8607 85.7106 -2.8642C85.6776 -2.87118 85.6299 -2.8811 85.5683 -2.8935C85.4452 -2.91828 85.2665 -2.95296 85.038 -2.99384C84.5813 -3.07557 83.9253 -3.18222 83.1181 -3.284C81.5062 -3.48726 79.2796 -3.67266 76.828 -3.59778C71.9835 -3.44983 65.9821 -2.2763 62.2832 2.11695L63.8132 3.40507C66.9412 -0.310151 72.19 -1.45521 76.889 -1.59872C79.2092 -1.66957 81.3277 -1.49393 82.8679 -1.29971C83.6368 -1.20275 84.2586 -1.10155 84.6857 -1.02512C84.8992 -0.986912 85.0638 -0.954936 85.1736 -0.932828C85.2286 -0.921776 85.2697 -0.913194 85.2965 -0.907539C85.3098 -0.904711 85.3196 -0.902616 85.3256 -0.901309C85.3286 -0.900656 85.3307 -0.9002 85.3318 -0.899949C85.3324 -0.899823 85.3327 -0.899749 85.3329 -0.899726C85.3329 -0.899715 85.3328 -0.899737 85.3328 -0.899732C85.3327 -0.899767 85.3324 -0.899816 85.5487 -1.87616Z" fill="#484751" mask="url(#path-6-inside-1)"/>
<path d="M81.0664 19.6972C81.4586 19.372 81.0161 18.5537 80.3575 18.4216C80.3525 18.4216 80.3474 18.4216 80.3424 18.4165C79.1307 18.1878 76.6971 18.1167 74.8569 20.5409C73.2228 22.6957 73.5898 24.7947 74.0675 26.0246L74.0775 26.0449C74.4647 27.0207 75.9027 27.4476 76.1692 26.665C76.1692 26.665 74.6608 24.3017 76.7021 21.6132C78.7435 18.9247 81.0664 19.6972 81.0664 19.6972Z" fill="#484751"/>
<path d="M54.0108 19.5302C54.4029 19.205 53.9605 18.3867 53.3018 18.2546C53.2968 18.2546 53.2918 18.2546 53.2867 18.2495C52.075 18.0208 49.6415 17.9497 47.8012 20.3739C46.1671 22.5288 46.5342 24.6277 47.0118 25.8576L47.0219 25.878C47.409 26.8537 48.847 27.2807 49.1135 26.498C49.1135 26.498 47.6051 24.1347 49.6465 21.4462C51.6878 18.7577 54.0108 19.5302 54.0108 19.5302Z" fill="#484751"/>
<path d="M70.9056 29.1392L70.9055 29.1385C70.7641 28.4083 70.6852 27.6547 70.6852 26.8836C70.6852 20.4986 75.8113 15.3094 82.1411 15.3094C88.471 15.3094 93.5971 20.4986 93.5971 26.8836C93.5971 30.053 92.3309 32.9319 90.2867 35.0194L90.2849 35.0212L90.2744 35.0319L90.2695 35.0368L90.2648 35.0415L90.2601 35.0463L90.2577 35.0488L90.2552 35.0512L90.2527 35.0538L90.2514 35.0551L90.2501 35.0564L90.2495 35.057L90.2488 35.0577L90.2485 35.0581L90.2484 35.0581L90.2483 35.0582L90.2481 35.0584L90.2475 35.0591L90.2461 35.0605L90.2459 35.0606L90.2457 35.0608L90.2456 35.061L90.2454 35.0612L90.245 35.0615L90.2447 35.0619C88.1742 37.1547 85.3079 38.4526 82.1416 38.4527L70.9056 29.1392ZM70.9056 29.1392C71.9403 34.4482 76.5792 38.4578 82.1411 38.4527L70.9056 29.1392ZM96.5441 24.358L96.5447 24.362C96.6563 25.0925 96.7098 25.8437 96.7049 26.6008V26.6041C96.7049 29.1133 96.0919 31.4628 95.0027 33.532L95.0003 33.5367C94.9338 33.6662 94.8579 33.8054 94.7825 33.9339L94.7825 33.9339L94.7793 33.9394C94.3712 34.6564 93.9054 35.3381 93.3872 35.97C93.2317 36.1526 93.0817 36.3286 92.9228 36.5038L92.9224 36.5043C92.768 36.6749 92.613 36.8366 92.4474 37.0091C92.4465 37.01 92.4457 37.0109 92.4448 37.0118L92.4349 37.0217L92.4198 37.0369L92.4198 37.0368L92.4133 37.0437C92.3193 37.1423 92.2212 37.2336 92.1118 37.3353C92.0841 37.361 92.0556 37.3875 92.0264 37.4148L92.0193 37.4214L92.0126 37.4282C91.9595 37.4819 91.9061 37.5286 91.832 37.5936L91.8224 37.602L91.8223 37.602L91.8182 37.6057C91.6051 37.7966 91.3763 37.9885 91.1466 38.1713L91.1466 38.1713L91.1406 38.1762C90.9897 38.3001 90.838 38.4152 90.6748 38.5316L90.6748 38.5316L90.6699 38.5352C90.5281 38.639 90.384 38.7409 90.2467 38.8318L90.2467 38.8317L90.2405 38.8359C87.9284 40.4169 85.1353 41.3304 82.1411 41.3304C76.7826 41.3304 72.0913 38.3993 69.5667 34.033L69.5667 34.033L69.5638 34.0281C69.5544 34.0123 69.5455 33.9974 69.5371 33.9833C69.4988 33.9191 69.4702 33.8713 69.4462 33.8228L69.4414 33.8131L69.4362 33.8036C69.4211 33.7762 69.4051 33.7481 69.3917 33.7248C69.3774 33.6998 69.3658 33.6796 69.3558 33.6613L68.9245 32.8766L68.4827 33.6555C65.9726 38.0807 61.2522 41.056 55.8499 41.056C53.3856 41.056 51.0685 40.4372 49.0326 39.342L49.0313 39.3413C44.4235 36.8799 41.2861 31.98 41.2861 26.3296C41.2861 18.1895 47.8099 11.5981 55.8549 11.5981C60.4266 11.5981 64.4993 13.7286 67.1698 17.0622L67.1758 17.0696L67.182 17.0768L67.1933 17.0899C67.2272 17.129 67.2526 17.1583 67.2744 17.1866L67.2744 17.1867L67.2768 17.1897C67.754 17.8 68.1869 18.4491 68.5659 19.1319L68.5752 19.1486L68.5857 19.1645C68.5943 19.1775 68.6065 19.2002 68.6208 19.2328L69.0121 20.1228L69.5084 19.2867C69.5214 19.265 69.5332 19.243 69.5399 19.2305L69.5411 19.2283C69.5498 19.2123 69.5523 19.2077 69.5537 19.2054L69.5537 19.2054L69.557 19.1999C72.082 14.8182 76.7734 11.8726 82.1512 11.8726C87.6428 11.8726 92.4186 14.9374 94.8907 19.4806C94.9525 19.605 95.0181 19.7288 95.0806 19.8468C95.101 19.8852 95.121 19.923 95.1405 19.9601C95.2256 20.1321 95.3063 20.2955 95.3817 20.4624L95.3817 20.4624L95.3847 20.4688C95.5188 20.7545 95.6396 21.0472 95.7519 21.3434L95.7525 21.3449C95.8107 21.4968 95.8638 21.6434 95.917 21.7997L95.9169 21.7997L95.9212 21.8114C95.9946 22.0109 96.0553 22.2177 96.1213 22.4436C96.13 22.474 96.1386 22.5037 96.147 22.5328C96.1825 22.6554 96.215 22.768 96.2449 22.8841C96.2514 22.9153 96.2577 22.9406 96.262 22.9582L96.2632 22.9631C96.319 23.1793 96.3723 23.3946 96.4133 23.6026V23.6067L96.422 23.6529C96.4673 23.8917 96.5107 24.126 96.5441 24.358ZM62.4117 16.7787L62.4029 16.7728L62.3939 16.7672C62.3791 16.7579 62.3664 16.7491 62.3428 16.7327C62.3367 16.7284 62.3299 16.7237 62.3222 16.7183C62.2937 16.6985 62.2524 16.6701 62.2032 16.642C60.3678 15.4427 58.1918 14.7503 55.8499 14.7503C49.3642 14.7503 44.1174 20.0615 44.1174 26.6041C44.1174 33.1466 49.3642 38.4578 55.8499 38.4578C57.5273 38.4578 59.1181 38.1025 60.5643 37.4592C60.5934 37.4493 60.6168 37.4385 60.6332 37.4302C60.6375 37.428 60.6414 37.426 60.6448 37.4241C64.7314 35.5724 67.5774 31.4227 67.5774 26.6041C67.5774 22.5154 65.5306 18.907 62.4117 16.7787Z" stroke="black"/>
</g>
</g>
<defs>
<filter id="filter0_d" x="27.0039" y="-2.61475" width="83.9968" height="76.4724" filterUnits="userSpaceOnUse" color-interpolation-filters="sRGB">
<feFlood flood-opacity="0" result="BackgroundImageFix"/>
<feColorMatrix in="SourceAlpha" type="matrix" values="0 0 0 0 0 0 0 0 0 0 0 0 0 0 0 0 0 0 127 0" result="hardAlpha"/>
<feOffset dy="1"/>
<feGaussianBlur stdDeviation="0.5"/>
<feColorMatrix type="matrix" values="0 0 0 0 0 0 0 0 0 0 0 0 0 0 0 0 0 0 0.15 0"/>
<feBlend mode="normal" in2="BackgroundImageFix" result="effect1_dropShadow"/>
<feBlend mode="normal" in="SourceGraphic" in2="effect1_dropShadow" result="shape"/>
</filter>
</defs>
</svg>
