<svg width="178" height="60" viewBox="0 0 178 60" fill="none" xmlns="http://www.w3.org/2000/svg">
<g filter="url(#filter0_d)">
<path fill-rule="evenodd" clip-rule="evenodd" d="M21 37C11.0589 37 3 28.9411 3 19C3 9.05888 11.0589 1 21 1H149C158.941 1 167 9.05888 167 19C167 28.9411 158.941 37 149 37H38.5149C38.468 37.379 38.0976 38.0269 37.5927 38.9103C35.8586 41.9441 32.5364 47.7563 35.2653 55C32.0146 53.872 26.162 48.0979 22.4322 37H21Z" fill="white"/>
<path d="M38.5149 37V36C38.0102 36 37.5846 36.3761 37.5225 36.877L38.5149 37ZM37.5927 38.9103L36.7245 38.4141V38.4141L37.5927 38.9103ZM35.2653 55L34.9375 55.9447C35.304 56.0719 35.711 55.9756 35.9817 55.6977C36.2524 55.4199 36.3379 55.0105 36.2011 54.6475L35.2653 55ZM22.4322 37L23.3801 36.6814C23.2433 36.2743 22.8618 36 22.4322 36V37ZM2 19C2 29.4934 10.5066 38 21 38V36C11.6112 36 4 28.3888 4 19H2ZM21 0C10.5066 0 2 8.50659 2 19H4C4 9.61116 11.6112 2 21 2V0ZM149 0H21V2H149V0ZM168 19C168 8.50659 159.493 0 149 0V2C158.389 2 166 9.61116 166 19H168ZM149 38C159.493 38 168 29.4934 168 19H166C166 28.3888 158.389 36 149 36V38ZM38.5149 38H149V36H38.5149V38ZM38.4608 39.4066C38.7088 38.9727 38.9424 38.5648 39.1181 38.217C39.2787 37.8991 39.4602 37.5033 39.5074 37.123L37.5225 36.877C37.5227 36.8757 37.4956 36.9933 37.333 37.315C37.1856 37.6068 36.9815 37.9645 36.7245 38.4141L38.4608 39.4066ZM36.2011 54.6475C33.6502 47.8762 36.7256 42.4424 38.4608 39.4066L36.7245 38.4141C34.9915 41.4459 31.4226 47.6364 34.3295 55.3525L36.2011 54.6475ZM21.4843 37.3186C23.3823 42.9658 25.8297 47.2872 28.2422 50.3567C30.6312 53.3963 33.0524 55.2906 34.9375 55.9447L35.5932 54.0553C34.2275 53.5814 32.097 52.0247 29.8146 49.1208C27.5557 46.2467 25.212 42.132 23.3801 36.6814L21.4843 37.3186ZM21 38H22.4322V36H21V38Z" fill="#484751"/>
<path d="M24.424 17.596C24.844 16.896 25.2547 16.1867 25.656 15.468C26.0573 14.7493 26.4213 14.026 26.748 13.298H28.708C28.1853 14.2873 27.6393 15.272 27.07 16.252C26.51 17.2227 25.908 18.2027 25.264 19.192V23H23.5V19.22C22.856 18.2213 22.2493 17.232 21.68 16.252C21.1107 15.272 20.5647 14.2873 20.042 13.298H22.114C22.4407 14.026 22.8 14.7493 23.192 15.468C23.584 16.1867 23.9947 16.896 24.424 17.596ZM28.7111 19.374C28.7111 18.73 28.8044 18.1653 28.9911 17.68C29.1871 17.1947 29.4437 16.7933 29.7611 16.476C30.0784 16.1493 30.4424 15.9067 30.8531 15.748C31.2637 15.58 31.6837 15.496 32.1131 15.496C33.1211 15.496 33.9051 15.8087 34.4651 16.434C35.0344 17.0593 35.3191 17.9927 35.3191 19.234C35.3191 19.3273 35.3144 19.4347 35.3051 19.556C35.3051 19.668 35.3004 19.7707 35.2911 19.864H30.4611C30.5077 20.452 30.7131 20.9093 31.0771 21.236C31.4504 21.5533 31.9871 21.712 32.6871 21.712C33.0977 21.712 33.4711 21.6747 33.8071 21.6C34.1524 21.5253 34.4231 21.446 34.6191 21.362L34.8431 22.748C34.7497 22.7947 34.6191 22.846 34.4511 22.902C34.2924 22.9487 34.1057 22.9907 33.8911 23.028C33.6857 23.0747 33.4617 23.112 33.2191 23.14C32.9764 23.168 32.7291 23.182 32.4771 23.182C31.8331 23.182 31.2731 23.0887 30.7971 22.902C30.3211 22.706 29.9291 22.44 29.6211 22.104C29.3131 21.7587 29.0844 21.3573 28.9351 20.9C28.7857 20.4333 28.7111 19.9247 28.7111 19.374ZM33.6251 18.618C33.6251 18.3847 33.5924 18.1653 33.5271 17.96C33.4617 17.7453 33.3637 17.5633 33.2331 17.414C33.1117 17.2553 32.9577 17.134 32.7711 17.05C32.5937 16.9567 32.3791 16.91 32.1271 16.91C31.8657 16.91 31.6371 16.9613 31.4411 17.064C31.2451 17.1573 31.0771 17.2833 30.9371 17.442C30.8064 17.6007 30.7037 17.7827 30.6291 17.988C30.5544 18.1933 30.5031 18.4033 30.4751 18.618H33.6251ZM38.9491 21.782C39.3971 21.782 39.7238 21.7307 39.9291 21.628C40.1344 21.516 40.2371 21.3293 40.2371 21.068C40.2371 20.8253 40.1251 20.6247 39.9011 20.466C39.6864 20.3073 39.3271 20.1347 38.8231 19.948C38.5151 19.836 38.2304 19.7193 37.9691 19.598C37.7171 19.4673 37.4978 19.318 37.3111 19.15C37.1244 18.982 36.9751 18.7813 36.8631 18.548C36.7604 18.3053 36.7091 18.0113 36.7091 17.666C36.7091 16.994 36.9564 16.4667 37.4511 16.084C37.9458 15.692 38.6178 15.496 39.4671 15.496C39.8964 15.496 40.3071 15.538 40.6991 15.622C41.0911 15.6967 41.3851 15.7713 41.5811 15.846L41.2731 17.218C41.0864 17.134 40.8484 17.0593 40.5591 16.994C40.2698 16.9193 39.9338 16.882 39.5511 16.882C39.2058 16.882 38.9258 16.9427 38.7111 17.064C38.4964 17.176 38.3891 17.3533 38.3891 17.596C38.3891 17.7173 38.4078 17.8247 38.4451 17.918C38.4918 18.0113 38.5664 18.1 38.6691 18.184C38.7718 18.2587 38.9071 18.338 39.0751 18.422C39.2431 18.4967 39.4484 18.576 39.6911 18.66C40.0924 18.8093 40.4331 18.9587 40.7131 19.108C40.9931 19.248 41.2218 19.4113 41.3991 19.598C41.5858 19.7753 41.7211 19.9807 41.8051 20.214C41.8891 20.4473 41.9311 20.7273 41.9311 21.054C41.9311 21.754 41.6698 22.286 41.1471 22.65C40.6338 23.0047 39.8964 23.182 38.9351 23.182C38.2911 23.182 37.7731 23.126 37.3811 23.014C36.9891 22.9113 36.7138 22.8273 36.5551 22.762L36.8491 21.348C37.1011 21.4507 37.3998 21.5487 37.7451 21.642C38.0998 21.7353 38.5011 21.782 38.9491 21.782ZM45.4875 15.902C45.4875 16.6767 45.4595 17.386 45.4035 18.03C45.3475 18.674 45.2775 19.3227 45.1935 19.976H43.9895C43.8962 19.3227 43.8215 18.674 43.7655 18.03C43.7095 17.3767 43.6815 16.6673 43.6815 15.902V13.298H45.4875V15.902ZM45.6975 22.076C45.6975 22.4027 45.5902 22.6687 45.3755 22.874C45.1609 23.0793 44.8949 23.182 44.5775 23.182C44.2695 23.182 44.0035 23.0793 43.7795 22.874C43.5649 22.6687 43.4575 22.4027 43.4575 22.076C43.4575 21.7493 43.5649 21.4833 43.7795 21.278C44.0035 21.0633 44.2695 20.956 44.5775 20.956C44.8949 20.956 45.1609 21.0633 45.3755 21.278C45.5902 21.4833 45.6975 21.7493 45.6975 22.076ZM51.1444 13.298H52.9084V23H51.1444V13.298ZM55.0643 13.746L56.7583 13.466V15.678H59.3623V17.092H56.7583V20.074C56.7583 20.662 56.8516 21.082 57.0383 21.334C57.225 21.586 57.5423 21.712 57.9903 21.712C58.2983 21.712 58.569 21.6793 58.8023 21.614C59.045 21.5487 59.2363 21.488 59.3763 21.432L59.6563 22.776C59.4603 22.86 59.2036 22.944 58.8863 23.028C58.569 23.1213 58.1956 23.168 57.7663 23.168C57.2436 23.168 56.805 23.098 56.4503 22.958C56.105 22.818 55.8296 22.6173 55.6243 22.356C55.419 22.0853 55.2743 21.7633 55.1903 21.39C55.1063 21.0073 55.0643 20.5733 55.0643 20.088V13.746ZM62.6239 12.388C62.6332 12.5 62.6379 12.6167 62.6379 12.738C62.6472 12.8593 62.6472 12.9573 62.6379 13.032C62.6192 13.592 62.5072 14.1333 62.3019 14.656C62.1059 15.1693 61.8632 15.6267 61.5739 16.028L60.3419 15.706C60.5285 15.2953 60.6732 14.8613 60.7759 14.404C60.8785 13.9467 60.9299 13.508 60.9299 13.088C60.9299 13.0227 60.9252 12.92 60.9159 12.78C60.9159 12.64 60.9065 12.5093 60.8879 12.388H62.6239ZM66.3612 21.782C66.8092 21.782 67.1359 21.7307 67.3412 21.628C67.5466 21.516 67.6492 21.3293 67.6492 21.068C67.6492 20.8253 67.5372 20.6247 67.3132 20.466C67.0986 20.3073 66.7392 20.1347 66.2352 19.948C65.9272 19.836 65.6426 19.7193 65.3812 19.598C65.1292 19.4673 64.9099 19.318 64.7232 19.15C64.5366 18.982 64.3872 18.7813 64.2752 18.548C64.1726 18.3053 64.1212 18.0113 64.1212 17.666C64.1212 16.994 64.3686 16.4667 64.8632 16.084C65.3579 15.692 66.0299 15.496 66.8792 15.496C67.3086 15.496 67.7192 15.538 68.1112 15.622C68.5032 15.6967 68.7972 15.7713 68.9932 15.846L68.6852 17.218C68.4986 17.134 68.2606 17.0593 67.9712 16.994C67.6819 16.9193 67.3459 16.882 66.9632 16.882C66.6179 16.882 66.3379 16.9427 66.1232 17.064C65.9086 17.176 65.8012 17.3533 65.8012 17.596C65.8012 17.7173 65.8199 17.8247 65.8572 17.918C65.9039 18.0113 65.9786 18.1 66.0812 18.184C66.1839 18.2587 66.3192 18.338 66.4872 18.422C66.6552 18.4967 66.8606 18.576 67.1032 18.66C67.5046 18.8093 67.8452 18.9587 68.1252 19.108C68.4052 19.248 68.6339 19.4113 68.8112 19.598C68.9979 19.7753 69.1332 19.9807 69.2172 20.214C69.3012 20.4473 69.3432 20.7273 69.3432 21.054C69.3432 21.754 69.0819 22.286 68.5592 22.65C68.0459 23.0047 67.3086 23.182 66.3472 23.182C65.7032 23.182 65.1852 23.126 64.7932 23.014C64.4012 22.9113 64.1259 22.8273 63.9672 22.762L64.2612 21.348C64.5132 21.4507 64.8119 21.5487 65.1572 21.642C65.5119 21.7353 65.9132 21.782 66.3612 21.782ZM77.1752 12.136C77.5672 12.136 77.9126 12.1733 78.2112 12.248C78.5099 12.3133 78.7339 12.374 78.8832 12.43L78.5612 13.83C78.4026 13.7553 78.2159 13.6947 78.0012 13.648C77.7959 13.6013 77.5719 13.578 77.3292 13.578C77.0586 13.578 76.8299 13.62 76.6432 13.704C76.4566 13.7787 76.3072 13.886 76.1952 14.026C76.0832 14.166 76.0039 14.3387 75.9572 14.544C75.9106 14.74 75.8872 14.9547 75.8872 15.188V15.678H78.5472V17.092H75.8872V23H74.1932V15.16C74.1932 14.2173 74.4406 13.48 74.9352 12.948C75.4299 12.4067 76.1766 12.136 77.1752 12.136ZM83.9707 17.204C83.8307 17.1573 83.6347 17.1107 83.3827 17.064C83.14 17.008 82.8554 16.98 82.5287 16.98C82.342 16.98 82.1414 16.9987 81.9267 17.036C81.7214 17.0733 81.5767 17.106 81.4927 17.134V23H79.7987V16.028C80.1254 15.9067 80.5314 15.7947 81.0167 15.692C81.5114 15.58 82.0574 15.524 82.6547 15.524C82.7667 15.524 82.8974 15.5333 83.0467 15.552C83.196 15.5613 83.3454 15.58 83.4947 15.608C83.644 15.6267 83.7887 15.6547 83.9287 15.692C84.0687 15.72 84.1807 15.748 84.2647 15.776L83.9707 17.204ZM85.0392 19.374C85.0392 18.73 85.1325 18.1653 85.3192 17.68C85.5152 17.1947 85.7719 16.7933 86.0892 16.476C86.4065 16.1493 86.7705 15.9067 87.1812 15.748C87.5919 15.58 88.0119 15.496 88.4412 15.496C89.4492 15.496 90.2332 15.8087 90.7932 16.434C91.3625 17.0593 91.6472 17.9927 91.6472 19.234C91.6472 19.3273 91.6425 19.4347 91.6332 19.556C91.6332 19.668 91.6285 19.7707 91.6192 19.864H86.7892C86.8359 20.452 87.0412 20.9093 87.4052 21.236C87.7785 21.5533 88.3152 21.712 89.0152 21.712C89.4259 21.712 89.7992 21.6747 90.1352 21.6C90.4805 21.5253 90.7512 21.446 90.9472 21.362L91.1712 22.748C91.0779 22.7947 90.9472 22.846 90.7792 22.902C90.6205 22.9487 90.4339 22.9907 90.2192 23.028C90.0139 23.0747 89.7899 23.112 89.5472 23.14C89.3045 23.168 89.0572 23.182 88.8052 23.182C88.1612 23.182 87.6012 23.0887 87.1252 22.902C86.6492 22.706 86.2572 22.44 85.9492 22.104C85.6412 21.7587 85.4125 21.3573 85.2632 20.9C85.1139 20.4333 85.0392 19.9247 85.0392 19.374ZM89.9532 18.618C89.9532 18.3847 89.9205 18.1653 89.8552 17.96C89.7899 17.7453 89.6919 17.5633 89.5612 17.414C89.4399 17.2553 89.2859 17.134 89.0992 17.05C88.9219 16.9567 88.7072 16.91 88.4552 16.91C88.1939 16.91 87.9652 16.9613 87.7692 17.064C87.5732 17.1573 87.4052 17.2833 87.2652 17.442C87.1345 17.6007 87.0319 17.7827 86.9572 17.988C86.8825 18.1933 86.8312 18.4033 86.8032 18.618H89.9532ZM93.0372 19.374C93.0372 18.73 93.1306 18.1653 93.3172 17.68C93.5132 17.1947 93.7699 16.7933 94.0872 16.476C94.4046 16.1493 94.7686 15.9067 95.1792 15.748C95.5899 15.58 96.0099 15.496 96.4392 15.496C97.4472 15.496 98.2312 15.8087 98.7912 16.434C99.3606 17.0593 99.6452 17.9927 99.6452 19.234C99.6452 19.3273 99.6406 19.4347 99.6312 19.556C99.6312 19.668 99.6266 19.7707 99.6172 19.864H94.7872C94.8339 20.452 95.0392 20.9093 95.4032 21.236C95.7766 21.5533 96.3132 21.712 97.0132 21.712C97.4239 21.712 97.7972 21.6747 98.1332 21.6C98.4786 21.5253 98.7492 21.446 98.9452 21.362L99.1692 22.748C99.0759 22.7947 98.9452 22.846 98.7772 22.902C98.6186 22.9487 98.4319 22.9907 98.2172 23.028C98.0119 23.0747 97.7879 23.112 97.5452 23.14C97.3026 23.168 97.0552 23.182 96.8032 23.182C96.1592 23.182 95.5992 23.0887 95.1232 22.902C94.6472 22.706 94.2552 22.44 93.9472 22.104C93.6392 21.7587 93.4106 21.3573 93.2612 20.9C93.1119 20.4333 93.0372 19.9247 93.0372 19.374ZM97.9512 18.618C97.9512 18.3847 97.9186 18.1653 97.8532 17.96C97.7879 17.7453 97.6899 17.5633 97.5592 17.414C97.4379 17.2553 97.2839 17.134 97.0972 17.05C96.9199 16.9567 96.7052 16.91 96.4532 16.91C96.1919 16.91 95.9632 16.9613 95.7672 17.064C95.5712 17.1573 95.4032 17.2833 95.2632 17.442C95.1326 17.6007 95.0299 17.7827 94.9552 17.988C94.8806 18.1933 94.8292 18.4033 94.8012 18.618H97.9512ZM104.625 13.746L106.319 13.466V15.678H108.923V17.092H106.319V20.074C106.319 20.662 106.412 21.082 106.599 21.334C106.786 21.586 107.103 21.712 107.551 21.712C107.859 21.712 108.13 21.6793 108.363 21.614C108.606 21.5487 108.797 21.488 108.937 21.432L109.217 22.776C109.021 22.86 108.764 22.944 108.447 23.028C108.13 23.1213 107.756 23.168 107.327 23.168C106.804 23.168 106.366 23.098 106.011 22.958C105.666 22.818 105.39 22.6173 105.185 22.356C104.98 22.0853 104.835 21.7633 104.751 21.39C104.667 21.0073 104.625 20.5733 104.625 20.088V13.746ZM117.018 19.332C117.018 19.9107 116.934 20.438 116.766 20.914C116.598 21.39 116.36 21.796 116.052 22.132C115.744 22.468 115.371 22.7293 114.932 22.916C114.503 23.1027 114.027 23.196 113.504 23.196C112.982 23.196 112.506 23.1027 112.076 22.916C111.647 22.7293 111.278 22.468 110.97 22.132C110.662 21.796 110.42 21.39 110.242 20.914C110.074 20.438 109.99 19.9107 109.99 19.332C109.99 18.7533 110.074 18.2307 110.242 17.764C110.42 17.288 110.662 16.882 110.97 16.546C111.288 16.21 111.661 15.9533 112.09 15.776C112.52 15.5893 112.991 15.496 113.504 15.496C114.018 15.496 114.489 15.5893 114.918 15.776C115.357 15.9533 115.73 16.21 116.038 16.546C116.346 16.882 116.584 17.288 116.752 17.764C116.93 18.2307 117.018 18.7533 117.018 19.332ZM115.282 19.332C115.282 18.604 115.124 18.03 114.806 17.61C114.498 17.1807 114.064 16.966 113.504 16.966C112.944 16.966 112.506 17.1807 112.188 17.61C111.88 18.03 111.726 18.604 111.726 19.332C111.726 20.0693 111.88 20.6527 112.188 21.082C112.506 21.5113 112.944 21.726 113.504 21.726C114.064 21.726 114.498 21.5113 114.806 21.082C115.124 20.6527 115.282 20.0693 115.282 19.332ZM121.093 25.604C120.972 25.604 120.804 25.59 120.589 25.562C120.365 25.5433 120.169 25.5013 120.001 25.436L120.225 24.05C120.43 24.1153 120.678 24.148 120.967 24.148C121.359 24.148 121.634 24.0313 121.793 23.798C121.952 23.574 122.031 23.2333 122.031 22.776V15.678H123.725V22.804C123.725 23.756 123.496 24.4607 123.039 24.918C122.591 25.3753 121.942 25.604 121.093 25.604ZM123.907 13.536C123.907 13.8533 123.804 14.1053 123.599 14.292C123.394 14.4787 123.151 14.572 122.871 14.572C122.582 14.572 122.334 14.4787 122.129 14.292C121.924 14.1053 121.821 13.8533 121.821 13.536C121.821 13.2093 121.924 12.9527 122.129 12.766C122.334 12.5793 122.582 12.486 122.871 12.486C123.151 12.486 123.394 12.5793 123.599 12.766C123.804 12.9527 123.907 13.2093 123.907 13.536ZM132.509 19.332C132.509 19.9107 132.425 20.438 132.257 20.914C132.089 21.39 131.851 21.796 131.543 22.132C131.235 22.468 130.861 22.7293 130.423 22.916C129.993 23.1027 129.517 23.196 128.995 23.196C128.472 23.196 127.996 23.1027 127.567 22.916C127.137 22.7293 126.769 22.468 126.461 22.132C126.153 21.796 125.91 21.39 125.733 20.914C125.565 20.438 125.481 19.9107 125.481 19.332C125.481 18.7533 125.565 18.2307 125.733 17.764C125.91 17.288 126.153 16.882 126.461 16.546C126.778 16.21 127.151 15.9533 127.581 15.776C128.01 15.5893 128.481 15.496 128.995 15.496C129.508 15.496 129.979 15.5893 130.409 15.776C130.847 15.9533 131.221 16.21 131.529 16.546C131.837 16.882 132.075 17.288 132.243 17.764C132.42 18.2307 132.509 18.7533 132.509 19.332ZM130.773 19.332C130.773 18.604 130.614 18.03 130.297 17.61C129.989 17.1807 129.555 16.966 128.995 16.966C128.435 16.966 127.996 17.1807 127.679 17.61C127.371 18.03 127.217 18.604 127.217 19.332C127.217 20.0693 127.371 20.6527 127.679 21.082C127.996 21.5113 128.435 21.726 128.995 21.726C129.555 21.726 129.989 21.5113 130.297 21.082C130.614 20.6527 130.773 20.0693 130.773 19.332ZM135.962 23H134.268V15.678H135.962V23ZM136.144 13.536C136.144 13.8533 136.041 14.1053 135.836 14.292C135.63 14.4787 135.388 14.572 135.108 14.572C134.818 14.572 134.571 14.4787 134.366 14.292C134.16 14.1053 134.058 13.8533 134.058 13.536C134.058 13.2093 134.16 12.9527 134.366 12.766C134.571 12.5793 134.818 12.486 135.108 12.486C135.388 12.486 135.63 12.5793 135.836 12.766C136.041 12.9527 136.144 13.2093 136.144 13.536ZM138.123 15.916C138.45 15.8227 138.874 15.734 139.397 15.65C139.92 15.566 140.498 15.524 141.133 15.524C141.73 15.524 142.23 15.608 142.631 15.776C143.032 15.9347 143.35 16.1633 143.583 16.462C143.826 16.7513 143.994 17.106 144.087 17.526C144.19 17.9367 144.241 18.3893 144.241 18.884V23H142.547V19.15C142.547 18.758 142.519 18.4267 142.463 18.156C142.416 17.876 142.332 17.652 142.211 17.484C142.099 17.3067 141.94 17.1807 141.735 17.106C141.539 17.022 141.296 16.98 141.007 16.98C140.792 16.98 140.568 16.994 140.335 17.022C140.102 17.05 139.929 17.0733 139.817 17.092V23H138.123V15.916ZM148.286 15.902C148.286 16.6767 148.258 17.386 148.202 18.03C148.146 18.674 148.076 19.3227 147.992 19.976H146.788C146.695 19.3227 146.62 18.674 146.564 18.03C146.508 17.3767 146.48 16.6673 146.48 15.902V13.298H148.286V15.902ZM148.496 22.076C148.496 22.4027 148.389 22.6687 148.174 22.874C147.96 23.0793 147.694 23.182 147.376 23.182C147.068 23.182 146.802 23.0793 146.578 22.874C146.364 22.6687 146.256 22.4027 146.256 22.076C146.256 21.7493 146.364 21.4833 146.578 21.278C146.802 21.0633 147.068 20.956 147.376 20.956C147.694 20.956 147.96 21.0633 148.174 21.278C148.389 21.4833 148.496 21.7493 148.496 22.076Z" fill="#484751"/>
</g>
<defs>
<filter id="filter0_d" x="0" y="0" width="170" height="60" filterUnits="userSpaceOnUse" color-interpolation-filters="sRGB">
<feFlood flood-opacity="0" result="BackgroundImageFix"/>
<feColorMatrix in="SourceAlpha" type="matrix" values="0 0 0 0 0 0 0 0 0 0 0 0 0 0 0 0 0 0 127 0" result="hardAlpha"/>
<feOffset dy="2"/>
<feGaussianBlur stdDeviation="1"/>
<feColorMatrix type="matrix" values="0 0 0 0 0 0 0 0 0 0 0 0 0 0 0 0 0 0 0.2 0"/>
<feBlend mode="normal" in2="BackgroundImageFix" result="effect1_dropShadow"/>
<feBlend mode="normal" in="SourceGraphic" in2="effect1_dropShadow" result="shape"/>
</filter>
</defs>
</svg>
