<svg width="232" height="60" viewBox="0 0 232 60" fill="none" xmlns="http://www.w3.org/2000/svg">
<g filter="url(#filter0_d)">
<path fill-rule="evenodd" clip-rule="evenodd" d="M21 37C11.0589 37 3 28.9411 3 19C3 9.05888 11.0589 1 21 1H169C178.941 1 187 9.05888 187 19C187 28.9411 178.941 37 169 37H38.5149C38.468 37.379 38.0976 38.0269 37.5927 38.9103C35.8586 41.9441 32.5364 47.7563 35.2653 55C32.0146 53.872 26.162 48.0979 22.4322 37H21Z" fill="white"/>
<path d="M38.5149 37V36C38.0102 36 37.5846 36.3761 37.5225 36.877L38.5149 37ZM37.5927 38.9103L36.7245 38.4141V38.4141L37.5927 38.9103ZM35.2653 55L34.9375 55.9447C35.304 56.0719 35.711 55.9756 35.9817 55.6977C36.2524 55.4199 36.3379 55.0105 36.2011 54.6475L35.2653 55ZM22.4322 37L23.3801 36.6814C23.2433 36.2743 22.8618 36 22.4322 36V37ZM2 19C2 29.4934 10.5066 38 21 38V36C11.6112 36 4 28.3888 4 19H2ZM21 0C10.5066 0 2 8.50659 2 19H4C4 9.61116 11.6112 2 21 2V0ZM169 0H21V2H169V0ZM188 19C188 8.50659 179.493 0 169 0V2C178.389 2 186 9.61116 186 19H188ZM169 38C179.493 38 188 29.4934 188 19H186C186 28.3888 178.389 36 169 36V38ZM38.5149 38H169V36H38.5149V38ZM38.4608 39.4066C38.7088 38.9727 38.9424 38.5648 39.1181 38.217C39.2787 37.8991 39.4602 37.5033 39.5074 37.123L37.5225 36.877C37.5227 36.8757 37.4956 36.9933 37.333 37.315C37.1856 37.6068 36.9815 37.9645 36.7245 38.4141L38.4608 39.4066ZM36.2011 54.6475C33.6502 47.8762 36.7256 42.4424 38.4608 39.4066L36.7245 38.4141C34.9915 41.4459 31.4226 47.6364 34.3295 55.3525L36.2011 54.6475ZM21.4843 37.3186C23.3823 42.9658 25.8297 47.2872 28.2422 50.3567C30.6312 53.3963 33.0524 55.2906 34.9375 55.9447L35.5932 54.0553C34.2275 53.5814 32.097 52.0247 29.8146 49.1208C27.5557 46.2467 25.212 42.132 23.3801 36.6814L21.4843 37.3186ZM21 38H22.4322V36H21V38Z" fill="#484751"/>
<path d="M22.604 18.142C22.604 18.674 22.6693 19.1593 22.8 19.598C22.9307 20.0273 23.1173 20.396 23.36 20.704C23.612 21.0027 23.9153 21.236 24.27 21.404C24.6247 21.572 25.026 21.656 25.474 21.656C25.9127 21.656 26.3093 21.572 26.664 21.404C27.0187 21.236 27.3173 21.0027 27.56 20.704C27.812 20.396 28.0033 20.0273 28.134 19.598C28.2647 19.1593 28.33 18.674 28.33 18.142C28.33 17.61 28.2647 17.1293 28.134 16.7C28.0033 16.2613 27.812 15.8927 27.56 15.594C27.3173 15.286 27.0187 15.048 26.664 14.88C26.3093 14.712 25.9127 14.628 25.474 14.628C25.026 14.628 24.6247 14.712 24.27 14.88C23.9153 15.048 23.612 15.286 23.36 15.594C23.1173 15.902 22.9307 16.2707 22.8 16.7C22.6693 17.1293 22.604 17.61 22.604 18.142ZM30.178 18.142C30.178 18.9727 30.052 19.7053 29.8 20.34C29.5573 20.9747 29.2213 21.5067 28.792 21.936C28.372 22.356 27.8773 22.6733 27.308 22.888C26.7387 23.1027 26.132 23.21 25.488 23.21C24.844 23.21 24.2327 23.1027 23.654 22.888C23.0847 22.6733 22.5853 22.356 22.156 21.936C21.736 21.5067 21.4 20.9747 21.148 20.34C20.896 19.7053 20.77 18.9727 20.77 18.142C20.77 17.3113 20.896 16.5833 21.148 15.958C21.4 15.3233 21.7407 14.7913 22.17 14.362C22.6087 13.9327 23.1127 13.6107 23.682 13.396C24.2513 13.1813 24.8533 13.074 25.488 13.074C26.1227 13.074 26.7247 13.1813 27.294 13.396C27.8633 13.6107 28.358 13.9327 28.778 14.362C29.2073 14.7913 29.548 15.3233 29.8 15.958C30.052 16.5833 30.178 17.3113 30.178 18.142ZM32.0292 23V12.416L33.7232 12.136V15.762C33.9098 15.6967 34.1245 15.6407 34.3672 15.594C34.6192 15.5473 34.8665 15.524 35.1092 15.524C35.6972 15.524 36.1825 15.608 36.5652 15.776C36.9572 15.9347 37.2698 16.1633 37.5032 16.462C37.7365 16.7513 37.8998 17.1013 37.9932 17.512C38.0958 17.9227 38.1472 18.38 38.1472 18.884V23H36.4532V19.15C36.4532 18.758 36.4252 18.4267 36.3692 18.156C36.3225 17.876 36.2385 17.652 36.1172 17.484C36.0052 17.3067 35.8512 17.1807 35.6552 17.106C35.4592 17.022 35.2165 16.98 34.9272 16.98C34.7032 16.98 34.4745 17.0033 34.2412 17.05C34.0078 17.0967 33.8352 17.1387 33.7232 17.176V23H32.0292ZM41.9276 21.138C41.9463 21.2967 41.9556 21.4133 41.9556 21.488C41.9556 21.5627 41.9556 21.6373 41.9556 21.712C41.9556 22.2907 41.8623 22.888 41.6756 23.504C41.4983 24.12 41.2463 24.7033 40.9196 25.254L39.5896 24.89C39.8136 24.3487 39.9629 23.8167 40.0376 23.294C40.1216 22.7807 40.1636 22.328 40.1636 21.936C40.1636 21.824 40.1589 21.684 40.1496 21.516C40.1496 21.348 40.1449 21.222 40.1356 21.138H41.9276ZM49.7393 23.14C49.2353 23.1307 48.8153 23.0747 48.4793 22.972C48.1526 22.8693 47.8913 22.7247 47.6953 22.538C47.4993 22.342 47.3593 22.104 47.2753 21.824C47.2006 21.5347 47.1633 21.208 47.1633 20.844V12.416L48.8573 12.136V20.522C48.8573 20.7273 48.8713 20.9 48.8993 21.04C48.9366 21.18 48.9973 21.3013 49.0813 21.404C49.1653 21.4973 49.2773 21.572 49.4173 21.628C49.5666 21.6747 49.7533 21.712 49.9773 21.74L49.7393 23.14ZM57.9695 19.332C57.9695 19.9107 57.8855 20.438 57.7175 20.914C57.5495 21.39 57.3115 21.796 57.0035 22.132C56.6955 22.468 56.3222 22.7293 55.8835 22.916C55.4542 23.1027 54.9782 23.196 54.4555 23.196C53.9329 23.196 53.4569 23.1027 53.0275 22.916C52.5982 22.7293 52.2295 22.468 51.9215 22.132C51.6135 21.796 51.3709 21.39 51.1935 20.914C51.0255 20.438 50.9415 19.9107 50.9415 19.332C50.9415 18.7533 51.0255 18.2307 51.1935 17.764C51.3709 17.288 51.6135 16.882 51.9215 16.546C52.2389 16.21 52.6122 15.9533 53.0415 15.776C53.4709 15.5893 53.9422 15.496 54.4555 15.496C54.9689 15.496 55.4402 15.5893 55.8695 15.776C56.3082 15.9533 56.6815 16.21 56.9895 16.546C57.2975 16.882 57.5355 17.288 57.7035 17.764C57.8809 18.2307 57.9695 18.7533 57.9695 19.332ZM56.2335 19.332C56.2335 18.604 56.0749 18.03 55.7575 17.61C55.4495 17.1807 55.0155 16.966 54.4555 16.966C53.8955 16.966 53.4569 17.1807 53.1395 17.61C52.8315 18.03 52.6775 18.604 52.6775 19.332C52.6775 20.0693 52.8315 20.6527 53.1395 21.082C53.4569 21.5113 53.8955 21.726 54.4555 21.726C55.0155 21.726 55.4495 21.5113 55.7575 21.082C56.0749 20.6527 56.2335 20.0693 56.2335 19.332ZM66.3367 19.332C66.3367 19.9107 66.2527 20.438 66.0847 20.914C65.9167 21.39 65.6787 21.796 65.3707 22.132C65.0627 22.468 64.6894 22.7293 64.2507 22.916C63.8214 23.1027 63.3454 23.196 62.8227 23.196C62.3001 23.196 61.8241 23.1027 61.3947 22.916C60.9654 22.7293 60.5967 22.468 60.2887 22.132C59.9807 21.796 59.7381 21.39 59.5607 20.914C59.3927 20.438 59.3087 19.9107 59.3087 19.332C59.3087 18.7533 59.3927 18.2307 59.5607 17.764C59.7381 17.288 59.9807 16.882 60.2887 16.546C60.6061 16.21 60.9794 15.9533 61.4087 15.776C61.8381 15.5893 62.3094 15.496 62.8227 15.496C63.3361 15.496 63.8074 15.5893 64.2367 15.776C64.6754 15.9533 65.0487 16.21 65.3567 16.546C65.6647 16.882 65.9027 17.288 66.0707 17.764C66.2481 18.2307 66.3367 18.7533 66.3367 19.332ZM64.6007 19.332C64.6007 18.604 64.4421 18.03 64.1247 17.61C63.8167 17.1807 63.3827 16.966 62.8227 16.966C62.2627 16.966 61.8241 17.1807 61.5067 17.61C61.1987 18.03 61.0447 18.604 61.0447 19.332C61.0447 20.0693 61.1987 20.6527 61.5067 21.082C61.8241 21.5113 62.2627 21.726 62.8227 21.726C63.3827 21.726 63.8167 21.5113 64.1247 21.082C64.4421 20.6527 64.6007 20.0693 64.6007 19.332ZM69.7759 18.534C69.9906 18.31 70.2192 18.072 70.4619 17.82C70.7046 17.5587 70.9426 17.302 71.1759 17.05C71.4092 16.7887 71.6286 16.5413 71.8339 16.308C72.0486 16.0653 72.2306 15.8553 72.3799 15.678H74.3819C73.9152 16.2007 73.4206 16.742 72.8979 17.302C72.3846 17.862 71.8666 18.408 71.3439 18.94C71.6239 19.1733 71.9179 19.458 72.2259 19.794C72.5339 20.1207 72.8326 20.4707 73.1219 20.844C73.4112 21.2173 73.6819 21.5907 73.9339 21.964C74.1859 22.3373 74.3959 22.6827 74.5639 23H72.6039C72.4359 22.7107 72.2399 22.4073 72.0159 22.09C71.8012 21.7727 71.5679 21.4647 71.3159 21.166C71.0639 20.8673 70.8072 20.5873 70.5459 20.326C70.2846 20.0553 70.0279 19.8267 69.7759 19.64V23H68.0819V12.416L69.7759 12.136V18.534ZM81.7708 15.678C81.0148 18.4593 80.1375 20.9793 79.1388 23.238C78.9522 23.658 78.7608 24.0173 78.5648 24.316C78.3688 24.6147 78.1495 24.862 77.9068 25.058C77.6642 25.254 77.3935 25.394 77.0948 25.478C76.7962 25.5713 76.4508 25.618 76.0588 25.618C75.7975 25.618 75.5362 25.59 75.2748 25.534C75.0228 25.478 74.8315 25.4173 74.7008 25.352L75.0088 23.994C75.3448 24.1247 75.6762 24.19 76.0028 24.19C76.4415 24.19 76.7822 24.0827 77.0248 23.868C77.2768 23.6627 77.4962 23.3407 77.6828 22.902C77.1508 21.8753 76.6375 20.7553 76.1428 19.542C75.6575 18.3287 75.2235 17.0407 74.8408 15.678H76.6468C76.7402 16.07 76.8522 16.4947 76.9828 16.952C77.1228 17.4093 77.2722 17.876 77.4308 18.352C77.5895 18.8187 77.7575 19.2853 77.9348 19.752C78.1122 20.2187 78.2895 20.6527 78.4668 21.054C78.7655 20.2233 79.0455 19.3413 79.3068 18.408C79.5682 17.4653 79.8062 16.5553 80.0208 15.678H81.7708ZM90.6882 18.394C90.4735 19.2153 90.2402 20.018 89.9882 20.802C89.7455 21.5767 89.5029 22.3093 89.2602 23H87.8742C87.6875 22.5707 87.4915 22.0807 87.2862 21.53C87.0809 20.9793 86.8755 20.3913 86.6702 19.766C86.4649 19.1407 86.2595 18.4827 86.0542 17.792C85.8489 17.1013 85.6482 16.3967 85.4522 15.678H87.2442C87.3282 16.07 87.4262 16.4947 87.5382 16.952C87.6502 17.4 87.7669 17.862 87.8882 18.338C88.0095 18.8047 88.1355 19.262 88.2662 19.71C88.3969 20.158 88.5275 20.5687 88.6582 20.942C88.7982 20.5127 88.9335 20.0693 89.0642 19.612C89.2042 19.1547 89.3349 18.6973 89.4562 18.24C89.5775 17.7827 89.6895 17.3393 89.7922 16.91C89.9042 16.4713 90.0022 16.0607 90.0862 15.678H91.3882C91.4722 16.0607 91.5655 16.4713 91.6682 16.91C91.7709 17.3393 91.8782 17.7827 91.9902 18.24C92.1115 18.6973 92.2375 19.1547 92.3682 19.612C92.5082 20.0693 92.6482 20.5127 92.7882 20.942C92.9095 20.5687 93.0355 20.158 93.1662 19.71C93.2969 19.262 93.4229 18.8047 93.5442 18.338C93.6749 17.862 93.7962 17.4 93.9082 16.952C94.0202 16.4947 94.1182 16.07 94.2022 15.678H95.9522C95.7562 16.3967 95.5555 17.1013 95.3502 17.792C95.1449 18.4827 94.9395 19.1407 94.7342 19.766C94.5289 20.3913 94.3235 20.9793 94.1182 21.53C93.9129 22.0807 93.7122 22.5707 93.5162 23H92.1442C91.9015 22.3093 91.6495 21.5767 91.3882 20.802C91.1362 20.018 90.9029 19.2153 90.6882 18.394ZM97.244 23V12.416L98.938 12.136V15.762C99.1247 15.6967 99.3393 15.6407 99.582 15.594C99.834 15.5473 100.081 15.524 100.324 15.524C100.912 15.524 101.397 15.608 101.78 15.776C102.172 15.9347 102.485 16.1633 102.718 16.462C102.951 16.7513 103.115 17.1013 103.208 17.512C103.311 17.9227 103.362 18.38 103.362 18.884V23H101.668V19.15C101.668 18.758 101.64 18.4267 101.584 18.156C101.537 17.876 101.453 17.652 101.332 17.484C101.22 17.3067 101.066 17.1807 100.87 17.106C100.674 17.022 100.431 16.98 100.142 16.98C99.918 16.98 99.6893 17.0033 99.456 17.05C99.2227 17.0967 99.05 17.1387 98.938 17.176V23H97.244ZM107.968 21.81C108.491 21.81 108.888 21.782 109.158 21.726V19.85C109.065 19.822 108.93 19.794 108.752 19.766C108.575 19.738 108.379 19.724 108.164 19.724C107.978 19.724 107.786 19.738 107.59 19.766C107.404 19.794 107.231 19.8453 107.072 19.92C106.923 19.9947 106.802 20.102 106.708 20.242C106.615 20.3727 106.568 20.5407 106.568 20.746C106.568 21.1473 106.694 21.4273 106.946 21.586C107.198 21.7353 107.539 21.81 107.968 21.81ZM107.828 15.496C108.388 15.496 108.86 15.566 109.242 15.706C109.625 15.846 109.928 16.042 110.152 16.294C110.386 16.546 110.549 16.854 110.642 17.218C110.745 17.5727 110.796 17.9647 110.796 18.394V22.832C110.535 22.888 110.138 22.9533 109.606 23.028C109.084 23.112 108.491 23.154 107.828 23.154C107.39 23.154 106.988 23.112 106.624 23.028C106.26 22.944 105.948 22.8087 105.686 22.622C105.434 22.4353 105.234 22.1927 105.084 21.894C104.944 21.5953 104.874 21.2267 104.874 20.788C104.874 20.368 104.954 20.0133 105.112 19.724C105.28 19.4347 105.504 19.2013 105.784 19.024C106.064 18.8373 106.386 18.7067 106.75 18.632C107.124 18.548 107.511 18.506 107.912 18.506C108.099 18.506 108.295 18.52 108.5 18.548C108.706 18.5667 108.925 18.604 109.158 18.66V18.38C109.158 18.184 109.135 17.9973 109.088 17.82C109.042 17.6427 108.958 17.4887 108.836 17.358C108.724 17.218 108.57 17.1107 108.374 17.036C108.188 16.9613 107.95 16.924 107.66 16.924C107.268 16.924 106.909 16.952 106.582 17.008C106.256 17.064 105.99 17.1293 105.784 17.204L105.574 15.832C105.789 15.7573 106.102 15.6827 106.512 15.608C106.923 15.5333 107.362 15.496 107.828 15.496ZM112.787 13.746L114.481 13.466V15.678H117.085V17.092H114.481V20.074C114.481 20.662 114.574 21.082 114.761 21.334C114.948 21.586 115.265 21.712 115.713 21.712C116.021 21.712 116.292 21.6793 116.525 21.614C116.768 21.5487 116.959 21.488 117.099 21.432L117.379 22.776C117.183 22.86 116.926 22.944 116.609 23.028C116.292 23.1213 115.918 23.168 115.489 23.168C114.966 23.168 114.528 23.098 114.173 22.958C113.828 22.818 113.552 22.6173 113.347 22.356C113.142 22.0853 112.997 21.7633 112.913 21.39C112.829 21.0073 112.787 20.5733 112.787 20.088V13.746ZM122.074 13.298H123.838V23H122.074V13.298ZM132.328 12.136C132.72 12.136 133.065 12.1733 133.364 12.248C133.662 12.3133 133.886 12.374 134.036 12.43L133.714 13.83C133.555 13.7553 133.368 13.6947 133.154 13.648C132.948 13.6013 132.724 13.578 132.482 13.578C132.211 13.578 131.982 13.62 131.796 13.704C131.609 13.7787 131.46 13.886 131.348 14.026C131.236 14.166 131.156 14.3387 131.11 14.544C131.063 14.74 131.04 14.9547 131.04 15.188V15.678H133.7V17.092H131.04V23H129.346V15.16C129.346 14.2173 129.593 13.48 130.088 12.948C130.582 12.4067 131.329 12.136 132.328 12.136ZM141.436 19.332C141.436 19.9107 141.352 20.438 141.184 20.914C141.016 21.39 140.778 21.796 140.47 22.132C140.162 22.468 139.789 22.7293 139.35 22.916C138.921 23.1027 138.445 23.196 137.922 23.196C137.4 23.196 136.924 23.1027 136.494 22.916C136.065 22.7293 135.696 22.468 135.388 22.132C135.08 21.796 134.838 21.39 134.66 20.914C134.492 20.438 134.408 19.9107 134.408 19.332C134.408 18.7533 134.492 18.2307 134.66 17.764C134.838 17.288 135.08 16.882 135.388 16.546C135.706 16.21 136.079 15.9533 136.508 15.776C136.938 15.5893 137.409 15.496 137.922 15.496C138.436 15.496 138.907 15.5893 139.336 15.776C139.775 15.9533 140.148 16.21 140.456 16.546C140.764 16.882 141.002 17.288 141.17 17.764C141.348 18.2307 141.436 18.7533 141.436 19.332ZM139.7 19.332C139.7 18.604 139.542 18.03 139.224 17.61C138.916 17.1807 138.482 16.966 137.922 16.966C137.362 16.966 136.924 17.1807 136.606 17.61C136.298 18.03 136.144 18.604 136.144 19.332C136.144 20.0693 136.298 20.6527 136.606 21.082C136.924 21.5113 137.362 21.726 137.922 21.726C138.482 21.726 138.916 21.5113 139.224 21.082C139.542 20.6527 139.7 20.0693 139.7 19.332ZM149.188 22.776C148.861 22.86 148.436 22.944 147.914 23.028C147.391 23.1213 146.817 23.168 146.192 23.168C145.604 23.168 145.109 23.084 144.708 22.916C144.316 22.748 143.998 22.5147 143.756 22.216C143.522 21.9173 143.354 21.5627 143.252 21.152C143.149 20.732 143.098 20.2747 143.098 19.78V15.678H144.792V19.514C144.792 20.298 144.904 20.858 145.128 21.194C145.361 21.53 145.762 21.698 146.332 21.698C146.537 21.698 146.752 21.6887 146.976 21.67C147.209 21.6513 147.382 21.628 147.494 21.6V15.678H149.188V22.776ZM151.344 15.916C151.67 15.8227 152.095 15.734 152.618 15.65C153.14 15.566 153.719 15.524 154.354 15.524C154.951 15.524 155.45 15.608 155.852 15.776C156.253 15.9347 156.57 16.1633 156.804 16.462C157.046 16.7513 157.214 17.106 157.308 17.526C157.41 17.9367 157.462 18.3893 157.462 18.884V23H155.768V19.15C155.768 18.758 155.74 18.4267 155.684 18.156C155.637 17.876 155.553 17.652 155.432 17.484C155.32 17.3067 155.161 17.1807 154.956 17.106C154.76 17.022 154.517 16.98 154.228 16.98C154.013 16.98 153.789 16.994 153.556 17.022C153.322 17.05 153.15 17.0733 153.038 17.092V23H151.344V15.916ZM160.863 19.318C160.863 20.0647 161.04 20.6527 161.395 21.082C161.75 21.502 162.24 21.712 162.865 21.712C163.136 21.712 163.364 21.7027 163.551 21.684C163.747 21.656 163.906 21.628 164.027 21.6V17.4C163.878 17.2973 163.677 17.204 163.425 17.12C163.182 17.0267 162.921 16.98 162.641 16.98C162.025 16.98 161.572 17.19 161.283 17.61C161.003 18.03 160.863 18.5993 160.863 19.318ZM165.721 22.776C165.385 22.8787 164.96 22.972 164.447 23.056C163.943 23.14 163.411 23.182 162.851 23.182C162.272 23.182 161.754 23.0933 161.297 22.916C160.84 22.7387 160.448 22.4867 160.121 22.16C159.804 21.824 159.556 21.4227 159.379 20.956C159.211 20.48 159.127 19.948 159.127 19.36C159.127 18.7813 159.197 18.2587 159.337 17.792C159.486 17.316 159.701 16.91 159.981 16.574C160.261 16.238 160.602 15.9813 161.003 15.804C161.404 15.6173 161.866 15.524 162.389 15.524C162.744 15.524 163.056 15.566 163.327 15.65C163.598 15.734 163.831 15.8273 164.027 15.93V12.416L165.721 12.136V22.776ZM169.847 15.902C169.847 16.6767 169.819 17.386 169.763 18.03C169.707 18.674 169.637 19.3227 169.553 19.976H168.349C168.256 19.3227 168.181 18.674 168.125 18.03C168.069 17.3767 168.041 16.6673 168.041 15.902V13.298H169.847V15.902ZM170.057 22.076C170.057 22.4027 169.95 22.6687 169.735 22.874C169.52 23.0793 169.254 23.182 168.937 23.182C168.629 23.182 168.363 23.0793 168.139 22.874C167.924 22.6687 167.817 22.4027 167.817 22.076C167.817 21.7493 167.924 21.4833 168.139 21.278C168.363 21.0633 168.629 20.956 168.937 20.956C169.254 20.956 169.52 21.0633 169.735 21.278C169.95 21.4833 170.057 21.7493 170.057 22.076Z" fill="#484751"/>
</g>
<defs>
<filter id="filter0_d" x="0" y="0" width="190" height="60" filterUnits="userSpaceOnUse" color-interpolation-filters="sRGB">
<feFlood flood-opacity="0" result="BackgroundImageFix"/>
<feColorMatrix in="SourceAlpha" type="matrix" values="0 0 0 0 0 0 0 0 0 0 0 0 0 0 0 0 0 0 127 0" result="hardAlpha"/>
<feOffset dy="2"/>
<feGaussianBlur stdDeviation="1"/>
<feColorMatrix type="matrix" values="0 0 0 0 0 0 0 0 0 0 0 0 0 0 0 0 0 0 0.2 0"/>
<feBlend mode="normal" in2="BackgroundImageFix" result="effect1_dropShadow"/>
<feBlend mode="normal" in="SourceGraphic" in2="effect1_dropShadow" result="shape"/>
</filter>
</defs>
</svg>
