<svg width="284" height="118" viewBox="0 0 284 118" fill="none" xmlns="http://www.w3.org/2000/svg">
<g filter="url(#filter0_d)">
<path fill-rule="evenodd" clip-rule="evenodd" d="M23 94C11.9543 94 3 85.0457 3 74V21C3 9.95431 11.9543 1 23 1H261C272.046 1 281 9.9543 281 21V74C281 85.0457 272.046 94 261 94H89.141C89.094 94.379 88.7236 95.0269 88.2186 95.9103C86.4844 98.9441 83.1621 104.756 85.8912 112C82.6403 110.872 76.7874 105.098 73.0574 94H23Z" fill="white"/>
<path d="M89.141 94V93C88.6363 93 88.2107 93.3761 88.1486 93.877L89.141 94ZM88.2186 95.9103L89.0868 96.4066V96.4066L88.2186 95.9103ZM85.8912 112L85.5634 112.945C85.9299 113.072 86.3369 112.976 86.6075 112.698C86.8782 112.42 86.9638 112.01 86.827 111.647L85.8912 112ZM73.0574 94L74.0053 93.6814C73.8685 93.2743 73.4869 93 73.0574 93V94ZM2 74C2 85.598 11.402 95 23 95V93C12.5066 93 4 84.4934 4 74H2ZM2 21V74H4V21H2ZM23 0C11.402 0 2 9.40202 2 21H4C4 10.5066 12.5066 2 23 2V0ZM261 0H23V2H261V0ZM282 21C282 9.40202 272.598 0 261 0V2C271.493 2 280 10.5066 280 21H282ZM282 74V21H280V74H282ZM261 95C272.598 95 282 85.598 282 74H280C280 84.4934 271.493 93 261 93V95ZM89.141 95H261V93H89.141V95ZM89.0868 96.4066C89.3348 95.9727 89.5683 95.5648 89.7441 95.217C89.9047 94.8991 90.0862 94.5033 90.1334 94.123L88.1486 93.877C88.1487 93.8757 88.1216 93.9933 87.959 94.315C87.8116 94.6067 87.6075 94.9645 87.3505 95.4141L89.0868 96.4066ZM86.827 111.647C84.2759 104.876 87.3515 99.4424 89.0868 96.4066L87.3505 95.4141C85.6174 98.4459 82.0483 104.636 84.9554 112.353L86.827 111.647ZM72.1095 94.3186C74.0076 99.9659 76.4551 104.287 78.8677 107.357C81.2569 110.396 83.6782 112.291 85.5634 112.945L86.219 111.055C84.8532 110.581 82.7227 109.025 80.4401 106.121C78.1811 103.247 75.8372 99.132 74.0053 93.6814L72.1095 94.3186ZM23 95H73.0574V93H23V95Z" fill="#484751"/>
<path d="M30.464 13.8C32.0747 13.8 33.3067 14.0933 34.16 14.68C35.024 15.2667 35.456 16.184 35.456 17.432C35.456 18.0827 35.3387 18.6427 35.104 19.112C34.88 19.5707 34.5493 19.9493 34.112 20.248C33.6747 20.536 33.1413 20.7493 32.512 20.888C31.8827 21.0267 31.1627 21.096 30.352 21.096H29.344V25H27.328V14.072C27.7973 13.9653 28.3147 13.896 28.88 13.864C29.456 13.8213 29.984 13.8 30.464 13.8ZM30.608 15.544C30.096 15.544 29.6747 15.56 29.344 15.592V19.368H30.32C31.2907 19.368 32.0373 19.2347 32.56 18.968C33.0827 18.6907 33.344 18.1733 33.344 17.416C33.344 17.0533 33.2747 16.7493 33.136 16.504C32.9973 16.2587 32.8053 16.0667 32.56 15.928C32.3147 15.7893 32.0213 15.6933 31.68 15.64C31.3493 15.576 30.992 15.544 30.608 15.544ZM40.1128 25.16C39.5368 25.1493 39.0568 25.0853 38.6728 24.968C38.2994 24.8507 38.0008 24.6853 37.7768 24.472C37.5528 24.248 37.3928 23.976 37.2968 23.656C37.2114 23.3253 37.1688 22.952 37.1688 22.536V12.904L39.1048 12.584V22.168C39.1048 22.4027 39.1208 22.6 39.1528 22.76C39.1954 22.92 39.2648 23.0587 39.3608 23.176C39.4568 23.2827 39.5848 23.368 39.7448 23.432C39.9154 23.4853 40.1288 23.528 40.3848 23.56L40.1128 25.16ZM48.8148 24.744C48.4414 24.84 47.9561 24.936 47.3588 25.032C46.7614 25.1387 46.1054 25.192 45.3908 25.192C44.7188 25.192 44.1534 25.096 43.6948 24.904C43.2468 24.712 42.8841 24.4453 42.6068 24.104C42.3401 23.7627 42.1481 23.3573 42.0308 22.888C41.9134 22.408 41.8548 21.8853 41.8548 21.32V16.632H43.7908V21.016C43.7908 21.912 43.9188 22.552 44.1748 22.936C44.4414 23.32 44.9001 23.512 45.5508 23.512C45.7854 23.512 46.0308 23.5013 46.2868 23.48C46.5534 23.4587 46.7508 23.432 46.8788 23.4V16.632H48.8148V24.744ZM53.3749 23.608C53.8869 23.608 54.2602 23.5493 54.4949 23.432C54.7295 23.304 54.8469 23.0907 54.8469 22.792C54.8469 22.5147 54.7189 22.2853 54.4629 22.104C54.2175 21.9227 53.8069 21.7253 53.2309 21.512C52.8789 21.384 52.5535 21.2507 52.2549 21.112C51.9669 20.9627 51.7162 20.792 51.5029 20.6C51.2895 20.408 51.1189 20.1787 50.9909 19.912C50.8735 19.6347 50.8149 19.2987 50.8149 18.904C50.8149 18.136 51.0975 17.5333 51.6629 17.096C52.2282 16.648 52.9962 16.424 53.9669 16.424C54.4575 16.424 54.9269 16.472 55.3749 16.568C55.8229 16.6533 56.1589 16.7387 56.3829 16.824L56.0309 18.392C55.8175 18.296 55.5455 18.2107 55.2149 18.136C54.8842 18.0507 54.5002 18.008 54.0629 18.008C53.6682 18.008 53.3482 18.0773 53.1029 18.216C52.8575 18.344 52.7349 18.5467 52.7349 18.824C52.7349 18.9627 52.7562 19.0853 52.7989 19.192C52.8522 19.2987 52.9375 19.4 53.0549 19.496C53.1722 19.5813 53.3269 19.672 53.5189 19.768C53.7109 19.8533 53.9455 19.944 54.2229 20.04C54.6815 20.2107 55.0709 20.3813 55.3909 20.552C55.7109 20.712 55.9722 20.8987 56.1749 21.112C56.3882 21.3147 56.5429 21.5493 56.6389 21.816C56.7349 22.0827 56.7829 22.4027 56.7829 22.776C56.7829 23.576 56.4842 24.184 55.8869 24.6C55.3002 25.0053 54.4575 25.208 53.3589 25.208C52.6229 25.208 52.0309 25.144 51.5829 25.016C51.1349 24.8987 50.8202 24.8027 50.6389 24.728L50.9749 23.112C51.2629 23.2293 51.6042 23.3413 51.9989 23.448C52.4042 23.5547 52.8629 23.608 53.3749 23.608ZM60.5914 22.872C60.6127 23.0533 60.6234 23.1867 60.6234 23.272C60.6234 23.3573 60.6234 23.4427 60.6234 23.528C60.6234 24.1893 60.5167 24.872 60.3034 25.576C60.1007 26.28 59.8127 26.9467 59.4394 27.576L57.9194 27.16C58.1754 26.5413 58.346 25.9333 58.4314 25.336C58.5274 24.7493 58.5754 24.232 58.5754 23.784C58.5754 23.656 58.57 23.496 58.5594 23.304C58.5594 23.112 58.554 22.968 58.5434 22.872H60.5914ZM66.143 20.856C66.143 20.12 66.2497 19.4747 66.463 18.92C66.687 18.3653 66.9803 17.9067 67.343 17.544C67.7057 17.1707 68.1217 16.8933 68.591 16.712C69.0603 16.52 69.5403 16.424 70.031 16.424C71.183 16.424 72.079 16.7813 72.719 17.496C73.3697 18.2107 73.695 19.2773 73.695 20.696C73.695 20.8027 73.6897 20.9253 73.679 21.064C73.679 21.192 73.6737 21.3093 73.663 21.416H68.143C68.1963 22.088 68.431 22.6107 68.847 22.984C69.2737 23.3467 69.887 23.528 70.687 23.528C71.1563 23.528 71.583 23.4853 71.967 23.4C72.3617 23.3147 72.671 23.224 72.895 23.128L73.151 24.712C73.0443 24.7653 72.895 24.824 72.703 24.888C72.5217 24.9413 72.3083 24.9893 72.063 25.032C71.8283 25.0853 71.5723 25.128 71.295 25.16C71.0177 25.192 70.735 25.208 70.447 25.208C69.711 25.208 69.071 25.1013 68.527 24.888C67.983 24.664 67.535 24.36 67.183 23.976C66.831 23.5813 66.5697 23.1227 66.399 22.6C66.2283 22.0667 66.143 21.4853 66.143 20.856ZM71.759 19.992C71.759 19.7253 71.7217 19.4747 71.647 19.24C71.5723 18.9947 71.4603 18.7867 71.311 18.616C71.1723 18.4347 70.9963 18.296 70.783 18.2C70.5803 18.0933 70.335 18.04 70.047 18.04C69.7483 18.04 69.487 18.0987 69.263 18.216C69.039 18.3227 68.847 18.4667 68.687 18.648C68.5377 18.8293 68.4203 19.0373 68.335 19.272C68.2497 19.5067 68.191 19.7467 68.159 19.992H71.759ZM77.8916 25C77.3583 23.9013 76.809 22.6427 76.2436 21.224C75.689 19.7947 75.1823 18.264 74.7236 16.632H76.7876C76.905 17.1013 77.0383 17.608 77.1876 18.152C77.3476 18.6853 77.513 19.224 77.6836 19.768C77.865 20.3013 78.0463 20.824 78.2276 21.336C78.4196 21.8373 78.5956 22.2907 78.7556 22.696C78.9156 22.2907 79.0863 21.8373 79.2676 21.336C79.449 20.824 79.625 20.3013 79.7956 19.768C79.977 19.224 80.1476 18.6853 80.3076 18.152C80.4676 17.608 80.6063 17.1013 80.7236 16.632H82.7236C82.265 18.264 81.753 19.7947 81.1876 21.224C80.633 22.6427 80.089 23.9013 79.5556 25H77.8916ZM83.518 20.856C83.518 20.12 83.6247 19.4747 83.838 18.92C84.062 18.3653 84.3553 17.9067 84.718 17.544C85.0807 17.1707 85.4967 16.8933 85.966 16.712C86.4353 16.52 86.9153 16.424 87.406 16.424C88.558 16.424 89.454 16.7813 90.094 17.496C90.7447 18.2107 91.07 19.2773 91.07 20.696C91.07 20.8027 91.0647 20.9253 91.054 21.064C91.054 21.192 91.0487 21.3093 91.038 21.416H85.518C85.5713 22.088 85.806 22.6107 86.222 22.984C86.6487 23.3467 87.262 23.528 88.062 23.528C88.5313 23.528 88.958 23.4853 89.342 23.4C89.7367 23.3147 90.046 23.224 90.27 23.128L90.526 24.712C90.4193 24.7653 90.27 24.824 90.078 24.888C89.8967 24.9413 89.6833 24.9893 89.438 25.032C89.2033 25.0853 88.9473 25.128 88.67 25.16C88.3927 25.192 88.11 25.208 87.822 25.208C87.086 25.208 86.446 25.1013 85.902 24.888C85.358 24.664 84.91 24.36 84.558 23.976C84.206 23.5813 83.9447 23.1227 83.774 22.6C83.6033 22.0667 83.518 21.4853 83.518 20.856ZM89.134 19.992C89.134 19.7253 89.0967 19.4747 89.022 19.24C88.9473 18.9947 88.8353 18.7867 88.686 18.616C88.5473 18.4347 88.3713 18.296 88.158 18.2C87.9553 18.0933 87.71 18.04 87.422 18.04C87.1233 18.04 86.862 18.0987 86.638 18.216C86.414 18.3227 86.222 18.4667 86.062 18.648C85.9127 18.8293 85.7953 19.0373 85.71 19.272C85.6247 19.5067 85.566 19.7467 85.534 19.992H89.134ZM97.8906 18.376C97.7306 18.3227 97.5066 18.2693 97.2186 18.216C96.9413 18.152 96.616 18.12 96.2426 18.12C96.0293 18.12 95.8 18.1413 95.5546 18.184C95.32 18.2267 95.1546 18.264 95.0586 18.296V25H93.1226V17.032C93.496 16.8933 93.96 16.7653 94.5146 16.648C95.08 16.52 95.704 16.456 96.3866 16.456C96.5146 16.456 96.664 16.4667 96.8346 16.488C97.0053 16.4987 97.176 16.52 97.3466 16.552C97.5173 16.5733 97.6826 16.6053 97.8426 16.648C98.0026 16.68 98.1306 16.712 98.2266 16.744L97.8906 18.376ZM106.689 16.632C105.825 19.8107 104.822 22.6907 103.681 25.272C103.468 25.752 103.249 26.1627 103.025 26.504C102.801 26.8453 102.55 27.128 102.273 27.352C101.996 27.576 101.686 27.736 101.345 27.832C101.004 27.9387 100.609 27.992 100.161 27.992C99.8623 27.992 99.5637 27.96 99.265 27.896C98.977 27.832 98.7583 27.7627 98.609 27.688L98.961 26.136C99.345 26.2853 99.7237 26.36 100.097 26.36C100.598 26.36 100.988 26.2373 101.265 25.992C101.553 25.7573 101.804 25.3893 102.017 24.888C101.409 23.7147 100.822 22.4347 100.257 21.048C99.7023 19.6613 99.2063 18.1893 98.769 16.632H100.833C100.94 17.08 101.068 17.5653 101.217 18.088C101.377 18.6107 101.548 19.144 101.729 19.688C101.91 20.2213 102.102 20.7547 102.305 21.288C102.508 21.8213 102.71 22.3173 102.913 22.776C103.254 21.8267 103.574 20.8187 103.873 19.752C104.172 18.6747 104.444 17.6347 104.689 16.632H106.689ZM113.408 20.856C113.408 21.6667 113.568 22.312 113.888 22.792C114.219 23.272 114.736 23.512 115.44 23.512C115.76 23.512 116.059 23.464 116.336 23.368C116.624 23.2613 116.854 23.1493 117.024 23.032V18.248C116.886 18.216 116.71 18.1893 116.496 18.168C116.294 18.136 116.027 18.12 115.696 18.12C114.982 18.12 114.422 18.3653 114.016 18.856C113.611 19.336 113.408 20.0027 113.408 20.856ZM111.424 20.824C111.424 20.1627 111.52 19.5653 111.712 19.032C111.915 18.488 112.198 18.0293 112.56 17.656C112.934 17.272 113.382 16.9787 113.904 16.776C114.427 16.5627 115.019 16.456 115.68 16.456C116.342 16.456 116.96 16.504 117.536 16.6C118.112 16.696 118.587 16.7973 118.96 16.904V27.96H117.024V24.712C116.8 24.8293 116.523 24.936 116.192 25.032C115.872 25.128 115.515 25.176 115.12 25.176C114.523 25.176 113.995 25.0747 113.536 24.872C113.078 24.6587 112.694 24.36 112.384 23.976C112.075 23.592 111.835 23.1333 111.664 22.6C111.504 22.0667 111.424 21.4747 111.424 20.824ZM128.284 24.744C127.91 24.84 127.425 24.936 126.828 25.032C126.23 25.1387 125.574 25.192 124.86 25.192C124.188 25.192 123.622 25.096 123.164 24.904C122.716 24.712 122.353 24.4453 122.076 24.104C121.809 23.7627 121.617 23.3573 121.5 22.888C121.382 22.408 121.324 21.8853 121.324 21.32V16.632H123.26V21.016C123.26 21.912 123.388 22.552 123.644 22.936C123.91 23.32 124.369 23.512 125.02 23.512C125.254 23.512 125.5 23.5013 125.756 23.48C126.022 23.4587 126.22 23.432 126.348 23.4V16.632H128.284V24.744ZM133.692 23.64C134.289 23.64 134.742 23.608 135.052 23.544V21.4C134.945 21.368 134.79 21.336 134.588 21.304C134.385 21.272 134.161 21.256 133.916 21.256C133.702 21.256 133.484 21.272 133.26 21.304C133.046 21.336 132.849 21.3947 132.668 21.48C132.497 21.5653 132.358 21.688 132.252 21.848C132.145 21.9973 132.092 22.1893 132.092 22.424C132.092 22.8827 132.236 23.2027 132.524 23.384C132.812 23.5547 133.201 23.64 133.692 23.64ZM133.532 16.424C134.172 16.424 134.71 16.504 135.148 16.664C135.585 16.824 135.932 17.048 136.188 17.336C136.454 17.624 136.641 17.976 136.748 18.392C136.865 18.7973 136.924 19.2453 136.924 19.736V24.808C136.625 24.872 136.172 24.9467 135.564 25.032C134.966 25.128 134.289 25.176 133.532 25.176C133.03 25.176 132.572 25.128 132.156 25.032C131.74 24.936 131.382 24.7813 131.084 24.568C130.796 24.3547 130.566 24.0773 130.396 23.736C130.236 23.3947 130.156 22.9733 130.156 22.472C130.156 21.992 130.246 21.5867 130.428 21.256C130.62 20.9253 130.876 20.6587 131.196 20.456C131.516 20.2427 131.884 20.0933 132.3 20.008C132.726 19.912 133.169 19.864 133.628 19.864C133.841 19.864 134.065 19.88 134.3 19.912C134.534 19.9333 134.785 19.976 135.052 20.04V19.72C135.052 19.496 135.025 19.2827 134.972 19.08C134.918 18.8773 134.822 18.7013 134.684 18.552C134.556 18.392 134.38 18.2693 134.156 18.184C133.942 18.0987 133.67 18.056 133.34 18.056C132.892 18.056 132.481 18.088 132.108 18.152C131.734 18.216 131.43 18.2907 131.196 18.376L130.956 16.808C131.201 16.7227 131.558 16.6373 132.028 16.552C132.497 16.4667 132.998 16.424 133.532 16.424ZM144.063 18.376C143.903 18.3227 143.679 18.2693 143.391 18.216C143.113 18.152 142.788 18.12 142.415 18.12C142.201 18.12 141.972 18.1413 141.727 18.184C141.492 18.2267 141.327 18.264 141.231 18.296V25H139.295V17.032C139.668 16.8933 140.132 16.7653 140.687 16.648C141.252 16.52 141.876 16.456 142.559 16.456C142.687 16.456 142.836 16.4667 143.007 16.488C143.177 16.4987 143.348 16.52 143.519 16.552C143.689 16.5733 143.855 16.6053 144.015 16.648C144.175 16.68 144.303 16.712 144.399 16.744L144.063 18.376ZM145.652 14.424L147.588 14.104V16.632H150.564V18.248H147.588V21.656C147.588 22.328 147.694 22.808 147.908 23.096C148.121 23.384 148.484 23.528 148.996 23.528C149.348 23.528 149.657 23.4907 149.924 23.416C150.201 23.3413 150.42 23.272 150.58 23.208L150.9 24.744C150.676 24.84 150.382 24.936 150.02 25.032C149.657 25.1387 149.23 25.192 148.74 25.192C148.142 25.192 147.641 25.112 147.236 24.952C146.841 24.792 146.526 24.5627 146.292 24.264C146.057 23.9547 145.892 23.5867 145.796 23.16C145.7 22.7227 145.652 22.2267 145.652 21.672V14.424ZM151.831 20.856C151.831 20.12 151.937 19.4747 152.151 18.92C152.375 18.3653 152.668 17.9067 153.031 17.544C153.393 17.1707 153.809 16.8933 154.279 16.712C154.748 16.52 155.228 16.424 155.719 16.424C156.871 16.424 157.767 16.7813 158.407 17.496C159.057 18.2107 159.383 19.2773 159.383 20.696C159.383 20.8027 159.377 20.9253 159.367 21.064C159.367 21.192 159.361 21.3093 159.351 21.416H153.831C153.884 22.088 154.119 22.6107 154.535 22.984C154.961 23.3467 155.575 23.528 156.375 23.528C156.844 23.528 157.271 23.4853 157.655 23.4C158.049 23.3147 158.359 23.224 158.583 23.128L158.839 24.712C158.732 24.7653 158.583 24.824 158.391 24.888C158.209 24.9413 157.996 24.9893 157.751 25.032C157.516 25.0853 157.26 25.128 156.983 25.16C156.705 25.192 156.423 25.208 156.135 25.208C155.399 25.208 154.759 25.1013 154.215 24.888C153.671 24.664 153.223 24.36 152.871 23.976C152.519 23.5813 152.257 23.1227 152.087 22.6C151.916 22.0667 151.831 21.4853 151.831 20.856ZM157.447 19.992C157.447 19.7253 157.409 19.4747 157.335 19.24C157.26 18.9947 157.148 18.7867 156.999 18.616C156.86 18.4347 156.684 18.296 156.471 18.2C156.268 18.0933 156.023 18.04 155.735 18.04C155.436 18.04 155.175 18.0987 154.951 18.216C154.727 18.3227 154.535 18.4667 154.375 18.648C154.225 18.8293 154.108 19.0373 154.023 19.272C153.937 19.5067 153.879 19.7467 153.847 19.992H157.447ZM166.203 18.376C166.043 18.3227 165.819 18.2693 165.531 18.216C165.254 18.152 164.928 18.12 164.555 18.12C164.342 18.12 164.112 18.1413 163.867 18.184C163.632 18.2267 163.467 18.264 163.371 18.296V25H161.435V17.032C161.808 16.8933 162.272 16.7653 162.827 16.648C163.392 16.52 164.016 16.456 164.699 16.456C164.827 16.456 164.976 16.4667 165.147 16.488C165.318 16.4987 165.488 16.52 165.659 16.552C165.83 16.5733 165.995 16.6053 166.155 16.648C166.315 16.68 166.443 16.712 166.539 16.744L166.203 18.376ZM176.615 19.736C176.369 20.6747 176.103 21.592 175.815 22.488C175.537 23.3733 175.26 24.2107 174.983 25H173.399C173.185 24.5093 172.961 23.9493 172.727 23.32C172.492 22.6907 172.257 22.0187 172.023 21.304C171.788 20.5893 171.553 19.8373 171.319 19.048C171.084 18.2587 170.855 17.4533 170.631 16.632H172.679C172.775 17.08 172.887 17.5653 173.015 18.088C173.143 18.6 173.276 19.128 173.415 19.672C173.553 20.2053 173.697 20.728 173.847 21.24C173.996 21.752 174.145 22.2213 174.295 22.648C174.455 22.1573 174.609 21.6507 174.759 21.128C174.919 20.6053 175.068 20.0827 175.207 19.56C175.345 19.0373 175.473 18.5307 175.591 18.04C175.719 17.5387 175.831 17.0693 175.927 16.632H177.415C177.511 17.0693 177.617 17.5387 177.735 18.04C177.852 18.5307 177.975 19.0373 178.103 19.56C178.241 20.0827 178.385 20.6053 178.535 21.128C178.695 21.6507 178.855 22.1573 179.015 22.648C179.153 22.2213 179.297 21.752 179.447 21.24C179.596 20.728 179.74 20.2053 179.879 19.672C180.028 19.128 180.167 18.6 180.295 18.088C180.423 17.5653 180.535 17.08 180.631 16.632H182.631C182.407 17.4533 182.177 18.2587 181.943 19.048C181.708 19.8373 181.473 20.5893 181.239 21.304C181.004 22.0187 180.769 22.6907 180.535 23.32C180.3 23.9493 180.071 24.5093 179.847 25H178.279C178.001 24.2107 177.713 23.3733 177.415 22.488C177.127 21.592 176.86 20.6747 176.615 19.736ZM183.643 20.856C183.643 20.12 183.75 19.4747 183.963 18.92C184.187 18.3653 184.48 17.9067 184.843 17.544C185.206 17.1707 185.622 16.8933 186.091 16.712C186.56 16.52 187.04 16.424 187.531 16.424C188.683 16.424 189.579 16.7813 190.219 17.496C190.87 18.2107 191.195 19.2773 191.195 20.696C191.195 20.8027 191.19 20.9253 191.179 21.064C191.179 21.192 191.174 21.3093 191.163 21.416H185.643C185.696 22.088 185.931 22.6107 186.347 22.984C186.774 23.3467 187.387 23.528 188.187 23.528C188.656 23.528 189.083 23.4853 189.467 23.4C189.862 23.3147 190.171 23.224 190.395 23.128L190.651 24.712C190.544 24.7653 190.395 24.824 190.203 24.888C190.022 24.9413 189.808 24.9893 189.563 25.032C189.328 25.0853 189.072 25.128 188.795 25.16C188.518 25.192 188.235 25.208 187.947 25.208C187.211 25.208 186.571 25.1013 186.027 24.888C185.483 24.664 185.035 24.36 184.683 23.976C184.331 23.5813 184.07 23.1227 183.899 22.6C183.728 22.0667 183.643 21.4853 183.643 20.856ZM189.259 19.992C189.259 19.7253 189.222 19.4747 189.147 19.24C189.072 18.9947 188.96 18.7867 188.811 18.616C188.672 18.4347 188.496 18.296 188.283 18.2C188.08 18.0933 187.835 18.04 187.547 18.04C187.248 18.04 186.987 18.0987 186.763 18.216C186.539 18.3227 186.347 18.4667 186.187 18.648C186.038 18.8293 185.92 19.0373 185.835 19.272C185.75 19.5067 185.691 19.7467 185.659 19.992H189.259ZM204.55 20.808C204.55 21.4693 204.454 22.072 204.262 22.616C204.07 23.16 203.798 23.624 203.446 24.008C203.094 24.392 202.667 24.6907 202.166 24.904C201.675 25.1173 201.131 25.224 200.534 25.224C199.937 25.224 199.393 25.1173 198.902 24.904C198.411 24.6907 197.99 24.392 197.638 24.008C197.286 23.624 197.009 23.16 196.806 22.616C196.614 22.072 196.518 21.4693 196.518 20.808C196.518 20.1467 196.614 19.5493 196.806 19.016C197.009 18.472 197.286 18.008 197.638 17.624C198.001 17.24 198.427 16.9467 198.918 16.744C199.409 16.5307 199.947 16.424 200.534 16.424C201.121 16.424 201.659 16.5307 202.15 16.744C202.651 16.9467 203.078 17.24 203.43 17.624C203.782 18.008 204.054 18.472 204.246 19.016C204.449 19.5493 204.55 20.1467 204.55 20.808ZM202.566 20.808C202.566 19.976 202.385 19.32 202.022 18.84C201.67 18.3493 201.174 18.104 200.534 18.104C199.894 18.104 199.393 18.3493 199.03 18.84C198.678 19.32 198.502 19.976 198.502 20.808C198.502 21.6507 198.678 22.3173 199.03 22.808C199.393 23.2987 199.894 23.544 200.534 23.544C201.174 23.544 201.67 23.2987 202.022 22.808C202.385 22.3173 202.566 21.6507 202.566 20.808ZM216.417 12.584C216.865 12.584 217.259 12.6267 217.601 12.712C217.942 12.7867 218.198 12.856 218.369 12.92L218.001 14.52C217.819 14.4347 217.606 14.3653 217.361 14.312C217.126 14.2587 216.87 14.232 216.593 14.232C216.283 14.232 216.022 14.28 215.809 14.376C215.595 14.4613 215.425 14.584 215.297 14.744C215.169 14.904 215.078 15.1013 215.025 15.336C214.971 15.56 214.945 15.8053 214.945 16.072V16.632H217.985V18.248H214.945V25H213.009V16.04C213.009 14.9627 213.291 14.12 213.857 13.512C214.422 12.8933 215.275 12.584 216.417 12.584ZM209.953 12.584C210.401 12.584 210.795 12.6267 211.137 12.712C211.478 12.7867 211.734 12.856 211.905 12.92L211.537 14.52C211.355 14.4347 211.142 14.3653 210.897 14.312C210.662 14.2587 210.406 14.232 210.129 14.232C209.819 14.232 209.558 14.28 209.345 14.376C209.131 14.4613 208.961 14.584 208.833 14.744C208.705 14.904 208.614 15.1013 208.561 15.336C208.507 15.56 208.481 15.8053 208.481 16.072V16.632H211.521V18.248H208.481V25H206.545V16.04C206.545 14.9627 206.827 14.12 207.393 13.512C207.958 12.8933 208.811 12.584 209.953 12.584ZM218.784 20.856C218.784 20.12 218.89 19.4747 219.104 18.92C219.328 18.3653 219.621 17.9067 219.984 17.544C220.346 17.1707 220.762 16.8933 221.232 16.712C221.701 16.52 222.181 16.424 222.672 16.424C223.824 16.424 224.72 16.7813 225.36 17.496C226.01 18.2107 226.336 19.2773 226.336 20.696C226.336 20.8027 226.33 20.9253 226.32 21.064C226.32 21.192 226.314 21.3093 226.304 21.416H220.784C220.837 22.088 221.072 22.6107 221.488 22.984C221.914 23.3467 222.528 23.528 223.328 23.528C223.797 23.528 224.224 23.4853 224.608 23.4C225.002 23.3147 225.312 23.224 225.536 23.128L225.792 24.712C225.685 24.7653 225.536 24.824 225.344 24.888C225.162 24.9413 224.949 24.9893 224.704 25.032C224.469 25.0853 224.213 25.128 223.936 25.16C223.658 25.192 223.376 25.208 223.088 25.208C222.352 25.208 221.712 25.1013 221.168 24.888C220.624 24.664 220.176 24.36 219.824 23.976C219.472 23.5813 219.21 23.1227 219.04 22.6C218.869 22.0667 218.784 21.4853 218.784 20.856ZM224.4 19.992C224.4 19.7253 224.362 19.4747 224.288 19.24C224.213 18.9947 224.101 18.7867 223.952 18.616C223.813 18.4347 223.637 18.296 223.424 18.2C223.221 18.0933 222.976 18.04 222.688 18.04C222.389 18.04 222.128 18.0987 221.904 18.216C221.68 18.3227 221.488 18.4667 221.328 18.648C221.178 18.8293 221.061 19.0373 220.976 19.272C220.89 19.5067 220.832 19.7467 220.8 19.992H224.4ZM233.156 18.376C232.996 18.3227 232.772 18.2693 232.484 18.216C232.207 18.152 231.882 18.12 231.508 18.12C231.295 18.12 231.066 18.1413 230.82 18.184C230.586 18.2267 230.42 18.264 230.324 18.296V25H228.388V17.032C228.762 16.8933 229.226 16.7653 229.78 16.648C230.346 16.52 230.97 16.456 231.652 16.456C231.78 16.456 231.93 16.4667 232.1 16.488C232.271 16.4987 232.442 16.52 232.612 16.552C232.783 16.5733 232.948 16.6053 233.108 16.648C233.268 16.68 233.396 16.712 233.492 16.744L233.156 18.376ZM30.144 43.16C29.568 43.1493 29.088 43.0853 28.704 42.968C28.3307 42.8507 28.032 42.6853 27.808 42.472C27.584 42.248 27.424 41.976 27.328 41.656C27.2427 41.3253 27.2 40.952 27.2 40.536V30.904L29.136 30.584V40.168C29.136 40.4027 29.152 40.6 29.184 40.76C29.2267 40.92 29.296 41.0587 29.392 41.176C29.488 41.2827 29.616 41.368 29.776 41.432C29.9467 41.4853 30.16 41.528 30.416 41.56L30.144 43.16ZM33.934 43H31.998V34.632H33.934V43ZM34.142 32.184C34.142 32.5467 34.0247 32.8347 33.79 33.048C33.5553 33.2613 33.278 33.368 32.958 33.368C32.6273 33.368 32.3447 33.2613 32.11 33.048C31.8753 32.8347 31.758 32.5467 31.758 32.184C31.758 31.8107 31.8753 31.5173 32.11 31.304C32.3447 31.0907 32.6273 30.984 32.958 30.984C33.278 30.984 33.5553 31.0907 33.79 31.304C34.0247 31.5173 34.142 31.8107 34.142 32.184ZM41.1719 38.6C41.1719 37.7253 41.0599 37.096 40.8359 36.712C40.6225 36.3173 40.2172 36.12 39.6199 36.12C39.4065 36.12 39.1719 36.136 38.9159 36.168C38.6599 36.2 38.4679 36.2267 38.3399 36.248V43H36.4039V34.904C36.7772 34.7973 37.2625 34.696 37.8599 34.6C38.4679 34.504 39.1079 34.456 39.7799 34.456C40.3559 34.456 40.8252 34.5307 41.1879 34.68C41.5612 34.8293 41.8705 35.0267 42.1159 35.272C42.2332 35.1867 42.3825 35.096 42.5639 35C42.7452 34.904 42.9479 34.8187 43.1719 34.744C43.3959 34.6587 43.6305 34.5893 43.8759 34.536C44.1319 34.4827 44.3879 34.456 44.6439 34.456C45.2945 34.456 45.8279 34.552 46.2439 34.744C46.6705 34.9253 47.0012 35.1867 47.2359 35.528C47.4812 35.8587 47.6465 36.264 47.7319 36.744C47.8279 37.2133 47.8759 37.7307 47.8759 38.296V43H45.9399V38.6C45.9399 37.7253 45.8332 37.096 45.6199 36.712C45.4065 36.3173 44.9959 36.12 44.3879 36.12C44.0785 36.12 43.7852 36.1733 43.5079 36.28C43.2305 36.376 43.0225 36.472 42.8839 36.568C42.9692 36.8347 43.0279 37.1173 43.0599 37.416C43.0919 37.7147 43.1079 38.0347 43.1079 38.376V43H41.1719V38.6ZM52.1996 43H50.2636V34.632H52.1996V43ZM52.4076 32.184C52.4076 32.5467 52.2903 32.8347 52.0556 33.048C51.821 33.2613 51.5436 33.368 51.2236 33.368C50.893 33.368 50.6103 33.2613 50.3756 33.048C50.141 32.8347 50.0236 32.5467 50.0236 32.184C50.0236 31.8107 50.141 31.5173 50.3756 31.304C50.6103 31.0907 50.893 30.984 51.2236 30.984C51.5436 30.984 51.821 31.0907 52.0556 31.304C52.2903 31.5173 52.4076 31.8107 52.4076 32.184ZM54.5735 32.424L56.5095 32.104V34.632H59.4855V36.248H56.5095V39.656C56.5095 40.328 56.6162 40.808 56.8295 41.096C57.0428 41.384 57.4055 41.528 57.9175 41.528C58.2695 41.528 58.5788 41.4907 58.8455 41.416C59.1228 41.3413 59.3415 41.272 59.5015 41.208L59.8215 42.744C59.5975 42.84 59.3042 42.936 58.9415 43.032C58.5788 43.1387 58.1522 43.192 57.6615 43.192C57.0642 43.192 56.5628 43.112 56.1575 42.952C55.7628 42.792 55.4482 42.5627 55.2135 42.264C54.9788 41.9547 54.8135 41.5867 54.7175 41.16C54.6215 40.7227 54.5735 40.2267 54.5735 39.672V32.424ZM60.7524 38.856C60.7524 38.12 60.859 37.4747 61.0724 36.92C61.2964 36.3653 61.5897 35.9067 61.9524 35.544C62.315 35.1707 62.731 34.8933 63.2004 34.712C63.6697 34.52 64.1497 34.424 64.6404 34.424C65.7924 34.424 66.6884 34.7813 67.3284 35.496C67.979 36.2107 68.3044 37.2773 68.3044 38.696C68.3044 38.8027 68.299 38.9253 68.2884 39.064C68.2884 39.192 68.283 39.3093 68.2724 39.416H62.7524C62.8057 40.088 63.0404 40.6107 63.4564 40.984C63.883 41.3467 64.4964 41.528 65.2964 41.528C65.7657 41.528 66.1924 41.4853 66.5764 41.4C66.971 41.3147 67.2804 41.224 67.5044 41.128L67.7604 42.712C67.6537 42.7653 67.5044 42.824 67.3124 42.888C67.131 42.9413 66.9177 42.9893 66.6724 43.032C66.4377 43.0853 66.1817 43.128 65.9044 43.16C65.627 43.192 65.3444 43.208 65.0564 43.208C64.3204 43.208 63.6804 43.1013 63.1364 42.888C62.5924 42.664 62.1444 42.36 61.7924 41.976C61.4404 41.5813 61.179 41.1227 61.0084 40.6C60.8377 40.0667 60.7524 39.4853 60.7524 38.856ZM66.3684 37.992C66.3684 37.7253 66.331 37.4747 66.2564 37.24C66.1817 36.9947 66.0697 36.7867 65.9204 36.616C65.7817 36.4347 65.6057 36.296 65.3924 36.2C65.1897 36.0933 64.9444 36.04 64.6564 36.04C64.3577 36.04 64.0964 36.0987 63.8724 36.216C63.6484 36.3227 63.4564 36.4667 63.2964 36.648C63.147 36.8293 63.0297 37.0373 62.9444 37.272C62.859 37.5067 62.8004 37.7467 62.7684 37.992H66.3684ZM71.877 38.792C71.877 39.6453 72.0797 40.3173 72.485 40.808C72.8903 41.288 73.4503 41.528 74.165 41.528C74.4743 41.528 74.7357 41.5173 74.949 41.496C75.173 41.464 75.3543 41.432 75.493 41.4V36.6C75.3223 36.4827 75.093 36.376 74.805 36.28C74.5277 36.1733 74.229 36.12 73.909 36.12C73.205 36.12 72.6877 36.36 72.357 36.84C72.037 37.32 71.877 37.9707 71.877 38.792ZM77.429 42.744C77.045 42.8613 76.5597 42.968 75.973 43.064C75.397 43.16 74.789 43.208 74.149 43.208C73.4877 43.208 72.8957 43.1067 72.373 42.904C71.8503 42.7013 71.4023 42.4133 71.029 42.04C70.6663 41.656 70.3837 41.1973 70.181 40.664C69.989 40.12 69.893 39.512 69.893 38.84C69.893 38.1787 69.973 37.5813 70.133 37.048C70.3037 36.504 70.549 36.04 70.869 35.656C71.189 35.272 71.5783 34.9787 72.037 34.776C72.4957 34.5627 73.0237 34.456 73.621 34.456C74.0263 34.456 74.3837 34.504 74.693 34.6C75.0023 34.696 75.269 34.8027 75.493 34.92V30.904L77.429 30.584V42.744ZM79.0243 37.544H83.3283V39.32H79.0243V37.544ZM87.8791 41.64C88.4765 41.64 88.9298 41.608 89.2391 41.544V39.4C89.1325 39.368 88.9778 39.336 88.7751 39.304C88.5725 39.272 88.3485 39.256 88.1031 39.256C87.8898 39.256 87.6711 39.272 87.4471 39.304C87.2338 39.336 87.0365 39.3947 86.8551 39.48C86.6845 39.5653 86.5458 39.688 86.4391 39.848C86.3325 39.9973 86.2791 40.1893 86.2791 40.424C86.2791 40.8827 86.4231 41.2027 86.7111 41.384C86.9991 41.5547 87.3885 41.64 87.8791 41.64ZM87.7191 34.424C88.3591 34.424 88.8978 34.504 89.3351 34.664C89.7725 34.824 90.1191 35.048 90.3751 35.336C90.6418 35.624 90.8285 35.976 90.9351 36.392C91.0525 36.7973 91.1111 37.2453 91.1111 37.736V42.808C90.8125 42.872 90.3591 42.9467 89.7511 43.032C89.1538 43.128 88.4765 43.176 87.7191 43.176C87.2178 43.176 86.7591 43.128 86.3431 43.032C85.9271 42.936 85.5698 42.7813 85.2711 42.568C84.9831 42.3547 84.7538 42.0773 84.5831 41.736C84.4231 41.3947 84.3431 40.9733 84.3431 40.472C84.3431 39.992 84.4338 39.5867 84.6151 39.256C84.8071 38.9253 85.0631 38.6587 85.3831 38.456C85.7031 38.2427 86.0711 38.0933 86.4871 38.008C86.9138 37.912 87.3565 37.864 87.8151 37.864C88.0285 37.864 88.2525 37.88 88.4871 37.912C88.7218 37.9333 88.9725 37.976 89.2391 38.04V37.72C89.2391 37.496 89.2125 37.2827 89.1591 37.08C89.1058 36.8773 89.0098 36.7013 88.8711 36.552C88.7431 36.392 88.5671 36.2693 88.3431 36.184C88.1298 36.0987 87.8578 36.056 87.5271 36.056C87.0791 36.056 86.6685 36.088 86.2951 36.152C85.9218 36.216 85.6178 36.2907 85.3831 36.376L85.1431 34.808C85.3885 34.7227 85.7458 34.6373 86.2151 34.552C86.6845 34.4667 87.1858 34.424 87.7191 34.424ZM95.4229 43C94.8895 41.9013 94.3402 40.6427 93.7749 39.224C93.2202 37.7947 92.7135 36.264 92.2549 34.632H94.3189C94.4362 35.1013 94.5695 35.608 94.7189 36.152C94.8789 36.6853 95.0442 37.224 95.2149 37.768C95.3962 38.3013 95.5775 38.824 95.7589 39.336C95.9509 39.8373 96.1269 40.2907 96.2869 40.696C96.4469 40.2907 96.6175 39.8373 96.7989 39.336C96.9802 38.824 97.1562 38.3013 97.3269 37.768C97.5082 37.224 97.6789 36.6853 97.8389 36.152C97.9989 35.608 98.1375 35.1013 98.2549 34.632H100.255C99.7962 36.264 99.2842 37.7947 98.7189 39.224C98.1642 40.6427 97.6202 41.9013 97.0869 43H95.4229ZM104.645 41.64C105.242 41.64 105.695 41.608 106.005 41.544V39.4C105.898 39.368 105.743 39.336 105.541 39.304C105.338 39.272 105.114 39.256 104.869 39.256C104.655 39.256 104.437 39.272 104.213 39.304C103.999 39.336 103.802 39.3947 103.621 39.48C103.45 39.5653 103.311 39.688 103.205 39.848C103.098 39.9973 103.045 40.1893 103.045 40.424C103.045 40.8827 103.189 41.2027 103.477 41.384C103.765 41.5547 104.154 41.64 104.645 41.64ZM104.485 34.424C105.125 34.424 105.663 34.504 106.101 34.664C106.538 34.824 106.885 35.048 107.141 35.336C107.407 35.624 107.594 35.976 107.701 36.392C107.818 36.7973 107.877 37.2453 107.877 37.736V42.808C107.578 42.872 107.125 42.9467 106.517 43.032C105.919 43.128 105.242 43.176 104.485 43.176C103.983 43.176 103.525 43.128 103.109 43.032C102.693 42.936 102.335 42.7813 102.037 42.568C101.749 42.3547 101.519 42.0773 101.349 41.736C101.189 41.3947 101.109 40.9733 101.109 40.472C101.109 39.992 101.199 39.5867 101.381 39.256C101.573 38.9253 101.829 38.6587 102.149 38.456C102.469 38.2427 102.837 38.0933 103.253 38.008C103.679 37.912 104.122 37.864 104.581 37.864C104.794 37.864 105.018 37.88 105.253 37.912C105.487 37.9333 105.738 37.976 106.005 38.04V37.72C106.005 37.496 105.978 37.2827 105.925 37.08C105.871 36.8773 105.775 36.7013 105.637 36.552C105.509 36.392 105.333 36.2693 105.109 36.184C104.895 36.0987 104.623 36.056 104.293 36.056C103.845 36.056 103.434 36.088 103.061 36.152C102.687 36.216 102.383 36.2907 102.149 36.376L101.909 34.808C102.154 34.7227 102.511 34.6373 102.981 34.552C103.45 34.4667 103.951 34.424 104.485 34.424ZM112.2 43H110.264V34.632H112.2V43ZM112.408 32.184C112.408 32.5467 112.29 32.8347 112.056 33.048C111.821 33.2613 111.544 33.368 111.224 33.368C110.893 33.368 110.61 33.2613 110.376 33.048C110.141 32.8347 110.024 32.5467 110.024 32.184C110.024 31.8107 110.141 31.5173 110.376 31.304C110.61 31.0907 110.893 30.984 111.224 30.984C111.544 30.984 111.821 31.0907 112.056 31.304C112.29 31.5173 112.408 31.8107 112.408 32.184ZM117.582 43.16C117.006 43.1493 116.526 43.0853 116.142 42.968C115.768 42.8507 115.47 42.6853 115.246 42.472C115.022 42.248 114.862 41.976 114.766 41.656C114.68 41.3253 114.638 40.952 114.638 40.536V30.904L116.574 30.584V40.168C116.574 40.4027 116.59 40.6 116.622 40.76C116.664 40.92 116.734 41.0587 116.83 41.176C116.926 41.2827 117.054 41.368 117.214 41.432C117.384 41.4853 117.598 41.528 117.854 41.56L117.582 43.16ZM122.364 41.64C122.961 41.64 123.414 41.608 123.724 41.544V39.4C123.617 39.368 123.462 39.336 123.26 39.304C123.057 39.272 122.833 39.256 122.588 39.256C122.374 39.256 122.156 39.272 121.932 39.304C121.718 39.336 121.521 39.3947 121.34 39.48C121.169 39.5653 121.03 39.688 120.924 39.848C120.817 39.9973 120.764 40.1893 120.764 40.424C120.764 40.8827 120.908 41.2027 121.196 41.384C121.484 41.5547 121.873 41.64 122.364 41.64ZM122.204 34.424C122.844 34.424 123.382 34.504 123.82 34.664C124.257 34.824 124.604 35.048 124.86 35.336C125.126 35.624 125.313 35.976 125.42 36.392C125.537 36.7973 125.596 37.2453 125.596 37.736V42.808C125.297 42.872 124.844 42.9467 124.236 43.032C123.638 43.128 122.961 43.176 122.204 43.176C121.702 43.176 121.244 43.128 120.828 43.032C120.412 42.936 120.054 42.7813 119.756 42.568C119.468 42.3547 119.238 42.0773 119.068 41.736C118.908 41.3947 118.828 40.9733 118.828 40.472C118.828 39.992 118.918 39.5867 119.1 39.256C119.292 38.9253 119.548 38.6587 119.868 38.456C120.188 38.2427 120.556 38.0933 120.972 38.008C121.398 37.912 121.841 37.864 122.299 37.864C122.513 37.864 122.737 37.88 122.972 37.912C123.206 37.9333 123.457 37.976 123.724 38.04V37.72C123.724 37.496 123.697 37.2827 123.644 37.08C123.59 36.8773 123.494 36.7013 123.356 36.552C123.228 36.392 123.052 36.2693 122.828 36.184C122.614 36.0987 122.342 36.056 122.012 36.056C121.564 36.056 121.153 36.088 120.78 36.152C120.406 36.216 120.102 36.2907 119.868 36.376L119.628 34.808C119.873 34.7227 120.23 34.6373 120.7 34.552C121.169 34.4667 121.67 34.424 122.204 34.424ZM133.518 38.792C133.518 37.9707 133.353 37.32 133.022 36.84C132.702 36.36 132.19 36.12 131.486 36.12C131.166 36.12 130.862 36.168 130.574 36.264C130.297 36.36 130.073 36.4667 129.902 36.584V41.4C130.041 41.432 130.217 41.464 130.43 41.496C130.654 41.5173 130.921 41.528 131.23 41.528C131.945 41.528 132.505 41.288 132.91 40.808C133.316 40.3173 133.518 39.6453 133.518 38.792ZM135.502 38.824C135.502 39.496 135.401 40.104 135.198 40.648C135.006 41.1813 134.724 41.64 134.35 42.024C133.988 42.408 133.545 42.7013 133.022 42.904C132.5 43.1067 131.908 43.208 131.246 43.208C130.606 43.208 129.993 43.16 129.406 43.064C128.83 42.968 128.35 42.8613 127.966 42.744V30.904L129.902 30.584V34.92C130.126 34.8027 130.398 34.696 130.718 34.6C131.049 34.504 131.412 34.456 131.806 34.456C132.393 34.456 132.916 34.5627 133.374 34.776C133.844 34.9787 134.233 35.272 134.542 35.656C134.852 36.04 135.086 36.504 135.246 37.048C135.417 37.5813 135.502 38.1733 135.502 38.824ZM139.45 43H137.514V34.632H139.45V43ZM139.658 32.184C139.658 32.5467 139.54 32.8347 139.306 33.048C139.071 33.2613 138.794 33.368 138.474 33.368C138.143 33.368 137.86 33.2613 137.626 33.048C137.391 32.8347 137.274 32.5467 137.274 32.184C137.274 31.8107 137.391 31.5173 137.626 31.304C137.86 31.0907 138.143 30.984 138.474 30.984C138.794 30.984 139.071 31.0907 139.306 31.304C139.54 31.5173 139.658 31.8107 139.658 32.184ZM144.832 43.16C144.256 43.1493 143.776 43.0853 143.392 42.968C143.018 42.8507 142.72 42.6853 142.496 42.472C142.272 42.248 142.112 41.976 142.016 41.656C141.93 41.3253 141.888 40.952 141.888 40.536V30.904L143.824 30.584V40.168C143.824 40.4027 143.84 40.6 143.872 40.76C143.914 40.92 143.984 41.0587 144.08 41.176C144.176 41.2827 144.304 41.368 144.464 41.432C144.634 41.4853 144.848 41.528 145.104 41.56L144.832 43.16ZM148.622 43H146.686V34.632H148.622V43ZM148.83 32.184C148.83 32.5467 148.712 32.8347 148.478 33.048C148.243 33.2613 147.966 33.368 147.646 33.368C147.315 33.368 147.032 33.2613 146.798 33.048C146.563 32.8347 146.446 32.5467 146.446 32.184C146.446 31.8107 146.563 31.5173 146.798 31.304C147.032 31.0907 147.315 30.984 147.646 30.984C147.966 30.984 148.243 31.0907 148.478 31.304C148.712 31.5173 148.83 31.8107 148.83 32.184ZM150.995 32.424L152.931 32.104V34.632H155.907V36.248H152.931V39.656C152.931 40.328 153.038 40.808 153.251 41.096C153.465 41.384 153.827 41.528 154.339 41.528C154.691 41.528 155.001 41.4907 155.267 41.416C155.545 41.3413 155.763 41.272 155.923 41.208L156.243 42.744C156.019 42.84 155.726 42.936 155.363 43.032C155.001 43.1387 154.574 43.192 154.083 43.192C153.486 43.192 152.985 43.112 152.579 42.952C152.185 42.792 151.87 42.5627 151.635 42.264C151.401 41.9547 151.235 41.5867 151.139 41.16C151.043 40.7227 150.995 40.2267 150.995 39.672V32.424ZM164.611 34.632C163.747 37.8107 162.744 40.6907 161.603 43.272C161.39 43.752 161.171 44.1627 160.947 44.504C160.723 44.8453 160.472 45.128 160.195 45.352C159.918 45.576 159.608 45.736 159.267 45.832C158.926 45.9387 158.531 45.992 158.083 45.992C157.784 45.992 157.486 45.96 157.187 45.896C156.899 45.832 156.68 45.7627 156.531 45.688L156.883 44.136C157.267 44.2853 157.646 44.36 158.019 44.36C158.52 44.36 158.91 44.2373 159.187 43.992C159.475 43.7573 159.726 43.3893 159.939 42.888C159.331 41.7147 158.744 40.4347 158.179 39.048C157.624 37.6613 157.128 36.1893 156.691 34.632H158.755C158.862 35.08 158.99 35.5653 159.139 36.088C159.299 36.6107 159.47 37.144 159.651 37.688C159.832 38.2213 160.024 38.7547 160.227 39.288C160.43 39.8213 160.632 40.3173 160.835 40.776C161.176 39.8267 161.496 38.8187 161.795 37.752C162.094 36.6747 162.366 35.6347 162.611 34.632H164.611ZM171.906 41.608C172.418 41.608 172.791 41.5493 173.026 41.432C173.261 41.304 173.378 41.0907 173.378 40.792C173.378 40.5147 173.25 40.2853 172.994 40.104C172.749 39.9227 172.338 39.7253 171.762 39.512C171.41 39.384 171.085 39.2507 170.786 39.112C170.498 38.9627 170.247 38.792 170.034 38.6C169.821 38.408 169.65 38.1787 169.522 37.912C169.405 37.6347 169.346 37.2987 169.346 36.904C169.346 36.136 169.629 35.5333 170.194 35.096C170.759 34.648 171.527 34.424 172.498 34.424C172.989 34.424 173.458 34.472 173.906 34.568C174.354 34.6533 174.69 34.7387 174.914 34.824L174.562 36.392C174.349 36.296 174.077 36.2107 173.746 36.136C173.415 36.0507 173.031 36.008 172.594 36.008C172.199 36.008 171.879 36.0773 171.634 36.216C171.389 36.344 171.266 36.5467 171.266 36.824C171.266 36.9627 171.287 37.0853 171.33 37.192C171.383 37.2987 171.469 37.4 171.586 37.496C171.703 37.5813 171.858 37.672 172.05 37.768C172.242 37.8533 172.477 37.944 172.754 38.04C173.213 38.2107 173.602 38.3813 173.922 38.552C174.242 38.712 174.503 38.8987 174.706 39.112C174.919 39.3147 175.074 39.5493 175.17 39.816C175.266 40.0827 175.314 40.4027 175.314 40.776C175.314 41.576 175.015 42.184 174.418 42.6C173.831 43.0053 172.989 43.208 171.89 43.208C171.154 43.208 170.562 43.144 170.114 43.016C169.666 42.8987 169.351 42.8027 169.17 42.728L169.506 41.112C169.794 41.2293 170.135 41.3413 170.53 41.448C170.935 41.5547 171.394 41.608 171.906 41.608ZM182.675 38.856C182.675 37.992 182.477 37.32 182.083 36.84C181.699 36.36 181.075 36.12 180.211 36.12C180.029 36.12 179.837 36.1307 179.635 36.152C179.443 36.1627 179.251 36.1947 179.059 36.248V41.032C179.229 41.1493 179.453 41.2613 179.731 41.368C180.019 41.464 180.323 41.512 180.643 41.512C181.347 41.512 181.859 41.272 182.179 40.792C182.509 40.312 182.675 39.6667 182.675 38.856ZM184.659 38.824C184.659 39.464 184.573 40.0507 184.403 40.584C184.243 41.1173 184.008 41.576 183.699 41.96C183.389 42.344 183 42.6427 182.531 42.856C182.072 43.0693 181.549 43.176 180.963 43.176C180.568 43.176 180.205 43.128 179.875 43.032C179.544 42.936 179.272 42.8293 179.059 42.712V45.96H177.123V34.904C177.517 34.7973 178.003 34.696 178.579 34.6C179.155 34.504 179.763 34.456 180.403 34.456C181.064 34.456 181.656 34.5573 182.179 34.76C182.701 34.9627 183.144 35.256 183.507 35.64C183.88 36.0133 184.163 36.472 184.355 37.016C184.557 37.5493 184.659 38.152 184.659 38.824ZM186.19 38.856C186.19 38.12 186.297 37.4747 186.51 36.92C186.734 36.3653 187.027 35.9067 187.39 35.544C187.753 35.1707 188.169 34.8933 188.638 34.712C189.107 34.52 189.587 34.424 190.078 34.424C191.23 34.424 192.126 34.7813 192.766 35.496C193.417 36.2107 193.742 37.2773 193.742 38.696C193.742 38.8027 193.737 38.9253 193.726 39.064C193.726 39.192 193.721 39.3093 193.71 39.416H188.19C188.243 40.088 188.478 40.6107 188.894 40.984C189.321 41.3467 189.934 41.528 190.734 41.528C191.203 41.528 191.63 41.4853 192.014 41.4C192.409 41.3147 192.718 41.224 192.942 41.128L193.198 42.712C193.091 42.7653 192.942 42.824 192.75 42.888C192.569 42.9413 192.355 42.9893 192.11 43.032C191.875 43.0853 191.619 43.128 191.342 43.16C191.065 43.192 190.782 43.208 190.494 43.208C189.758 43.208 189.118 43.1013 188.574 42.888C188.03 42.664 187.582 42.36 187.23 41.976C186.878 41.5813 186.617 41.1227 186.446 40.6C186.275 40.0667 186.19 39.4853 186.19 38.856ZM191.806 37.992C191.806 37.7253 191.769 37.4747 191.694 37.24C191.619 36.9947 191.507 36.7867 191.358 36.616C191.219 36.4347 191.043 36.296 190.83 36.2C190.627 36.0933 190.382 36.04 190.094 36.04C189.795 36.04 189.534 36.0987 189.31 36.216C189.086 36.3227 188.894 36.4667 188.734 36.648C188.585 36.8293 188.467 37.0373 188.382 37.272C188.297 37.5067 188.238 37.7467 188.206 37.992H191.806ZM195.331 38.824C195.331 38.2053 195.427 37.6293 195.618 37.096C195.811 36.552 196.083 36.0827 196.435 35.688C196.797 35.2933 197.235 34.984 197.747 34.76C198.259 34.536 198.835 34.424 199.475 34.424C200.264 34.424 201.011 34.568 201.715 34.856L201.299 36.44C201.075 36.344 200.819 36.264 200.531 36.2C200.253 36.136 199.955 36.104 199.635 36.104C198.877 36.104 198.301 36.344 197.907 36.824C197.512 37.2933 197.315 37.96 197.315 38.824C197.315 39.656 197.501 40.3173 197.875 40.808C198.248 41.288 198.877 41.528 199.763 41.528C200.093 41.528 200.419 41.496 200.739 41.432C201.059 41.368 201.336 41.288 201.571 41.192L201.843 42.792C201.629 42.8987 201.304 42.9947 200.867 43.08C200.44 43.1653 199.997 43.208 199.539 43.208C198.824 43.208 198.2 43.1013 197.667 42.888C197.144 42.664 196.707 42.36 196.355 41.976C196.013 41.5813 195.757 41.1173 195.587 40.584C195.416 40.04 195.331 39.4533 195.331 38.824ZM205.293 43H203.357V34.632H205.293V43ZM205.501 32.184C205.501 32.5467 205.384 32.8347 205.149 33.048C204.915 33.2613 204.637 33.368 204.317 33.368C203.987 33.368 203.704 33.2613 203.469 33.048C203.235 32.8347 203.117 32.5467 203.117 32.184C203.117 31.8107 203.235 31.5173 203.469 31.304C203.704 31.0907 203.987 30.984 204.317 30.984C204.637 30.984 204.915 31.0907 205.149 31.304C205.384 31.5173 205.501 31.8107 205.501 32.184ZM210.707 41.64C211.305 41.64 211.758 41.608 212.067 41.544V39.4C211.961 39.368 211.806 39.336 211.603 39.304C211.401 39.272 211.177 39.256 210.931 39.256C210.718 39.256 210.499 39.272 210.275 39.304C210.062 39.336 209.865 39.3947 209.683 39.48C209.513 39.5653 209.374 39.688 209.267 39.848C209.161 39.9973 209.107 40.1893 209.107 40.424C209.107 40.8827 209.251 41.2027 209.539 41.384C209.827 41.5547 210.217 41.64 210.707 41.64ZM210.547 34.424C211.187 34.424 211.726 34.504 212.163 34.664C212.601 34.824 212.947 35.048 213.203 35.336C213.47 35.624 213.657 35.976 213.763 36.392C213.881 36.7973 213.939 37.2453 213.939 37.736V42.808C213.641 42.872 213.187 42.9467 212.579 43.032C211.982 43.128 211.305 43.176 210.547 43.176C210.046 43.176 209.587 43.128 209.171 43.032C208.755 42.936 208.398 42.7813 208.099 42.568C207.811 42.3547 207.582 42.0773 207.411 41.736C207.251 41.3947 207.171 40.9733 207.171 40.472C207.171 39.992 207.262 39.5867 207.443 39.256C207.635 38.9253 207.891 38.6587 208.211 38.456C208.531 38.2427 208.899 38.0933 209.315 38.008C209.742 37.912 210.185 37.864 210.643 37.864C210.857 37.864 211.081 37.88 211.315 37.912C211.55 37.9333 211.801 37.976 212.067 38.04V37.72C212.067 37.496 212.041 37.2827 211.987 37.08C211.934 36.8773 211.838 36.7013 211.699 36.552C211.571 36.392 211.395 36.2693 211.171 36.184C210.958 36.0987 210.686 36.056 210.355 36.056C209.907 36.056 209.497 36.088 209.123 36.152C208.75 36.216 208.446 36.2907 208.211 36.376L207.971 34.808C208.217 34.7227 208.574 34.6373 209.043 34.552C209.513 34.4667 210.014 34.424 210.547 34.424ZM219.222 43.16C218.646 43.1493 218.166 43.0853 217.782 42.968C217.409 42.8507 217.11 42.6853 216.886 42.472C216.662 42.248 216.502 41.976 216.406 41.656C216.321 41.3253 216.278 40.952 216.278 40.536V30.904L218.214 30.584V40.168C218.214 40.4027 218.23 40.6 218.262 40.76C218.305 40.92 218.374 41.0587 218.47 41.176C218.566 41.2827 218.694 41.368 218.854 41.432C219.025 41.4853 219.238 41.528 219.494 41.56L219.222 43.16ZM230.347 38.792C230.347 37.9707 230.181 37.32 229.851 36.84C229.531 36.36 229.019 36.12 228.315 36.12C227.995 36.12 227.691 36.168 227.403 36.264C227.125 36.36 226.901 36.4667 226.731 36.584V41.4C226.869 41.432 227.045 41.464 227.259 41.496C227.483 41.5173 227.749 41.528 228.059 41.528C228.773 41.528 229.333 41.288 229.739 40.808C230.144 40.3173 230.347 39.6453 230.347 38.792ZM232.331 38.824C232.331 39.496 232.229 40.104 232.027 40.648C231.835 41.1813 231.552 41.64 231.179 42.024C230.816 42.408 230.373 42.7013 229.851 42.904C229.328 43.1067 228.736 43.208 228.075 43.208C227.435 43.208 226.821 43.16 226.235 43.064C225.659 42.968 225.179 42.8613 224.795 42.744V30.904L226.731 30.584V34.92C226.955 34.8027 227.227 34.696 227.547 34.6C227.877 34.504 228.24 34.456 228.635 34.456C229.221 34.456 229.744 34.5627 230.203 34.776C230.672 34.9787 231.061 35.272 231.371 35.656C231.68 36.04 231.915 36.504 232.075 37.048C232.245 37.5813 232.331 38.1733 232.331 38.824ZM241.19 42.744C240.816 42.84 240.331 42.936 239.734 43.032C239.136 43.1387 238.48 43.192 237.766 43.192C237.094 43.192 236.528 43.096 236.07 42.904C235.622 42.712 235.259 42.4453 234.982 42.104C234.715 41.7627 234.523 41.3573 234.406 40.888C234.288 40.408 234.23 39.8853 234.23 39.32V34.632H236.166V39.016C236.166 39.912 236.294 40.552 236.55 40.936C236.816 41.32 237.275 41.512 237.926 41.512C238.16 41.512 238.406 41.5013 238.662 41.48C238.928 41.4587 239.126 41.432 239.254 41.4V34.632H241.19V42.744ZM250.486 34.632C249.622 37.8107 248.619 40.6907 247.478 43.272C247.265 43.752 247.046 44.1627 246.822 44.504C246.598 44.8453 246.347 45.128 246.07 45.352C245.793 45.576 245.483 45.736 245.142 45.832C244.801 45.9387 244.406 45.992 243.958 45.992C243.659 45.992 243.361 45.96 243.062 45.896C242.774 45.832 242.555 45.7627 242.406 45.688L242.758 44.136C243.142 44.2853 243.521 44.36 243.894 44.36C244.395 44.36 244.785 44.2373 245.062 43.992C245.35 43.7573 245.601 43.3893 245.814 42.888C245.206 41.7147 244.619 40.4347 244.054 39.048C243.499 37.6613 243.003 36.1893 242.566 34.632H244.63C244.737 35.08 244.865 35.5653 245.014 36.088C245.174 36.6107 245.345 37.144 245.526 37.688C245.707 38.2213 245.899 38.7547 246.102 39.288C246.305 39.8213 246.507 40.3173 246.71 40.776C247.051 39.8267 247.371 38.8187 247.67 37.752C247.969 36.6747 248.241 35.6347 248.486 34.632H250.486ZM254.047 41.608C254.559 41.608 254.932 41.5493 255.167 41.432C255.401 41.304 255.519 41.0907 255.519 40.792C255.519 40.5147 255.391 40.2853 255.135 40.104C254.889 39.9227 254.479 39.7253 253.903 39.512C253.551 39.384 253.225 39.2507 252.927 39.112C252.639 38.9627 252.388 38.792 252.175 38.6C251.961 38.408 251.791 38.1787 251.663 37.912C251.545 37.6347 251.487 37.2987 251.487 36.904C251.487 36.136 251.769 35.5333 252.335 35.096C252.9 34.648 253.668 34.424 254.639 34.424C255.129 34.424 255.599 34.472 256.047 34.568C256.495 34.6533 256.831 34.7387 257.055 34.824L256.703 36.392C256.489 36.296 256.217 36.2107 255.887 36.136C255.556 36.0507 255.172 36.008 254.735 36.008C254.34 36.008 254.02 36.0773 253.775 36.216C253.529 36.344 253.407 36.5467 253.407 36.824C253.407 36.9627 253.428 37.0853 253.471 37.192C253.524 37.2987 253.609 37.4 253.727 37.496C253.844 37.5813 253.999 37.672 254.191 37.768C254.383 37.8533 254.617 37.944 254.895 38.04C255.353 38.2107 255.743 38.3813 256.063 38.552C256.383 38.712 256.644 38.8987 256.847 39.112C257.06 39.3147 257.215 39.5493 257.311 39.816C257.407 40.0827 257.455 40.4027 257.455 40.776C257.455 41.576 257.156 42.184 256.559 42.6C255.972 43.0053 255.129 43.208 254.031 43.208C253.295 43.208 252.703 43.144 252.255 43.016C251.807 42.8987 251.492 42.8027 251.311 42.728L251.647 41.112C251.935 41.2293 252.276 41.3413 252.671 41.448C253.076 41.5547 253.535 41.608 254.047 41.608ZM34.8 56.808C34.8 57.4693 34.704 58.072 34.512 58.616C34.32 59.16 34.048 59.624 33.696 60.008C33.344 60.392 32.9173 60.6907 32.416 60.904C31.9253 61.1173 31.3813 61.224 30.784 61.224C30.1867 61.224 29.6427 61.1173 29.152 60.904C28.6613 60.6907 28.24 60.392 27.888 60.008C27.536 59.624 27.2587 59.16 27.056 58.616C26.864 58.072 26.768 57.4693 26.768 56.808C26.768 56.1467 26.864 55.5493 27.056 55.016C27.2587 54.472 27.536 54.008 27.888 53.624C28.2507 53.24 28.6773 52.9467 29.168 52.744C29.6587 52.5307 30.1973 52.424 30.784 52.424C31.3707 52.424 31.9093 52.5307 32.4 52.744C32.9013 52.9467 33.328 53.24 33.68 53.624C34.032 54.008 34.304 54.472 34.496 55.016C34.6987 55.5493 34.8 56.1467 34.8 56.808ZM32.816 56.808C32.816 55.976 32.6347 55.32 32.272 54.84C31.92 54.3493 31.424 54.104 30.784 54.104C30.144 54.104 29.6427 54.3493 29.28 54.84C28.928 55.32 28.752 55.976 28.752 56.808C28.752 57.6507 28.928 58.3173 29.28 58.808C29.6427 59.2987 30.144 59.544 30.784 59.544C31.424 59.544 31.92 59.2987 32.272 58.808C32.6347 58.3173 32.816 57.6507 32.816 56.808ZM40.2025 48.584C40.6505 48.584 41.0452 48.6267 41.3865 48.712C41.7278 48.7867 41.9838 48.856 42.1545 48.92L41.7865 50.52C41.6052 50.4347 41.3918 50.3653 41.1465 50.312C40.9118 50.2587 40.6558 50.232 40.3785 50.232C40.0692 50.232 39.8078 50.28 39.5945 50.376C39.3812 50.4613 39.2105 50.584 39.0825 50.744C38.9545 50.904 38.8638 51.1013 38.8105 51.336C38.7572 51.56 38.7305 51.8053 38.7305 52.072V52.632H41.7705V54.248H38.7305V61H36.7945V52.04C36.7945 50.9627 37.0772 50.12 37.6425 49.512C38.2078 48.8933 39.0612 48.584 40.2025 48.584ZM46.4711 56.824C46.4711 56.2053 46.5671 55.6293 46.7591 55.096C46.9511 54.552 47.2231 54.0827 47.5751 53.688C47.9378 53.2933 48.3751 52.984 48.8871 52.76C49.3991 52.536 49.9751 52.424 50.6151 52.424C51.4045 52.424 52.1511 52.568 52.8551 52.856L52.4391 54.44C52.2151 54.344 51.9591 54.264 51.6711 54.2C51.3938 54.136 51.0951 54.104 50.7751 54.104C50.0178 54.104 49.4418 54.344 49.0471 54.824C48.6525 55.2933 48.4551 55.96 48.4551 56.824C48.4551 57.656 48.6418 58.3173 49.0151 58.808C49.3885 59.288 50.0178 59.528 50.9031 59.528C51.2338 59.528 51.5591 59.496 51.8791 59.432C52.1991 59.368 52.4765 59.288 52.7111 59.192L52.9831 60.792C52.7698 60.8987 52.4445 60.9947 52.0071 61.08C51.5805 61.1653 51.1378 61.208 50.6791 61.208C49.9645 61.208 49.3405 61.1013 48.8071 60.888C48.2845 60.664 47.8471 60.36 47.4951 59.976C47.1538 59.5813 46.8978 59.1173 46.7271 58.584C46.5565 58.04 46.4711 57.4533 46.4711 56.824ZM61.8781 56.808C61.8781 57.4693 61.7821 58.072 61.5901 58.616C61.3981 59.16 61.1261 59.624 60.7741 60.008C60.4221 60.392 59.9955 60.6907 59.4941 60.904C59.0035 61.1173 58.4595 61.224 57.8621 61.224C57.2648 61.224 56.7208 61.1173 56.2301 60.904C55.7395 60.6907 55.3181 60.392 54.9661 60.008C54.6141 59.624 54.3368 59.16 54.1341 58.616C53.9421 58.072 53.8461 57.4693 53.8461 56.808C53.8461 56.1467 53.9421 55.5493 54.1341 55.016C54.3368 54.472 54.6141 54.008 54.9661 53.624C55.3288 53.24 55.7555 52.9467 56.2461 52.744C56.7368 52.5307 57.2755 52.424 57.8621 52.424C58.4488 52.424 58.9875 52.5307 59.4781 52.744C59.9795 52.9467 60.4061 53.24 60.7581 53.624C61.1101 54.008 61.3821 54.472 61.5741 55.016C61.7768 55.5493 61.8781 56.1467 61.8781 56.808ZM59.8941 56.808C59.8941 55.976 59.7128 55.32 59.3501 54.84C58.9981 54.3493 58.5021 54.104 57.8621 54.104C57.2221 54.104 56.7208 54.3493 56.3581 54.84C56.0061 55.32 55.8301 55.976 55.8301 56.808C55.8301 57.6507 56.0061 58.3173 56.3581 58.808C56.7208 59.2987 57.2221 59.544 57.8621 59.544C58.5021 59.544 58.9981 59.2987 59.3501 58.808C59.7128 58.3173 59.8941 57.6507 59.8941 56.808ZM71.4406 56.808C71.4406 57.4693 71.3446 58.072 71.1526 58.616C70.9606 59.16 70.6886 59.624 70.3366 60.008C69.9846 60.392 69.558 60.6907 69.0566 60.904C68.566 61.1173 68.022 61.224 67.4246 61.224C66.8273 61.224 66.2833 61.1173 65.7926 60.904C65.302 60.6907 64.8806 60.392 64.5286 60.008C64.1766 59.624 63.8993 59.16 63.6966 58.616C63.5046 58.072 63.4086 57.4693 63.4086 56.808C63.4086 56.1467 63.5046 55.5493 63.6966 55.016C63.8993 54.472 64.1766 54.008 64.5286 53.624C64.8913 53.24 65.318 52.9467 65.8086 52.744C66.2993 52.5307 66.838 52.424 67.4246 52.424C68.0113 52.424 68.55 52.5307 69.0406 52.744C69.542 52.9467 69.9686 53.24 70.3206 53.624C70.6726 54.008 70.9446 54.472 71.1366 55.016C71.3393 55.5493 71.4406 56.1467 71.4406 56.808ZM69.4566 56.808C69.4566 55.976 69.2753 55.32 68.9126 54.84C68.5606 54.3493 68.0646 54.104 67.4246 54.104C66.7846 54.104 66.2833 54.3493 65.9206 54.84C65.5686 55.32 65.3926 55.976 65.3926 56.808C65.3926 57.6507 65.5686 58.3173 65.9206 58.808C66.2833 59.2987 66.7846 59.544 67.4246 59.544C68.0646 59.544 68.5606 59.2987 68.9126 58.808C69.2753 58.3173 69.4566 57.6507 69.4566 56.808ZM76.3471 61.16C75.7711 61.1493 75.2911 61.0853 74.9071 60.968C74.5338 60.8507 74.2351 60.6853 74.0111 60.472C73.7871 60.248 73.6271 59.976 73.5311 59.656C73.4458 59.3253 73.4031 58.952 73.4031 58.536V48.904L75.3391 48.584V58.168C75.3391 58.4027 75.3551 58.6 75.3871 58.76C75.4298 58.92 75.4991 59.0587 75.5951 59.176C75.6911 59.2827 75.8191 59.368 75.9791 59.432C76.1498 59.4853 76.3631 59.528 76.6191 59.56L76.3471 61.16ZM87.4715 56.856C87.4715 55.992 87.2742 55.32 86.8795 54.84C86.4955 54.36 85.8715 54.12 85.0075 54.12C84.8262 54.12 84.6342 54.1307 84.4315 54.152C84.2395 54.1627 84.0475 54.1947 83.8555 54.248V59.032C84.0262 59.1493 84.2502 59.2613 84.5275 59.368C84.8155 59.464 85.1195 59.512 85.4395 59.512C86.1435 59.512 86.6555 59.272 86.9755 58.792C87.3062 58.312 87.4715 57.6667 87.4715 56.856ZM89.4555 56.824C89.4555 57.464 89.3702 58.0507 89.1995 58.584C89.0395 59.1173 88.8048 59.576 88.4955 59.96C88.1862 60.344 87.7968 60.6427 87.3275 60.856C86.8688 61.0693 86.3462 61.176 85.7595 61.176C85.3648 61.176 85.0022 61.128 84.6715 61.032C84.3408 60.936 84.0688 60.8293 83.8555 60.712V63.96H81.9195V52.904C82.3142 52.7973 82.7995 52.696 83.3755 52.6C83.9515 52.504 84.5595 52.456 85.1995 52.456C85.8608 52.456 86.4528 52.5573 86.9755 52.76C87.4982 52.9627 87.9408 53.256 88.3035 53.64C88.6768 54.0133 88.9595 54.472 89.1515 55.016C89.3542 55.5493 89.4555 56.152 89.4555 56.824ZM96.2188 54.376C96.0588 54.3227 95.8348 54.2693 95.5468 54.216C95.2694 54.152 94.9441 54.12 94.5708 54.12C94.3574 54.12 94.1281 54.1413 93.8828 54.184C93.6481 54.2267 93.4828 54.264 93.3868 54.296V61H91.4508V53.032C91.8241 52.8933 92.2881 52.7653 92.8428 52.648C93.4081 52.52 94.0321 52.456 94.7148 52.456C94.8428 52.456 94.9921 52.4667 95.1628 52.488C95.3334 52.4987 95.5041 52.52 95.6748 52.552C95.8454 52.5733 96.0108 52.6053 96.1708 52.648C96.3308 52.68 96.4588 52.712 96.5548 52.744L96.2188 54.376ZM105.472 56.808C105.472 57.4693 105.376 58.072 105.184 58.616C104.992 59.16 104.72 59.624 104.368 60.008C104.016 60.392 103.589 60.6907 103.088 60.904C102.597 61.1173 102.053 61.224 101.456 61.224C100.859 61.224 100.315 61.1173 99.8239 60.904C99.3332 60.6907 98.9119 60.392 98.5599 60.008C98.2079 59.624 97.9305 59.16 97.7279 58.616C97.5359 58.072 97.4399 57.4693 97.4399 56.808C97.4399 56.1467 97.5359 55.5493 97.7279 55.016C97.9305 54.472 98.2079 54.008 98.5599 53.624C98.9225 53.24 99.3492 52.9467 99.8399 52.744C100.331 52.5307 100.869 52.424 101.456 52.424C102.043 52.424 102.581 52.5307 103.072 52.744C103.573 52.9467 104 53.24 104.352 53.624C104.704 54.008 104.976 54.472 105.168 55.016C105.371 55.5493 105.472 56.1467 105.472 56.808ZM103.488 56.808C103.488 55.976 103.307 55.32 102.944 54.84C102.592 54.3493 102.096 54.104 101.456 54.104C100.816 54.104 100.315 54.3493 99.9519 54.84C99.5999 55.32 99.4239 55.976 99.4239 56.808C99.4239 57.6507 99.5999 58.3173 99.9519 58.808C100.315 59.2987 100.816 59.544 101.456 59.544C102.096 59.544 102.592 59.2987 102.944 58.808C103.307 58.3173 103.488 57.6507 103.488 56.808ZM108.986 56.792C108.986 57.6453 109.189 58.3173 109.594 58.808C110 59.288 110.56 59.528 111.274 59.528C111.584 59.528 111.845 59.5173 112.058 59.496C112.282 59.464 112.464 59.432 112.602 59.4V54.6C112.432 54.4827 112.202 54.376 111.914 54.28C111.637 54.1733 111.338 54.12 111.018 54.12C110.314 54.12 109.797 54.36 109.466 54.84C109.146 55.32 108.986 55.9707 108.986 56.792ZM114.538 60.744C114.154 60.8613 113.669 60.968 113.082 61.064C112.506 61.16 111.898 61.208 111.258 61.208C110.597 61.208 110.005 61.1067 109.482 60.904C108.96 60.7013 108.512 60.4133 108.138 60.04C107.776 59.656 107.493 59.1973 107.29 58.664C107.098 58.12 107.002 57.512 107.002 56.84C107.002 56.1787 107.082 55.5813 107.242 55.048C107.413 54.504 107.658 54.04 107.978 53.656C108.298 53.272 108.688 52.9787 109.146 52.776C109.605 52.5627 110.133 52.456 110.73 52.456C111.136 52.456 111.493 52.504 111.802 52.6C112.112 52.696 112.378 52.8027 112.602 52.92V48.904L114.538 48.584V60.744ZM123.862 60.744C123.488 60.84 123.003 60.936 122.406 61.032C121.808 61.1387 121.152 61.192 120.438 61.192C119.766 61.192 119.2 61.096 118.742 60.904C118.294 60.712 117.931 60.4453 117.654 60.104C117.387 59.7627 117.195 59.3573 117.078 58.888C116.96 58.408 116.902 57.8853 116.902 57.32V52.632H118.838V57.016C118.838 57.912 118.966 58.552 119.222 58.936C119.488 59.32 119.947 59.512 120.598 59.512C120.832 59.512 121.078 59.5013 121.334 59.48C121.6 59.4587 121.798 59.432 121.926 59.4V52.632H123.862V60.744ZM125.862 56.824C125.862 56.2053 125.958 55.6293 126.15 55.096C126.342 54.552 126.614 54.0827 126.966 53.688C127.328 53.2933 127.766 52.984 128.278 52.76C128.79 52.536 129.366 52.424 130.006 52.424C130.795 52.424 131.542 52.568 132.246 52.856L131.83 54.44C131.606 54.344 131.35 54.264 131.062 54.2C130.784 54.136 130.486 54.104 130.166 54.104C129.408 54.104 128.832 54.344 128.438 54.824C128.043 55.2933 127.846 55.96 127.846 56.824C127.846 57.656 128.032 58.3173 128.406 58.808C128.779 59.288 129.408 59.528 130.294 59.528C130.624 59.528 130.95 59.496 131.27 59.432C131.59 59.368 131.867 59.288 132.102 59.192L132.374 60.792C132.16 60.8987 131.835 60.9947 131.398 61.08C130.971 61.1653 130.528 61.208 130.07 61.208C129.355 61.208 128.731 61.1013 128.198 60.888C127.675 60.664 127.238 60.36 126.886 59.976C126.544 59.5813 126.288 59.1173 126.118 58.584C125.947 58.04 125.862 57.4533 125.862 56.824ZM133.777 50.424L135.713 50.104V52.632H138.689V54.248H135.713V57.656C135.713 58.328 135.819 58.808 136.033 59.096C136.246 59.384 136.609 59.528 137.121 59.528C137.473 59.528 137.782 59.4907 138.049 59.416C138.326 59.3413 138.545 59.272 138.705 59.208L139.025 60.744C138.801 60.84 138.507 60.936 138.145 61.032C137.782 61.1387 137.355 61.192 136.865 61.192C136.267 61.192 135.766 61.112 135.361 60.952C134.966 60.792 134.651 60.5627 134.417 60.264C134.182 59.9547 134.017 59.5867 133.921 59.16C133.825 58.7227 133.777 58.2267 133.777 57.672V50.424ZM142.656 59.608C143.168 59.608 143.541 59.5493 143.776 59.432C144.011 59.304 144.128 59.0907 144.128 58.792C144.128 58.5147 144 58.2853 143.744 58.104C143.499 57.9227 143.088 57.7253 142.512 57.512C142.16 57.384 141.835 57.2507 141.536 57.112C141.248 56.9627 140.997 56.792 140.784 56.6C140.571 56.408 140.4 56.1787 140.272 55.912C140.155 55.6347 140.096 55.2987 140.096 54.904C140.096 54.136 140.379 53.5333 140.944 53.096C141.509 52.648 142.277 52.424 143.248 52.424C143.739 52.424 144.208 52.472 144.656 52.568C145.104 52.6533 145.44 52.7387 145.664 52.824L145.312 54.392C145.099 54.296 144.827 54.2107 144.496 54.136C144.165 54.0507 143.781 54.008 143.344 54.008C142.949 54.008 142.629 54.0773 142.384 54.216C142.139 54.344 142.016 54.5467 142.016 54.824C142.016 54.9627 142.037 55.0853 142.08 55.192C142.133 55.2987 142.219 55.4 142.336 55.496C142.453 55.5813 142.608 55.672 142.8 55.768C142.992 55.8533 143.227 55.944 143.504 56.04C143.963 56.2107 144.352 56.3813 144.672 56.552C144.992 56.712 145.253 56.8987 145.456 57.112C145.669 57.3147 145.824 57.5493 145.92 57.816C146.016 58.0827 146.064 58.4027 146.064 58.776C146.064 59.576 145.765 60.184 145.168 60.6C144.581 61.0053 143.739 61.208 142.64 61.208C141.904 61.208 141.312 61.144 140.864 61.016C140.416 60.8987 140.101 60.8027 139.92 60.728L140.256 59.112C140.544 59.2293 140.885 59.3413 141.28 59.448C141.685 59.5547 142.144 59.608 142.656 59.608ZM154.551 59.64C155.148 59.64 155.602 59.608 155.911 59.544V57.4C155.804 57.368 155.65 57.336 155.447 57.304C155.244 57.272 155.02 57.256 154.775 57.256C154.562 57.256 154.343 57.272 154.119 57.304C153.906 57.336 153.708 57.3947 153.527 57.48C153.356 57.5653 153.218 57.688 153.111 57.848C153.004 57.9973 152.951 58.1893 152.951 58.424C152.951 58.8827 153.095 59.2027 153.383 59.384C153.671 59.5547 154.06 59.64 154.551 59.64ZM154.391 52.424C155.031 52.424 155.57 52.504 156.007 52.664C156.444 52.824 156.791 53.048 157.047 53.336C157.314 53.624 157.5 53.976 157.607 54.392C157.724 54.7973 157.783 55.2453 157.783 55.736V60.808C157.484 60.872 157.031 60.9467 156.423 61.032C155.826 61.128 155.148 61.176 154.391 61.176C153.89 61.176 153.431 61.128 153.015 61.032C152.599 60.936 152.242 60.7813 151.943 60.568C151.655 60.3547 151.426 60.0773 151.255 59.736C151.095 59.3947 151.015 58.9733 151.015 58.472C151.015 57.992 151.106 57.5867 151.287 57.256C151.479 56.9253 151.735 56.6587 152.055 56.456C152.375 56.2427 152.743 56.0933 153.159 56.008C153.586 55.912 154.028 55.864 154.487 55.864C154.7 55.864 154.924 55.88 155.159 55.912C155.394 55.9333 155.644 55.976 155.911 56.04V55.72C155.911 55.496 155.884 55.2827 155.831 55.08C155.778 54.8773 155.682 54.7013 155.543 54.552C155.415 54.392 155.239 54.2693 155.015 54.184C154.802 54.0987 154.53 54.056 154.199 54.056C153.751 54.056 153.34 54.088 152.967 54.152C152.594 54.216 152.29 54.2907 152.055 54.376L151.815 52.808C152.06 52.7227 152.418 52.6373 152.887 52.552C153.356 52.4667 153.858 52.424 154.391 52.424ZM162.095 61C161.561 59.9013 161.012 58.6427 160.447 57.224C159.892 55.7947 159.385 54.264 158.927 52.632H160.991C161.108 53.1013 161.241 53.608 161.391 54.152C161.551 54.6853 161.716 55.224 161.887 55.768C162.068 56.3013 162.249 56.824 162.431 57.336C162.623 57.8373 162.799 58.2907 162.959 58.696C163.119 58.2907 163.289 57.8373 163.471 57.336C163.652 56.824 163.828 56.3013 163.999 55.768C164.18 55.224 164.351 54.6853 164.511 54.152C164.671 53.608 164.809 53.1013 164.927 52.632H166.927C166.468 54.264 165.956 55.7947 165.391 57.224C164.836 58.6427 164.292 59.9013 163.759 61H162.095ZM171.317 59.64C171.914 59.64 172.367 59.608 172.677 59.544V57.4C172.57 57.368 172.415 57.336 172.213 57.304C172.01 57.272 171.786 57.256 171.541 57.256C171.327 57.256 171.109 57.272 170.885 57.304C170.671 57.336 170.474 57.3947 170.293 57.48C170.122 57.5653 169.983 57.688 169.877 57.848C169.77 57.9973 169.717 58.1893 169.717 58.424C169.717 58.8827 169.861 59.2027 170.149 59.384C170.437 59.5547 170.826 59.64 171.317 59.64ZM171.157 52.424C171.797 52.424 172.335 52.504 172.773 52.664C173.21 52.824 173.557 53.048 173.813 53.336C174.079 53.624 174.266 53.976 174.373 54.392C174.49 54.7973 174.549 55.2453 174.549 55.736V60.808C174.25 60.872 173.797 60.9467 173.189 61.032C172.591 61.128 171.914 61.176 171.157 61.176C170.655 61.176 170.197 61.128 169.781 61.032C169.365 60.936 169.007 60.7813 168.709 60.568C168.421 60.3547 168.191 60.0773 168.021 59.736C167.861 59.3947 167.781 58.9733 167.781 58.472C167.781 57.992 167.871 57.5867 168.053 57.256C168.245 56.9253 168.501 56.6587 168.821 56.456C169.141 56.2427 169.509 56.0933 169.925 56.008C170.351 55.912 170.794 55.864 171.253 55.864C171.466 55.864 171.69 55.88 171.925 55.912C172.159 55.9333 172.41 55.976 172.677 56.04V55.72C172.677 55.496 172.65 55.2827 172.597 55.08C172.543 54.8773 172.447 54.7013 172.309 54.552C172.181 54.392 172.005 54.2693 171.781 54.184C171.567 54.0987 171.295 54.056 170.965 54.056C170.517 54.056 170.106 54.088 169.733 54.152C169.359 54.216 169.055 54.2907 168.821 54.376L168.581 52.808C168.826 52.7227 169.183 52.6373 169.653 52.552C170.122 52.4667 170.623 52.424 171.157 52.424ZM178.872 61H176.936V52.632H178.872V61ZM179.08 50.184C179.08 50.5467 178.962 50.8347 178.728 51.048C178.493 51.2613 178.216 51.368 177.896 51.368C177.565 51.368 177.282 51.2613 177.048 51.048C176.813 50.8347 176.696 50.5467 176.696 50.184C176.696 49.8107 176.813 49.5173 177.048 49.304C177.282 49.0907 177.565 48.984 177.896 48.984C178.216 48.984 178.493 49.0907 178.728 49.304C178.962 49.5173 179.08 49.8107 179.08 50.184ZM184.253 61.16C183.677 61.1493 183.197 61.0853 182.813 60.968C182.44 60.8507 182.141 60.6853 181.917 60.472C181.693 60.248 181.533 59.976 181.437 59.656C181.352 59.3253 181.309 58.952 181.309 58.536V48.904L183.245 48.584V58.168C183.245 58.4027 183.261 58.6 183.293 58.76C183.336 58.92 183.405 59.0587 183.501 59.176C183.597 59.2827 183.725 59.368 183.885 59.432C184.056 59.4853 184.269 59.528 184.525 59.56L184.253 61.16ZM189.035 59.64C189.633 59.64 190.086 59.608 190.395 59.544V57.4C190.289 57.368 190.134 57.336 189.931 57.304C189.729 57.272 189.505 57.256 189.259 57.256C189.046 57.256 188.827 57.272 188.603 57.304C188.39 57.336 188.193 57.3947 188.011 57.48C187.841 57.5653 187.702 57.688 187.595 57.848C187.489 57.9973 187.435 58.1893 187.435 58.424C187.435 58.8827 187.579 59.2027 187.867 59.384C188.155 59.5547 188.545 59.64 189.035 59.64ZM188.875 52.424C189.515 52.424 190.054 52.504 190.491 52.664C190.929 52.824 191.275 53.048 191.531 53.336C191.798 53.624 191.985 53.976 192.091 54.392C192.209 54.7973 192.267 55.2453 192.267 55.736V60.808C191.969 60.872 191.515 60.9467 190.907 61.032C190.31 61.128 189.633 61.176 188.875 61.176C188.374 61.176 187.915 61.128 187.499 61.032C187.083 60.936 186.726 60.7813 186.427 60.568C186.139 60.3547 185.91 60.0773 185.739 59.736C185.579 59.3947 185.499 58.9733 185.499 58.472C185.499 57.992 185.59 57.5867 185.771 57.256C185.963 56.9253 186.219 56.6587 186.539 56.456C186.859 56.2427 187.227 56.0933 187.643 56.008C188.07 55.912 188.513 55.864 188.971 55.864C189.185 55.864 189.409 55.88 189.643 55.912C189.878 55.9333 190.129 55.976 190.395 56.04V55.72C190.395 55.496 190.369 55.2827 190.315 55.08C190.262 54.8773 190.166 54.7013 190.027 54.552C189.899 54.392 189.723 54.2693 189.499 54.184C189.286 54.0987 189.014 54.056 188.683 54.056C188.235 54.056 187.825 54.088 187.451 54.152C187.078 54.216 186.774 54.2907 186.539 54.376L186.299 52.808C186.545 52.7227 186.902 52.6373 187.371 52.552C187.841 52.4667 188.342 52.424 188.875 52.424ZM200.19 56.792C200.19 55.9707 200.025 55.32 199.694 54.84C199.374 54.36 198.862 54.12 198.158 54.12C197.838 54.12 197.534 54.168 197.246 54.264C196.969 54.36 196.745 54.4667 196.574 54.584V59.4C196.713 59.432 196.889 59.464 197.102 59.496C197.326 59.5173 197.593 59.528 197.902 59.528C198.617 59.528 199.177 59.288 199.582 58.808C199.988 58.3173 200.19 57.6453 200.19 56.792ZM202.174 56.824C202.174 57.496 202.073 58.104 201.87 58.648C201.678 59.1813 201.396 59.64 201.022 60.024C200.66 60.408 200.217 60.7013 199.694 60.904C199.172 61.1067 198.58 61.208 197.918 61.208C197.278 61.208 196.665 61.16 196.078 61.064C195.502 60.968 195.022 60.8613 194.638 60.744V48.904L196.574 48.584V52.92C196.798 52.8027 197.07 52.696 197.39 52.6C197.721 52.504 198.084 52.456 198.478 52.456C199.065 52.456 199.588 52.5627 200.046 52.776C200.516 52.9787 200.905 53.272 201.214 53.656C201.524 54.04 201.758 54.504 201.918 55.048C202.089 55.5813 202.174 56.1733 202.174 56.824ZM207.082 61.16C206.506 61.1493 206.026 61.0853 205.642 60.968C205.268 60.8507 204.97 60.6853 204.746 60.472C204.522 60.248 204.362 59.976 204.266 59.656C204.18 59.3253 204.138 58.952 204.138 58.536V48.904L206.074 48.584V58.168C206.074 58.4027 206.09 58.6 206.122 58.76C206.164 58.92 206.234 59.0587 206.33 59.176C206.426 59.2827 206.554 59.368 206.714 59.432C206.884 59.4853 207.098 59.528 207.354 59.56L207.082 61.16ZM208.456 56.856C208.456 56.12 208.562 55.4747 208.776 54.92C209 54.3653 209.293 53.9067 209.656 53.544C210.018 53.1707 210.434 52.8933 210.904 52.712C211.373 52.52 211.853 52.424 212.344 52.424C213.496 52.424 214.392 52.7813 215.032 53.496C215.682 54.2107 216.008 55.2773 216.008 56.696C216.008 56.8027 216.002 56.9253 215.992 57.064C215.992 57.192 215.986 57.3093 215.976 57.416H210.456C210.509 58.088 210.744 58.6107 211.16 58.984C211.586 59.3467 212.2 59.528 213 59.528C213.469 59.528 213.896 59.4853 214.28 59.4C214.674 59.3147 214.984 59.224 215.208 59.128L215.464 60.712C215.357 60.7653 215.208 60.824 215.016 60.888C214.834 60.9413 214.621 60.9893 214.376 61.032C214.141 61.0853 213.885 61.128 213.608 61.16C213.33 61.192 213.048 61.208 212.76 61.208C212.024 61.208 211.384 61.1013 210.84 60.888C210.296 60.664 209.848 60.36 209.496 59.976C209.144 59.5813 208.882 59.1227 208.712 58.6C208.541 58.0667 208.456 57.4853 208.456 56.856ZM214.072 55.992C214.072 55.7253 214.034 55.4747 213.96 55.24C213.885 54.9947 213.773 54.7867 213.624 54.616C213.485 54.4347 213.309 54.296 213.096 54.2C212.893 54.0933 212.648 54.04 212.36 54.04C212.061 54.04 211.8 54.0987 211.576 54.216C211.352 54.3227 211.16 54.4667 211 54.648C210.85 54.8293 210.733 55.0373 210.648 55.272C210.562 55.5067 210.504 55.7467 210.472 55.992H214.072ZM226.787 55.736C226.541 56.6747 226.275 57.592 225.987 58.488C225.709 59.3733 225.432 60.2107 225.155 61H223.571C223.357 60.5093 223.133 59.9493 222.899 59.32C222.664 58.6907 222.429 58.0187 222.195 57.304C221.96 56.5893 221.725 55.8373 221.491 55.048C221.256 54.2587 221.027 53.4533 220.803 52.632H222.851C222.947 53.08 223.059 53.5653 223.187 54.088C223.315 54.6 223.448 55.128 223.587 55.672C223.725 56.2053 223.869 56.728 224.019 57.24C224.168 57.752 224.317 58.2213 224.467 58.648C224.627 58.1573 224.781 57.6507 224.931 57.128C225.091 56.6053 225.24 56.0827 225.379 55.56C225.517 55.0373 225.645 54.5307 225.763 54.04C225.891 53.5387 226.003 53.0693 226.099 52.632H227.587C227.683 53.0693 227.789 53.5387 227.907 54.04C228.024 54.5307 228.147 55.0373 228.275 55.56C228.413 56.0827 228.557 56.6053 228.707 57.128C228.867 57.6507 229.027 58.1573 229.187 58.648C229.325 58.2213 229.469 57.752 229.619 57.24C229.768 56.728 229.912 56.2053 230.051 55.672C230.2 55.128 230.339 54.6 230.467 54.088C230.595 53.5653 230.707 53.08 230.803 52.632H232.803C232.579 53.4533 232.349 54.2587 232.115 55.048C231.88 55.8373 231.645 56.5893 231.411 57.304C231.176 58.0187 230.941 58.6907 230.707 59.32C230.472 59.9493 230.243 60.5093 230.019 61H228.451C228.173 60.2107 227.885 59.3733 227.587 58.488C227.299 57.592 227.032 56.6747 226.787 55.736ZM236.231 61H234.295V52.632H236.231V61ZM236.439 50.184C236.439 50.5467 236.322 50.8347 236.087 51.048C235.852 51.2613 235.575 51.368 235.255 51.368C234.924 51.368 234.642 51.2613 234.407 51.048C234.172 50.8347 234.055 50.5467 234.055 50.184C234.055 49.8107 234.172 49.5173 234.407 49.304C234.642 49.0907 234.924 48.984 235.255 48.984C235.575 48.984 235.852 49.0907 236.087 49.304C236.322 49.5173 236.439 49.8107 236.439 50.184ZM238.605 50.424L240.541 50.104V52.632H243.517V54.248H240.541V57.656C240.541 58.328 240.647 58.808 240.861 59.096C241.074 59.384 241.437 59.528 241.949 59.528C242.301 59.528 242.61 59.4907 242.877 59.416C243.154 59.3413 243.373 59.272 243.533 59.208L243.853 60.744C243.629 60.84 243.335 60.936 242.973 61.032C242.61 61.1387 242.183 61.192 241.693 61.192C241.095 61.192 240.594 61.112 240.189 60.952C239.794 60.792 239.479 60.5627 239.245 60.264C239.01 59.9547 238.845 59.5867 238.749 59.16C238.653 58.7227 238.605 58.2267 238.605 57.672V50.424ZM245.388 61V48.904L247.324 48.584V52.728C247.538 52.6533 247.783 52.5893 248.06 52.536C248.348 52.4827 248.631 52.456 248.908 52.456C249.58 52.456 250.135 52.552 250.572 52.744C251.02 52.9253 251.378 53.1867 251.644 53.528C251.911 53.8587 252.098 54.2587 252.204 54.728C252.322 55.1973 252.38 55.72 252.38 56.296V61H250.444V56.6C250.444 56.152 250.412 55.7733 250.348 55.464C250.295 55.144 250.199 54.888 250.06 54.696C249.932 54.4933 249.756 54.3493 249.532 54.264C249.308 54.168 249.031 54.12 248.7 54.12C248.444 54.12 248.183 54.1467 247.916 54.2C247.65 54.2533 247.452 54.3013 247.324 54.344V61H245.388ZM26.768 74.856C26.768 74.12 26.8747 73.4747 27.088 72.92C27.312 72.3653 27.6053 71.9067 27.968 71.544C28.3307 71.1707 28.7467 70.8933 29.216 70.712C29.6853 70.52 30.1653 70.424 30.656 70.424C31.808 70.424 32.704 70.7813 33.344 71.496C33.9947 72.2107 34.32 73.2773 34.32 74.696C34.32 74.8027 34.3147 74.9253 34.304 75.064C34.304 75.192 34.2987 75.3093 34.288 75.416H28.768C28.8213 76.088 29.056 76.6107 29.472 76.984C29.8987 77.3467 30.512 77.528 31.312 77.528C31.7813 77.528 32.208 77.4853 32.592 77.4C32.9867 77.3147 33.296 77.224 33.52 77.128L33.776 78.712C33.6693 78.7653 33.52 78.824 33.328 78.888C33.1467 78.9413 32.9333 78.9893 32.688 79.032C32.4533 79.0853 32.1973 79.128 31.92 79.16C31.6427 79.192 31.36 79.208 31.072 79.208C30.336 79.208 29.696 79.1013 29.152 78.888C28.608 78.664 28.16 78.36 27.808 77.976C27.456 77.5813 27.1947 77.1227 27.024 76.6C26.8533 76.0667 26.768 75.4853 26.768 74.856ZM32.384 73.992C32.384 73.7253 32.3467 73.4747 32.272 73.24C32.1973 72.9947 32.0853 72.7867 31.936 72.616C31.7973 72.4347 31.6213 72.296 31.408 72.2C31.2053 72.0933 30.96 72.04 30.672 72.04C30.3733 72.04 30.112 72.0987 29.888 72.216C29.664 72.3227 29.472 72.4667 29.312 72.648C29.1627 72.8293 29.0453 73.0373 28.96 73.272C28.8747 73.5067 28.816 73.7467 28.784 73.992H32.384ZM39.3166 77.64C39.914 77.64 40.3673 77.608 40.6766 77.544V75.4C40.57 75.368 40.4153 75.336 40.2126 75.304C40.01 75.272 39.786 75.256 39.5406 75.256C39.3273 75.256 39.1086 75.272 38.8846 75.304C38.6713 75.336 38.474 75.3947 38.2926 75.48C38.122 75.5653 37.9833 75.688 37.8766 75.848C37.77 75.9973 37.7166 76.1893 37.7166 76.424C37.7166 76.8827 37.8606 77.2027 38.1486 77.384C38.4366 77.5547 38.826 77.64 39.3166 77.64ZM39.1566 70.424C39.7966 70.424 40.3353 70.504 40.7726 70.664C41.21 70.824 41.5566 71.048 41.8126 71.336C42.0793 71.624 42.266 71.976 42.3726 72.392C42.49 72.7973 42.5486 73.2453 42.5486 73.736V78.808C42.25 78.872 41.7966 78.9467 41.1886 79.032C40.5913 79.128 39.914 79.176 39.1566 79.176C38.6553 79.176 38.1966 79.128 37.7806 79.032C37.3646 78.936 37.0073 78.7813 36.7086 78.568C36.4206 78.3547 36.1913 78.0773 36.0206 77.736C35.8606 77.3947 35.7806 76.9733 35.7806 76.472C35.7806 75.992 35.8713 75.5867 36.0526 75.256C36.2446 74.9253 36.5006 74.6587 36.8206 74.456C37.1406 74.2427 37.5086 74.0933 37.9246 74.008C38.3513 73.912 38.794 73.864 39.2526 73.864C39.466 73.864 39.69 73.88 39.9246 73.912C40.1593 73.9333 40.41 73.976 40.6766 74.04V73.72C40.6766 73.496 40.65 73.2827 40.5966 73.08C40.5433 72.8773 40.4473 72.7013 40.3086 72.552C40.1806 72.392 40.0046 72.2693 39.7806 72.184C39.5673 72.0987 39.2953 72.056 38.9646 72.056C38.5166 72.056 38.106 72.088 37.7326 72.152C37.3593 72.216 37.0553 72.2907 36.8206 72.376L36.5806 70.808C36.826 70.7227 37.1833 70.6373 37.6526 70.552C38.122 70.4667 38.6233 70.424 39.1566 70.424ZM47.0155 77.608C47.5275 77.608 47.9008 77.5493 48.1355 77.432C48.3702 77.304 48.4875 77.0907 48.4875 76.792C48.4875 76.5147 48.3595 76.2853 48.1035 76.104C47.8582 75.9227 47.4475 75.7253 46.8715 75.512C46.5195 75.384 46.1942 75.2507 45.8955 75.112C45.6075 74.9627 45.3568 74.792 45.1435 74.6C44.9302 74.408 44.7595 74.1787 44.6315 73.912C44.5142 73.6347 44.4555 73.2987 44.4555 72.904C44.4555 72.136 44.7382 71.5333 45.3035 71.096C45.8688 70.648 46.6368 70.424 47.6075 70.424C48.0982 70.424 48.5675 70.472 49.0155 70.568C49.4635 70.6533 49.7995 70.7387 50.0235 70.824L49.6715 72.392C49.4582 72.296 49.1862 72.2107 48.8555 72.136C48.5248 72.0507 48.1408 72.008 47.7035 72.008C47.3088 72.008 46.9888 72.0773 46.7435 72.216C46.4982 72.344 46.3755 72.5467 46.3755 72.824C46.3755 72.9627 46.3968 73.0853 46.4395 73.192C46.4928 73.2987 46.5782 73.4 46.6955 73.496C46.8128 73.5813 46.9675 73.672 47.1595 73.768C47.3515 73.8533 47.5862 73.944 47.8635 74.04C48.3222 74.2107 48.7115 74.3813 49.0315 74.552C49.3515 74.712 49.6128 74.8987 49.8155 75.112C50.0288 75.3147 50.1835 75.5493 50.2795 75.816C50.3755 76.0827 50.4235 76.4027 50.4235 76.776C50.4235 77.576 50.1248 78.184 49.5275 78.6C48.9408 79.0053 48.0982 79.208 46.9995 79.208C46.2635 79.208 45.6715 79.144 45.2235 79.016C44.7755 78.8987 44.4608 78.8027 44.2795 78.728L44.6155 77.112C44.9035 77.2293 45.2448 77.3413 45.6395 77.448C46.0448 77.5547 46.5035 77.608 47.0155 77.608ZM59.064 70.632C58.2 73.8107 57.1973 76.6907 56.056 79.272C55.8427 79.752 55.624 80.1627 55.4 80.504C55.176 80.8453 54.9253 81.128 54.648 81.352C54.3707 81.576 54.0613 81.736 53.72 81.832C53.3787 81.9387 52.984 81.992 52.536 81.992C52.2373 81.992 51.9387 81.96 51.64 81.896C51.352 81.832 51.1333 81.7627 50.984 81.688L51.336 80.136C51.72 80.2853 52.0987 80.36 52.472 80.36C52.9733 80.36 53.3627 80.2373 53.64 79.992C53.928 79.7573 54.1787 79.3893 54.392 78.888C53.784 77.7147 53.1973 76.4347 52.632 75.048C52.0773 73.6613 51.5813 72.1893 51.144 70.632H53.208C53.3147 71.08 53.4427 71.5653 53.592 72.088C53.752 72.6107 53.9227 73.144 54.104 73.688C54.2853 74.2213 54.4773 74.7547 54.68 75.288C54.8827 75.8213 55.0853 76.3173 55.288 76.776C55.6293 75.8267 55.9493 74.8187 56.248 73.752C56.5467 72.6747 56.8187 71.6347 57.064 70.632H59.064ZM69.8153 74.856C69.8153 73.992 69.6179 73.32 69.2233 72.84C68.8393 72.36 68.2153 72.12 67.3513 72.12C67.1699 72.12 66.9779 72.1307 66.7753 72.152C66.5833 72.1627 66.3913 72.1947 66.1993 72.248V77.032C66.3699 77.1493 66.5939 77.2613 66.8713 77.368C67.1593 77.464 67.4633 77.512 67.7833 77.512C68.4873 77.512 68.9993 77.272 69.3193 76.792C69.6499 76.312 69.8153 75.6667 69.8153 74.856ZM71.7993 74.824C71.7993 75.464 71.7139 76.0507 71.5433 76.584C71.3833 77.1173 71.1486 77.576 70.8393 77.96C70.5299 78.344 70.1406 78.6427 69.6713 78.856C69.2126 79.0693 68.6899 79.176 68.1033 79.176C67.7086 79.176 67.3459 79.128 67.0153 79.032C66.6846 78.936 66.4126 78.8293 66.1993 78.712V81.96H64.2633V70.904C64.6579 70.7973 65.1433 70.696 65.7193 70.6C66.2953 70.504 66.9033 70.456 67.5433 70.456C68.2046 70.456 68.7966 70.5573 69.3193 70.76C69.8419 70.9627 70.2846 71.256 70.6473 71.64C71.0206 72.0133 71.3033 72.472 71.4953 73.016C71.6979 73.5493 71.7993 74.152 71.7993 74.824ZM76.7385 77.64C77.3358 77.64 77.7892 77.608 78.0985 77.544V75.4C77.9918 75.368 77.8372 75.336 77.6345 75.304C77.4318 75.272 77.2078 75.256 76.9625 75.256C76.7492 75.256 76.5305 75.272 76.3065 75.304C76.0932 75.336 75.8958 75.3947 75.7145 75.48C75.5438 75.5653 75.4052 75.688 75.2985 75.848C75.1918 75.9973 75.1385 76.1893 75.1385 76.424C75.1385 76.8827 75.2825 77.2027 75.5705 77.384C75.8585 77.5547 76.2478 77.64 76.7385 77.64ZM76.5785 70.424C77.2185 70.424 77.7572 70.504 78.1945 70.664C78.6318 70.824 78.9785 71.048 79.2345 71.336C79.5012 71.624 79.6878 71.976 79.7945 72.392C79.9118 72.7973 79.9705 73.2453 79.9705 73.736V78.808C79.6718 78.872 79.2185 78.9467 78.6105 79.032C78.0132 79.128 77.3358 79.176 76.5785 79.176C76.0772 79.176 75.6185 79.128 75.2025 79.032C74.7865 78.936 74.4292 78.7813 74.1305 78.568C73.8425 78.3547 73.6132 78.0773 73.4425 77.736C73.2825 77.3947 73.2025 76.9733 73.2025 76.472C73.2025 75.992 73.2932 75.5867 73.4745 75.256C73.6665 74.9253 73.9225 74.6587 74.2425 74.456C74.5625 74.2427 74.9305 74.0933 75.3465 74.008C75.7732 73.912 76.2158 73.864 76.6745 73.864C76.8878 73.864 77.1118 73.88 77.3465 73.912C77.5812 73.9333 77.8318 73.976 78.0985 74.04V73.72C78.0985 73.496 78.0718 73.2827 78.0185 73.08C77.9652 72.8773 77.8692 72.7013 77.7305 72.552C77.6025 72.392 77.4265 72.2693 77.2025 72.184C76.9892 72.0987 76.7172 72.056 76.3865 72.056C75.9385 72.056 75.5278 72.088 75.1545 72.152C74.7812 72.216 74.4772 72.2907 74.2425 72.376L74.0025 70.808C74.2478 70.7227 74.6052 70.6373 75.0745 70.552C75.5438 70.4667 76.0452 70.424 76.5785 70.424ZM88.9703 70.632C88.1063 73.8107 87.1036 76.6907 85.9623 79.272C85.7489 79.752 85.5303 80.1627 85.3063 80.504C85.0823 80.8453 84.8316 81.128 84.5543 81.352C84.2769 81.576 83.9676 81.736 83.6263 81.832C83.2849 81.9387 82.8903 81.992 82.4423 81.992C82.1436 81.992 81.8449 81.96 81.5463 81.896C81.2583 81.832 81.0396 81.7627 80.8902 81.688L81.2423 80.136C81.6263 80.2853 82.0049 80.36 82.3783 80.36C82.8796 80.36 83.2689 80.2373 83.5463 79.992C83.8343 79.7573 84.0849 79.3893 84.2983 78.888C83.6903 77.7147 83.1036 76.4347 82.5383 75.048C81.9836 73.6613 81.4876 72.1893 81.0503 70.632H83.1143C83.2209 71.08 83.3489 71.5653 83.4983 72.088C83.6583 72.6107 83.8289 73.144 84.0103 73.688C84.1916 74.2213 84.3836 74.7547 84.5863 75.288C84.7889 75.8213 84.9916 76.3173 85.1943 76.776C85.5356 75.8267 85.8556 74.8187 86.1543 73.752C86.4529 72.6747 86.7249 71.6347 86.9703 70.632H88.9703ZM95.2031 74.6C95.2031 73.7253 95.0911 73.096 94.8671 72.712C94.6538 72.3173 94.2485 72.12 93.6511 72.12C93.4378 72.12 93.2031 72.136 92.9471 72.168C92.6911 72.2 92.4991 72.2267 92.3711 72.248V79H90.4351V70.904C90.8085 70.7973 91.2938 70.696 91.8911 70.6C92.4991 70.504 93.1391 70.456 93.8111 70.456C94.3871 70.456 94.8565 70.5307 95.2191 70.68C95.5925 70.8293 95.9018 71.0267 96.1471 71.272C96.2645 71.1867 96.4138 71.096 96.5951 71C96.7765 70.904 96.9791 70.8187 97.2031 70.744C97.4271 70.6587 97.6618 70.5893 97.9071 70.536C98.1631 70.4827 98.4191 70.456 98.6751 70.456C99.3258 70.456 99.8591 70.552 100.275 70.744C100.702 70.9253 101.032 71.1867 101.267 71.528C101.512 71.8587 101.678 72.264 101.763 72.744C101.859 73.2133 101.907 73.7307 101.907 74.296V79H99.9711V74.6C99.9711 73.7253 99.8645 73.096 99.6511 72.712C99.4378 72.3173 99.0271 72.12 98.4191 72.12C98.1098 72.12 97.8165 72.1733 97.5391 72.28C97.2618 72.376 97.0538 72.472 96.9151 72.568C97.0005 72.8347 97.0591 73.1173 97.0911 73.416C97.1231 73.7147 97.1391 74.0347 97.1391 74.376V79H95.2031V74.6ZM103.815 74.856C103.815 74.12 103.922 73.4747 104.135 72.92C104.359 72.3653 104.652 71.9067 105.015 71.544C105.378 71.1707 105.794 70.8933 106.263 70.712C106.732 70.52 107.212 70.424 107.703 70.424C108.855 70.424 109.751 70.7813 110.391 71.496C111.042 72.2107 111.367 73.2773 111.367 74.696C111.367 74.8027 111.362 74.9253 111.351 75.064C111.351 75.192 111.346 75.3093 111.335 75.416H105.815C105.868 76.088 106.103 76.6107 106.519 76.984C106.946 77.3467 107.559 77.528 108.359 77.528C108.828 77.528 109.255 77.4853 109.639 77.4C110.034 77.3147 110.343 77.224 110.567 77.128L110.823 78.712C110.716 78.7653 110.567 78.824 110.375 78.888C110.194 78.9413 109.98 78.9893 109.735 79.032C109.5 79.0853 109.244 79.128 108.967 79.16C108.69 79.192 108.407 79.208 108.119 79.208C107.383 79.208 106.743 79.1013 106.199 78.888C105.655 78.664 105.207 78.36 104.855 77.976C104.503 77.5813 104.242 77.1227 104.071 76.6C103.9 76.0667 103.815 75.4853 103.815 74.856ZM109.431 73.992C109.431 73.7253 109.394 73.4747 109.319 73.24C109.244 72.9947 109.132 72.7867 108.983 72.616C108.844 72.4347 108.668 72.296 108.455 72.2C108.252 72.0933 108.007 72.04 107.719 72.04C107.42 72.04 107.159 72.0987 106.935 72.216C106.711 72.3227 106.519 72.4667 106.359 72.648C106.21 72.8293 106.092 73.0373 106.007 73.272C105.922 73.5067 105.863 73.7467 105.831 73.992H109.431ZM113.42 70.904C113.793 70.7973 114.278 70.696 114.876 70.6C115.473 70.504 116.134 70.456 116.86 70.456C117.542 70.456 118.113 70.552 118.572 70.744C119.03 70.9253 119.393 71.1867 119.66 71.528C119.937 71.8587 120.129 72.264 120.236 72.744C120.353 73.2133 120.411 73.7307 120.411 74.296V79H118.476V74.6C118.476 74.152 118.444 73.7733 118.38 73.464C118.326 73.144 118.23 72.888 118.092 72.696C117.964 72.4933 117.782 72.3493 117.548 72.264C117.324 72.168 117.046 72.12 116.716 72.12C116.47 72.12 116.214 72.136 115.948 72.168C115.681 72.2 115.484 72.2267 115.356 72.248V79H113.42V70.904ZM122.683 68.424L124.619 68.104V70.632H127.595V72.248H124.619V75.656C124.619 76.328 124.726 76.808 124.939 77.096C125.152 77.384 125.515 77.528 126.027 77.528C126.379 77.528 126.688 77.4907 126.955 77.416C127.232 77.3413 127.451 77.272 127.611 77.208L127.931 78.744C127.707 78.84 127.414 78.936 127.051 79.032C126.688 79.1387 126.262 79.192 125.771 79.192C125.174 79.192 124.672 79.112 124.267 78.952C123.872 78.792 123.558 78.5627 123.323 78.264C123.088 77.9547 122.923 77.5867 122.827 77.16C122.731 76.7227 122.683 76.2267 122.683 75.672V68.424ZM131.562 77.608C132.074 77.608 132.448 77.5493 132.682 77.432C132.917 77.304 133.034 77.0907 133.034 76.792C133.034 76.5147 132.906 76.2853 132.65 76.104C132.405 75.9227 131.994 75.7253 131.418 75.512C131.066 75.384 130.741 75.2507 130.442 75.112C130.154 74.9627 129.904 74.792 129.69 74.6C129.477 74.408 129.306 74.1787 129.178 73.912C129.061 73.6347 129.002 73.2987 129.002 72.904C129.002 72.136 129.285 71.5333 129.85 71.096C130.416 70.648 131.184 70.424 132.154 70.424C132.645 70.424 133.114 70.472 133.562 70.568C134.01 70.6533 134.346 70.7387 134.57 70.824L134.218 72.392C134.005 72.296 133.733 72.2107 133.402 72.136C133.072 72.0507 132.688 72.008 132.25 72.008C131.856 72.008 131.536 72.0773 131.29 72.216C131.045 72.344 130.922 72.5467 130.922 72.824C130.922 72.9627 130.944 73.0853 130.986 73.192C131.04 73.2987 131.125 73.4 131.242 73.496C131.36 73.5813 131.514 73.672 131.706 73.768C131.898 73.8533 132.133 73.944 132.41 74.04C132.869 74.2107 133.258 74.3813 133.578 74.552C133.898 74.712 134.16 74.8987 134.362 75.112C134.576 75.3147 134.73 75.5493 134.826 75.816C134.922 76.0827 134.97 76.4027 134.97 76.776C134.97 77.576 134.672 78.184 134.074 78.6C133.488 79.0053 132.645 79.208 131.546 79.208C130.81 79.208 130.218 79.144 129.77 79.016C129.322 78.8987 129.008 78.8027 128.826 78.728L129.162 77.112C129.45 77.2293 129.792 77.3413 130.186 77.448C130.592 77.5547 131.05 77.608 131.562 77.608ZM145.505 73.736C145.26 74.6747 144.993 75.592 144.705 76.488C144.428 77.3733 144.151 78.2107 143.873 79H142.289C142.076 78.5093 141.852 77.9493 141.617 77.32C141.383 76.6907 141.148 76.0187 140.913 75.304C140.679 74.5893 140.444 73.8373 140.209 73.048C139.975 72.2587 139.745 71.4533 139.521 70.632H141.569C141.665 71.08 141.777 71.5653 141.905 72.088C142.033 72.6 142.167 73.128 142.305 73.672C142.444 74.2053 142.588 74.728 142.737 75.24C142.887 75.752 143.036 76.2213 143.185 76.648C143.345 76.1573 143.5 75.6507 143.649 75.128C143.809 74.6053 143.959 74.0827 144.097 73.56C144.236 73.0373 144.364 72.5307 144.481 72.04C144.609 71.5387 144.721 71.0693 144.817 70.632H146.305C146.401 71.0693 146.508 71.5387 146.625 72.04C146.743 72.5307 146.865 73.0373 146.993 73.56C147.132 74.0827 147.276 74.6053 147.425 75.128C147.585 75.6507 147.745 76.1573 147.905 76.648C148.044 76.2213 148.188 75.752 148.337 75.24C148.487 74.728 148.631 74.2053 148.769 73.672C148.919 73.128 149.057 72.6 149.185 72.088C149.313 71.5653 149.425 71.08 149.521 70.632H151.521C151.297 71.4533 151.068 72.2587 150.833 73.048C150.599 73.8373 150.364 74.5893 150.129 75.304C149.895 76.0187 149.66 76.6907 149.425 77.32C149.191 77.9493 148.961 78.5093 148.737 79H147.169C146.892 78.2107 146.604 77.3733 146.305 76.488C146.017 75.592 145.751 74.6747 145.505 73.736ZM154.95 79H153.014V70.632H154.95V79ZM155.158 68.184C155.158 68.5467 155.04 68.8347 154.806 69.048C154.571 69.2613 154.294 69.368 153.974 69.368C153.643 69.368 153.36 69.2613 153.126 69.048C152.891 68.8347 152.774 68.5467 152.774 68.184C152.774 67.8107 152.891 67.5173 153.126 67.304C153.36 67.0907 153.643 66.984 153.974 66.984C154.294 66.984 154.571 67.0907 154.806 67.304C155.04 67.5173 155.158 67.8107 155.158 68.184ZM157.324 68.424L159.26 68.104V70.632H162.236V72.248H159.26V75.656C159.26 76.328 159.366 76.808 159.58 77.096C159.793 77.384 160.156 77.528 160.668 77.528C161.02 77.528 161.329 77.4907 161.596 77.416C161.873 77.3413 162.092 77.272 162.252 77.208L162.572 78.744C162.348 78.84 162.054 78.936 161.692 79.032C161.329 79.1387 160.902 79.192 160.411 79.192C159.814 79.192 159.313 79.112 158.908 78.952C158.513 78.792 158.198 78.5627 157.964 78.264C157.729 77.9547 157.564 77.5867 157.468 77.16C157.372 76.7227 157.324 76.2267 157.324 75.672V68.424ZM164.107 79V66.904L166.043 66.584V70.728C166.256 70.6533 166.502 70.5893 166.779 70.536C167.067 70.4827 167.35 70.456 167.627 70.456C168.299 70.456 168.854 70.552 169.291 70.744C169.739 70.9253 170.096 71.1867 170.363 71.528C170.63 71.8587 170.816 72.2587 170.923 72.728C171.04 73.1973 171.099 73.72 171.099 74.296V79H169.163V74.6C169.163 74.152 169.131 73.7733 169.067 73.464C169.014 73.144 168.918 72.888 168.779 72.696C168.651 72.4933 168.475 72.3493 168.251 72.264C168.027 72.168 167.75 72.12 167.419 72.12C167.163 72.12 166.902 72.1467 166.635 72.2C166.368 72.2533 166.171 72.3013 166.043 72.344V79H164.107ZM177.154 70.904C177.527 70.7973 178.013 70.696 178.61 70.6C179.207 70.504 179.869 70.456 180.594 70.456C181.277 70.456 181.847 70.552 182.306 70.744C182.765 70.9253 183.127 71.1867 183.394 71.528C183.671 71.8587 183.863 72.264 183.97 72.744C184.087 73.2133 184.146 73.7307 184.146 74.296V79H182.21V74.6C182.21 74.152 182.178 73.7733 182.114 73.464C182.061 73.144 181.965 72.888 181.826 72.696C181.698 72.4933 181.517 72.3493 181.282 72.264C181.058 72.168 180.781 72.12 180.45 72.12C180.205 72.12 179.949 72.136 179.682 72.168C179.415 72.2 179.218 72.2267 179.09 72.248V79H177.154V70.904ZM194.081 74.808C194.081 75.4693 193.985 76.072 193.793 76.616C193.601 77.16 193.329 77.624 192.977 78.008C192.625 78.392 192.199 78.6907 191.697 78.904C191.207 79.1173 190.663 79.224 190.065 79.224C189.468 79.224 188.924 79.1173 188.433 78.904C187.943 78.6907 187.521 78.392 187.169 78.008C186.817 77.624 186.54 77.16 186.337 76.616C186.145 76.072 186.049 75.4693 186.049 74.808C186.049 74.1467 186.145 73.5493 186.337 73.016C186.54 72.472 186.817 72.008 187.169 71.624C187.532 71.24 187.959 70.9467 188.449 70.744C188.94 70.5307 189.479 70.424 190.065 70.424C190.652 70.424 191.191 70.5307 191.681 70.744C192.183 70.9467 192.609 71.24 192.961 71.624C193.313 72.008 193.585 72.472 193.777 73.016C193.98 73.5493 194.081 74.1467 194.081 74.808ZM192.097 74.808C192.097 73.976 191.916 73.32 191.553 72.84C191.201 72.3493 190.705 72.104 190.065 72.104C189.425 72.104 188.924 72.3493 188.561 72.84C188.209 73.32 188.033 73.976 188.033 74.808C188.033 75.6507 188.209 76.3173 188.561 76.808C188.924 77.2987 189.425 77.544 190.065 77.544C190.705 77.544 191.201 77.2987 191.553 76.808C191.916 76.3173 192.097 75.6507 192.097 74.808ZM201.762 79H199.826V70.632H201.762V79ZM201.97 68.184C201.97 68.5467 201.853 68.8347 201.618 69.048C201.383 69.2613 201.106 69.368 200.786 69.368C200.455 69.368 200.173 69.2613 199.938 69.048C199.703 68.8347 199.586 68.5467 199.586 68.184C199.586 67.8107 199.703 67.5173 199.938 67.304C200.173 67.0907 200.455 66.984 200.786 66.984C201.106 66.984 201.383 67.0907 201.618 67.304C201.853 67.5173 201.97 67.8107 201.97 68.184ZM204.232 70.904C204.605 70.7973 205.091 70.696 205.688 70.6C206.285 70.504 206.947 70.456 207.672 70.456C208.355 70.456 208.925 70.552 209.384 70.744C209.843 70.9253 210.205 71.1867 210.472 71.528C210.749 71.8587 210.941 72.264 211.048 72.744C211.165 73.2133 211.224 73.7307 211.224 74.296V79H209.288V74.6C209.288 74.152 209.256 73.7733 209.192 73.464C209.139 73.144 209.043 72.888 208.904 72.696C208.776 72.4933 208.595 72.3493 208.36 72.264C208.136 72.168 207.859 72.12 207.528 72.12C207.283 72.12 207.027 72.136 206.76 72.168C206.493 72.2 206.296 72.2267 206.168 72.248V79H204.232V70.904ZM213.495 68.424L215.431 68.104V70.632H218.407V72.248H215.431V75.656C215.431 76.328 215.538 76.808 215.751 77.096C215.965 77.384 216.327 77.528 216.839 77.528C217.191 77.528 217.501 77.4907 217.767 77.416C218.045 77.3413 218.263 77.272 218.423 77.208L218.743 78.744C218.519 78.84 218.226 78.936 217.863 79.032C217.501 79.1387 217.074 79.192 216.583 79.192C215.986 79.192 215.485 79.112 215.079 78.952C214.685 78.792 214.37 78.5627 214.135 78.264C213.901 77.9547 213.735 77.5867 213.639 77.16C213.543 76.7227 213.495 76.2267 213.495 75.672V68.424ZM219.674 74.856C219.674 74.12 219.781 73.4747 219.994 72.92C220.218 72.3653 220.512 71.9067 220.874 71.544C221.237 71.1707 221.653 70.8933 222.122 70.712C222.592 70.52 223.072 70.424 223.562 70.424C224.714 70.424 225.61 70.7813 226.25 71.496C226.901 72.2107 227.226 73.2773 227.226 74.696C227.226 74.8027 227.221 74.9253 227.21 75.064C227.21 75.192 227.205 75.3093 227.194 75.416H221.674C221.728 76.088 221.962 76.6107 222.378 76.984C222.805 77.3467 223.418 77.528 224.218 77.528C224.688 77.528 225.114 77.4853 225.498 77.4C225.893 77.3147 226.202 77.224 226.426 77.128L226.682 78.712C226.576 78.7653 226.426 78.824 226.234 78.888C226.053 78.9413 225.84 78.9893 225.594 79.032C225.36 79.0853 225.104 79.128 224.826 79.16C224.549 79.192 224.266 79.208 223.978 79.208C223.242 79.208 222.602 79.1013 222.058 78.888C221.514 78.664 221.066 78.36 220.714 77.976C220.362 77.5813 220.101 77.1227 219.93 76.6C219.76 76.0667 219.674 75.4853 219.674 74.856ZM225.29 73.992C225.29 73.7253 225.253 73.4747 225.178 73.24C225.104 72.9947 224.992 72.7867 224.842 72.616C224.704 72.4347 224.528 72.296 224.314 72.2C224.112 72.0933 223.866 72.04 223.578 72.04C223.28 72.04 223.018 72.0987 222.794 72.216C222.57 72.3227 222.378 72.4667 222.218 72.648C222.069 72.8293 221.952 73.0373 221.866 73.272C221.781 73.5067 221.722 73.7467 221.69 73.992H225.29ZM234.047 72.376C233.887 72.3227 233.663 72.2693 233.375 72.216C233.098 72.152 232.772 72.12 232.399 72.12C232.186 72.12 231.956 72.1413 231.711 72.184C231.476 72.2267 231.311 72.264 231.215 72.296V79H229.279V71.032C229.652 70.8933 230.116 70.7653 230.671 70.648C231.236 70.52 231.86 70.456 232.543 70.456C232.671 70.456 232.82 70.4667 232.991 70.488C233.162 70.4987 233.332 70.52 233.503 70.552C233.674 70.5733 233.839 70.6053 233.999 70.648C234.159 70.68 234.287 70.712 234.383 70.744L234.047 72.376ZM235.268 74.856C235.268 74.12 235.375 73.4747 235.588 72.92C235.812 72.3653 236.105 71.9067 236.468 71.544C236.831 71.1707 237.247 70.8933 237.716 70.712C238.185 70.52 238.665 70.424 239.156 70.424C240.308 70.424 241.204 70.7813 241.844 71.496C242.495 72.2107 242.82 73.2773 242.82 74.696C242.82 74.8027 242.815 74.9253 242.804 75.064C242.804 75.192 242.799 75.3093 242.788 75.416H237.268C237.321 76.088 237.556 76.6107 237.972 76.984C238.399 77.3467 239.012 77.528 239.812 77.528C240.281 77.528 240.708 77.4853 241.092 77.4C241.487 77.3147 241.796 77.224 242.02 77.128L242.276 78.712C242.169 78.7653 242.02 78.824 241.828 78.888C241.647 78.9413 241.433 78.9893 241.188 79.032C240.953 79.0853 240.697 79.128 240.42 79.16C240.143 79.192 239.86 79.208 239.572 79.208C238.836 79.208 238.196 79.1013 237.652 78.888C237.108 78.664 236.66 78.36 236.308 77.976C235.956 77.5813 235.695 77.1227 235.524 76.6C235.353 76.0667 235.268 75.4853 235.268 74.856ZM240.884 73.992C240.884 73.7253 240.847 73.4747 240.772 73.24C240.697 72.9947 240.585 72.7867 240.436 72.616C240.297 72.4347 240.121 72.296 239.908 72.2C239.705 72.0933 239.46 72.04 239.172 72.04C238.873 72.04 238.612 72.0987 238.388 72.216C238.164 72.3227 237.972 72.4667 237.812 72.648C237.663 72.8293 237.545 73.0373 237.46 73.272C237.375 73.5067 237.316 73.7467 237.284 73.992H240.884ZM246.969 77.608C247.481 77.608 247.854 77.5493 248.089 77.432C248.323 77.304 248.441 77.0907 248.441 76.792C248.441 76.5147 248.313 76.2853 248.057 76.104C247.811 75.9227 247.401 75.7253 246.825 75.512C246.473 75.384 246.147 75.2507 245.849 75.112C245.561 74.9627 245.31 74.792 245.097 74.6C244.883 74.408 244.713 74.1787 244.585 73.912C244.467 73.6347 244.409 73.2987 244.409 72.904C244.409 72.136 244.691 71.5333 245.257 71.096C245.822 70.648 246.59 70.424 247.561 70.424C248.051 70.424 248.521 70.472 248.969 70.568C249.417 70.6533 249.753 70.7387 249.977 70.824L249.625 72.392C249.411 72.296 249.139 72.2107 248.809 72.136C248.478 72.0507 248.094 72.008 247.657 72.008C247.262 72.008 246.942 72.0773 246.697 72.216C246.451 72.344 246.329 72.5467 246.329 72.824C246.329 72.9627 246.35 73.0853 246.393 73.192C246.446 73.2987 246.531 73.4 246.649 73.496C246.766 73.5813 246.921 73.672 247.113 73.768C247.305 73.8533 247.539 73.944 247.817 74.04C248.275 74.2107 248.665 74.3813 248.985 74.552C249.305 74.712 249.566 74.8987 249.769 75.112C249.982 75.3147 250.137 75.5493 250.233 75.816C250.329 76.0827 250.377 76.4027 250.377 76.776C250.377 77.576 250.078 78.184 249.481 78.6C248.894 79.0053 248.051 79.208 246.953 79.208C246.217 79.208 245.625 79.144 245.177 79.016C244.729 78.8987 244.414 78.8027 244.233 78.728L244.569 77.112C244.857 77.2293 245.198 77.3413 245.593 77.448C245.998 77.5547 246.457 77.608 246.969 77.608ZM252.089 68.424L254.025 68.104V70.632H257.001V72.248H254.025V75.656C254.025 76.328 254.132 76.808 254.345 77.096C254.558 77.384 254.921 77.528 255.433 77.528C255.785 77.528 256.094 77.4907 256.361 77.416C256.638 77.3413 256.857 77.272 257.017 77.208L257.337 78.744C257.113 78.84 256.82 78.936 256.457 79.032C256.094 79.1387 255.668 79.192 255.177 79.192C254.58 79.192 254.078 79.112 253.673 78.952C253.278 78.792 252.964 78.5627 252.729 78.264C252.494 77.9547 252.329 77.5867 252.233 77.16C252.137 76.7227 252.089 76.2267 252.089 75.672V68.424ZM261.189 77.944C261.189 78.3173 261.061 78.6213 260.805 78.856C260.56 79.0907 260.261 79.208 259.909 79.208C259.547 79.208 259.243 79.0907 258.997 78.856C258.752 78.6213 258.629 78.3173 258.629 77.944C258.629 77.5707 258.752 77.2667 258.997 77.032C259.243 76.7867 259.547 76.664 259.909 76.664C260.261 76.664 260.56 76.7867 260.805 77.032C261.061 77.2667 261.189 77.5707 261.189 77.944Z" fill="#484751"/>
</g>
<defs>
<filter id="filter0_d" x="0" y="0" width="284" height="117" filterUnits="userSpaceOnUse" color-interpolation-filters="sRGB">
<feFlood flood-opacity="0" result="BackgroundImageFix"/>
<feColorMatrix in="SourceAlpha" type="matrix" values="0 0 0 0 0 0 0 0 0 0 0 0 0 0 0 0 0 0 127 0" result="hardAlpha"/>
<feOffset dy="2"/>
<feGaussianBlur stdDeviation="1"/>
<feColorMatrix type="matrix" values="0 0 0 0 0 0 0 0 0 0 0 0 0 0 0 0 0 0 0.2 0"/>
<feBlend mode="normal" in2="BackgroundImageFix" result="effect1_dropShadow"/>
<feBlend mode="normal" in="SourceGraphic" in2="effect1_dropShadow" result="shape"/>
</filter>
</defs>
</svg>
