<svg width="68" height="78" viewBox="0 0 68 78" fill="none" xmlns="http://www.w3.org/2000/svg">
<g clip-path="url(#clip0)">
<path d="M45.9566 9.44248C45.1139 11.7956 44.8882 14.194 44.7829 16.6829C44.7528 17.3616 45.7761 17.3466 45.8212 16.6829C45.9566 14.3147 46.0319 11.9314 46.709 9.65366C46.8595 9.17097 46.1222 8.97487 45.9566 9.44248Z" fill="#6976EC"/>
<path d="M53.7364 12.8813C54.6242 14.1786 54.9402 15.8378 55.5722 17.2708C55.798 17.7686 56.5654 17.4066 56.43 16.9088C55.9936 15.3099 55.5722 13.7411 54.7145 12.3081C53.8267 10.8148 52.2617 9.81927 51.0879 8.58237C50.7869 8.2656 50.2001 8.70304 50.4709 9.06506C51.4641 10.4226 52.7883 11.4936 53.7364 12.8813Z" fill="#6976EC"/>
<path d="M50.5321 37.9663C50.517 38.6451 50.4117 39.3238 50.1258 39.9574C49.9151 40.4099 50.5772 40.8172 50.8029 40.3646C51.1791 39.6255 51.3146 38.811 51.3146 37.9814C51.3146 37.4534 50.5471 37.4534 50.5321 37.9663Z" fill="#6976EC"/>
<path d="M51.028 31.0429C50.7421 32.0535 50.5615 33.1094 50.5314 34.1653C50.5164 34.7385 51.4193 34.8592 51.5246 34.3011C51.7052 33.3055 51.7654 32.2949 51.961 31.2993C52.0814 30.696 51.1936 30.4395 51.028 31.0429Z" fill="#6976EC"/>
<path d="M53.8585 65.1331C54.1745 64.1979 54.1293 63.2023 54.0691 62.237C54.039 61.5883 53.1211 61.5883 53.076 62.237C53.0158 63.1571 52.9255 64.0772 52.8051 64.9973C52.7298 65.6309 53.6628 65.6761 53.8585 65.1331Z" fill="#6976EC"/>
<path d="M32.1277 46.6391C32.5792 46.5033 32.6243 45.9301 32.2481 45.6737C28.6516 43.1697 25.7624 40.4395 24.0018 37.0003C24.2726 37.1361 24.5736 37.2417 24.8896 37.3322C25.4163 37.483 25.8978 37.6942 26.4095 37.8601C26.6502 38.4786 26.891 39.0819 27.1167 39.7004C27.2522 40.0473 27.6434 40.1378 27.8992 39.987C27.9143 40.0021 27.9143 40.0322 27.9293 40.0473C28.6817 40.9222 28.8172 42.2345 29.4642 43.1999C29.9759 43.9541 30.7734 44.12 31.586 44.3463C31.7064 44.3765 31.7967 44.3765 31.887 44.3463C32.203 45.5983 33.0758 46.9559 33.452 47.7704C33.5724 48.0117 33.9636 48.1324 34.1743 47.9665C34.2044 47.9363 34.2345 47.9212 34.2646 47.8911C34.5053 48.5095 34.8364 49.1129 35.1223 49.7012C35.5738 50.6213 36.1155 51.5414 36.8378 52.2655C36.9281 52.356 37.0635 52.4163 37.1989 52.4314C37.1087 53.6834 37.515 55.0409 37.8611 56.2778C37.9213 56.5041 38.1319 56.6549 38.3727 56.67C38.5984 56.67 38.8241 56.6549 39.0499 56.6248C39.6668 58.3745 40.1183 60.2148 39.7571 62.0701C39.6819 62.4472 39.9226 62.8093 40.3289 62.8244C40.359 62.8244 40.3741 62.8244 40.4042 62.8244C40.2989 63.6087 40.2537 64.4082 40.2537 65.1926C37.0485 65.0719 33.5272 66.9121 31.3001 69.0541C31.0744 69.2803 31.0744 69.6876 31.3001 69.8988C33.4219 71.9352 36.3563 72.2368 39.1402 72.5989C44.6478 73.3229 50.0801 73.5642 55.6178 73.5793C60.9448 73.5944 66.2418 73.338 71.5387 72.7346C76.4143 72.1765 81.4704 72.4028 86.1504 70.7435C86.8576 70.5022 86.5717 69.4161 85.8344 69.6122C80.718 70.9547 75.4963 71.015 70.2596 71.6184C64.9326 72.2218 59.5905 72.3273 54.2334 72.3273C49.1321 72.3273 44.1662 72.086 39.1101 71.4374C38.779 71.3921 32.0074 70.0195 32.6845 69.3859C34.6558 67.5457 37.5902 66.5501 40.2387 66.2183C40.2838 67.063 40.359 67.8926 40.4945 68.7373C40.5396 69.0239 40.8406 69.1597 41.0964 69.1898C43.0075 69.4161 44.8584 69.4312 46.7695 69.1748C47.2812 69.0993 48.3947 68.9033 48.786 68.4809C48.9214 68.4507 49.0418 68.3753 49.117 68.2546C50.8626 68.9787 54.5644 69.2049 55.663 67.3948C55.979 67.4099 56.2799 67.425 56.5959 67.425C57.1979 67.425 57.1979 66.4898 56.5959 66.4898C56.3853 66.4898 56.1746 66.4898 55.979 66.5049C56.0241 66.2183 56.0542 65.9317 56.0843 65.6451C57.3032 65.8563 58.5672 65.8261 59.8162 65.7507C60.1172 65.7356 60.2677 65.5395 60.3128 65.3132C60.3881 65.7658 60.4934 66.2183 60.6589 66.6557C60.3881 66.6406 60.1021 66.6255 59.8313 66.6105C59.2594 66.5954 59.2745 67.4401 59.8313 67.5004C62.7656 67.7569 65.6248 68.6317 68.5592 68.7826C69.0558 68.8127 69.1912 67.968 68.6796 67.8926C68.3786 67.8474 68.0927 67.8021 67.7917 67.7569C67.9121 67.7116 68.0174 67.6362 68.1077 67.5155C68.198 67.3948 68.2883 67.2591 68.3635 67.1384C68.9203 67.3043 69.4621 67.5155 70.0489 67.606C70.5907 67.6814 70.8465 66.882 70.2897 66.7613C69.8082 66.6557 69.3417 66.535 68.8601 66.4295C69.0407 66.1429 69.2363 65.8563 69.4169 65.5697C69.447 65.5847 69.4621 65.5998 69.4921 65.5998C70.696 65.9317 71.8848 66.3691 73.1488 66.3993C73.6906 66.4144 73.826 65.5395 73.2843 65.449C72.1406 65.2378 70.997 65.0417 69.8382 64.8758C69.9586 64.6797 70.0941 64.4685 70.2145 64.2724C74.2774 64.5439 78.0244 65.3132 81.9971 66.1881C82.7044 66.339 88.7989 68.1943 88.1518 68.9787C87.7154 69.5217 88.4076 70.2608 88.9343 69.763C90.74 68.0736 87.4746 66.7613 86.2557 66.2635C81.5005 64.3629 75.8424 63.1562 70.711 63.4126C74.0367 57.3639 75.8123 50.6364 76.7604 43.7278C77.2871 39.9116 77.2871 36.0802 76.4293 32.3243C76.0381 30.5594 75.09 27.1806 72.7726 27.3767C70.8615 27.5426 69.5222 31.0572 68.7548 32.3997C66.4976 36.3517 64.9627 40.711 63.2472 44.9044C61.5167 49.1431 60.5385 53.5024 60.4332 58.0728C60.4332 59.717 60.1924 61.4819 60.1924 63.2015C58.8682 63.111 57.4988 63.2015 56.1746 63.307C56.1294 61.693 56.0692 60.0941 56.7314 58.45C57.6042 56.2929 56.626 54.0454 56.0241 51.9185C55.4071 49.7464 56.3702 50.6364 56.6712 49.49C56.8668 48.7659 56.7163 47.8156 56.5658 47.1067C55.994 44.2709 57.228 42.0988 56.5959 39.3535C56.1445 37.3925 56.8517 35.9294 57.0775 34.0288C57.1076 33.7572 56.3552 29.4281 56.1595 29.6845C56.1746 29.6694 56.1746 29.6544 56.1746 29.6393C56.3552 29.594 56.5207 29.4734 56.626 29.2471C58.808 23.9827 60.2075 13.5445 55.5275 8.74777C58.6575 9.59248 61.2157 11.3573 62.4496 14.9624C62.555 15.2792 62.9161 15.4602 63.2171 15.2792C63.5181 15.0982 63.3826 17.1345 63.3525 17.1798C63.3375 18.3262 64.2253 19.5329 64.5112 20.6039C65.1733 23.0626 64.767 25.6118 66.1364 27.8594C66.332 28.1912 66.9039 28.2365 67.0844 27.8594C68.2883 25.3554 68.3786 22.7157 68.9655 20.0458C69.146 19.2011 69.3417 18.5223 69.1009 17.6474C68.9805 17.1949 67.0393 15.5356 68.5592 15.4904C68.8451 15.4753 69.146 15.2339 69.131 14.9172C69.0106 13.0166 68.5441 11.1914 67.7917 9.54723C70.0188 10.8595 73.1037 11.6138 74.0216 14.3741C74.2022 14.9323 75.0449 14.8418 75.0599 14.2384C75.1352 10.3467 71.1474 5.92704 68.2582 3.67951C64.8874 1.05487 60.9599 0.195074 56.9872 0.94928C57.0624 0.707934 56.9872 0.406251 56.6561 0.285578C54.5945 -0.43846 52.3223 0.195074 50.5466 1.34147C49.433 2.05042 48.169 3.37782 47.8831 4.78065C45.8817 2.05042 41.6682 2.09567 38.8091 4.02644C37.1839 5.1125 36.281 6.68125 35.8597 8.49134C35.7844 8.47626 35.7092 8.47626 35.6189 8.50642C32.6996 9.60757 31.8117 13.7104 31.4957 16.4558C31.0292 20.7246 31.3753 25.7325 34.0539 29.2622C34.415 29.7449 35.1524 29.594 35.1975 28.9605C35.4383 25.2951 35.2276 21.7955 36.597 18.3865C37.229 20.8603 37.9965 23.1531 38.4931 24.8727C38.6436 25.3856 39.2906 25.4308 39.5765 25.0085C41.7134 21.8257 40.2086 17.7077 42.0143 14.4496C42.1498 16.1088 42.5862 17.7832 42.9925 19.2765C43.3837 20.7095 43.3085 22.6553 44.0759 23.9677C44.4973 24.6917 45.2647 24.6917 45.0841 25.6269C44.6026 28.0856 46.7545 31.7812 48.4248 33.5008C48.5753 33.6517 48.7408 33.6818 48.9064 33.6517C48.8462 34.0288 48.786 34.4209 48.7258 34.8131C48.6957 34.9941 48.7107 35.2355 48.8763 35.3562C49.8243 36.1104 47.7627 40.168 47.6875 41.2842C47.6724 41.5256 47.868 41.7669 48.0938 41.8273C50.366 42.4608 47.7778 47.4687 47.5821 48.7358C47.537 49.0224 47.6574 49.3542 47.9734 49.4296C49.5233 49.7615 47.0855 55.3426 46.8598 56.1723C46.7846 56.4287 46.7244 56.7454 46.7244 57.0471C46.5438 56.7304 46.3482 56.4136 46.1225 56.0817C45.1443 54.5432 44.4521 53.3515 44.2415 51.4208C44.1963 51.0135 43.8803 50.7721 43.6245 50.4705C42.9925 49.7162 40.9008 49.2788 41.4275 47.7402C41.5328 47.4385 41.5478 46.9559 41.3823 46.6542C41.0513 46.081 40.5246 45.8547 39.9678 45.5832C37.7256 44.4217 38.6887 44.4217 38.3125 43.0038C37.8159 41.1786 34.9568 42.3099 34.6709 39.6853C34.4752 37.9054 31.1195 38.5992 31.2249 36.3517C31.2399 36.1104 31.0443 35.8992 30.8336 35.8238C30.0361 35.3712 29.2385 34.9187 28.4259 34.4662C28.2152 34.255 27.9594 34.2852 27.7788 34.4059C27.839 34.3455 27.8842 34.255 27.8842 34.1494C27.8992 32.2488 27.0264 30.4387 25.8677 28.8851C26.3643 29.1868 26.8308 29.5488 27.2973 30.0315C27.9293 30.7103 28.6065 31.1628 29.4492 31.1024C29.7953 32.6259 30.9991 33.8779 32.1127 34.9187C32.3083 35.0997 32.6093 35.0394 32.7598 34.8735C32.8651 35.1299 32.9704 35.3863 33.0607 35.6277C33.2563 36.0953 33.9486 35.9294 33.8282 35.4165C32.6996 30.7253 29.9006 24.571 24.4833 24.5861C25.0551 24.2392 25.6872 23.9827 26.4245 23.8922C27.5531 23.7565 28.6968 23.6961 29.8103 23.4548C31.3151 23.1229 31.6763 21.9162 30.4273 20.9357C28.9977 19.8195 26.5599 20.0156 24.8445 20.3776C24.8445 20.091 24.6037 19.7893 24.2425 19.8648C23.6406 19.9704 23.0688 20.1514 22.512 20.3927C21.88 20.257 21.2179 20.6039 20.5859 21.2073C20.4203 20.6793 20.1344 20.257 19.698 19.8648C19.4873 19.6687 19.1864 19.6687 18.9757 19.8648C17.9524 20.8302 15.7855 23.8771 16.1768 25.7476C13.739 24.5861 10.6842 24.1788 8.36681 25.3705C5.50767 26.8185 0.722375 29.6996 -0.014981 33.0935C-0.135366 33.6667 0.481606 33.9684 0.902953 33.6215C3.92762 31.1779 7.07267 29.4583 11.0755 29.8806C11.1658 29.8957 11.241 29.8655 11.3012 29.8203C11.3614 29.8655 11.4366 29.9108 11.5269 29.9108C11.6322 29.9108 11.7526 29.9259 11.858 29.941C11.5269 30.1521 11.1958 30.3935 10.8648 30.665C9.04397 32.1885 8.08089 34.5416 7.16296 36.6534C6.99743 37.0305 7.19305 37.4076 7.6144 37.4378C7.77993 37.4529 7.94546 37.4679 8.09594 37.4679C5.6732 41.6764 7.2081 46.7145 11.542 49.0978C11.7526 49.2034 11.9332 49.128 12.0385 48.9922C12.3545 49.0827 12.7759 48.7961 12.6706 48.4039C12.0536 46.2016 11.9633 43.9994 12.49 41.782C12.5351 41.5708 12.4599 41.2691 12.2492 41.1636C11.8279 40.9976 11.4216 40.8015 11.0153 40.5904C10.8497 40.4998 12.5652 38.9009 12.6555 38.8104C13.8293 37.7093 14.7773 36.2914 15.8457 35.0394C16.237 34.7377 16.5831 34.4059 16.8991 34.0137C16.7787 34.4662 16.6583 34.9338 16.5229 35.4014C16.4326 35.7031 16.6884 36.0802 17.0195 36.05C18.9607 35.9143 17.4107 37.3473 17.817 38.6294C18.4039 40.5149 19.7733 41.6462 21.1276 43.034C24.0168 45.9452 28.1099 47.8911 32.1277 46.6391ZM61.4866 58.9326C61.8176 55.4331 62.0734 52.1448 63.0817 48.7509C64.9777 42.3854 67.9271 35.8389 71.4033 30.1823C74.3226 25.4157 75.8424 36.3517 75.8876 37.8903C75.9929 41.1786 75.4662 44.4821 74.8493 47.695C73.51 54.5884 71.1173 61.0897 66.9942 66.8216C66.7684 67.1384 66.8738 67.425 67.0995 67.606C65.2937 67.2892 63.488 66.9272 61.6822 66.7311C60.8094 64.2724 61.2458 61.4969 61.4866 58.9326ZM56.2047 64.1367C57.5289 64.2573 58.8983 64.3328 60.2376 64.2423C60.2526 64.4836 60.2827 64.7249 60.3128 64.9663C60.2376 64.8155 60.1021 64.7099 59.8764 64.6948C58.6575 64.6344 57.4236 64.6948 56.2047 64.6495C56.2047 64.4836 56.2047 64.3177 56.2047 64.1367ZM36.0854 16.8479C34.2947 20.0609 34.2345 23.4397 34.1141 26.9543C31.6763 21.9464 31.4205 13.1222 35.6941 9.60757C35.5286 10.8746 35.5738 12.2322 35.7242 13.6199C35.7242 13.6199 35.7242 13.6199 35.7092 13.6199C34.5956 14.8267 34.385 16.3803 34.0689 17.934C33.9486 18.5072 34.7913 18.7485 34.9417 18.1753C35.2427 17.0591 35.3932 15.9127 35.8898 14.887C35.9801 15.4753 36.1004 16.0787 36.2208 16.6669C36.1757 16.7122 36.1305 16.7725 36.0854 16.8479ZM23.8212 35.869C23.7008 35.8087 23.5654 35.8238 23.46 35.869C22.7076 34.074 22.2411 32.0678 22.1208 29.8354C23.1591 30.9063 23.9566 32.6259 24.4382 33.5159C24.9348 34.4662 25.3862 35.4316 25.8075 36.4271C25.1304 36.231 24.393 36.1405 23.8212 35.869ZM68.3184 5.1125C70.0941 6.50024 72.3964 9.30588 73.4648 11.9154C72.0052 10.4674 70.1693 9.65282 68.198 8.47626C67.8519 8.26508 67.5509 8.46117 67.4155 8.74777C65.8054 5.76111 63.187 3.42308 59.7109 2.33702C59.0036 2.11076 58.2663 1.975 57.544 1.8845C61.4414 1.35655 64.9476 2.47278 68.3184 5.1125ZM48.6355 5.95721C49.2976 4.4488 49.7039 3.31749 51.1184 2.29177C52.548 1.26605 54.2484 0.94928 55.9338 1.22079C55.4824 1.34147 55.046 1.46214 54.5945 1.62807C54.3839 1.70349 54.2936 1.86941 54.2785 2.05042C51.9009 2.53311 49.7942 3.8756 48.6204 6.12313C48.6054 6.07788 48.5904 6.0628 48.5904 6.03263C48.6054 6.01754 48.6204 5.98738 48.6355 5.95721ZM42.0595 12.6696C41.9692 12.6998 41.894 12.7451 41.8187 12.8356C39.2304 15.8222 40.5396 19.8346 39.2756 23.138C37.7557 17.9642 36.0854 12.9713 37.5751 7.51087C38.8994 2.66887 45.0841 2.72921 47.5972 6.12313C45.039 5.03708 42.8269 4.8259 40.7653 7.34495C38.6586 9.92433 38.3276 13.8311 38.1771 17.029C38.147 17.6474 39.0649 17.6323 39.1251 17.029C39.3809 14.4043 39.6969 11.8249 40.8105 9.41147C41.608 7.69188 43.2031 6.01754 45.2497 6.45498C45.8215 6.57566 46.3181 6.83209 46.8147 7.04326C45.3701 7.08852 44.2114 7.90306 43.2182 9.30588C42.5109 10.3316 42.1648 11.478 42.0595 12.6696ZM48.4399 31.7058C47.2059 29.8354 45.7764 26.5621 46.6792 25.1291C46.8147 24.9029 46.7545 24.5107 46.4836 24.4051C44.3317 23.4397 44.3167 19.91 43.7449 17.7982C42.7968 14.3591 42.5862 7.23936 48.2442 8.14441C48.3044 8.31033 48.4549 8.44609 48.6806 8.44609C49.0267 8.431 49.2374 8.28016 49.5083 8.0539C51.0131 6.817 52.4878 5.80637 54.3688 5.21809C59.6206 3.57392 64.2253 9.2003 65.0229 13.7104C65.1132 14.2535 65.9709 14.1177 65.9709 13.5747C65.9709 9.27572 62.4647 5.91196 58.7328 4.37338C55.3469 2.98564 51.931 4.59964 49.2826 6.77175C51.2539 2.74429 56.2047 2.38227 60.1774 3.63425C63.0365 4.52422 65.0981 6.817 66.5427 9.33605C67.5058 11.0104 68.9354 14.1328 66.3621 14.6306C66.001 14.706 65.8505 15.1736 66.016 15.4753C67.0243 17.21 68.183 18.5374 67.7014 20.8C67.2951 22.7308 67.2048 24.4956 66.5728 26.2906C65.7452 24.1788 65.8957 21.7201 65.2636 19.548C64.8423 18.115 64.1802 16.8781 64.4962 15.3094C64.5865 14.887 64.6015 14.6909 64.4811 14.2987C64.4209 14.0876 64.2253 13.9367 63.9996 13.9367C62.4346 13.9367 61.622 10.8595 60.2225 9.80366C57.6643 7.88798 54.5494 6.99801 51.3592 7.31478C50.8476 7.36003 50.8476 8.06898 51.3592 8.11424C52.0213 8.15949 52.6684 8.23491 53.3004 8.32542C53.3455 8.40084 53.3907 8.49134 53.496 8.55168C58.507 11.9305 58.0857 20.9207 56.3552 26.6375C56.0542 23.9224 55.7231 21.2374 54.6848 18.643C53.5111 15.6865 51.4946 13.092 49.3879 10.7389C49.3277 10.6785 49.2675 10.6484 49.2073 10.6333C49.2073 10.1204 49.2224 9.62265 49.2675 9.10979C49.3277 8.41592 48.2593 8.431 48.1841 9.10979C47.868 12.0059 48.2743 14.887 48.4248 17.7832C48.4399 18.0999 46.7545 18.824 46.604 19.5631C46.5739 19.729 46.589 19.9553 46.7394 20.0759C49.5835 22.3687 48.8311 27.9197 48.4399 31.7058ZM47.9433 19.6687C48.3496 20.0307 49.102 19.2312 49.3729 18.7033C49.418 20.4832 49.6889 22.2631 49.8243 24.0431C49.8243 24.0582 49.8243 24.0732 49.8243 24.0883C49.6136 22.2933 49.0869 20.6793 47.9433 19.6687ZM48.3947 55.3275C48.8763 53.8342 49.5083 52.3711 49.6889 50.8023C50.4413 50.9079 51.2087 50.9833 51.9762 50.8928C52.4728 50.8174 52.4728 49.9727 51.9762 49.8973C51.2388 49.7917 50.4563 49.7313 49.7039 49.7766C49.5083 49.2336 48.801 48.3436 48.786 48.5246C49.0418 46.805 50.366 45.0553 50.351 43.2602C50.7272 43.1848 51.2087 43.2452 51.5247 43.2452C52.1267 43.2602 52.7286 43.3658 53.3455 43.3206C54.0227 43.2753 54.0077 42.3401 53.3455 42.2798C52.3975 42.2044 51.1485 41.963 50.1854 42.3099C49.7942 41.3144 48.8161 41.0278 49.1923 39.8211C49.5685 38.6143 50.2757 37.2417 50.2607 35.9143C51.5097 36.05 52.7888 36.0802 54.0227 35.9746C54.7149 35.9143 54.73 34.8433 54.0227 34.8886C52.7286 34.964 51.4194 34.8584 50.1253 34.964C49.7491 33.5913 50.2908 31.6455 50.667 29.8505C51.7053 29.941 52.7587 30.0918 53.797 29.9711C54.3237 29.9108 54.5795 29.0359 53.9324 28.9454C52.9242 28.7946 51.8859 28.7493 50.8626 28.8097C50.9228 28.3873 50.983 27.98 50.983 27.6029C50.998 26.6828 50.9529 25.7627 50.8777 24.8425C50.9379 24.8727 51.0131 24.8878 51.0883 24.8727C51.2689 24.9029 51.4495 24.8878 51.6602 24.8727C51.9912 24.8425 52.3223 24.8274 52.6684 24.7671C53.1499 24.6766 53.165 23.8621 52.6684 23.7866C52.2169 23.7112 51.7956 23.7565 51.3441 23.847C51.1786 23.8771 50.9679 23.9375 50.8476 24.0732C50.8325 24.0883 50.8325 24.0883 50.8325 24.1034C50.667 22.3687 50.4563 20.6341 50.3961 18.8843C50.4262 18.8843 50.4563 18.8994 50.4864 18.8994C51.1636 18.9597 51.8558 18.9899 52.548 18.9296C53.2252 18.8692 53.2252 17.934 52.548 17.8737C51.8708 17.8133 51.1786 17.8435 50.4864 17.9038C50.4563 17.9038 50.4112 17.9189 50.3811 17.9189C50.3811 17.6625 50.3811 17.391 50.3961 17.1345C50.4262 16.6217 49.8092 16.5463 49.5384 16.8479C49.5384 15.249 49.3578 13.6501 49.2675 12.0361C50.6971 13.9518 52.0514 15.8675 53.165 17.9943C54.9557 21.4034 55.0159 25.28 55.4974 29.0057C55.4673 29.0208 55.4222 29.051 55.3921 29.0812C55.1664 29.3225 55.1062 29.4432 55.0008 29.76C54.9406 29.941 55.0159 30.1521 55.1363 30.2879C57.3634 32.6561 54.6246 35.4165 55.0761 37.9657C55.2717 39.0367 55.994 41.073 55.4974 42.0083C55.4222 42.1591 55.046 42.7926 55.0309 43.1396C54.9707 44.4971 55.979 48.781 55.0159 49.6559C53.6465 50.8928 55.4824 54.694 55.8435 55.9611C56.2047 57.1678 54.7751 60.3204 54.8203 61.8741C54.8353 62.5981 55.0008 63.6691 54.9406 64.6646C54.7902 64.7853 54.7601 65.0417 54.8654 65.2076C54.6698 66.2786 54.113 67.1686 52.6533 67.3043C51.7053 67.3948 50.3811 67.3194 49.5534 66.9423C49.4782 66.9121 49.4029 66.8971 49.3277 66.882C49.3127 65.3434 49.0869 63.2165 48.3947 61.7232C48.3947 60.9539 48.3195 60.1545 48.2593 59.3701C49.4481 59.5963 50.682 59.9433 51.8558 59.8075C52.4427 59.7472 52.6985 58.7969 52.0063 58.6913C50.7723 58.4952 49.433 58.1784 48.169 58.2388C48.0938 57.2281 48.1088 56.2326 48.3947 55.3275ZM32.3234 33.7723C31.4957 32.7919 30.5477 31.7963 30.4725 30.484C30.4574 30.1521 30.1414 29.8354 29.7802 29.956C28.5162 30.3784 27.1468 28.161 26.1837 27.5878C25.5517 27.2107 24.8294 26.9845 24.077 26.8336C24.0469 26.8035 24.0168 26.7733 23.9867 26.7582C23.7911 26.5621 23.5052 26.5923 23.3096 26.728C23.0086 26.6828 22.7076 26.6828 22.4067 26.6526C22.6625 26.3057 22.9484 25.9738 23.2343 25.6571C23.2795 25.6722 23.3246 25.6872 23.3848 25.6872C28.3206 25.5213 30.6079 29.7449 32.3234 33.7723ZM19.3519 20.9961C19.5475 21.2525 19.7131 21.5391 19.8485 21.871C19.8635 21.9162 19.8936 21.9615 19.9237 21.9916C18.9005 23.319 18.1029 25.1442 17.9675 26.3057C16.237 25.0839 18.1029 22.3386 19.3519 20.9961ZM19.2014 36.1858C19.3068 35.7333 19.0961 35.3863 18.7048 35.1601C18.3136 34.9187 17.6816 35.2958 17.9073 34.5265C18.449 32.7014 18.75 31.027 19.5626 29.2471C19.8335 28.6588 18.9757 28.1309 18.6747 28.7342C18.5845 28.9152 18.5092 29.0812 18.434 29.2622C15.9811 28.8247 13.1371 31.389 12.1288 33.4405C11.8279 34.0438 12.7007 34.5718 13.0468 33.9835C13.9948 32.3243 16.0263 30.1672 18.0879 30.122C17.8622 30.7253 17.6816 31.3438 17.501 31.9622C17.4559 31.9773 17.4107 31.9773 17.3806 32.0075C16.9442 32.2187 16.6433 32.6561 16.3573 33.0332C16.0413 33.4405 15.7253 33.8628 15.304 34.1796C15.2287 34.2399 15.1836 34.3003 15.1384 34.3757C14.3409 35.1299 13.5734 35.9294 12.9264 36.8193C11.9633 38.1618 10.609 39.097 9.70609 40.4848C9.5556 40.7261 9.64589 41.0881 9.90171 41.2239C11.7075 42.2496 11.1206 42.8379 11.0454 44.7988C11.0002 45.9452 11.1658 47.0916 11.557 48.1626C8.09594 45.5832 6.4256 41.1937 9.39008 37.4378C9.67599 37.0758 9.49541 36.6081 9.02892 36.5629C8.8333 36.5478 8.62262 36.5327 8.427 36.5026C9.11921 34.9791 9.87161 33.5461 10.9701 32.2187C12.5351 30.3181 14.8375 29.8203 16.8539 28.6286C17.3957 28.3119 16.9141 27.5426 16.3724 27.799C16.1768 27.8895 15.9811 27.98 15.7705 28.0705C14.672 27.2409 13.0167 27.1051 11.6774 27.0448C11.0454 27.0146 11.0905 27.9348 11.6774 28.0102C12.3245 28.1007 12.9565 28.2063 13.5885 28.3722C13.8744 28.4476 14.1603 28.5532 14.4312 28.6588C13.9496 28.87 13.4681 29.0963 13.0016 29.3376C12.9715 29.3225 12.9565 29.3074 12.9264 29.3074C12.4599 29.1717 12.0235 29.2471 11.542 29.2471C11.5119 29.2471 11.4968 29.2622 11.4667 29.2622C11.4216 29.1566 11.3313 29.0812 11.1958 29.0661C7.68964 28.5381 4.69507 29.8052 1.89613 31.6606C3.20531 29.8806 5.59796 28.5683 7.17801 27.3465C10.5337 24.7822 14.7171 25.8682 17.9976 27.8594C18.3437 28.0705 18.75 27.6029 18.4942 27.3012C18.6747 27.2862 18.8403 27.1655 18.8854 26.9694C19.2165 25.099 20.4504 21.886 22.6173 21.5391C21.0373 22.8062 19.9538 24.9029 19.5626 26.713C19.4272 27.3465 20.2849 27.5577 20.5106 26.9694C21.3985 24.6615 22.6474 22.1123 25.2508 21.4637C26.0333 21.2676 26.8609 21.2676 27.6585 21.2827C28.0949 21.2978 31.0894 22.0218 29.5395 22.4743C28.1249 22.8967 26.6051 22.7308 25.1755 23.138C23.3848 23.6509 22.1358 25.1593 21.2329 26.6979C21.0373 27.0448 21.3082 27.3314 21.6091 27.3616C21.6543 27.3917 21.6994 27.4219 21.7596 27.437C22.3766 27.618 22.9635 27.7688 23.5202 27.9348C25.0401 29.8354 27.0565 31.5851 27.1017 34.1796C27.1017 34.5265 27.4628 34.6321 27.7036 34.5114C27.523 34.7075 27.4628 35.0092 27.7036 35.2506C28.3657 35.9294 29.9006 36.4121 30.1564 37.3473C30.5627 38.8255 33.5724 39.2026 33.7078 40.3641C33.7981 41.1485 33.8583 41.6915 34.6408 42.0535C35.1223 42.2798 35.6038 42.5362 36.1004 42.7474C38.4931 43.7279 36.6271 43.9541 37.2591 45.0402C37.846 46.0357 40.7052 46.6089 40.1785 48.057C39.8926 48.8565 40.4343 49.5051 41.0212 49.9576C41.6983 50.4855 43.0828 51.285 43.173 52.2353C43.3386 53.8342 42.7968 52.4012 43.459 54.1057C44.3618 56.4287 46.5438 57.5298 45.8516 60.3506C45.7914 60.607 45.8817 60.9087 46.1375 61.0444C46.5438 61.2707 46.8749 61.6629 47.1307 62.1606C47.1156 62.3417 47.1006 62.5227 47.0855 62.7037C47.0404 63.0808 47.2962 63.2769 47.5821 63.292C48.0035 64.6948 48.1389 66.4144 48.1841 67.5457C47.6724 67.6211 47.1608 67.8172 46.6642 67.9228C45.0841 68.2245 43.3235 68.1641 41.6983 68.0133C41.4124 66.2786 41.3071 64.4685 41.5629 62.7338C42.9473 62.4925 44.2866 61.874 45.6409 61.5422C46.1526 61.4215 46.0322 60.6522 45.5205 60.6372C43.9555 60.607 42.5711 61.4366 41.0362 61.6176C41.2168 59.8226 40.7954 58.0879 40.1183 56.3985C41.2168 56.0516 42.2401 55.3879 43.0376 54.5733C43.3386 54.2717 42.9323 53.6985 42.5711 53.97C41.4425 54.7694 40.2086 55.5236 38.8091 55.5991C38.3426 53.8342 37.8159 52.1297 39.2154 50.6213C39.5765 50.2291 39.08 49.49 38.6135 49.8369C38.0567 50.2442 37.7106 50.7269 37.4999 51.2548C37.4849 51.2548 37.4698 51.2548 37.4548 51.2699C37.53 51.1643 37.4548 51.0437 37.1989 50.8928C37.0786 50.7269 36.9732 50.561 36.8679 50.395C36.6121 49.9878 36.3863 49.5352 36.1606 49.1129C35.8446 48.4944 35.5737 47.8156 35.1825 47.2274C35.7995 46.7598 36.4014 46.2771 36.9732 45.7491C37.3193 45.4173 36.8528 44.7837 36.4465 45.0703C35.6791 45.6435 34.8815 46.1715 34.099 46.7296C33.4068 45.4776 32.3986 43.9994 33.1661 42.7021C33.4068 42.3099 32.9253 41.7669 32.519 42.0535C32.0525 42.3703 31.8268 42.8077 31.7816 43.2904C31.4355 43.1547 31.0744 43.0641 30.7433 42.9133C30.2919 42.687 29.9909 41.9932 29.8103 41.5557C29.5545 40.9071 29.3288 40.2736 28.9375 39.7155C29.088 39.5194 29.2536 39.3233 29.4341 39.1423C29.8404 38.7501 29.3288 38.1316 28.8473 38.3881C28.5613 38.5389 28.3356 38.7803 28.14 39.0518C28.14 39.0518 28.14 39.0518 28.14 39.0367C28.155 38.7803 27.9895 38.6596 27.7939 38.6294C27.6735 38.2825 27.523 37.9355 27.3876 37.5735C27.4026 37.4378 27.3725 37.302 27.2522 37.1813C27.2371 37.1663 27.2221 37.1663 27.2221 37.1512C26.4697 35.2807 25.6119 33.4405 24.6187 31.6907C23.7761 30.1823 22.1358 27.3012 19.999 27.98C19.5024 28.146 19.5626 29.0208 20.1344 28.9454C20.4956 28.9002 20.8567 28.9907 21.1878 29.1566C21.0222 36.5629 24.9348 41.8273 30.6681 45.915C25.7624 46.4581 17.9524 41.42 19.2014 36.1858Z" fill="#6976EC"/>
<path d="M20.5716 29.5642C20.5265 29.0513 19.744 29.0362 19.759 29.5642C19.9245 33.5011 20.2706 37.6643 23.0094 40.7415C23.4458 41.2393 24.138 40.5152 23.7317 40.0174C21.3691 37.0911 20.9027 33.2145 20.5716 29.5642Z" fill="#6976EC"/>
<path d="M45.6251 63.7446C45.8658 64.4385 46.0765 65.1324 46.3925 65.7961C46.6182 66.2637 47.3706 65.9318 47.2202 65.4491C47.0095 64.7854 46.7838 64.1368 46.5731 63.4882C46.3775 62.8848 45.4294 63.1413 45.6251 63.7446Z" fill="#6976EC"/>
<path d="M43.6709 64.4232C43.6709 64.8909 43.7311 65.3886 43.9117 65.8261C44.002 66.0372 44.1374 66.1881 44.3782 66.1881C44.6189 66.1881 44.8898 65.9618 44.8747 65.7054C44.8296 65.268 44.6641 64.8758 44.634 64.4383C44.5888 63.8048 43.6859 63.7897 43.6709 64.4232Z" fill="#6976EC"/>
<path d="M41.7584 56.9272C41.5928 56.3238 40.6448 56.5802 40.8103 57.1836C40.9458 57.6814 41.2016 58.1188 41.4424 58.5563C41.7433 59.0993 42.4957 58.6166 42.2549 58.0886C42.0894 57.6965 41.8637 57.3495 41.7584 56.9272Z" fill="#6976EC"/>
<path d="M53.8861 47.1817C54.0215 47.7248 54.9244 47.6192 54.8793 47.046C54.8191 46.3219 54.6385 45.6431 54.3977 44.9493C54.1871 44.3308 53.224 44.5873 53.4196 45.2208C53.6152 45.8694 53.7055 46.5331 53.8861 47.1817Z" fill="#6976EC"/>
<path d="M65.8805 60.4719C65.6848 61.1959 66.6931 61.4222 66.9639 60.7736C68.9503 56.007 69.4469 50.5465 70.6808 45.5537C71.8245 40.9229 72.8176 36.4278 72.5919 31.6461C72.5618 31.088 71.7342 31.088 71.7342 31.6461C71.7793 36.6993 70.4701 41.6016 69.2211 46.4587C68.0173 51.1046 67.1746 55.8411 65.8805 60.4719Z" fill="#6976EC"/>
<path d="M33.3762 72.2376C31.9767 71.951 30.487 71.8605 29.1627 71.3024C28.4555 71.0007 28.1395 70.6538 28.621 69.9599C28.9671 69.4621 29.5991 69.1605 30.1108 68.8588C30.5622 68.5873 30.9384 68.2705 31.3748 67.9688C31.7661 67.6973 31.4049 67.0638 30.9986 67.3353C29.9753 67.999 28.6511 68.1951 27.9137 69.2811C27.4623 69.9599 27.1914 70.7443 27.7332 71.4532C28.8618 72.9315 31.45 72.9164 33.1204 73.1728C33.7223 73.2633 33.9932 72.3583 33.3762 72.2376Z" fill="#6976EC"/>
<path d="M59.8774 74.1376C53.181 74.4242 45.3259 75.2086 38.7649 73.5342C38.2082 73.3985 38.0125 74.1829 38.5242 74.394C41.2328 75.4499 44.1672 75.2538 47.0113 75.3443C51.3151 75.4801 55.5737 75.6309 59.8624 75.1784C60.5245 75.103 60.5546 74.1074 59.8774 74.1376Z" fill="#6976EC"/>
<path d="M74.7899 73.6245C72.4875 73.5642 70.2002 73.896 67.8979 73.881C67.326 73.881 67.3411 74.7257 67.8979 74.7558C70.1852 74.9067 72.5026 74.6502 74.7899 74.5447C75.3768 74.5145 75.3918 73.6396 74.7899 73.6245Z" fill="#6976EC"/>
<path d="M32.4427 74.0626C31.299 73.9269 30.1554 73.8514 28.9967 73.8816C28.4399 73.8967 28.4399 74.7263 28.9967 74.7414C30.1554 74.7716 31.284 74.9375 32.4427 75.0129C33.0597 75.0732 33.0446 74.138 32.4427 74.0626Z" fill="#6976EC"/>
<path d="M64.5873 76.7932C63.6543 76.9139 62.6762 77.11 61.7282 76.9742C61.1714 76.8988 60.9005 77.6982 61.4874 77.8491C62.5859 78.1206 63.6242 77.9396 64.7228 77.7888C65.2795 77.7133 65.1441 76.7329 64.5873 76.7932Z" fill="#6976EC"/>
<path d="M54.3688 71.1667C55.0459 71.1667 55.0459 70.0957 54.3688 70.0957C53.6766 70.0957 53.6766 71.1667 54.3688 71.1667Z" fill="#6976EC"/>
<path d="M62.9763 71.6489C63.6835 71.6489 63.6835 70.5327 62.9763 70.5327C62.254 70.5327 62.254 71.6489 62.9763 71.6489Z" fill="#6976EC"/>
<path d="M37.018 67.5304C36.4913 67.6359 36.0098 67.8019 35.5283 68.0432C34.9564 68.3147 35.453 69.1293 36.0098 68.8728C36.4161 68.6918 36.8525 68.5862 37.2738 68.4656C37.8758 68.2695 37.635 67.3946 37.018 67.5304Z" fill="#6976EC"/>
<path d="M38.9901 69.0693C38.7192 69.1447 38.4634 69.1598 38.1925 69.1598C37.6207 69.1598 37.6207 70.0498 38.1925 70.0498C38.5537 70.0498 38.8848 70.0196 39.2309 69.8989C39.7425 69.733 39.5318 68.9185 38.9901 69.0693Z" fill="#6976EC"/>
<path d="M46.3325 70.4576C46.8592 70.4576 46.8592 69.6431 46.3325 69.6431C45.8058 69.6582 45.8058 70.4576 46.3325 70.4576Z" fill="#6976EC"/>
<path d="M47.3726 69.5371C46.8459 69.5371 46.8459 70.3516 47.3726 70.3516C47.7187 70.3516 48.0648 70.3516 48.4109 70.3516C48.9375 70.3516 48.9375 69.5371 48.4109 69.5371C48.0497 69.5371 47.7187 69.5371 47.3726 69.5371Z" fill="#6976EC"/>
<path d="M67.1919 41.4496C67.7939 40.0618 68.2754 38.5534 69.3589 37.4523C69.705 37.1054 69.1933 36.6076 68.8322 36.9243C67.5531 38.0104 66.906 39.549 66.3643 41.1026C66.1837 41.5703 66.9813 41.9172 67.1919 41.4496Z" fill="#6976EC"/>
<path d="M65.8804 46.0957C66.1964 45.3113 66.4823 44.4666 66.693 43.637C66.8284 43.0788 66.1211 42.8375 65.8051 43.2598C65.2784 43.9688 65.143 44.9945 64.8421 45.8091C64.6013 46.4728 65.6246 46.7292 65.8804 46.0957Z" fill="#6976EC"/>
</g>
<defs>
<clipPath id="clip0">
<rect width="97" height="78" fill="white"/>
</clipPath>
</defs>
</svg>
