<svg width="104" height="160" viewBox="0 0 104 160" fill="none" xmlns="http://www.w3.org/2000/svg">
<path d="M93.21 58.6516C96.4678 57.1604 103.481 54.9734 104.003 50.8479C104.351 47.8904 96.8657 45.0821 95.1249 44.088C92.6381 42.5969 90.3502 39.6394 87.6644 38.6702C84.6217 37.8767 81.4821 37.5169 78.3387 37.6015C71.2263 37.1293 64.089 36.682 56.9767 36.1849C58.1455 34.5447 57.4989 31.8606 57.3994 29.947C60.2344 29.947 63.0943 29.947 65.9542 29.947C71.1517 29.947 76.3243 30.1955 81.5218 30.0712C82.2867 30.1422 83.0572 30.0227 83.7645 29.7235C84.4719 29.4242 85.094 28.9546 85.5754 28.3564C86.6696 26.4428 85.8987 23.5102 85.7992 21.4972C85.6251 17.6947 84.1828 12.5503 85.7992 9.07093C86.0728 8.37507 85.3019 7.82831 84.6801 7.92772C84.5315 7.82918 84.3605 7.76937 84.1828 7.75375C75.4788 7.33126 66.7748 7.25671 58.0709 7.30641C58.0709 7.30641 58.0709 7.30641 58.0709 7.1573C58.5104 5.11422 58.7519 3.03357 58.792 0.944187C58.7922 0.797774 58.7593 0.653218 58.6955 0.521374C58.6318 0.38953 58.5391 0.273825 58.4242 0.182945C58.3093 0.092066 58.1753 0.0283747 58.0323 -0.00334629C57.8893 -0.0350673 57.7409 -0.0339935 57.5984 -0.000205608C53.9793 0.704417 50.2908 0.987965 46.6065 0.844777C46.4847 0.841347 46.3635 0.862787 46.2504 0.907784C46.1372 0.952782 46.0344 1.02039 45.9482 1.10647C45.8621 1.19255 45.7944 1.29529 45.7494 1.40841C45.7044 1.52152 45.6829 1.64263 45.6864 1.76432C45.8195 3.36808 45.7275 4.98258 45.4128 6.56084C45.3887 6.67556 45.3887 6.79405 45.4128 6.90877C37.5046 6.46143 29.2483 5.39277 21.6883 6.66025C18.7995 7.13378 16.1636 8.59137 14.2277 10.7858C11.7409 13.271 8.80639 14.787 6.26981 17.0983C2.86283 20.2048 11.2435 25.399 13.1584 26.8156C20.0221 31.7861 25.5926 30.792 33.7992 30.618C37.9025 30.618 41.981 30.3943 46.0594 30.2701C45.7817 31.8029 45.665 33.3604 45.7112 34.9175C45.7004 34.9666 45.7004 35.0175 45.7112 35.0666C43.0503 34.6441 40.4142 34.1222 37.7782 33.6997C34.2581 33.5248 30.7659 32.9834 27.3583 32.0843C27.1291 31.9886 26.8754 31.9683 26.634 32.0264C26.3925 32.0845 26.1758 32.2179 26.0154 32.4074C25.9211 32.326 25.8053 32.2735 25.682 32.2563C25.5586 32.2391 25.4328 32.2578 25.3199 32.3103C25.2069 32.3629 25.1115 32.4468 25.0452 32.5522C24.9789 32.6576 24.9445 32.7799 24.946 32.9044C24.0547 39.1714 23.5564 45.488 23.4539 51.8171C23.4577 52.0279 23.5302 52.2318 23.6603 52.3977C23.7905 52.5636 23.9712 52.6826 24.1751 52.7367C31.6357 53.8302 38.8973 54.3272 46.2583 55.3462C45.8533 57.4361 45.6204 59.5556 45.562 61.6835C41.5582 61.9321 37.5544 62.1309 33.5257 62.1806C29.0245 62.1806 24.4984 61.1865 19.9972 61.4847C18.0823 61.609 16.5902 63.97 15.4711 65.2374C13.4568 67.3748 10.0996 69.2387 8.58258 71.7736C6.24494 75.7003 12.5864 79.6519 15.3717 81.7146C20.8925 85.7159 28.6266 84.1999 34.8188 83.33C38.317 82.8164 41.8235 82.3939 45.3382 82.0626C44.99 83.7277 45.3382 85.8401 45.0895 87.3313C40.9412 87.5012 36.786 87.3766 32.6553 86.9585C32.4851 86.9066 32.3032 86.9066 32.133 86.9585C31.9479 86.8879 31.7477 86.8666 31.5519 86.8966C31.3561 86.9266 31.1714 87.0069 31.016 87.1297C30.8606 87.2524 30.7397 87.4134 30.6652 87.5969C30.5908 87.7803 30.5653 87.98 30.5912 88.1762C31.188 92.6497 31.188 97.4959 31.4367 102.019C31.4367 103.634 30.7155 105.349 31.6108 106.99C32.2076 108.033 33.7495 107.984 34.7442 108.008C38.3867 108.002 42.025 107.761 45.6366 107.288C45.6366 109.773 45.6366 112.059 45.4874 114.47C45.4874 116.135 45.2139 117.776 45.0149 119.441C39.7179 118.223 22.31 125.853 19.1766 127.269C12.9097 129.953 3.75809 134.203 2.68875 141.659C1.71887 148.617 11.4176 151.6 16.3664 153.19C28.1043 157.117 40.5883 155.825 52.8236 155.949C64.1998 156.384 75.465 153.574 85.3019 147.847C92.5137 143.746 95.3985 136.986 88.2861 131.121C84.3569 127.866 78.7863 126.151 74.111 124.237C68.6709 121.86 62.9312 120.238 57.0513 119.416C56.8811 118.437 56.7649 117.45 56.7031 116.458C56.7031 113.178 56.7031 109.922 56.7031 106.517C62.8705 106.517 68.9384 106.816 75.2301 107.362C78.6026 107.958 82.0537 107.958 85.4262 107.362C88.4312 105.985 91.2961 104.32 93.981 102.392C95.9207 101.249 102.138 98.0675 100.273 94.9361C99.0838 93.5833 97.5686 92.5567 95.871 91.9538C92.7375 90.2141 89.2808 86.5857 85.7246 85.865C77.7916 84.2496 68.6151 86.1632 60.5826 86.4863L56.4295 86.71C56.4295 84.8709 56.6782 83.0566 56.6285 81.2424C60.7815 80.9939 64.9594 80.8199 69.0627 80.7454C72.8179 80.7454 81.7208 83.0815 82.5415 77.7631C82.6402 75.1197 82.5904 72.4729 82.3923 69.8351C82.6926 67.0716 82.3259 64.2763 81.3229 61.6835C81.3441 61.564 81.3407 61.4415 81.313 61.3233C81.2852 61.2052 81.2338 61.0939 81.1617 60.9963C81.0895 60.8986 80.9983 60.8167 80.8935 60.7554C80.7887 60.6941 80.6725 60.6547 80.552 60.6397C80.3883 60.6025 80.2183 60.6025 80.0546 60.6397C72.1713 60.4658 64.3626 60.6397 56.529 61.0125C56.7653 59.6475 56.7653 58.2521 56.529 56.887C62.5969 57.732 68.6151 58.5273 74.6581 59.6705C81.2483 60.8634 87.0426 61.4847 93.21 58.6516ZM47.5266 2.68386C49.7151 2.68386 51.9035 2.68386 54.067 2.50989C54.067 3.30517 54.067 4.07559 54.067 4.99513C54.0838 5.18168 54.1639 5.35688 54.2941 5.49161C54.4243 5.62634 54.5967 5.71249 54.7826 5.73572C54.9686 5.75895 55.1569 5.71787 55.3163 5.61931C55.4757 5.52075 55.5965 5.37064 55.6586 5.19395C55.8448 4.27546 55.8448 3.32897 55.6586 2.41048L56.9767 2.23651C56.8274 3.67796 56.4544 5.09454 56.2555 6.53599C56.2157 6.75933 56.26 6.98946 56.3798 7.18215H51.6299C50.1378 7.18215 48.6208 7.18215 47.079 7.18215C47.4962 5.72154 47.6478 4.19798 47.5266 2.68386ZM45.2139 28.257C37.2808 28.5304 28.0795 29.9967 20.3454 28.7044C17.4109 28.2322 13.7552 24.8522 11.5668 23.2368C8.08521 20.5528 8.53284 17.7941 12.1388 15.5823C12.756 15.1677 13.3308 14.6932 13.8547 14.1657C15.2473 15.5823 19.2512 15.1846 20.6935 15.2095C24.489 15.3431 28.2891 15.1769 32.0584 14.7124C33.1029 14.5633 32.705 13.1467 31.8346 13.0473C28.907 12.8985 25.9723 12.9733 23.056 13.271C20.3491 13.635 17.6003 13.5426 14.924 12.9976C15.5209 12.3515 16.1177 11.6804 16.7146 11.1088C20.6438 7.33126 27.8059 8.62359 32.8791 8.62359C49.6156 8.62359 66.551 8.62359 83.2875 9.64254C83.0913 10.398 82.9828 11.1735 82.9642 11.9538H82.815C80.3282 11.9538 77.8413 12.252 75.1555 12.2272C72.4697 12.2023 70.0326 11.9538 67.4712 12.2272C67.2469 12.2272 67.0318 12.3162 66.8733 12.4747C66.7147 12.6331 66.6256 12.8481 66.6256 13.0722C66.6256 13.2963 66.7147 13.5112 66.8733 13.6697C67.0318 13.8281 67.2469 13.9172 67.4712 13.9172C72.221 14.3645 78.4133 15.3089 82.9393 13.3704C82.9393 14.5136 83.1134 15.6568 83.2378 16.7752C81.8083 16.6137 80.3651 16.6137 78.9355 16.7752C78.7393 16.8092 78.5613 16.9114 78.4331 17.0637C78.3048 17.216 78.2345 17.4087 78.2345 17.6077C78.2345 17.8068 78.3048 17.9995 78.4331 18.1518C78.5613 18.3041 78.7393 18.4063 78.9355 18.4403C80.4276 18.5895 81.933 18.5393 83.4119 18.2912C83.4119 18.7634 83.4119 19.2356 83.4119 19.7078C83.4119 20.5776 83.7103 21.9196 83.8098 23.3114C80.0055 22.8562 76.1658 22.7729 72.3454 23.0629C72.1491 23.0969 71.9712 23.199 71.8429 23.3514C71.7147 23.5037 71.6443 23.6963 71.6443 23.8954C71.6443 24.0945 71.7147 24.2872 71.8429 24.4395C71.9712 24.5918 72.1491 24.694 72.3454 24.728C76.1632 24.9641 79.9919 24.9641 83.8098 24.728C83.6854 26.4179 83.0886 27.8345 81.3229 28.0582C76.8897 28.2901 72.4464 28.2486 68.0183 27.9339C60.508 27.6606 52.8734 27.9836 45.2139 28.257ZM55.1613 35.9364C55.1505 35.9855 55.1505 36.0364 55.1613 36.0855L51.7543 35.8619C50.3865 35.8619 49.0187 35.5885 47.6758 35.3897C47.7041 35.2419 47.7041 35.0901 47.6758 34.9423C47.6758 33.3766 47.8499 31.7861 47.6758 30.2204L55.6089 29.9967C55.4597 30.9162 55.3105 31.8358 55.211 32.7553C55.0226 33.8048 54.9807 34.8754 55.0866 35.9364H55.1613ZM57.2005 123.094C57.3262 122.557 57.3764 122.005 57.3497 121.454C66.2924 123.188 74.9479 126.166 83.0637 130.301C88.2115 132.786 94.155 137.757 88.0374 143.647C84.7048 146.261 81.0214 148.394 77.0953 149.984C68.5405 154.184 58.2698 153.886 48.969 153.812C39.6682 153.737 30.0689 154.855 20.9671 152.619C15.2225 151.202 1.56966 147.4 5.67296 139.347C8.43337 133.954 16.0929 131.022 21.2904 128.661C23.7772 127.567 43.672 119.813 44.7662 121.081C44.7662 121.677 44.7662 122.274 44.7662 122.87C44.7662 126.002 47.2531 126.797 49.914 126.896C52.5749 126.996 56.3052 126.424 57.2005 123.094ZM47.2531 107.064H47.7504C48.9441 107.064 50.2373 106.865 51.3066 106.816C51.0252 109.615 50.9172 112.428 50.9833 115.241C51.0168 115.43 51.1162 115.603 51.264 115.727C51.4118 115.85 51.5986 115.918 51.7916 115.918C51.9845 115.918 52.1713 115.85 52.3192 115.727C52.467 115.603 52.5663 115.43 52.5998 115.241C52.9103 112.46 53.0515 109.663 53.0226 106.865H54.7634C54.7634 110.121 54.7634 113.401 54.7634 116.657C54.7634 118.397 54.7634 120.112 54.9623 121.851C55.2607 125.107 51.5553 125.032 49.6902 125.107C44.8408 125.306 46.8303 119.863 47.2033 117.005C47.4401 113.696 47.4567 110.375 47.2531 107.064ZM71.8729 88.0768L80.3282 87.6046C84.8791 87.3313 87.7887 89.3443 91.4444 91.6804C93.6079 93.0722 100.322 95.1598 95.6223 98.7882C93.409 100.503 90.6486 101.771 88.4104 103.262C82.815 106.766 75.4788 105.3 69.2119 104.629C62.7931 104.032 56.3328 104.032 49.914 104.629C47.9743 104.778 33.1278 107.114 33.2024 104.305C33.3709 99.2762 33.1547 94.2413 32.5558 89.2449C45.3382 90.6615 59.1153 88.8473 71.8977 88.0768H71.8729ZM47.8499 87.207H46.88C47.0146 86.3857 47.0729 85.5538 47.0541 84.7218C47.0659 83.7265 47.1826 82.7352 47.4023 81.7643H47.8748C48.024 83.6034 47.6012 85.4673 47.8748 87.207H47.8499ZM49.4912 81.6649C51.3149 81.5158 53.1303 81.3915 54.9374 81.2921C54.6182 83.0636 54.46 84.8603 54.4649 86.6602C54.4538 86.7261 54.4538 86.7933 54.4649 86.8591L49.4912 87.1324C49.7978 85.3235 49.8062 83.4766 49.5161 81.6649H49.4912ZM79.5821 62.454C79.9553 63.9816 80.213 65.5351 80.353 67.1014C76.2497 67.1014 72.1713 66.3558 68.0929 66.654C67.8818 66.654 67.6794 66.7378 67.5302 66.887C67.3809 67.0361 67.2971 67.2384 67.2971 67.4493C67.2971 67.6602 67.3809 67.8625 67.5302 68.0117C67.6794 68.1608 67.8818 68.2446 68.0929 68.2446C72.221 68.2446 76.3492 68.6422 80.5271 68.5428C80.6299 70.1981 80.6299 71.8581 80.5271 73.5133C79.0101 73.7618 77.4434 73.6873 75.9264 73.8861C74.9068 74.0352 75.1555 75.75 76.1503 75.6506C77.5711 75.6421 78.9906 75.5592 80.4028 75.4021C80.1292 77.44 79.5324 78.8814 78.4133 78.9311C71.5993 79.1548 64.7356 78.9311 57.8968 79.2791C50.6352 79.6519 43.3736 80.3477 36.1369 81.2921C29.298 82.1868 22.5587 83.7774 16.2421 80.3477C14.75 79.3288 8.45823 74.3583 10.9202 72.0719C12.8351 70.2576 14.8246 68.518 16.7394 66.7037C18.6543 64.8895 20.2459 63.3735 23.4788 63.6717C26.7117 63.97 30.1187 64.1688 33.4262 64.2931C41.0033 64.2472 48.5731 63.8159 56.1063 63.0007C63.9398 62.3546 71.7485 62.5782 79.5821 62.454ZM47.5266 61.5344C47.7504 59.5711 47.8499 57.5829 47.9494 55.5947H48.1981L55.211 56.5888C55.1999 56.6546 55.1999 56.7218 55.211 56.7876C54.9173 58.1793 54.7344 59.592 54.6639 61.0125C52.9231 61.0125 51.1574 61.2113 49.3918 61.3605L47.5266 61.5344ZM55.1364 54.3769C47.3028 53.4077 39.519 51.8917 31.6108 51.6183C30.3922 51.6183 29.1239 51.4692 27.9054 51.3449C25.1699 51.1213 24.8963 49.6053 25.1947 47.8407C25.953 48.3713 26.793 48.7743 27.6816 49.0337C29.4019 49.8073 31.2458 50.27 33.1278 50.4005C33.313 50.4078 33.4952 50.3522 33.6448 50.2428C33.7944 50.1334 33.9025 49.9766 33.9515 49.7979C34.0005 49.6193 33.9876 49.4293 33.9148 49.2589C33.842 49.0885 33.7136 48.9478 33.5505 48.8597C31.0637 47.4679 27.98 47.7413 25.6424 46.0265L25.8662 45.1815C27.6542 45.8693 29.5464 46.2475 31.4616 46.2999C32.332 46.2999 32.5558 44.9579 31.6854 44.759C29.8451 44.3365 27.9551 44.1377 26.1149 43.7649C26.3316 42.2166 26.4479 40.656 26.463 39.0927C30.3234 40.3435 34.2961 41.2175 38.3253 41.7022C38.512 41.6855 38.6873 41.6054 38.8221 41.4753C38.9569 41.3452 39.0431 41.1729 39.0663 40.9871C39.0896 40.8012 39.0485 40.613 38.9499 40.4537C38.8512 40.2945 38.701 40.1738 38.5242 40.1116C34.5801 38.9153 30.5345 38.0834 26.4381 37.6264C26.4381 36.4086 26.4382 35.1411 26.2641 34.0228C30.6907 35.8867 36.2115 35.7127 41.1852 36.508C48.3268 37.5146 55.5146 38.1616 62.7213 38.4465C70.1818 38.869 78.1149 39.1424 85.5505 40.211C87.6395 40.4844 92.0163 44.6596 94.155 46.0017C95.1 46.5981 103.804 50.2266 100.198 52.6621L98.0843 54.0041C98.0157 53.8953 97.9201 53.8061 97.8068 53.7452C97.6935 53.6842 97.5663 53.6536 97.4377 53.6562C89.1591 53.2564 80.926 52.1926 72.8179 50.4751C71.9475 50.326 71.5744 51.6432 72.4448 51.8171C79.9054 53.3828 87.8384 55.545 95.5228 55.3959C89.8308 58.2546 83.361 59.1795 77.0953 58.0302C69.8088 56.8373 62.5223 55.3213 55.1364 54.3769Z" fill="#333184"/>
<path d="M53.5683 10.488C53.3836 10.4657 53.1964 10.4931 53.0258 10.5674C52.8553 10.6417 52.7078 10.7601 52.5984 10.9105C52.4379 10.9698 52.2935 11.0659 52.1769 11.191C52.0603 11.3162 51.9747 11.467 51.9269 11.6312C51.855 11.9274 51.8969 12.2398 52.0442 12.5067C52.1915 12.7735 52.4337 12.9755 52.7227 13.0726C52.8809 13.1748 53.0589 13.2425 53.245 13.2715C53.4268 13.3196 53.6171 13.3268 53.8021 13.2924C53.987 13.258 54.162 13.183 54.3143 13.0726C54.5386 12.9259 54.7117 12.7132 54.8097 12.4639C54.9078 12.2145 54.9258 11.9409 54.8614 11.6809C54.8002 11.3707 54.642 11.088 54.4096 10.8736C54.1771 10.6592 53.8825 10.5242 53.5683 10.488Z" fill="#333184"/>
<path d="M50.1352 44.3615C49.9898 44.3199 49.8377 44.3076 49.6876 44.3251C49.5374 44.3427 49.3923 44.3898 49.2605 44.4637C49.1287 44.5377 49.0128 44.637 48.9196 44.756C48.8265 44.8749 48.7578 45.0111 48.7177 45.1568C48.3446 45.9023 48.7177 47.0207 49.7373 46.9213C49.9981 46.9021 50.2477 46.8072 50.4553 46.6483C50.6629 46.4894 50.8196 46.2733 50.9061 46.0266C50.9682 45.8157 50.9682 45.5913 50.9061 45.3804C50.8905 45.1541 50.8092 44.9373 50.6723 44.7563C50.5354 44.5754 50.3488 44.4382 50.1352 44.3615Z" fill="#333184"/>
<path d="M51.5312 68.0207C51.3104 68.0814 51.1093 68.1984 50.9476 68.3603C50.7859 68.5223 50.6692 68.7235 50.6089 68.9442C50.5487 69.1649 50.547 69.3975 50.6041 69.6191C50.6611 69.8406 50.775 70.0435 50.9343 70.2077L51.1581 70.4563C51.283 70.578 51.4341 70.6696 51.5998 70.724C51.7655 70.7784 51.9415 70.7942 52.1143 70.7703C52.2871 70.7463 52.4521 70.6831 52.5967 70.5856C52.7413 70.4881 52.8617 70.3589 52.9487 70.2077C53.0981 69.9244 53.175 69.6085 53.1725 69.2882C53.171 69.0885 53.1242 68.8918 53.0355 68.7128C52.9468 68.5339 52.8185 68.3775 52.6604 68.2554C52.5023 68.1333 52.3185 68.0487 52.1228 68.0081C51.9272 67.9674 51.7249 67.9717 51.5312 68.0207Z" fill="#333184"/>
<path d="M50.1135 73.0916C49.8248 73.2508 49.5908 73.4933 49.442 73.7874C48.5716 75.378 50.9839 76.7697 51.9289 75.204C52.0548 75.0069 52.1357 74.7844 52.1658 74.5524C52.1959 74.3205 52.1744 74.0847 52.1029 73.862C52.0498 73.6609 51.9498 73.4752 51.8111 73.3201C51.6723 73.165 51.4988 73.045 51.3048 72.9698C51.1107 72.8947 50.9015 72.8665 50.6945 72.8877C50.4874 72.9088 50.2883 72.9787 50.1135 73.0916Z" fill="#333184"/>
<path d="M51.2569 101.745C51.3252 101.976 51.452 102.184 51.625 102.351C51.7981 102.518 52.0114 102.638 52.2443 102.698C52.4772 102.758 52.7217 102.757 52.9539 102.694C53.1862 102.632 53.3983 102.51 53.5697 102.342C53.7754 102.146 53.9218 101.896 53.9924 101.621C54.0457 101.401 54.0416 101.172 53.9805 100.954C53.9194 100.737 53.8034 100.539 53.6435 100.379C53.4837 100.219 53.2855 100.103 53.0678 100.042C52.8502 99.9811 52.6205 99.977 52.4009 100.03H52.5749C52.3677 100.036 52.1642 100.087 51.9795 100.181C51.7947 100.275 51.6333 100.409 51.507 100.574C51.3806 100.738 51.2927 100.929 51.2494 101.131C51.2061 101.334 51.2087 101.544 51.2569 101.745Z" fill="#333184"/>
<path d="M50.3125 92.8741C50.5713 92.8348 50.8073 92.7041 50.9779 92.5057C51.1485 92.3074 51.2423 92.0545 51.2423 91.793C51.2423 91.5315 51.1485 91.2786 50.9779 91.0802C50.8073 90.8819 50.5713 90.7512 50.3125 90.7119C50.0538 90.7512 49.8178 90.8819 49.6472 91.0802C49.4766 91.2786 49.3828 91.5315 49.3828 91.793C49.3828 92.0545 49.4766 92.3074 49.6472 92.5057C49.8178 92.7041 50.0538 92.8348 50.3125 92.8741Z" fill="#333184"/>
<path d="M20.7663 146.952C16.4916 146.365 12.3755 144.937 8.65537 142.752C8.03366 142.33 7.43681 143.225 7.88444 143.771C10.8687 147.226 16.1905 148.295 20.5425 148.568C20.7448 148.574 20.9423 148.505 21.0969 148.375C21.2516 148.244 21.3525 148.061 21.3802 147.861C21.408 147.66 21.3607 147.457 21.2473 147.289C21.134 147.121 20.9627 147.002 20.7663 146.952Z" fill="#333184"/>
<path d="M46.6307 148.939C45.7852 148.939 45.8101 150.157 46.6307 150.257C58.9831 151.17 71.3356 148.485 82.1926 142.527C82.9884 142.105 82.4413 140.738 81.5709 141.036C70.0071 145.162 59.2142 149.76 46.6307 148.939Z" fill="#333184"/>
<path d="M44.4159 143.423C42.1396 143.597 39.8534 143.597 37.5771 143.423C37.414 143.436 37.2603 143.504 37.1411 143.616C37.022 143.728 36.9444 143.878 36.9213 144.039C36.8982 144.201 36.9308 144.366 37.0138 144.507C37.0968 144.648 37.2253 144.756 37.3781 144.815C39.7102 145.175 42.0839 145.175 44.4159 144.815C45.4355 144.939 45.4604 143.373 44.4159 143.423Z" fill="#333184"/>
<path d="M73.6606 132.761C74.6223 132.38 75.6116 132.073 76.62 131.842C77.5898 131.643 77.1919 130.152 76.2221 130.375C75.2097 130.591 74.2191 130.899 73.2627 131.295C72.3426 131.717 72.7405 133.134 73.6606 132.761Z" fill="#333184"/>
<path d="M23.7021 133.357C22.9018 133.318 22.1276 133.06 21.4639 132.612C20.7178 132.015 19.6982 132.935 20.3945 133.68C20.8328 134.092 21.3559 134.404 21.9272 134.593C22.4986 134.782 23.1043 134.843 23.7021 134.774C23.8673 134.743 24.0165 134.655 24.1238 134.526C24.2312 134.396 24.2899 134.233 24.2899 134.065C24.2899 133.897 24.2312 133.735 24.1238 133.605C24.0165 133.476 23.8673 133.388 23.7021 133.357Z" fill="#333184"/>
<path d="M64.9591 142.055C71.2259 142.577 77.8907 139.694 83.3369 136.836C84.3565 136.315 83.4612 134.923 82.4665 135.345C76.8711 137.831 71.1265 140.316 65.0585 140.49C64.8712 140.509 64.6967 140.594 64.5661 140.73C64.4355 140.865 64.3573 141.043 64.3454 141.231C64.3334 141.418 64.3885 141.604 64.5009 141.755C64.6133 141.906 64.7756 142.013 64.9591 142.055Z" fill="#333184"/>
<path d="M46.0824 128.437C43.8442 128.263 40.1637 127.393 40.7854 124.436C40.8213 124.274 40.7939 124.105 40.7089 123.964C40.624 123.822 40.4878 123.718 40.3286 123.673C40.1693 123.629 39.999 123.647 39.8527 123.724C39.7064 123.801 39.5952 123.931 39.542 124.088C38.1245 128.089 42.75 130.226 46.0824 130.077C46.3001 130.077 46.5088 129.991 46.6627 129.837C46.8166 129.683 46.9031 129.475 46.9031 129.257C46.9031 129.04 46.8166 128.831 46.6627 128.677C46.5088 128.523 46.3001 128.437 46.0824 128.437Z" fill="#333184"/>
<path d="M59.0635 126.425C59.4632 126.183 59.7912 125.839 60.0141 125.428C60.2369 125.018 60.3466 124.556 60.3318 124.089C60.3318 123.269 58.9889 123.02 58.8646 123.89C58.7728 124.4 58.4989 124.859 58.0937 125.182C57.4222 125.804 58.2926 126.872 59.0635 126.425Z" fill="#333184"/>
<path d="M30.1676 67.8464C26.2361 67.4734 22.2759 67.5234 18.355 67.9955C17.609 67.9955 17.7831 69.2878 18.5291 69.263C22.4086 69.263 26.2881 69.6358 30.1676 69.4121C30.3514 69.3792 30.5178 69.2828 30.6377 69.1397C30.7576 68.9966 30.8232 68.8159 30.8232 68.6293C30.8232 68.4426 30.7576 68.2619 30.6377 68.1188C30.5178 67.9757 30.3514 67.8793 30.1676 67.8464Z" fill="#333184"/>
<path d="M64.0652 49.0083C62.0089 48.4384 59.8823 48.1623 57.7486 48.1882C57.5929 48.189 57.4428 48.246 57.3258 48.3485C57.2087 48.4511 57.1326 48.5924 57.1115 48.7465C57.0903 48.9006 57.1255 49.0572 57.2105 49.1874C57.2956 49.3177 57.4248 49.4129 57.5745 49.4557C59.5702 49.9507 61.5976 50.3078 63.6424 50.5243C63.832 50.5484 64.0238 50.5035 64.183 50.3978C64.3422 50.2922 64.458 50.1328 64.5093 49.9489C64.5606 49.7649 64.5439 49.5687 64.4624 49.396C64.3809 49.2233 64.2399 49.0857 64.0652 49.0083Z" fill="#333184"/>
<path d="M68.1171 42.3975C64.6337 41.6312 61.1027 41.0998 57.548 40.8069C56.7273 40.6826 56.3543 41.8756 57.1998 42.0744C60.7298 42.8978 64.3104 43.4872 67.9181 43.8389C68.7636 43.9383 68.888 42.6211 68.1171 42.3975Z" fill="#333184"/>
<path d="M62.174 100.155C68.4408 100.975 74.7574 100.006 81.0491 100.453C82.0688 100.453 82.019 99.0117 81.0491 98.8874C74.7823 98.117 68.4657 99.2105 62.174 98.8874C61.3036 98.788 61.3782 100.031 62.174 100.155Z" fill="#333184"/>
<path d="M87.5135 100.156C89.4284 100.156 91.3433 100.156 93.2581 99.9572C93.4544 99.9232 93.6323 99.821 93.7606 99.6687C93.8889 99.5164 93.9592 99.3237 93.9592 99.1246C93.9592 98.9255 93.8889 98.7329 93.7606 98.5805C93.6323 98.4282 93.4544 98.3261 93.2581 98.292C91.2719 98.2755 89.289 98.4587 87.3394 98.8388C86.5934 98.9631 86.7674 100.206 87.5135 100.156Z" fill="#333184"/>
<path d="M37.3065 99.036C36.461 99.036 36.4858 100.229 37.3065 100.328C38.9579 100.536 40.6288 100.536 42.2802 100.328C43.2003 100.328 43.2252 98.7874 42.2802 98.862C40.6298 99.0552 38.9664 99.1134 37.3065 99.036Z" fill="#333184"/>
<path d="M56.2566 95.011C57.0686 95.2485 57.9316 95.2485 58.7435 95.011C58.9216 94.9616 59.0727 94.8435 59.1636 94.6827C59.2546 94.5219 59.2779 94.3315 59.2284 94.1536C59.179 93.9756 59.0608 93.8246 58.8999 93.7337C58.739 93.6428 58.5485 93.6195 58.3705 93.669C57.8235 93.8057 57.2512 93.8057 56.7043 93.669C56.5384 93.6475 56.3703 93.6844 56.2286 93.7732C56.0869 93.862 55.9805 93.9973 55.9276 94.1558C55.8747 94.3144 55.8786 94.4864 55.9387 94.6424C55.9987 94.7984 56.1111 94.9287 56.2566 95.011Z" fill="#333184"/>
<path d="M64.7834 94.1899C66.8589 94.5254 68.9748 94.5254 71.0503 94.1899C71.9207 94.1899 71.9704 92.7484 71.0503 92.7981C69.0236 92.9845 66.9841 92.9845 64.9575 92.7981C64.2363 92.8478 64.0871 94.0408 64.7834 94.1899Z" fill="#333184"/>
<path d="M44.045 76.098C39.0713 76.3217 34.2717 77.1666 29.4223 77.6388C28.4524 77.6388 28.4276 79.2294 29.4223 79.1797C34.2219 78.9312 39.6681 79.3039 44.3434 77.7382C45.1392 77.44 45.0397 76.0483 44.045 76.098Z" fill="#333184"/>
<path d="M47.9227 24.5537H47.0026C46.8377 24.5537 46.6795 24.6192 46.563 24.7357C46.4464 24.8522 46.3809 25.0102 46.3809 25.175C46.3809 25.3398 46.4464 25.4978 46.563 25.6144C46.6795 25.7309 46.8377 25.7963 47.0026 25.7963H47.9227C48.0876 25.7963 48.2457 25.7309 48.3623 25.6144C48.4789 25.4978 48.5444 25.3398 48.5444 25.175C48.5444 25.0102 48.4789 24.8522 48.3623 24.7357C48.2457 24.6192 48.0876 24.5537 47.9227 24.5537Z" fill="#333184"/>
<path d="M7.66178 151.327C5.43087 150.449 3.34375 149.242 1.46953 147.748C0.648866 147.102 -0.544822 148.195 0.275838 148.941C2.25698 150.779 4.61666 152.162 7.18928 152.992C8.28349 153.34 8.68139 151.724 7.66178 151.327Z" fill="#333184"/>
<path d="M38.276 158.533C36.7817 158.575 35.2862 158.517 33.7997 158.359C33.0039 158.359 32.6308 159.428 33.4515 159.602C35.0405 159.908 36.6582 160.042 38.276 160C38.4474 159.968 38.6023 159.877 38.7138 159.743C38.8253 159.609 38.8864 159.441 38.8864 159.266C38.8864 159.092 38.8253 158.924 38.7138 158.79C38.6023 158.656 38.4474 158.565 38.276 158.533Z" fill="#333184"/>
<path d="M82.0691 152.569C80.0712 153.592 77.9813 154.424 75.8271 155.054C75.1059 155.178 75.28 156.396 75.9763 156.297C78.3165 155.857 80.5629 155.017 82.6162 153.812C83.2876 153.513 82.7654 152.296 82.0691 152.569Z" fill="#333184"/>
<path d="M95.0241 141.236C93.3579 142.752 92.2886 144.963 90.324 146.206C89.5779 146.653 90.324 147.722 91.0203 147.374C93.0686 146.1 94.8232 144.406 96.168 142.404C96.3024 142.248 96.3733 142.048 96.3669 141.842C96.3604 141.637 96.277 141.441 96.1331 141.294C95.9892 141.147 95.7954 141.06 95.5901 141.049C95.3847 141.038 95.1827 141.105 95.0241 141.236Z" fill="#333184"/>
</svg>
