<svg width="386" height="67" viewBox="0 0 386 67" fill="none" xmlns="http://www.w3.org/2000/svg">
<g filter="url(#filter0_d)">
<path d="M2 0H382V63H2V0Z" fill="white"/>
<path d="M2.5 0.5H381.5V62.5H2.5V0.5Z" stroke="#484751"/>
</g>
<path d="M13.476 54C13.356 54 13.296 53.94 13.296 53.82V41.58C13.296 41.46 13.356 41.4 13.476 41.4H14.394C14.514 41.4 14.574 41.46 14.574 41.58V53.82C14.574 53.94 14.514 54 14.394 54H13.476ZM22.0087 54C21.9007 54 21.8347 53.946 21.8107 53.838L19.9027 45.09V45.054C19.9027 44.946 19.9567 44.892 20.0647 44.892H20.9467C21.0667 44.892 21.1327 44.946 21.1447 45.054L22.4407 51.93C22.4527 51.954 22.4647 51.966 22.4767 51.966C22.4887 51.966 22.5007 51.954 22.5127 51.93L23.8447 45.054C23.8687 44.946 23.9347 44.892 24.0427 44.892H24.8527C24.9727 44.892 25.0387 44.946 25.0507 45.054L26.3827 51.93C26.3947 51.954 26.4067 51.966 26.4187 51.966C26.4307 51.966 26.4427 51.954 26.4547 51.93L27.7867 45.054C27.8107 44.946 27.8767 44.892 27.9847 44.892L28.8487 44.91C28.9807 44.91 29.0347 44.976 29.0107 45.108L27.1027 53.838C27.0907 53.946 27.0247 54 26.9047 54H25.9867C25.8787 54 25.8127 53.946 25.7887 53.838L24.4567 47.25C24.4447 47.214 24.4327 47.196 24.4207 47.196C24.4087 47.196 24.3967 47.214 24.3847 47.25L23.1067 53.838C23.0947 53.946 23.0287 54 22.9087 54H22.0087ZM33.094 44.748C33.934 44.748 34.606 45.024 35.11 45.576C35.614 46.116 35.866 46.842 35.866 47.754V53.82C35.866 53.94 35.806 54 35.686 54H34.768C34.648 54 34.588 53.94 34.588 53.82V53.28C34.588 53.256 34.576 53.244 34.552 53.244C34.54 53.232 34.522 53.238 34.498 53.262C34.054 53.85 33.388 54.144 32.5 54.144C31.84 54.144 31.264 53.958 30.772 53.586C30.292 53.202 30.052 52.53 30.052 51.57C30.052 50.55 30.346 49.806 30.934 49.338C31.522 48.858 32.296 48.618 33.256 48.618H34.516C34.564 48.618 34.588 48.594 34.588 48.546V47.844C34.588 47.244 34.45 46.764 34.174 46.404C33.898 46.044 33.526 45.864 33.058 45.864C32.698 45.864 32.386 45.984 32.122 46.224C31.87 46.464 31.72 46.77 31.672 47.142C31.672 47.262 31.612 47.322 31.492 47.322L30.484 47.304C30.424 47.304 30.376 47.286 30.34 47.25C30.316 47.214 30.31 47.172 30.322 47.124C30.382 46.416 30.67 45.846 31.186 45.414C31.702 44.97 32.338 44.748 33.094 44.748ZM32.77 53.028C33.262 53.028 33.688 52.872 34.048 52.56C34.408 52.236 34.588 51.792 34.588 51.228V49.716C34.588 49.668 34.564 49.644 34.516 49.644H33.238C32.662 49.644 32.206 49.8 31.87 50.112C31.534 50.412 31.366 50.862 31.366 51.462C31.366 51.99 31.492 52.386 31.744 52.65C32.008 52.902 32.35 53.028 32.77 53.028ZM41.1056 44.766C41.8376 44.766 42.4016 45.018 42.7976 45.522C43.2056 46.026 43.4096 46.728 43.4096 47.628V53.82C43.4096 53.94 43.3496 54 43.2296 54H42.3116C42.1916 54 42.1316 53.94 42.1316 53.82V47.736C42.1316 47.148 41.9996 46.692 41.7356 46.368C41.4836 46.044 41.1296 45.882 40.6736 45.882C40.1936 45.882 39.8156 46.056 39.5396 46.404C39.2756 46.752 39.1436 47.226 39.1436 47.826V53.82C39.1436 53.94 39.0836 54 38.9636 54H38.0456C37.9256 54 37.8656 53.94 37.8656 53.82V45.072C37.8656 44.952 37.9256 44.892 38.0456 44.892H38.9636C39.0836 44.892 39.1436 44.952 39.1436 45.072V45.648C39.1436 45.672 39.1556 45.69 39.1796 45.702C39.2036 45.714 39.2216 45.702 39.2336 45.666C39.4496 45.366 39.7196 45.144 40.0436 45C40.3796 44.844 40.7336 44.766 41.1056 44.766ZM48.6985 45.666C48.6985 45.786 48.6385 45.846 48.5185 45.846H47.1505C47.1025 45.846 47.0785 45.87 47.0785 45.918V51.426C47.0785 51.978 47.1745 52.362 47.3665 52.578C47.5585 52.782 47.8525 52.878 48.2485 52.866H48.4285C48.5485 52.866 48.6085 52.926 48.6085 53.046V53.82C48.6085 53.94 48.5485 54 48.4285 54H47.9785C47.2705 54 46.7305 53.85 46.3585 53.55C45.9985 53.238 45.8185 52.656 45.8185 51.804V45.918C45.8185 45.87 45.7945 45.846 45.7465 45.846H45.0445C44.9245 45.846 44.8645 45.786 44.8645 45.666V45.072C44.8645 44.952 44.9245 44.892 45.0445 44.892H45.7465C45.7945 44.892 45.8185 44.868 45.8185 44.82V42.804C45.8185 42.684 45.8785 42.624 45.9985 42.624H46.8985C47.0185 42.624 47.0785 42.684 47.0785 42.804V44.82C47.0785 44.868 47.1025 44.892 47.1505 44.892H48.5185C48.6385 44.892 48.6985 44.952 48.6985 45.072V45.666ZM57.1008 45.666C57.1008 45.786 57.0408 45.846 56.9208 45.846H55.5528C55.5048 45.846 55.4808 45.87 55.4808 45.918V51.426C55.4808 51.978 55.5768 52.362 55.7688 52.578C55.9608 52.782 56.2548 52.878 56.6508 52.866H56.8308C56.9508 52.866 57.0108 52.926 57.0108 53.046V53.82C57.0108 53.94 56.9508 54 56.8308 54H56.3808C55.6728 54 55.1328 53.85 54.7608 53.55C54.4008 53.238 54.2208 52.656 54.2208 51.804V45.918C54.2208 45.87 54.1968 45.846 54.1488 45.846H53.4468C53.3268 45.846 53.2668 45.786 53.2668 45.666V45.072C53.2668 44.952 53.3268 44.892 53.4468 44.892H54.1488C54.1968 44.892 54.2208 44.868 54.2208 44.82V42.804C54.2208 42.684 54.2808 42.624 54.4008 42.624H55.3008C55.4208 42.624 55.4808 42.684 55.4808 42.804V44.82C55.4808 44.868 55.5048 44.892 55.5528 44.892H56.9208C57.0408 44.892 57.1008 44.952 57.1008 45.072V45.666ZM61.3237 54.144C60.4597 54.144 59.7697 53.892 59.2537 53.388C58.7497 52.884 58.4977 52.218 58.4977 51.39V47.52C58.4977 46.704 58.7557 46.038 59.2717 45.522C59.7877 45.006 60.4717 44.748 61.3237 44.748C62.1877 44.748 62.8777 45.006 63.3937 45.522C63.9097 46.038 64.1677 46.704 64.1677 47.52V51.39C64.1677 52.218 63.9097 52.884 63.3937 53.388C62.8777 53.892 62.1877 54.144 61.3237 54.144ZM61.3237 53.01C61.7797 53.01 62.1517 52.854 62.4397 52.542C62.7397 52.23 62.8897 51.816 62.8897 51.3V47.592C62.8897 47.076 62.7397 46.662 62.4397 46.35C62.1517 46.026 61.7797 45.864 61.3237 45.864C60.8677 45.864 60.4957 46.026 60.2077 46.35C59.9197 46.662 59.7757 47.076 59.7757 47.592V51.3C59.7757 51.816 59.9197 52.23 60.2077 52.542C60.4957 52.854 60.8677 53.01 61.3237 53.01ZM69.9499 54C69.8299 54 69.7699 53.94 69.7699 53.82V41.58C69.7699 41.46 69.8299 41.4 69.9499 41.4H70.8679C70.9879 41.4 71.0479 41.46 71.0479 41.58V48.816C71.0479 48.84 71.0599 48.858 71.0839 48.87C71.1079 48.882 71.1259 48.876 71.1379 48.852L73.8379 45C73.8859 44.928 73.9579 44.892 74.0539 44.892H74.9899C75.0619 44.892 75.1099 44.916 75.1339 44.964C75.1579 45 75.1459 45.048 75.0979 45.108L73.3159 47.664C73.2799 47.7 73.2739 47.736 73.2979 47.772L75.4219 53.802L75.4399 53.874C75.4399 53.958 75.3859 54 75.2779 54H74.3239C74.2159 54 74.1439 53.952 74.1079 53.856L72.5059 48.852C72.4939 48.78 72.4579 48.774 72.3979 48.834L71.0839 50.706C71.0599 50.73 71.0479 50.76 71.0479 50.796V53.82C71.0479 53.94 70.9879 54 70.8679 54H69.9499ZM80.3048 44.766C81.0368 44.766 81.6008 45.018 81.9968 45.522C82.4048 46.026 82.6088 46.728 82.6088 47.628V53.82C82.6088 53.94 82.5488 54 82.4288 54H81.5108C81.3908 54 81.3308 53.94 81.3308 53.82V47.736C81.3308 47.148 81.1988 46.692 80.9348 46.368C80.6828 46.044 80.3288 45.882 79.8728 45.882C79.3928 45.882 79.0148 46.056 78.7388 46.404C78.4748 46.752 78.3428 47.226 78.3428 47.826V53.82C78.3428 53.94 78.2828 54 78.1628 54H77.2448C77.1248 54 77.0648 53.94 77.0648 53.82V45.072C77.0648 44.952 77.1248 44.892 77.2448 44.892H78.1628C78.2828 44.892 78.3428 44.952 78.3428 45.072V45.648C78.3428 45.672 78.3548 45.69 78.3788 45.702C78.4028 45.714 78.4208 45.702 78.4328 45.666C78.6488 45.366 78.9188 45.144 79.2428 45C79.5788 44.844 79.9328 44.766 80.3048 44.766ZM87.3217 54.144C86.4577 54.144 85.7677 53.892 85.2517 53.388C84.7477 52.884 84.4957 52.218 84.4957 51.39V47.52C84.4957 46.704 84.7537 46.038 85.2697 45.522C85.7857 45.006 86.4697 44.748 87.3217 44.748C88.1857 44.748 88.8757 45.006 89.3917 45.522C89.9077 46.038 90.1657 46.704 90.1657 47.52V51.39C90.1657 52.218 89.9077 52.884 89.3917 53.388C88.8757 53.892 88.1857 54.144 87.3217 54.144ZM87.3217 53.01C87.7777 53.01 88.1497 52.854 88.4377 52.542C88.7377 52.23 88.8877 51.816 88.8877 51.3V47.592C88.8877 47.076 88.7377 46.662 88.4377 46.35C88.1497 46.026 87.7777 45.864 87.3217 45.864C86.8657 45.864 86.4937 46.026 86.2057 46.35C85.9177 46.662 85.7737 47.076 85.7737 47.592V51.3C85.7737 51.816 85.9177 52.23 86.2057 52.542C86.4937 52.854 86.8657 53.01 87.3217 53.01ZM93.3583 54C93.2503 54 93.1843 53.946 93.1603 53.838L91.2523 45.09V45.054C91.2523 44.946 91.3063 44.892 91.4143 44.892H92.2963C92.4163 44.892 92.4823 44.946 92.4943 45.054L93.7903 51.93C93.8023 51.954 93.8143 51.966 93.8263 51.966C93.8383 51.966 93.8503 51.954 93.8623 51.93L95.1943 45.054C95.2183 44.946 95.2843 44.892 95.3923 44.892H96.2023C96.3223 44.892 96.3883 44.946 96.4003 45.054L97.7323 51.93C97.7443 51.954 97.7563 51.966 97.7683 51.966C97.7803 51.966 97.7923 51.954 97.8043 51.93L99.1363 45.054C99.1603 44.946 99.2263 44.892 99.3343 44.892L100.198 44.91C100.33 44.91 100.384 44.976 100.36 45.108L98.4523 53.838C98.4403 53.946 98.3743 54 98.2543 54H97.3363C97.2283 54 97.1623 53.946 97.1383 53.838L95.8063 47.25C95.7943 47.214 95.7823 47.196 95.7703 47.196C95.7583 47.196 95.7463 47.214 95.7343 47.25L94.4563 53.838C94.4443 53.946 94.3783 54 94.2583 54H93.3583ZM106.929 54C106.821 54 106.755 53.946 106.731 53.838L104.823 45.09V45.054C104.823 44.946 104.877 44.892 104.985 44.892H105.867C105.987 44.892 106.053 44.946 106.065 45.054L107.361 51.93C107.373 51.954 107.385 51.966 107.397 51.966C107.409 51.966 107.421 51.954 107.433 51.93L108.765 45.054C108.789 44.946 108.855 44.892 108.963 44.892H109.773C109.893 44.892 109.959 44.946 109.971 45.054L111.303 51.93C111.315 51.954 111.327 51.966 111.339 51.966C111.351 51.966 111.363 51.954 111.375 51.93L112.707 45.054C112.731 44.946 112.797 44.892 112.905 44.892L113.769 44.91C113.901 44.91 113.955 44.976 113.931 45.108L112.023 53.838C112.011 53.946 111.945 54 111.825 54H110.907C110.799 54 110.733 53.946 110.709 53.838L109.377 47.25C109.365 47.214 109.353 47.196 109.341 47.196C109.329 47.196 109.317 47.214 109.305 47.25L108.027 53.838C108.015 53.946 107.949 54 107.829 54H106.929ZM118.695 44.766C119.427 44.766 119.991 45.018 120.387 45.522C120.795 46.026 120.999 46.728 120.999 47.628V53.82C120.999 53.94 120.939 54 120.819 54H119.901C119.781 54 119.721 53.94 119.721 53.82V47.736C119.721 47.148 119.589 46.692 119.325 46.368C119.073 46.044 118.719 45.882 118.263 45.882C117.783 45.882 117.405 46.056 117.129 46.404C116.865 46.752 116.733 47.226 116.733 47.826V53.82C116.733 53.94 116.673 54 116.553 54H115.635C115.515 54 115.455 53.94 115.455 53.82V41.58C115.455 41.46 115.515 41.4 115.635 41.4H116.553C116.673 41.4 116.733 41.46 116.733 41.58V45.648C116.733 45.672 116.745 45.69 116.769 45.702C116.793 45.714 116.811 45.702 116.823 45.666C117.039 45.366 117.309 45.144 117.633 45C117.969 44.844 118.323 44.766 118.695 44.766ZM125.748 44.748C126.588 44.748 127.26 45.024 127.764 45.576C128.268 46.116 128.52 46.842 128.52 47.754V53.82C128.52 53.94 128.46 54 128.34 54H127.422C127.302 54 127.242 53.94 127.242 53.82V53.28C127.242 53.256 127.23 53.244 127.206 53.244C127.194 53.232 127.176 53.238 127.152 53.262C126.708 53.85 126.042 54.144 125.154 54.144C124.494 54.144 123.918 53.958 123.426 53.586C122.946 53.202 122.706 52.53 122.706 51.57C122.706 50.55 123 49.806 123.588 49.338C124.176 48.858 124.95 48.618 125.91 48.618H127.17C127.218 48.618 127.242 48.594 127.242 48.546V47.844C127.242 47.244 127.104 46.764 126.828 46.404C126.552 46.044 126.18 45.864 125.712 45.864C125.352 45.864 125.04 45.984 124.776 46.224C124.524 46.464 124.374 46.77 124.326 47.142C124.326 47.262 124.266 47.322 124.146 47.322L123.138 47.304C123.078 47.304 123.03 47.286 122.994 47.25C122.97 47.214 122.964 47.172 122.976 47.124C123.036 46.416 123.324 45.846 123.84 45.414C124.356 44.97 124.992 44.748 125.748 44.748ZM125.424 53.028C125.916 53.028 126.342 52.872 126.702 52.56C127.062 52.236 127.242 51.792 127.242 51.228V49.716C127.242 49.668 127.218 49.644 127.17 49.644H125.892C125.316 49.644 124.86 49.8 124.524 50.112C124.188 50.412 124.02 50.862 124.02 51.462C124.02 51.99 124.146 52.386 124.398 52.65C124.662 52.902 125.004 53.028 125.424 53.028ZM133.724 45.666C133.724 45.786 133.664 45.846 133.544 45.846H132.176C132.128 45.846 132.104 45.87 132.104 45.918V51.426C132.104 51.978 132.2 52.362 132.392 52.578C132.584 52.782 132.878 52.878 133.274 52.866H133.454C133.574 52.866 133.634 52.926 133.634 53.046V53.82C133.634 53.94 133.574 54 133.454 54H133.004C132.296 54 131.756 53.85 131.384 53.55C131.024 53.238 130.844 52.656 130.844 51.804V45.918C130.844 45.87 130.82 45.846 130.772 45.846H130.07C129.95 45.846 129.89 45.786 129.89 45.666V45.072C129.89 44.952 129.95 44.892 130.07 44.892H130.772C130.82 44.892 130.844 44.868 130.844 44.82V42.804C130.844 42.684 130.904 42.624 131.024 42.624H131.924C132.044 42.624 132.104 42.684 132.104 42.804V44.82C132.104 44.868 132.128 44.892 132.176 44.892H133.544C133.664 44.892 133.724 44.952 133.724 45.072V45.666ZM139.3 54C139.18 54 139.12 53.94 139.12 53.82V41.58C139.12 41.46 139.18 41.4 139.3 41.4H140.218C140.338 41.4 140.398 41.46 140.398 41.58V53.82C140.398 53.94 140.338 54 140.218 54H139.3ZM143.689 41.4C143.821 41.4 143.869 41.466 143.833 41.598L142.771 44.946C142.735 45.042 142.663 45.09 142.555 45.09H141.889C141.757 45.09 141.709 45.024 141.745 44.892L142.555 41.562C142.579 41.454 142.645 41.4 142.753 41.4H143.689ZM151.872 44.766C152.592 44.766 153.15 45.03 153.546 45.558C153.942 46.086 154.14 46.818 154.14 47.754V53.82C154.14 53.94 154.08 54 153.96 54H153.06C152.94 54 152.88 53.94 152.88 53.82V47.862C152.88 47.25 152.748 46.77 152.484 46.422C152.232 46.062 151.896 45.882 151.476 45.882C151.02 45.882 150.66 46.056 150.396 46.404C150.132 46.752 150 47.226 150 47.826V53.82C150 53.94 149.94 54 149.82 54H148.902C148.782 54 148.722 53.94 148.722 53.82V47.862C148.722 47.25 148.59 46.77 148.326 46.422C148.074 46.062 147.744 45.882 147.336 45.882C146.88 45.882 146.514 46.056 146.238 46.404C145.974 46.752 145.842 47.226 145.842 47.826V53.82C145.842 53.94 145.782 54 145.662 54H144.762C144.642 54 144.582 53.94 144.582 53.82V45.072C144.582 44.952 144.642 44.892 144.762 44.892H145.662C145.782 44.892 145.842 44.952 145.842 45.072V45.63C145.842 45.654 145.848 45.672 145.86 45.684C145.884 45.684 145.908 45.672 145.932 45.648C146.16 45.348 146.43 45.126 146.742 44.982C147.054 44.838 147.384 44.766 147.732 44.766C148.188 44.766 148.584 44.88 148.92 45.108C149.256 45.324 149.514 45.636 149.694 46.044C149.706 46.068 149.724 46.08 149.748 46.08C149.772 46.08 149.79 46.062 149.802 46.026C150.018 45.594 150.312 45.276 150.684 45.072C151.056 44.868 151.452 44.766 151.872 44.766ZM165.294 49.752C165.294 49.872 165.234 49.932 165.114 49.932H161.01C160.962 49.932 160.938 49.956 160.938 50.004V51.318C160.938 51.822 161.076 52.236 161.352 52.56C161.64 52.872 162.012 53.028 162.468 53.028C162.852 53.028 163.176 52.914 163.44 52.686C163.716 52.446 163.896 52.14 163.98 51.768C164.016 51.66 164.082 51.606 164.178 51.606L165.078 51.642C165.126 51.642 165.168 51.66 165.204 51.696C165.24 51.732 165.252 51.78 165.24 51.84C165.144 52.548 164.85 53.112 164.358 53.532C163.878 53.94 163.248 54.144 162.468 54.144C161.616 54.144 160.932 53.892 160.416 53.388C159.912 52.884 159.66 52.218 159.66 51.39V47.502C159.66 46.686 159.912 46.026 160.416 45.522C160.932 45.006 161.616 44.748 162.468 44.748C163.332 44.748 164.016 45.006 164.52 45.522C165.036 46.026 165.294 46.686 165.294 47.502V49.752ZM162.468 45.864C162.012 45.864 161.64 46.026 161.352 46.35C161.076 46.662 160.938 47.076 160.938 47.592V48.798C160.938 48.846 160.962 48.87 161.01 48.87H163.962C164.01 48.87 164.034 48.846 164.034 48.798V47.592C164.034 47.076 163.89 46.662 163.602 46.35C163.314 46.026 162.936 45.864 162.468 45.864ZM167.26 54C167.14 54 167.08 53.94 167.08 53.82V41.58C167.08 41.46 167.14 41.4 167.26 41.4H168.178C168.298 41.4 168.358 41.46 168.358 41.58V53.82C168.358 53.94 168.298 54 168.178 54H167.26ZM171.214 43.236C170.914 43.236 170.668 43.14 170.476 42.948C170.296 42.756 170.206 42.516 170.206 42.228C170.206 41.928 170.296 41.688 170.476 41.508C170.668 41.316 170.914 41.22 171.214 41.22C171.502 41.22 171.736 41.316 171.916 41.508C172.108 41.688 172.204 41.928 172.204 42.228C172.204 42.516 172.108 42.756 171.916 42.948C171.736 43.14 171.502 43.236 171.214 43.236ZM170.764 54C170.644 54 170.584 53.94 170.584 53.82V45.072C170.584 44.952 170.644 44.892 170.764 44.892H171.682C171.802 44.892 171.862 44.952 171.862 45.072V53.82C171.862 53.94 171.802 54 171.682 54H170.764ZM178.324 45.072C178.324 44.952 178.384 44.892 178.504 44.892H179.422C179.542 44.892 179.602 44.952 179.602 45.072V53.82C179.602 55.104 179.302 56.076 178.702 56.736C178.114 57.408 177.124 57.714 175.732 57.654C175.612 57.642 175.552 57.576 175.552 57.456V56.682C175.552 56.562 175.612 56.502 175.732 56.502C176.692 56.526 177.364 56.304 177.748 55.836C178.132 55.38 178.324 54.672 178.324 53.712V53.172C178.324 53.148 178.312 53.13 178.288 53.118C178.276 53.106 178.258 53.112 178.234 53.136C178.03 53.436 177.766 53.664 177.442 53.82C177.13 53.976 176.794 54.054 176.434 54.054C175.678 54.054 175.078 53.802 174.634 53.298C174.202 52.794 173.986 52.128 173.986 51.3V47.502C173.986 46.662 174.202 45.996 174.634 45.504C175.078 45 175.678 44.748 176.434 44.748C176.794 44.748 177.13 44.826 177.442 44.982C177.766 45.126 178.03 45.348 178.234 45.648C178.258 45.684 178.276 45.702 178.288 45.702C178.312 45.69 178.324 45.666 178.324 45.63V45.072ZM176.812 52.938C177.256 52.938 177.616 52.782 177.892 52.47C178.18 52.146 178.324 51.732 178.324 51.228V47.592C178.324 47.076 178.18 46.662 177.892 46.35C177.616 46.026 177.256 45.864 176.812 45.864C176.356 45.864 175.984 46.026 175.696 46.35C175.408 46.662 175.264 47.076 175.264 47.592V51.228C175.264 51.732 175.408 52.146 175.696 52.47C175.984 52.782 176.356 52.938 176.812 52.938ZM182.499 43.236C182.199 43.236 181.953 43.14 181.761 42.948C181.581 42.756 181.491 42.516 181.491 42.228C181.491 41.928 181.581 41.688 181.761 41.508C181.953 41.316 182.199 41.22 182.499 41.22C182.787 41.22 183.021 41.316 183.201 41.508C183.393 41.688 183.489 41.928 183.489 42.228C183.489 42.516 183.393 42.756 183.201 42.948C183.021 43.14 182.787 43.236 182.499 43.236ZM182.049 54C181.929 54 181.869 53.94 181.869 53.82V45.072C181.869 44.952 181.929 44.892 182.049 44.892H182.967C183.087 44.892 183.147 44.952 183.147 45.072V53.82C183.147 53.94 183.087 54 182.967 54H182.049ZM188.565 44.748C189.321 44.748 189.927 45 190.383 45.504C190.851 45.996 191.085 46.662 191.085 47.502V51.39C191.085 52.206 190.857 52.872 190.401 53.388C189.945 53.892 189.333 54.144 188.565 54.144C188.241 54.144 187.929 54.084 187.629 53.964C187.329 53.832 187.065 53.64 186.837 53.388C186.813 53.364 186.789 53.358 186.765 53.37C186.753 53.382 186.747 53.4 186.747 53.424V53.82C186.747 53.94 186.687 54 186.567 54H185.649C185.529 54 185.469 53.94 185.469 53.82V41.58C185.469 41.46 185.529 41.4 185.649 41.4H186.567C186.687 41.4 186.747 41.46 186.747 41.58V45.468C186.747 45.492 186.759 45.51 186.783 45.522C186.807 45.534 186.831 45.522 186.855 45.486C187.071 45.246 187.329 45.066 187.629 44.946C187.929 44.814 188.241 44.748 188.565 44.748ZM189.807 47.592C189.807 47.076 189.663 46.662 189.375 46.35C189.087 46.026 188.709 45.864 188.241 45.864C187.797 45.864 187.437 46.026 187.161 46.35C186.885 46.662 186.747 47.076 186.747 47.592V51.318C186.747 51.822 186.885 52.236 187.161 52.56C187.437 52.872 187.797 53.028 188.241 53.028C188.709 53.028 189.087 52.872 189.375 52.56C189.663 52.236 189.807 51.822 189.807 51.318V47.592ZM193.152 54C193.032 54 192.972 53.94 192.972 53.82V41.58C192.972 41.46 193.032 41.4 193.152 41.4H194.07C194.19 41.4 194.25 41.46 194.25 41.58V53.82C194.25 53.94 194.19 54 194.07 54H193.152ZM201.768 49.752C201.768 49.872 201.708 49.932 201.588 49.932H197.484C197.436 49.932 197.412 49.956 197.412 50.004V51.318C197.412 51.822 197.55 52.236 197.826 52.56C198.114 52.872 198.486 53.028 198.942 53.028C199.326 53.028 199.65 52.914 199.914 52.686C200.19 52.446 200.37 52.14 200.454 51.768C200.49 51.66 200.556 51.606 200.652 51.606L201.552 51.642C201.6 51.642 201.642 51.66 201.678 51.696C201.714 51.732 201.726 51.78 201.714 51.84C201.618 52.548 201.324 53.112 200.832 53.532C200.352 53.94 199.722 54.144 198.942 54.144C198.09 54.144 197.406 53.892 196.89 53.388C196.386 52.884 196.134 52.218 196.134 51.39V47.502C196.134 46.686 196.386 46.026 196.89 45.522C197.406 45.006 198.09 44.748 198.942 44.748C199.806 44.748 200.49 45.006 200.994 45.522C201.51 46.026 201.768 46.686 201.768 47.502V49.752ZM198.942 45.864C198.486 45.864 198.114 46.026 197.826 46.35C197.55 46.662 197.412 47.076 197.412 47.592V48.798C197.412 48.846 197.436 48.87 197.484 48.87H200.436C200.484 48.87 200.508 48.846 200.508 48.798V47.592C200.508 47.076 200.364 46.662 200.076 46.35C199.788 46.026 199.41 45.864 198.942 45.864ZM210.164 42.372C209.708 42.372 209.384 42.528 209.192 42.84C209 43.14 208.904 43.614 208.904 44.262V44.82C208.904 44.868 208.928 44.892 208.976 44.892H210.362C210.482 44.892 210.542 44.952 210.542 45.072V45.666C210.542 45.786 210.482 45.846 210.362 45.846H208.976C208.928 45.846 208.904 45.87 208.904 45.918V53.82C208.904 53.94 208.844 54 208.724 54H207.824C207.704 54 207.644 53.94 207.644 53.82V45.918C207.644 45.87 207.62 45.846 207.572 45.846H206.852C206.732 45.846 206.672 45.786 206.672 45.666V45.072C206.672 44.952 206.732 44.892 206.852 44.892H207.572C207.62 44.892 207.644 44.868 207.644 44.82V44.244C207.644 43.2 207.836 42.444 208.22 41.976C208.604 41.508 209.246 41.274 210.146 41.274H210.398C210.518 41.274 210.578 41.334 210.578 41.454L210.56 42.192C210.56 42.312 210.5 42.372 210.38 42.372H210.164ZM214.886 54.144C214.022 54.144 213.332 53.892 212.816 53.388C212.312 52.884 212.06 52.218 212.06 51.39V47.52C212.06 46.704 212.318 46.038 212.834 45.522C213.35 45.006 214.034 44.748 214.886 44.748C215.75 44.748 216.44 45.006 216.956 45.522C217.472 46.038 217.73 46.704 217.73 47.52V51.39C217.73 52.218 217.472 52.884 216.956 53.388C216.44 53.892 215.75 54.144 214.886 54.144ZM214.886 53.01C215.342 53.01 215.714 52.854 216.002 52.542C216.302 52.23 216.452 51.816 216.452 51.3V47.592C216.452 47.076 216.302 46.662 216.002 46.35C215.714 46.026 215.342 45.864 214.886 45.864C214.43 45.864 214.058 46.026 213.77 46.35C213.482 46.662 213.338 47.076 213.338 47.592V51.3C213.338 51.816 213.482 52.23 213.77 52.542C214.058 52.854 214.43 53.01 214.886 53.01ZM222.807 44.802C223.107 44.802 223.365 44.868 223.581 45C223.665 45.048 223.695 45.126 223.671 45.234L223.455 46.17C223.443 46.278 223.371 46.314 223.239 46.278C223.095 46.206 222.915 46.17 222.699 46.17C222.603 46.17 222.531 46.176 222.483 46.188C222.051 46.212 221.697 46.44 221.421 46.872C221.145 47.292 221.007 47.808 221.007 48.42V53.82C221.007 53.94 220.947 54 220.827 54H219.909C219.789 54 219.729 53.94 219.729 53.82V45.072C219.729 44.952 219.789 44.892 219.909 44.892H220.827C220.947 44.892 221.007 44.952 221.007 45.072V46.152C221.007 46.188 221.013 46.206 221.025 46.206C221.049 46.206 221.073 46.194 221.097 46.17C221.445 45.258 222.015 44.802 222.807 44.802ZM225.813 49.896C225.693 49.896 225.633 49.836 225.633 49.716L225.525 41.58C225.525 41.46 225.585 41.4 225.705 41.4H226.623C226.743 41.4 226.803 41.46 226.803 41.58L226.677 49.716C226.677 49.836 226.617 49.896 226.497 49.896H225.813ZM226.155 53.928C225.855 53.928 225.609 53.838 225.417 53.658C225.237 53.466 225.147 53.226 225.147 52.938C225.147 52.638 225.237 52.398 225.417 52.218C225.609 52.026 225.855 51.93 226.155 51.93C226.443 51.93 226.683 52.026 226.875 52.218C227.067 52.398 227.163 52.638 227.163 52.938C227.163 53.226 227.067 53.466 226.875 53.658C226.683 53.838 226.443 53.928 226.155 53.928Z" fill="#484751"/>
<path d="M16.072 11.368C18.2 11.368 19.832 11.824 20.968 12.736C22.12 13.648 22.696 14.992 22.696 16.768C22.696 18.64 22.136 20.056 21.016 21.016C19.912 21.96 18.384 22.432 16.432 22.432H15.16V28H11.32V11.368H16.072ZM16.12 19.648C17.016 19.648 17.68 19.432 18.112 19C18.544 18.552 18.76 17.816 18.76 16.792C18.76 15.88 18.544 15.208 18.112 14.776C17.696 14.328 17.032 14.104 16.12 14.104H15.16V19.648H16.12ZM30.3619 14.896C30.7779 14.896 31.1459 14.96 31.4659 15.088L30.8659 18.64C30.5299 18.544 30.1939 18.496 29.8579 18.496C29.2019 18.496 28.6979 18.752 28.3459 19.264C27.9939 19.76 27.7219 20.504 27.5299 21.496V28H23.8339V15.256H27.0739L27.3619 17.488C27.6499 16.656 28.0499 16.016 28.5619 15.568C29.0739 15.12 29.6739 14.896 30.3619 14.896ZM42.2873 21.376C42.2873 21.888 42.2633 22.336 42.2153 22.72H35.1113C35.2073 23.84 35.4553 24.616 35.8553 25.048C36.2553 25.48 36.8233 25.696 37.5593 25.696C38.0393 25.696 38.4953 25.608 38.9273 25.432C39.3593 25.256 39.8313 24.984 40.3433 24.616L41.8553 26.656C40.5433 27.824 39.0153 28.408 37.2713 28.408C35.3513 28.408 33.8873 27.816 32.8793 26.632C31.8873 25.432 31.3913 23.784 31.3913 21.688C31.3913 19.64 31.8713 17.992 32.8313 16.744C33.7913 15.48 35.1433 14.848 36.8873 14.848C38.5673 14.848 39.8873 15.416 40.8473 16.552C41.8073 17.672 42.2873 19.28 42.2873 21.376ZM38.6633 20.32C38.6633 19.312 38.5273 18.56 38.2553 18.064C37.9993 17.552 37.5593 17.296 36.9353 17.296C36.3753 17.296 35.9433 17.536 35.6393 18.016C35.3353 18.48 35.1513 19.304 35.0873 20.488H38.6633V20.32ZM43.8434 21.928V19.048H50.8754V21.928H43.8434ZM62.6354 26.944C63.6274 26.944 64.4754 27.072 65.1794 27.328C65.8994 27.584 66.5874 27.984 67.2434 28.528L64.9394 31.456C64.1554 30.464 63.3234 29.696 62.4434 29.152C61.5634 28.608 60.4754 28.336 59.1794 28.336C57.1154 28.336 55.4994 27.592 54.3314 26.104C53.1634 24.6 52.5794 22.456 52.5794 19.672C52.5794 16.888 53.1714 14.744 54.3554 13.24C55.5554 11.72 57.2434 10.96 59.4194 10.96C61.5954 10.96 63.2754 11.704 64.4594 13.192C65.6594 14.68 66.2594 16.84 66.2594 19.672C66.2594 21.592 65.9314 23.12 65.2754 24.256C64.6194 25.376 63.7394 26.272 62.6354 26.944ZM56.5874 19.672C56.5874 21.8 56.8194 23.32 57.2834 24.232C57.7474 25.128 58.4594 25.576 59.4194 25.576C60.4114 25.576 61.1314 25.128 61.5794 24.232C62.0274 23.336 62.2514 21.816 62.2514 19.672C62.2514 17.544 62.0194 16.032 61.5554 15.136C61.1074 14.224 60.3954 13.768 59.4194 13.768C58.4434 13.768 57.7234 14.224 57.2594 15.136C56.8114 16.032 56.5874 17.544 56.5874 19.672ZM78.1606 28H74.9446L74.7766 26.464C73.9446 27.76 72.8166 28.408 71.3926 28.408C70.3526 28.408 69.5446 28.064 68.9686 27.376C68.4086 26.688 68.1286 25.76 68.1286 24.592V15.256H71.8246V24.304C71.8246 25.216 72.1446 25.672 72.7846 25.672C73.4086 25.672 73.9686 25.208 74.4646 24.28V15.256H78.1606V28ZM90.0539 24.472C90.0539 24.904 90.1099 25.224 90.2219 25.432C90.3339 25.64 90.5259 25.8 90.7979 25.912L90.0299 28.336C89.2939 28.272 88.6939 28.104 88.2299 27.832C87.7659 27.56 87.4059 27.136 87.1499 26.56C86.3659 27.792 85.2219 28.408 83.7179 28.408C82.5659 28.408 81.6459 28.048 80.9579 27.328C80.2859 26.592 79.9499 25.624 79.9499 24.424C79.9499 23.032 80.4139 21.968 81.3419 21.232C82.2859 20.496 83.6459 20.128 85.4219 20.128H86.4299V19.528C86.4299 18.776 86.2939 18.256 86.0219 17.968C85.7499 17.664 85.2699 17.512 84.5819 17.512C83.7979 17.512 82.7979 17.728 81.5819 18.16L80.7419 15.784C81.4459 15.48 82.1979 15.248 82.9979 15.088C83.7979 14.928 84.5419 14.848 85.2299 14.848C86.8779 14.848 88.0939 15.216 88.8779 15.952C89.6619 16.688 90.0539 17.808 90.0539 19.312V24.472ZM84.8219 25.768C85.1579 25.768 85.4619 25.664 85.7339 25.456C86.0219 25.248 86.2539 24.952 86.4299 24.568V22.192H85.7579C85.0059 22.192 84.4539 22.352 84.1019 22.672C83.7499 22.976 83.5739 23.456 83.5739 24.112C83.5739 24.656 83.6779 25.072 83.8859 25.36C84.1099 25.632 84.4219 25.768 84.8219 25.768ZM95.6052 28.408C94.5492 28.408 93.7252 28.104 93.1332 27.496C92.5412 26.888 92.2452 26.04 92.2452 24.952V10.192L95.9412 9.808V24.784C95.9412 25.248 96.1332 25.48 96.5172 25.48C96.6772 25.48 96.8532 25.448 97.0452 25.384L97.7412 27.952C97.1012 28.256 96.3892 28.408 95.6052 28.408ZM102.624 15.256V28H98.9277V15.256H102.624ZM100.752 8.608C101.376 8.608 101.888 8.808 102.288 9.208C102.704 9.608 102.912 10.104 102.912 10.696C102.912 11.304 102.704 11.808 102.288 12.208C101.888 12.608 101.376 12.808 100.752 12.808C100.128 12.808 99.6157 12.608 99.2157 12.208C98.8157 11.808 98.6157 11.304 98.6157 10.696C98.6157 10.104 98.8157 9.608 99.2157 9.208C99.6157 8.808 100.128 8.608 100.752 8.608ZM110.683 12.52C110.203 12.52 109.859 12.64 109.651 12.88C109.443 13.104 109.339 13.48 109.339 14.008V15.256H111.955L111.547 17.824H109.339V28H105.643V17.824H103.963V15.256H105.643V14.032C105.643 12.768 106.027 11.752 106.795 10.984C107.579 10.2 108.699 9.808 110.155 9.808C111.339 9.808 112.419 10.064 113.395 10.576L112.411 12.952C111.835 12.664 111.259 12.52 110.683 12.52ZM119.709 28.024C118.797 31.336 116.573 33.104 113.037 33.328L112.629 30.76C113.733 30.6 114.557 30.312 115.101 29.896C115.645 29.496 116.077 28.864 116.397 28H115.077L111.669 15.256H115.461L117.429 25.648L119.613 15.256H123.333L119.709 28.024ZM144.755 28H141.083L140.867 21.424C140.803 19.504 140.771 18.088 140.771 17.176C140.771 16.056 140.787 15.232 140.819 14.704L138.635 26.248H135.035L132.731 14.704C132.795 15.92 132.827 17.208 132.827 18.568C132.827 19.176 132.811 20.152 132.779 21.496L132.563 28H128.915L130.019 11.368H134.819L136.907 22.696L138.827 11.368H143.651L144.755 28ZM157.061 21.376C157.061 21.888 157.037 22.336 156.989 22.72H149.885C149.981 23.84 150.229 24.616 150.629 25.048C151.029 25.48 151.597 25.696 152.333 25.696C152.813 25.696 153.269 25.608 153.701 25.432C154.133 25.256 154.605 24.984 155.117 24.616L156.629 26.656C155.317 27.824 153.789 28.408 152.045 28.408C150.125 28.408 148.661 27.816 147.653 26.632C146.661 25.432 146.165 23.784 146.165 21.688C146.165 19.64 146.645 17.992 147.605 16.744C148.565 15.48 149.917 14.848 151.661 14.848C153.341 14.848 154.661 15.416 155.621 16.552C156.581 17.672 157.061 19.28 157.061 21.376ZM153.437 20.32C153.437 19.312 153.301 18.56 153.029 18.064C152.773 17.552 152.333 17.296 151.709 17.296C151.149 17.296 150.717 17.536 150.413 18.016C150.109 18.48 149.925 19.304 149.861 20.488H153.437V20.32ZM162.337 11.368L161.833 21.904H158.929L158.425 11.368H162.337ZM160.393 24.16C160.985 24.16 161.481 24.368 161.881 24.784C162.281 25.2 162.481 25.696 162.481 26.272C162.481 26.864 162.281 27.368 161.881 27.784C161.497 28.2 161.001 28.408 160.393 28.408C159.785 28.408 159.281 28.2 158.881 27.784C158.481 27.368 158.281 26.864 158.281 26.272C158.281 25.696 158.481 25.2 158.881 24.784C159.281 24.368 159.785 24.16 160.393 24.16Z" fill="#484751"/>
<mask id="mask0" mask-type="alpha" maskUnits="userSpaceOnUse" x="258" y="0" width="128" height="63">
<path d="M258 0H386V63H258V0Z" fill="#31C02E"/>
</mask>
<g mask="url(#mask0)">
<path d="M292.489 41.0405C291.12 31.3419 291.352 21.5474 290.572 11.7939C290.531 11.3008 289.819 11.3693 289.819 11.8624C289.874 17.1638 289.997 22.4378 290.175 27.7254C290.326 32.1912 290.107 36.9583 291.489 41.2734C291.681 41.8076 292.571 41.6159 292.489 41.0405Z" fill="#484751"/>
<path d="M291.995 45.3011C292.543 47.2874 292.119 49.3695 292.543 51.3695C292.639 51.8216 293.392 51.9723 293.433 51.4106C293.57 49.3148 293.323 47.0545 292.652 45.0682C292.502 44.6435 291.872 44.8764 291.995 45.3011Z" fill="#484751"/>
<path d="M293.775 62.397C293.884 63.7532 294.062 65.1367 294.254 66.4929C294.322 66.986 295.075 67.0682 295.157 66.534C295.376 65.1367 294.815 63.6984 294.651 62.3148C294.583 61.7669 293.734 61.8217 293.775 62.397Z" fill="#484751"/>
<path d="M303.411 22.5198C301.084 25.7664 300.55 30.876 301.536 34.6842C303.206 41.1636 309.133 44.7116 315.43 45.4513C315.471 45.5061 315.512 45.5609 315.553 45.6157C315.841 45.9581 316.32 45.8349 316.511 45.5472C317.634 45.6157 318.743 45.6157 319.851 45.5061C327.065 44.8486 330.145 36.5198 330.487 30.3417C330.706 26.5061 329.639 23.4102 326.942 20.6431C323.862 17.4924 320.454 17.0129 316.635 16.6431C315.964 16.3554 315.266 16.1088 314.54 15.9171C314.431 15.8897 314.335 15.9034 314.253 15.9171C314.171 15.8897 314.061 15.876 313.952 15.9171C309.722 17.2732 306.067 18.7938 303.411 22.5198ZM303.288 25.2321C304.233 25.3143 305.177 25.328 306.122 25.2869C305.478 27.465 305.177 29.7664 305.122 31.9444C304.123 31.9581 303.138 31.876 302.179 31.6568C302.111 29.465 302.522 27.2047 303.288 25.2321ZM304.739 38.739C304.055 37.8897 303.466 36.9718 303.055 35.9718C302.617 34.9444 302.357 33.8349 302.234 32.6842C303.028 33.0677 304.027 33.191 305.109 33.1499C305.177 35.1773 305.643 37.054 306.464 38.6842C305.889 38.6979 305.314 38.7253 304.739 38.739ZM320.426 30.191C320.303 28.1636 319.988 26.1636 319.454 24.2869C320.645 24.2184 321.836 24.1636 323.027 24.1088C323.889 25.9034 324.369 27.9034 324.492 30.054C323.15 30.1088 321.795 30.1499 320.426 30.191ZM324.533 31.2595C324.533 31.876 324.505 32.4924 324.437 33.1225C324.3 34.4376 323.972 35.8623 323.438 37.2458C322.247 37.5198 321.056 37.739 319.865 37.9033C320.303 35.8623 320.508 33.6979 320.481 31.5335C321.836 31.4787 323.191 31.3828 324.533 31.2595ZM322.685 38.9034C321.727 40.6568 320.399 42.1636 318.66 42.9444C318.524 42.9992 318.332 43.0677 318.113 43.1225C318.66 42.0129 319.112 40.8075 319.468 39.5472C320.549 39.3828 321.631 39.1636 322.685 38.9034ZM318.674 38.0677C316.785 38.3006 314.896 38.4239 312.98 38.5061C312.295 36.4924 311.843 34.3554 311.652 32.1773C314.212 31.8349 316.771 31.7116 319.331 31.602C319.359 33.7938 319.126 35.9992 318.674 38.0677ZM312.637 30.8349C312.282 30.9034 311.926 30.9581 311.57 31.0403C311.474 28.9307 311.597 26.8075 311.98 24.7801C312.61 24.7116 313.253 24.6568 313.883 24.6157C315.361 24.5061 316.84 24.4239 318.332 24.3417C318.866 26.2047 319.181 28.2047 319.29 30.2321C317.059 30.3143 314.841 30.4513 312.637 30.8349ZM311.775 38.5472C310.447 38.5883 309.119 38.6157 307.778 38.6568C306.847 37.0129 306.327 35.0951 306.176 33.0814C307.792 32.9034 309.421 32.5061 310.529 32.328C310.707 34.4513 311.132 36.5609 311.775 38.5472ZM310.461 31.2458C309.037 31.5198 307.573 31.7938 306.122 31.8897C306.108 29.6568 306.532 27.3554 307.326 25.2184C308.503 25.1362 309.694 25.0129 310.872 24.8897C310.502 26.9581 310.365 29.1088 310.461 31.2458ZM305.588 39.6705C306.108 39.739 306.614 39.7938 307.148 39.8486C307.901 40.9855 308.846 41.9581 309.968 42.739C308.326 41.9718 306.82 40.9307 305.588 39.6705ZM308.681 39.9855C309.886 40.0677 311.118 40.1088 312.35 40.1088C312.802 41.2458 313.336 42.3417 313.952 43.3554C311.666 42.7527 309.927 41.5609 308.681 39.9855ZM316.457 43.9581C316.429 43.9855 316.415 44.0266 316.388 44.054C316.32 44.1636 316.251 44.2869 316.183 44.3965C316.142 44.3965 316.101 44.3965 316.06 44.3965C316.183 44.1088 316.087 43.739 315.69 43.6842C315.622 43.6705 315.567 43.6568 315.512 43.6568C314.759 42.5609 314.129 41.3554 313.582 40.0814C315.142 40.0403 316.703 39.9307 318.236 39.7253C317.784 41.2732 317.196 42.6979 316.457 43.9581ZM319.728 44.2458C318.962 44.3828 318.181 44.4376 317.387 44.4376C318.017 44.1773 319.454 43.8623 319.769 43.6705C321.056 42.8897 322.192 41.7253 323 40.4513C323.397 39.8212 323.725 39.191 324.026 38.5335C325.34 38.1499 326.614 37.6705 327.818 37.1225C326.326 40.6431 323.67 43.5609 319.728 44.2458ZM327.818 23.6431C328.831 25.3554 329.296 27.3417 329.31 29.5472C329.324 31.5746 329.009 33.7527 328.325 35.7938C328.256 35.7938 328.188 35.8075 328.106 35.8349C326.956 36.2732 325.82 36.6294 324.67 36.9307C325.299 35.0814 325.614 33.1636 325.724 31.1499C326.367 31.0814 327.024 30.9855 327.668 30.8897C328.352 30.7801 328.284 29.7253 327.572 29.8075C326.969 29.876 326.353 29.9307 325.751 29.9718C325.751 27.8349 325.272 25.8349 324.423 24.0403C325.423 23.9992 326.408 23.9444 327.394 23.9034C327.626 23.876 327.75 23.7801 327.818 23.6431ZM324.711 20.328C325.779 21.0677 326.627 21.9171 327.312 22.8486C326.189 22.9034 325.067 22.9718 323.944 23.0403C322.835 21.0951 321.275 19.4376 319.4 18.1636C321.193 18.4924 322.918 19.0814 324.711 20.328ZM322.521 23.1362C321.412 23.2047 320.303 23.2732 319.194 23.328C318.524 21.2732 317.606 19.3828 316.429 17.8075C319.14 18.9718 321.165 20.8349 322.521 23.1362ZM314.677 17.6157C314.732 17.6157 314.8 17.6294 314.855 17.6294C316.251 19.191 317.319 21.1773 318.058 23.3828C317.456 23.4239 316.84 23.465 316.238 23.4924C314.882 23.5609 313.527 23.6979 312.172 23.8349C312.678 21.5883 313.513 19.465 314.677 17.6157ZM313.226 17.4513C313.377 17.4787 313.513 17.4924 313.65 17.5061C312.446 19.4239 311.597 21.6157 311.063 23.9581C309.941 24.0677 308.832 24.1773 307.71 24.2458C308.955 21.4513 310.817 18.9992 313.226 17.4513ZM310.269 18.3554C308.476 19.9034 307.244 22.0129 306.436 24.3143C305.519 24.3554 304.602 24.3417 303.671 24.3006C303.726 24.191 303.767 24.0814 303.822 23.9855C305.136 21.2321 307.6 19.5883 310.269 18.3554Z" fill="#484751"/>
<path d="M298.51 54.2874C297.292 53.8628 295.841 54.5751 295.143 55.6162C295.033 55.6847 294.938 55.7943 294.938 55.945C294.938 55.945 294.938 55.945 294.938 55.9587C294.226 57.4381 294.992 59.3559 295.362 60.808C295.499 61.3559 296.361 61.1367 296.32 60.6025C296.252 59.7669 296.183 58.945 296.087 58.1367C296.142 58.1778 296.211 58.2189 296.293 58.2463C298.401 58.808 301.084 55.1778 298.51 54.2874ZM298.319 56.1641C297.963 57.0135 297.1 57.0682 296.334 57.2189C296.17 57.2463 296.046 57.3422 295.964 57.4655C295.923 57.2052 295.868 56.945 295.814 56.6984C296.005 55.9998 296.512 55.4655 297.621 55.2874C298.305 55.1778 298.565 55.5751 298.319 56.1641Z" fill="#484751"/>
<path d="M302.139 53.5202C300.565 55.1366 300.524 57.7531 300.004 59.8353C299.84 60.5065 300.88 60.6983 301.058 60.0407C301.208 59.4654 301.318 58.8216 301.441 58.164C302.153 58.2736 303.015 58.4243 303.768 58.2599C303.878 58.6709 303.974 59.0818 304.056 59.4928C304.193 60.1914 305.315 60.1366 305.192 59.3969C304.863 57.3421 304.097 55.3558 303.029 53.575C302.837 53.2325 302.372 53.2736 302.139 53.5202ZM302.892 57.1366C302.481 57.164 302.057 57.1366 301.646 57.1092C301.824 56.3147 302.071 55.5476 302.481 54.9037C302.837 55.6161 303.152 56.3421 303.412 57.0818C303.234 57.1092 303.07 57.1366 302.892 57.1366Z" fill="#484751"/>
<path d="M309.709 57.0818C309.161 56.4791 308.491 55.986 307.888 55.438C307.779 55.3421 307.669 55.2325 307.574 55.1229C307.396 54.9175 307.491 55.0408 307.601 54.8764C308.039 54.2736 309.024 54.2599 309.668 54.4517C310.092 54.5887 310.243 53.9449 309.901 53.7394C308.983 53.2188 307.751 53.2462 306.971 54.0408C306.3 54.7257 306.3 55.3147 306.93 55.986C307.478 56.575 308.135 57.0545 308.71 57.6161C308.819 57.7257 309.216 58.0682 309.202 58.2462C309.202 58.301 308.066 58.438 307.875 58.4654C307.19 58.575 307.286 59.4928 307.957 59.5202C308.655 59.5476 309.818 59.438 310.188 58.7257C310.503 58.1229 310.12 57.5202 309.709 57.0818Z" fill="#484751"/>
<path d="M313.568 55.287C313.308 55.109 313.035 54.9446 312.788 54.7391C312.829 54.7665 314.486 53.3692 314.773 53.1774C315.129 52.9446 314.828 52.3829 314.431 52.5336C313.377 52.9446 312.008 53.561 311.775 54.8076C311.638 55.5199 312.337 55.835 312.816 56.1637C313.568 56.6706 314.321 57.2048 314.978 57.835C315.238 58.0953 315.238 58.287 315.416 58.2048C314.8 58.5062 313.924 58.287 313.267 58.3144C312.624 58.3418 312.61 59.287 313.213 59.424C314.157 59.6295 315.594 59.7254 316.334 58.9857C316.95 58.3829 316.279 57.5062 315.854 57.0542C315.197 56.3555 314.349 55.8213 313.568 55.287Z" fill="#484751"/>
<path d="M319.168 52.698C318.88 52.7117 318.607 52.7939 318.374 52.9446C318.182 52.7665 317.799 52.7802 317.703 53.0542C317.566 53.4377 317.484 53.8213 317.429 54.2186C316.841 55.7391 316.978 57.972 317.717 58.8076C318.073 59.2186 318.853 59.0542 318.785 58.424C318.73 57.8624 318.675 57.3008 318.634 56.7391C318.675 56.7665 318.702 56.7939 318.743 56.8213C321.714 58.0816 322.426 52.6021 319.168 52.698ZM320.071 55.4377C319.88 55.8761 319.318 55.7939 318.935 55.8213C318.785 55.835 318.661 55.9172 318.579 56.0131C318.552 55.6569 318.538 55.2871 318.524 54.9309C318.579 54.7665 318.634 54.6021 318.689 54.4651C318.99 53.7939 319.592 53.7254 320.03 54.3556C320.249 54.6706 320.222 55.109 320.071 55.4377Z" fill="#484751"/>
<path d="M326.573 52.4656C326.587 52.2053 326.423 51.945 326.08 51.9313C323.849 51.9039 322.713 54.7807 323.082 56.6574C323.37 58.1231 324.794 59.5341 326.286 58.6848C327.504 57.9861 327.983 56.1642 328.024 54.8766C328.051 54.0546 327.449 52.7259 326.573 52.4656ZM325.943 57.4656C325.245 58.2738 324.547 57.3149 324.287 56.6163C323.904 55.5752 324.41 53.8902 325.396 53.1916C325.437 53.3286 325.505 53.4519 325.642 53.5204C325.957 53.6985 326.368 53.5889 326.614 53.8902C326.847 54.1779 326.861 54.6163 326.861 54.9724C326.861 55.8492 326.505 56.8081 325.943 57.4656Z" fill="#484751"/>
<path d="M330.529 55.3692C330.05 55.7254 330.351 56.3966 330.898 56.3966C331.898 56.4103 332.486 57.2185 333.267 57.698C333.732 57.9857 334.307 57.287 333.965 56.8761C333.417 56.2322 332.705 55.7117 331.898 55.4514C332.171 54.9583 332.295 54.3966 332.24 53.7939C332.171 52.8898 331.432 52.2596 330.543 52.4514C330.187 52.5336 329.899 52.6706 329.666 52.8624C329.557 52.6569 329.434 52.4514 329.283 52.2733C329.009 51.9309 328.462 52.2048 328.599 52.6295C328.763 53.1364 328.859 53.6569 328.927 54.1638C328.667 55.5062 329.146 57.2733 329.393 58.3281C329.557 58.9994 330.556 58.6158 330.392 57.9583C330.118 56.8076 330.241 55.4377 330.036 54.2048C330.269 53.6843 330.994 53.0679 331.131 53.8898C331.254 54.4514 330.967 55.0405 330.529 55.3692Z" fill="#484751"/>
<path d="M334.689 52.3149C335.086 52.3012 335.524 52.3149 335.948 52.3012C335.634 53.8491 335.675 55.7943 336.523 57.0683C336.866 57.5751 337.673 57.1368 337.468 56.5751C336.961 55.1642 336.674 53.7532 336.893 52.2738C337.276 52.2464 337.646 52.2053 338.002 52.1094C338.508 51.9724 338.44 51.1231 337.92 51.0683C336.866 50.9724 335.675 51.2738 334.621 51.4108C334.032 51.493 334.1 52.3286 334.689 52.3149Z" fill="#484751"/>
<path d="M337.565 14.4104C337.305 12.657 336.867 10.9447 336.511 9.20496C336.416 8.73921 335.676 8.794 335.772 9.25975C336.101 11.0406 336.306 12.8351 336.689 14.6022C336.799 15.1091 337.634 14.9036 337.565 14.4104Z" fill="#484751"/>
<path d="M339.126 24.8625C339.03 23.1775 338.66 21.5474 338.277 19.9036C338.181 19.4926 337.497 19.657 337.565 20.068C337.825 21.6844 338.072 23.3145 338.277 24.9447C338.346 25.4789 339.153 25.4104 339.126 24.8625Z" fill="#484751"/>
<path d="M298.826 10.287C299.251 10.2459 299.675 10.2185 300.099 10.1911C300.551 10.15 300.496 9.45137 300.045 9.49247C299.62 9.53356 299.196 9.56096 298.772 9.60206C298.32 9.62945 298.375 10.3281 298.826 10.287Z" fill="#484751"/>
<path d="M360.987 -2.2607C359.618 -3.90454 356.552 -3.83605 354.69 -3.95934C350.378 -4.24701 346.176 -4.13742 341.905 -4.93194C335.129 -6.17851 328.421 -7.16481 321.55 -7.79495C317.607 -8.15112 311.899 -8.50728 309.435 -4.68536C309.408 -4.64427 309.381 -4.58947 309.381 -4.54838C309.025 -4.19221 308.751 -3.74016 308.546 -3.13742C307.806 -0.91824 307.45 1.56121 307.163 3.97217C307.587 3.91738 308.012 3.87628 308.45 3.87628C308.765 1.80779 309.162 -0.233308 309.572 -2.2881C310.243 -5.64427 315.787 -4.90454 318.251 -4.71276C331.351 -3.69906 344.328 -1.19221 357.428 -0.192212C357.51 -0.082623 357.619 -0.000431061 357.784 0.0406647C359.508 0.451624 358.974 6.88998 358.947 7.95847C358.824 12.89 358.249 17.8078 357.647 22.6982C356.36 33.0955 354.594 43.4379 352.856 53.7804C352.596 55.3283 352.336 56.8763 352.089 58.4242C352.007 58.9448 351.925 59.4653 351.856 59.9859C351.706 61.0544 348.407 60.3283 347.161 60.2324C345.751 60.1229 344.341 59.9722 342.931 59.7804C342.904 59.3557 342.89 58.9311 342.877 58.5201C345.163 59.205 348.065 60.3694 350.118 58.7804C350.57 58.4242 350.036 57.8078 349.57 58.0955C347.586 59.3009 344.916 57.9585 342.822 57.5475C342.712 54.753 342.63 51.9448 342.548 49.1366C342.589 49.1503 342.63 49.1777 342.671 49.1777C343.657 49.3831 344.068 50.2872 344.738 50.9311C345.135 51.3146 345.847 50.7393 345.573 50.2598C345.163 49.5201 344.56 48.8626 343.835 48.4516C344.204 48.027 344.423 47.4927 344.506 46.9037C344.615 46.0133 344.027 45.2324 343.109 45.2461C342.863 45.2461 342.644 45.3009 342.452 45.3694C342.343 41.3283 342.233 37.2872 342.014 33.2598C344.697 30.6571 346.518 26.8626 347.38 23.5475C348.352 19.8215 347.914 16.5749 345.806 13.342C344.369 11.1366 342.617 9.83519 340.659 8.91738C340.618 8.17765 340.591 7.45162 340.536 6.7256C340.426 5.08176 340.084 3.43793 338.743 2.36943C337.073 1.02697 334.075 1.6982 332.241 1.94477C327.956 2.50642 323.863 3.43792 319.51 3.50642C316.663 3.54751 313.857 3.6434 311.037 3.78039C311.352 1.6982 311.653 -0.397691 311.899 -2.49358C311.954 -2.98673 311.242 -3.05523 311.146 -2.57577C310.736 -0.438787 310.352 1.6982 309.969 3.83519C306.314 4.02697 302.659 4.31464 298.977 4.6982C295.049 5.12286 289.368 5.90368 287.711 10.1229C287.684 10.1777 287.684 10.2324 287.684 10.2735C287.41 10.6982 287.232 11.1913 287.15 11.8215C286.726 15.1092 287.191 18.7393 287.438 22.0133C288.108 31.0407 289.587 39.9859 290.49 48.9859C291.052 54.6708 290.244 60.9585 291.613 66.5064C292.79 71.2598 296.335 72.2188 300.866 71.9722C306.848 71.6297 312.584 69.4105 318.538 68.7941C323.056 68.3146 327.614 68.205 332.145 67.89C335.827 67.6297 339.345 67.6023 342.89 66.4516C343.15 66.3694 343.315 66.0818 343.301 65.8215C343.178 64.1777 343.068 62.5338 342.986 60.8763C346.162 61.3146 349.228 61.7804 352.472 61.3968C352.746 61.3694 352.965 61.1229 352.993 60.8489C354.402 49.2598 356.921 37.7804 358.495 26.1913C359.002 22.4379 359.481 18.6708 359.823 14.89C359.919 14.8215 359.987 14.7119 360.015 14.5612C360.535 10.479 361.384 6.45162 361.904 2.36943C362.109 0.725596 362.096 -0.945637 360.987 -2.2607ZM341.918 31.5612C341.905 31.2872 341.891 31.0133 341.877 30.7393C341.864 30.4927 341.85 30.2324 341.823 29.9859C342.37 29.89 342.918 29.7941 343.452 29.6708C343 30.342 342.48 30.9722 341.918 31.5612ZM346.093 16.4516C346.751 18.3283 346.819 20.3694 346.408 22.5338C346.025 24.5201 345.286 26.6023 344.218 28.4653C344.15 28.4516 344.081 28.4516 343.999 28.4653C343.246 28.5886 342.507 28.6708 341.768 28.7393C341.713 27.9448 341.658 27.1503 341.604 26.3557C341.987 25.3968 342.329 24.4242 342.589 23.3968C343.246 23.4516 343.89 23.4927 344.547 23.5201C345.245 23.5475 345.382 22.5064 344.67 22.4379C344.068 22.3831 343.452 22.3146 342.849 22.2324C343.26 20.1366 343.192 18.0818 342.712 16.1503C343.698 16.3009 344.67 16.4516 345.655 16.6023C345.847 16.6434 345.998 16.5749 346.093 16.4516ZM341.22 22.0133C341.138 21.1366 341.056 20.2735 340.96 19.3968C341.042 19.3146 341.083 19.1913 341.083 19.0407C341.015 17.9859 340.96 16.9448 340.919 15.89C341.056 15.9037 341.193 15.9311 341.316 15.9448C341.809 17.8626 341.891 19.9311 341.59 22.0544C341.467 22.0544 341.344 22.027 341.22 22.0133ZM341.371 23.2872C341.357 23.3283 341.344 23.3694 341.344 23.4105C341.344 23.3694 341.344 23.3283 341.33 23.2872C341.344 23.2735 341.357 23.2735 341.371 23.2872ZM340.878 14.89C340.878 14.7804 340.878 14.6845 340.864 14.5749C340.906 14.6845 340.96 14.7941 340.988 14.9037C340.96 14.9037 340.919 14.9037 340.878 14.89ZM343.698 12.5886C344.588 13.5338 345.272 14.5338 345.751 15.5749C344.642 15.4105 343.52 15.2598 342.411 15.0955C342.014 13.9174 341.467 12.8078 340.782 11.7667C340.769 11.2735 340.755 10.7804 340.728 10.2735C341.754 10.8626 342.74 11.5886 343.698 12.5886ZM301.414 5.56121C306.67 5.13655 311.858 4.58861 317.142 4.62971C320.331 4.6571 323.453 4.56121 326.601 4.06806C329.914 3.54751 333.377 2.49272 336.758 2.83519C339.482 3.10916 339.386 6.38313 339.496 8.41053C339.496 8.41053 339.496 8.42423 339.496 8.43793C339.455 8.42423 339.413 8.39683 339.359 8.38313C339.427 8.61601 339.468 8.86258 339.523 9.09546C339.537 9.50642 339.564 9.93108 339.578 10.342C339.235 8.45162 338.661 5.52012 337.155 4.42423C337.1 4.27354 336.977 4.15025 336.758 4.15025C336.73 4.15025 336.703 4.15025 336.676 4.15025C336.443 4.05436 336.21 3.98587 335.937 3.98587C335.731 3.95847 335.581 4.05436 335.498 4.19135C327.039 4.52012 318.579 5.27354 310.147 6.04066C306.26 6.38313 302.386 6.7393 298.484 6.97217C295.665 7.13655 292.598 7.45162 289.97 8.62971C292.982 6.12286 297.704 5.86258 301.414 5.56121ZM337.456 66.3557C328.64 67.4516 319.647 66.6434 310.941 68.7667C307.574 69.5886 304.22 70.4242 300.77 70.7393C298.991 70.9037 297.17 70.8215 295.487 70.1777C293.296 69.3283 292.817 66.7393 292.516 64.7119C292.037 61.5338 292.27 58.2598 292.201 55.0681C292.092 50.0818 291.298 45.027 290.737 40.0681C289.997 33.6297 289.039 27.205 288.574 20.7256C288.369 17.9859 288.341 15.2187 288.341 12.4653C288.341 9.04066 293.926 8.6708 296.376 8.38313C309.408 6.79409 322.631 6.6982 335.663 5.09546C335.772 5.17765 335.895 5.24614 336.06 5.24614C337.826 5.31464 338.565 11.7256 338.756 12.7804C339.605 17.6297 340.016 22.5749 340.372 27.479C341.152 37.9311 341.453 48.4242 341.782 58.89C341.836 60.4653 341.877 62.027 341.932 63.6023C341.946 64.1229 341.973 64.6571 342.001 65.1777C342.069 66.2598 338.688 66.205 337.456 66.3557ZM342.48 46.6571C342.863 46.2872 343.452 46.0681 343.424 46.7804C343.397 47.342 343 47.8626 342.521 48.0955C342.507 47.616 342.493 47.1366 342.48 46.6571ZM360.549 3.80779C360.453 4.43792 360.357 5.08176 360.261 5.7119C360.302 3.79409 360.302 0.807788 359.043 -0.562075C359.029 -0.726459 358.92 -0.877144 358.701 -0.904541C358.673 -0.904541 358.646 -0.918239 358.619 -0.918239C358.413 -1.05523 358.194 -1.16481 357.934 -1.23331C357.715 -1.2881 357.551 -1.21961 357.441 -1.11002C349.091 -2.45249 340.632 -3.37029 332.227 -4.2881C328.339 -4.71276 324.479 -5.12372 320.605 -5.65797C317.813 -6.04153 314.733 -6.3429 311.94 -5.69906C315.376 -7.56208 320.071 -6.89084 323.767 -6.46618C329.01 -5.84975 334.198 -5.37029 339.372 -4.2881C342.493 -3.63057 345.573 -3.11002 348.763 -2.97303C352.116 -2.83605 355.717 -3.17851 358.961 -2.17851C361.575 -1.39769 360.85 1.79409 360.549 3.80779Z" fill="#484751"/>
<path d="M350.473 46.3689C350.993 46.3415 351.103 45.4784 350.596 45.3278C349.583 45.0264 348.365 45.0812 347.297 45.0127C346.709 44.9716 346.613 45.8072 347.188 45.9168C347.585 45.9853 348.009 46.0675 348.433 46.1634C347.817 47.6291 347.475 49.5332 348.05 50.9442C348.283 51.5195 349.159 51.2456 349.077 50.6428C348.858 49.1634 348.858 47.7113 349.364 46.3141C349.734 46.3552 350.117 46.3963 350.473 46.3689Z" fill="#484751"/>
<path d="M357.455 9.31453C357.55 7.53371 357.455 5.78029 357.441 3.99947C357.441 3.53371 356.715 3.42412 356.702 3.91727C356.674 5.72549 356.524 7.52001 356.551 9.32823C356.565 9.84878 357.427 9.82138 357.455 9.31453Z" fill="#484751"/>
<path d="M356.346 14.8625C356.291 16.5064 356.209 18.1365 356.085 19.7803C356.044 20.3283 356.852 20.4242 356.934 19.8762C357.181 18.205 357.126 16.5337 357.085 14.8488C357.071 14.4379 356.373 14.4516 356.346 14.8625Z" fill="#484751"/>
<path d="M300.387 29.2186C301.085 23.2323 303.7 18.4651 309.504 16.1501C309.928 15.9857 309.777 15.3419 309.312 15.4514C303.22 16.972 299.661 23.1638 299.579 29.2186C299.566 29.7528 300.318 29.7254 300.387 29.2186Z" fill="#484751"/>
<path d="M299.141 36.3829C299.825 38.3418 300.756 40.2596 302.057 41.8897C302.371 42.287 303.001 41.7801 302.755 41.3555C301.769 39.6431 300.742 37.9993 300.031 36.15C299.812 35.602 298.949 35.8212 299.141 36.3829Z" fill="#484751"/>
<path d="M326.669 44.4788C324 45.7665 321.399 46.8761 318.456 47.3145C318.018 47.383 318.127 48.0953 318.565 48.0816C321.659 47.9035 324.561 47.0131 327.175 45.3282C327.695 44.972 327.23 44.2049 326.669 44.4788Z" fill="#484751"/>
<path d="M330.995 39.8213C331.665 38.2186 332.227 36.6021 332.624 34.9172C332.747 34.3967 331.939 34.1775 331.816 34.698C331.419 36.383 330.899 38.0268 330.255 39.6158C330.091 40.0679 330.817 40.2597 330.995 39.8213Z" fill="#484751"/>
<path d="M322.302 14.972C325.915 15.9446 327.941 19.5474 330.789 21.6569C331.24 21.9857 331.706 21.3008 331.363 20.9172C329.05 18.4104 326.052 14.5885 322.411 14.246C321.987 14.2049 321.918 14.8624 322.302 14.972Z" fill="#484751"/>
<path d="M300.578 19.6572C300.783 18.7394 301.249 17.9997 301.892 17.3284C302.234 16.9723 301.782 16.3284 301.344 16.6298C300.373 17.3284 299.77 18.3558 299.633 19.5339C299.579 20.0682 300.455 20.1778 300.578 19.6572Z" fill="#484751"/>
<path d="M333.294 29.6019C333.486 30.0677 334.211 29.9033 334.074 29.3828C333.965 28.9718 333.828 28.5745 333.705 28.1773C333.541 27.643 332.692 27.8896 332.883 28.4101C333.007 28.8074 333.144 29.2047 333.294 29.6019Z" fill="#484751"/>
</g>
<defs>
<filter id="filter0_d" x="0" y="0" width="384" height="67" filterUnits="userSpaceOnUse" color-interpolation-filters="sRGB">
<feFlood flood-opacity="0" result="BackgroundImageFix"/>
<feColorMatrix in="SourceAlpha" type="matrix" values="0 0 0 0 0 0 0 0 0 0 0 0 0 0 0 0 0 0 127 0" result="hardAlpha"/>
<feOffset dy="2"/>
<feGaussianBlur stdDeviation="1"/>
<feColorMatrix type="matrix" values="0 0 0 0 0 0 0 0 0 0 0 0 0 0 0 0 0 0 0.2 0"/>
<feBlend mode="normal" in2="BackgroundImageFix" result="effect1_dropShadow"/>
<feBlend mode="normal" in="SourceGraphic" in2="effect1_dropShadow" result="shape"/>
</filter>
</defs>
</svg>
