<svg width="128" height="66" viewBox="0 0 128 66" fill="none" xmlns="http://www.w3.org/2000/svg">
<mask id="mask0" style="mask-type:alpha" maskUnits="userSpaceOnUse" x="0" y="0" width="128" height="63">
<path d="M0 0H128V63H0V0Z" fill="#31C02E"/>
</mask>
<g mask="url(#mask0)">
<path d="M47.7525 31.5776L47.79 35.2092L47.7962 35.8104L47.2535 35.5515L42.7196 33.3884L42.7195 33.3884C42.5291 33.2975 42.3113 33.3002 42.1283 33.393L42.1268 33.3938L37.6303 35.6486L37.0935 35.9178L37.0873 35.3172L37.0498 31.693L37.0498 31.6926C37.048 31.4962 36.9585 31.3116 36.8046 31.1862C36.6505 31.0608 36.4522 31.0102 36.2578 31.0485L36.2557 31.0489C29.9568 32.2515 25.2617 37.5781 24.8371 44.0035C24.8245 44.2201 24.9168 44.4283 25.0858 44.5636C29.9738 48.4641 36.1142 50.6072 42.4026 50.6072H42.5992C43.7841 50.5929 45.0916 50.5108 46.4818 50.3629L46.4822 50.3629C46.8483 50.3243 47.1123 49.9977 47.0738 49.6351C47.0358 49.2767 46.7093 49.0119 46.3376 49.0489C46.3374 49.0489 46.3372 49.0489 46.337 49.049L46.2995 48.6758C44.965 48.8162 43.7112 48.8964 42.5813 48.9108L47.7525 31.5776ZM47.7525 31.5776C47.7525 31.5775 47.7525 31.5773 47.7525 31.5772L47.7525 31.5776Z" stroke="#484751" stroke-width="0.75"/>
<path d="M87.5133 35.7122C87.3934 35.8368 87.2774 35.9648 87.1653 36.0963L87.1909 33.5971L87.1961 33.0968L86.7144 33.2323C84.6365 33.8169 83.2035 34.8801 82.336 35.7213C82.0103 36.0331 81.764 36.3163 81.5909 36.5333C81.5896 36.5348 81.5883 36.5364 81.5869 36.538C81.5838 36.5416 81.5804 36.5457 81.5769 36.5502L81.5683 36.5587L81.5581 36.5707C81.3278 36.8417 80.917 36.8833 80.6383 36.6627L80.6367 36.6615C80.4028 36.4784 80.3266 36.1753 80.4271 35.9138L80.4272 35.9138L80.4304 35.9047C80.4511 35.8466 80.4824 35.7892 80.5248 35.7365L80.5256 35.7354C80.6762 35.5469 80.8309 35.3659 80.9955 35.1914L80.9955 35.1914L80.999 35.1876C82.665 33.3713 85.069 32.0968 87.7017 31.6597L87.7128 31.6579L87.7238 31.6554C87.8629 31.6236 88.007 31.6359 88.1326 31.6922L88.1326 31.6922L88.1368 31.694C88.3872 31.8025 88.5438 32.0415 88.5422 32.3008C88.5422 32.301 88.5422 32.3012 88.5422 32.3014L88.5154 34.8131C88.1573 35.0861 87.8225 35.3865 87.5133 35.7122Z" stroke="#484751" stroke-width="0.75"/>
<path d="M109.339 45.0412C109.539 44.8981 109.735 44.7516 109.929 44.6037L110.098 44.4746L110.074 44.2631C109.582 39.9447 106.637 35.0204 101.048 33.3795L100.572 33.2399L100.567 33.7357L100.541 36.3442C100.402 36.1672 100.254 35.9949 100.098 35.8276L100.098 35.8276L100.097 35.8263C100.083 35.8115 100.069 35.796 100.054 35.7801C99.989 35.7104 99.915 35.6312 99.838 35.5569C99.6394 35.3597 99.4326 35.1741 99.2177 35.0003L99.2446 32.4167L99.2446 32.4164C99.2465 32.2214 99.3341 32.0382 99.4881 31.9143L99.4881 31.9143L99.4898 31.9129C99.6437 31.7875 99.8457 31.7362 100.039 31.7727C106.338 32.9783 111.033 38.3049 111.457 44.7301C111.47 44.9469 111.378 45.1552 111.208 45.2905C110.908 45.5308 110.602 45.7643 110.293 45.9899C110.002 45.6488 109.683 45.3309 109.339 45.0412Z" stroke="#484751" stroke-width="0.75"/>
<path d="M45.2671 18.7564C44.8994 18.7564 44.6023 18.461 44.5987 18.1019L44.5987 18.1019C44.595 17.7378 44.891 17.4358 45.2593 17.4321C45.2593 17.4321 45.2593 17.4321 45.2593 17.4321L47.5601 17.4092H47.5601H47.5601H47.5601H47.5601H47.5602H47.5602H47.5602H47.5602H47.5602H47.5602H47.5603H47.5603H47.5603H47.5603H47.5603H47.5604H47.5604H47.5604H47.5604H47.5604H47.5605H47.5605H47.5605H47.5605H47.5605H47.5606H47.5606H47.5606H47.5606H47.5606H47.5607H47.5607H47.5607H47.5607H47.5607H47.5608H47.5608H47.5608H47.5608H47.5608H47.5609H47.5609H47.5609H47.5609H47.561H47.561H47.561H47.561H47.561H47.5611H47.5611H47.5611H47.5611H47.5611H47.5612H47.5612H47.5612H47.5612H47.5613H47.5613H47.5613H47.5613H47.5614H47.5614H47.5614H47.5614H47.5614H47.5615H47.5615H47.5615H47.5615H47.5616H47.5616H47.5616H47.5616H47.5617H47.5617H47.5617H47.5617H47.5618H47.5618H47.5618H47.5618H47.5619H47.5619H47.5619H47.5619H47.5619H47.562H47.562H47.562H47.562H47.5621H47.5621H47.5621H47.5621H47.5622H47.5622H47.5622H47.5623H47.5623H47.5623H47.5623H47.5624H47.5624H47.5624H47.5624H47.5625H47.5625H47.5625H47.5625H47.5626H47.5626H47.5626H47.5626H47.5627H47.5627H47.5627H47.5627H47.5628H47.5628H47.5628H47.5629H47.5629H47.5629H47.5629H47.563H47.563H47.563H47.563H47.5631H47.5631H47.5631H47.5632H47.5632H47.5632H47.5632H47.5633H47.5633H47.5633H47.5633H47.5634H47.5634H47.5634H47.5635H47.5635H47.5635H47.5635H47.5636H47.5636H47.5636H47.5637H47.5637H47.5637H47.5637H47.5638H47.5638H47.5638H47.5639H47.5639H47.5639H47.5639H47.564H47.564H47.564H47.5641H47.5641H47.5641H47.5642H47.5642H47.5642H47.5642H47.5643H47.5643H47.5643H47.5644H47.5644H47.5644H47.5644H47.5645H47.5645H47.5645H47.5646H47.5646H47.5646H47.5647H47.5647H47.5647H47.5648H47.5648H47.5648H47.5648H47.5649H47.5649H47.5649H47.565H47.565H47.565H47.5651H47.5651H47.5651H47.5651H47.5652H47.5652H47.5652H47.5653H47.5653H47.5653H47.5654H47.5654H47.5654H47.5655H47.5655H47.5655H47.5656H47.5656H47.5656H47.5656H47.5657H47.5657H47.5657H47.5658H47.5658H47.5658H47.5659H47.5659H47.5659H47.566H47.566H47.566H47.5661H47.5661H47.5661H47.5662H47.5662H47.5662H47.5662H47.5663H47.5663H47.5663H47.5664H47.5664H47.5664H47.5665H47.5665H47.5665H47.5666H47.5666H47.5666H47.5667H47.5667H47.5667H47.5668H47.5668H47.5668H47.5669H47.5669H47.5669H47.567H47.567H47.567H47.5671H47.5671H47.5671H47.5672H47.5672H47.5672H47.5673H47.5673H47.5673H47.5674H47.5674H47.5674H47.5675H47.5675H47.5675H47.5676H47.5676H47.5676H47.5677H47.5677H47.5677H47.5678H47.5678H47.5678H47.5679H47.5679H47.5679H47.5679H47.568H47.568H47.568H47.5681H47.5681H47.5681H47.5682H47.5682H47.5682H47.5683H47.5683H47.5684H47.5684H47.5684H47.5685H47.5685H47.5685H47.5686H47.5686H47.5686H47.5687H47.5687H47.5687H47.5688H47.5688H47.5688H47.5689H47.5689H47.5689H47.569H47.569H47.569H47.5691H47.5691H47.5691H47.5692H47.5692H47.5692H47.5693H47.5693H47.5693H47.5694H47.5694H47.5694H47.5695H47.5695H47.5695H47.5696H47.5696H47.5696H47.5697H47.5697H47.5697H47.5698H47.5698H47.5698H47.5699H47.5699H47.5699H47.57H47.57H47.57H47.5701H47.5701C47.9378 17.4092 48.2349 17.7046 48.2385 18.0636C48.2422 18.4277 47.9462 18.7298 47.5779 18.7335C47.5779 18.7335 47.5779 18.7335 47.5779 18.7335L45.2771 18.7564H45.2771H45.2771H45.2771H45.2771H45.277H45.277H45.277H45.277H45.277H45.2769H45.2769H45.2769H45.2769H45.2769H45.2769H45.2768H45.2768H45.2768H45.2768H45.2768H45.2767H45.2767H45.2767H45.2767H45.2767H45.2766H45.2766H45.2766H45.2766H45.2766H45.2765H45.2765H45.2765H45.2765H45.2765H45.2764H45.2764H45.2764H45.2764H45.2764H45.2763H45.2763H45.2763H45.2763H45.2762H45.2762H45.2762H45.2762H45.2762H45.2761H45.2761H45.2761H45.2761H45.276H45.276H45.276H45.276H45.276H45.2759H45.2759H45.2759H45.2759H45.2758H45.2758H45.2758H45.2758H45.2758H45.2757H45.2757H45.2757H45.2757H45.2756H45.2756H45.2756H45.2756H45.2755H45.2755H45.2755H45.2755H45.2754H45.2754H45.2754H45.2754H45.2753H45.2753H45.2753H45.2753H45.2752H45.2752H45.2752H45.2752H45.2751H45.2751H45.2751H45.2751H45.275H45.275H45.275H45.275H45.2749H45.2749H45.2749H45.2749H45.2748H45.2748H45.2748H45.2748H45.2747H45.2747H45.2747H45.2747H45.2746H45.2746H45.2746H45.2746H45.2745H45.2745H45.2745H45.2745H45.2744H45.2744H45.2744H45.2743H45.2743H45.2743H45.2743H45.2742H45.2742H45.2742H45.2742H45.2741H45.2741H45.2741H45.274H45.274H45.274H45.274H45.2739H45.2739H45.2739H45.2738H45.2738H45.2738H45.2738H45.2737H45.2737H45.2737H45.2737H45.2736H45.2736H45.2736H45.2735H45.2735H45.2735H45.2735H45.2734H45.2734H45.2734H45.2733H45.2733H45.2733H45.2732H45.2732H45.2732H45.2732H45.2731H45.2731H45.2731H45.273H45.273H45.273H45.273H45.2729H45.2729H45.2729H45.2728H45.2728H45.2728H45.2727H45.2727H45.2727H45.2727H45.2726H45.2726H45.2726H45.2725H45.2725H45.2725H45.2724H45.2724H45.2724H45.2724H45.2723H45.2723H45.2723H45.2722H45.2722H45.2722H45.2721H45.2721H45.2721H45.272H45.272H45.272H45.272H45.2719H45.2719H45.2719H45.2718H45.2718H45.2718H45.2717H45.2717H45.2717H45.2716H45.2716H45.2716H45.2716H45.2715H45.2715H45.2715H45.2714H45.2714H45.2714H45.2713H45.2713H45.2713H45.2712H45.2712H45.2712H45.2711H45.2711H45.2711H45.271H45.271H45.271H45.2709H45.2709H45.2709H45.2709H45.2708H45.2708H45.2708H45.2707H45.2707H45.2707H45.2706H45.2706H45.2706H45.2705H45.2705H45.2705H45.2704H45.2704H45.2704H45.2703H45.2703H45.2703H45.2702H45.2702H45.2702H45.2701H45.2701H45.2701H45.27H45.27H45.27H45.2699H45.2699H45.2699H45.2698H45.2698H45.2698H45.2697H45.2697H45.2697H45.2696H45.2696H45.2696H45.2695H45.2695H45.2695H45.2694H45.2694H45.2694H45.2693H45.2693H45.2693H45.2692H45.2692H45.2692H45.2691H45.2691H45.2691H45.269H45.269H45.269H45.2689H45.2689H45.2689H45.2688H45.2688H45.2688H45.2687H45.2687H45.2687H45.2686H45.2686H45.2686H45.2685H45.2685H45.2685H45.2684H45.2684H45.2684H45.2683H45.2683H45.2683H45.2682H45.2682H45.2682H45.2681H45.2681H45.2681H45.268H45.268H45.268H45.2679H45.2679H45.2679H45.2678H45.2678H45.2678H45.2677H45.2677H45.2677H45.2676H45.2676H45.2676H45.2675H45.2675H45.2675H45.2674H45.2674H45.2674H45.2673H45.2673H45.2673H45.2672H45.2672H45.2672H45.2671H45.2671Z" stroke="#484751" stroke-width="0.75"/>
<path d="M36.9605 17.5161L36.9605 17.5161C36.59 17.5197 36.2962 17.8211 36.2998 18.1859L36.9605 17.5161ZM36.9605 17.5161L39.2544 17.4932C39.6536 17.5106 39.9362 17.8009 39.9397 18.1476C39.9434 18.5124 39.6495 18.8138 39.2791 18.8175L39.2791 18.8175M36.9605 17.5161L39.2791 18.8175M39.2791 18.8175L36.9783 18.8404H36.9783H36.9783H36.9782H36.9782H36.9782H36.9782H36.9782H36.9782H36.9781H36.9781H36.9781H36.9781H36.9781H36.9781H36.978H36.978H36.978H36.978H36.978H36.9779H36.9779H36.9779H36.9779H36.9779H36.9779H36.9778H36.9778H36.9778H36.9778H36.9778H36.9778H36.9777H36.9777H36.9777H36.9777H36.9777H36.9776H36.9776H36.9776H36.9776H36.9776H36.9776H36.9775H36.9775H36.9775H36.9775H36.9775H36.9775H36.9774H36.9774H36.9774H36.9774H36.9774H36.9773H36.9773H36.9773H36.9773H36.9773H36.9773H36.9772H36.9772H36.9772H36.9772H36.9772H36.9771H36.9771H36.9771H36.9771H36.9771H36.977H36.977H36.977H36.977H36.977H36.977H36.9769H36.9769H36.9769H36.9769H36.9769H36.9768H36.9768H36.9768H36.9768H36.9768H36.9767H36.9767H36.9767H36.9767H36.9767H36.9767H36.9766H36.9766H36.9766H36.9766H36.9766H36.9765H36.9765H36.9765H36.9765H36.9765H36.9764H36.9764H36.9764H36.9764H36.9764H36.9763H36.9763H36.9763H36.9763H36.9763H36.9763H36.9762H36.9762H36.9762H36.9762H36.9762H36.9761H36.9761H36.9761H36.9761H36.9761H36.976H36.976H36.976H36.976H36.976H36.9759H36.9759H36.9759H36.9759H36.9759H36.9758H36.9758H36.9758H36.9758H36.9758H36.9757H36.9757H36.9757H36.9757H36.9757H36.9756H36.9756H36.9756H36.9756H36.9756H36.9755H36.9755H36.9755H36.9755H36.9755H36.9754H36.9754H36.9754H36.9754H36.9753H36.9753H36.9753H36.9753H36.9753H36.9752H36.9752H36.9752H36.9752H36.9752H36.9751H36.9751H36.9751H36.9751H36.9751H36.975H36.975H36.975H36.975H36.9749H36.9749H36.9749H36.9749H36.9749H36.9748H36.9748H36.9748H36.9748H36.9748H36.9747H36.9747H36.9747H36.9747H36.9746H36.9746H36.9746H36.9746H36.9746H36.9745H36.9745H36.9745H36.9745H36.9744H36.9744H36.9744H36.9744H36.9744H36.9743H36.9743H36.9743H36.9743H36.9742H36.9742H36.9742H36.9742H36.9742H36.9741H36.9741H36.9741H36.9741H36.974H36.974H36.974H36.974H36.9739H36.9739H36.9739H36.9739H36.9739H36.9738H36.9738H36.9738H36.9738H36.9737H36.9737H36.9737H36.9737H36.9736H36.9736H36.9736H36.9736H36.9736H36.9735H36.9735H36.9735H36.9735H36.9734H36.9734H36.9734H36.9734H36.9733H36.9733H36.9733H36.9733H36.9732H36.9732H36.9732H36.9732H36.9731H36.9731H36.9731H36.9731H36.973H36.973H36.973H36.973H36.9729H36.9729H36.9729H36.9729H36.9728H36.9728H36.9728H36.9728H36.9727H36.9727H36.9727H36.9727H36.9726H36.9726H36.9726H36.9726H36.9725H36.9725H36.9725H36.9725H36.9724H36.9724H36.9724H36.9724H36.9723H36.9723H36.9723H36.9723H36.9722H36.9722H36.9722H36.9722H36.9721H36.9721H36.9721H36.972H36.972H36.972H36.972H36.9719H36.9719H36.9719H36.9719H36.9718H36.9718H36.9718H36.9718H36.9717H36.9717H36.9717H36.9716H36.9716H36.9716H36.9716H36.9715H36.9715H36.9715H36.9715H36.9714H36.9714H36.9714H36.9713H36.9713H36.9713H36.9713H36.9712H36.9712H36.9712H36.9711H36.9711H36.9711H36.9711H36.971H36.971H36.971H36.9709H36.9709H36.9709H36.9709H36.9708H36.9708H36.9708H36.9707H36.9707H36.9707H36.9707H36.9706H36.9706H36.9706H36.9705H36.9705H36.9705H36.9705H36.9704H36.9704H36.9704H36.9703H36.9703H36.9703H36.9702H36.9702H36.9702H36.9702H36.9701H36.9701H36.9701H36.97H36.97H36.97H36.9699H36.9699H36.9699H36.9699H36.9698H36.9698H36.9698H36.9697H36.9697H36.9697H36.9696H36.9696H36.9696H36.9695H36.9695H36.9695H36.9694H36.9694H36.9694H36.9694H36.9693H36.9693H36.9693H36.9692H36.9692H36.9692H36.9691H36.9691H36.9691H36.969H36.969H36.969H36.9689H36.9689H36.9689H36.9688H36.9688H36.9688H36.9687H36.9687H36.9687H36.9686H36.9686H36.9686H36.9685H36.9685H36.9685H36.9684H36.9684H36.9684H36.9683H36.9683H36.9683C36.6006 18.8404 36.3035 18.545 36.2998 18.1859L39.2791 18.8175Z" stroke="#484751" stroke-width="0.75"/>
<path d="M39.1588 26.007L39.1587 26.0069C38.8632 25.7885 38.8025 25.3738 39.0198 25.0834C39.2396 24.7897 39.6603 24.7274 39.9551 24.9454L39.9554 24.9456C40.652 25.4595 41.3854 25.7408 42.1294 25.7408H42.1294H42.1295H42.1295H42.1296H42.1296H42.1297H42.1297H42.1298H42.1298H42.1299H42.1299H42.13H42.13H42.1301H42.1301H42.1302H42.1303H42.1303H42.1304H42.1304H42.1305H42.1305H42.1306H42.1306H42.1307H42.1307H42.1308H42.1308H42.1309H42.1309H42.131H42.131H42.1311H42.1311H42.1312H42.1312H42.1313H42.1313H42.1314H42.1314H42.1315H42.1315H42.1316H42.1316H42.1317H42.1317H42.1318H42.1318H42.1319H42.1319H42.132H42.132H42.1321H42.1321H42.1322H42.1322H42.1323H42.1323H42.1324H42.1324H42.1325H42.1325H42.1326H42.1326H42.1327H42.1327H42.1328H42.1328H42.1329H42.1329H42.133H42.133H42.1331H42.1331H42.1332H42.1332H42.1333H42.1333H42.1334H42.1334H42.1335H42.1335H42.1336H42.1336H42.1337H42.1337H42.1338H42.1338H42.1339H42.1339H42.134H42.1341H42.1341H42.1342H42.1342H42.1343H42.1343H42.1344H42.1344H42.1345H42.1345H42.1346H42.1346H42.1347H42.1347H42.1348H42.1348H42.1349H42.1349H42.135H42.135H42.1351H42.1351H42.1352H42.1352H42.1353H42.1353H42.1354H42.1354H42.1355H42.1355H42.1356H42.1356H42.1357H42.1357H42.1358H42.1358H42.1359H42.1359H42.136H42.136H42.1361H42.1361H42.1362H42.1362H42.1363H42.1363H42.1364H42.1364H42.1365H42.1365H42.1366H42.1366H42.1367H42.1367H42.1368H42.1368H42.1369H42.1369H42.137H42.137H42.1371H42.1371H42.1372H42.1372H42.1373H42.1373H42.1374H42.1374H42.1375H42.1375H42.1376H42.1376H42.1377H42.1377H42.1378H42.1379H42.1379H42.138H42.138H42.1381H42.1381H42.1382H42.1382H42.1383H42.1383H42.1384H42.1384H42.1385H42.1385H42.1386H42.1386H42.1387H42.1387H42.1388H42.1388H42.1389H42.1389H42.139H42.139H42.1391H42.1391H42.1392H42.1392H42.1393H42.1393H42.1394H42.1394H42.1395H42.1395H42.1396H42.1396H42.1397H42.1397H42.1398H42.1398H42.1399H42.1399H42.14H42.14H42.1401H42.1401H42.1402H42.1402H42.1403H42.1403H42.1404H42.1404H42.1405H42.1405H42.1406H42.1406H42.1407H42.1407H42.1408H42.1408H42.1409H42.1409H42.141H42.141H42.1411H42.1411H42.1412H42.1412H42.1413H42.1413H42.1414H42.1414H42.1415H42.1416H42.1416H42.1417H42.1417H42.1418H42.1418H42.1419H42.1419H42.142H42.142H42.1421H42.1421H42.1422H42.1422H42.1423H42.1423H42.1424H42.1424H42.1425H42.1425H42.1426H42.1426H42.1427H42.1427H42.1428H42.1428H42.1429H42.1429H42.143H42.143H42.1431H42.1431H42.1432H42.1432H42.1433H42.1433H42.1434H42.1434H42.1435H42.1435H42.1436H42.1436H42.1437H42.1437H42.1438H42.1438H42.1439H42.1439H42.144H42.144H42.1441H42.1441H42.1442H42.1442H42.1443H42.1443H42.1444H42.1444H42.1445H42.1445H42.1446H42.1446H42.1447H42.1447H42.1448H42.1448H42.1449H42.1449H42.145H42.145H42.1451H42.1451H42.1452H42.1452H42.1453H42.1454H42.1454H42.1455H42.1455H42.1456H42.1456H42.1457H42.1457H42.1458H42.1458H42.1459H42.1459H42.146H42.146H42.1461H42.1461H42.1462H42.1462H42.1463H42.1463H42.1464H42.1464H42.1465H42.1465H42.1466H42.1466H42.1467H42.1467H42.1468H42.1468H42.1469H42.1469H42.147H42.147H42.1471H42.1471H42.1472H42.1472H42.1473H42.1473H42.1474H42.1474H42.1475H42.1475H42.1476H42.1476H42.1477H42.1477H42.1478H42.1478H42.1479H42.1479H42.148H42.148H42.1481H42.1481H42.1482H42.1482H42.1483H42.1483H42.1484H42.1484H42.1485H42.1485H42.1486H42.1486H42.1487H42.1487H42.1488H42.1488H42.1489H42.1489H42.149H42.149H42.1491H42.1492H42.1492H42.1493H42.1493H42.1494H42.1494H42.1495H42.1495H42.1496H42.1496H42.1497H42.1497H42.1498H42.1498H42.1499H42.1499H42.15H42.15H42.1501H42.1501H42.1502H42.1502H42.1503H42.1503H42.1504H42.1504H42.1505H42.1505H42.1506H42.1506H42.1507H42.1507H42.1508H42.1508H42.1509H42.1509H42.151H42.151H42.1511H42.1511H42.1512H42.1512H42.1513H42.1513H42.1514H42.1514H42.1515H42.1515H42.1516H42.1516H42.1517H42.1517H42.1518H42.1518H42.1519H42.1519H42.152H42.152H42.1521H42.1521H42.1522H42.1522H42.1523H42.1523H42.1524H42.1524H42.1525H42.1525H42.1526H42.1526H42.1527H42.1527H42.1528H42.1528H42.1529H42.153H42.153H42.1531H42.1531H42.1532H42.1532H42.1533H42.1533H42.1534H42.1534H42.1535H42.1535H42.1536H42.1536H42.1537H42.1537H42.1538H42.1538H42.1539H42.1539H42.154H42.154H42.1541H42.1541H42.1542H42.1542H42.1543H42.1543H42.1544H42.1544H42.1545H42.1545H42.1546H42.1546H42.1547H42.1547H42.1548H42.1548H42.1549H42.1549H42.155H42.155H42.1551H42.1551H42.1552H42.1552H42.1553H42.1553V25.7409L42.1586 25.7408C42.9137 25.7342 43.6507 25.4361 44.3468 24.9011C44.6399 24.6763 45.0594 24.7287 45.2864 25.0201C45.5104 25.3086 45.4572 25.7251 45.1668 25.9479L45.1666 25.948C44.2188 26.6763 43.184 27.0542 42.1764 27.0651H42.1763H42.1763H42.1762H42.1761H42.176H42.1759H42.1758H42.1757H42.1757H42.1756H42.1755H42.1754H42.1753H42.1752H42.1751H42.1751H42.175H42.1749H42.1748H42.1747H42.1746H42.1745H42.1744H42.1744H42.1743H42.1742H42.1741H42.174H42.1739H42.1738H42.1737H42.1737H42.1736H42.1735H42.1734H42.1733H42.1732H42.1731H42.173H42.173H42.1729H42.1728H42.1727H42.1726H42.1725H42.1724H42.1723H42.1722H42.1722H42.1721H42.172H42.1719H42.1718H42.1717H42.1716H42.1715H42.1714H42.1714H42.1713H42.1712H42.1711H42.171H42.1709H42.1708H42.1707H42.1706H42.1706H42.1705H42.1704H42.1703H42.1702H42.1701H42.17H42.1699H42.1698H42.1697H42.1697H42.1696H42.1695H42.1694H42.1693H42.1692H42.1691H42.169H42.1689H42.1689H42.1688H42.1687H42.1686H42.1685H42.1684H42.1683H42.1682H42.1681H42.168H42.1679H42.1679H42.1678H42.1677H42.1676H42.1675H42.1674H42.1673H42.1672H42.1671H42.167H42.167H42.1669H42.1668H42.1667H42.1666H42.1665H42.1664H42.1663H42.1662H42.1661H42.166H42.1659H42.1659H42.1658H42.1657H42.1656H42.1655H42.1654H42.1653H42.1652H42.1651H42.165H42.1649H42.1649H42.1648H42.1647H42.1646H42.1645H42.1644H42.1643H42.1642H42.1641H42.164H42.1639H42.1638H42.1638H42.1637H42.1636H42.1635H42.1634H42.1633H42.1632H42.1631H42.163H42.1629H42.1628H42.1627H42.1626H42.1626H42.1625H42.1624H42.1623H42.1622H42.1621H42.162H42.1619H42.1618H42.1617H42.1616H42.1615H42.1615H42.1614H42.1613H42.1612H42.1611H42.161H42.1609H42.1608H42.1607H42.1606H42.1605H42.1604H42.1603H42.1602H42.1602H42.1601H42.16H42.1599H42.1598H42.1597H42.1596H42.1595H42.1594H42.1593H42.1592H42.1591H42.159H42.159H42.1589H42.1588H42.1587H42.1586H42.1585H42.1584H42.1583H42.1582H42.1581H42.158H42.1579H42.1578H42.1577H42.1577H42.1576H42.1575H42.1574H42.1573H42.1572H42.1571H42.157H42.1569H42.1568H42.1567H42.1566H42.1565H42.1564H42.1564H42.1563H42.1562H42.1561H42.156H42.1559H42.1558H42.1557H42.1556H42.1555H42.1554H42.1553H42.1552H42.1551H42.1551H42.155H42.1549H42.1548H42.1547H42.1546H42.1545H42.1544H42.1543H42.1542H42.1541H42.154H42.1539H42.1538H42.1538H42.1537H42.1536H42.1535H42.1534H42.1533H42.1532H42.1531H42.153H42.1529H42.1528H42.1527H42.1526H42.1525H42.1525H42.1524H42.1523H42.1522H42.1521H42.152H42.1519H42.1518H42.1517H42.1516H42.1515H42.1514H42.1513H42.1512H42.1512H42.1511H42.151H42.1509H42.1508H42.1507H42.1506H42.1505H42.1504H42.1503H42.1502H42.1501H42.15H42.15H42.1499H42.1498H42.1497H42.1496H42.1495H42.1494H42.1493H42.1492H42.1491H42.149H42.1489H42.1488H42.1488H42.1487H42.1486H42.1485H42.1484H42.1483H42.1482H42.1481H42.148H42.1479H42.1478H42.1477H42.1476H42.1476H42.1475H42.1474H42.1473H42.1472H42.1471H42.147H42.1469H42.1468H42.1467H42.1466H42.1465H42.1465H42.1464H42.1463H42.1462H42.1461H42.146H42.1459H42.1458H42.1457H42.1456H42.1455H42.1454H42.1454H42.1453H42.1452H42.1451H42.145H42.1449H42.1448H42.1447H42.1446H42.1445H42.1444H42.1444H42.1443H42.1442H42.1441H42.144H42.1439H42.1438H42.1437H42.1436H42.1435H42.1434H42.1434H42.1433H42.1432H42.1431H42.143H42.1429H42.1428H42.1427H42.1426H42.1425H42.1424H42.1424H42.1423H42.1422H42.1421H42.142H42.1419H42.1418H42.1417H42.1416H42.1415H42.1415H42.1414H42.1413H42.1412H42.1411H42.141H42.1409H42.1408H42.1407H42.1406H42.1406H42.1405H42.1404H42.1403H42.1402H42.1401H42.14H42.1399H42.1398H42.1398H42.1397H42.1396H42.1395H42.1394H42.1393H42.1392H42.1391H42.139H42.139H42.1389H42.1388H42.1387H42.1386H42.1385H42.1384H42.1383H42.1382H42.1382H42.1381H42.138H42.1379H42.1378H42.1377H42.1376H42.1375H42.1374H42.1374H42.1373H42.1372H42.1371H42.137H42.1369H42.1368H42.1367H42.1367H42.1366H42.1365H42.1364H42.1363H42.1362H42.1361H42.136H42.136H42.1359H42.1358H42.1357H42.1356H42.1355H42.1354H42.1354H42.1353H42.1352H42.1351H42.135H42.1349H42.1348H42.1347H42.1347H42.1346H42.1345H42.1344H42.1343H42.1342H42.1341H42.1341H42.134H42.1339H42.1338H42.1337H42.1336H42.1335H42.1335H42.1334H42.1333H42.1332H42.1331H42.133H42.133H42.1329H42.1328H42.1327H42.1326H42.1325H42.1324H42.1324H42.1323C41.134 27.0651 40.1067 26.7082 39.1588 26.007Z" stroke="#484751" stroke-width="0.75"/>
<path d="M31.1886 47.521L31.1886 47.5203L31.1368 43.1547C31.1368 43.1546 31.1368 43.1545 31.1368 43.1544C31.1333 42.7903 31.4261 42.4894 31.7957 42.4849H31.7957H31.7958H31.7958H31.7958H31.7958H31.7959H31.7959H31.7959H31.7959H31.7959H31.796H31.796H31.796H31.796H31.7961H31.7961H31.7961H31.7961H31.7962H31.7962H31.7962H31.7962H31.7962H31.7963H31.7963H31.7963H31.7963H31.7964H31.7964H31.7964H31.7964H31.7965H31.7965H31.7965H31.7965H31.7965H31.7966H31.7966H31.7966H31.7966H31.7967H31.7967H31.7967H31.7967H31.7968H31.7968H31.7968H31.7968H31.7969H31.7969H31.7969H31.7969H31.797H31.797H31.797H31.797H31.7971H31.7971H31.7971H31.7971H31.7971H31.7972H31.7972H31.7972H31.7972H31.7973H31.7973H31.7973H31.7973H31.7974H31.7974H31.7974H31.7974H31.7975H31.7975H31.7975H31.7975H31.7976H31.7976H31.7976H31.7976H31.7977H31.7977H31.7977H31.7977H31.7978H31.7978H31.7978H31.7978H31.7979H31.7979H31.7979H31.7979H31.798H31.798H31.798H31.798H31.7981H31.7981H31.7981H31.7981H31.7982H31.7982H31.7982H31.7982H31.7983H31.7983H31.7983H31.7983H31.7984H31.7984H31.7984H31.7984H31.7985H31.7985H31.7985H31.7985H31.7986H31.7986H31.7986H31.7986H31.7987H31.7987H31.7987H31.7987H31.7988H31.7988H31.7988H31.7988H31.7989H31.7989H31.7989H31.7989H31.799H31.799H31.799H31.799H31.7991H31.7991H31.7991H31.7991H31.7992H31.7992H31.7992H31.7992H31.7993H31.7993H31.7993H31.7993H31.7994H31.7994H31.7994H31.7994H31.7995H31.7995H31.7995H31.7995H31.7996H31.7996H31.7996H31.7996H31.7997H31.7997H31.7997H31.7997H31.7998H31.7998H31.7998H31.7999H31.7999H31.7999H31.7999H31.8H31.8H31.8H31.8H31.8001H31.8001H31.8001H31.8001H31.8002H31.8002H31.8002H31.8002H31.8003H31.8003H31.8003H31.8003H31.8004H31.8004H31.8004H31.8004H31.8005H31.8005H31.8005H31.8005H31.8006H31.8006H31.8006H31.8006H31.8007H31.8007H31.8007H31.8007H31.8008H31.8008H31.8008H31.8008H31.8009H31.8009H31.8009H31.8009H31.801H31.801H31.801H31.801H31.8011H31.8011H31.8011H31.8011H31.8012H31.8012H31.8012H31.8012H31.8013H31.8013H31.8013H31.8013H31.8014H31.8014H31.8014H31.8014H31.8014H31.8015H31.8015H31.8015H31.8015H31.8016H31.8016H31.8016H31.8016H31.8017H31.8017H31.8017H31.8017H31.8018H31.8018H31.8018H31.8018H31.8019H31.8019H31.8019H31.8019H31.802H31.802H31.802H31.802H31.8021H31.8021H31.8021H31.8021H31.8021H31.8022H31.8022H31.8022H31.8022H31.8023H31.8023H31.8023H31.8023H31.8024H31.8024H31.8024H31.8024H31.8025H31.8025H31.8025H31.8025H31.8025H31.8026H31.8026H31.8026H31.8026H31.8027H31.8027H31.8027H31.8027H31.8028H31.8028H31.8028H31.8028H31.8028H31.8029H31.8029H31.8029H31.8029H31.803H31.803H31.803H31.803H31.8031H31.8031H31.8031H31.8031H31.8031H31.8032H31.8032H31.8032H31.8032H31.8033H31.8033H31.8033H31.8033H31.8033H31.8034H31.8034H31.8034H31.8034H31.8035H31.8035H31.8035H31.8035H31.8035H31.8036H31.8036H31.8036H31.8036H31.8036H31.8037H31.8037H31.8037H31.8037H31.8038H31.8038H31.8038H31.8038H31.8038H31.8039H31.8039H31.8039H31.8039H31.8039H31.804H31.804H31.804H31.804H31.804H31.8041H31.8041H31.8041H31.8041H31.8041H31.8042H31.8042H31.8042H31.8042H31.8042H31.8043H31.8043H31.8043H31.8043H31.8043H31.8044H31.8044H31.8044H31.8044H31.8044H31.8045H31.8045H31.8045H31.8045H31.8045H31.8046H31.8046H31.8046H31.8046H31.8046H31.8046H31.8047H31.8047H31.8047H31.8047H31.8047H31.8048H31.8048H31.8048H31.8048H31.8048H31.8049H31.8049H31.8049H31.8049H31.8049H31.8049H31.805H31.805H31.805H31.805H31.805H31.805H31.8051H31.8051H31.8051H31.8051H31.8051H31.8052H31.8052H31.8052C32.1736 42.4849 32.47 42.7781 32.4736 43.1393L32.4736 43.14L32.5255 47.5056C32.5255 47.5057 32.5255 47.5059 32.5255 47.506C32.529 47.8701 32.2361 48.1709 31.8665 48.1755H31.8665H31.8665H31.8665H31.8665H31.8664H31.8664H31.8664H31.8664H31.8664H31.8663H31.8663H31.8663H31.8663H31.8662H31.8662H31.8662H31.8662H31.8661H31.8661H31.8661H31.8661H31.8661H31.866H31.866H31.866H31.866H31.8659H31.8659H31.8659H31.8659H31.8658H31.8658H31.8658H31.8658H31.8658H31.8657H31.8657H31.8657H31.8657H31.8656H31.8656H31.8656H31.8656H31.8655H31.8655H31.8655H31.8655H31.8654H31.8654H31.8654H31.8654H31.8653H31.8653H31.8653H31.8653H31.8653H31.8652H31.8652H31.8652H31.8652H31.8651H31.8651H31.8651H31.8651H31.865H31.865H31.865H31.865H31.8649H31.8649H31.8649H31.8649H31.8648H31.8648H31.8648H31.8648H31.8647H31.8647H31.8647H31.8647H31.8646H31.8646H31.8646H31.8646H31.8645H31.8645H31.8645H31.8645H31.8644H31.8644H31.8644H31.8644H31.8643H31.8643H31.8643H31.8643H31.8642H31.8642H31.8642H31.8642H31.8641H31.8641H31.8641H31.8641H31.864H31.864H31.864H31.864H31.8639H31.8639H31.8639H31.8639H31.8638H31.8638H31.8638H31.8638H31.8637H31.8637H31.8637H31.8637H31.8636H31.8636H31.8636H31.8636H31.8635H31.8635H31.8635H31.8635H31.8634H31.8634H31.8634H31.8634H31.8633H31.8633H31.8633H31.8633H31.8632H31.8632H31.8632H31.8632H31.8631H31.8631H31.8631H31.8631H31.863H31.863H31.863H31.863H31.8629H31.8629H31.8629H31.8629H31.8628H31.8628H31.8628H31.8628H31.8627H31.8627H31.8627H31.8627H31.8626H31.8626H31.8626H31.8626H31.8625H31.8625H31.8625H31.8625H31.8624H31.8624H31.8624H31.8624H31.8623H31.8623H31.8623H31.8622H31.8622H31.8622H31.8622H31.8621H31.8621H31.8621H31.8621H31.862H31.862H31.862H31.862H31.8619H31.8619H31.8619H31.8619H31.8618H31.8618H31.8618H31.8618H31.8617H31.8617H31.8617H31.8617H31.8616H31.8616H31.8616H31.8616H31.8615H31.8615H31.8615H31.8615H31.8614H31.8614H31.8614H31.8614H31.8613H31.8613H31.8613H31.8613H31.8612H31.8612H31.8612H31.8612H31.8611H31.8611H31.8611H31.8611H31.861H31.861H31.861H31.861H31.861H31.8609H31.8609H31.8609H31.8609H31.8608H31.8608H31.8608H31.8608H31.8607H31.8607H31.8607H31.8607H31.8606H31.8606H31.8606H31.8606H31.8605H31.8605H31.8605H31.8605H31.8604H31.8604H31.8604H31.8604H31.8603H31.8603H31.8603H31.8603H31.8602H31.8602H31.8602H31.8602H31.8602H31.8601H31.8601H31.8601H31.8601H31.86H31.86H31.86H31.86H31.8599H31.8599H31.8599H31.8599H31.8598H31.8598H31.8598H31.8598H31.8597H31.8597H31.8597H31.8597H31.8597H31.8596H31.8596H31.8596H31.8596H31.8595H31.8595H31.8595H31.8595H31.8594H31.8594H31.8594H31.8594H31.8594H31.8593H31.8593H31.8593H31.8593H31.8592H31.8592H31.8592H31.8592H31.8592H31.8591H31.8591H31.8591H31.8591H31.859H31.859H31.859H31.859H31.859H31.8589H31.8589H31.8589H31.8589H31.8588H31.8588H31.8588H31.8588H31.8588H31.8587H31.8587H31.8587H31.8587H31.8587H31.8586H31.8586H31.8586H31.8586H31.8585H31.8585H31.8585H31.8585H31.8585H31.8584H31.8584H31.8584H31.8584H31.8584H31.8583H31.8583H31.8583H31.8583H31.8583H31.8582H31.8582H31.8582H31.8582H31.8581H31.8581H31.8581H31.8581H31.8581H31.858H31.858H31.858H31.858H31.858H31.8579H31.8579H31.8579H31.8579H31.8579H31.8579H31.8578H31.8578H31.8578H31.8578H31.8578H31.8577H31.8577H31.8577H31.8577H31.8577H31.8576H31.8576H31.8576H31.8576H31.8576H31.8575H31.8575H31.8575H31.8575H31.8575H31.8575H31.8574H31.8574H31.8574H31.8574H31.8574H31.8573H31.8573H31.8573H31.8573H31.8573H31.8573H31.8572H31.8572H31.8572H31.8572H31.8572H31.8572H31.8571H31.8571H31.8571H31.8571H31.8571C31.4887 48.1755 31.1923 47.8822 31.1886 47.521Z" stroke="#484751" stroke-width="0.75"/>
<path d="M27.5433 23.5637L27.5433 23.5639C27.8443 27.197 28.915 30.7455 30.7276 34.1144C30.8495 34.3377 31.08 34.4651 31.3201 34.4651C31.425 34.4651 31.5329 34.4405 31.6423 34.3845C31.964 34.2122 32.0844 33.8114 31.9123 33.4908C30.1857 30.2876 29.1638 26.9115 28.8798 23.4566L28.8797 23.4564C28.8265 22.8058 28.6196 19.6323 29.3203 15.9521C30.0198 12.2785 31.6357 8.03857 35.2788 5.33301L27.5433 23.5637ZM27.5433 23.5637C27.4871 22.8892 27.2673 19.5012 28.0462 15.5559C28.826 11.6057 30.5956 7.15219 34.4722 4.27335L34.4722 4.27331M27.5433 23.5637L34.4722 4.27331M34.4722 4.27331C37.6239 1.93212 41.0372 1.72369 41.1593 1.71654L41.1594 1.71675M34.4722 4.27331L41.1594 1.71675M41.1594 1.71675L41.1718 1.71561M41.1594 1.71675L41.1718 1.71561M41.1718 1.71561C41.773 1.66027 42.4216 1.65455 43.0688 1.69911L43.0769 1.69967M41.1718 1.71561L43.0769 1.69967M43.0769 1.69967L43.085 1.69987M43.0769 1.69967L43.085 1.69987M43.085 1.69987L43.086 1.6999L43.0888 1.7L43.0988 1.7004L43.1338 1.70214C43.1636 1.70378 43.2057 1.70645 43.2593 1.71065C43.3665 1.71904 43.5192 1.73351 43.7105 1.75801C44.0932 1.80705 44.6292 1.89613 45.263 2.05667C46.5318 2.37807 48.1835 2.98367 49.7804 4.12022C52.1044 5.77544 53.9256 8.15325 55.1853 11.2063L55.1854 11.2065M43.085 1.69987L55.1854 11.2065M55.1854 11.2065C55.3238 11.5415 55.1634 11.9276 54.82 12.0681M55.1854 11.2065L49.0019 5.19389M49.0019 5.19389L49.002 5.19394C51.1352 6.71404 52.7953 8.91238 53.9474 11.7052M49.0019 5.19389C46.2808 3.25588 43.3241 3.03746 43.0134 3.02235M49.0019 5.19389L43.0134 3.02235M53.9474 11.7052L53.6014 11.848L53.9473 11.705C53.9474 11.7051 53.9474 11.7052 53.9474 11.7052ZM53.9474 11.7052C54.0877 12.0443 54.4748 12.2083 54.82 12.0681M54.82 12.0681C54.8198 12.0682 54.8196 12.0683 54.8195 12.0684L54.9612 12.4155L54.8201 12.0681C54.8201 12.0681 54.82 12.0681 54.82 12.0681ZM43.0134 3.02235L43.0134 3.02228C42.4084 2.98101 41.8313 2.98668 41.2624 3.03673C41.0394 3.05069 38.0211 3.29518 35.2789 5.33294L43.0134 3.02235Z" stroke="#484751" stroke-width="0.75"/>
<path d="M54.9312 26.0193L54.9311 26.0195C54.7603 29.7497 53.5729 32.056 52.9415 33.282C52.7745 33.6068 52.9024 34.0046 53.2304 34.1714C53.3304 34.2219 53.4336 34.2453 53.5362 34.2453C53.7795 34.2453 54.0135 34.1121 54.1309 33.8842L54.131 33.884L54.1314 33.8833C54.8171 32.5541 56.0822 30.1017 56.2659 26.0799L54.9312 26.0193ZM54.9312 26.0193C54.9471 25.6668 55.2525 25.3834 55.6339 25.3887M54.9312 26.0193L55.6339 25.3887M55.6339 25.3887C56.0026 25.4077 56.2822 25.7168 56.2659 26.0798L55.6339 25.3887Z" stroke="#484751" stroke-width="0.75"/>
<path d="M43.8665 14.4841L43.8664 14.4841L40.6468 14.527C40.6463 14.527 40.6458 14.5271 40.6453 14.5271C38.7227 14.5667 36.9642 13.5202 36.1389 11.8796L36.1357 11.8732L36.1357 11.8731L36.1327 11.8668C36.1071 11.8134 36.0731 11.7426 36.0501 11.6696C35.9722 11.425 35.7613 11.2452 35.5069 11.2085C35.2475 11.1714 34.9961 11.2845 34.8554 11.497L34.8542 11.4988L34.8542 11.4988C33.9384 12.8643 32.4217 15.7095 32.531 19.4357L32.531 19.4374C32.5537 20.3506 32.6336 23.0918 34.4011 25.7936L43.8665 14.4841ZM43.8665 14.4841C45.6825 14.4594 47.3398 13.4841 48.1855 11.9251C48.2487 11.8101 48.2899 11.725 48.3164 11.6641C48.3297 11.6337 48.3397 11.6084 48.3472 11.5879C48.3508 11.5778 48.3543 11.5676 48.3574 11.5575C48.3587 11.5534 48.3604 11.5476 48.3622 11.5408C48.4358 11.2987 48.6409 11.1175 48.8948 11.0754C49.1491 11.0333 49.4043 11.1411 49.5528 11.3509C50.4967 12.6998 52.0691 15.5142 52.0355 19.2428L52.0355 19.2438C52.0298 20.1578 52.0057 22.8989 50.294 25.6339C49.4924 26.9132 48.3206 28.2188 46.9448 29.2214C45.5677 30.2249 44.0084 30.9092 42.4282 30.9849L42.4064 30.986M43.8665 14.4841L42.4064 30.986M42.4064 30.986L42.3981 30.9873M42.4064 30.986L42.3981 30.9873M42.3981 30.9873L42.3943 30.9874H42.371C40.7895 30.9401 39.2176 30.2868 37.8217 29.3122C36.4256 28.3374 35.2279 27.0563 34.4011 25.7937L42.3981 30.9873ZM49.1569 24.9376L49.1571 24.9374C50.6763 22.51 50.6928 20.1144 50.6986 19.2323C50.7195 16.8937 50.0405 14.9544 49.3404 13.5834L49.0803 13.074L48.7169 13.5156C47.5569 14.9251 45.7937 15.7841 43.8826 15.8085L43.8823 15.8085L40.6599 15.8514L40.6569 15.8515C38.7533 15.892 36.9202 15.0418 35.7296 13.6531L35.3571 13.2186L35.1075 13.7335C34.437 15.1166 33.7997 17.0675 33.8652 19.3999L33.8653 19.4006L33.8657 19.4141C33.8922 20.3048 33.9634 22.6893 35.5231 25.0727L35.5233 25.073C36.2246 26.1422 37.2493 27.2565 38.4329 28.1186C39.6135 28.9784 40.9825 29.609 42.369 29.66L42.3865 29.6606L42.404 29.6596C43.7903 29.5808 45.147 28.9231 46.3101 28.04C47.4763 27.1546 48.478 26.0203 49.1569 24.9376Z" stroke="#484751" stroke-width="0.75"/>
<path d="M56.4913 15.6668L56.4918 15.6687C56.641 16.281 56.8612 16.8901 57.1677 17.4667L57.1695 17.4701L57.1695 17.4701C57.2144 17.5569 57.2629 17.6427 57.3167 17.7355L56.9922 17.9235L57.3163 17.7349C57.6114 18.242 57.9644 18.7244 58.3694 19.1653L58.3777 19.1744L58.3854 19.1839L58.4027 19.2054L58.4141 19.2196C58.4504 19.2602 58.4864 19.2983 58.5248 19.3364L58.5368 19.3484L58.5478 19.3615C58.6762 19.5146 58.8666 19.5998 59.0617 19.5998C59.1341 19.5998 59.2127 19.5864 59.2968 19.5583C59.5595 19.4594 59.732 19.2089 59.7301 18.9315C59.7213 17.5741 59.8985 16.2332 60.2596 14.947C60.3932 14.4573 60.5563 13.9743 60.7514 13.4867L60.8869 13.1479L61.2292 13.2741C61.6794 13.44 62.1379 13.6461 62.6245 13.8693C64.0442 14.5149 65.7498 15.288 68.144 15.288C70.5354 15.288 72.2441 14.5148 73.6607 13.8693C73.6608 13.8693 73.6609 13.8692 73.661 13.8691L73.8165 14.2104L56.4913 15.6668ZM56.4913 15.6668C56.1472 14.2862 56.1443 12.8987 56.2313 11.845C56.2747 11.3197 56.3401 10.8812 56.3949 10.5731C56.4223 10.4191 56.447 10.2979 56.465 10.215C56.4739 10.1735 56.4812 10.1416 56.4862 10.1201C56.4901 10.1036 56.4926 10.0932 56.4936 10.0892C56.4936 10.0892 56.4936 10.0892 56.4936 10.0892C58.0466 4.24408 63.5123 1.60107 68.291 1.60107C73.9257 1.60107 78.425 4.94071 79.7916 10.0892C79.7917 10.0898 79.7919 10.0904 79.7921 10.0912C79.7933 10.0961 79.7956 10.1057 79.7989 10.1199C79.8039 10.1413 79.8111 10.1729 79.82 10.2139C79.8378 10.2961 79.8624 10.4161 79.8897 10.5687C79.9443 10.8739 80.0096 11.3084 80.0535 11.8292C80.1416 12.8737 80.1422 14.2503 79.8078 15.6229L79.8077 15.6232C79.6552 16.2516 79.4348 16.8768 79.1209 17.4656C79.0588 17.5808 78.9988 17.6889 78.9345 17.7956L78.9335 17.7972C78.6438 18.2825 78.3016 18.7435 77.9152 19.1659L77.9072 19.1747L77.8998 19.1839L77.8825 19.2054L77.867 19.2246C77.8373 19.2603 77.8057 19.2938 77.772 19.3252L77.7549 19.3411L77.7399 19.3591C77.5595 19.5749 77.2625 19.6547 76.9949 19.5568L76.9935 19.5563C76.729 19.4607 76.5532 19.2092 76.555 18.9316C76.5668 17.5736 76.3893 16.2322 76.0281 14.9487L56.4913 15.6668ZM77.6132 15.8568L77.8842 17.2686L78.3374 15.9044C78.7093 14.7849 78.7909 13.5802 78.7617 12.5853C78.7325 11.5911 78.5917 10.7786 78.4997 10.4302L78.4996 10.4299C77.0297 4.88349 72.2328 2.92536 68.291 2.92536C64.0873 2.92536 59.1687 5.2235 57.7856 10.4297L57.785 10.4317C57.6843 10.8198 57.5194 11.7914 57.5194 12.9526C57.5194 13.8649 57.6196 14.9167 57.9478 15.9044L58.401 17.2684L58.6719 15.8568C58.7533 15.4327 58.8547 15.01 58.9705 14.5915C59.2011 13.7641 59.5022 12.9472 59.8998 12.1007L59.8998 12.1007L59.901 12.0981C60.0296 11.8187 60.3395 11.6636 60.6391 11.729L60.6431 11.7298C61.5233 11.9118 62.3071 12.2683 63.1807 12.6664L63.1809 12.6665L63.1901 12.6707C64.5561 13.2923 66.0315 13.9637 68.144 13.9637C70.2537 13.9637 71.7291 13.2923 73.095 12.6707L73.104 12.6666L73.1042 12.6665L73.1102 12.6638C73.9847 12.2666 74.7668 11.9114 75.6423 11.7297L75.6423 11.7297L75.6456 11.729C75.9476 11.6635 76.2562 11.818 76.3878 12.0998C76.7832 12.9476 77.0871 13.7647 77.3175 14.5969L77.3176 14.5976C77.433 15.0116 77.5316 15.4314 77.6132 15.8568Z" stroke="#484751" stroke-width="0.75"/>
<path d="M84.6025 21.8372L84.6024 21.8364C84.5477 21.48 84.7954 21.1418 85.1612 21.0864L85.1612 21.0865L85.1633 21.0861C85.5218 21.0298 85.8636 21.2802 85.919 21.6403C86.7113 26.8725 90.1472 30.8318 94.2421 30.8318C98.3343 30.8318 101.77 26.8752 102.565 21.6401C102.621 21.2801 102.962 21.0298 103.321 21.0861L103.323 21.0864C103.689 21.1418 103.936 21.48 103.882 21.8364L103.882 21.8368C102.962 27.8863 98.857 32.1503 94.2392 32.1503C89.6243 32.1503 85.5167 27.8863 84.6025 21.8372ZM84.2317 21.8932L84.2317 21.8932L84.2317 21.8932Z" stroke="#484751" stroke-width="0.75"/>
<path d="M90.91 21.0839L90.9016 21.0836L90.8932 21.0837C90.7275 21.0862 90.5911 21.1348 90.4952 21.1827C90.4468 21.2069 90.4069 21.2318 90.3766 21.2526C90.3614 21.2631 90.3486 21.2725 90.3385 21.2801C90.3302 21.2863 90.3193 21.2949 90.3207 21.2938L90.3113 21.3011L90.3023 21.309C90.0279 21.5507 89.6071 21.5251 89.3637 21.2502L89.3638 21.2502L89.3629 21.2493C89.122 20.979 89.1486 20.5617 89.422 20.3229L89.422 20.3229L89.4242 20.3209C89.6052 20.1602 90.1234 19.7784 90.8732 19.7651H90.8733H90.8733H90.8734H90.8735H90.8736H90.8736H90.8737H90.8738H90.8738H90.8739H90.874H90.8741H90.8741H90.8742H90.8743H90.8743H90.8744H90.8745H90.8746H90.8746H90.8747H90.8748H90.8748H90.8749H90.875H90.8751H90.8751H90.8752H90.8753H90.8753H90.8754H90.8755H90.8756H90.8756H90.8757H90.8758H90.8758H90.8759H90.876H90.8761H90.8761H90.8762H90.8763H90.8764H90.8764H90.8765H90.8766H90.8766H90.8767H90.8768H90.8769H90.8769H90.877H90.8771H90.8772H90.8772H90.8773H90.8774H90.8774H90.8775H90.8776H90.8777H90.8777H90.8778H90.8779H90.878H90.878H90.8781H90.8782H90.8782H90.8783H90.8784H90.8785H90.8785H90.8786H90.8787H90.8788H90.8788H90.8789H90.879H90.8791H90.8791H90.8792H90.8793H90.8794H90.8794H90.8795H90.8796H90.8797H90.8797H90.8798H90.8799H90.8799H90.88H90.8801H90.8802H90.8802H90.8803H90.8804H90.8805H90.8805H90.8806H90.8807H90.8808H90.8808H90.8809H90.881H90.8811H90.8811H90.8812H90.8813H90.8814H90.8814H90.8815H90.8816H90.8817H90.8817H90.8818H90.8819H90.882H90.882H90.8821H90.8822H90.8823H90.8823H90.8824H90.8825H90.8826H90.8826H90.8827H90.8828H90.8829H90.8829H90.883H90.8831H90.8832H90.8832H90.8833H90.8834H90.8835H90.8835H90.8836H90.8837H90.8838H90.8838H90.8839H90.884H90.8841H90.8841H90.8842H90.8843H90.8844H90.8844H90.8845H90.8846H90.8847H90.8847H90.8848H90.8849H90.885H90.8851H90.8851H90.8852H90.8853H90.8854H90.8854H90.8855H90.8856H90.8857H90.8857H90.8858H90.8859H90.886H90.886H90.8861H90.8862H90.8863H90.8863H90.8864H90.8865H90.8866H90.8866H90.8867H90.8868H90.8869H90.8869H90.887H90.8871H90.8872H90.8873H90.8873H90.8874H90.8875H90.8876H90.8876H90.8877H90.8878H90.8879H90.8879H90.888H90.8881H90.8882H90.8882H90.8883H90.8884H90.8885H90.8885H90.8886H90.8887H90.8888H90.8888H90.8889H90.889H90.8891H90.8892H90.8892H90.8893H90.8894H90.8895H90.8895H90.8896H90.8897H90.8898H90.8898H90.8899H90.89H90.8901H90.8901H90.8902H90.8903H90.8904H90.8904H90.8905H90.8906H90.8907H90.8907H90.8908H90.8909H90.891H90.8911H90.8911H90.8912H90.8913H90.8914H90.8914H90.8915H90.8916H90.8917H90.8917H90.8918H90.8919H90.892H90.892H90.8921H90.8922H90.8923H90.8923H90.8924H90.8925H90.8926H90.8926H90.8927H90.8928H90.8929H90.8929H90.893H90.8931H90.8932H90.8932H90.8933H90.8934H90.8935H90.8935H90.8936H90.8937H90.8938H90.8939H90.8939H90.894H90.8941H90.8942H90.8942H90.8943H90.8944H90.8945H90.8945H90.8946H90.8947H90.8948H90.8948H90.8949H90.895H90.8951H90.8951H90.8952H90.8953H90.8954H90.8954H90.8955H90.8956H90.8957H90.8957H90.8958H90.8959H90.896H90.896H90.8961H90.8962H90.8963H90.8963H90.8964H90.8965H90.8966H90.8966H90.8967H90.8968H90.8969H90.8969H90.897H90.8971H90.8971H90.8972H90.8973H90.8974H90.8974H90.8975H90.8976H90.8977H90.8977H90.8978H90.8979H90.898H90.898H90.8981H90.8982H90.8983H90.8983H90.8984H90.8985H90.8986H90.8986H90.8987H90.8988H90.8989H90.8989H90.899H90.8991H90.8991H90.8992H90.8993H90.8994H90.8994H90.8995H90.8996H90.8997H90.8997H90.8998H90.8999H90.9H90.9H90.9001H90.9002H90.9002H90.9003H90.9004H90.9005H90.9005H90.9006H90.9007H90.9008H90.9008H90.9009H90.901H90.901H90.9011H90.9012H90.9013H90.9013H90.9014H90.9015H90.9016H90.9016H90.9017H90.9018H90.9018H90.9019H90.902H90.9021H90.9021H90.9022H90.9023H90.9023H90.9024H90.9025H90.9026H90.9026H90.9027H90.9028H90.9028H90.9029H90.903H90.9031H90.9031H90.9032H90.9033H90.9033H90.9034H90.9035H90.9036H90.9036H90.9037H90.9038H90.9038H90.9039H90.904H90.9041H90.9041H90.9042H90.9043H90.9043H90.9044H90.9045H90.9045H90.9046H90.9047H90.9048H90.9048H90.9049H90.905H90.905H90.9051H90.9052H90.9052H90.9053H90.9054H90.9055H90.9055H90.9056H90.9057H90.9057H90.9058H90.9059H90.9059H90.906H90.9061H90.9061H90.9062H90.9063H90.9063H90.9064H90.9065H90.9066H90.9066H90.9067H90.9068H90.9068H90.9069H90.907H90.907H90.9071H90.9072H90.9072H90.9073H90.9074H90.9074H90.9075C91.67 19.7651 92.1988 20.1517 92.3893 20.3193L92.39 20.3199C92.6671 20.5623 92.6925 20.977 92.4547 21.2467C92.3203 21.3966 92.1351 21.4733 91.9509 21.4733C91.7975 21.4733 91.6392 21.4189 91.5088 21.3085C91.4385 21.2481 91.214 21.0929 90.91 21.0839Z" stroke="#484751" stroke-width="0.75"/>
<path d="M99.3458 20.3457L99.3458 20.3457L99.3469 20.3468C99.6077 20.6006 99.6122 21.0173 99.3565 21.2751C99.0964 21.5374 98.6754 21.5406 98.4153 21.2857C98.3819 21.2529 98.1706 21.0576 97.8474 21.0525L97.8474 21.0524H97.8415H97.8357C97.5014 21.0524 97.2754 21.2684 97.2824 21.2629L97.2683 21.2741L97.2553 21.2866C97.1264 21.4111 96.9586 21.4736 96.7923 21.4736C96.6192 21.4736 96.4453 21.4061 96.313 21.2732C96.0586 21.0121 96.0645 20.5987 96.3259 20.3455C96.5207 20.1595 97.0483 19.7339 97.8357 19.7339H97.8358H97.8359H97.8359H97.836H97.8361H97.8361H97.8362H97.8363H97.8363H97.8364H97.8365H97.8365H97.8366H97.8367H97.8367H97.8368H97.8369H97.8369H97.837H97.8371H97.8371H97.8372H97.8373H97.8373H97.8374H97.8375H97.8375H97.8376H97.8377H97.8377H97.8378H97.8379H97.8379H97.838H97.8381H97.8381H97.8382H97.8383H97.8383H97.8384H97.8384H97.8385H97.8386H97.8386H97.8387H97.8388H97.8388H97.8389H97.839H97.839H97.8391H97.8392H97.8392H97.8393H97.8394H97.8394H97.8395H97.8395H97.8396H97.8397H97.8397H97.8398H97.8399H97.8399H97.84H97.8401H97.8401H97.8402H97.8403H97.8403H97.8404H97.8404H97.8405H97.8406H97.8406H97.8407H97.8408H97.8408H97.8409H97.8409H97.841H97.8411H97.8411H97.8412H97.8413H97.8413H97.8414H97.8415H97.8415H97.8416H97.8416H97.8417H97.8418H97.8418H97.8419H97.842H97.842H97.8421H97.8421H97.8422H97.8423H97.8423H97.8424H97.8424H97.8425H97.8426H97.8426H97.8427H97.8428H97.8428H97.8429H97.8429H97.843H97.8431H97.8431H97.8432H97.8433H97.8433H97.8434H97.8434H97.8435H97.8436H97.8436H97.8437H97.8437H97.8438H97.8439H97.8439H97.844H97.8441H97.8441H97.8442H97.8442H97.8443H97.8444H97.8444H97.8445H97.8445H97.8446H97.8447H97.8447H97.8448H97.8448H97.8449H97.845H97.845H97.8451H97.8451H97.8452H97.8453H97.8453H97.8454H97.8455H97.8455H97.8456H97.8456H97.8457H97.8458H97.8458H97.8459H97.8459H97.846H97.8461H97.8461H97.8462H97.8462H97.8463H97.8464H97.8464H97.8465H97.8465H97.8466H97.8467H97.8467H97.8468H97.8468H97.8469H97.847H97.847H97.8471H97.8471H97.8472H97.8473H97.8473H97.8474H97.8474H97.8475H97.8476H97.8476H97.8477H97.8477H97.8478H97.8479H97.8479H97.848H97.848H97.8481H97.8481H97.8482H97.8483H97.8483H97.8484H97.8484H97.8485H97.8486H97.8486H97.8487H97.8487H97.8488H97.8489H97.8489H97.849H97.849H97.8491H97.8492H97.8492H97.8493H97.8493H97.8494H97.8495H97.8495H97.8496H97.8496H97.8497H97.8498H97.8498H97.8499H97.8499H97.85H97.85H97.8501H97.8502H97.8502H97.8503H97.8503H97.8504H97.8505H97.8505H97.8506H97.8506H97.8507H97.8508H97.8508H97.8509H97.8509H97.851H97.8511H97.8511H97.8512H97.8512H97.8513H97.8514H97.8514H97.8515H97.8515H97.8516H97.8516H97.8517H97.8518H97.8518H97.8519H97.8519H97.852H97.8521H97.8521H97.8522H97.8522H97.8523H97.8524H97.8524H97.8525H97.8525H97.8526H97.8527H97.8527H97.8528H97.8528H97.8529H97.8529H97.853H97.8531H97.8531H97.8532H97.8532H97.8533H97.8534H97.8534H97.8535H97.8535H97.8536H97.8537H97.8537H97.8538H97.8538H97.8539H97.854H97.854H97.8541H97.8541H97.8542H97.8543H97.8543H97.8544H97.8544H97.8545H97.8545H97.8546H97.8547H97.8547H97.8548H97.8548H97.8549H97.855H97.855H97.8551H97.8551H97.8552H97.8553H97.8553H97.8554H97.8554H97.8555H97.8556H97.8556H97.8557H97.8557H97.8558H97.8559H97.8559H97.856H97.856H97.8561H97.8562H97.8562H97.8563H97.8563H97.8564H97.8565H97.8565H97.8566H97.8566H97.8567H97.8568H97.8568H97.8569H97.8569H97.857H97.8571H97.8571H97.8572H97.8572H97.8573H97.8574H97.8574H97.8575H97.8575H97.8576H97.8577H97.8577H97.8578H97.8578H97.8579H97.858H97.858H97.8581H97.8581H97.8582H97.8583H97.8583H97.8584H97.8585H97.8585H97.8586H97.8586H97.8587H97.8588H97.8588H97.8589H97.8589H97.859H97.8591H97.8591H97.8592H97.8592H97.8593H97.8594H97.8594H97.8595H97.8596H97.8596H97.8597H97.8597H97.8598H97.8599H97.8599H97.86H97.86H97.8601H97.8602H97.8602H97.8603H97.8604H97.8604H97.8605H97.8605H97.8606H97.8607H97.8607H97.8608H97.8608H97.8609H97.861H97.861H97.8611H97.8612H97.8612H97.8613H97.8613H97.8614H97.8615H97.8615H97.8616H97.8617H97.8617H97.8618H97.8618H97.8619H97.862H97.862H97.8621H97.8622H97.8622H97.8623H97.8624H97.8624H97.8625H97.8625H97.8626H97.8627H97.8627H97.8628H97.8629H97.8629H97.863H97.8631H97.8631H97.8632H97.8632H97.8633H97.8634H97.8634H97.8635H97.8636H97.8636H97.8637H97.8638H97.8638H97.8639H97.8639H97.864H97.8641H97.8641H97.8642H97.8643H97.8643H97.8644H97.8645H97.8645H97.8646H97.8647H97.8647H97.8648H97.8649H97.8649H97.865H97.865C98.6463 19.7444 99.1632 20.1667 99.3458 20.3457Z" stroke="#484751" stroke-width="0.75"/>
<path d="M92.2868 26.5448L92.2872 26.545C92.911 27.0159 93.5655 27.2718 94.2425 27.2718C94.9195 27.2718 95.574 27.0159 96.1978 26.545L96.1981 26.5448C96.4903 26.3238 96.9079 26.3808 97.1325 26.6712C97.3516 26.9609 97.2956 27.3722 97.0054 27.5939C96.1235 28.2544 95.1693 28.5925 94.2396 28.5925C93.3122 28.5925 92.3552 28.254 91.4795 27.5939C91.1863 27.3719 91.1308 26.9608 91.3524 26.6714C91.5758 26.3795 91.9931 26.3226 92.2868 26.5448Z" stroke="#484751" stroke-width="0.75"/>
<path d="M84.6386 21.9335L84.6015 21.8142L84.5002 21.741C84.4821 21.728 84.464 21.7155 84.4503 21.7062C84.4482 21.7048 84.4463 21.7034 84.4445 21.7022C84.4289 21.6915 84.4175 21.6836 84.4066 21.6755L84.4067 21.6754L84.3973 21.6688C84.1334 21.4843 83.8766 21.282 83.6462 20.9791C83.4164 20.6772 83.2003 20.2581 83.0481 19.6302L83.0481 19.6301C82.7877 18.5562 82.8247 17.8218 82.9762 17.3235C83.1255 16.8321 83.3937 16.5446 83.6514 16.3707L83.6517 16.3706C84.1781 16.0149 84.8915 16.0243 85.479 16.431C85.7781 16.6391 85.8517 17.0491 85.6422 17.3489C85.448 17.6255 85.0731 17.7094 84.7796 17.5497L84.3451 17.3134L84.2349 17.7956C84.1747 18.0586 84.1523 18.5272 84.3455 19.3254L84.3456 19.3258C84.437 19.7014 84.5477 19.9655 84.6987 20.1701C84.8455 20.3689 85.0141 20.4866 85.1533 20.5838C85.1578 20.5869 85.1623 20.5901 85.1668 20.5932C85.4526 20.7929 85.8199 21.0569 85.9302 21.6129C85.999 21.9671 85.7709 22.3113 85.4105 22.3862C85.3583 22.3942 85.314 22.3976 85.272 22.3976C84.9817 22.3976 84.7247 22.2103 84.6386 21.9335Z" stroke="#484751" stroke-width="0.75"/>
<path d="M103.129 22.3863L103.129 22.3862L103.124 22.3853C102.763 22.3157 102.53 21.9688 102.599 21.611C102.71 21.055 103.077 20.791 103.363 20.5912C103.367 20.5883 103.371 20.5854 103.375 20.5825C103.515 20.485 103.685 20.3665 103.832 20.1665C103.983 19.9611 104.094 19.6961 104.184 19.3202C104.377 18.525 104.355 18.0565 104.295 17.7936L104.187 17.3235L103.758 17.5435C103.459 17.6967 103.086 17.6081 102.898 17.3408L102.898 17.3405C102.687 17.0396 102.755 16.6365 103.051 16.4286C103.638 16.0223 104.352 16.0131 104.878 16.3686L104.878 16.3688C105.136 16.5427 105.404 16.8301 105.553 17.3216C105.705 17.8199 105.742 18.5543 105.481 19.6282L105.481 19.6282C105.329 20.2562 105.113 20.6752 104.883 20.9772C104.654 21.2786 104.398 21.4804 104.136 21.6642L104.135 21.6647C104.104 21.6854 104.057 21.7162 104.016 21.7494L103.925 21.8215L103.891 21.9322C103.805 22.2106 103.546 22.3985 103.255 22.3985C103.211 22.3985 103.17 22.3948 103.129 22.3863Z" stroke="#484751" stroke-width="0.75"/>
<path d="M82.5664 26.8591L82.6412 26.9905C83.1741 27.9277 84.1795 28.5485 85.3269 28.5771C86.2798 28.5516 87.1557 28.1072 87.739 27.346L87.7396 27.3453C87.9601 27.0591 87.9053 26.6449 87.6135 26.4228C87.3219 26.2008 86.9027 26.2565 86.6801 26.5471L82.5664 26.8591ZM82.5664 26.8591L82.4215 26.8163M82.5664 26.8591L82.4215 26.8163M82.4215 26.8163C81.8685 26.6529 81.265 26.2586 81.0036 25.4432C80.894 25.0976 81.0858 24.727 81.436 24.6171C81.7891 24.5063 82.1624 24.7012 82.272 25.0461L82.272 25.0461M82.4215 26.8163L82.272 25.0461M82.272 25.0461L82.2725 25.0478M82.272 25.0461L82.2725 25.0478M82.2725 25.0478C82.4247 25.519 82.8759 25.5836 83.0362 25.5908L83.0446 25.5912M82.2725 25.0478L83.0446 25.5912M83.0446 25.5912H83.0531M83.0446 25.5912H83.0531M83.0531 25.5912C83.329 25.5912 83.5665 25.7628 83.6611 26.0371C83.9049 26.749 84.5697 27.2375 85.3182 27.2557L85.3283 27.2559M83.0531 25.5912L85.3283 27.2559M85.3283 27.2559L85.3384 27.2556M85.3283 27.2559L85.3384 27.2556M85.3384 27.2556C85.8425 27.2407 86.3494 26.9793 86.68 26.5472L85.3384 27.2556Z" stroke="#484751" stroke-width="0.75"/>
<path d="M101.146 27.6383L101.147 27.6384C101.72 28.2216 102.485 28.5577 103.357 28.5778C104.47 28.5467 105.482 27.9179 106.014 26.9602L106.086 26.8297L106.228 26.7847C107.51 26.3796 108.419 25.1854 108.419 23.8245C108.419 23.7286 108.414 23.6301 108.404 23.5345L108.375 23.2643L108.623 23.153C109.72 22.6605 110.477 21.5641 110.477 20.3149C110.477 19.8152 110.354 19.3295 110.13 18.8936L109.977 18.5968L110.254 18.4106C111.088 17.8504 111.624 16.908 111.624 15.8397C111.624 15.0689 111.337 14.3434 110.837 13.7828L110.653 13.5764L110.796 13.3396C111.081 12.8676 111.235 12.3243 111.235 11.7599C111.235 10.4996 110.459 9.39224 109.329 8.90388L109.034 8.77645L109.114 8.46553C109.179 8.21785 109.212 7.96296 109.212 7.70301C109.212 6.11179 107.967 4.76037 106.342 4.60093L106.011 4.5684L106.004 4.23533C105.971 2.59531 104.616 1.22437 102.899 1.17911C102.636 1.18485 102.377 1.22542 102.126 1.29872L101.822 1.38712L101.684 1.10278C101.185 0.0791028 100.129 -0.649002 98.8874 -0.680289C98.4142 -0.668879 97.9619 -0.551445 97.5553 -0.345519L97.2459 -0.188861L97.0656 -0.485057C96.5257 -1.37177 95.5454 -1.97963 94.4104 -2.00689C94.4057 -2.00685 94.4022 -2.00674 94.3967 -2.00657C94.3915 -2.0064 94.3844 -2.00618 94.3729 -2.00592C94.3575 -2.00557 94.3325 -2.00516 94.3035 -2.007C94.2846 -2.00722 94.266 -2.00779 94.2505 -2.00827L94.2429 -2.0085C94.2215 -2.00915 94.2007 -2.0097 94.1767 -2.00976C93.0757 -1.97999 92.1057 -1.37442 91.5672 -0.485736L91.3875 -0.189297L91.0779 -0.345083C90.6643 -0.553199 90.1977 -0.671641 89.6995 -0.683147C88.4921 -0.649271 87.446 0.0761855 86.9493 1.10463L86.8124 1.38797L86.5096 1.3024C86.2476 1.22836 85.971 1.18486 85.6873 1.1791C84.0257 1.22149 82.6675 2.58883 82.6342 4.23246L82.6273 4.56917L82.2918 4.59844C81.3227 4.68298 80.445 5.20793 79.9175 6.03153L79.9175 6.03159C79.7212 6.33784 79.8108 6.74385 80.1194 6.93922L80.1207 6.94006C80.4299 7.13766 80.8411 7.0463 81.0383 6.73886L101.146 27.6383ZM101.146 27.6383C100.891 27.3793 100.896 26.9626 101.157 26.71L101.159 26.7081M101.146 27.6383L101.159 26.7081M101.159 26.7081C101.42 26.4528 101.842 26.4574 102.098 26.7197L102.099 26.7206M101.159 26.7081L102.099 26.7206M102.099 26.7206C102.43 27.0568 102.874 27.2477 103.344 27.2621L103.354 27.2624M102.099 26.7206L103.354 27.2624M103.354 27.2624L103.365 27.2621M103.354 27.2624L103.365 27.2621M103.365 27.2621C104.074 27.2434 104.728 26.7435 104.972 26.0453L104.973 26.0426M103.365 27.2621L104.973 26.0426M104.973 26.0426C105.053 25.8072 105.261 25.6363 105.514 25.6031L105.515 25.603M104.973 26.0426L105.515 25.603M105.515 25.603C106.405 25.4843 107.085 24.7282 107.085 23.8303C107.085 23.5621 107.017 23.3005 106.898 23.0544L106.898 23.0537M105.515 25.603L106.898 23.0537M106.898 23.0537C106.803 22.8575 106.811 22.6261 106.921 22.4354C107.035 22.244 107.234 22.1229 107.45 22.1103L107.452 22.1101C108.397 22.0489 109.143 21.2704 109.143 20.3235C109.143 19.7228 108.839 19.166 108.34 18.8315L108.339 18.8309C108.106 18.6759 107.998 18.3921 108.068 18.1224C108.138 17.8517 108.369 17.6541 108.65 17.6285L108.65 17.6284C109.579 17.5422 110.29 16.7801 110.29 15.8483C110.29 15.1805 109.915 14.5763 109.32 14.2642M106.898 23.0537L109.32 14.2642M109.32 14.2642C109.122 14.1601 108.991 13.9656 108.969 13.7442C108.949 13.5229 109.041 13.3061 109.215 13.1679C109.647 12.8246 109.901 12.3142 109.901 11.7685C109.901 10.816 109.141 10.0273 108.199 9.97305L108.162 9.9709L108.125 9.97616L107.989 9.99543C107.719 10.0246 107.45 9.88419 107.322 9.64286C107.196 9.4004 107.233 9.10591 107.416 8.90193L107.416 8.90184C107.622 8.67226 107.881 8.26886 107.881 7.70874C107.881 6.7355 107.088 5.93162 106.116 5.90991L106.106 5.90968L106.096 5.91002C105.846 5.91815 105.562 6.00753 105.301 6.15748L105.301 6.15769C105.038 6.30906 104.704 6.26227 104.492 6.04346L104.491 6.04234C104.28 5.82794 104.243 5.49665 104.403 5.23917C104.583 4.95 104.676 4.63259 104.676 4.29935C104.676 3.32663 103.886 2.52223 102.911 2.50052L102.901 2.50031L102.891 2.5006C102.384 2.51576 101.994 2.77802 101.773 2.98L102.026 3.25648M109.32 14.2642L100.891 3.43411C101.271 3.60888 101.718 3.53725 102.026 3.25648M102.026 3.25648C102.211 3.08744 102.519 2.88689 102.903 2.87543L84.235 5.2363C84.0554 4.94713 83.9624 4.62972 83.9624 4.29649C83.9624 3.3302 84.7478 2.52354 85.6759 2.49771L85.6861 2.49743L85.6963 2.4977C86.2468 2.51229 86.6377 2.76891 86.865 2.97714L86.8653 2.9774C87.057 3.15345 87.3393 3.20096 87.5829 3.09613C87.8254 2.98888 87.9804 2.7503 87.9804 2.49152C87.9804 2.47591 87.9791 2.45663 87.9762 2.4254L87.9741 2.40186L87.9749 2.37824C88.0074 1.44108 88.776 0.657645 89.6895 0.635407L89.6984 0.63519L89.7073 0.635397C90.333 0.649945 90.8972 0.988857 91.2151 1.53062C91.3695 1.7913 91.6806 1.91571 91.9769 1.83285C92.2672 1.74885 92.4621 1.48261 92.4571 1.18568L92.4538 1.14755L92.4494 1.09606L92.4476 1.07465L92.4483 1.05317C92.4772 0.114619 93.2467 -0.66887 94.16 -0.691102L94.172 -0.691395L94.1841 -0.690917L94.2561 -0.688052L94.2619 -0.687822L94.2619 -0.687778C94.295 -0.685947 94.3282 -0.685709 94.3613 -0.687064L94.3643 -0.687488L94.3948 -0.691817L94.4256 -0.691116C95.3792 -0.669408 96.1606 0.105416 96.1898 1.05317L96.1909 1.08783L96.1856 1.12209C96.1843 1.13056 96.1831 1.14089 96.1822 1.15093L96.1815 1.16274C96.1814 1.16436 96.1813 1.16533 96.1813 1.16569V1.17644L96.1812 1.17643C96.172 1.47744 96.3684 1.74865 96.6623 1.83316C96.9575 1.91806 97.2712 1.79162 97.4229 1.5336C97.737 0.998176 98.2976 0.653342 98.8808 0.638286L98.8906 0.638032L98.9004 0.638293C99.8517 0.663556 100.634 1.43355 100.663 2.38255L100.664 2.40923L100.661 2.43576C100.66 2.44953 100.659 2.45806 100.658 2.4652L100.658 2.46946V2.47614L100.657 2.47613C100.65 2.73965 100.802 2.98236 101.045 3.09237L101.047 3.09334C101.29 3.20474 101.576 3.15959 101.774 2.97918L102.026 3.25648ZM82.478 5.90683L82.4877 5.90707C82.7838 5.91452 83.0689 6.0005 83.3362 6.15421C83.5993 6.30374 83.9342 6.25653 84.1469 6.04004C84.3586 5.82184 84.3942 5.49289 84.235 5.23637L82.478 5.90683ZM82.478 5.90683L82.4682 5.90709M82.478 5.90683L82.4682 5.90709M82.4682 5.90709C81.9117 5.92204 81.3588 6.23781 81.0384 6.73873L82.4682 5.90709Z" stroke="#484751" stroke-width="0.75"/>
<path d="M56.8963 22.6633L56.9279 22.7843C57.0052 23.0806 57.2747 23.2833 57.5738 23.2833C57.6089 23.2833 57.653 23.2787 57.7068 23.2695C58.0671 23.1955 58.2948 22.8523 58.2263 22.5017C58.1046 21.8888 57.7062 21.6017 57.3688 21.3679L57.3656 21.3656L57.3656 21.3656C57.3602 21.3618 57.3548 21.3579 57.3493 21.354C57.1798 21.234 56.9762 21.0899 56.7946 20.8478C56.6069 20.5974 56.459 20.2669 56.3418 19.7845L56.8963 22.6633ZM56.8963 22.6633L56.7984 22.5855M56.8963 22.6633L56.7984 22.5855M57.7405 16.4199C57.0851 15.9662 56.2942 15.9533 55.7117 16.3478L57.7405 16.4199ZM57.7405 16.4199C58.0395 16.6279 58.1131 17.0378 57.9039 17.3375C57.6948 17.6341 57.2798 17.7095 56.9755 17.5003C56.9448 17.4787 56.9145 17.4615 56.8855 17.4477L56.6684 17.124L56.3492 17.5259C56.3122 17.5725 56.2884 17.6235 56.2748 17.6555C56.2577 17.6955 56.2415 17.7421 56.2269 17.7951C56.1974 17.9015 56.1722 18.0411 56.1609 18.2179C56.1382 18.5716 56.1705 19.0807 56.3418 19.7844L57.7405 16.4199ZM56.7984 22.5855C56.7468 22.5444 56.6653 22.4852 56.5976 22.4402M56.7984 22.5855L56.5976 22.4402M56.5976 22.4402C56.3583 22.2727 56.0731 22.0708 55.7959 21.7248C55.5183 21.3785 55.2371 20.872 55.0473 20.0917C54.749 18.8601 54.7842 18.0156 54.9526 17.4406C55.1188 16.8731 55.4214 16.5444 55.7117 16.3478L56.5976 22.4402Z" stroke="#484751" stroke-width="0.75"/>
<path d="M78.8232 23.271L78.8232 23.271C78.8635 23.2793 78.9067 23.2833 78.9518 23.2833C79.2503 23.2833 79.5195 23.0786 79.5945 22.7859L79.6273 22.6575L79.7336 22.5783C79.7822 22.5421 79.8602 22.4854 79.9218 22.4425M78.8232 23.271L80.8081 16.3478L81.0184 16.0373L80.8082 16.3478C81.0985 16.5444 81.4011 16.8732 81.5676 17.4407C81.7364 18.0159 81.7722 18.8605 81.4753 20.0922C81.2869 20.8738 81.0058 21.3798 80.7282 21.7256C80.4494 22.0727 80.1625 22.2741 79.9218 22.4425M78.8232 23.271L78.8203 23.2704C78.4573 23.1983 78.2275 22.8535 78.2965 22.5013L78.2967 22.5008C78.4156 21.8889 78.8154 21.6025 79.1522 21.367M78.8232 23.271L79.1522 21.367M79.9218 22.4425C79.922 22.4424 79.9221 22.4423 79.9223 22.4422L80.1364 22.7501L79.9214 22.4428C79.9215 22.4427 79.9217 22.4426 79.9218 22.4425ZM79.1522 21.367L79.1597 21.3618C79.3339 21.2408 79.5423 21.096 79.7274 20.8492C79.9154 20.5985 80.0626 20.2676 80.1782 19.7867L79.1522 21.367ZM79.7043 17.7294L80.1297 17.5057C80.202 17.5878 80.249 17.6987 80.2805 17.8029C80.3152 17.9182 80.3422 18.0637 80.3542 18.2422C80.3782 18.5992 80.3434 19.1015 80.1782 19.7866L79.7043 17.7294ZM79.7043 17.7294L79.558 17.519C79.5912 17.479 79.6239 17.4569 79.6337 17.4503C79.6463 17.4419 79.6584 17.4353 79.6643 17.4322M79.7043 17.7294L79.7399 17.7807L79.7588 17.8079L79.7398 17.7807L79.7039 17.7296M79.6643 17.4322C79.6671 17.4309 79.6682 17.4303 79.6681 17.4304C79.668 17.4304 79.6666 17.4311 79.6643 17.4322ZM79.6643 17.4322C79.6637 17.4326 79.6629 17.433 79.662 17.4334C79.6611 17.4338 79.6601 17.4343 79.6589 17.4348C79.641 17.4433 79.5939 17.4655 79.5435 17.5009L79.557 17.5202M79.557 17.5202C79.5521 17.5262 79.5472 17.5325 79.5423 17.5393C79.5214 17.5685 79.4974 17.6112 79.4838 17.667C79.4697 17.7252 79.4698 17.7863 79.4845 17.8449L79.7039 17.7296M79.557 17.5202L79.7039 17.7296M79.557 17.5202L79.7039 17.7296" stroke="#484751" stroke-width="0.75"/>
<path d="M56.9179 22.726L56.9178 22.7254C56.8632 22.369 57.1107 22.0309 57.4765 21.9755C57.8433 21.9203 58.1792 22.1701 58.2344 22.5293C59.1884 28.8377 63.346 33.5744 68.2639 33.5744C73.182 33.5744 77.3366 28.8374 78.2934 22.529C78.3486 22.1708 78.6894 21.9204 79.0509 21.9754L79.0512 21.9754C79.417 22.0308 79.6646 22.3689 79.61 22.7254L79.6099 22.7259C78.5283 29.8509 73.7051 34.893 68.2639 34.893C62.8226 34.893 57.9966 29.8508 56.9179 22.726Z" stroke="#484751" stroke-width="0.75"/>
<path d="M65.9704 22.1838H63.4829C63.1143 22.1838 62.8174 21.8854 62.8174 21.5245C62.8174 21.1636 63.1143 20.8652 63.4829 20.8652H65.9704C66.339 20.8652 66.6359 21.1636 66.6359 21.5245C66.6359 21.8876 66.3397 22.1838 65.9704 22.1838Z" stroke="#484751" stroke-width="0.75"/>
<path d="M73.7859 22.1838H71.3013C70.9327 22.1838 70.6357 21.8854 70.6357 21.5245C70.6357 21.1636 70.9327 20.8652 71.3013 20.8652H73.7859C74.1545 20.8652 74.4514 21.1636 74.4514 21.5245C74.4514 21.8876 74.1552 22.1838 73.7859 22.1838Z" stroke="#484751" stroke-width="0.75"/>
<path d="M65.0515 29.4956L65.0508 29.495C64.7596 29.2765 64.7024 28.8634 64.9246 28.5732L64.9255 28.572C65.1454 28.2824 65.5646 28.2239 65.8591 28.4466L65.8597 28.4471C66.6299 29.0274 67.4357 29.3369 68.263 29.3369C69.0903 29.3369 69.896 29.0274 70.6662 28.4471L70.6668 28.4466C70.959 28.2256 71.3766 28.2827 71.6012 28.5731C71.8202 28.8627 71.7643 29.2739 71.4742 29.4957C70.4476 30.2626 69.3377 30.6576 68.2615 30.6576C67.1814 30.6576 66.0714 30.2647 65.0515 29.4956Z" stroke="#484751" stroke-width="0.75"/>
<path d="M55.3228 55.3024C54.9541 55.3024 54.6572 55.004 54.6572 54.6431V47.1969C54.6572 46.836 54.9541 46.5376 55.3228 46.5376C55.6914 46.5376 55.9883 46.836 55.9883 47.1969V54.6431C55.9883 55.0062 55.692 55.3024 55.3228 55.3024Z" stroke="#484751" stroke-width="0.75"/>
<path d="M75.0273 41.5766L75.0273 41.5766L75.0228 41.5743L67.803 37.8987C67.8029 37.8987 67.8029 37.8987 67.8028 37.8986C67.4753 37.7312 67.3472 37.3352 67.5131 37.0122C67.681 36.6881 68.0843 36.5579 68.41 36.7244L68.4106 36.7247L74.2618 39.7014L74.7552 39.9525L74.8053 39.4011L75.2578 34.4134C75.2578 34.4133 75.2578 34.4133 75.2578 34.4132C75.2906 34.0547 75.6078 33.7849 75.9816 33.8159C76.3479 33.8496 76.6161 34.1733 76.5833 34.5313L76.5833 34.5316L75.9925 41.0458C75.9925 41.0459 75.9925 41.046 75.9924 41.0461C75.9721 41.2632 75.8456 41.4583 75.6542 41.5643C75.5464 41.6213 75.4346 41.6481 75.3253 41.6481C75.2205 41.6481 75.1167 41.6237 75.0273 41.5766Z" stroke="#484751" stroke-width="0.75"/>
<path d="M60.6945 41.5659L60.6937 41.5655C60.5004 41.4594 60.3737 41.2661 60.3534 41.0463C60.3534 41.0462 60.3534 41.0461 60.3534 41.0461L59.7625 34.5316L59.7625 34.5314C59.7297 34.1711 59.9974 33.8497 60.3642 33.8159C60.7404 33.7849 61.0551 34.0542 61.088 34.4132C61.088 34.4133 61.088 34.4133 61.088 34.4134L61.5405 39.4011L61.5906 39.9525L62.0841 39.7014L67.9352 36.7247L67.9358 36.7244C68.2617 36.5579 68.6652 36.6882 68.8329 37.0125C68.9989 37.3335 68.8724 37.7313 68.5436 37.8983L68.5434 37.8984L61.3202 41.5743L61.3183 41.5753C61.2235 41.6242 61.1214 41.6481 61.0147 41.6481C60.9038 41.6481 60.7934 41.6205 60.6945 41.5659Z" stroke="#484751" stroke-width="0.75"/>
<path d="M81.1795 59.7161C76.9177 61.3226 72.3767 62.1535 67.7651 62.1535C60.2239 62.1535 52.9378 59.9492 46.6873 55.779C46.3821 55.5749 46.3029 55.1673 46.5061 54.8697L46.5076 54.8676C46.7119 54.5639 47.125 54.4829 47.4292 54.6864L47.4295 54.6866C53.4608 58.7103 60.4912 60.835 67.7651 60.835C71.7541 60.835 75.6895 60.1884 79.4236 58.9395C79.9733 59.2603 80.5614 59.5224 81.1795 59.7161Z" stroke="#484751" stroke-width="0.75"/>
<path d="M96.8052 10.887L96.874 11.2557C97.5587 11.1278 98.0795 10.5684 98.19 9.88386L98.1903 9.88178C98.2418 9.55135 98.5197 9.31303 98.8761 9.3278C99.2161 9.34272 99.4887 9.60844 99.5124 9.93966L99.5125 9.94121L99.5132 9.94984L99.5149 9.96749C99.5163 9.98068 99.5183 9.99791 99.5211 10.0187C99.5268 10.0604 99.5357 10.1173 99.5496 10.1859C99.5772 10.3225 99.6248 10.5086 99.7058 10.7127C99.8659 11.1163 100.171 11.6241 100.743 11.9263L100.744 11.9267C101.418 12.2807 102.102 12.1741 102.358 12.1147L102.273 11.7494L102.357 12.1148C102.612 12.0562 102.875 12.1513 103.034 12.3568C103.192 12.5614 103.216 12.8385 103.095 13.0662L103.095 13.0666C103.073 13.1078 102.884 13.4694 102.775 13.9602C102.667 14.445 102.623 15.1141 102.963 15.7227L102.964 15.7245C103.123 16.0044 103.345 16.2478 103.623 16.4463C103.921 16.6604 103.986 17.0693 103.771 17.3651L103.771 17.365L103.767 17.3702C103.643 17.5471 103.445 17.6431 103.233 17.6431C103.098 17.6431 102.962 17.6028 102.843 17.5186C102.4 17.1987 102.05 16.8124 101.803 16.3663L101.802 16.3658C101.324 15.5073 101.306 14.6137 101.437 13.8782L101.503 13.5082L101.133 13.4429C100.812 13.3863 100.469 13.2779 100.119 13.0938C99.5911 12.8145 99.2072 12.4432 98.9286 12.0551L98.7005 11.7372L98.3926 11.9786C98.0298 12.263 97.5976 12.464 97.1264 12.5558C96.1637 12.7383 95.1877 12.4264 94.4997 11.7655L94.3083 11.5816L94.0713 11.701C93.4668 12.0054 92.6177 12.2596 91.6211 12.0527L91.6203 12.0525C91.3053 11.9878 91.0213 11.8842 90.7736 11.7624L90.4294 11.5932L90.268 11.9411C90.0355 12.4421 89.6746 12.9237 89.1246 13.2797L89.1241 13.28C88.738 13.5308 88.341 13.6694 87.9756 13.7389L87.666 13.7979L87.6708 14.113C87.6787 14.6322 87.5891 15.2411 87.2778 15.8652L87.2778 15.8653C86.8395 16.7445 86.1724 17.2543 85.6872 17.5242L85.6856 17.5252C85.3674 17.7043 84.9585 17.5908 84.7777 17.2717C84.5987 16.9558 84.7104 16.5544 85.0324 16.3742L85.0326 16.3741C85.2918 16.2287 85.7813 15.8921 86.0844 15.2796C86.5061 14.431 86.3075 13.613 86.2056 13.3054C86.1342 13.0864 86.1821 12.8464 86.3341 12.6717C86.4867 12.4962 86.7185 12.4129 86.9512 12.4515C87.1847 12.4917 87.8129 12.5528 88.3916 12.1754C88.8785 11.8587 89.0974 11.3724 89.1968 10.9993C89.2472 10.81 89.2699 10.6392 89.2802 10.5148C89.2905 10.3889 89.2883 10.3053 89.2883 10.3054V10.2982L89.288 10.291C89.277 10.0029 89.4549 9.73779 89.7251 9.64164L89.7251 9.64164L89.7272 9.64088C90.0029 9.54089 90.3059 9.62863 90.4814 9.85561C90.6451 10.0681 91.1155 10.5942 91.892 10.7556C93.0453 10.997 93.9281 10.2353 94.0294 10.1479L94.0321 10.1455L94.0322 10.1455L94.0381 10.1402C94.1926 10.0013 94.407 9.94285 94.6078 9.98277L94.6084 9.98289C94.816 10.0238 94.9908 10.1569 95.0823 10.3419C95.4106 11.0123 96.1445 11.394 96.8751 11.2555L96.8052 10.887ZM96.8052 10.887C96.246 10.993 95.6753 10.7008 95.4188 10.1765L99.8865 9.91293C99.849 9.38863 99.4195 8.97606 98.892 8.95314C98.3444 8.93022 97.9005 9.30554 97.8198 9.82411C97.7333 10.3599 97.3269 10.7896 96.8052 10.887Z" stroke="#484751" stroke-width="0.75"/>
<path d="M46.8489 50.06L46.84 50.0589L46.829 50.0582C46.4599 50.0342 46.1838 49.718 46.2075 49.3568L46.2075 49.3568C46.7178 41.5688 52.4744 35.1836 60.206 33.8294L60.3209 33.8094L60.3292 33.8079L60.3375 33.8061C60.3795 33.7968 60.4169 33.7904 60.4499 33.7863L60.4499 33.7863L60.4548 33.7856C60.8193 33.7355 61.159 33.988 61.2116 34.3429C61.2642 34.6987 61.0152 35.0351 60.6491 35.0887L60.6396 35.0901L60.6303 35.092C60.5182 35.1142 60.4622 35.1237 60.4064 35.1306L60.3971 35.1318L60.388 35.1334C53.312 36.3721 48.007 42.2585 47.5344 49.4423L47.5342 49.4452C47.5143 49.7893 47.2247 50.0603 46.8738 50.0603L46.8595 50.0602L46.8509 50.0601C46.85 50.0601 46.8494 50.06 46.8489 50.06ZM45.8357 49.3324L45.8333 49.3322L45.8357 49.3324Z" stroke="#484751" stroke-width="0.75"/>
<path d="M54.8867 55.1634C54.8867 55.1634 54.8868 55.1634 54.8868 55.1634L54.8867 55.1634ZM54.8867 55.1634C54.8857 55.163 54.8849 55.1628 54.8854 55.1629L54.8867 55.1634ZM55.2959 55.3708C55.2966 55.3715 55.297 55.3719 55.2968 55.3717L55.2965 55.3714L55.2959 55.3708ZM55.2959 55.3708L55.2956 55.3705L55.2933 55.3682C55.2943 55.3692 55.2952 55.3701 55.2959 55.3708ZM55.1967 55.3002C55.1915 55.2976 55.1862 55.2952 55.1807 55.2928C55.1753 55.2904 55.1699 55.2882 55.1643 55.2861C55.1027 55.2598 55.0427 55.2342 54.9846 55.2089L54.98 55.2044L54.9256 55.1773L54.9171 55.1731L54.9083 55.1687L54.8985 55.1638L54.8884 55.1595C52.0624 53.9561 49.4185 52.3533 47.019 50.3877C46.8451 50.2432 46.6742 50.0988 46.5034 49.9516L46.4901 49.9402L46.476 49.9301C46.476 49.9301 46.4731 49.928 46.4662 49.9222C46.4601 49.9172 46.4545 49.9124 46.447 49.906C46.4444 49.9038 46.4416 49.9014 46.4385 49.8987L46.4385 49.8987L46.436 49.8966C46.4028 49.8689 46.3772 49.8415 46.3553 49.8119L46.3554 49.8118L46.3494 49.8041C46.3399 49.792 46.3308 49.7789 46.3155 49.7561C46.3044 49.7379 46.2983 49.7281 46.2944 49.722C46.2897 49.7145 46.2883 49.7122 46.2853 49.7062C46.2695 49.675 46.265 49.6651 46.2621 49.6571L46.258 49.6458L46.2531 49.6349C46.2476 49.6224 46.2418 49.606 46.2359 49.5834V49.5791L46.2246 49.534C46.2217 49.5227 46.219 49.5066 46.2175 49.4877L46.2164 49.4734L46.2142 49.4593C46.2116 49.4425 46.21 49.4221 46.21 49.4031C46.21 49.4025 46.2101 49.3994 46.2107 49.3912C46.2107 49.3906 46.2107 49.3899 46.2108 49.3892C46.2113 49.3811 46.2123 49.3661 46.2127 49.3488L46.2161 49.3194C46.23 49.2003 46.2801 49.0806 46.3671 48.9772L46.3763 48.9699L46.3958 48.9487C46.5363 48.7966 46.7379 48.7263 46.9386 48.7466L46.9403 48.7467C47.0765 48.7599 47.2057 48.8119 47.3089 48.9022L47.3089 48.9022L47.3105 48.9036C47.4453 49.0201 47.58 49.1336 47.7174 49.2469C49.6891 50.8821 51.8387 52.2591 54.1193 53.3636C54.8105 53.6999 55.5137 54.0102 56.2259 54.2917C59.9534 55.7788 63.9607 56.5586 68.0406 56.5586H68.1098L68.1106 56.5586C70.8412 56.553 73.5367 56.1977 76.1344 55.5187C76.2608 55.7586 76.3994 55.9898 76.5463 56.2133C76.6503 56.375 76.7606 56.5317 76.8761 56.6837C74.0466 57.4638 71.101 57.8717 68.1126 57.8771C68.1124 57.8771 68.1122 57.8771 68.112 57.8771L68.0406 57.8771C63.5945 57.8771 59.228 56.9871 55.1967 55.3002ZM46.3537 48.9879L46.3538 48.9878L46.3537 48.9879ZM46.2156 49.2954C46.2157 49.2919 46.2157 49.2883 46.2157 49.2846C46.2157 49.2814 46.216 49.2859 46.2156 49.2954ZM46.2179 49.5134C46.2177 49.5129 46.2179 49.5134 46.2182 49.5145L46.2179 49.5134Z" stroke="#484751" stroke-width="0.75"/>
<path d="M75.9462 35.1485L75.9462 35.1485L75.9399 35.1474L75.888 35.1388L75.877 35.137L75.8658 35.1358C75.8244 35.1315 75.7902 35.1255 75.7644 35.1191L75.7644 35.119L75.7578 35.1175C75.7096 35.1064 75.6517 35.0992 75.6257 35.096C75.6205 35.0954 75.6166 35.0949 75.6143 35.0945L75.6143 35.0945L75.6095 35.0939C75.4084 35.068 75.2409 34.9576 75.138 34.8043L75.138 34.8043L75.1373 34.8032C75.0519 34.6767 75.0115 34.5216 75.0314 34.3589C75.0796 33.9999 75.4112 33.7432 75.7769 33.7865C75.8589 33.7974 75.9313 33.8081 76.0084 33.8213L76.0169 33.8228L76.0255 33.8238C76.043 33.826 76.0587 33.8282 76.0765 33.8307C77.6627 34.1085 79.1666 34.5988 80.5604 35.2733C80.8019 35.3905 81.0387 35.5138 81.2767 35.6433L81.2767 35.6433L81.2785 35.6443C81.6569 35.8477 82.0285 36.0714 82.3937 36.3078L82.3938 36.3079C83.5571 37.0602 84.6193 37.9514 85.561 38.9553C85.4475 39.2924 85.3565 39.6391 85.2894 39.9939C85.2882 39.9985 85.2867 40.005 85.2851 40.0124C85.2824 40.0248 85.2796 40.0398 85.2777 40.0571C85.247 40.2217 85.2209 40.3879 85.1998 40.5557C83.1174 38.0412 80.2504 36.1859 76.9409 35.3627C76.6123 35.2803 76.2817 35.2099 75.9462 35.1485Z" stroke="#484751" stroke-width="0.75"/>
<mask id="path-35-inside-1" fill="white">
<path d="M80.5616 53.5957V53.8163C80.5212 53.7619 80.4809 53.7046 80.4463 53.6444C80.4838 53.6272 80.5241 53.6129 80.5616 53.5957Z"/>
</mask>
<path d="M80.5616 53.5957H81.3116V52.4265L80.2488 52.914L80.5616 53.5957ZM80.5616 53.8163L79.9591 54.2629L81.3116 56.0875V53.8163H80.5616ZM80.4463 53.6444L80.1335 52.9627L79.3864 53.3055L79.7961 54.0182L80.4463 53.6444ZM79.8116 53.5957V53.8163H81.3116V53.5957H79.8116ZM81.1641 53.3697C81.1296 53.3232 81.1095 53.2932 81.0965 53.2706L79.7961 54.0182C79.8523 54.116 79.9128 54.2006 79.9591 54.2629L81.1641 53.3697ZM80.759 54.3261C80.7582 54.3265 80.7594 54.3259 80.7641 54.3239C80.7692 54.3218 80.7751 54.3194 80.7854 54.3152C80.8021 54.3085 80.8375 54.2943 80.8743 54.2774L80.2488 52.914C80.2497 52.9136 80.2485 52.9142 80.2438 52.9162C80.2386 52.9183 80.2328 52.9207 80.2224 52.9249C80.2058 52.9316 80.1704 52.9458 80.1335 52.9627L80.759 54.3261Z" fill="#484751" mask="url(#path-35-inside-1)"/>
<mask id="path-37-inside-2" fill="white">
<path d="M82.1891 55.1316C82.1635 55.1486 82.1378 55.1599 82.1094 55.1684C82.1321 55.1543 82.1549 55.1401 82.1777 55.126C82.1805 55.1288 82.1862 55.1316 82.1891 55.1316Z"/>
</mask>
<path d="M82.1891 55.1316L82.6034 55.7568L84.6787 54.3816H82.1891V55.1316ZM82.1094 55.1684L81.7136 54.5313L82.3237 55.8871L82.1094 55.1684ZM82.1777 55.126L82.7064 54.594L82.2857 54.1759L81.7819 54.4889L82.1777 55.126ZM81.7748 54.5064C81.7947 54.4933 81.8162 54.4813 81.8388 54.471C81.8611 54.4608 81.8805 54.454 81.8951 54.4497L82.3237 55.8871C82.4139 55.8602 82.5086 55.8196 82.6034 55.7568L81.7748 54.5064ZM82.5051 55.8055C82.5165 55.7984 82.5279 55.7914 82.5393 55.7843C82.5507 55.7772 82.5621 55.7701 82.5735 55.7631L81.7819 54.4889C81.7706 54.496 81.7592 54.503 81.7478 54.5101C81.7364 54.5172 81.725 54.5243 81.7136 54.5313L82.5051 55.8055ZM81.649 55.6579C81.7247 55.7332 81.8009 55.7773 81.8495 55.8014C81.8745 55.8139 82.0066 55.8816 82.1891 55.8816V54.3816C82.2971 54.3816 82.379 54.4054 82.4128 54.4161C82.4555 54.4296 82.4906 54.445 82.5173 54.4583C82.5616 54.4803 82.6336 54.5216 82.7064 54.594L81.649 55.6579Z" fill="#484751" mask="url(#path-37-inside-2)"/>
<path d="M97.6929 54.7072H96.9429V55.4572V61.4681C96.9429 61.9168 96.8476 62.3429 96.6764 62.727L96.6451 62.7973C96.5138 63.0774 96.3442 63.3334 96.1388 63.5642C96.0297 63.6835 95.9098 63.7974 95.7814 63.904H94.6414L94.8839 64.4263C94.5322 64.561 94.1508 64.6346 93.7527 64.6346C93.067 64.6346 92.4274 64.4132 91.9009 64.0422C91.3302 63.6349 90.9 63.0453 90.6986 62.3686L90.6986 62.3685L90.6954 62.3583C90.6094 62.0838 90.5626 61.7786 90.5626 61.4681V55.4572V54.7072H89.8126H83.7654C82.01 54.7072 80.5752 53.276 80.5752 51.5436C80.5752 50.6769 80.9315 49.8858 81.5121 49.3085C82.0946 48.732 82.8936 48.3742 83.7654 48.3742H89.8126H90.5626V47.6242V41.6163C90.5626 41.5763 90.5645 41.5308 90.5675 41.4643L90.5676 41.4628C90.5746 41.3021 90.5931 41.1527 90.6234 41.013L90.6235 41.013L90.6262 40.9994C90.7464 40.3903 91.045 39.8451 91.471 39.4122C92.0552 38.82 92.863 38.4526 93.7527 38.4526C94.626 38.4526 95.4243 38.8086 96.0055 39.3863L96.0066 39.3874C96.5867 39.9617 96.9429 40.7497 96.9429 41.6163V47.6242V48.3742H97.6929H103.737C105.494 48.3742 106.927 49.8069 106.927 51.5436C106.927 53.2764 105.495 54.7072 103.737 54.7072H97.6929Z" stroke="#484751" stroke-width="1.5"/>
</g>
</svg>
