<?xml version="1.0" encoding="utf-8"?>
<!-- Generator: Adobe Illustrator 25.3.1, SVG Export Plug-In . SVG Version: 6.00 Build 0)  -->
<svg version="1.1" id="Layer_1" xmlns="http://www.w3.org/2000/svg" xmlns:xlink="http://www.w3.org/1999/xlink" x="0px" y="0px"
	 viewBox="0 0 19.4 18.9" style="enable-background:new 0 0 19.4 18.9;" xml:space="preserve">
<style type="text/css">
	.st0{fill-rule:evenodd;clip-rule:evenodd;fill:#FFFFFF;}
	.st1{fill:#484751;}
</style>
<path class="st0" d="M18,0.2c-0.2,0.4-0.4,0.4-1,1.3c-1.8,3-5.2,8.8-2.8,16.1c-3.4-1.1-8.6-7-12.5-17.4C1.7,0.2,18,0.2,18,0.2z"/>
<path class="st1" d="M18.9,0.2c-0.2,0.3-0.3,0.6-0.5,0.9S18,1.8,17.7,2.3c-1.7,3-4.8,8.5-2.3,15.2c0.1,0.4,0.1,0.8-0.2,1
	c-0.3,0.3-0.7,0.4-1,0.2c-1.9-0.7-4.3-2.5-6.7-5.6C5.1,10,2.4,5.9,0.5,0.2h2.2C4.5,5.6,6.8,9,9.1,11.8c1.4,1.7,2.7,3,3.8,3.8
	C11.4,8.9,14.5,3.7,16,1c0.2-0.5,0.4-0.6,0.5-0.9L18.9,0.2z"/>
</svg>
