<?xml version="1.0" encoding="utf-8"?>
<!-- Generator: Adobe Illustrator 25.3.1, SVG Export Plug-In . SVG Version: 6.00 Build 0)  -->
<svg version="1.1" id="Layer_1" xmlns="http://www.w3.org/2000/svg" xmlns:xlink="http://www.w3.org/1999/xlink" x="0px" y="0px"
	 viewBox="0 0 128 67" style="enable-background:new 0 0 128 67;" xml:space="preserve">
<style type="text/css">
	.st0{fill:#31C02E;filter:url(#Adobe_OpacityMaskFilter);}
	.st1{mask:url(#mask0_1_);}
	.st2{fill:#484751;}
</style>
<defs>
	<filter id="Adobe_OpacityMaskFilter" filterUnits="userSpaceOnUse" x="17.9" y="-8.6" width="93.7" height="91">
		<feColorMatrix  type="matrix" values="1 0 0 0 0  0 1 0 0 0  0 0 1 0 0  0 0 0 1 0"/>
	</filter>
</defs>
<mask maskUnits="userSpaceOnUse" x="17.9" y="-8.6" width="93.7" height="91" id="mask0_1_">
	<path class="st0" d="M0,0h128v63H0V0z"/>
</mask>
<g class="st1">
	<path class="st2" d="M33.8-8.2c-2,10.6-4,21.4-7.6,31.6c-0.9,2.5-3.2,8.1-1.3,10.7c0.6,0.9,1.8,1.1,3,1.4c-3.3,0.6-6.5,1.3-9.6,2.6
		c-0.5,0.2-0.5,0.7-0.3,1c0,0,0,0,0,0c2.6,9.3,3.6,18.9,6.3,28.1c1.7,5.7,4.4,14.4,11.2,15.2c3,0.3,6.2-1,8.9-1.8
		c5.6-1.6,11.2-3.1,16.7-4.7c11.1-3.2,22.1-6.9,33-10.8c4.9-1.7,9.8-3.6,14.7-5.3c1.2-0.4,2.9-0.9,2.6-2.5
		c-0.7-3.7-3.2-7.2-4.5-10.7c-1.8-4.8-3.5-9.6-5.3-14.4c3.4-4.8,4.2-12,5.2-17.6c0.4-2.1,0.5-4.7-1.5-6c-2.5-1.6-6.5-1.3-9.3-2
		C85.5,4,74.8,1.5,64.1-0.7C59-1.8,53.9-2.8,49-4.4C44.2-6,39.6-7.9,34.5-8.6C34.2-8.7,33.9-8.5,33.8-8.2z M25.5,31.1
		c0.1-1.3,0.5-2.7,0.8-3.8c0.7-2.9,1.9-5.6,2.8-8.4c0.9-2.8,1.5-5.6,2.2-8.5c1.2,0.4,2.4,0.7,3.6,1c-1.1-0.1-2.3-0.2-3.4-0.2
		c-0.4,0-0.5,0.7-0.1,0.7c11.5,1.8,22.2,5.2,33.4,8.3c0.6,0.2,0.8-0.7,0.2-0.9c-5.3-1.7-10.8-3.7-16.4-5.2
		c5.3,0.8,10.6,1.4,15.8,2.4c5.5,1,10.9,2.2,16.5,2.9c1.7,0.2,3.3,0.4,5,0.4c0.8,0,2.1-0.2,3.1,0c-3.2,0.9-6.5,2.2-9.6,3.2
		c-5.6,1.7-11.2,3.1-16.9,4.5c-6.2,1.5-12.4,3.3-18.5,4.9c0-0.1-0.2-0.3-0.3-0.3c-2.6-0.6-5.4-0.7-8-1.1c-0.5-0.1-0.8,0.7-0.2,0.8
		c2.1,0.5,4.4,0.8,6.5,1.1c-0.4,0.1-0.7,0.2-1.1,0.3c-2.1,0.5-4.2,0.9-6.4,1.2c0.1-0.2,0-0.5-0.3-0.6C31.4,32.9,28.4,30.9,25.5,31.1
		z M27.5,34c-1.3-0.2-1.8-1-2-2c2.7,0.1,5,1.8,7.6,2.6c-1,0.2-2.1,0.3-3.1,0.5C29.3,34.5,28.5,34.1,27.5,34z M44.1,79.4
		c-3.4,0.9-7.2,2.6-10.7,1.2c7.5,0.6,15.1-3,22-5.4C65.7,71.5,76.4,69,86.7,65c0.7-0.3,0.4-1.3-0.3-1.1c-5.2,1.5-10.3,3.5-15.4,5.3
		c-4.7,1.6-9.5,2.7-14.2,4.2c-7.7,2.4-16.1,7.2-24.4,6c-0.2,0-0.4,0.1-0.5,0.2c-3.4-2.8-5.1-9.1-6.3-12.8c-1.3-4.3-2.2-8.6-3.1-13
		c13.3-3.4,26.8-5.6,40-9.1C68.8,43,75,41,81.2,39.1c1.5,8.7,5.2,17.8,8.9,25.8C74.9,70.2,59.6,75,44.1,79.4z M108.5,58.5
		c-5.9,2.1-11.7,4.1-17.6,6.1c-0.1-0.4-0.2-0.7-0.3-1.1c6.6-1.6,13.2-4.4,19.4-7C110.1,57.4,109.8,58.1,108.5,58.5z M106.2,48
		c0.7,1.8,1.6,3.4,2.4,5.1c0.4,0.9,0.9,1.7,1.2,2.5c-6.6,2.1-12.9,4.9-19.5,7.1c-1.1-3.5-2.5-6.9-3.8-10.3
		c-1.6-4.5-2.9-9.1-4.3-13.7c6.2-1.8,12.4-3,18.8-4.2c0.1,0,0.1,0,0.1-0.1C102.9,39.1,104.5,43.6,106.2,48z M100.6,32.8
		c0.1,0.2,0.2,0.4,0.2,0.6c0,0,0,0-0.1,0c-6.5,1.2-12.8,2.4-19.2,4.2c-6.5,1.9-12.9,4-19.5,5.8c-13.2,3.6-26.7,5.7-39.9,9.2
		c-0.9-4.6-1.8-9.1-3.1-13.6c4.6-1.7,9.5-2.4,14.2-3.1c5.6-0.9,11.2-2.4,16.7-3.9c10.8-2.9,21.6-5.4,32.3-8.7
		c3.9-1.2,8-3.2,12.2-3.4c3.2-0.1,3.4,3.2,3.8,5.4c0.4,2.2,1.2,4.4,2,6.5C100.2,32.3,100.3,32.7,100.6,32.8z M101.2,30.5
		c-0.7-2.4-1.1-5.2-1.9-7.6c1.4,0.5,2.9,0.9,4.3,1.3C103.1,26.5,102.3,28.7,101.2,30.5z M37.9-6.9C44.5-5.4,50.7-2.5,57.3-1
		c13.3,3.1,26.6,6,39.9,9.2c1.8,0.4,3.7,0.6,5.6,0.9c4.3,0.8,3,4.7,2.4,7.9c-0.4,1.9-0.7,4-1.2,6.1c-1.7-0.5-3.4-1.3-5.1-1.6
		c-0.1-0.3-0.3-0.6-0.5-0.9c-1.3-2.3-4.5-1.9-6.7-1.5c-0.4,0.1-0.9,0.2-1.3,0.3c0-0.1-0.1-0.2-0.1-0.3c-0.8-0.9-4-0.5-5.1-0.6
		c-6-0.2-12-1.6-17.8-2.8c-11.9-2.5-24.1-2.9-35.7-6.6c0,0,0,0,0,0c0-0.1,0-0.2,0.1-0.3c0.7-3,1.3-6,2-9.1c0.4-1.7,0.7-3.4,1-5.2
		C34.9-7.8,35.8-7.3,37.9-6.9z"/>
	<path class="st2" d="M44.6,38.2c0-0.6-0.7-0.8-1.1-0.4c-1.3,1.4-2.4,2.7-4.2,3.3c0.1-2.4-0.6-4.9-3.5-4.1c-0.3,0.1-0.5,0.4-0.5,0.6
		c0.1,2.6,0.2,5.1-2.7,6.3c-0.8,0.3-1.3,1-1.6,1.7c0,0,0,0.1,0,0.1c-0.4,0.3-0.1,1.1,0.5,0.9c3.8-0.6,6.8,2.7,10.6,1.2
		c0.4-0.2,0.6-0.7,0.3-1c-0.7-0.7-1-1.3-1.5-2.2c-0.2-0.5,5.2-0.3,5.5-0.2c0.5,0.1,1-0.4,0.7-0.9C45.9,41.7,44.4,40.5,44.6,38.2z
		 M45.2,43c-1.9-0.2-3.7,0.1-5.5,0.9c-0.3,0.1-0.3,0.6-0.2,0.8c0.4,0.8,0.8,1.5,1.3,2.2c-2.7,0.5-5.4-1.4-8.2-1.4
		c1.3-1.2,3.6-1.1,4-3.2c0.3-1.3,0.2-2.5,0.1-3.9c1.1,0.1,1.6,0.6,1.4,1.6c0.1,0.6,0,1.2-0.1,1.9c0,0.5,0.5,0.7,0.8,0.6
		c2.1-0.4,3.3-1.4,4.6-2.8C43.7,41,44.4,41.9,45.2,43z"/>
	<path class="st2" d="M45,2.6c0.4-0.2,1-1,1-1.5c-0.1-1.8-1.7-2.4-3.3-2.7c-0.2,0-0.4,0-0.6,0.2c-1.4,1.8-2.9,3.2-5.3,3.2
		c-1,0-1.5,0.8-1.9,1.5c0,0.1-0.1,0.1-0.1,0.2c-0.4,0.1-0.4,0.6,0,0.8c2.6,1,5,2,4.5,5.3c-0.1,0.3,0.1,0.7,0.4,0.8
		c1.1,0.3,2.3,0.4,3.4,0.2c0.4-0.1,0.5-0.5,0.4-0.8c-0.7-4,2.5-3.4,4.3-1.2c0.4,0.4,1.1,0.3,1.1-0.3c0-2.1,0.1-3.8,1.1-5.7
		c0.3-0.6-0.3-1.1-0.8-0.8c-0.5,0.2-1,0.5-1.4,0.7C47.4,2.6,43.2,3.7,45,2.6z M48.4,3.4c-0.4,1.1-0.6,2.2-0.6,3.4
		c-2.6-2.2-5.8-1.5-5.5,2.6c-0.6,0-1.2,0-1.8-0.1c0.1-3-1.7-4.8-4.4-5.5C37,2.7,39.3,3,40.4,2.1c0.5-0.4,2.1-2.5,2.8-2.4
		c3,0.5,0.1,2.1,0.1,2.9C43.3,5.1,46.4,4.1,48.4,3.4z"/>
	<path class="st2" d="M57.2,38.1c-0.3-0.8-0.6-1.7-0.9-2.6c0.8-0.2,1.7-0.5,2.6-0.6c0.9-0.2,0.5-1.5-0.4-1.3c-1.3,0.2-2.6,0.6-3.9,1
		c-0.7,0.2-1.3,0.4-2,0.6c-0.2,0-0.4,0.1-0.6,0.2c-0.2,0.1-0.6,0.2-0.1,0.1c-0.6,0.1-0.6,0.9,0,0.9c-0.3,0-0.1,0,0.1,0.1
		c0.2,0.1,0.4,0,0.7-0.1c0.6-0.1,1.3-0.3,1.9-0.4c0.2,0,0.4-0.1,0.6-0.2c0.1,0.7,0.3,1.3,0.5,2c0.3,0.9,0.4,2.3,1,3
		c0.3,0.4,0.9,0.4,1-0.2C57.9,39.8,57.5,38.9,57.2,38.1z"/>
	<path class="st2" d="M61.5,33c0.3,2.5,1.2,5,2,7.4c0.3,0.8,1.6,0.5,1.3-0.4c-0.8-2.4-1.5-4.8-2.4-7.1C62.3,32.3,61.4,32.4,61.5,33z
		"/>
	<path class="st2" d="M72.1,36.2c-0.1-0.7-1-0.5-1.2,0c-0.2,0.5-0.2,1.3-0.6,1.7c-0.1,0.1,0,0.1-0.1,0.1c0,0-0.1-0.1-0.3-0.2
		c-0.9-0.6-1.6-2-2-3c-0.4-1-1-2.4-0.7-3.4c0.1-0.3,0.1-0.4,0.5-0.4c0.7,0,1.6,0.6,2.2,0.9c0.5,0.3,1.1-0.5,0.6-0.9
		c-1.1-0.9-3.4-2.3-4.4-0.5c-0.8,1.3,0,3.4,0.5,4.7c0.6,1.4,1.5,3.3,3,3.9C71.4,40,72.4,37.7,72.1,36.2z"/>
	<path class="st2" d="M75.6,32.6c1.4,0.3,2.6,1,3.8,1.6c0.8,0.4,1.4-0.8,0.6-1.1c-1.2-0.6-2.4-1.2-3.7-1.5c0.6-0.8,1.3-1.5,2-2.3
		c0.6-0.7-0.5-1.7-1-1c-0.8,1-1.6,2-2.2,3.1c0,0-0.1,0-0.1,0c-0.3-0.8-0.7-1.5-1.1-2.3c-0.4-0.7-1.3-0.1-1,0.6
		c1,2.2,1.7,4.5,2.3,6.8c0.2,0.8,1.5,0.5,1.3-0.4C76.3,35,76,33.8,75.6,32.6C75.6,32.7,75.6,32.7,75.6,32.6z"/>
	<path class="st2" d="M88.2,32c-1,0.5-1.9,1-3,1.1c-0.2-0.9-0.4-1.8-0.6-2.7c1-0.2,2.2-0.2,2.9-0.7c0.5-0.3,0.3-1.1-0.3-1.1
		c-0.9,0-1.9,0.5-2.8,0.8c-0.1-0.6-0.2-1.2-0.3-1.8c0.9-0.5,1.9-0.8,2.9-0.9c0.7-0.1,0.7-1.2,0-1.1c-1.4,0.1-2.7,0.5-3.9,1.1
		c-0.2,0.1-0.3,0.4-0.3,0.6c0.3,2.3,0.9,4.6,1.4,6.9c0.1,0.3,0.4,0.5,0.7,0.5c1.5-0.1,3.5-0.4,4.3-1.7C89.4,32.2,88.7,31.7,88.2,32z
		"/>
	<path class="st2" d="M94.7,24.7c0.6-0.2,0.6-1.1,0-1.2c-0.9-0.2-1.9,0.2-2.7,0.5c-0.8,0.3-2.3,0.6-2.7,1.5c-0.1,0.3,0,0.7,0.4,0.7
		c0.7-0.1,1.4-0.4,2.1-0.7c-0.2,2.3,0.9,4.3,1.7,6.5c0.3,0.9,1.7,0.4,1.4-0.4c-0.8-2.1-2-4.1-1.9-6.5C93.5,25,94.1,24.9,94.7,24.7z"
		/>
	<path class="st2" d="M59.4,3.9c0.8,0,1.6,0.1,2.4,0.3c0.3,2.6-0.4,5.1-0.6,7.6c-0.1,0.8,1.2,0.8,1.3,0c0.3-2.4,1-5,0.5-7.3
		c0.4,0.1,0.8,0.3,1.3,0.4c0.8,0.4,1.5-0.8,0.7-1.2c-1.7-0.8-3.6-1-5.5-0.9C58.6,2.8,58.6,3.9,59.4,3.9z"/>
	<path class="st2" d="M68,5c-1,2.4-1.7,4.7-2,7.2c-0.1,0.9,1.3,0.8,1.4,0c0.2-2.3,0.8-4.7,1.4-6.9C68.9,4.9,68.2,4.6,68,5z"/>
	<path class="st2" d="M76.6,12.2c-0.1-0.6-1-0.5-1.1,0c-0.2,0.6-0.4,1.2-1.1,0.9c-0.9-0.4-1.4-1.3-1.7-2.2c-0.3-1.2,0.4-2.4,1.3-3.2
		c0.3-0.2,0.7-0.6,1.1-0.5c0.6,0.1,0.8,1,1,1.4c0.2,0.5,1.1,0.4,1-0.2c-0.1-0.9-0.3-1.7-1.1-2.3c-0.6-0.4-1.4-0.3-2.1,0
		C72.1,7,71,9.1,71.3,10.9c0.2,1.6,1.3,2.9,2.8,3.5C75.6,15,76.8,13.7,76.6,12.2z"/>
	<path class="st2" d="M80.4,6.1c-0.3,1.2-0.5,2.5-0.7,3.7c-0.1,0.1-0.2,0.3-0.1,0.5c-0.4,1.8-0.7,3.6-1.4,5.4
		c-0.2,0.6,0.7,0.9,1,0.4c0.8-1.4,1.2-2.9,1.6-4.5c1.4,1.6,2.4,3.6,3.9,5.1c0.6,0.6,1.6-0.4,1-1c-1.4-1.4-2.3-3-3.6-4.4
		c0.1-0.1,0.2-0.2,0.3-0.2c0.4-0.3,0.8-0.5,1.3-0.7c0.7-0.4,2.1-0.8,2.5-1.6c0.2-0.5-0.2-1-0.7-0.9c-0.5,0.1-0.9,0.5-1.4,0.7
		c-0.6,0.3-1.2,0.6-1.8,0.9c-0.4,0.2-0.7,0.5-1,0.8c-0.1-0.1-0.1-0.1-0.2-0.2c0.2-1.2,0.5-2.5,0.7-3.8C81.9,5.6,80.6,5.2,80.4,6.1z"
		/>
	<path class="st2" d="M89,10c-1.6,1.8-1.1,4.5-1.7,6.8c-0.1,0.3,0.1,0.8,0.5,0.8c1.5,0.2,3.7,1,5.1,0.3c0.4-0.2,0.4-1-0.2-1.1
		c-1.3-0.2-2.7-0.3-4-0.4c0.1-0.8,0.1-1.6,0.2-2.5c0,0,0.1,0,0.1,0c1.3-0.2,2.5-0.1,3.8,0.2c0.7,0.2,1.2-0.9,0.5-1.2
		c-1.3-0.6-2.9-0.6-4.3-0.3c0.1-0.8,0.4-1.6,0.8-2.3c0.6,0.2,1.3,0.4,1.9,0.5c0.6,0.2,1.3,0.4,2,0.3c0.6,0,0.8-0.8,0.3-1.1
		c-0.5-0.3-1.1-0.4-1.7-0.5c-0.7-0.1-1.5-0.3-2.2-0.4c-0.1-0.1-0.2-0.1-0.4-0.1c-0.1,0-0.2,0-0.3,0C89,9.2,88.8,9.7,89,10z"/>
	<path class="st2" d="M96.5,11.9c0.9,0.2,1.9,0.5,2.9,0.7c0.1,2.2-0.7,4.3-1.4,6.4c-0.2,0.6,0.8,1,1.1,0.4c0.7-1.7,2.1-4.4,1.8-6.5
		c0.4,0.1,0.8,0.1,1.2,0.1c0.8,0,0.9-1.2,0.2-1.4c-1.8-0.4-3.8-0.6-5.6-0.8C96.1,10.9,95.9,11.8,96.5,11.9z"/>
	<path class="st2" d="M50.3,50.5c0.7-0.2,0.4-1.2-0.3-1c-8.8,2.1-18.6,2-26.9,5.9c-0.7,0.3-0.1,1.3,0.6,1
		C32.1,52.4,41.7,53.3,50.3,50.5z"/>
	<path class="st2" d="M87.5,40c-0.6,0.1-0.4,1,0.2,1c2.3-0.3,4.6-0.9,6.7-1.9c0.6-0.3,0.1-1.2-0.4-1C91.7,38.7,89.7,39.6,87.5,40z"
		/>
	<path class="st2" d="M88.6,47c3.6-1.3,7.3-2,11.1-2.9c0.6-0.1,0.5-1.2-0.2-1.2c-3.8,0.4-7.6,1.7-11.1,3.2
		C87.9,46.5,88.1,47.2,88.6,47z"/>
	<path class="st2" d="M90.4,51.5c-0.6-0.1-0.7,1-0.1,1.1c3.4,0.4,7.1-0.6,9.9-2.5c0.7-0.4,0.1-1.4-0.6-1
		C96.7,50.5,93.8,51.8,90.4,51.5z"/>
	<path class="st2" d="M93,57c-0.6,0.1-0.3,1,0.3,0.9c3.9-0.8,7.6-2.2,11.3-3.6c0.8-0.3,0.4-1.6-0.4-1.3C100.5,54.4,96.8,56,93,57z"
		/>
	<path class="st2" d="M70,49.2c-4.7-0.2-9,2.4-13.5,3.4c-0.6,0.1-0.4,1.1,0.2,1.1c2.4-0.3,12.4-5,13.2-2.2c0.5,1.8-5,2.8-6.5,3.2
		c-2.6,0.7-5.3,1.2-7.9,1.8c-5.5,1.2-11,2.8-16.4,4.4c-2.8,0.8-5.6,1.8-8.2,3c-1.3,0.5-1.6,1.3-2.4-0.8c-0.5-1.2-0.9-2.3-1.4-3.5
		c-0.2-0.4-0.9-0.1-0.7,0.3c0.7,1.9,1.3,3.8,2,5.7c0.1,0.4,0.5,0.5,0.9,0.3c7.1-3.4,14.9-5.1,22.4-7.3c6.6-1.9,13.4-2.5,19.6-5.6
		c0.2-0.1,0.4-0.4,0.3-0.7c-0.3-0.9-0.5-1.9-0.8-2.8C70.5,49.4,70.3,49.2,70,49.2z"/>
	<path class="st2" d="M30.3,59.7c6.8-1.1,13.6-2.8,20.3-4.3c0.6-0.1,0.4-1.2-0.2-1.1c-6.9,0.9-13.6,3.4-20.4,4.7
		C29.6,59.1,29.8,59.8,30.3,59.7z"/>
	<path class="st2" d="M73.7,47.8c-0.1,0-0.2,0-0.2,0.1c-0.7,0.2-0.4,1.2,0.2,1.2c0.1,1.5,0.7,2.8,2.4,2.9c1.2,0.1,2.3-0.4,3.3-1.1
		c0.7-0.5,1.5-1.1,1.7-1.9c0.8-2.6-4.3-1.9-6.6-1.4C74.2,47.4,73.7,47.5,73.7,47.8z M79.9,48.7c0,0-0.5,0.6-0.6,0.7
		c-0.7,0.6-1.5,1.1-2.4,1.4c-1.5,0.4-2.2-0.7-2.4-1.9c0.9-0.2,1.8-0.4,2.6-0.4C77.9,48.3,79.4,48.1,79.9,48.7z"/>
	<path class="st2" d="M73.7,64.2c-0.6,0.1-0.4,1.1,0.2,1.1c2.9-0.3,5.7-1.3,8.2-2.8c0.5-0.3,0.1-1.2-0.4-1
		C79,62.6,76.6,63.7,73.7,64.2z"/>
	<path class="st2" d="M62.7,24.9C53,22.7,42.2,24.1,32.9,20c0.7-2.5,2.7-2.5,5.3-2.4c2.7,0.1,5.3,0.7,7.9,1.2
		c4.2,0.9,8.4,2,12.7,1.8c0.7,0,0.7-1.1,0-1.1c-8.6-0.5-17.7-4.7-26.2-2.6c-0.3,0.1-0.4,0.3-0.4,0.5c-0.1,0.8-0.2,1.4-0.3,2.1
		c-0.5-0.1-0.9,0.5-0.5,0.8c0.1,0.1,0.3,0.2,0.4,0.3c0.1,0.2,0.2,0.3,0.4,0.3c3.2,2.1,7.9,2.4,11.5,2.9c6.2,0.8,12.5,0.9,18.6,2.1
		C63.2,26.2,63.5,25,62.7,24.9z"/>
	<path class="st2" d="M26.4,39.8c0.6-0.3,0.4-1.2-0.3-1c-1,0.3-2,0.5-3,0.7c-0.8,0.2-1.8,0.3-2.5,0.8c-0.5,0.4-0.1,1.1,0.5,0.8
		C22.7,40.3,24.7,40.5,26.4,39.8z"/>
	<path class="st2" d="M23.5,48c-0.2-0.9-0.5-1.7-0.8-2.6c-0.2-0.5-1-0.3-0.8,0.3c0.3,0.9,0.5,1.7,0.8,2.6
		C22.8,48.8,23.7,48.6,23.5,48z"/>
	<path class="st2" d="M52.5-1.1c2.5,0.8,5,1.7,7.6,1.8c0.6,0,0.7-0.9,0.1-1c-2.6-0.4-5-1-7.5-1.6C52.2-1.9,52-1.2,52.5-1.1z"/>
	<path class="st2" d="M56.1,11.2c-1.1-0.1-2.2,0-3.2-0.2c-0.5-0.1-0.8,0.7-0.2,0.8c1.1,0.3,2.3,0.4,3.5,0.2
		C56.7,12,56.7,11.3,56.1,11.2z"/>
</g>
</svg>
