<svg width="210" height="160" viewBox="0 0 210 160" fill="none" xmlns="http://www.w3.org/2000/svg">
<path d="M208.25 52.0351C209.875 47.2306 210.377 42.1196 209.719 37.0921C208.85 30.6965 203.544 29.6206 197.939 28.4849C190.056 26.871 182.952 21.5812 174.678 23.1054C174.49 23.1449 174.32 23.2455 174.196 23.3915C174.071 23.5376 173.998 23.7207 173.989 23.9123H173.569C169.433 19.7283 160.41 19.3995 155.045 17.9351C145.033 14.9465 135.021 12.8844 125.249 10.4636C116.257 8.25205 106.815 5.32322 97.6124 3.97835C95.8715 3.75784 94.1035 3.91068 92.4267 4.42664C87.7506 1.04952 82.5948 -1.40113 76.9895 0.900091C76.2136 1.03993 75.4772 1.34582 74.8313 1.79667C73.5579 2.71503 72.5721 3.97486 71.9884 5.42972C71.4047 6.88458 71.2472 8.47472 71.534 10.0153C67.3044 12.08 63.9475 15.5751 62.0619 19.8777C61.9724 20.0537 61.9257 20.2482 61.9257 20.4455C61.9257 20.6429 61.9724 20.8374 62.0619 21.0134C59.0644 22.2686 57.5656 28.0366 56.6964 30.4873C53.519 39.4531 51.8104 48.9568 48.4832 57.9226C47.9436 59.387 50.2217 59.9549 50.7912 58.5502C53.3683 51.729 55.4715 44.7391 57.086 37.63C58.375 32.6689 59.6639 25.6756 63.9503 22.3583C64.0466 22.2845 64.128 22.1933 64.1901 22.0893C68.4288 23.1706 72.7951 23.6733 77.1693 23.5836C84.4833 23.7629 91.7073 24.8986 99.0512 24.779C105.24 25.0233 111.438 24.8636 117.606 24.3008C121.622 23.733 117.186 37.6599 116.587 40.1106C115.466 45.0072 113.839 49.7746 111.731 54.3363C108.044 62.0768 102.828 62.7642 94.9446 62.7642C92.235 62.9698 89.559 63.4913 86.9712 64.3182C82.061 65.2578 77.0734 65.738 72.0736 65.7528C63.6805 66.0217 55.9769 62.1664 48.2733 59.4169C48.0043 59.3384 47.7167 59.3516 47.4561 59.4544C47.1955 59.5573 46.9767 59.7439 46.8345 59.9848C44.8708 63.2372 43.6908 66.8997 43.3874 70.684C42.4914 76.7363 41.2098 82.7256 39.5506 88.6156C34.275 89.4823 36.0435 98.1492 38.1118 102.752C36.9631 105.196 36.6779 107.955 37.3024 110.582C36.7775 110.937 36.2769 111.326 35.8037 111.747L33.9452 113.242C33.7598 113.408 33.6399 113.635 33.607 113.881C33.574 114.128 33.6302 114.378 33.7654 114.587C34.0447 115.144 34.4718 115.614 35.0003 115.945C35.5288 116.277 36.1384 116.459 36.7629 116.469C35.9536 117.007 35.1442 117.545 34.3049 118.053C30.2283 115.991 26.4814 117.844 23.2441 120.534C23.1042 120.666 23.0025 120.834 22.9496 121.019C22.8968 121.204 22.8948 121.4 22.9438 121.587C22.9928 121.773 23.091 121.943 23.2282 122.078C23.3654 122.214 23.5365 122.31 23.7237 122.357C24.7058 122.62 25.7086 122.8 26.7212 122.895C25.762 123.493 24.7729 124.09 23.7237 124.718C21.565 123.813 19.1782 123.597 16.8915 124.101C14.6049 124.604 12.5307 125.801 10.9543 127.527C10.8112 127.673 10.709 127.854 10.6579 128.051C10.6069 128.249 10.6088 128.457 10.6634 128.653C10.718 128.85 10.8235 129.029 10.9692 129.172C11.115 129.315 11.2959 129.418 11.4939 129.47C12.6656 129.89 13.8831 130.171 15.1209 130.307C9.97157 133.849 5.15575 137.85 0.732817 142.261C0.583501 142.418 0.475292 142.609 0.417778 142.818C0.360264 143.026 0.355219 143.245 0.403091 143.456C0.255869 143.564 0.141523 143.711 0.0727381 143.88C0.00395338 144.049 -0.0165806 144.233 0.0134143 144.413C0.373116 146.714 0.882693 150.868 3.43058 151.854C6.80458 152.797 10.3447 152.991 13.802 152.422C14.0805 152.407 14.3431 152.288 14.5376 152.089C14.732 151.889 14.844 151.624 14.8511 151.346C16.7695 152.153 21.4456 146.505 22.0451 145.817C23.9505 143.661 25.7414 141.406 27.4107 139.063C28.6101 137.736 29.5278 136.181 30.1084 134.491C38.22 135.544 46.2374 137.222 54.0885 139.511C50.417 143.701 47.1174 148.201 44.2267 152.96C44.1235 153.209 44.1235 153.488 44.2267 153.737C44.0683 153.84 43.9495 153.994 43.8896 154.173C43.8297 154.352 43.8323 154.546 43.897 154.723C44.2422 156.21 44.9885 157.574 46.0552 158.668C47.6633 159.484 49.4873 159.777 51.2709 159.505C52.021 159.579 52.7783 159.492 53.4919 159.25C54.2054 159.008 54.8586 158.616 55.4074 158.101C55.4872 158.008 55.5575 157.908 55.6172 157.802C55.7639 157.86 55.9243 157.873 56.0787 157.841C56.2332 157.81 56.3749 157.733 56.4865 157.622C59.7807 154.129 62.4293 150.081 64.31 145.668C64.7896 144.801 65.2692 143.935 65.8088 143.098C67.671 143.61 69.6087 143.792 71.534 143.636C72.9307 143.381 74.2297 142.747 75.2876 141.803C76.3456 140.859 77.1212 139.642 77.529 138.286C77.6127 138.138 77.662 137.973 77.6733 137.804C77.6846 137.634 77.6576 137.464 77.5943 137.307C77.5311 137.149 77.4331 137.007 77.3077 136.892C77.1822 136.777 77.0325 136.692 76.8696 136.642C75.0835 135.949 73.1807 135.605 71.2643 135.626L72.5532 134.222C74.0877 135.034 75.8614 135.277 77.559 134.909C78.8779 134.431 80.8563 132.608 80.8563 131.143C80.8564 130.931 80.7858 130.725 80.6555 130.557C80.5253 130.39 80.3429 130.27 80.1369 130.217C78.8779 130.038 77.559 129.828 76.2401 129.739C77.529 128.663 78.818 127.587 80.1369 126.541C82.2186 127.168 84.4399 127.168 86.5216 126.541C88.6169 125.439 90.2603 123.642 91.1677 121.46C91.2518 121.317 91.3014 121.156 91.3127 120.99C91.324 120.825 91.2966 120.658 91.2327 120.505C91.1688 120.352 91.0702 120.215 90.9445 120.106C90.8188 119.997 90.6695 119.918 90.5083 119.876C89.8488 119.876 89.1594 119.637 88.47 119.577C88.5979 119.484 88.6929 119.353 88.7413 119.203C88.7898 119.052 88.7892 118.891 88.7397 118.741C98.667 117.597 108.367 114.978 117.516 110.97C133.912 103.648 148.72 92.3513 164.097 83.1763C166.016 82.0108 180.074 75.0473 180.284 70.2954C180.954 69.9361 181.57 69.4833 182.112 68.9506C186.771 67.9924 191.162 66.0231 194.972 63.1826C199.738 60.194 204.713 58.2813 208.37 53.9179C208.502 53.7944 208.604 53.6434 208.671 53.4759C208.737 53.3083 208.766 53.1282 208.754 52.9484C208.743 52.7686 208.692 52.5935 208.605 52.4357C208.518 52.2778 208.397 52.141 208.25 52.0351ZM89.7589 5.53242C88.2211 6.36498 86.8976 7.54135 85.8921 8.96932C85.2626 9.89578 84.6931 10.8521 84.1236 11.8085C83.9878 8.43655 82.8507 5.18078 80.8563 2.45416C84.0685 2.55527 87.1736 3.62895 89.7589 5.53242ZM81.0661 7.53479C81.6033 9.06176 81.877 10.6685 81.8754 12.2867C81.8713 12.4369 81.8979 12.5864 81.9537 12.7261C82.0095 12.8657 82.0933 12.9926 82.1999 13.0989C82.3065 13.2052 82.4337 13.2887 82.5738 13.3443C82.7138 13.3999 82.8638 13.4265 83.0145 13.4223C82.3432 13.978 81.548 14.3651 80.6956 14.5511C79.8433 14.737 78.9586 14.7164 78.1159 14.491C77.2732 14.2656 76.4969 13.8419 75.8524 13.2555C75.2079 12.6692 74.7138 11.9372 74.4116 11.1211C73.1227 6.72787 78.9978 2.36451 81.0661 7.53479ZM36.3432 114.258C37.154 113.695 37.916 113.065 38.6214 112.375C38.9825 112.692 39.3741 112.972 39.7904 113.212L40.9294 113.75L39.1609 114.885C39.0795 114.734 38.95 114.614 38.7927 114.543C38.6354 114.473 38.4592 114.457 38.2916 114.497C37.9683 114.596 37.6276 114.626 37.2918 114.585C36.956 114.544 36.6327 114.432 36.3432 114.258ZM28.7895 119.548C29.7708 119.281 30.8058 119.281 31.787 119.548L29.1792 121.191C28.25 120.982 27.3207 120.863 26.3915 120.713C27.1237 120.2 27.9332 119.807 28.7895 119.548ZM13.9818 127.856C15.0944 126.949 16.4493 126.388 17.8786 126.242C18.8826 126.184 19.8899 126.255 20.8761 126.451L17.1892 128.902C17.132 128.803 17.0543 128.717 16.9613 128.65C16.8683 128.583 16.762 128.536 16.6496 128.513C15.7494 128.341 14.859 128.121 13.9818 127.856ZM5.46888 150.211C3.10085 149.792 2.47137 146.923 2.17162 144.682C5.34502 145.944 8.70979 146.661 12.1234 146.804C12.3666 147.998 12.5367 149.205 12.6329 150.42C10.2452 150.64 7.83955 150.57 5.46888 150.211ZM20.4564 144.233C19.0791 145.891 17.5651 147.43 15.9302 148.836C15.7204 149.015 15.2108 149.254 14.8211 149.583C14.7204 148.572 14.5298 147.572 14.2516 146.594C17.3184 145.092 20.0191 142.94 22.165 140.288L27.4706 135.088C25.5322 138.413 23.1749 141.476 20.4564 144.204V144.233ZM19.0476 139.87C16.0501 143.008 13.2624 144.891 8.7062 143.875C7.21637 143.534 5.74556 143.115 4.29986 142.62C15.7503 131.562 30.1084 124.688 42.8778 115.393C43.0679 115.266 43.2062 115.075 43.2675 114.855C44.9078 115.53 46.5899 116.099 48.3033 116.559C40.6297 119.548 34.215 125.525 28.22 130.934C25.0127 133.773 22.0751 136.822 19.0476 139.84V139.87ZM70.9645 124.15C69.8254 125.166 68.6564 126.152 67.4574 127.139H67.2176C62.7513 126.302 58.2251 126.66 53.8487 125.435C50.4352 123.995 46.9055 122.845 43.2975 121.998C44.4965 121.191 45.6955 120.444 46.9245 119.697C47.0684 119.823 47.245 119.906 47.434 119.936C55.4674 120.773 63.081 122.536 70.9645 124.12V124.15ZM50.2817 117.784L50.9112 117.456C51.0119 117.401 51.1031 117.33 51.1809 117.246C54.3702 117.91 57.5919 118.409 60.8329 118.741C65.8089 119.295 70.8136 119.555 75.8205 119.518C74.8613 120.504 73.8421 121.46 72.823 122.506C72.6841 122.396 72.5188 122.324 72.3434 122.297C65.8388 120.892 57.4457 117.306 50.2817 117.754V117.784ZM39.5506 124.539C40.0901 124.12 40.6896 123.732 41.2592 123.313C41.3318 123.451 41.439 123.567 41.5704 123.651C41.7018 123.735 41.8528 123.783 42.0085 123.791C46.5648 124.06 50.3716 126.78 54.658 127.826C58.175 128.636 61.7808 128.997 65.3891 128.902L63.4707 130.456C55.4374 128.693 47.6139 126.152 39.5506 124.509V124.539ZM61.7921 131.891L59.4541 133.923C51.0697 131.861 42.5859 130.225 34.0352 129.021L37.2425 126.362H37.5423C45.6355 127.946 53.519 131.143 61.7921 131.861V131.891ZM29.8686 132.757L32.3266 130.486C36.7629 131.592 41.3191 131.502 45.7854 132.608C49.7721 133.594 53.8187 134.55 57.7754 135.596C56.9361 136.373 56.1268 137.21 55.3175 138.047C55.1778 137.831 54.9651 137.672 54.718 137.599C46.8345 135.178 38.2617 132.1 29.8686 132.727V132.757ZM53.489 156.666C52.8296 157.473 50.9111 157.264 50.0119 157.264C48.9839 157.432 47.9289 157.253 47.0144 156.756C46.5043 156.164 46.1263 155.472 45.9053 154.723C48.4677 155.411 51.1812 155.286 53.6689 154.365C53.7588 155.411 54.0885 156.218 53.489 156.756V156.666ZM55.8271 155.471C55.7776 154.714 55.616 153.969 55.3475 153.259C57.3767 151.433 59.0442 149.243 60.2634 146.804C61.1686 145.239 62.1697 143.732 63.2609 142.291H63.4707C61.2714 146.905 58.7158 151.341 55.8271 155.56V155.471ZM74.7713 138.256C74.3295 139.188 73.6215 139.968 72.7362 140.5C71.851 141.032 70.8279 141.291 69.7955 141.245C68.8536 141.208 67.9187 141.068 67.0078 140.826C67.7272 139.751 68.5065 138.734 69.2859 137.838C71.1288 137.766 72.9732 137.937 74.7713 138.346V138.256ZM77.9487 132.279C77.5022 132.718 76.9723 133.063 76.39 133.295C75.4392 133.477 74.4553 133.362 73.5723 132.966L74.6215 131.95C75.7567 132.174 76.9114 132.284 78.0686 132.279H77.9487ZM65.3292 136.971C62.5667 139.549 60.176 142.496 58.2251 145.728C55.2276 151.018 52.8895 153.558 46.9544 152.691C50.9348 146.413 55.6323 140.616 60.9528 135.417C66.6781 129.828 73.4524 125.525 78.758 119.548C81.1261 119.548 83.5241 119.309 85.8921 119.099C78.758 124.658 72.0736 130.695 65.3292 136.971ZM88.2601 121.789C87.6134 123.026 86.553 123.999 85.2626 124.539C84.1792 124.929 83.017 125.052 81.8754 124.897L85.982 121.46C86.7269 121.653 87.4909 121.764 88.2601 121.789ZM150.758 88.1075C139.967 94.8319 129.776 102.184 118.235 107.892C105.196 114.377 91.2576 116.38 76.7197 116.858C69.1362 117.188 61.5402 116.626 54.0885 115.184C47.5839 113.899 40.3599 112.435 39.9103 105.322C43.2675 109.356 48.9028 110.881 53.8487 111.897C62.8134 113.558 71.9763 113.881 81.0361 112.853C89.6675 112.132 98.2464 110.884 106.725 109.117C115.199 106.864 123.284 103.347 130.705 98.6872C138.828 94.0249 146.802 89.1236 154.925 84.4315C172.22 74.3898 156.154 84.7304 150.758 88.1075ZM176.986 65.3045C174.798 72.8955 163.887 76.1232 157.623 79.6498C149.499 84.1625 141.556 89.0041 133.642 93.8456C125.773 98.9827 117.269 103.081 108.343 106.039C98.4687 108.501 88.3817 110.022 78.2185 110.582C68.8879 111.54 59.4621 110.913 50.3416 108.729C47.9709 108.311 45.7361 107.329 43.8264 105.867C41.9168 104.405 40.3884 102.506 39.3707 100.331C38.8612 98.7768 37.0626 91.0064 39.9403 90.4984C40.047 90.5814 40.1693 90.6423 40.3 90.6777L43.5373 91.3651C38.9811 91.9628 38.5015 99.8228 42.9378 101.377C45.0061 102.094 46.5048 100.421 47.0144 98.5975C47.2659 97.4568 47.2218 96.2709 46.8862 95.1519C46.5505 94.0329 45.9344 93.0176 45.096 92.2019C45.0676 92.0509 45.0062 91.9081 44.9161 91.7835C54.5814 93.8586 64.3458 95.4446 74.1718 96.5354H75.0711C71.4741 99.524 72.793 107.324 78.3983 107.743C84.6331 108.191 84.6931 100.092 81.0661 96.8043C91.5887 96.3907 102.001 94.5095 112 91.2157C122.854 87.7399 133.426 83.4437 143.624 78.3647C154.745 73.1346 166.645 68.831 177.496 63.2124C177.436 63.9895 177.256 64.6769 176.986 65.3045ZM44.8562 97.3722C44.8562 97.9101 44.5864 99.524 43.7471 99.3447C41.499 98.8067 41.6189 94.7123 43.3274 93.3674C44.2733 94.4935 44.8117 95.9041 44.8562 97.3722ZM77.4691 97.3722C79.1777 98.5676 80.4666 99.3148 81.1261 101.467C81.7855 103.618 81.1261 105.262 78.9079 105.412C74.7114 105.77 74.3517 99.1056 77.4691 97.4021V97.3722ZM178.185 60.3135C177.998 60.274 177.804 60.274 177.616 60.3135C167.874 65.424 157.203 69.2793 147.251 73.9415C136.478 79.3631 125.387 84.1335 114.039 88.2271C102.197 92.5427 89.655 94.6302 77.0494 94.3836C65.2646 93.535 53.5727 91.6954 42.0985 88.8845C42.8179 86.3143 43.5672 83.7441 44.1967 81.1739C47.3741 80.5463 52.1401 82.5487 55.2575 83.2062C60.1032 84.3085 65.0395 84.9688 70.0053 85.1787C82.6288 85.83 95.2816 84.7134 107.594 81.8613C132.127 75.5047 155.972 66.7557 178.785 55.7409C178.635 57.3548 178.425 58.9089 178.185 60.3434V60.3135ZM178.995 53.4098C178.813 53.3202 178.613 53.2736 178.41 53.2736C178.208 53.2736 178.008 53.3202 177.826 53.4098C155.068 64.282 131.32 72.9586 106.905 79.321C93.9401 82.1512 80.6419 83.1572 67.3975 82.3096C61.9455 81.9201 56.5389 81.05 51.2409 79.7095C49.0899 79.1203 46.8761 78.7892 44.6464 78.7233C44.9161 77.4681 45.1559 76.183 45.3358 74.8979C45.6311 70.7371 46.561 66.6455 48.0935 62.7642C48.5131 61.8676 60.5631 66.7091 61.882 67.0976C66.8798 68.3825 72.0725 68.7371 77.1993 68.1436C81.5329 67.7736 85.8318 67.0742 90.0586 66.0516C95.0045 64.8861 100.13 66.0516 105.046 64.6769C109.962 63.3021 113.229 56.9065 115.178 52.4535C117.347 46.9251 118.973 41.2 120.034 35.3587C120.813 31.8919 124.29 24.5698 119.794 21.9398C118.265 21.0433 113.799 22.1491 112.72 22.2088C106.455 22.6272 100.04 22.3881 93.7456 22.2088C88.8297 22.2088 83.9137 21.4916 78.9978 21.2226C74.1183 21.3285 69.2446 20.8265 64.4899 19.7283C66.3057 16.5312 68.9177 13.8549 72.0736 11.9579C72.4158 13.5411 73.1818 15.0023 74.2902 16.1863C75.3985 17.3702 76.8078 18.2328 78.3684 18.6823C79.7297 18.7714 81.0878 18.4662 82.2791 17.8034C83.4704 17.1405 84.4441 16.1484 85.0828 14.9465C87.6606 11.42 88.9496 8.40148 93.6257 6.90718C98.3018 5.41288 106.305 8.9992 111.161 9.89578C129.656 13.5718 147.731 19.1007 166.135 23.1353C177.346 25.6457 179.774 40.9175 178.995 53.4397V53.4098ZM179.684 65.1849C182.682 57.026 181.932 46.5958 180.344 38.9151C179.487 34.2286 177.726 29.7525 175.158 25.7354C183.761 27.3193 183.461 37.8392 183.461 45.3705C183.461 50.1821 185.979 63.9297 179.684 65.2148V65.1849ZM201.536 54.3662C196.021 57.3548 190.385 60.3434 185.08 63.8699C185.668 62.5736 186.043 61.191 186.189 59.7756C186.336 59.8179 186.492 59.8179 186.638 59.7756C190.287 57.5943 194.072 55.6477 197.969 53.9478C200.84 53.1385 203.638 52.0888 206.332 50.8097C205.493 52.6926 203.574 53.3202 201.536 54.3961V54.3662ZM207.741 41.0669C207.617 43.4408 207.357 45.8057 206.962 48.1499H206.632C203.339 49.9362 199.874 51.388 196.29 52.4834C192.824 53.9131 189.511 55.6852 186.399 57.7732C186.608 53.2903 185.799 48.2694 185.769 45.2808C185.769 37.7794 185.409 28.7539 179.564 25.1974C184.81 25.7354 189.726 28.4849 194.762 30.0091C199.348 31.3838 203.754 31.593 206.212 34.492C204.899 34.362 203.573 34.4427 202.285 34.7311C202.126 34.7854 201.982 34.8771 201.866 34.9985C201.75 35.1199 201.664 35.2675 201.617 35.4287C201.57 35.5899 201.563 35.76 201.596 35.9247C201.628 36.0894 201.701 36.2438 201.806 36.3748C201.667 37.6907 201.789 39.0211 202.166 40.2899C202.515 40.8319 203.03 41.2469 203.635 41.4731C204.24 41.6993 204.902 41.7246 205.523 41.5451C207.321 41.0968 207.651 39.1542 207.561 37.3909C207.78 38.6134 207.841 39.8589 207.741 41.0968V41.0669ZM205.043 39.7818C204.264 40.3198 203.574 39.7818 203.424 38.945C203.319 38.2323 203.259 37.5136 203.245 36.7932H205.433C205.643 37.7794 205.823 39.2737 205.043 39.8117V39.7818Z" fill="#333184"/>
<path d="M145.392 49.5259C146.248 42.5786 146.248 35.5529 145.392 28.6056C145.537 28.4037 145.611 28.16 145.604 27.9117C145.597 27.6634 145.509 27.4242 145.352 27.2309C145.196 27.0376 144.98 26.9008 144.738 26.8414C144.496 26.782 144.241 26.8034 144.013 26.9021C135.68 28.0378 126.387 19.4007 123.81 31.5046C122.461 37.7807 120.242 43.6981 118.504 49.8546C117.844 52.3053 115.746 57.7146 118.114 60.0457C119.883 61.809 122.76 60.9124 124.829 60.2848C129.71 59.1616 134.523 57.7647 139.247 56.1008C142.574 54.726 145.092 53.3812 145.392 49.5259ZM136.399 54.5467C133.162 55.5031 129.894 55.9812 126.717 57.1767C125.518 57.625 124.349 58.0135 123.12 58.3721C119.403 59.5078 119.943 55.2042 120.452 52.8133C121.951 45.7901 125.009 39.3048 126.447 32.2219C127.886 24.3021 137.178 29.2333 143.173 29.2333C143.753 33.4916 143.884 37.7988 143.563 42.0842C143.054 48.3304 143.503 52.4248 136.339 54.5467H136.399Z" fill="#333184"/>
<path d="M164.037 32.8781C164.037 33.5954 164.037 34.3724 163.857 35.1495C163.546 32.4969 162.354 30.0244 160.47 28.1263C160.321 27.9956 160.139 27.9073 159.944 27.8705C159.749 27.8337 159.547 27.8498 159.361 27.9171C154.685 26.6917 147.91 26.2136 147.191 32.2505C146.901 36.0662 147.001 39.9015 147.491 43.6969C147.73 46.3268 146.951 49.4649 148.09 51.8558C149.229 54.2466 153.875 53.1409 155.734 52.3937C157.592 51.6466 161.999 50.8098 163.437 48.8672C164.034 48.0782 164.426 47.1541 164.576 46.1774C164.846 47.4924 165.206 49.6741 167.004 49.6442C169.802 49.5583 172.512 48.6541 174.798 47.0441C179.594 43.5773 176.357 35.6277 173.689 31.8321C173.591 31.6742 173.458 31.5412 173.299 31.4436C173.539 30.9654 173.299 30.1884 172.61 30.2482C168.803 30.4873 164.996 27.3492 164.037 32.8781ZM161.219 47.8211C159.538 48.5791 157.805 49.2183 156.033 49.7339C155.104 50.1523 149.769 53.0512 150.038 48.9867C150.038 48.0303 150.038 47.1338 150.038 46.1774C150.038 42.1428 149.259 38.1979 149.349 34.223C149.529 28.6044 154.535 29.4412 158.851 29.77C161.729 32.2804 164.996 45.1912 161.219 47.8211ZM171.201 46.2372C170.122 46.6556 167.544 47.7913 167.184 46.2372C166.934 45.2564 166.763 44.2569 166.675 43.2486C166.35 40.3417 166.25 37.4142 166.375 34.492C166.375 32.5195 166.375 31.5034 168.713 31.9218C169.593 32.0741 170.489 32.1243 171.381 32.0712C171.282 32.228 171.23 32.4093 171.23 32.5942C171.23 32.7792 171.282 32.9604 171.381 33.1172C174.138 36.8829 176.986 43.8463 171.201 46.2073V46.2372Z" fill="#333184"/>
<path d="M108.043 53.4691C111.733 45.8628 114.471 37.8329 116.196 29.5603C116.231 29.4347 116.242 29.3034 116.226 29.1738C116.211 29.0443 116.17 28.919 116.106 28.8053C116.042 28.6915 115.956 28.5914 115.853 28.5107C115.75 28.43 115.632 28.3703 115.506 28.335C115.38 28.2996 115.249 28.2894 115.119 28.3048C114.989 28.3203 114.863 28.361 114.749 28.4249C114.635 28.4887 114.535 28.5743 114.454 28.6768C114.373 28.7793 114.313 28.8967 114.277 29.0223C111.28 36.8525 108.642 44.8022 105.854 52.6622C105.822 52.9292 105.881 53.1994 106.021 53.429C106.162 53.6587 106.376 53.8343 106.629 53.9277C106.882 54.021 107.159 54.0265 107.416 53.9433C107.672 53.86 107.893 53.693 108.043 53.4691Z" fill="#333184"/>
<path d="M128.068 36.2241C126.637 39.4286 125.513 42.7608 124.71 46.1762C124.111 48.5671 122.732 52.9005 124.531 55.142C124.686 55.2947 124.882 55.3985 125.096 55.4403C125.31 55.4822 125.532 55.4603 125.733 55.3774C125.935 55.2945 126.107 55.1543 126.229 54.9742C126.351 54.7941 126.417 54.5822 126.419 54.3649C126.149 48.3877 128.247 42.799 129.686 37.0012C129.926 35.8655 128.517 35.2977 128.068 36.2241Z" fill="#333184"/>
<path d="M131.121 47.8201C130.941 49.149 130.941 50.496 131.121 51.8248C131.182 52.0113 131.3 52.1739 131.459 52.2892C131.618 52.4045 131.809 52.4666 132.006 52.4666C132.202 52.4666 132.394 52.4045 132.553 52.2892C132.712 52.1739 132.83 52.0113 132.89 51.8248C133.07 50.496 133.07 49.149 132.89 47.8201C132.89 47.5863 132.797 47.362 132.631 47.1967C132.465 47.0314 132.24 46.9385 132.006 46.9385C131.771 46.9385 131.546 47.0314 131.38 47.1967C131.215 47.362 131.121 47.5863 131.121 47.8201Z" fill="#333184"/>
<path d="M132.83 90.0507C126.535 93.0393 120.84 99.5246 113.556 99.7338C112.717 99.7338 112.447 101.109 113.346 101.228C120.72 102.274 127.974 95.2509 133.789 91.6945C133.98 91.5547 134.112 91.3496 134.16 91.1186C134.208 90.8876 134.169 90.6471 134.05 90.4432C133.931 90.2393 133.741 90.0864 133.516 90.014C133.29 89.9415 133.046 89.9546 132.83 90.0507Z" fill="#333184"/>
<path d="M159.9 76.2427L167.184 73.2541C168.233 72.8357 167.873 71.1621 166.704 71.5207C164.097 72.3122 161.585 73.3845 159.211 74.7185C158.371 75.107 159.001 76.6312 159.9 76.2427Z" fill="#333184"/>
<path d="M69.7962 69.2195C63.3537 68.9932 56.9624 67.9897 50.762 66.2309C49.503 65.7826 48.9635 67.755 50.2224 68.2033C56.5403 70.2553 63.1519 71.2648 69.7962 71.1919C70.0171 71.1373 70.2133 71.0105 70.3535 70.8318C70.4938 70.653 70.57 70.4326 70.57 70.2057C70.57 69.9788 70.4938 69.7584 70.3535 69.5796C70.2133 69.4009 70.0171 69.2741 69.7962 69.2195Z" fill="#333184"/>
<path d="M97.0737 18.6835C94.5351 18.4885 92.0119 18.1291 89.52 17.6076C88.5308 17.2789 88.1412 18.8031 89.1004 19.1617C91.5441 19.8601 94.0568 20.291 96.5941 20.4468C97.7332 20.5963 98.2428 18.9226 97.0737 18.6835Z" fill="#333184"/>
<path d="M152.705 59.0579C148.629 60.6717 144.822 64.0489 140.266 64.1086C140.059 64.1086 139.861 64.1905 139.715 64.3362C139.568 64.4819 139.486 64.6796 139.486 64.8857C139.486 65.0917 139.568 65.2894 139.715 65.4351C139.861 65.5808 140.059 65.6627 140.266 65.6627C144.882 66.2006 149.438 62.6741 153.395 60.6717C154.324 60.2533 153.665 58.6694 152.705 59.0579Z" fill="#333184"/>
<path d="M165.203 55.3534C164.332 55.5197 163.499 55.8439 162.745 56.3098C162.596 56.4317 162.496 56.6027 162.462 56.7919C162.428 56.9811 162.463 57.1761 162.561 57.3419C162.658 57.5076 162.812 57.6332 162.994 57.696C163.176 57.7588 163.375 57.7548 163.554 57.6845C164.219 57.3623 164.925 57.1311 165.653 56.9972C165.835 56.909 165.981 56.7599 166.065 56.5759C166.149 56.3918 166.165 56.1843 166.112 55.9892C166.059 55.7942 165.939 55.6239 165.773 55.5077C165.607 55.3916 165.405 55.3371 165.203 55.3534Z" fill="#333184"/>
<path d="M153.153 24.1505C156.292 24.9097 159.492 25.3898 162.716 25.585C162.937 25.5455 163.138 25.4295 163.282 25.2574C163.427 25.0853 163.506 24.868 163.506 24.6436C163.506 24.4191 163.427 24.2019 163.282 24.0297C163.138 23.8576 162.937 23.7417 162.716 23.7022C159.568 23.5228 156.481 22.9849 153.363 22.6263C152.494 22.5366 152.314 23.9114 153.153 24.1505Z" fill="#333184"/>
<path d="M187.389 44.1442C187.54 44.2423 187.717 44.2943 187.898 44.2936C190.896 44.2936 194.403 42.4705 193.893 38.9141C193.682 37.1342 192.941 35.4582 191.765 34.1025C190.686 32.9967 188.768 33.3254 187.479 33.2059C187.352 33.1626 187.215 33.1626 187.089 33.2059C186.609 32.9369 185.83 33.2059 185.89 33.8634C186.1 36.852 185.89 40.1095 186.16 43.1878C186.138 43.3439 186.157 43.503 186.216 43.6492C186.275 43.7953 186.372 43.9234 186.497 44.0204C186.621 44.1173 186.77 44.1798 186.926 44.2016C187.083 44.2233 187.242 44.2035 187.389 44.1442ZM190.176 35.1783C191.136 35.6266 191.495 37.6589 191.735 38.5555C192.455 41.1854 189.997 41.5441 188.048 42.1717C188.158 39.6613 187.998 37.1464 187.569 34.6703C188.46 34.7557 189.337 34.9567 190.176 35.268V35.1783Z" fill="#333184"/>
<path d="M197.401 42.891C198.291 42.711 199.098 42.2456 199.699 41.5658C200.3 40.8859 200.661 40.029 200.728 39.1254C200.968 37.4817 200.728 35.0011 198.75 34.3735C197.88 34.0448 197.281 35.2402 197.88 35.8678C198.324 36.2143 198.641 36.6978 198.78 37.2426C198.929 37.8815 198.929 38.5462 198.78 39.1852C198.716 39.7479 198.45 40.2684 198.03 40.6496C197.82 40.799 197.041 41.337 196.771 41.0979C196.501 40.8588 196.232 39.2748 196.202 38.6173C196.179 37.6149 196.079 36.6158 195.902 35.6287C195.692 34.6425 194.313 35.0908 194.433 36.0173C194.733 37.9897 193.744 43.6083 197.401 42.891Z" fill="#333184"/>
<path d="M205.346 45.3093C199.486 47.7761 193.361 49.5611 187.091 50.629C186.102 50.629 186.072 52.213 187.091 52.1532C193.69 51.7049 200.137 49.9685 206.065 47.0427C206.25 46.9198 206.386 46.737 206.45 46.5253C206.515 46.3136 206.504 46.0861 206.419 45.8817C206.334 45.6773 206.181 45.5085 205.985 45.4041C205.789 45.2997 205.564 45.2662 205.346 45.3093Z" fill="#333184"/>
<path d="M53.2185 59.7753C58.8751 61.5804 64.7574 62.5864 70.694 62.7639C76.4192 63.242 81.545 59.9247 86.8506 58.281C87.1129 58.2096 87.3361 58.0373 87.471 57.8019C87.6059 57.5665 87.6415 57.2873 87.57 57.0257C87.4984 56.7642 87.3256 56.5417 87.0895 56.4072C86.8534 56.2726 86.5734 56.2371 86.311 56.3085C80.8556 57.5338 76.4192 60.4626 70.694 60.4925C64.9318 60.5577 59.2018 59.6275 53.7581 57.743C52.4991 57.3844 51.9596 59.4166 53.2185 59.7753Z" fill="#333184"/>
<path d="M57.0876 54.5161C58.2866 56.6978 62.5431 56.3093 64.6413 56.5782C65.8103 56.7277 66.0202 54.815 64.9111 54.5759C63.7334 54.3412 62.542 54.1815 61.344 54.0977C60.209 53.9264 59.0872 53.6768 57.9868 53.3505C57.8353 53.315 57.6767 53.3238 57.5301 53.3758C57.3834 53.4279 57.2549 53.521 57.16 53.644C57.0651 53.7671 57.0078 53.9148 56.9949 54.0694C56.9821 54.2241 57.0143 54.3792 57.0876 54.5161Z" fill="#333184"/>
<path d="M62.3599 34.6706C63.5264 31.5498 64.8674 28.4967 66.3766 25.5255C66.4396 25.4195 66.481 25.3023 66.4985 25.1803C66.516 25.0584 66.5093 24.9342 66.4787 24.8149C66.4481 24.6955 66.3942 24.5834 66.3201 24.4848C66.246 24.3863 66.1531 24.3032 66.0469 24.2404C65.9406 24.1776 65.8229 24.1363 65.7006 24.1189C65.5783 24.1014 65.4538 24.1081 65.3341 24.1386C65.2144 24.1692 65.1019 24.2229 65.0031 24.2968C64.9042 24.3706 64.8209 24.4632 64.7579 24.5692C62.8377 27.5185 61.3821 30.7438 60.4415 34.1327C60.37 34.3863 60.4024 34.6579 60.5317 34.8877C60.661 35.1175 60.8765 35.2867 61.1309 35.358C61.3853 35.4294 61.6577 35.397 61.8882 35.2681C62.1187 35.1392 62.2884 34.9243 62.3599 34.6706Z" fill="#333184"/>
<path d="M70.3628 35.6586C71.1099 33.844 71.682 31.9627 72.0714 30.04C72.0714 29.1434 70.6326 28.9342 70.4827 29.8308C70.153 31.7136 69.1038 33.3275 68.7441 35.1804C68.7559 35.3636 68.8238 35.5387 68.9386 35.6822C69.0534 35.8257 69.2096 35.9306 69.3861 35.9827C69.5626 36.0349 69.7509 36.0318 69.9256 35.9738C70.1002 35.9158 70.2529 35.8058 70.3628 35.6586Z" fill="#333184"/>
<path d="M157.861 36.0458C157.715 37.232 157.945 38.4341 158.521 39.4827C158.659 39.6799 158.861 39.8237 159.093 39.8898C159.325 39.9559 159.573 39.9402 159.794 39.8455C160.016 39.7507 160.198 39.5826 160.31 39.3696C160.422 39.1565 160.457 38.9115 160.409 38.6758C160.173 37.8199 160.072 36.9326 160.109 36.0458C160.066 35.78 159.929 35.5383 159.723 35.3639C159.517 35.1895 159.256 35.0938 158.985 35.0938C158.715 35.0938 158.454 35.1895 158.248 35.3639C158.042 35.5383 157.905 35.78 157.861 36.0458Z" fill="#333184"/>
<path d="M141.796 100.603C137.45 102.848 133.29 105.436 129.357 108.343C128.577 108.911 129.357 110.136 130.106 109.628C134.333 107.177 138.499 104.637 142.756 102.246C142.946 102.106 143.078 101.901 143.126 101.67C143.175 101.439 143.135 101.199 143.016 100.995C142.897 100.791 142.707 100.638 142.482 100.566C142.257 100.493 142.013 100.506 141.796 100.603Z" fill="#333184"/>
<path d="M170.992 81.5344C168.375 82.9184 165.843 84.4552 163.408 86.1369C162.449 86.8242 163.408 88.4082 164.337 87.7208C166.795 86.0771 169.463 84.7322 171.921 83.1184C172.097 82.9799 172.216 82.7827 172.258 82.5631C172.3 82.3436 172.26 82.1164 172.147 81.9236C172.034 81.7307 171.855 81.5851 171.642 81.5136C171.43 81.4421 171.199 81.4495 170.992 81.5344Z" fill="#333184"/>
<path d="M110.802 124.66C110.143 125.646 109.454 126.633 108.854 127.649C108.255 128.665 109.693 129.382 110.323 128.515C110.952 127.649 111.672 126.573 112.361 125.527C113.051 124.481 111.432 123.704 110.802 124.66Z" fill="#333184"/>
<path d="M127.226 118.323C124.344 121.275 121.632 124.388 119.103 127.647C118.474 128.544 119.912 129.38 120.542 128.514C122.96 125.391 125.541 122.399 128.276 119.548C129.025 118.681 127.886 117.605 127.226 118.323Z" fill="#333184"/>
<path d="M13.0243 118.112C18.7768 115.298 24.3615 112.154 29.7504 108.698C29.9372 108.591 30.0738 108.414 30.13 108.207C30.1862 107.999 30.1575 107.778 30.0502 107.592C29.9428 107.406 29.7657 107.27 29.5577 107.214C29.3497 107.158 29.1279 107.186 28.9411 107.293C23.3058 110.282 17.6704 113.27 11.9752 116.259C10.8061 116.946 11.8253 118.68 13.0243 118.112Z" fill="#333184"/>
<path d="M150.012 104.127L148.034 106.1C147.285 106.847 148.454 107.983 149.203 107.265L151.181 105.293C151.901 104.605 150.702 103.35 150.012 104.127Z" fill="#333184"/>
<path d="M24.622 104.248C25.6493 103.981 26.5959 103.468 27.3797 102.754C28.2789 101.917 26.9001 100.542 26.0308 101.409C25.4744 101.905 24.8214 102.282 24.1124 102.515C23.0932 102.933 23.4829 104.607 24.622 104.248Z" fill="#333184"/>
</svg>
