<svg width="134" height="134" viewBox="0 0 134 134" fill="none" xmlns="http://www.w3.org/2000/svg">
<circle cx="67" cy="62.8125" r="58.125" fill="#484751" stroke="black"/>
<path d="M26.126 96.1196L25.9581 96.4258L26.1879 96.6889C35.4925 107.342 49.3948 114.151 64.9062 114.151C80.4177 114.151 94.32 107.342 103.625 96.6889L103.854 96.4258L103.686 96.1196C98.6814 86.9895 88.8851 80.6982 77.4688 80.6982C76.7872 80.6982 76.1114 80.8082 75.4691 80.9975L75.4691 80.9975L75.4601 81.0003C72.1218 82.0532 68.5876 82.7266 64.9062 82.7266C61.2254 82.7266 57.7171 82.0534 54.3513 81L54.3513 80.9999L54.3434 80.9975C53.7011 80.8082 53.0253 80.6982 52.3438 80.6982C40.9274 80.6982 31.1312 86.9895 26.126 96.1196ZM0.5 64.9717C0.5 30.5277 29.3118 2.59375 64.9062 2.59375C100.501 2.59375 129.312 30.5277 129.312 64.9717C129.312 99.4157 100.501 127.35 64.9062 127.35C29.3118 127.35 0.5 99.4157 0.5 64.9717ZM88.4375 48.7451C88.4375 36.1321 77.8868 25.9336 64.9062 25.9336C51.9257 25.9336 41.375 36.1321 41.375 48.7451C41.375 61.3581 51.9257 71.5566 64.9062 71.5566C77.8868 71.5566 88.4375 61.3581 88.4375 48.7451Z" fill="white" stroke="#E2E2E2"/>
</svg>
