<svg width="38" height="38" viewBox="0 0 38 38" fill="none" xmlns="http://www.w3.org/2000/svg">
<path d="M19 0C8.50403 0 0 8.50403 0 19C0 29.496 8.50403 38 19 38C29.496 38 38 29.496 38 19C38 8.50403 29.496 0 19 0ZM19 34.3226C15.9695 34.3226 13.007 33.4239 10.4872 31.7403C7.96745 30.0566 6.00351 27.6635 4.84378 24.8637C3.68405 22.0639 3.38061 18.983 3.97184 16.0107C4.56306 13.0384 6.0224 10.3082 8.1653 8.1653C10.3082 6.0224 13.0384 4.56306 16.0107 3.97184C18.983 3.38061 22.0639 3.68405 24.8637 4.84378C27.6635 6.00351 30.0566 7.96745 31.7403 10.4872C33.4239 13.007 34.3226 15.9695 34.3226 19C34.3232 21.0124 33.9273 23.0051 33.1574 24.8644C32.3876 26.7237 31.259 28.4131 29.836 29.836C28.4131 31.259 26.7237 32.3876 24.8644 33.1574C23.0051 33.9273 21.0124 34.3232 19 34.3226Z" fill="#141B41"/>
<path d="M27.1208 10.4189H10.8789V14.0964H27.1208V10.4189Z" fill="#141B41"/>
<path d="M27.1208 17.1611H10.8789V20.8386H27.1208V17.1611Z" fill="#141B41"/>
<path d="M27.1208 23.9033H10.8789V27.5807H27.1208V23.9033Z" fill="#141B41"/>
</svg>
