<svg width="25" height="23" viewBox="0 0 25 23" fill="none" xmlns="http://www.w3.org/2000/svg">
<path d="M21.9063 13.8889H9.18273L9.46701 15.2778H21.1172C21.2736 15.2778 21.428 15.313 21.5689 15.3809C21.7098 15.4487 21.8337 15.5474 21.9312 15.6697C22.0288 15.7919 22.0976 15.9346 22.1325 16.087C22.1674 16.2395 22.1675 16.3978 22.1328 16.5503L21.8932 17.6042C22.358 17.8293 22.7391 18.1966 22.981 18.6528C23.223 19.1091 23.3134 19.6305 23.2391 20.1416C23.1647 20.6526 22.9295 21.1267 22.5676 21.4951C22.2056 21.8635 21.7357 22.107 21.2261 22.1904C20.7164 22.2737 20.1934 22.1926 19.733 21.9587C19.2725 21.7247 18.8986 21.3503 18.6653 20.8895C18.4321 20.4287 18.3516 19.9056 18.4357 19.3961C18.5197 18.8865 18.7639 18.417 19.1328 18.0556H10.0339C10.3976 18.4119 10.6403 18.8735 10.7276 19.3751C10.8149 19.8768 10.7425 20.3932 10.5205 20.8515C10.2985 21.3098 9.9382 21.6868 9.49043 21.9292C9.04265 22.1717 8.53002 22.2674 8.02492 22.2029C7.51981 22.1383 7.04774 21.9167 6.67535 21.5694C6.30295 21.2221 6.04904 20.7666 5.94945 20.2672C5.84986 19.7679 5.90964 19.2498 6.12033 18.7862C6.33102 18.3227 6.68199 17.937 7.1237 17.6836L4.07465 2.77778H1.04167C0.7654 2.77778 0.500448 2.66803 0.305097 2.47268C0.109747 2.27733 0 2.01238 0 1.73611L0 1.04167C0 0.765399 0.109747 0.500447 0.305097 0.305097C0.500448 0.109747 0.7654 0 1.04167 0L5.49175 0C5.73146 0.000430127 5.96368 0.0835165 6.14925 0.235245C6.33481 0.386974 6.46238 0.59806 6.51042 0.832899L6.91016 2.77778H23.9583C24.1147 2.7778 24.2691 2.81304 24.41 2.88088C24.551 2.94872 24.6748 3.04743 24.7724 3.16967C24.8699 3.29191 24.9387 3.43456 24.9736 3.58702C25.0085 3.73947 25.0086 3.89784 24.974 4.05035L22.9223 13.0781C22.87 13.3084 22.7409 13.5141 22.5563 13.6614C22.3716 13.8088 22.1424 13.889 21.9063 13.8889Z" fill="#141B41"/>
</svg>
