<svg width="18" height="16" viewBox="0 0 18 16" fill="none" xmlns="http://www.w3.org/2000/svg">
<path d="M-5.52874e-07 9.10262L-7.95817e-07 6.32368C-8.15146e-07 6.10257 0.0906554 5.89052 0.252023 5.73417C0.41339 5.57783 0.632249 5.48999 0.860456 5.48999L9.1782 5.48999L9.1782 0.835268C9.17778 0.670083 9.22802 0.508501 9.32254 0.371026C9.41706 0.233551 9.5516 0.126379 9.70909 0.0631101C9.86658 -0.000157599 10.0399 -0.0166705 10.2071 0.0156676C10.3743 0.0480048 10.5278 0.127736 10.6482 0.244742L17.7469 7.12262C17.8271 7.20007 17.8908 7.29211 17.9342 7.39344C17.9776 7.49478 18 7.60342 18 7.71315C18 7.82287 17.9776 7.93152 17.9342 8.03285C17.8908 8.13419 17.8271 8.22622 17.7469 8.30367L10.6482 15.1816C10.5278 15.2986 10.3743 15.3783 10.2071 15.4106C10.0399 15.443 9.86658 15.4265 9.70909 15.3632C9.5516 15.2999 9.41706 15.1927 9.32255 15.0553C9.22803 14.9178 9.17779 14.7562 9.17821 14.591L9.17821 9.9363L0.860456 9.9363C0.632249 9.9363 0.413391 9.84847 0.252023 9.69212C0.0906558 9.53577 -5.33544e-07 9.32372 -5.52874e-07 9.10262Z" fill="#484751"/>
</svg>
