<svg width="303" height="117" viewBox="0 0 303 117" fill="none" xmlns="http://www.w3.org/2000/svg">
<g filter="url(#filter0_d)">
<path fill-rule="evenodd" clip-rule="evenodd" d="M23 94C11.9543 94 3 85.0457 3 74V21C3 9.95431 11.9543 1 23 1H280C291.046 1 300 9.9543 300 21V74C300 85.0457 291.046 94 280 94H90.141C90.094 94.379 89.7236 95.0269 89.2186 95.9103C87.4844 98.9441 84.1621 104.756 86.8912 112C83.6403 110.872 77.7874 105.098 74.0574 94H23Z" fill="white"/>
<path d="M90.141 94V93C89.6363 93 89.2107 93.3761 89.1486 93.877L90.141 94ZM89.2186 95.9103L90.0868 96.4066V96.4066L89.2186 95.9103ZM86.8912 112L86.5634 112.945C86.9299 113.072 87.3369 112.976 87.6075 112.698C87.8782 112.42 87.9638 112.01 87.827 111.647L86.8912 112ZM74.0574 94L75.0053 93.6814C74.8685 93.2743 74.4869 93 74.0574 93V94ZM2 74C2 85.598 11.402 95 23 95V93C12.5066 93 4 84.4934 4 74H2ZM2 21V74H4V21H2ZM23 0C11.402 0 2 9.40202 2 21H4C4 10.5066 12.5066 2 23 2V0ZM280 0H23V2H280V0ZM301 21C301 9.40201 291.598 0 280 0V2C290.493 2 299 10.5066 299 21H301ZM301 74V21H299V74H301ZM280 95C291.598 95 301 85.598 301 74H299C299 84.4934 290.493 93 280 93V95ZM90.141 95H280V93H90.141V95ZM90.0868 96.4066C90.3348 95.9727 90.5683 95.5648 90.7441 95.217C90.9047 94.8991 91.0862 94.5033 91.1334 94.123L89.1486 93.877C89.1487 93.8757 89.1216 93.9933 88.959 94.315C88.8116 94.6067 88.6075 94.9645 88.3505 95.4141L90.0868 96.4066ZM87.827 111.647C85.2759 104.876 88.3515 99.4424 90.0868 96.4066L88.3505 95.4141C86.6174 98.4459 83.0483 104.636 85.9554 112.353L87.827 111.647ZM73.1095 94.3186C75.0076 99.9659 77.4551 104.287 79.8677 107.357C82.2569 110.396 84.6782 112.291 86.5634 112.945L87.219 111.055C85.8532 110.581 83.7227 109.025 81.4401 106.121C79.1811 103.247 76.8372 99.132 75.0053 93.6814L73.1095 94.3186ZM23 95H74.0574V93H23V95Z" fill="#484751"/>
<path d="M26.056 18.824C26.536 18.024 27.0053 17.2133 27.464 16.392C27.9227 15.5707 28.3387 14.744 28.712 13.912H30.952C30.3547 15.0427 29.7307 16.168 29.08 17.288C28.44 18.3973 27.752 19.5173 27.016 20.648V25H25V20.68C24.264 19.5387 23.5707 18.408 22.92 17.288C22.2693 16.168 21.6453 15.0427 21.048 13.912H23.416C23.7893 14.744 24.2 15.5707 24.648 16.392C25.096 17.2133 25.5653 18.024 26.056 18.824ZM38.9875 20.808C38.9875 21.4693 38.8915 22.072 38.6995 22.616C38.5075 23.16 38.2355 23.624 37.8835 24.008C37.5315 24.392 37.1048 24.6907 36.6035 24.904C36.1128 25.1173 35.5688 25.224 34.9715 25.224C34.3742 25.224 33.8302 25.1173 33.3395 24.904C32.8488 24.6907 32.4275 24.392 32.0755 24.008C31.7235 23.624 31.4462 23.16 31.2435 22.616C31.0515 22.072 30.9555 21.4693 30.9555 20.808C30.9555 20.1467 31.0515 19.5493 31.2435 19.016C31.4462 18.472 31.7235 18.008 32.0755 17.624C32.4382 17.24 32.8648 16.9467 33.3555 16.744C33.8462 16.5307 34.3848 16.424 34.9715 16.424C35.5582 16.424 36.0968 16.5307 36.5875 16.744C37.0888 16.9467 37.5155 17.24 37.8675 17.624C38.2195 18.008 38.4915 18.472 38.6835 19.016C38.8862 19.5493 38.9875 20.1467 38.9875 20.808ZM37.0035 20.808C37.0035 19.976 36.8222 19.32 36.4595 18.84C36.1075 18.3493 35.6115 18.104 34.9715 18.104C34.3315 18.104 33.8302 18.3493 33.4675 18.84C33.1155 19.32 32.9395 19.976 32.9395 20.808C32.9395 21.6507 33.1155 22.3173 33.4675 22.808C33.8302 23.2987 34.3315 23.544 34.9715 23.544C35.6115 23.544 36.1075 23.2987 36.4595 22.808C36.8222 22.3173 37.0035 21.6507 37.0035 20.808ZM47.846 24.744C47.4727 24.84 46.9873 24.936 46.39 25.032C45.7927 25.1387 45.1367 25.192 44.422 25.192C43.75 25.192 43.1847 25.096 42.726 24.904C42.278 24.712 41.9153 24.4453 41.638 24.104C41.3713 23.7627 41.1793 23.3573 41.062 22.888C40.9447 22.408 40.886 21.8853 40.886 21.32V16.632H42.822V21.016C42.822 21.912 42.95 22.552 43.206 22.936C43.4727 23.32 43.9313 23.512 44.582 23.512C44.8167 23.512 45.062 23.5013 45.318 23.48C45.5847 23.4587 45.782 23.432 45.91 23.4V16.632H47.846V24.744ZM53.5805 20.824C53.5805 20.2053 53.6765 19.6293 53.8685 19.096C54.0605 18.552 54.3325 18.0827 54.6845 17.688C55.0472 17.2933 55.4845 16.984 55.9965 16.76C56.5085 16.536 57.0845 16.424 57.7245 16.424C58.5138 16.424 59.2605 16.568 59.9645 16.856L59.5485 18.44C59.3245 18.344 59.0685 18.264 58.7805 18.2C58.5032 18.136 58.2045 18.104 57.8845 18.104C57.1272 18.104 56.5512 18.344 56.1565 18.824C55.7618 19.2933 55.5645 19.96 55.5645 20.824C55.5645 21.656 55.7512 22.3173 56.1245 22.808C56.4978 23.288 57.1272 23.528 58.0125 23.528C58.3432 23.528 58.6685 23.496 58.9885 23.432C59.3085 23.368 59.5858 23.288 59.8205 23.192L60.0925 24.792C59.8792 24.8987 59.5538 24.9947 59.1165 25.08C58.6898 25.1653 58.2472 25.208 57.7885 25.208C57.0738 25.208 56.4498 25.1013 55.9165 24.888C55.3938 24.664 54.9565 24.36 54.6045 23.976C54.2632 23.5813 54.0072 23.1173 53.8365 22.584C53.6658 22.04 53.5805 21.4533 53.5805 20.824ZM64.5354 23.64C65.1327 23.64 65.586 23.608 65.8954 23.544V21.4C65.7887 21.368 65.634 21.336 65.4314 21.304C65.2287 21.272 65.0047 21.256 64.7594 21.256C64.546 21.256 64.3274 21.272 64.1034 21.304C63.89 21.336 63.6927 21.3947 63.5114 21.48C63.3407 21.5653 63.202 21.688 63.0954 21.848C62.9887 21.9973 62.9354 22.1893 62.9354 22.424C62.9354 22.8827 63.0794 23.2027 63.3674 23.384C63.6554 23.5547 64.0447 23.64 64.5354 23.64ZM64.3754 16.424C65.0154 16.424 65.554 16.504 65.9914 16.664C66.4287 16.824 66.7754 17.048 67.0314 17.336C67.298 17.624 67.4847 17.976 67.5914 18.392C67.7087 18.7973 67.7674 19.2453 67.7674 19.736V24.808C67.4687 24.872 67.0154 24.9467 66.4074 25.032C65.81 25.128 65.1327 25.176 64.3754 25.176C63.874 25.176 63.4154 25.128 62.9994 25.032C62.5834 24.936 62.226 24.7813 61.9274 24.568C61.6394 24.3547 61.41 24.0773 61.2394 23.736C61.0794 23.3947 60.9994 22.9733 60.9994 22.472C60.9994 21.992 61.09 21.5867 61.2714 21.256C61.4634 20.9253 61.7194 20.6587 62.0394 20.456C62.3594 20.2427 62.7274 20.0933 63.1434 20.008C63.57 19.912 64.0127 19.864 64.4714 19.864C64.6847 19.864 64.9087 19.88 65.1434 19.912C65.378 19.9333 65.6287 19.976 65.8954 20.04V19.72C65.8954 19.496 65.8687 19.2827 65.8154 19.08C65.762 18.8773 65.666 18.7013 65.5274 18.552C65.3994 18.392 65.2234 18.2693 64.9994 18.184C64.786 18.0987 64.514 18.056 64.1834 18.056C63.7354 18.056 63.3247 18.088 62.9514 18.152C62.578 18.216 62.274 18.2907 62.0394 18.376L61.7994 16.808C62.0447 16.7227 62.402 16.6373 62.8714 16.552C63.3407 16.4667 63.842 16.424 64.3754 16.424ZM70.1383 16.904C70.5116 16.7973 70.9969 16.696 71.5943 16.6C72.1916 16.504 72.8529 16.456 73.5783 16.456C74.2609 16.456 74.8316 16.552 75.2903 16.744C75.7489 16.9253 76.1116 17.1867 76.3783 17.528C76.6556 17.8587 76.8476 18.264 76.9543 18.744C77.0716 19.2133 77.1302 19.7307 77.1302 20.296V25H75.1943V20.6C75.1943 20.152 75.1623 19.7733 75.0983 19.464C75.0449 19.144 74.9489 18.888 74.8103 18.696C74.6823 18.4933 74.5009 18.3493 74.2663 18.264C74.0423 18.168 73.7649 18.12 73.4343 18.12C73.1889 18.12 72.9329 18.136 72.6663 18.168C72.3996 18.2 72.2023 18.2267 72.0743 18.248V25H70.1383V16.904ZM85.328 23.608C85.84 23.608 86.2133 23.5493 86.448 23.432C86.6827 23.304 86.8 23.0907 86.8 22.792C86.8 22.5147 86.672 22.2853 86.416 22.104C86.1707 21.9227 85.76 21.7253 85.184 21.512C84.832 21.384 84.5067 21.2507 84.208 21.112C83.92 20.9627 83.6693 20.792 83.456 20.6C83.2427 20.408 83.072 20.1787 82.944 19.912C82.8267 19.6347 82.768 19.2987 82.768 18.904C82.768 18.136 83.0507 17.5333 83.616 17.096C84.1813 16.648 84.9493 16.424 85.92 16.424C86.4107 16.424 86.88 16.472 87.328 16.568C87.776 16.6533 88.112 16.7387 88.336 16.824L87.984 18.392C87.7707 18.296 87.4987 18.2107 87.168 18.136C86.8373 18.0507 86.4533 18.008 86.016 18.008C85.6213 18.008 85.3013 18.0773 85.056 18.216C84.8107 18.344 84.688 18.5467 84.688 18.824C84.688 18.9627 84.7093 19.0853 84.752 19.192C84.8053 19.2987 84.8907 19.4 85.008 19.496C85.1253 19.5813 85.28 19.672 85.472 19.768C85.664 19.8533 85.8987 19.944 86.176 20.04C86.6347 20.2107 87.024 20.3813 87.344 20.552C87.664 20.712 87.9253 20.8987 88.128 21.112C88.3413 21.3147 88.496 21.5493 88.592 21.816C88.688 22.0827 88.736 22.4027 88.736 22.776C88.736 23.576 88.4373 24.184 87.84 24.6C87.2533 25.0053 86.4107 25.208 85.312 25.208C84.576 25.208 83.984 25.144 83.536 25.016C83.088 24.8987 82.7733 24.8027 82.592 24.728L82.928 23.112C83.216 23.2293 83.5573 23.3413 83.952 23.448C84.3573 23.5547 84.816 23.608 85.328 23.608ZM90.0805 20.856C90.0805 20.12 90.1872 19.4747 90.4005 18.92C90.6245 18.3653 90.9178 17.9067 91.2805 17.544C91.6432 17.1707 92.0592 16.8933 92.5285 16.712C92.9978 16.52 93.4778 16.424 93.9685 16.424C95.1205 16.424 96.0165 16.7813 96.6565 17.496C97.3072 18.2107 97.6325 19.2773 97.6325 20.696C97.6325 20.8027 97.6272 20.9253 97.6165 21.064C97.6165 21.192 97.6112 21.3093 97.6005 21.416H92.0805C92.1338 22.088 92.3685 22.6107 92.7845 22.984C93.2112 23.3467 93.8245 23.528 94.6245 23.528C95.0938 23.528 95.5205 23.4853 95.9045 23.4C96.2992 23.3147 96.6085 23.224 96.8325 23.128L97.0885 24.712C96.9818 24.7653 96.8325 24.824 96.6405 24.888C96.4592 24.9413 96.2458 24.9893 96.0005 25.032C95.7658 25.0853 95.5098 25.128 95.2325 25.16C94.9552 25.192 94.6725 25.208 94.3845 25.208C93.6485 25.208 93.0085 25.1013 92.4645 24.888C91.9205 24.664 91.4725 24.36 91.1205 23.976C90.7685 23.5813 90.5072 23.1227 90.3365 22.6C90.1658 22.0667 90.0805 21.4853 90.0805 20.856ZM95.6965 19.992C95.6965 19.7253 95.6592 19.4747 95.5845 19.24C95.5098 18.9947 95.3978 18.7867 95.2485 18.616C95.1098 18.4347 94.9338 18.296 94.7205 18.2C94.5178 18.0933 94.2725 18.04 93.9845 18.04C93.6858 18.04 93.4245 18.0987 93.2005 18.216C92.9765 18.3227 92.7845 18.4667 92.6245 18.648C92.4752 18.8293 92.3578 19.0373 92.2725 19.272C92.1872 19.5067 92.1285 19.7467 92.0965 19.992H95.6965ZM102.597 25.16C102.021 25.1493 101.541 25.0853 101.157 24.968C100.784 24.8507 100.485 24.6853 100.261 24.472C100.037 24.248 99.8771 23.976 99.7811 23.656C99.6958 23.3253 99.6531 22.952 99.6531 22.536V12.904L101.589 12.584V22.168C101.589 22.4027 101.605 22.6 101.637 22.76C101.68 22.92 101.749 23.0587 101.845 23.176C101.941 23.2827 102.069 23.368 102.229 23.432C102.4 23.4853 102.613 23.528 102.869 23.56L102.597 25.16ZM103.971 20.856C103.971 20.12 104.078 19.4747 104.291 18.92C104.515 18.3653 104.808 17.9067 105.171 17.544C105.534 17.1707 105.95 16.8933 106.419 16.712C106.888 16.52 107.368 16.424 107.859 16.424C109.011 16.424 109.907 16.7813 110.547 17.496C111.198 18.2107 111.523 19.2773 111.523 20.696C111.523 20.8027 111.518 20.9253 111.507 21.064C111.507 21.192 111.502 21.3093 111.491 21.416H105.971C106.024 22.088 106.259 22.6107 106.675 22.984C107.102 23.3467 107.715 23.528 108.515 23.528C108.984 23.528 109.411 23.4853 109.795 23.4C110.19 23.3147 110.499 23.224 110.723 23.128L110.979 24.712C110.872 24.7653 110.723 24.824 110.531 24.888C110.35 24.9413 110.136 24.9893 109.891 25.032C109.656 25.0853 109.4 25.128 109.123 25.16C108.846 25.192 108.563 25.208 108.275 25.208C107.539 25.208 106.899 25.1013 106.355 24.888C105.811 24.664 105.363 24.36 105.011 23.976C104.659 23.5813 104.398 23.1227 104.227 22.6C104.056 22.0667 103.971 21.4853 103.971 20.856ZM109.587 19.992C109.587 19.7253 109.55 19.4747 109.475 19.24C109.4 18.9947 109.288 18.7867 109.139 18.616C109 18.4347 108.824 18.296 108.611 18.2C108.408 18.0933 108.163 18.04 107.875 18.04C107.576 18.04 107.315 18.0987 107.091 18.216C106.867 18.3227 106.675 18.4667 106.515 18.648C106.366 18.8293 106.248 19.0373 106.163 19.272C106.078 19.5067 106.019 19.7467 105.987 19.992H109.587ZM113.112 20.824C113.112 20.2053 113.208 19.6293 113.4 19.096C113.592 18.552 113.864 18.0827 114.216 17.688C114.578 17.2933 115.016 16.984 115.528 16.76C116.04 16.536 116.616 16.424 117.256 16.424C118.045 16.424 118.792 16.568 119.496 16.856L119.08 18.44C118.856 18.344 118.6 18.264 118.312 18.2C118.034 18.136 117.736 18.104 117.416 18.104C116.658 18.104 116.082 18.344 115.688 18.824C115.293 19.2933 115.096 19.96 115.096 20.824C115.096 21.656 115.282 22.3173 115.656 22.808C116.029 23.288 116.658 23.528 117.544 23.528C117.874 23.528 118.2 23.496 118.52 23.432C118.84 23.368 119.117 23.288 119.352 23.192L119.624 24.792C119.41 24.8987 119.085 24.9947 118.648 25.08C118.221 25.1653 117.778 25.208 117.32 25.208C116.605 25.208 115.981 25.1013 115.448 24.888C114.925 24.664 114.488 24.36 114.136 23.976C113.794 23.5813 113.538 23.1173 113.368 22.584C113.197 22.04 113.112 21.4533 113.112 20.824ZM121.027 14.424L122.963 14.104V16.632H125.939V18.248H122.963V21.656C122.963 22.328 123.069 22.808 123.283 23.096C123.496 23.384 123.859 23.528 124.371 23.528C124.723 23.528 125.032 23.4907 125.299 23.416C125.576 23.3413 125.795 23.272 125.955 23.208L126.275 24.744C126.051 24.84 125.757 24.936 125.395 25.032C125.032 25.1387 124.605 25.192 124.115 25.192C123.517 25.192 123.016 25.112 122.611 24.952C122.216 24.792 121.901 24.5627 121.667 24.264C121.432 23.9547 121.267 23.5867 121.171 23.16C121.075 22.7227 121.027 22.2267 121.027 21.672V14.424ZM134.953 12.584C135.401 12.584 135.795 12.6267 136.137 12.712C136.478 12.7867 136.734 12.856 136.905 12.92L136.537 14.52C136.355 14.4347 136.142 14.3653 135.897 14.312C135.662 14.2587 135.406 14.232 135.129 14.232C134.819 14.232 134.558 14.28 134.345 14.376C134.131 14.4613 133.961 14.584 133.833 14.744C133.705 14.904 133.614 15.1013 133.561 15.336C133.507 15.56 133.481 15.8053 133.481 16.072V16.632H136.521V18.248H133.481V25H131.545V16.04C131.545 14.9627 131.827 14.12 132.393 13.512C132.958 12.8933 133.811 12.584 134.953 12.584ZM142.719 18.376C142.559 18.3227 142.335 18.2693 142.047 18.216C141.769 18.152 141.444 18.12 141.071 18.12C140.857 18.12 140.628 18.1413 140.383 18.184C140.148 18.2267 139.983 18.264 139.887 18.296V25H137.951V17.032C138.324 16.8933 138.788 16.7653 139.343 16.648C139.908 16.52 140.532 16.456 141.215 16.456C141.343 16.456 141.492 16.4667 141.663 16.488C141.833 16.4987 142.004 16.52 142.175 16.552C142.345 16.5733 142.511 16.6053 142.671 16.648C142.831 16.68 142.959 16.712 143.055 16.744L142.719 18.376ZM151.972 20.808C151.972 21.4693 151.876 22.072 151.684 22.616C151.492 23.16 151.22 23.624 150.868 24.008C150.516 24.392 150.089 24.6907 149.588 24.904C149.097 25.1173 148.553 25.224 147.956 25.224C147.359 25.224 146.815 25.1173 146.324 24.904C145.833 24.6907 145.412 24.392 145.06 24.008C144.708 23.624 144.431 23.16 144.228 22.616C144.036 22.072 143.94 21.4693 143.94 20.808C143.94 20.1467 144.036 19.5493 144.228 19.016C144.431 18.472 144.708 18.008 145.06 17.624C145.423 17.24 145.849 16.9467 146.34 16.744C146.831 16.5307 147.369 16.424 147.956 16.424C148.543 16.424 149.081 16.5307 149.572 16.744C150.073 16.9467 150.5 17.24 150.852 17.624C151.204 18.008 151.476 18.472 151.668 19.016C151.871 19.5493 151.972 20.1467 151.972 20.808ZM149.988 20.808C149.988 19.976 149.807 19.32 149.444 18.84C149.092 18.3493 148.596 18.104 147.956 18.104C147.316 18.104 146.815 18.3493 146.452 18.84C146.1 19.32 145.924 19.976 145.924 20.808C145.924 21.6507 146.1 22.3173 146.452 22.808C146.815 23.2987 147.316 23.544 147.956 23.544C148.596 23.544 149.092 23.2987 149.444 22.808C149.807 22.3173 149.988 21.6507 149.988 20.808ZM158.734 20.6C158.734 19.7253 158.622 19.096 158.398 18.712C158.185 18.3173 157.78 18.12 157.182 18.12C156.969 18.12 156.734 18.136 156.478 18.168C156.222 18.2 156.03 18.2267 155.902 18.248V25H153.966V16.904C154.34 16.7973 154.825 16.696 155.422 16.6C156.03 16.504 156.67 16.456 157.342 16.456C157.918 16.456 158.388 16.5307 158.75 16.68C159.124 16.8293 159.433 17.0267 159.678 17.272C159.796 17.1867 159.945 17.096 160.126 17C160.308 16.904 160.51 16.8187 160.734 16.744C160.958 16.6587 161.193 16.5893 161.438 16.536C161.694 16.4827 161.95 16.456 162.206 16.456C162.857 16.456 163.39 16.552 163.806 16.744C164.233 16.9253 164.564 17.1867 164.798 17.528C165.044 17.8587 165.209 18.264 165.294 18.744C165.39 19.2133 165.438 19.7307 165.438 20.296V25H163.502V20.6C163.502 19.7253 163.396 19.096 163.182 18.712C162.969 18.3173 162.558 18.12 161.95 18.12C161.641 18.12 161.348 18.1733 161.07 18.28C160.793 18.376 160.585 18.472 160.446 18.568C160.532 18.8347 160.59 19.1173 160.622 19.416C160.654 19.7147 160.67 20.0347 160.67 20.376V25H158.734V20.6ZM174.489 23.64C175.086 23.64 175.539 23.608 175.849 23.544V21.4C175.742 21.368 175.587 21.336 175.385 21.304C175.182 21.272 174.958 21.256 174.713 21.256C174.499 21.256 174.281 21.272 174.057 21.304C173.843 21.336 173.646 21.3947 173.465 21.48C173.294 21.5653 173.155 21.688 173.049 21.848C172.942 21.9973 172.889 22.1893 172.889 22.424C172.889 22.8827 173.033 23.2027 173.321 23.384C173.609 23.5547 173.998 23.64 174.489 23.64ZM174.329 16.424C174.969 16.424 175.507 16.504 175.945 16.664C176.382 16.824 176.729 17.048 176.985 17.336C177.251 17.624 177.438 17.976 177.545 18.392C177.662 18.7973 177.721 19.2453 177.721 19.736V24.808C177.422 24.872 176.969 24.9467 176.361 25.032C175.763 25.128 175.086 25.176 174.329 25.176C173.827 25.176 173.369 25.128 172.953 25.032C172.537 24.936 172.179 24.7813 171.881 24.568C171.593 24.3547 171.363 24.0773 171.193 23.736C171.033 23.3947 170.953 22.9733 170.953 22.472C170.953 21.992 171.043 21.5867 171.225 21.256C171.417 20.9253 171.673 20.6587 171.993 20.456C172.313 20.2427 172.681 20.0933 173.097 20.008C173.523 19.912 173.966 19.864 174.424 19.864C174.638 19.864 174.862 19.88 175.097 19.912C175.331 19.9333 175.582 19.976 175.849 20.04V19.72C175.849 19.496 175.822 19.2827 175.769 19.08C175.715 18.8773 175.619 18.7013 175.481 18.552C175.353 18.392 175.177 18.2693 174.953 18.184C174.739 18.0987 174.467 18.056 174.137 18.056C173.689 18.056 173.278 18.088 172.905 18.152C172.531 18.216 172.227 18.2907 171.993 18.376L171.753 16.808C171.998 16.7227 172.355 16.6373 172.825 16.552C173.294 16.4667 173.795 16.424 174.329 16.424ZM188.818 19.736C188.572 20.6747 188.306 21.592 188.018 22.488C187.74 23.3733 187.463 24.2107 187.186 25H185.602C185.388 24.5093 185.164 23.9493 184.93 23.32C184.695 22.6907 184.46 22.0187 184.226 21.304C183.991 20.5893 183.756 19.8373 183.522 19.048C183.287 18.2587 183.058 17.4533 182.834 16.632H184.882C184.978 17.08 185.09 17.5653 185.218 18.088C185.346 18.6 185.479 19.128 185.618 19.672C185.756 20.2053 185.9 20.728 186.05 21.24C186.199 21.752 186.348 22.2213 186.498 22.648C186.658 22.1573 186.812 21.6507 186.962 21.128C187.122 20.6053 187.271 20.0827 187.41 19.56C187.548 19.0373 187.676 18.5307 187.794 18.04C187.922 17.5387 188.034 17.0693 188.13 16.632H189.618C189.714 17.0693 189.82 17.5387 189.938 18.04C190.055 18.5307 190.178 19.0373 190.306 19.56C190.444 20.0827 190.588 20.6053 190.738 21.128C190.898 21.6507 191.058 22.1573 191.218 22.648C191.356 22.2213 191.5 21.752 191.65 21.24C191.799 20.728 191.943 20.2053 192.082 19.672C192.231 19.128 192.37 18.6 192.498 18.088C192.626 17.5653 192.738 17.08 192.834 16.632H194.834C194.61 17.4533 194.38 18.2587 194.146 19.048C193.911 19.8373 193.676 20.5893 193.442 21.304C193.207 22.0187 192.972 22.6907 192.738 23.32C192.503 23.9493 192.274 24.5093 192.05 25H190.482C190.204 24.2107 189.916 23.3733 189.618 22.488C189.33 21.592 189.063 20.6747 188.818 19.736ZM198.262 25H196.326V16.632H198.262V25ZM198.47 14.184C198.47 14.5467 198.353 14.8347 198.118 15.048C197.883 15.2613 197.606 15.368 197.286 15.368C196.955 15.368 196.673 15.2613 196.438 15.048C196.203 14.8347 196.086 14.5467 196.086 14.184C196.086 13.8107 196.203 13.5173 196.438 13.304C196.673 13.0907 196.955 12.984 197.286 12.984C197.606 12.984 197.883 13.0907 198.118 13.304C198.353 13.5173 198.47 13.8107 198.47 14.184ZM202.252 20.792C202.252 21.6453 202.455 22.3173 202.86 22.808C203.265 23.288 203.825 23.528 204.54 23.528C204.849 23.528 205.111 23.5173 205.324 23.496C205.548 23.464 205.729 23.432 205.868 23.4V18.6C205.697 18.4827 205.468 18.376 205.18 18.28C204.903 18.1733 204.604 18.12 204.284 18.12C203.58 18.12 203.063 18.36 202.732 18.84C202.412 19.32 202.252 19.9707 202.252 20.792ZM207.804 24.744C207.42 24.8613 206.935 24.968 206.348 25.064C205.772 25.16 205.164 25.208 204.524 25.208C203.863 25.208 203.271 25.1067 202.748 24.904C202.225 24.7013 201.777 24.4133 201.404 24.04C201.041 23.656 200.759 23.1973 200.556 22.664C200.364 22.12 200.268 21.512 200.268 20.84C200.268 20.1787 200.348 19.5813 200.508 19.048C200.679 18.504 200.924 18.04 201.244 17.656C201.564 17.272 201.953 16.9787 202.412 16.776C202.871 16.5627 203.399 16.456 203.996 16.456C204.401 16.456 204.759 16.504 205.068 16.6C205.377 16.696 205.644 16.8027 205.868 16.92V12.904L207.804 12.584V24.744ZM209.799 20.856C209.799 20.12 209.906 19.4747 210.119 18.92C210.343 18.3653 210.637 17.9067 210.999 17.544C211.362 17.1707 211.778 16.8933 212.247 16.712C212.717 16.52 213.197 16.424 213.687 16.424C214.839 16.424 215.735 16.7813 216.375 17.496C217.026 18.2107 217.351 19.2773 217.351 20.696C217.351 20.8027 217.346 20.9253 217.335 21.064C217.335 21.192 217.33 21.3093 217.319 21.416H211.799C211.853 22.088 212.087 22.6107 212.503 22.984C212.93 23.3467 213.543 23.528 214.343 23.528C214.813 23.528 215.239 23.4853 215.623 23.4C216.018 23.3147 216.327 23.224 216.551 23.128L216.807 24.712C216.701 24.7653 216.551 24.824 216.359 24.888C216.178 24.9413 215.965 24.9893 215.719 25.032C215.485 25.0853 215.229 25.128 214.951 25.16C214.674 25.192 214.391 25.208 214.103 25.208C213.367 25.208 212.727 25.1013 212.183 24.888C211.639 24.664 211.191 24.36 210.839 23.976C210.487 23.5813 210.226 23.1227 210.055 22.6C209.885 22.0667 209.799 21.4853 209.799 20.856ZM215.415 19.992C215.415 19.7253 215.378 19.4747 215.303 19.24C215.229 18.9947 215.117 18.7867 214.967 18.616C214.829 18.4347 214.653 18.296 214.439 18.2C214.237 18.0933 213.991 18.04 213.703 18.04C213.405 18.04 213.143 18.0987 212.919 18.216C212.695 18.3227 212.503 18.4667 212.343 18.648C212.194 18.8293 212.077 19.0373 211.991 19.272C211.906 19.5067 211.847 19.7467 211.815 19.992H215.415ZM227.906 18.376C227.746 18.3227 227.522 18.2693 227.234 18.216C226.957 18.152 226.632 18.12 226.258 18.12C226.045 18.12 225.816 18.1413 225.57 18.184C225.336 18.2267 225.17 18.264 225.074 18.296V25H223.138V17.032C223.512 16.8933 223.976 16.7653 224.53 16.648C225.096 16.52 225.72 16.456 226.402 16.456C226.53 16.456 226.68 16.4667 226.85 16.488C227.021 16.4987 227.192 16.52 227.362 16.552C227.533 16.5733 227.698 16.6053 227.858 16.648C228.018 16.68 228.146 16.712 228.242 16.744L227.906 18.376ZM232.535 23.64C233.133 23.64 233.586 23.608 233.895 23.544V21.4C233.789 21.368 233.634 21.336 233.431 21.304C233.229 21.272 233.005 21.256 232.759 21.256C232.546 21.256 232.327 21.272 232.103 21.304C231.89 21.336 231.693 21.3947 231.511 21.48C231.341 21.5653 231.202 21.688 231.095 21.848C230.989 21.9973 230.935 22.1893 230.935 22.424C230.935 22.8827 231.079 23.2027 231.367 23.384C231.655 23.5547 232.045 23.64 232.535 23.64ZM232.375 16.424C233.015 16.424 233.554 16.504 233.991 16.664C234.429 16.824 234.775 17.048 235.031 17.336C235.298 17.624 235.485 17.976 235.591 18.392C235.709 18.7973 235.767 19.2453 235.767 19.736V24.808C235.469 24.872 235.015 24.9467 234.407 25.032C233.81 25.128 233.133 25.176 232.375 25.176C231.874 25.176 231.415 25.128 230.999 25.032C230.583 24.936 230.226 24.7813 229.927 24.568C229.639 24.3547 229.41 24.0773 229.239 23.736C229.079 23.3947 228.999 22.9733 228.999 22.472C228.999 21.992 229.09 21.5867 229.271 21.256C229.463 20.9253 229.719 20.6587 230.039 20.456C230.359 20.2427 230.727 20.0933 231.143 20.008C231.57 19.912 232.013 19.864 232.471 19.864C232.685 19.864 232.909 19.88 233.143 19.912C233.378 19.9333 233.629 19.976 233.895 20.04V19.72C233.895 19.496 233.869 19.2827 233.815 19.08C233.762 18.8773 233.666 18.7013 233.527 18.552C233.399 18.392 233.223 18.2693 232.999 18.184C232.786 18.0987 232.514 18.056 232.183 18.056C231.735 18.056 231.325 18.088 230.951 18.152C230.578 18.216 230.274 18.2907 230.039 18.376L229.799 16.808C230.045 16.7227 230.402 16.6373 230.871 16.552C231.341 16.4667 231.842 16.424 232.375 16.424ZM238.138 16.904C238.512 16.7973 238.997 16.696 239.594 16.6C240.192 16.504 240.853 16.456 241.578 16.456C242.261 16.456 242.832 16.552 243.29 16.744C243.749 16.9253 244.112 17.1867 244.378 17.528C244.656 17.8587 244.848 18.264 244.954 18.744C245.072 19.2133 245.13 19.7307 245.13 20.296V25H243.194V20.6C243.194 20.152 243.162 19.7733 243.098 19.464C243.045 19.144 242.949 18.888 242.81 18.696C242.682 18.4933 242.501 18.3493 242.266 18.264C242.042 18.168 241.765 18.12 241.434 18.12C241.189 18.12 240.933 18.136 240.666 18.168C240.4 18.2 240.202 18.2267 240.074 18.248V25H238.138V16.904ZM249.018 20.6C249.018 21.4213 249.194 22.024 249.546 22.408C249.908 22.7813 250.372 22.968 250.938 22.968C251.247 22.968 251.535 22.9253 251.802 22.84C252.079 22.7547 252.303 22.6533 252.474 22.536V18.2C252.335 18.168 252.164 18.1413 251.962 18.12C251.759 18.088 251.503 18.072 251.194 18.072C250.49 18.072 249.951 18.3067 249.578 18.776C249.204 19.2347 249.018 19.8427 249.018 20.6ZM254.41 24.152C254.41 25.4853 254.068 26.4613 253.386 27.08C252.714 27.6987 251.679 28.008 250.282 28.008C249.77 28.008 249.268 27.9653 248.778 27.88C248.298 27.7947 247.86 27.6827 247.466 27.544L247.818 25.896C248.148 26.0347 248.522 26.1467 248.938 26.232C249.364 26.3173 249.823 26.36 250.314 26.36C251.092 26.36 251.647 26.2 251.978 25.88C252.308 25.56 252.474 25.0853 252.474 24.456V24.136C252.282 24.232 252.026 24.328 251.706 24.424C251.396 24.52 251.039 24.568 250.634 24.568C250.1 24.568 249.61 24.4827 249.162 24.312C248.724 24.1413 248.346 23.8907 248.026 23.56C247.716 23.2293 247.471 22.8187 247.29 22.328C247.119 21.8267 247.034 21.2507 247.034 20.6C247.034 19.992 247.124 19.432 247.306 18.92C247.498 18.408 247.77 17.9707 248.122 17.608C248.484 17.2453 248.922 16.9627 249.434 16.76C249.946 16.5573 250.527 16.456 251.178 16.456C251.807 16.456 252.404 16.504 252.97 16.6C253.535 16.696 254.015 16.7973 254.41 16.904V24.152ZM256.409 20.856C256.409 20.12 256.515 19.4747 256.729 18.92C256.953 18.3653 257.246 17.9067 257.609 17.544C257.971 17.1707 258.387 16.8933 258.857 16.712C259.326 16.52 259.806 16.424 260.297 16.424C261.449 16.424 262.345 16.7813 262.985 17.496C263.635 18.2107 263.961 19.2773 263.961 20.696C263.961 20.8027 263.955 20.9253 263.945 21.064C263.945 21.192 263.939 21.3093 263.929 21.416H258.409C258.462 22.088 258.697 22.6107 259.113 22.984C259.539 23.3467 260.153 23.528 260.953 23.528C261.422 23.528 261.849 23.4853 262.233 23.4C262.627 23.3147 262.937 23.224 263.161 23.128L263.417 24.712C263.31 24.7653 263.161 24.824 262.969 24.888C262.787 24.9413 262.574 24.9893 262.329 25.032C262.094 25.0853 261.838 25.128 261.561 25.16C261.283 25.192 261.001 25.208 260.713 25.208C259.977 25.208 259.337 25.1013 258.793 24.888C258.249 24.664 257.801 24.36 257.449 23.976C257.097 23.5813 256.835 23.1227 256.665 22.6C256.494 22.0667 256.409 21.4853 256.409 20.856ZM262.025 19.992C262.025 19.7253 261.987 19.4747 261.913 19.24C261.838 18.9947 261.726 18.7867 261.577 18.616C261.438 18.4347 261.262 18.296 261.049 18.2C260.846 18.0933 260.601 18.04 260.313 18.04C260.014 18.04 259.753 18.0987 259.529 18.216C259.305 18.3227 259.113 18.4667 258.953 18.648C258.803 18.8293 258.686 19.0373 258.601 19.272C258.515 19.5067 258.457 19.7467 258.425 19.992H262.025ZM277.316 20.808C277.316 21.4693 277.22 22.072 277.028 22.616C276.836 23.16 276.564 23.624 276.212 24.008C275.86 24.392 275.433 24.6907 274.932 24.904C274.441 25.1173 273.897 25.224 273.3 25.224C272.702 25.224 272.158 25.1173 271.668 24.904C271.177 24.6907 270.756 24.392 270.404 24.008C270.052 23.624 269.774 23.16 269.572 22.616C269.38 22.072 269.284 21.4693 269.284 20.808C269.284 20.1467 269.38 19.5493 269.572 19.016C269.774 18.472 270.052 18.008 270.404 17.624C270.766 17.24 271.193 16.9467 271.684 16.744C272.174 16.5307 272.713 16.424 273.3 16.424C273.886 16.424 274.425 16.5307 274.916 16.744C275.417 16.9467 275.844 17.24 276.196 17.624C276.548 18.008 276.82 18.472 277.012 19.016C277.214 19.5493 277.316 20.1467 277.316 20.808ZM275.332 20.808C275.332 19.976 275.15 19.32 274.788 18.84C274.436 18.3493 273.94 18.104 273.3 18.104C272.66 18.104 272.158 18.3493 271.796 18.84C271.444 19.32 271.268 19.976 271.268 20.808C271.268 21.6507 271.444 22.3173 271.796 22.808C272.158 23.2987 272.66 23.544 273.3 23.544C273.94 23.544 274.436 23.2987 274.788 22.808C275.15 22.3173 275.332 21.6507 275.332 20.808ZM282.718 12.584C283.166 12.584 283.561 12.6267 283.902 12.712C284.243 12.7867 284.499 12.856 284.67 12.92L284.302 14.52C284.121 14.4347 283.907 14.3653 283.662 14.312C283.427 14.2587 283.171 14.232 282.894 14.232C282.585 14.232 282.323 14.28 282.11 14.376C281.897 14.4613 281.726 14.584 281.598 14.744C281.47 14.904 281.379 15.1013 281.326 15.336C281.273 15.56 281.246 15.8053 281.246 16.072V16.632H284.286V18.248H281.246V25H279.31V16.04C279.31 14.9627 279.593 14.12 280.158 13.512C280.723 12.8933 281.577 12.584 282.718 12.584ZM24.376 43C23.8427 41.9013 23.2933 40.6427 22.728 39.224C22.1733 37.7947 21.6667 36.264 21.208 34.632H23.272C23.3893 35.1013 23.5227 35.608 23.672 36.152C23.832 36.6853 23.9973 37.224 24.168 37.768C24.3493 38.3013 24.5307 38.824 24.712 39.336C24.904 39.8373 25.08 40.2907 25.24 40.696C25.4 40.2907 25.5707 39.8373 25.752 39.336C25.9333 38.824 26.1093 38.3013 26.28 37.768C26.4613 37.224 26.632 36.6853 26.792 36.152C26.952 35.608 27.0907 35.1013 27.208 34.632H29.208C28.7493 36.264 28.2373 37.7947 27.672 39.224C27.1173 40.6427 26.5733 41.9013 26.04 43H24.376ZM33.5979 41.64C34.1952 41.64 34.6485 41.608 34.9579 41.544V39.4C34.8512 39.368 34.6965 39.336 34.4939 39.304C34.2912 39.272 34.0672 39.256 33.8219 39.256C33.6085 39.256 33.3899 39.272 33.1659 39.304C32.9525 39.336 32.7552 39.3947 32.5739 39.48C32.4032 39.5653 32.2645 39.688 32.1579 39.848C32.0512 39.9973 31.9979 40.1893 31.9979 40.424C31.9979 40.8827 32.1419 41.2027 32.4299 41.384C32.7179 41.5547 33.1072 41.64 33.5979 41.64ZM33.4379 34.424C34.0779 34.424 34.6165 34.504 35.0539 34.664C35.4912 34.824 35.8379 35.048 36.0939 35.336C36.3605 35.624 36.5472 35.976 36.6539 36.392C36.7712 36.7973 36.8299 37.2453 36.8299 37.736V42.808C36.5312 42.872 36.0779 42.9467 35.4699 43.032C34.8725 43.128 34.1952 43.176 33.4379 43.176C32.9365 43.176 32.4779 43.128 32.0619 43.032C31.6459 42.936 31.2885 42.7813 30.9899 42.568C30.7019 42.3547 30.4725 42.0773 30.3019 41.736C30.1419 41.3947 30.0619 40.9733 30.0619 40.472C30.0619 39.992 30.1525 39.5867 30.3339 39.256C30.5259 38.9253 30.7819 38.6587 31.1019 38.456C31.4219 38.2427 31.7899 38.0933 32.2059 38.008C32.6325 37.912 33.0752 37.864 33.5339 37.864C33.7472 37.864 33.9712 37.88 34.2059 37.912C34.4405 37.9333 34.6912 37.976 34.9579 38.04V37.72C34.9579 37.496 34.9312 37.2827 34.8779 37.08C34.8245 36.8773 34.7285 36.7013 34.5899 36.552C34.4619 36.392 34.2859 36.2693 34.0619 36.184C33.8485 36.0987 33.5765 36.056 33.2459 36.056C32.7979 36.056 32.3872 36.088 32.0139 36.152C31.6405 36.216 31.3365 36.2907 31.1019 36.376L30.8619 34.808C31.1072 34.7227 31.4645 34.6373 31.9339 34.552C32.4032 34.4667 32.9045 34.424 33.4379 34.424ZM38.7368 38.824C38.7368 38.2053 38.8328 37.6293 39.0247 37.096C39.2168 36.552 39.4888 36.0827 39.8408 35.688C40.2034 35.2933 40.6408 34.984 41.1528 34.76C41.6648 34.536 42.2408 34.424 42.8808 34.424C43.6701 34.424 44.4168 34.568 45.1208 34.856L44.7048 36.44C44.4808 36.344 44.2248 36.264 43.9368 36.2C43.6594 36.136 43.3608 36.104 43.0408 36.104C42.2834 36.104 41.7074 36.344 41.3128 36.824C40.9181 37.2933 40.7208 37.96 40.7208 38.824C40.7208 39.656 40.9074 40.3173 41.2808 40.808C41.6541 41.288 42.2834 41.528 43.1688 41.528C43.4994 41.528 43.8248 41.496 44.1448 41.432C44.4648 41.368 44.7421 41.288 44.9768 41.192L45.2488 42.792C45.0354 42.8987 44.7101 42.9947 44.2728 43.08C43.8461 43.1653 43.4034 43.208 42.9448 43.208C42.2301 43.208 41.6061 43.1013 41.0728 42.888C40.5501 42.664 40.1128 42.36 39.7608 41.976C39.4194 41.5813 39.1634 41.1173 38.9928 40.584C38.8221 40.04 38.7368 39.4533 38.7368 38.824ZM49.6916 41.64C50.289 41.64 50.7423 41.608 51.0516 41.544V39.4C50.945 39.368 50.7903 39.336 50.5876 39.304C50.385 39.272 50.161 39.256 49.9156 39.256C49.7023 39.256 49.4836 39.272 49.2596 39.304C49.0463 39.336 48.849 39.3947 48.6676 39.48C48.497 39.5653 48.3583 39.688 48.2516 39.848C48.145 39.9973 48.0916 40.1893 48.0916 40.424C48.0916 40.8827 48.2356 41.2027 48.5236 41.384C48.8116 41.5547 49.201 41.64 49.6916 41.64ZM49.5316 34.424C50.1716 34.424 50.7103 34.504 51.1476 34.664C51.585 34.824 51.9316 35.048 52.1876 35.336C52.4543 35.624 52.641 35.976 52.7476 36.392C52.865 36.7973 52.9236 37.2453 52.9236 37.736V42.808C52.625 42.872 52.1716 42.9467 51.5636 43.032C50.9663 43.128 50.289 43.176 49.5316 43.176C49.0303 43.176 48.5716 43.128 48.1556 43.032C47.7396 42.936 47.3823 42.7813 47.0836 42.568C46.7956 42.3547 46.5663 42.0773 46.3956 41.736C46.2356 41.3947 46.1556 40.9733 46.1556 40.472C46.1556 39.992 46.2463 39.5867 46.4276 39.256C46.6196 38.9253 46.8756 38.6587 47.1956 38.456C47.5156 38.2427 47.8836 38.0933 48.2996 38.008C48.7263 37.912 49.169 37.864 49.6276 37.864C49.841 37.864 50.065 37.88 50.2996 37.912C50.5343 37.9333 50.785 37.976 51.0516 38.04V37.72C51.0516 37.496 51.025 37.2827 50.9716 37.08C50.9183 36.8773 50.8223 36.7013 50.6836 36.552C50.5556 36.392 50.3796 36.2693 50.1556 36.184C49.9423 36.0987 49.6703 36.056 49.3396 36.056C48.8916 36.056 48.481 36.088 48.1076 36.152C47.7343 36.216 47.4303 36.2907 47.1956 36.376L46.9556 34.808C47.201 34.7227 47.5583 34.6373 48.0276 34.552C48.497 34.4667 48.9983 34.424 49.5316 34.424ZM55.1985 32.424L57.1345 32.104V34.632H60.1105V36.248H57.1345V39.656C57.1345 40.328 57.2412 40.808 57.4545 41.096C57.6678 41.384 58.0305 41.528 58.5425 41.528C58.8945 41.528 59.2038 41.4907 59.4705 41.416C59.7478 41.3413 59.9665 41.272 60.1265 41.208L60.4465 42.744C60.2225 42.84 59.9292 42.936 59.5665 43.032C59.2038 43.1387 58.7772 43.192 58.2865 43.192C57.6892 43.192 57.1878 43.112 56.7825 42.952C56.3878 42.792 56.0732 42.5627 55.8385 42.264C55.6038 41.9547 55.4385 41.5867 55.3425 41.16C55.2465 40.7227 55.1985 40.2267 55.1985 39.672V32.424ZM63.934 43H61.998V34.632H63.934V43ZM64.142 32.184C64.142 32.5467 64.0247 32.8347 63.79 33.048C63.5553 33.2613 63.278 33.368 62.958 33.368C62.6273 33.368 62.3447 33.2613 62.11 33.048C61.8753 32.8347 61.758 32.5467 61.758 32.184C61.758 31.8107 61.8753 31.5173 62.11 31.304C62.3447 31.0907 62.6273 30.984 62.958 30.984C63.278 30.984 63.5553 31.0907 63.79 31.304C64.0247 31.5173 64.142 31.8107 64.142 32.184ZM73.9719 38.808C73.9719 39.4693 73.8759 40.072 73.6839 40.616C73.4919 41.16 73.2199 41.624 72.8679 42.008C72.5159 42.392 72.0892 42.6907 71.5879 42.904C71.0972 43.1173 70.5532 43.224 69.9559 43.224C69.3585 43.224 68.8145 43.1173 68.3239 42.904C67.8332 42.6907 67.4119 42.392 67.0599 42.008C66.7079 41.624 66.4305 41.16 66.2279 40.616C66.0359 40.072 65.9399 39.4693 65.9399 38.808C65.9399 38.1467 66.0359 37.5493 66.2279 37.016C66.4305 36.472 66.7079 36.008 67.0599 35.624C67.4225 35.24 67.8492 34.9467 68.3399 34.744C68.8305 34.5307 69.3692 34.424 69.9559 34.424C70.5425 34.424 71.0812 34.5307 71.5719 34.744C72.0732 34.9467 72.4999 35.24 72.8519 35.624C73.2039 36.008 73.4759 36.472 73.6679 37.016C73.8705 37.5493 73.9719 38.1467 73.9719 38.808ZM71.9879 38.808C71.9879 37.976 71.8065 37.32 71.4439 36.84C71.0919 36.3493 70.5959 36.104 69.9559 36.104C69.3159 36.104 68.8145 36.3493 68.4519 36.84C68.0999 37.32 67.9239 37.976 67.9239 38.808C67.9239 39.6507 68.0999 40.3173 68.4519 40.808C68.8145 41.2987 69.3159 41.544 69.9559 41.544C70.5959 41.544 71.0919 41.2987 71.4439 40.808C71.8065 40.3173 71.9879 39.6507 71.9879 38.808ZM75.9664 34.904C76.3397 34.7973 76.825 34.696 77.4224 34.6C78.0197 34.504 78.681 34.456 79.4064 34.456C80.089 34.456 80.6597 34.552 81.1184 34.744C81.577 34.9253 81.9397 35.1867 82.2064 35.528C82.4837 35.8587 82.6757 36.264 82.7824 36.744C82.8997 37.2133 82.9584 37.7307 82.9584 38.296V43H81.0224V38.6C81.0224 38.152 80.9904 37.7733 80.9264 37.464C80.873 37.144 80.777 36.888 80.6384 36.696C80.5104 36.4933 80.329 36.3493 80.0944 36.264C79.8704 36.168 79.593 36.12 79.2624 36.12C79.017 36.12 78.761 36.136 78.4944 36.168C78.2277 36.2 78.0304 36.2267 77.9024 36.248V43H75.9664V34.904ZM96.6281 38.808C96.6281 39.4693 96.5321 40.072 96.3401 40.616C96.1481 41.16 95.8761 41.624 95.5241 42.008C95.1721 42.392 94.7455 42.6907 94.2441 42.904C93.7535 43.1173 93.2095 43.224 92.6121 43.224C92.0148 43.224 91.4708 43.1173 90.9801 42.904C90.4895 42.6907 90.0681 42.392 89.7161 42.008C89.3641 41.624 89.0868 41.16 88.8841 40.616C88.6921 40.072 88.5961 39.4693 88.5961 38.808C88.5961 38.1467 88.6921 37.5493 88.8841 37.016C89.0868 36.472 89.3641 36.008 89.7161 35.624C90.0788 35.24 90.5055 34.9467 90.9961 34.744C91.4868 34.5307 92.0255 34.424 92.6121 34.424C93.1988 34.424 93.7375 34.5307 94.2281 34.744C94.7295 34.9467 95.1561 35.24 95.5081 35.624C95.8601 36.008 96.1321 36.472 96.3241 37.016C96.5268 37.5493 96.6281 38.1467 96.6281 38.808ZM94.6441 38.808C94.6441 37.976 94.4628 37.32 94.1001 36.84C93.7481 36.3493 93.2521 36.104 92.6121 36.104C91.9721 36.104 91.4708 36.3493 91.1081 36.84C90.7561 37.32 90.5801 37.976 90.5801 38.808C90.5801 39.6507 90.7561 40.3173 91.1081 40.808C91.4708 41.2987 91.9721 41.544 92.6121 41.544C93.2521 41.544 93.7481 41.2987 94.1001 40.808C94.4628 40.3173 94.6441 39.6507 94.6441 38.808ZM104.175 38.856C104.175 37.992 103.977 37.32 103.583 36.84C103.199 36.36 102.575 36.12 101.711 36.12C101.529 36.12 101.337 36.1307 101.135 36.152C100.943 36.1627 100.751 36.1947 100.559 36.248V41.032C100.729 41.1493 100.953 41.2613 101.231 41.368C101.519 41.464 101.823 41.512 102.143 41.512C102.847 41.512 103.359 41.272 103.679 40.792C104.009 40.312 104.175 39.6667 104.175 38.856ZM106.159 38.824C106.159 39.464 106.073 40.0507 105.903 40.584C105.743 41.1173 105.508 41.576 105.199 41.96C104.889 42.344 104.5 42.6427 104.031 42.856C103.572 43.0693 103.049 43.176 102.463 43.176C102.068 43.176 101.705 43.128 101.375 43.032C101.044 42.936 100.772 42.8293 100.559 42.712V45.96H98.6226V34.904C99.0173 34.7973 99.5026 34.696 100.079 34.6C100.655 34.504 101.263 34.456 101.903 34.456C102.564 34.456 103.156 34.5573 103.679 34.76C104.201 34.9627 104.644 35.256 105.007 35.64C105.38 36.0133 105.663 36.472 105.855 37.016C106.057 37.5493 106.159 38.152 106.159 38.824ZM108.058 32.424L109.994 32.104V34.632H112.97V36.248H109.994V39.656C109.994 40.328 110.101 40.808 110.314 41.096C110.527 41.384 110.89 41.528 111.402 41.528C111.754 41.528 112.063 41.4907 112.33 41.416C112.607 41.3413 112.826 41.272 112.986 41.208L113.306 42.744C113.082 42.84 112.789 42.936 112.426 43.032C112.063 43.1387 111.637 43.192 111.146 43.192C110.549 43.192 110.047 43.112 109.642 42.952C109.247 42.792 108.933 42.5627 108.698 42.264C108.463 41.9547 108.298 41.5867 108.202 41.16C108.106 40.7227 108.058 40.2267 108.058 39.672V32.424ZM116.793 43H114.857V34.632H116.793V43ZM117.001 32.184C117.001 32.5467 116.884 32.8347 116.649 33.048C116.415 33.2613 116.137 33.368 115.817 33.368C115.487 33.368 115.204 33.2613 114.969 33.048C114.735 32.8347 114.617 32.5467 114.617 32.184C114.617 31.8107 114.735 31.5173 114.969 31.304C115.204 31.0907 115.487 30.984 115.817 30.984C116.137 30.984 116.415 31.0907 116.649 31.304C116.884 31.5173 117.001 31.8107 117.001 32.184ZM126.831 38.808C126.831 39.4693 126.735 40.072 126.543 40.616C126.351 41.16 126.079 41.624 125.727 42.008C125.375 42.392 124.949 42.6907 124.447 42.904C123.957 43.1173 123.413 43.224 122.815 43.224C122.218 43.224 121.674 43.1173 121.183 42.904C120.693 42.6907 120.271 42.392 119.919 42.008C119.567 41.624 119.29 41.16 119.087 40.616C118.895 40.072 118.799 39.4693 118.799 38.808C118.799 38.1467 118.895 37.5493 119.087 37.016C119.29 36.472 119.567 36.008 119.919 35.624C120.282 35.24 120.709 34.9467 121.199 34.744C121.69 34.5307 122.229 34.424 122.815 34.424C123.402 34.424 123.941 34.5307 124.431 34.744C124.933 34.9467 125.359 35.24 125.711 35.624C126.063 36.008 126.335 36.472 126.527 37.016C126.73 37.5493 126.831 38.1467 126.831 38.808ZM124.847 38.808C124.847 37.976 124.666 37.32 124.303 36.84C123.951 36.3493 123.455 36.104 122.815 36.104C122.175 36.104 121.674 36.3493 121.311 36.84C120.959 37.32 120.783 37.976 120.783 38.808C120.783 39.6507 120.959 40.3173 121.311 40.808C121.674 41.2987 122.175 41.544 122.815 41.544C123.455 41.544 123.951 41.2987 124.303 40.808C124.666 40.3173 124.847 39.6507 124.847 38.808ZM128.826 34.904C129.199 34.7973 129.684 34.696 130.282 34.6C130.879 34.504 131.54 34.456 132.266 34.456C132.948 34.456 133.519 34.552 133.978 34.744C134.436 34.9253 134.799 35.1867 135.066 35.528C135.343 35.8587 135.535 36.264 135.642 36.744C135.759 37.2133 135.818 37.7307 135.818 38.296V43H133.882V38.6C133.882 38.152 133.85 37.7733 133.786 37.464C133.732 37.144 133.636 36.888 133.498 36.696C133.37 36.4933 133.188 36.3493 132.954 36.264C132.73 36.168 132.452 36.12 132.122 36.12C131.876 36.12 131.62 36.136 131.354 36.168C131.087 36.2 130.89 36.2267 130.762 36.248V43H128.826V34.904ZM140.281 41.608C140.793 41.608 141.166 41.5493 141.401 41.432C141.636 41.304 141.753 41.0907 141.753 40.792C141.753 40.5147 141.625 40.2853 141.369 40.104C141.124 39.9227 140.713 39.7253 140.137 39.512C139.785 39.384 139.46 39.2507 139.161 39.112C138.873 38.9627 138.622 38.792 138.409 38.6C138.196 38.408 138.025 38.1787 137.897 37.912C137.78 37.6347 137.721 37.2987 137.721 36.904C137.721 36.136 138.004 35.5333 138.569 35.096C139.134 34.648 139.902 34.424 140.873 34.424C141.364 34.424 141.833 34.472 142.281 34.568C142.729 34.6533 143.065 34.7387 143.289 34.824L142.937 36.392C142.724 36.296 142.452 36.2107 142.121 36.136C141.79 36.0507 141.406 36.008 140.969 36.008C140.574 36.008 140.254 36.0773 140.009 36.216C139.764 36.344 139.641 36.5467 139.641 36.824C139.641 36.9627 139.662 37.0853 139.705 37.192C139.758 37.2987 139.844 37.4 139.961 37.496C140.078 37.5813 140.233 37.672 140.425 37.768C140.617 37.8533 140.852 37.944 141.129 38.04C141.588 38.2107 141.977 38.3813 142.297 38.552C142.617 38.712 142.878 38.8987 143.081 39.112C143.294 39.3147 143.449 39.5493 143.545 39.816C143.641 40.0827 143.689 40.4027 143.689 40.776C143.689 41.576 143.39 42.184 142.793 42.6C142.206 43.0053 141.364 43.208 140.265 43.208C139.529 43.208 138.937 43.144 138.489 43.016C138.041 42.8987 137.726 42.8027 137.545 42.728L137.881 41.112C138.169 41.2293 138.51 41.3413 138.905 41.448C139.31 41.5547 139.769 41.608 140.281 41.608ZM154 38.6C154 37.7253 153.888 37.096 153.664 36.712C153.451 36.3173 153.045 36.12 152.448 36.12C152.235 36.12 152 36.136 151.744 36.168C151.488 36.2 151.296 36.2267 151.168 36.248V43H149.232V34.904C149.605 34.7973 150.091 34.696 150.688 34.6C151.296 34.504 151.936 34.456 152.608 34.456C153.184 34.456 153.653 34.5307 154.016 34.68C154.389 34.8293 154.699 35.0267 154.944 35.272C155.061 35.1867 155.211 35.096 155.392 35C155.573 34.904 155.776 34.8187 156 34.744C156.224 34.6587 156.459 34.5893 156.704 34.536C156.96 34.4827 157.216 34.456 157.472 34.456C158.123 34.456 158.656 34.552 159.072 34.744C159.499 34.9253 159.829 35.1867 160.064 35.528C160.309 35.8587 160.475 36.264 160.56 36.744C160.656 37.2133 160.704 37.7307 160.704 38.296V43H158.768V38.6C158.768 37.7253 158.661 37.096 158.448 36.712C158.235 36.3173 157.824 36.12 157.216 36.12C156.907 36.12 156.613 36.1733 156.336 36.28C156.059 36.376 155.851 36.472 155.712 36.568C155.797 36.8347 155.856 37.1173 155.888 37.416C155.92 37.7147 155.936 38.0347 155.936 38.376V43H154V38.6ZM166.02 41.64C166.617 41.64 167.07 41.608 167.38 41.544V39.4C167.273 39.368 167.118 39.336 166.916 39.304C166.713 39.272 166.489 39.256 166.244 39.256C166.03 39.256 165.812 39.272 165.588 39.304C165.374 39.336 165.177 39.3947 164.996 39.48C164.825 39.5653 164.686 39.688 164.58 39.848C164.473 39.9973 164.42 40.1893 164.42 40.424C164.42 40.8827 164.564 41.2027 164.852 41.384C165.14 41.5547 165.529 41.64 166.02 41.64ZM165.86 34.424C166.5 34.424 167.038 34.504 167.476 34.664C167.913 34.824 168.26 35.048 168.516 35.336C168.782 35.624 168.969 35.976 169.076 36.392C169.193 36.7973 169.252 37.2453 169.252 37.736V42.808C168.953 42.872 168.5 42.9467 167.892 43.032C167.294 43.128 166.617 43.176 165.86 43.176C165.358 43.176 164.9 43.128 164.484 43.032C164.068 42.936 163.71 42.7813 163.412 42.568C163.124 42.3547 162.894 42.0773 162.724 41.736C162.564 41.3947 162.484 40.9733 162.484 40.472C162.484 39.992 162.574 39.5867 162.756 39.256C162.948 38.9253 163.204 38.6587 163.524 38.456C163.844 38.2427 164.212 38.0933 164.628 38.008C165.054 37.912 165.497 37.864 165.956 37.864C166.169 37.864 166.393 37.88 166.628 37.912C166.862 37.9333 167.113 37.976 167.38 38.04V37.72C167.38 37.496 167.353 37.2827 167.3 37.08C167.246 36.8773 167.15 36.7013 167.012 36.552C166.884 36.392 166.708 36.2693 166.484 36.184C166.27 36.0987 165.998 36.056 165.668 36.056C165.22 36.056 164.809 36.088 164.436 36.152C164.062 36.216 163.758 36.2907 163.524 36.376L163.284 34.808C163.529 34.7227 163.886 34.6373 164.356 34.552C164.825 34.4667 165.326 34.424 165.86 34.424ZM173.143 38.792C173.143 39.6453 173.345 40.3173 173.751 40.808C174.156 41.288 174.716 41.528 175.431 41.528C175.74 41.528 176.001 41.5173 176.215 41.496C176.439 41.464 176.62 41.432 176.759 41.4V36.6C176.588 36.4827 176.359 36.376 176.071 36.28C175.793 36.1733 175.495 36.12 175.175 36.12C174.471 36.12 173.953 36.36 173.623 36.84C173.303 37.32 173.143 37.9707 173.143 38.792ZM178.695 42.744C178.311 42.8613 177.825 42.968 177.239 43.064C176.663 43.16 176.055 43.208 175.415 43.208C174.753 43.208 174.161 43.1067 173.639 42.904C173.116 42.7013 172.668 42.4133 172.295 42.04C171.932 41.656 171.649 41.1973 171.447 40.664C171.255 40.12 171.159 39.512 171.159 38.84C171.159 38.1787 171.239 37.5813 171.399 37.048C171.569 36.504 171.815 36.04 172.135 35.656C172.455 35.272 172.844 34.9787 173.303 34.776C173.761 34.5627 174.289 34.456 174.887 34.456C175.292 34.456 175.649 34.504 175.959 34.6C176.268 34.696 176.535 34.8027 176.759 34.92V30.904L178.695 30.584V42.744ZM180.69 38.856C180.69 38.12 180.797 37.4747 181.01 36.92C181.234 36.3653 181.527 35.9067 181.89 35.544C182.253 35.1707 182.669 34.8933 183.138 34.712C183.607 34.52 184.087 34.424 184.578 34.424C185.73 34.424 186.626 34.7813 187.266 35.496C187.917 36.2107 188.242 37.2773 188.242 38.696C188.242 38.8027 188.237 38.9253 188.226 39.064C188.226 39.192 188.221 39.3093 188.21 39.416H182.69C182.743 40.088 182.978 40.6107 183.394 40.984C183.821 41.3467 184.434 41.528 185.234 41.528C185.703 41.528 186.13 41.4853 186.514 41.4C186.909 41.3147 187.218 41.224 187.442 41.128L187.698 42.712C187.591 42.7653 187.442 42.824 187.25 42.888C187.069 42.9413 186.855 42.9893 186.61 43.032C186.375 43.0853 186.119 43.128 185.842 43.16C185.565 43.192 185.282 43.208 184.994 43.208C184.258 43.208 183.618 43.1013 183.074 42.888C182.53 42.664 182.082 42.36 181.73 41.976C181.378 41.5813 181.117 41.1227 180.946 40.6C180.775 40.0667 180.69 39.4853 180.69 38.856ZM186.306 37.992C186.306 37.7253 186.269 37.4747 186.194 37.24C186.119 36.9947 186.007 36.7867 185.858 36.616C185.719 36.4347 185.543 36.296 185.33 36.2C185.127 36.0933 184.882 36.04 184.594 36.04C184.295 36.04 184.034 36.0987 183.81 36.216C183.586 36.3227 183.394 36.4667 183.234 36.648C183.085 36.8293 182.967 37.0373 182.882 37.272C182.797 37.5067 182.738 37.7467 182.706 37.992H186.306ZM196.973 41.64C197.57 41.64 198.024 41.608 198.333 41.544V39.4C198.226 39.368 198.072 39.336 197.869 39.304C197.666 39.272 197.442 39.256 197.197 39.256C196.984 39.256 196.765 39.272 196.541 39.304C196.328 39.336 196.13 39.3947 195.949 39.48C195.778 39.5653 195.64 39.688 195.533 39.848C195.426 39.9973 195.373 40.1893 195.373 40.424C195.373 40.8827 195.517 41.2027 195.805 41.384C196.093 41.5547 196.482 41.64 196.973 41.64ZM196.813 34.424C197.453 34.424 197.992 34.504 198.429 34.664C198.866 34.824 199.213 35.048 199.469 35.336C199.736 35.624 199.922 35.976 200.029 36.392C200.146 36.7973 200.205 37.2453 200.205 37.736V42.808C199.906 42.872 199.453 42.9467 198.845 43.032C198.248 43.128 197.57 43.176 196.813 43.176C196.312 43.176 195.853 43.128 195.437 43.032C195.021 42.936 194.664 42.7813 194.365 42.568C194.077 42.3547 193.848 42.0773 193.677 41.736C193.517 41.3947 193.437 40.9733 193.437 40.472C193.437 39.992 193.528 39.5867 193.709 39.256C193.901 38.9253 194.157 38.6587 194.477 38.456C194.797 38.2427 195.165 38.0933 195.581 38.008C196.008 37.912 196.45 37.864 196.909 37.864C197.122 37.864 197.346 37.88 197.581 37.912C197.816 37.9333 198.066 37.976 198.333 38.04V37.72C198.333 37.496 198.306 37.2827 198.253 37.08C198.2 36.8773 198.104 36.7013 197.965 36.552C197.837 36.392 197.661 36.2693 197.437 36.184C197.224 36.0987 196.952 36.056 196.621 36.056C196.173 36.056 195.762 36.088 195.389 36.152C195.016 36.216 194.712 36.2907 194.477 36.376L194.237 34.808C194.482 34.7227 194.84 34.6373 195.309 34.552C195.778 34.4667 196.28 34.424 196.813 34.424ZM212.448 30.584C212.896 30.584 213.29 30.6267 213.632 30.712C213.973 30.7867 214.229 30.856 214.4 30.92L214.032 32.52C213.85 32.4347 213.637 32.3653 213.392 32.312C213.157 32.2587 212.901 32.232 212.624 32.232C212.314 32.232 212.053 32.28 211.84 32.376C211.626 32.4613 211.456 32.584 211.328 32.744C211.2 32.904 211.109 33.1013 211.056 33.336C211.002 33.56 210.976 33.8053 210.976 34.072V34.632H214.016V36.248H210.976V43H209.04V34.04C209.04 32.9627 209.322 32.12 209.888 31.512C210.453 30.8933 211.306 30.584 212.448 30.584ZM205.984 30.584C206.432 30.584 206.826 30.6267 207.168 30.712C207.509 30.7867 207.765 30.856 207.936 30.92L207.568 32.52C207.386 32.4347 207.173 32.3653 206.928 32.312C206.693 32.2587 206.437 32.232 206.16 32.232C205.85 32.232 205.589 32.28 205.376 32.376C205.162 32.4613 204.992 32.584 204.864 32.744C204.736 32.904 204.645 33.1013 204.592 33.336C204.538 33.56 204.512 33.8053 204.512 34.072V34.632H207.552V36.248H204.512V43H202.576V34.04C202.576 32.9627 202.858 32.12 203.424 31.512C203.989 30.8933 204.842 30.584 205.984 30.584ZM222.847 38.808C222.847 39.4693 222.751 40.072 222.559 40.616C222.367 41.16 222.095 41.624 221.743 42.008C221.391 42.392 220.964 42.6907 220.463 42.904C219.972 43.1173 219.428 43.224 218.831 43.224C218.234 43.224 217.69 43.1173 217.199 42.904C216.708 42.6907 216.287 42.392 215.935 42.008C215.583 41.624 215.306 41.16 215.103 40.616C214.911 40.072 214.815 39.4693 214.815 38.808C214.815 38.1467 214.911 37.5493 215.103 37.016C215.306 36.472 215.583 36.008 215.935 35.624C216.298 35.24 216.724 34.9467 217.215 34.744C217.706 34.5307 218.244 34.424 218.831 34.424C219.418 34.424 219.956 34.5307 220.447 34.744C220.948 34.9467 221.375 35.24 221.727 35.624C222.079 36.008 222.351 36.472 222.543 37.016C222.746 37.5493 222.847 38.1467 222.847 38.808ZM220.863 38.808C220.863 37.976 220.682 37.32 220.319 36.84C219.967 36.3493 219.471 36.104 218.831 36.104C218.191 36.104 217.69 36.3493 217.327 36.84C216.975 37.32 216.799 37.976 216.799 38.808C216.799 39.6507 216.975 40.3173 217.327 40.808C217.69 41.2987 218.191 41.544 218.831 41.544C219.471 41.544 219.967 41.2987 220.319 40.808C220.682 40.3173 220.863 39.6507 220.863 38.808ZM229.609 36.376C229.449 36.3227 229.225 36.2693 228.937 36.216C228.66 36.152 228.335 36.12 227.961 36.12C227.748 36.12 227.519 36.1413 227.273 36.184C227.039 36.2267 226.873 36.264 226.777 36.296V43H224.841V35.032C225.215 34.8933 225.679 34.7653 226.233 34.648C226.799 34.52 227.423 34.456 228.105 34.456C228.233 34.456 228.383 34.4667 228.553 34.488C228.724 34.4987 228.895 34.52 229.065 34.552C229.236 34.5733 229.401 34.6053 229.561 34.648C229.721 34.68 229.849 34.712 229.945 34.744L229.609 36.376ZM232.815 38.792C232.815 39.6453 233.017 40.3173 233.423 40.808C233.828 41.288 234.388 41.528 235.103 41.528C235.412 41.528 235.673 41.5173 235.887 41.496C236.111 41.464 236.292 41.432 236.431 41.4V36.6C236.26 36.4827 236.031 36.376 235.743 36.28C235.465 36.1733 235.167 36.12 234.847 36.12C234.143 36.12 233.625 36.36 233.295 36.84C232.975 37.32 232.815 37.9707 232.815 38.792ZM238.367 42.744C237.983 42.8613 237.497 42.968 236.911 43.064C236.335 43.16 235.727 43.208 235.087 43.208C234.425 43.208 233.833 43.1067 233.311 42.904C232.788 42.7013 232.34 42.4133 231.967 42.04C231.604 41.656 231.321 41.1973 231.118 40.664C230.927 40.12 230.831 39.512 230.831 38.84C230.831 38.1787 230.911 37.5813 231.071 37.048C231.241 36.504 231.487 36.04 231.807 35.656C232.127 35.272 232.516 34.9787 232.975 34.776C233.433 34.5627 233.961 34.456 234.559 34.456C234.964 34.456 235.321 34.504 235.631 34.6C235.94 34.696 236.207 34.8027 236.431 34.92V30.904L238.367 30.584V42.744ZM243.77 41.64C244.367 41.64 244.82 41.608 245.13 41.544V39.4C245.023 39.368 244.868 39.336 244.666 39.304C244.463 39.272 244.239 39.256 243.994 39.256C243.78 39.256 243.562 39.272 243.338 39.304C243.124 39.336 242.927 39.3947 242.746 39.48C242.575 39.5653 242.436 39.688 242.33 39.848C242.223 39.9973 242.17 40.1893 242.17 40.424C242.17 40.8827 242.314 41.2027 242.602 41.384C242.89 41.5547 243.279 41.64 243.77 41.64ZM243.61 34.424C244.25 34.424 244.788 34.504 245.226 34.664C245.663 34.824 246.01 35.048 246.266 35.336C246.532 35.624 246.719 35.976 246.826 36.392C246.943 36.7973 247.002 37.2453 247.002 37.736V42.808C246.703 42.872 246.25 42.9467 245.642 43.032C245.044 43.128 244.367 43.176 243.61 43.176C243.108 43.176 242.65 43.128 242.234 43.032C241.818 42.936 241.46 42.7813 241.162 42.568C240.874 42.3547 240.644 42.0773 240.474 41.736C240.314 41.3947 240.234 40.9733 240.234 40.472C240.234 39.992 240.324 39.5867 240.506 39.256C240.698 38.9253 240.954 38.6587 241.274 38.456C241.594 38.2427 241.962 38.0933 242.378 38.008C242.804 37.912 243.247 37.864 243.706 37.864C243.919 37.864 244.143 37.88 244.378 37.912C244.612 37.9333 244.863 37.976 245.13 38.04V37.72C245.13 37.496 245.103 37.2827 245.05 37.08C244.996 36.8773 244.9 36.7013 244.762 36.552C244.634 36.392 244.458 36.2693 244.234 36.184C244.02 36.0987 243.748 36.056 243.418 36.056C242.97 36.056 242.559 36.088 242.186 36.152C241.812 36.216 241.508 36.2907 241.274 36.376L241.034 34.808C241.279 34.7227 241.636 34.6373 242.106 34.552C242.575 34.4667 243.076 34.424 243.61 34.424ZM254.925 38.792C254.925 37.9707 254.759 37.32 254.429 36.84C254.109 36.36 253.597 36.12 252.893 36.12C252.573 36.12 252.269 36.168 251.981 36.264C251.703 36.36 251.479 36.4667 251.309 36.584V41.4C251.447 41.432 251.623 41.464 251.837 41.496C252.061 41.5173 252.327 41.528 252.637 41.528C253.351 41.528 253.911 41.288 254.317 40.808C254.722 40.3173 254.925 39.6453 254.925 38.792ZM256.909 38.824C256.909 39.496 256.807 40.104 256.605 40.648C256.413 41.1813 256.13 41.64 255.757 42.024C255.394 42.408 254.951 42.7013 254.429 42.904C253.906 43.1067 253.314 43.208 252.653 43.208C252.013 43.208 251.399 43.16 250.813 43.064C250.237 42.968 249.757 42.8613 249.373 42.744V30.904L251.309 30.584V34.92C251.533 34.8027 251.805 34.696 252.125 34.6C252.455 34.504 252.818 34.456 253.213 34.456C253.799 34.456 254.322 34.5627 254.781 34.776C255.25 34.9787 255.639 35.272 255.949 35.656C256.258 36.04 256.493 36.504 256.653 37.048C256.823 37.5813 256.909 38.1733 256.909 38.824ZM261.816 43.16C261.24 43.1493 260.76 43.0853 260.376 42.968C260.003 42.8507 259.704 42.6853 259.48 42.472C259.256 42.248 259.096 41.976 259 41.656C258.915 41.3253 258.872 40.952 258.872 40.536V30.904L260.808 30.584V40.168C260.808 40.4027 260.824 40.6 260.856 40.76C260.899 40.92 260.968 41.0587 261.064 41.176C261.16 41.2827 261.288 41.368 261.448 41.432C261.619 41.4853 261.832 41.528 262.088 41.56L261.816 43.16ZM263.19 38.856C263.19 38.12 263.297 37.4747 263.51 36.92C263.734 36.3653 264.027 35.9067 264.39 35.544C264.753 35.1707 265.169 34.8933 265.638 34.712C266.107 34.52 266.587 34.424 267.078 34.424C268.23 34.424 269.126 34.7813 269.766 35.496C270.417 36.2107 270.742 37.2773 270.742 38.696C270.742 38.8027 270.737 38.9253 270.726 39.064C270.726 39.192 270.721 39.3093 270.71 39.416H265.19C265.243 40.088 265.478 40.6107 265.894 40.984C266.321 41.3467 266.934 41.528 267.734 41.528C268.203 41.528 268.63 41.4853 269.014 41.4C269.409 41.3147 269.718 41.224 269.942 41.128L270.198 42.712C270.091 42.7653 269.942 42.824 269.75 42.888C269.569 42.9413 269.355 42.9893 269.11 43.032C268.875 43.0853 268.619 43.128 268.342 43.16C268.065 43.192 267.782 43.208 267.494 43.208C266.758 43.208 266.118 43.1013 265.574 42.888C265.03 42.664 264.582 42.36 264.23 41.976C263.878 41.5813 263.617 41.1227 263.446 40.6C263.275 40.0667 263.19 39.4853 263.19 38.856ZM268.806 37.992C268.806 37.7253 268.769 37.4747 268.694 37.24C268.619 36.9947 268.507 36.7867 268.358 36.616C268.219 36.4347 268.043 36.296 267.83 36.2C267.627 36.0933 267.382 36.04 267.094 36.04C266.795 36.04 266.534 36.0987 266.31 36.216C266.086 36.3227 265.894 36.4667 265.734 36.648C265.585 36.8293 265.467 37.0373 265.382 37.272C265.297 37.5067 265.238 37.7467 265.206 37.992H268.806ZM22.136 50.424L24.072 50.104V52.632H27.048V54.248H24.072V57.656C24.072 58.328 24.1787 58.808 24.392 59.096C24.6053 59.384 24.968 59.528 25.48 59.528C25.832 59.528 26.1413 59.4907 26.408 59.416C26.6853 59.3413 26.904 59.272 27.064 59.208L27.384 60.744C27.16 60.84 26.8667 60.936 26.504 61.032C26.1413 61.1387 25.7147 61.192 25.224 61.192C24.6267 61.192 24.1253 61.112 23.72 60.952C23.3253 60.792 23.0107 60.5627 22.776 60.264C22.5413 59.9547 22.376 59.5867 22.28 59.16C22.184 58.7227 22.136 58.2267 22.136 57.672V50.424ZM28.9195 61V48.904L30.8555 48.584V52.728C31.0688 52.6533 31.3142 52.5893 31.5915 52.536C31.8795 52.4827 32.1622 52.456 32.4395 52.456C33.1115 52.456 33.6662 52.552 34.1035 52.744C34.5515 52.9253 34.9088 53.1867 35.1755 53.528C35.4422 53.8587 35.6288 54.2587 35.7355 54.728C35.8528 55.1973 35.9115 55.72 35.9115 56.296V61H33.9755V56.6C33.9755 56.152 33.9435 55.7733 33.8795 55.464C33.8262 55.144 33.7302 54.888 33.5915 54.696C33.4635 54.4933 33.2875 54.3493 33.0635 54.264C32.8395 54.168 32.5622 54.12 32.2315 54.12C31.9755 54.12 31.7142 54.1467 31.4475 54.2C31.1808 54.2533 30.9835 54.3013 30.8555 54.344V61H28.9195ZM43 54.376C42.84 54.3227 42.616 54.2693 42.328 54.216C42.0507 54.152 41.7253 54.12 41.352 54.12C41.1387 54.12 40.9093 54.1413 40.664 54.184C40.4293 54.2267 40.264 54.264 40.168 54.296V61H38.232V53.032C38.6053 52.8933 39.0693 52.7653 39.624 52.648C40.1893 52.52 40.8133 52.456 41.496 52.456C41.624 52.456 41.7733 52.4667 41.944 52.488C42.1147 52.4987 42.2853 52.52 42.456 52.552C42.6267 52.5733 42.792 52.6053 42.952 52.648C43.112 52.68 43.24 52.712 43.336 52.744L43 54.376ZM52.2531 56.808C52.2531 57.4693 52.1571 58.072 51.9651 58.616C51.7731 59.16 51.5011 59.624 51.1491 60.008C50.7971 60.392 50.3705 60.6907 49.8691 60.904C49.3785 61.1173 48.8345 61.224 48.2371 61.224C47.6398 61.224 47.0958 61.1173 46.6051 60.904C46.1145 60.6907 45.6931 60.392 45.3411 60.008C44.9891 59.624 44.7118 59.16 44.5091 58.616C44.3171 58.072 44.2211 57.4693 44.2211 56.808C44.2211 56.1467 44.3171 55.5493 44.5091 55.016C44.7118 54.472 44.9891 54.008 45.3411 53.624C45.7038 53.24 46.1305 52.9467 46.6211 52.744C47.1118 52.5307 47.6505 52.424 48.2371 52.424C48.8238 52.424 49.3625 52.5307 49.8531 52.744C50.3545 52.9467 50.7811 53.24 51.1331 53.624C51.4851 54.008 51.7571 54.472 51.9491 55.016C52.1518 55.5493 52.2531 56.1467 52.2531 56.808ZM50.2691 56.808C50.2691 55.976 50.0878 55.32 49.7251 54.84C49.3731 54.3493 48.8771 54.104 48.2371 54.104C47.5971 54.104 47.0958 54.3493 46.7331 54.84C46.3811 55.32 46.2051 55.976 46.2051 56.808C46.2051 57.6507 46.3811 58.3173 46.7331 58.808C47.0958 59.2987 47.5971 59.544 48.2371 59.544C48.8771 59.544 49.3731 59.2987 49.7251 58.808C50.0878 58.3173 50.2691 57.6507 50.2691 56.808ZM61.1116 60.744C60.7383 60.84 60.253 60.936 59.6556 61.032C59.0583 61.1387 58.4023 61.192 57.6876 61.192C57.0156 61.192 56.4503 61.096 55.9916 60.904C55.5436 60.712 55.181 60.4453 54.9036 60.104C54.637 59.7627 54.445 59.3573 54.3276 58.888C54.2103 58.408 54.1516 57.8853 54.1516 57.32V52.632H56.0876V57.016C56.0876 57.912 56.2156 58.552 56.4716 58.936C56.7383 59.32 57.197 59.512 57.8476 59.512C58.0823 59.512 58.3276 59.5013 58.5836 59.48C58.8503 59.4587 59.0476 59.432 59.1756 59.4V52.632H61.1116V60.744ZM65.0958 56.6C65.0958 57.4213 65.2718 58.024 65.6238 58.408C65.9864 58.7813 66.4504 58.968 67.0158 58.968C67.3251 58.968 67.6131 58.9253 67.8798 58.84C68.1571 58.7547 68.3811 58.6533 68.5518 58.536V54.2C68.4131 54.168 68.2424 54.1413 68.0398 54.12C67.8371 54.088 67.5811 54.072 67.2718 54.072C66.5678 54.072 66.0291 54.3067 65.6558 54.776C65.2824 55.2347 65.0958 55.8427 65.0958 56.6ZM70.4878 60.152C70.4878 61.4853 70.1464 62.4613 69.4638 63.08C68.7918 63.6987 67.7571 64.008 66.3598 64.008C65.8478 64.008 65.3464 63.9653 64.8558 63.88C64.3758 63.7947 63.9384 63.6827 63.5438 63.544L63.8958 61.896C64.2264 62.0347 64.5998 62.1467 65.0158 62.232C65.4424 62.3173 65.9011 62.36 66.3918 62.36C67.1704 62.36 67.7251 62.2 68.0558 61.88C68.3864 61.56 68.5518 61.0853 68.5518 60.456V60.136C68.3598 60.232 68.1038 60.328 67.7838 60.424C67.4744 60.52 67.1171 60.568 66.7118 60.568C66.1784 60.568 65.6878 60.4827 65.2398 60.312C64.8024 60.1413 64.4238 59.8907 64.1038 59.56C63.7944 59.2293 63.5491 58.8187 63.3678 58.328C63.1971 57.8267 63.1118 57.2507 63.1118 56.6C63.1118 55.992 63.2024 55.432 63.3838 54.92C63.5758 54.408 63.8478 53.9707 64.1998 53.608C64.5624 53.2453 64.9998 52.9627 65.5118 52.76C66.0238 52.5573 66.6051 52.456 67.2558 52.456C67.8851 52.456 68.4824 52.504 69.0478 52.6C69.6131 52.696 70.0931 52.7973 70.4878 52.904V60.152ZM72.9508 61V48.904L74.8868 48.584V52.728C75.1001 52.6533 75.3454 52.5893 75.6228 52.536C75.9108 52.4827 76.1934 52.456 76.4708 52.456C77.1428 52.456 77.6974 52.552 78.1348 52.744C78.5828 52.9253 78.9401 53.1867 79.2068 53.528C79.4734 53.8587 79.6601 54.2587 79.7668 54.728C79.8841 55.1973 79.9427 55.72 79.9427 56.296V61H78.0068V56.6C78.0068 56.152 77.9748 55.7733 77.9108 55.464C77.8574 55.144 77.7614 54.888 77.6228 54.696C77.4948 54.4933 77.3188 54.3493 77.0948 54.264C76.8708 54.168 76.5934 54.12 76.2628 54.12C76.0068 54.12 75.7454 54.1467 75.4788 54.2C75.2121 54.2533 75.0148 54.3013 74.8868 54.344V61H72.9508ZM85.5336 56.856C85.5336 56.12 85.6403 55.4747 85.8536 54.92C86.0776 54.3653 86.371 53.9067 86.7336 53.544C87.0963 53.1707 87.5123 52.8933 87.9816 52.712C88.451 52.52 88.931 52.424 89.4216 52.424C90.5736 52.424 91.4696 52.7813 92.1096 53.496C92.7603 54.2107 93.0856 55.2773 93.0856 56.696C93.0856 56.8027 93.0803 56.9253 93.0696 57.064C93.0696 57.192 93.0643 57.3093 93.0536 57.416H87.5336C87.587 58.088 87.8216 58.6107 88.2376 58.984C88.6643 59.3467 89.2776 59.528 90.0776 59.528C90.547 59.528 90.9736 59.4853 91.3576 59.4C91.7523 59.3147 92.0616 59.224 92.2856 59.128L92.5416 60.712C92.435 60.7653 92.2856 60.824 92.0936 60.888C91.9123 60.9413 91.699 60.9893 91.4536 61.032C91.219 61.0853 90.963 61.128 90.6856 61.16C90.4083 61.192 90.1256 61.208 89.8376 61.208C89.1016 61.208 88.4616 61.1013 87.9176 60.888C87.3736 60.664 86.9256 60.36 86.5736 59.976C86.2216 59.5813 85.9603 59.1227 85.7896 58.6C85.619 58.0667 85.5336 57.4853 85.5336 56.856ZM91.1496 55.992C91.1496 55.7253 91.1123 55.4747 91.0376 55.24C90.963 54.9947 90.851 54.7867 90.7016 54.616C90.563 54.4347 90.387 54.296 90.1736 54.2C89.971 54.0933 89.7256 54.04 89.4376 54.04C89.139 54.04 88.8776 54.0987 88.6536 54.216C88.4296 54.3227 88.2376 54.4667 88.0776 54.648C87.9283 54.8293 87.811 55.0373 87.7256 55.272C87.6403 55.5067 87.5816 55.7467 87.5496 55.992H91.1496ZM98.0823 59.64C98.6796 59.64 99.1329 59.608 99.4423 59.544V57.4C99.3356 57.368 99.1809 57.336 98.9783 57.304C98.7756 57.272 98.5516 57.256 98.3063 57.256C98.0929 57.256 97.8743 57.272 97.6503 57.304C97.4369 57.336 97.2396 57.3947 97.0583 57.48C96.8876 57.5653 96.7489 57.688 96.6423 57.848C96.5356 57.9973 96.4823 58.1893 96.4823 58.424C96.4823 58.8827 96.6263 59.2027 96.9143 59.384C97.2023 59.5547 97.5916 59.64 98.0823 59.64ZM97.9223 52.424C98.5623 52.424 99.1009 52.504 99.5383 52.664C99.9756 52.824 100.322 53.048 100.578 53.336C100.845 53.624 101.032 53.976 101.138 54.392C101.256 54.7973 101.314 55.2453 101.314 55.736V60.808C101.016 60.872 100.562 60.9467 99.9543 61.032C99.3569 61.128 98.6796 61.176 97.9223 61.176C97.4209 61.176 96.9623 61.128 96.5463 61.032C96.1303 60.936 95.7729 60.7813 95.4743 60.568C95.1863 60.3547 94.9569 60.0773 94.7863 59.736C94.6263 59.3947 94.5463 58.9733 94.5463 58.472C94.5463 57.992 94.6369 57.5867 94.8183 57.256C95.0103 56.9253 95.2663 56.6587 95.5863 56.456C95.9063 56.2427 96.2743 56.0933 96.6903 56.008C97.1169 55.912 97.5596 55.864 98.0182 55.864C98.2316 55.864 98.4556 55.88 98.6903 55.912C98.9249 55.9333 99.1756 55.976 99.4423 56.04V55.72C99.4423 55.496 99.4156 55.2827 99.3623 55.08C99.3089 54.8773 99.2129 54.7013 99.0743 54.552C98.9463 54.392 98.7703 54.2693 98.5463 54.184C98.3329 54.0987 98.0609 54.056 97.7303 54.056C97.2823 54.056 96.8716 54.088 96.4983 54.152C96.1249 54.216 95.8209 54.2907 95.5863 54.376L95.3463 52.808C95.5916 52.7227 95.9489 52.6373 96.4183 52.552C96.8876 52.4667 97.3889 52.424 97.9223 52.424ZM105.781 59.608C106.293 59.608 106.666 59.5493 106.901 59.432C107.136 59.304 107.253 59.0907 107.253 58.792C107.253 58.5147 107.125 58.2853 106.869 58.104C106.624 57.9227 106.213 57.7253 105.637 57.512C105.285 57.384 104.96 57.2507 104.661 57.112C104.373 56.9627 104.122 56.792 103.909 56.6C103.696 56.408 103.525 56.1787 103.397 55.912C103.28 55.6347 103.221 55.2987 103.221 54.904C103.221 54.136 103.504 53.5333 104.069 53.096C104.634 52.648 105.402 52.424 106.373 52.424C106.864 52.424 107.333 52.472 107.781 52.568C108.229 52.6533 108.565 52.7387 108.789 52.824L108.437 54.392C108.224 54.296 107.952 54.2107 107.621 54.136C107.29 54.0507 106.906 54.008 106.469 54.008C106.074 54.008 105.754 54.0773 105.509 54.216C105.264 54.344 105.141 54.5467 105.141 54.824C105.141 54.9627 105.162 55.0853 105.205 55.192C105.258 55.2987 105.344 55.4 105.461 55.496C105.578 55.5813 105.733 55.672 105.925 55.768C106.117 55.8533 106.352 55.944 106.629 56.04C107.088 56.2107 107.477 56.3813 107.797 56.552C108.117 56.712 108.378 56.8987 108.581 57.112C108.794 57.3147 108.949 57.5493 109.045 57.816C109.141 58.0827 109.189 58.4027 109.189 58.776C109.189 59.576 108.89 60.184 108.293 60.6C107.706 61.0053 106.864 61.208 105.765 61.208C105.029 61.208 104.437 61.144 103.989 61.016C103.541 60.8987 103.226 60.8027 103.045 60.728L103.381 59.112C103.669 59.2293 104.01 59.3413 104.405 59.448C104.81 59.5547 105.269 59.608 105.781 59.608ZM117.83 52.632C116.966 55.8107 115.963 58.6907 114.822 61.272C114.608 61.752 114.39 62.1627 114.166 62.504C113.942 62.8453 113.691 63.128 113.414 63.352C113.136 63.576 112.827 63.736 112.486 63.832C112.144 63.9387 111.75 63.992 111.302 63.992C111.003 63.992 110.704 63.96 110.406 63.896C110.118 63.832 109.899 63.7627 109.75 63.688L110.102 62.136C110.486 62.2853 110.864 62.36 111.238 62.36C111.739 62.36 112.128 62.2373 112.406 61.992C112.694 61.7573 112.944 61.3893 113.158 60.888C112.55 59.7147 111.963 58.4347 111.398 57.048C110.843 55.6613 110.347 54.1893 109.91 52.632H111.974C112.08 53.08 112.208 53.5653 112.358 54.088C112.518 54.6107 112.688 55.144 112.87 55.688C113.051 56.2213 113.243 56.7547 113.446 57.288C113.648 57.8213 113.851 58.3173 114.054 58.776C114.395 57.8267 114.715 56.8187 115.014 55.752C115.312 54.6747 115.584 53.6347 115.83 52.632H117.83ZM128.581 56.856C128.581 55.992 128.384 55.32 127.989 54.84C127.605 54.36 126.981 54.12 126.117 54.12C125.936 54.12 125.744 54.1307 125.541 54.152C125.349 54.1627 125.157 54.1947 124.965 54.248V59.032C125.136 59.1493 125.36 59.2613 125.637 59.368C125.925 59.464 126.229 59.512 126.549 59.512C127.253 59.512 127.765 59.272 128.085 58.792C128.416 58.312 128.581 57.6667 128.581 56.856ZM130.565 56.824C130.565 57.464 130.48 58.0507 130.309 58.584C130.149 59.1173 129.914 59.576 129.605 59.96C129.296 60.344 128.906 60.6427 128.437 60.856C127.978 61.0693 127.456 61.176 126.869 61.176C126.474 61.176 126.112 61.128 125.781 61.032C125.45 60.936 125.178 60.8293 124.965 60.712V63.96H123.029V52.904C123.424 52.7973 123.909 52.696 124.485 52.6C125.061 52.504 125.669 52.456 126.309 52.456C126.97 52.456 127.562 52.5573 128.085 52.76C128.608 52.9627 129.05 53.256 129.413 53.64C129.786 54.0133 130.069 54.472 130.261 55.016C130.464 55.5493 130.565 56.152 130.565 56.824ZM135.504 59.64C136.101 59.64 136.555 59.608 136.864 59.544V57.4C136.757 57.368 136.603 57.336 136.4 57.304C136.197 57.272 135.973 57.256 135.728 57.256C135.515 57.256 135.296 57.272 135.072 57.304C134.859 57.336 134.661 57.3947 134.48 57.48C134.309 57.5653 134.171 57.688 134.064 57.848C133.957 57.9973 133.904 58.1893 133.904 58.424C133.904 58.8827 134.048 59.2027 134.336 59.384C134.624 59.5547 135.013 59.64 135.504 59.64ZM135.344 52.424C135.984 52.424 136.523 52.504 136.96 52.664C137.397 52.824 137.744 53.048 138 53.336C138.267 53.624 138.453 53.976 138.56 54.392C138.677 54.7973 138.736 55.2453 138.736 55.736V60.808C138.437 60.872 137.984 60.9467 137.376 61.032C136.779 61.128 136.101 61.176 135.344 61.176C134.843 61.176 134.384 61.128 133.968 61.032C133.552 60.936 133.195 60.7813 132.896 60.568C132.608 60.3547 132.379 60.0773 132.208 59.736C132.048 59.3947 131.968 58.9733 131.968 58.472C131.968 57.992 132.059 57.5867 132.24 57.256C132.432 56.9253 132.688 56.6587 133.008 56.456C133.328 56.2427 133.696 56.0933 134.112 56.008C134.539 55.912 134.981 55.864 135.44 55.864C135.653 55.864 135.877 55.88 136.112 55.912C136.347 55.9333 136.597 55.976 136.864 56.04V55.72C136.864 55.496 136.837 55.2827 136.784 55.08C136.731 54.8773 136.635 54.7013 136.496 54.552C136.368 54.392 136.192 54.2693 135.968 54.184C135.755 54.0987 135.483 54.056 135.152 54.056C134.704 54.056 134.293 54.088 133.92 54.152C133.547 54.216 133.243 54.2907 133.008 54.376L132.768 52.808C133.013 52.7227 133.371 52.6373 133.84 52.552C134.309 52.4667 134.811 52.424 135.344 52.424ZM147.736 52.632C146.872 55.8107 145.869 58.6907 144.728 61.272C144.515 61.752 144.296 62.1627 144.072 62.504C143.848 62.8453 143.597 63.128 143.32 63.352C143.043 63.576 142.733 63.736 142.392 63.832C142.051 63.9387 141.656 63.992 141.208 63.992C140.909 63.992 140.611 63.96 140.312 63.896C140.024 63.832 139.805 63.7627 139.656 63.688L140.008 62.136C140.392 62.2853 140.771 62.36 141.144 62.36C141.645 62.36 142.035 62.2373 142.312 61.992C142.6 61.7573 142.851 61.3893 143.064 60.888C142.456 59.7147 141.869 58.4347 141.304 57.048C140.749 55.6613 140.253 54.1893 139.816 52.632H141.88C141.987 53.08 142.115 53.5653 142.264 54.088C142.424 54.6107 142.595 55.144 142.776 55.688C142.957 56.2213 143.149 56.7547 143.352 57.288C143.555 57.8213 143.757 58.3173 143.96 58.776C144.301 57.8267 144.621 56.8187 144.92 55.752C145.219 54.6747 145.491 53.6347 145.736 52.632H147.736ZM153.969 56.6C153.969 55.7253 153.857 55.096 153.633 54.712C153.419 54.3173 153.014 54.12 152.417 54.12C152.203 54.12 151.969 54.136 151.713 54.168C151.457 54.2 151.265 54.2267 151.137 54.248V61H149.201V52.904C149.574 52.7973 150.059 52.696 150.657 52.6C151.265 52.504 151.905 52.456 152.577 52.456C153.153 52.456 153.622 52.5307 153.985 52.68C154.358 52.8293 154.667 53.0267 154.913 53.272C155.03 53.1867 155.179 53.096 155.361 53C155.542 52.904 155.745 52.8187 155.969 52.744C156.193 52.6587 156.427 52.5893 156.673 52.536C156.929 52.4827 157.185 52.456 157.441 52.456C158.091 52.456 158.625 52.552 159.041 52.744C159.467 52.9253 159.798 53.1867 160.033 53.528C160.278 53.8587 160.443 54.264 160.529 54.744C160.625 55.2133 160.673 55.7307 160.673 56.296V61H158.737V56.6C158.737 55.7253 158.63 55.096 158.417 54.712C158.203 54.3173 157.793 54.12 157.185 54.12C156.875 54.12 156.582 54.1733 156.305 54.28C156.027 54.376 155.819 54.472 155.681 54.568C155.766 54.8347 155.825 55.1173 155.857 55.416C155.889 55.7147 155.905 56.0347 155.905 56.376V61H153.969V56.6ZM162.581 56.856C162.581 56.12 162.687 55.4747 162.901 54.92C163.125 54.3653 163.418 53.9067 163.781 53.544C164.143 53.1707 164.559 52.8933 165.029 52.712C165.498 52.52 165.978 52.424 166.469 52.424C167.621 52.424 168.517 52.7813 169.157 53.496C169.807 54.2107 170.133 55.2773 170.133 56.696C170.133 56.8027 170.127 56.9253 170.117 57.064C170.117 57.192 170.111 57.3093 170.101 57.416H164.581C164.634 58.088 164.869 58.6107 165.285 58.984C165.711 59.3467 166.325 59.528 167.125 59.528C167.594 59.528 168.021 59.4853 168.405 59.4C168.799 59.3147 169.109 59.224 169.333 59.128L169.589 60.712C169.482 60.7653 169.333 60.824 169.141 60.888C168.959 60.9413 168.746 60.9893 168.501 61.032C168.266 61.0853 168.01 61.128 167.733 61.16C167.455 61.192 167.173 61.208 166.885 61.208C166.149 61.208 165.509 61.1013 164.965 60.888C164.421 60.664 163.973 60.36 163.621 59.976C163.269 59.5813 163.007 59.1227 162.837 58.6C162.666 58.0667 162.581 57.4853 162.581 56.856ZM168.197 55.992C168.197 55.7253 168.159 55.4747 168.085 55.24C168.01 54.9947 167.898 54.7867 167.749 54.616C167.61 54.4347 167.434 54.296 167.221 54.2C167.018 54.0933 166.773 54.04 166.485 54.04C166.186 54.04 165.925 54.0987 165.701 54.216C165.477 54.3227 165.285 54.4667 165.125 54.648C164.975 54.8293 164.858 55.0373 164.773 55.272C164.687 55.5067 164.629 55.7467 164.597 55.992H168.197ZM172.185 52.904C172.558 52.7973 173.044 52.696 173.641 52.6C174.238 52.504 174.9 52.456 175.625 52.456C176.308 52.456 176.878 52.552 177.337 52.744C177.796 52.9253 178.158 53.1867 178.425 53.528C178.702 53.8587 178.894 54.264 179.001 54.744C179.118 55.2133 179.177 55.7307 179.177 56.296V61H177.241V56.6C177.241 56.152 177.209 55.7733 177.145 55.464C177.092 55.144 176.996 54.888 176.857 54.696C176.729 54.4933 176.548 54.3493 176.313 54.264C176.089 54.168 175.812 54.12 175.481 54.12C175.236 54.12 174.98 54.136 174.713 54.168C174.446 54.2 174.249 54.2267 174.121 54.248V61H172.185V52.904ZM181.449 50.424L183.385 50.104V52.632H186.361V54.248H183.385V57.656C183.385 58.328 183.491 58.808 183.705 59.096C183.918 59.384 184.281 59.528 184.793 59.528C185.145 59.528 185.454 59.4907 185.721 59.416C185.998 59.3413 186.217 59.272 186.377 59.208L186.697 60.744C186.473 60.84 186.179 60.936 185.817 61.032C185.454 61.1387 185.027 61.192 184.536 61.192C183.939 61.192 183.438 61.112 183.033 60.952C182.638 60.792 182.323 60.5627 182.089 60.264C181.854 59.9547 181.689 59.5867 181.593 59.16C181.497 58.7227 181.449 58.2267 181.449 57.672V50.424ZM190.328 59.608C190.84 59.608 191.213 59.5493 191.448 59.432C191.683 59.304 191.8 59.0907 191.8 58.792C191.8 58.5147 191.672 58.2853 191.416 58.104C191.171 57.9227 190.76 57.7253 190.184 57.512C189.832 57.384 189.507 57.2507 189.208 57.112C188.92 56.9627 188.669 56.792 188.456 56.6C188.243 56.408 188.072 56.1787 187.944 55.912C187.827 55.6347 187.768 55.2987 187.768 54.904C187.768 54.136 188.051 53.5333 188.616 53.096C189.181 52.648 189.949 52.424 190.92 52.424C191.411 52.424 191.88 52.472 192.328 52.568C192.776 52.6533 193.112 52.7387 193.336 52.824L192.984 54.392C192.771 54.296 192.499 54.2107 192.168 54.136C191.837 54.0507 191.453 54.008 191.016 54.008C190.621 54.008 190.301 54.0773 190.056 54.216C189.811 54.344 189.688 54.5467 189.688 54.824C189.688 54.9627 189.709 55.0853 189.752 55.192C189.805 55.2987 189.891 55.4 190.008 55.496C190.125 55.5813 190.28 55.672 190.472 55.768C190.664 55.8533 190.899 55.944 191.176 56.04C191.635 56.2107 192.024 56.3813 192.344 56.552C192.664 56.712 192.925 56.8987 193.128 57.112C193.341 57.3147 193.496 57.5493 193.592 57.816C193.688 58.0827 193.736 58.4027 193.736 58.776C193.736 59.576 193.437 60.184 192.84 60.6C192.253 61.0053 191.411 61.208 190.312 61.208C189.576 61.208 188.984 61.144 188.536 61.016C188.088 60.8987 187.773 60.8027 187.592 60.728L187.928 59.112C188.216 59.2293 188.557 59.3413 188.952 59.448C189.357 59.5547 189.816 59.608 190.328 59.608ZM204.271 55.736C204.026 56.6747 203.759 57.592 203.471 58.488C203.194 59.3733 202.916 60.2107 202.639 61H201.055C200.842 60.5093 200.618 59.9493 200.383 59.32C200.148 58.6907 199.914 58.0187 199.679 57.304C199.444 56.5893 199.21 55.8373 198.975 55.048C198.74 54.2587 198.511 53.4533 198.287 52.632H200.335C200.431 53.08 200.543 53.5653 200.671 54.088C200.799 54.6 200.932 55.128 201.071 55.672C201.21 56.2053 201.354 56.728 201.503 57.24C201.652 57.752 201.802 58.2213 201.951 58.648C202.111 58.1573 202.266 57.6507 202.415 57.128C202.575 56.6053 202.724 56.0827 202.863 55.56C203.002 55.0373 203.13 54.5307 203.247 54.04C203.375 53.5387 203.487 53.0693 203.583 52.632H205.071C205.167 53.0693 205.274 53.5387 205.391 54.04C205.508 54.5307 205.631 55.0373 205.759 55.56C205.898 56.0827 206.042 56.6053 206.191 57.128C206.351 57.6507 206.511 58.1573 206.671 58.648C206.81 58.2213 206.954 57.752 207.103 57.24C207.252 56.728 207.396 56.2053 207.535 55.672C207.684 55.128 207.823 54.6 207.951 54.088C208.079 53.5653 208.191 53.08 208.287 52.632H210.287C210.063 53.4533 209.834 54.2587 209.599 55.048C209.364 55.8373 209.13 56.5893 208.895 57.304C208.66 58.0187 208.426 58.6907 208.191 59.32C207.956 59.9493 207.727 60.5093 207.503 61H205.935C205.658 60.2107 205.37 59.3733 205.071 58.488C204.783 57.592 204.516 56.6747 204.271 55.736ZM213.715 61H211.779V52.632H213.715V61ZM213.923 50.184C213.923 50.5467 213.806 50.8347 213.571 51.048C213.337 51.2613 213.059 51.368 212.739 51.368C212.409 51.368 212.126 51.2613 211.891 51.048C211.657 50.8347 211.539 50.5467 211.539 50.184C211.539 49.8107 211.657 49.5173 211.891 49.304C212.126 49.0907 212.409 48.984 212.739 48.984C213.059 48.984 213.337 49.0907 213.571 49.304C213.806 49.5173 213.923 49.8107 213.923 50.184ZM216.089 50.424L218.025 50.104V52.632H221.001V54.248H218.025V57.656C218.025 58.328 218.132 58.808 218.345 59.096C218.558 59.384 218.921 59.528 219.433 59.528C219.785 59.528 220.094 59.4907 220.361 59.416C220.638 59.3413 220.857 59.272 221.017 59.208L221.337 60.744C221.113 60.84 220.82 60.936 220.457 61.032C220.094 61.1387 219.668 61.192 219.177 61.192C218.58 61.192 218.078 61.112 217.673 60.952C217.278 60.792 216.964 60.5627 216.729 60.264C216.494 59.9547 216.329 59.5867 216.233 59.16C216.137 58.7227 216.089 58.2267 216.089 57.672V50.424ZM222.873 61V48.904L224.809 48.584V52.728C225.022 52.6533 225.267 52.5893 225.545 52.536C225.833 52.4827 226.115 52.456 226.393 52.456C227.065 52.456 227.619 52.552 228.057 52.744C228.505 52.9253 228.862 53.1867 229.129 53.528C229.395 53.8587 229.582 54.2587 229.689 54.728C229.806 55.1973 229.865 55.72 229.865 56.296V61H227.929V56.6C227.929 56.152 227.897 55.7733 227.833 55.464C227.779 55.144 227.683 54.888 227.545 54.696C227.417 54.4933 227.241 54.3493 227.017 54.264C226.793 54.168 226.515 54.12 226.185 54.12C225.929 54.12 225.667 54.1467 225.401 54.2C225.134 54.2533 224.937 54.3013 224.809 54.344V61H222.873ZM235.92 52.904C236.293 52.7973 236.778 52.696 237.376 52.6C237.973 52.504 238.634 52.456 239.36 52.456C240.042 52.456 240.613 52.552 241.072 52.744C241.53 52.9253 241.893 53.1867 242.16 53.528C242.437 53.8587 242.629 54.264 242.736 54.744C242.853 55.2133 242.911 55.7307 242.911 56.296V61H240.976V56.6C240.976 56.152 240.944 55.7733 240.88 55.464C240.826 55.144 240.73 54.888 240.592 54.696C240.464 54.4933 240.282 54.3493 240.048 54.264C239.824 54.168 239.546 54.12 239.216 54.12C238.97 54.12 238.714 54.136 238.448 54.168C238.181 54.2 237.984 54.2267 237.856 54.248V61H235.92V52.904ZM252.847 56.808C252.847 57.4693 252.751 58.072 252.559 58.616C252.367 59.16 252.095 59.624 251.743 60.008C251.391 60.392 250.964 60.6907 250.463 60.904C249.972 61.1173 249.428 61.224 248.831 61.224C248.234 61.224 247.69 61.1173 247.199 60.904C246.708 60.6907 246.287 60.392 245.935 60.008C245.583 59.624 245.306 59.16 245.103 58.616C244.911 58.072 244.815 57.4693 244.815 56.808C244.815 56.1467 244.911 55.5493 245.103 55.016C245.306 54.472 245.583 54.008 245.935 53.624C246.298 53.24 246.724 52.9467 247.215 52.744C247.706 52.5307 248.244 52.424 248.831 52.424C249.418 52.424 249.956 52.5307 250.447 52.744C250.948 52.9467 251.375 53.24 251.727 53.624C252.079 54.008 252.351 54.472 252.543 55.016C252.746 55.5493 252.847 56.1467 252.847 56.808ZM250.863 56.808C250.863 55.976 250.682 55.32 250.319 54.84C249.967 54.3493 249.471 54.104 248.831 54.104C248.191 54.104 247.69 54.3493 247.327 54.84C246.975 55.32 246.799 55.976 246.799 56.808C246.799 57.6507 246.975 58.3173 247.327 58.808C247.69 59.2987 248.191 59.544 248.831 59.544C249.471 59.544 249.967 59.2987 250.319 58.808C250.682 58.3173 250.863 57.6507 250.863 56.808ZM24.184 79H22.248V70.632H24.184V79ZM24.392 68.184C24.392 68.5467 24.2747 68.8347 24.04 69.048C23.8053 69.2613 23.528 69.368 23.208 69.368C22.8773 69.368 22.5947 69.2613 22.36 69.048C22.1253 68.8347 22.008 68.5467 22.008 68.184C22.008 67.8107 22.1253 67.5173 22.36 67.304C22.5947 67.0907 22.8773 66.984 23.208 66.984C23.528 66.984 23.8053 67.0907 24.04 67.304C24.2747 67.5173 24.392 67.8107 24.392 68.184ZM26.6539 70.904C27.0272 70.7973 27.5125 70.696 28.1099 70.6C28.7072 70.504 29.3685 70.456 30.0939 70.456C30.7765 70.456 31.3472 70.552 31.8059 70.744C32.2645 70.9253 32.6272 71.1867 32.8939 71.528C33.1712 71.8587 33.3632 72.264 33.4699 72.744C33.5872 73.2133 33.6459 73.7307 33.6459 74.296V79H31.7099V74.6C31.7099 74.152 31.6779 73.7733 31.6139 73.464C31.5605 73.144 31.4645 72.888 31.3259 72.696C31.1979 72.4933 31.0165 72.3493 30.7819 72.264C30.5579 72.168 30.2805 72.12 29.9499 72.12C29.7045 72.12 29.4485 72.136 29.1819 72.168C28.9152 72.2 28.7179 72.2267 28.5899 72.248V79H26.6539V70.904ZM35.9173 68.424L37.8533 68.104V70.632H40.8293V72.248H37.8533V75.656C37.8533 76.328 37.9599 76.808 38.1733 77.096C38.3866 77.384 38.7493 77.528 39.2613 77.528C39.6133 77.528 39.9226 77.4907 40.1893 77.416C40.4666 77.3413 40.6853 77.272 40.8453 77.208L41.1653 78.744C40.9413 78.84 40.6479 78.936 40.2853 79.032C39.9226 79.1387 39.4959 79.192 39.0052 79.192C38.4079 79.192 37.9066 79.112 37.5013 78.952C37.1066 78.792 36.7919 78.5627 36.5573 78.264C36.3226 77.9547 36.1573 77.5867 36.0613 77.16C35.9653 76.7227 35.9173 76.2267 35.9173 75.672V68.424ZM42.0961 74.856C42.0961 74.12 42.2028 73.4747 42.4161 72.92C42.6401 72.3653 42.9335 71.9067 43.2961 71.544C43.6588 71.1707 44.0748 70.8933 44.5441 70.712C45.0135 70.52 45.4935 70.424 45.9841 70.424C47.1361 70.424 48.0321 70.7813 48.6721 71.496C49.3228 72.2107 49.6481 73.2773 49.6481 74.696C49.6481 74.8027 49.6428 74.9253 49.6321 75.064C49.6321 75.192 49.6268 75.3093 49.6161 75.416H44.0961C44.1495 76.088 44.3841 76.6107 44.8001 76.984C45.2268 77.3467 45.8401 77.528 46.6401 77.528C47.1095 77.528 47.5361 77.4853 47.9201 77.4C48.3148 77.3147 48.6241 77.224 48.8481 77.128L49.1041 78.712C48.9975 78.7653 48.8481 78.824 48.6561 78.888C48.4748 78.9413 48.2615 78.9893 48.0161 79.032C47.7815 79.0853 47.5255 79.128 47.2481 79.16C46.9708 79.192 46.6881 79.208 46.4001 79.208C45.6641 79.208 45.0241 79.1013 44.4801 78.888C43.9361 78.664 43.4881 78.36 43.1361 77.976C42.7841 77.5813 42.5228 77.1227 42.3521 76.6C42.1815 76.0667 42.0961 75.4853 42.0961 74.856ZM47.7121 73.992C47.7121 73.7253 47.6748 73.4747 47.6001 73.24C47.5255 72.9947 47.4135 72.7867 47.2641 72.616C47.1255 72.4347 46.9495 72.296 46.7361 72.2C46.5335 72.0933 46.2881 72.04 46.0001 72.04C45.7015 72.04 45.4401 72.0987 45.2161 72.216C44.9921 72.3227 44.8001 72.4667 44.6401 72.648C44.4908 72.8293 44.3735 73.0373 44.2881 73.272C44.2028 73.5067 44.1441 73.7467 44.1121 73.992H47.7121ZM56.4688 72.376C56.3088 72.3227 56.0848 72.2693 55.7968 72.216C55.5194 72.152 55.1941 72.12 54.8208 72.12C54.6074 72.12 54.3781 72.1413 54.1328 72.184C53.8981 72.2267 53.7328 72.264 53.6368 72.296V79H51.7008V71.032C52.0741 70.8933 52.5381 70.7653 53.0928 70.648C53.6581 70.52 54.2821 70.456 54.9648 70.456C55.0928 70.456 55.2421 70.4667 55.4128 70.488C55.5834 70.4987 55.7541 70.52 55.9248 70.552C56.0954 70.5733 56.2608 70.6053 56.4208 70.648C56.5808 70.68 56.7088 70.712 56.8048 70.744L56.4688 72.376ZM57.6899 74.856C57.6899 74.12 57.7965 73.4747 58.0099 72.92C58.2339 72.3653 58.5272 71.9067 58.8899 71.544C59.2525 71.1707 59.6685 70.8933 60.1379 70.712C60.6072 70.52 61.0872 70.424 61.5779 70.424C62.7299 70.424 63.6259 70.7813 64.2659 71.496C64.9165 72.2107 65.2419 73.2773 65.2419 74.696C65.2419 74.8027 65.2365 74.9253 65.2259 75.064C65.2259 75.192 65.2205 75.3093 65.2099 75.416H59.6899C59.7432 76.088 59.9779 76.6107 60.3939 76.984C60.8205 77.3467 61.4339 77.528 62.2339 77.528C62.7032 77.528 63.1299 77.4853 63.5139 77.4C63.9085 77.3147 64.2179 77.224 64.4419 77.128L64.6979 78.712C64.5912 78.7653 64.4419 78.824 64.2499 78.888C64.0685 78.9413 63.8552 78.9893 63.6099 79.032C63.3752 79.0853 63.1192 79.128 62.8419 79.16C62.5645 79.192 62.2819 79.208 61.9939 79.208C61.2579 79.208 60.6179 79.1013 60.0739 78.888C59.5299 78.664 59.0819 78.36 58.7299 77.976C58.3779 77.5813 58.1165 77.1227 57.9459 76.6C57.7752 76.0667 57.6899 75.4853 57.6899 74.856ZM63.3059 73.992C63.3059 73.7253 63.2685 73.4747 63.1939 73.24C63.1192 72.9947 63.0072 72.7867 62.8579 72.616C62.7192 72.4347 62.5432 72.296 62.3299 72.2C62.1272 72.0933 61.8819 72.04 61.5939 72.04C61.2952 72.04 61.0339 72.0987 60.8099 72.216C60.5859 72.3227 60.3939 72.4667 60.2339 72.648C60.0845 72.8293 59.9672 73.0373 59.8819 73.272C59.7965 73.5067 59.7379 73.7467 59.7059 73.992H63.3059ZM69.3905 77.608C69.9025 77.608 70.2758 77.5493 70.5105 77.432C70.7452 77.304 70.8625 77.0907 70.8625 76.792C70.8625 76.5147 70.7345 76.2853 70.4785 76.104C70.2332 75.9227 69.8225 75.7253 69.2465 75.512C68.8945 75.384 68.5692 75.2507 68.2705 75.112C67.9825 74.9627 67.7318 74.792 67.5185 74.6C67.3052 74.408 67.1345 74.1787 67.0065 73.912C66.8892 73.6347 66.8305 73.2987 66.8305 72.904C66.8305 72.136 67.1132 71.5333 67.6785 71.096C68.2438 70.648 69.0118 70.424 69.9825 70.424C70.4732 70.424 70.9425 70.472 71.3905 70.568C71.8385 70.6533 72.1745 70.7387 72.3985 70.824L72.0465 72.392C71.8332 72.296 71.5612 72.2107 71.2305 72.136C70.8998 72.0507 70.5158 72.008 70.0785 72.008C69.6838 72.008 69.3638 72.0773 69.1185 72.216C68.8732 72.344 68.7505 72.5467 68.7505 72.824C68.7505 72.9627 68.7718 73.0853 68.8145 73.192C68.8678 73.2987 68.9532 73.4 69.0705 73.496C69.1878 73.5813 69.3425 73.672 69.5345 73.768C69.7265 73.8533 69.9612 73.944 70.2385 74.04C70.6972 74.2107 71.0865 74.3813 71.4065 74.552C71.7265 74.712 71.9878 74.8987 72.1905 75.112C72.4038 75.3147 72.5585 75.5493 72.6545 75.816C72.7505 76.0827 72.7985 76.4027 72.7985 76.776C72.7985 77.576 72.4998 78.184 71.9025 78.6C71.3158 79.0053 70.4732 79.208 69.3745 79.208C68.6385 79.208 68.0465 79.144 67.5985 79.016C67.1505 78.8987 66.8358 78.8027 66.6545 78.728L66.9905 77.112C67.2785 77.2293 67.6198 77.3413 68.0145 77.448C68.4198 77.5547 68.8785 77.608 69.3905 77.608ZM74.511 68.424L76.447 68.104V70.632H79.423V72.248H76.447V75.656C76.447 76.328 76.5537 76.808 76.767 77.096C76.9803 77.384 77.343 77.528 77.855 77.528C78.207 77.528 78.5163 77.4907 78.783 77.416C79.0603 77.3413 79.279 77.272 79.439 77.208L79.759 78.744C79.535 78.84 79.2417 78.936 78.879 79.032C78.5163 79.1387 78.0897 79.192 77.599 79.192C77.0017 79.192 76.5003 79.112 76.095 78.952C75.7003 78.792 75.3857 78.5627 75.151 78.264C74.9163 77.9547 74.751 77.5867 74.655 77.16C74.559 76.7227 74.511 76.2267 74.511 75.672V68.424ZM83.6111 77.944C83.6111 78.3173 83.4831 78.6213 83.2271 78.856C82.9818 79.0907 82.6831 79.208 82.3311 79.208C81.9685 79.208 81.6645 79.0907 81.4191 78.856C81.1738 78.6213 81.0511 78.3173 81.0511 77.944C81.0511 77.5707 81.1738 77.2667 81.4191 77.032C81.6645 76.7867 81.9685 76.664 82.3311 76.664C82.6831 76.664 82.9818 76.7867 83.2271 77.032C83.4831 77.2667 83.6111 77.5707 83.6111 77.944Z" fill="#484751"/>
</g>
<defs>
<filter id="filter0_d" x="0" y="0" width="303" height="117" filterUnits="userSpaceOnUse" color-interpolation-filters="sRGB">
<feFlood flood-opacity="0" result="BackgroundImageFix"/>
<feColorMatrix in="SourceAlpha" type="matrix" values="0 0 0 0 0 0 0 0 0 0 0 0 0 0 0 0 0 0 127 0" result="hardAlpha"/>
<feOffset dy="2"/>
<feGaussianBlur stdDeviation="1"/>
<feColorMatrix type="matrix" values="0 0 0 0 0 0 0 0 0 0 0 0 0 0 0 0 0 0 0.2 0"/>
<feBlend mode="normal" in2="BackgroundImageFix" result="effect1_dropShadow"/>
<feBlend mode="normal" in="SourceGraphic" in2="effect1_dropShadow" result="shape"/>
</filter>
</defs>
</svg>
