<svg width="340" height="56" viewBox="0 0 340 56" fill="none" xmlns="http://www.w3.org/2000/svg">
<g filter="url(#filter0_d)">
<path fill-rule="evenodd" clip-rule="evenodd" d="M19 33C10.1634 33 3 25.8366 3 17C3 8.16344 10.1635 1 19 1H310C318.837 1 326 8.16344 326 17C326 25.8366 318.837 33 310 33H91.141C91.094 33.379 90.7236 34.0269 90.2186 34.9103C88.4844 37.9441 85.1621 43.7563 87.8912 51C84.6403 49.872 78.7874 44.0979 75.0574 33H19Z" fill="white"/>
<path d="M91.141 33V32C90.6363 32 90.2107 32.3761 90.1486 32.877L91.141 33ZM90.2186 34.9103L91.0868 35.4066L90.2186 34.9103ZM87.8912 51L87.5634 51.9447C87.9299 52.0719 88.3369 51.9756 88.6075 51.6977C88.8782 51.4198 88.9638 51.0105 88.827 50.6474L87.8912 51ZM75.0574 33L76.0053 32.6814C75.8685 32.2743 75.4869 32 75.0574 32V33ZM2 17C2 26.3888 9.61116 34 19 34V32C10.7157 32 4 25.2843 4 17H2ZM19 0C9.61117 0 2 7.61116 2 17H4C4 8.71573 10.7157 2 19 2V0ZM310 0H19V2H310V0ZM327 17C327 7.61116 319.389 0 310 0V2C318.284 2 325 8.71573 325 17H327ZM310 34C319.389 34 327 26.3888 327 17H325C325 25.2843 318.284 32 310 32V34ZM91.141 34H310V32H91.141V34ZM91.0868 35.4066C91.3348 34.9727 91.5683 34.5648 91.7441 34.217C91.9047 33.8991 92.0862 33.5033 92.1334 33.123L90.1486 32.877C90.1487 32.8757 90.1216 32.9933 89.959 33.315C89.8116 33.6067 89.6075 33.9645 89.3505 34.4141L91.0868 35.4066ZM88.827 50.6474C86.2759 43.8762 89.3515 38.4424 91.0868 35.4066L89.3505 34.4141C87.6174 37.4459 84.0483 43.6364 86.9554 51.3526L88.827 50.6474ZM74.1095 33.3186C76.0076 38.9659 78.4551 43.2872 80.8677 46.3567C83.2569 49.3963 85.6782 51.2906 87.5634 51.9447L88.219 50.0553C86.8532 49.5814 84.7227 48.0247 82.4401 45.1207C80.1811 42.2467 77.8372 38.132 76.0053 32.6814L74.1095 33.3186ZM19 34H75.0574V32H19V34Z" fill="#484751"/>
<path d="M23.514 20.684C24.1487 20.684 24.6107 20.5767 24.9 20.362C25.1893 20.1473 25.334 19.844 25.334 19.452C25.334 19.2187 25.2827 19.018 25.18 18.85C25.0867 18.682 24.9467 18.5327 24.76 18.402C24.5827 18.262 24.3633 18.136 24.102 18.024C23.8407 17.9027 23.542 17.786 23.206 17.674C22.87 17.5527 22.5433 17.422 22.226 17.282C21.918 17.1327 21.6427 16.9507 21.4 16.736C21.1667 16.5213 20.9753 16.2647 20.826 15.966C20.686 15.6673 20.616 15.308 20.616 14.888C20.616 14.0107 20.9193 13.3247 21.526 12.83C22.1327 12.326 22.9587 12.074 24.004 12.074C24.6107 12.074 25.1473 12.144 25.614 12.284C26.09 12.4147 26.4633 12.5593 26.734 12.718L26.188 14.146C25.8707 13.9687 25.5207 13.8333 25.138 13.74C24.7647 13.6467 24.3773 13.6 23.976 13.6C23.5 13.6 23.1267 13.698 22.856 13.894C22.5947 14.09 22.464 14.3653 22.464 14.72C22.464 14.9347 22.506 15.1213 22.59 15.28C22.6833 15.4293 22.8093 15.5647 22.968 15.686C23.136 15.8073 23.3273 15.9193 23.542 16.022C23.766 16.1247 24.0087 16.2227 24.27 16.316C24.7273 16.484 25.1333 16.6567 25.488 16.834C25.852 17.002 26.1553 17.2073 26.398 17.45C26.65 17.6833 26.8413 17.9633 26.972 18.29C27.1027 18.6073 27.168 18.9947 27.168 19.452C27.168 20.3293 26.8553 21.0107 26.23 21.496C25.614 21.972 24.7087 22.21 23.514 22.21C23.1127 22.21 22.744 22.182 22.408 22.126C22.0813 22.0793 21.7873 22.0187 21.526 21.944C21.274 21.8693 21.0547 21.7947 20.868 21.72C20.6813 21.636 20.532 21.5613 20.42 21.496L20.938 20.054C21.19 20.194 21.5307 20.334 21.96 20.474C22.3893 20.614 22.9073 20.684 23.514 20.684ZM30.3465 22H28.6525V14.678H30.3465V22ZM30.5285 12.536C30.5285 12.8533 30.4259 13.1053 30.2205 13.292C30.0152 13.4787 29.7725 13.572 29.4925 13.572C29.2032 13.572 28.9559 13.4787 28.7505 13.292C28.5452 13.1053 28.4425 12.8533 28.4425 12.536C28.4425 12.2093 28.5452 11.9527 28.7505 11.766C28.9559 11.5793 29.2032 11.486 29.4925 11.486C29.7725 11.486 30.0152 11.5793 30.2205 11.766C30.4259 11.9527 30.5285 12.2093 30.5285 12.536ZM33.8377 18.15C33.8377 18.8687 33.9917 19.396 34.2997 19.732C34.617 20.0587 35.023 20.222 35.5177 20.222C35.7884 20.222 36.0404 20.1847 36.2737 20.11C36.5164 20.0353 36.7124 19.9467 36.8617 19.844V16.05C36.7404 16.022 36.591 15.9987 36.4137 15.98C36.2364 15.952 36.0124 15.938 35.7417 15.938C35.1257 15.938 34.6544 16.1433 34.3277 16.554C34.001 16.9553 33.8377 17.4873 33.8377 18.15ZM38.5557 21.258C38.5557 22.4247 38.257 23.2787 37.6597 23.82C37.0717 24.3613 36.1664 24.632 34.9437 24.632C34.4957 24.632 34.057 24.5947 33.6277 24.52C33.2077 24.4453 32.825 24.3473 32.4797 24.226L32.7877 22.784C33.077 22.9053 33.4037 23.0033 33.7677 23.078C34.141 23.1527 34.5424 23.19 34.9717 23.19C35.653 23.19 36.1384 23.05 36.4277 22.77C36.717 22.49 36.8617 22.0747 36.8617 21.524V21.244C36.6937 21.328 36.4697 21.412 36.1897 21.496C35.919 21.58 35.6064 21.622 35.2517 21.622C34.785 21.622 34.3557 21.5473 33.9637 21.398C33.581 21.2487 33.2497 21.0293 32.9697 20.74C32.699 20.4507 32.4844 20.0913 32.3257 19.662C32.1764 19.2233 32.1017 18.7193 32.1017 18.15C32.1017 17.618 32.181 17.128 32.3397 16.68C32.5077 16.232 32.7457 15.8493 33.0537 15.532C33.371 15.2147 33.7537 14.9673 34.2017 14.79C34.6497 14.6127 35.1584 14.524 35.7277 14.524C36.2784 14.524 36.801 14.566 37.2957 14.65C37.7904 14.734 38.2104 14.8227 38.5557 14.916V21.258ZM40.7108 14.916C41.0375 14.8227 41.4621 14.734 41.9848 14.65C42.5075 14.566 43.0861 14.524 43.7208 14.524C44.3181 14.524 44.8175 14.608 45.2188 14.776C45.6201 14.9347 45.9375 15.1633 46.1708 15.462C46.4135 15.7513 46.5815 16.106 46.6748 16.526C46.7775 16.9367 46.8288 17.3893 46.8288 17.884V22H45.1348V18.15C45.1348 17.758 45.1068 17.4267 45.0508 17.156C45.0041 16.876 44.9201 16.652 44.7988 16.484C44.6868 16.3067 44.5281 16.1807 44.3228 16.106C44.1268 16.022 43.8841 15.98 43.5948 15.98C43.3801 15.98 43.1561 15.994 42.9228 16.022C42.6895 16.05 42.5168 16.0733 42.4048 16.092V22H40.7108V14.916ZM58.1738 21.776C57.8472 21.86 57.4225 21.944 56.8998 22.028C56.3772 22.1213 55.8032 22.168 55.1778 22.168C54.5898 22.168 54.0952 22.084 53.6938 21.916C53.3018 21.748 52.9845 21.5147 52.7418 21.216C52.5085 20.9173 52.3405 20.5627 52.2378 20.152C52.1352 19.732 52.0838 19.2747 52.0838 18.78V14.678H53.7778V18.514C53.7778 19.298 53.8898 19.858 54.1138 20.194C54.3472 20.53 54.7485 20.698 55.3178 20.698C55.5232 20.698 55.7378 20.6887 55.9618 20.67C56.1952 20.6513 56.3678 20.628 56.4798 20.6V14.678H58.1738V21.776ZM65.188 18.374C65.188 17.618 65.0153 17.03 64.67 16.61C64.334 16.19 63.788 15.98 63.032 15.98C62.8733 15.98 62.7053 15.9893 62.528 16.008C62.36 16.0173 62.192 16.0453 62.024 16.092V20.278C62.1733 20.3807 62.3693 20.4787 62.612 20.572C62.864 20.656 63.13 20.698 63.41 20.698C64.026 20.698 64.474 20.488 64.754 20.068C65.0433 19.648 65.188 19.0833 65.188 18.374ZM66.924 18.346C66.924 18.906 66.8493 19.4193 66.7 19.886C66.56 20.3527 66.3546 20.754 66.084 21.09C65.8133 21.426 65.4726 21.6873 65.062 21.874C64.6606 22.0607 64.2033 22.154 63.69 22.154C63.3446 22.154 63.0273 22.112 62.738 22.028C62.4486 21.944 62.2106 21.8507 62.024 21.748V24.59H60.33V14.916C60.6753 14.8227 61.1 14.734 61.604 14.65C62.108 14.566 62.64 14.524 63.2 14.524C63.7786 14.524 64.2966 14.6127 64.754 14.79C65.2113 14.9673 65.5986 15.224 65.916 15.56C66.2426 15.8867 66.49 16.288 66.658 16.764C66.8353 17.2307 66.924 17.758 66.924 18.346ZM71.8534 12.746L73.5474 12.466V14.678H76.1514V16.092H73.5474V19.074C73.5474 19.662 73.6407 20.082 73.8274 20.334C74.014 20.586 74.3314 20.712 74.7794 20.712C75.0874 20.712 75.358 20.6793 75.5914 20.614C75.834 20.5487 76.0254 20.488 76.1654 20.432L76.4454 21.776C76.2494 21.86 75.9927 21.944 75.6754 22.028C75.358 22.1213 74.9847 22.168 74.5554 22.168C74.0327 22.168 73.594 22.098 73.2394 21.958C72.894 21.818 72.6187 21.6173 72.4134 21.356C72.208 21.0853 72.0634 20.7633 71.9794 20.39C71.8954 20.0073 71.8534 19.5733 71.8534 19.088V12.746ZM84.2469 18.332C84.2469 18.9107 84.1629 19.438 83.9949 19.914C83.8269 20.39 83.5889 20.796 83.2809 21.132C82.9729 21.468 82.5995 21.7293 82.1609 21.916C81.7315 22.1027 81.2555 22.196 80.7329 22.196C80.2102 22.196 79.7342 22.1027 79.3049 21.916C78.8755 21.7293 78.5069 21.468 78.1989 21.132C77.8909 20.796 77.6482 20.39 77.4709 19.914C77.3029 19.438 77.2189 18.9107 77.2189 18.332C77.2189 17.7533 77.3029 17.2307 77.4709 16.764C77.6482 16.288 77.8909 15.882 78.1989 15.546C78.5162 15.21 78.8895 14.9533 79.3189 14.776C79.7482 14.5893 80.2195 14.496 80.7329 14.496C81.2462 14.496 81.7175 14.5893 82.1469 14.776C82.5855 14.9533 82.9589 15.21 83.2669 15.546C83.5749 15.882 83.8129 16.288 83.9809 16.764C84.1582 17.2307 84.2469 17.7533 84.2469 18.332ZM82.5109 18.332C82.5109 17.604 82.3522 17.03 82.0349 16.61C81.7269 16.1807 81.2929 15.966 80.7329 15.966C80.1729 15.966 79.7342 16.1807 79.4169 16.61C79.1089 17.03 78.9549 17.604 78.9549 18.332C78.9549 19.0693 79.1089 19.6527 79.4169 20.082C79.7342 20.5113 80.1729 20.726 80.7329 20.726C81.2929 20.726 81.7269 20.5113 82.0349 20.082C82.3522 19.6527 82.5109 19.0693 82.5109 18.332ZM87.3221 18.318C87.3221 19.0647 87.4994 19.6527 87.8541 20.082C88.2087 20.502 88.6987 20.712 89.3241 20.712C89.5947 20.712 89.8234 20.7027 90.0101 20.684C90.2061 20.656 90.3647 20.628 90.4861 20.6V16.4C90.3367 16.2973 90.1361 16.204 89.8841 16.12C89.6414 16.0267 89.3801 15.98 89.1001 15.98C88.4841 15.98 88.0314 16.19 87.7421 16.61C87.4621 17.03 87.3221 17.5993 87.3221 18.318ZM92.1801 21.776C91.8441 21.8787 91.4194 21.972 90.9061 22.056C90.4021 22.14 89.8701 22.182 89.3101 22.182C88.7314 22.182 88.2134 22.0933 87.7561 21.916C87.2987 21.7387 86.9067 21.4867 86.5801 21.16C86.2627 20.824 86.0154 20.4227 85.8381 19.956C85.6701 19.48 85.5861 18.948 85.5861 18.36C85.5861 17.7813 85.6561 17.2587 85.7961 16.792C85.9454 16.316 86.1601 15.91 86.4401 15.574C86.7201 15.238 87.0607 14.9813 87.4621 14.804C87.8634 14.6173 88.3254 14.524 88.8481 14.524C89.2027 14.524 89.5154 14.566 89.7861 14.65C90.0567 14.734 90.2901 14.8273 90.4861 14.93V11.416L92.1801 11.136V21.776ZM96.9079 20.81C97.4306 20.81 97.8272 20.782 98.0979 20.726V18.85C98.0046 18.822 97.8692 18.794 97.6919 18.766C97.5146 18.738 97.3186 18.724 97.1039 18.724C96.9172 18.724 96.7259 18.738 96.5299 18.766C96.3432 18.794 96.1706 18.8453 96.0119 18.92C95.8626 18.9947 95.7412 19.102 95.6479 19.242C95.5546 19.3727 95.5079 19.5407 95.5079 19.746C95.5079 20.1473 95.6339 20.4273 95.8859 20.586C96.1379 20.7353 96.4786 20.81 96.9079 20.81ZM96.7679 14.496C97.3279 14.496 97.7992 14.566 98.1819 14.706C98.5646 14.846 98.8679 15.042 99.0919 15.294C99.3252 15.546 99.4886 15.854 99.5819 16.218C99.6846 16.5727 99.7359 16.9647 99.7359 17.394V21.832C99.4746 21.888 99.0779 21.9533 98.5459 22.028C98.0232 22.112 97.4306 22.154 96.7679 22.154C96.3292 22.154 95.9279 22.112 95.5639 22.028C95.1999 21.944 94.8872 21.8087 94.6259 21.622C94.3739 21.4353 94.1732 21.1927 94.0239 20.894C93.8839 20.5953 93.8139 20.2267 93.8139 19.788C93.8139 19.368 93.8932 19.0133 94.0519 18.724C94.2199 18.4347 94.4439 18.2013 94.7239 18.024C95.0039 17.8373 95.3259 17.7067 95.6899 17.632C96.0632 17.548 96.4506 17.506 96.8519 17.506C97.0386 17.506 97.2346 17.52 97.4399 17.548C97.6452 17.5667 97.8646 17.604 98.0979 17.66V17.38C98.0979 17.184 98.0746 16.9973 98.0279 16.82C97.9812 16.6427 97.8972 16.4887 97.7759 16.358C97.6639 16.218 97.5099 16.1107 97.3139 16.036C97.1272 15.9613 96.8892 15.924 96.5999 15.924C96.2079 15.924 95.8486 15.952 95.5219 16.008C95.1952 16.064 94.9292 16.1293 94.7239 16.204L94.5139 14.832C94.7286 14.7573 95.0412 14.6827 95.4519 14.608C95.8626 14.5333 96.3012 14.496 96.7679 14.496ZM107.611 14.678C106.855 17.4593 105.977 19.9793 104.979 22.238C104.792 22.658 104.601 23.0173 104.405 23.316C104.209 23.6147 103.989 23.862 103.747 24.058C103.504 24.254 103.233 24.394 102.935 24.478C102.636 24.5713 102.291 24.618 101.899 24.618C101.637 24.618 101.376 24.59 101.115 24.534C100.863 24.478 100.671 24.4173 100.541 24.352L100.849 22.994C101.185 23.1247 101.516 23.19 101.843 23.19C102.281 23.19 102.622 23.0827 102.865 22.868C103.117 22.6627 103.336 22.3407 103.523 21.902C102.991 20.8753 102.477 19.7553 101.983 18.542C101.497 17.3287 101.063 16.0407 100.681 14.678H102.487C102.58 15.07 102.692 15.4947 102.823 15.952C102.963 16.4093 103.112 16.876 103.271 17.352C103.429 17.8187 103.597 18.2853 103.775 18.752C103.952 19.2187 104.129 19.6527 104.307 20.054C104.605 19.2233 104.885 18.3413 105.147 17.408C105.408 16.4653 105.646 15.5553 105.861 14.678H107.611ZM111.404 17.226H115.17V18.78H111.404V17.226ZM119.76 12.746L121.454 12.466V14.678H124.058V16.092H121.454V19.074C121.454 19.662 121.547 20.082 121.734 20.334C121.92 20.586 122.238 20.712 122.686 20.712C122.994 20.712 123.264 20.6793 123.498 20.614C123.74 20.5487 123.932 20.488 124.072 20.432L124.352 21.776C124.156 21.86 123.899 21.944 123.582 22.028C123.264 22.1213 122.891 22.168 122.462 22.168C121.939 22.168 121.5 22.098 121.146 21.958C120.8 21.818 120.525 21.6173 120.32 21.356C120.114 21.0853 119.97 20.7633 119.886 20.39C119.802 20.0073 119.76 19.5733 119.76 19.088V12.746ZM125.695 22V11.416L127.389 11.136V14.762C127.576 14.6967 127.791 14.6407 128.033 14.594C128.285 14.5473 128.533 14.524 128.775 14.524C129.363 14.524 129.849 14.608 130.231 14.776C130.623 14.9347 130.936 15.1633 131.169 15.462C131.403 15.7513 131.566 16.1013 131.659 16.512C131.762 16.9227 131.813 17.38 131.813 17.884V22H130.119V18.15C130.119 17.758 130.091 17.4267 130.035 17.156C129.989 16.876 129.905 16.652 129.783 16.484C129.671 16.3067 129.517 16.1807 129.321 16.106C129.125 16.022 128.883 15.98 128.593 15.98C128.369 15.98 128.141 16.0033 127.907 16.05C127.674 16.0967 127.501 16.1387 127.389 16.176V22H125.695ZM133.438 18.374C133.438 17.73 133.531 17.1653 133.718 16.68C133.914 16.1947 134.17 15.7933 134.488 15.476C134.805 15.1493 135.169 14.9067 135.58 14.748C135.99 14.58 136.41 14.496 136.84 14.496C137.848 14.496 138.632 14.8087 139.192 15.434C139.761 16.0593 140.046 16.9927 140.046 18.234C140.046 18.3273 140.041 18.4347 140.032 18.556C140.032 18.668 140.027 18.7707 140.018 18.864H135.188C135.234 19.452 135.44 19.9093 135.804 20.236C136.177 20.5533 136.714 20.712 137.414 20.712C137.824 20.712 138.198 20.6747 138.534 20.6C138.879 20.5253 139.15 20.446 139.346 20.362L139.57 21.748C139.476 21.7947 139.346 21.846 139.178 21.902C139.019 21.9487 138.832 21.9907 138.618 22.028C138.412 22.0747 138.188 22.112 137.946 22.14C137.703 22.168 137.456 22.182 137.204 22.182C136.56 22.182 136 22.0887 135.524 21.902C135.048 21.706 134.656 21.44 134.348 21.104C134.04 20.7587 133.811 20.3573 133.662 19.9C133.512 19.4333 133.438 18.9247 133.438 18.374ZM138.352 17.618C138.352 17.3847 138.319 17.1653 138.254 16.96C138.188 16.7453 138.09 16.5633 137.96 16.414C137.838 16.2553 137.684 16.134 137.498 16.05C137.32 15.9567 137.106 15.91 136.854 15.91C136.592 15.91 136.364 15.9613 136.168 16.064C135.972 16.1573 135.804 16.2833 135.664 16.442C135.533 16.6007 135.43 16.7827 135.356 16.988C135.281 17.1933 135.23 17.4033 135.202 17.618H138.352ZM146.014 16.204C145.874 16.1573 145.678 16.1107 145.426 16.064C145.183 16.008 144.898 15.98 144.572 15.98C144.385 15.98 144.184 15.9987 143.97 16.036C143.764 16.0733 143.62 16.106 143.536 16.134V22H141.842V15.028C142.168 14.9067 142.574 14.7947 143.06 14.692C143.554 14.58 144.1 14.524 144.698 14.524C144.81 14.524 144.94 14.5333 145.09 14.552C145.239 14.5613 145.388 14.58 145.538 14.608C145.687 14.6267 145.832 14.6547 145.972 14.692C146.112 14.72 146.224 14.748 146.308 14.776L146.014 16.204ZM147.082 18.374C147.082 17.73 147.175 17.1653 147.362 16.68C147.558 16.1947 147.815 15.7933 148.132 15.476C148.449 15.1493 148.813 14.9067 149.224 14.748C149.635 14.58 150.055 14.496 150.484 14.496C151.492 14.496 152.276 14.8087 152.836 15.434C153.405 16.0593 153.69 16.9927 153.69 18.234C153.69 18.3273 153.685 18.4347 153.676 18.556C153.676 18.668 153.671 18.7707 153.662 18.864H148.832C148.879 19.452 149.084 19.9093 149.448 20.236C149.821 20.5533 150.358 20.712 151.058 20.712C151.469 20.712 151.842 20.6747 152.178 20.6C152.523 20.5253 152.794 20.446 152.99 20.362L153.214 21.748C153.121 21.7947 152.99 21.846 152.822 21.902C152.663 21.9487 152.477 21.9907 152.262 22.028C152.057 22.0747 151.833 22.112 151.59 22.14C151.347 22.168 151.1 22.182 150.848 22.182C150.204 22.182 149.644 22.0887 149.168 21.902C148.692 21.706 148.3 21.44 147.992 21.104C147.684 20.7587 147.455 20.3573 147.306 19.9C147.157 19.4333 147.082 18.9247 147.082 18.374ZM151.996 17.618C151.996 17.3847 151.963 17.1653 151.898 16.96C151.833 16.7453 151.735 16.5633 151.604 16.414C151.483 16.2553 151.329 16.134 151.142 16.05C150.965 15.9567 150.75 15.91 150.498 15.91C150.237 15.91 150.008 15.9613 149.812 16.064C149.616 16.1573 149.448 16.2833 149.308 16.442C149.177 16.6007 149.075 16.7827 149 16.988C148.925 17.1933 148.874 17.4033 148.846 17.618H151.996ZM160.462 22H158.768V14.678H160.462V22ZM160.644 12.536C160.644 12.8533 160.541 13.1053 160.336 13.292C160.13 13.4787 159.888 13.572 159.608 13.572C159.318 13.572 159.071 13.4787 158.866 13.292C158.66 13.1053 158.558 12.8533 158.558 12.536C158.558 12.2093 158.66 11.9527 158.866 11.766C159.071 11.5793 159.318 11.486 159.608 11.486C159.888 11.486 160.13 11.5793 160.336 11.766C160.541 11.9527 160.644 12.2093 160.644 12.536ZM164.457 20.782C164.905 20.782 165.232 20.7307 165.437 20.628C165.642 20.516 165.745 20.3293 165.745 20.068C165.745 19.8253 165.633 19.6247 165.409 19.466C165.194 19.3073 164.835 19.1347 164.331 18.948C164.023 18.836 163.738 18.7193 163.477 18.598C163.225 18.4673 163.006 18.318 162.819 18.15C162.632 17.982 162.483 17.7813 162.371 17.548C162.268 17.3053 162.217 17.0113 162.217 16.666C162.217 15.994 162.464 15.4667 162.959 15.084C163.454 14.692 164.126 14.496 164.975 14.496C165.404 14.496 165.815 14.538 166.207 14.622C166.599 14.6967 166.893 14.7713 167.089 14.846L166.781 16.218C166.594 16.134 166.356 16.0593 166.067 15.994C165.778 15.9193 165.442 15.882 165.059 15.882C164.714 15.882 164.434 15.9427 164.219 16.064C164.004 16.176 163.897 16.3533 163.897 16.596C163.897 16.7173 163.916 16.8247 163.953 16.918C164 17.0113 164.074 17.1 164.177 17.184C164.28 17.2587 164.415 17.338 164.583 17.422C164.751 17.4967 164.956 17.576 165.199 17.66C165.6 17.8093 165.941 17.9587 166.221 18.108C166.501 18.248 166.73 18.4113 166.907 18.598C167.094 18.7753 167.229 18.9807 167.313 19.214C167.397 19.4473 167.439 19.7273 167.439 20.054C167.439 20.754 167.178 21.286 166.655 21.65C166.142 22.0047 165.404 22.182 164.443 22.182C163.799 22.182 163.281 22.126 162.889 22.014C162.497 21.9113 162.222 21.8273 162.063 21.762L162.357 20.348C162.609 20.4507 162.908 20.5487 163.253 20.642C163.608 20.7353 164.009 20.782 164.457 20.782ZM172.289 14.916C172.616 14.8227 173.04 14.734 173.563 14.65C174.086 14.566 174.664 14.524 175.299 14.524C175.896 14.524 176.396 14.608 176.797 14.776C177.198 14.9347 177.516 15.1633 177.749 15.462C177.992 15.7513 178.16 16.106 178.253 16.526C178.356 16.9367 178.407 17.3893 178.407 17.884V22H176.713V18.15C176.713 17.758 176.685 17.4267 176.629 17.156C176.582 16.876 176.498 16.652 176.377 16.484C176.265 16.3067 176.106 16.1807 175.901 16.106C175.705 16.022 175.462 15.98 175.173 15.98C174.958 15.98 174.734 15.994 174.501 16.022C174.268 16.05 174.095 16.0733 173.983 16.092V22H172.289V14.916ZM187.1 18.332C187.1 18.9107 187.016 19.438 186.848 19.914C186.68 20.39 186.442 20.796 186.134 21.132C185.826 21.468 185.453 21.7293 185.014 21.916C184.585 22.1027 184.109 22.196 183.586 22.196C183.064 22.196 182.588 22.1027 182.158 21.916C181.729 21.7293 181.36 21.468 181.052 21.132C180.744 20.796 180.502 20.39 180.324 19.914C180.156 19.438 180.072 18.9107 180.072 18.332C180.072 17.7533 180.156 17.2307 180.324 16.764C180.502 16.288 180.744 15.882 181.052 15.546C181.37 15.21 181.743 14.9533 182.172 14.776C182.602 14.5893 183.073 14.496 183.586 14.496C184.1 14.496 184.571 14.5893 185 14.776C185.439 14.9533 185.812 15.21 186.12 15.546C186.428 15.882 186.666 16.288 186.834 16.764C187.012 17.2307 187.1 17.7533 187.1 18.332ZM185.364 18.332C185.364 17.604 185.206 17.03 184.888 16.61C184.58 16.1807 184.146 15.966 183.586 15.966C183.026 15.966 182.588 16.1807 182.27 16.61C181.962 17.03 181.808 17.604 181.808 18.332C181.808 19.0693 181.962 19.6527 182.27 20.082C182.588 20.5113 183.026 20.726 183.586 20.726C184.146 20.726 184.58 20.5113 184.888 20.082C185.206 19.6527 185.364 19.0693 185.364 18.332ZM198.735 18.332C198.735 18.9107 198.651 19.438 198.483 19.914C198.315 20.39 198.077 20.796 197.769 21.132C197.461 21.468 197.088 21.7293 196.649 21.916C196.22 22.1027 195.744 22.196 195.221 22.196C194.698 22.196 194.222 22.1027 193.793 21.916C193.364 21.7293 192.995 21.468 192.687 21.132C192.379 20.796 192.136 20.39 191.959 19.914C191.791 19.438 191.707 18.9107 191.707 18.332C191.707 17.7533 191.791 17.2307 191.959 16.764C192.136 16.288 192.379 15.882 192.687 15.546C193.004 15.21 193.378 14.9533 193.807 14.776C194.236 14.5893 194.708 14.496 195.221 14.496C195.734 14.496 196.206 14.5893 196.635 14.776C197.074 14.9533 197.447 15.21 197.755 15.546C198.063 15.882 198.301 16.288 198.469 16.764C198.646 17.2307 198.735 17.7533 198.735 18.332ZM196.999 18.332C196.999 17.604 196.84 17.03 196.523 16.61C196.215 16.1807 195.781 15.966 195.221 15.966C194.661 15.966 194.222 16.1807 193.905 16.61C193.597 17.03 193.443 17.604 193.443 18.332C193.443 19.0693 193.597 19.6527 193.905 20.082C194.222 20.5113 194.661 20.726 195.221 20.726C195.781 20.726 196.215 20.5113 196.523 20.082C196.84 19.6527 196.999 19.0693 196.999 18.332ZM205.338 18.318C205.338 17.5993 205.194 17.03 204.904 16.61C204.624 16.19 204.176 15.98 203.56 15.98C203.28 15.98 203.014 16.022 202.762 16.106C202.52 16.19 202.324 16.2833 202.174 16.386V20.6C202.296 20.628 202.45 20.656 202.636 20.684C202.832 20.7027 203.066 20.712 203.336 20.712C203.962 20.712 204.452 20.502 204.806 20.082C205.161 19.6527 205.338 19.0647 205.338 18.318ZM207.074 18.346C207.074 18.934 206.986 19.466 206.808 19.942C206.64 20.4087 206.393 20.81 206.066 21.146C205.749 21.482 205.362 21.7387 204.904 21.916C204.447 22.0933 203.929 22.182 203.35 22.182C202.79 22.182 202.254 22.14 201.74 22.056C201.236 21.972 200.816 21.8787 200.48 21.776V11.416L202.174 11.136V14.93C202.37 14.8273 202.608 14.734 202.888 14.65C203.178 14.566 203.495 14.524 203.84 14.524C204.354 14.524 204.811 14.6173 205.212 14.804C205.623 14.9813 205.964 15.238 206.234 15.574C206.505 15.91 206.71 16.316 206.85 16.792C207 17.2587 207.074 17.7767 207.074 18.346ZM211.368 22.14C210.864 22.1307 210.444 22.0747 210.108 21.972C209.782 21.8693 209.52 21.7247 209.324 21.538C209.128 21.342 208.988 21.104 208.904 20.824C208.83 20.5347 208.792 20.208 208.792 19.844V11.416L210.486 11.136V19.522C210.486 19.7273 210.5 19.9 210.528 20.04C210.566 20.18 210.626 20.3013 210.71 20.404C210.794 20.4973 210.906 20.572 211.046 20.628C211.196 20.6747 211.382 20.712 211.606 20.74L211.368 22.14ZM214.684 22H212.99V14.678H214.684V22ZM214.866 12.536C214.866 12.8533 214.764 13.1053 214.558 13.292C214.353 13.4787 214.11 13.572 213.83 13.572C213.541 13.572 213.294 13.4787 213.088 13.292C212.883 13.1053 212.78 12.8533 212.78 12.536C212.78 12.2093 212.883 11.9527 213.088 11.766C213.294 11.5793 213.541 11.486 213.83 11.486C214.11 11.486 214.353 11.5793 214.558 11.766C214.764 11.9527 214.866 12.2093 214.866 12.536ZM218.176 18.15C218.176 18.8687 218.33 19.396 218.638 19.732C218.955 20.0587 219.361 20.222 219.856 20.222C220.126 20.222 220.378 20.1847 220.612 20.11C220.854 20.0353 221.05 19.9467 221.2 19.844V16.05C221.078 16.022 220.929 15.9987 220.752 15.98C220.574 15.952 220.35 15.938 220.08 15.938C219.464 15.938 218.992 16.1433 218.666 16.554C218.339 16.9553 218.176 17.4873 218.176 18.15ZM222.894 21.258C222.894 22.4247 222.595 23.2787 221.998 23.82C221.41 24.3613 220.504 24.632 219.282 24.632C218.834 24.632 218.395 24.5947 217.966 24.52C217.546 24.4453 217.163 24.3473 216.818 24.226L217.126 22.784C217.415 22.9053 217.742 23.0033 218.106 23.078C218.479 23.1527 218.88 23.19 219.31 23.19C219.991 23.19 220.476 23.05 220.766 22.77C221.055 22.49 221.2 22.0747 221.2 21.524V21.244C221.032 21.328 220.808 21.412 220.528 21.496C220.257 21.58 219.944 21.622 219.59 21.622C219.123 21.622 218.694 21.5473 218.302 21.398C217.919 21.2487 217.588 21.0293 217.308 20.74C217.037 20.4507 216.822 20.0913 216.664 19.662C216.514 19.2233 216.44 18.7193 216.44 18.15C216.44 17.618 216.519 17.128 216.678 16.68C216.846 16.232 217.084 15.8493 217.392 15.532C217.709 15.2147 218.092 14.9673 218.54 14.79C218.988 14.6127 219.496 14.524 220.066 14.524C220.616 14.524 221.139 14.566 221.634 14.65C222.128 14.734 222.548 14.8227 222.894 14.916V21.258ZM227.625 20.81C228.147 20.81 228.544 20.782 228.815 20.726V18.85C228.721 18.822 228.586 18.794 228.409 18.766C228.231 18.738 228.035 18.724 227.821 18.724C227.634 18.724 227.443 18.738 227.247 18.766C227.06 18.794 226.887 18.8453 226.729 18.92C226.579 18.9947 226.458 19.102 226.365 19.242C226.271 19.3727 226.225 19.5407 226.225 19.746C226.225 20.1473 226.351 20.4273 226.603 20.586C226.855 20.7353 227.195 20.81 227.625 20.81ZM227.485 14.496C228.045 14.496 228.516 14.566 228.899 14.706C229.281 14.846 229.585 15.042 229.809 15.294C230.042 15.546 230.205 15.854 230.299 16.218C230.401 16.5727 230.453 16.9647 230.453 17.394V21.832C230.191 21.888 229.795 21.9533 229.263 22.028C228.74 22.112 228.147 22.154 227.485 22.154C227.046 22.154 226.645 22.112 226.281 22.028C225.917 21.944 225.604 21.8087 225.343 21.622C225.091 21.4353 224.89 21.1927 224.741 20.894C224.601 20.5953 224.531 20.2267 224.531 19.788C224.531 19.368 224.61 19.0133 224.769 18.724C224.937 18.4347 225.161 18.2013 225.441 18.024C225.721 17.8373 226.043 17.7067 226.407 17.632C226.78 17.548 227.167 17.506 227.569 17.506C227.755 17.506 227.951 17.52 228.157 17.548C228.362 17.5667 228.581 17.604 228.815 17.66V17.38C228.815 17.184 228.791 16.9973 228.745 16.82C228.698 16.6427 228.614 16.4887 228.493 16.358C228.381 16.218 228.227 16.1107 228.031 16.036C227.844 15.9613 227.606 15.924 227.317 15.924C226.925 15.924 226.565 15.952 226.239 16.008C225.912 16.064 225.646 16.1293 225.441 16.204L225.231 14.832C225.445 14.7573 225.758 14.6827 226.169 14.608C226.579 14.5333 227.018 14.496 227.485 14.496ZM232.443 12.746L234.137 12.466V14.678H236.741V16.092H234.137V19.074C234.137 19.662 234.231 20.082 234.417 20.334C234.604 20.586 234.921 20.712 235.369 20.712C235.677 20.712 235.948 20.6793 236.181 20.614C236.424 20.5487 236.615 20.488 236.755 20.432L237.035 21.776C236.839 21.86 236.583 21.944 236.265 22.028C235.948 22.1213 235.575 22.168 235.145 22.168C234.623 22.168 234.184 22.098 233.829 21.958C233.484 21.818 233.209 21.6173 233.003 21.356C232.798 21.0853 232.653 20.7633 232.569 20.39C232.485 20.0073 232.443 19.5733 232.443 19.088V12.746ZM240.087 22H238.393V14.678H240.087V22ZM240.269 12.536C240.269 12.8533 240.166 13.1053 239.961 13.292C239.755 13.4787 239.513 13.572 239.233 13.572C238.943 13.572 238.696 13.4787 238.491 13.292C238.285 13.1053 238.183 12.8533 238.183 12.536C238.183 12.2093 238.285 11.9527 238.491 11.766C238.696 11.5793 238.943 11.486 239.233 11.486C239.513 11.486 239.755 11.5793 239.961 11.766C240.166 11.9527 240.269 12.2093 240.269 12.536ZM248.87 18.332C248.87 18.9107 248.786 19.438 248.618 19.914C248.45 20.39 248.212 20.796 247.904 21.132C247.596 21.468 247.223 21.7293 246.784 21.916C246.355 22.1027 245.879 22.196 245.356 22.196C244.833 22.196 244.357 22.1027 243.928 21.916C243.499 21.7293 243.13 21.468 242.822 21.132C242.514 20.796 242.271 20.39 242.094 19.914C241.926 19.438 241.842 18.9107 241.842 18.332C241.842 17.7533 241.926 17.2307 242.094 16.764C242.271 16.288 242.514 15.882 242.822 15.546C243.139 15.21 243.513 14.9533 243.942 14.776C244.371 14.5893 244.843 14.496 245.356 14.496C245.869 14.496 246.341 14.5893 246.77 14.776C247.209 14.9533 247.582 15.21 247.89 15.546C248.198 15.882 248.436 16.288 248.604 16.764C248.781 17.2307 248.87 17.7533 248.87 18.332ZM247.134 18.332C247.134 17.604 246.975 17.03 246.658 16.61C246.35 16.1807 245.916 15.966 245.356 15.966C244.796 15.966 244.357 16.1807 244.04 16.61C243.732 17.03 243.578 17.604 243.578 18.332C243.578 19.0693 243.732 19.6527 244.04 20.082C244.357 20.5113 244.796 20.726 245.356 20.726C245.916 20.726 246.35 20.5113 246.658 20.082C246.975 19.6527 247.134 19.0693 247.134 18.332ZM250.615 14.916C250.942 14.8227 251.366 14.734 251.889 14.65C252.412 14.566 252.99 14.524 253.625 14.524C254.222 14.524 254.722 14.608 255.123 14.776C255.524 14.9347 255.842 15.1633 256.075 15.462C256.318 15.7513 256.486 16.106 256.579 16.526C256.682 16.9367 256.733 17.3893 256.733 17.884V22H255.039V18.15C255.039 17.758 255.011 17.4267 254.955 17.156C254.908 16.876 254.824 16.652 254.703 16.484C254.591 16.3067 254.432 16.1807 254.227 16.106C254.031 16.022 253.788 15.98 253.499 15.98C253.284 15.98 253.06 15.994 252.827 16.022C252.594 16.05 252.421 16.0733 252.309 16.092V22H250.615V14.916ZM261.988 12.746L263.682 12.466V14.678H266.286V16.092H263.682V19.074C263.682 19.662 263.775 20.082 263.962 20.334C264.149 20.586 264.466 20.712 264.914 20.712C265.222 20.712 265.493 20.6793 265.726 20.614C265.969 20.5487 266.16 20.488 266.3 20.432L266.58 21.776C266.384 21.86 266.127 21.944 265.81 22.028C265.493 22.1213 265.119 22.168 264.69 22.168C264.167 22.168 263.729 22.098 263.374 21.958C263.029 21.818 262.753 21.6173 262.548 21.356C262.343 21.0853 262.198 20.7633 262.114 20.39C262.03 20.0073 261.988 19.5733 261.988 19.088V12.746ZM274.382 18.332C274.382 18.9107 274.298 19.438 274.13 19.914C273.962 20.39 273.724 20.796 273.416 21.132C273.108 21.468 272.734 21.7293 272.296 21.916C271.866 22.1027 271.39 22.196 270.868 22.196C270.345 22.196 269.869 22.1027 269.44 21.916C269.01 21.7293 268.642 21.468 268.334 21.132C268.026 20.796 267.783 20.39 267.606 19.914C267.438 19.438 267.354 18.9107 267.354 18.332C267.354 17.7533 267.438 17.2307 267.606 16.764C267.783 16.288 268.026 15.882 268.334 15.546C268.651 15.21 269.024 14.9533 269.454 14.776C269.883 14.5893 270.354 14.496 270.868 14.496C271.381 14.496 271.852 14.5893 272.282 14.776C272.72 14.9533 273.094 15.21 273.402 15.546C273.71 15.882 273.948 16.288 274.116 16.764C274.293 17.2307 274.382 17.7533 274.382 18.332ZM272.646 18.332C272.646 17.604 272.487 17.03 272.17 16.61C271.862 16.1807 271.428 15.966 270.868 15.966C270.308 15.966 269.869 16.1807 269.552 16.61C269.244 17.03 269.09 17.604 269.09 18.332C269.09 19.0693 269.244 19.6527 269.552 20.082C269.869 20.5113 270.308 20.726 270.868 20.726C271.428 20.726 271.862 20.5113 272.17 20.082C272.487 19.6527 272.646 19.0693 272.646 18.332ZM284.252 18.318C284.252 17.5993 284.108 17.03 283.818 16.61C283.538 16.19 283.09 15.98 282.474 15.98C282.194 15.98 281.928 16.022 281.676 16.106C281.434 16.19 281.238 16.2833 281.088 16.386V20.6C281.21 20.628 281.364 20.656 281.55 20.684C281.746 20.7027 281.98 20.712 282.25 20.712C282.876 20.712 283.366 20.502 283.72 20.082C284.075 19.6527 284.252 19.0647 284.252 18.318ZM285.988 18.346C285.988 18.934 285.9 19.466 285.722 19.942C285.554 20.4087 285.307 20.81 284.98 21.146C284.663 21.482 284.276 21.7387 283.818 21.916C283.361 22.0933 282.843 22.182 282.264 22.182C281.704 22.182 281.168 22.14 280.654 22.056C280.15 21.972 279.73 21.8787 279.394 21.776V11.416L281.088 11.136V14.93C281.284 14.8273 281.522 14.734 281.802 14.65C282.092 14.566 282.409 14.524 282.754 14.524C283.268 14.524 283.725 14.6173 284.126 14.804C284.537 14.9813 284.878 15.238 285.148 15.574C285.419 15.91 285.624 16.316 285.764 16.792C285.914 17.2587 285.988 17.7767 285.988 18.346ZM293.74 21.776C293.414 21.86 292.989 21.944 292.466 22.028C291.944 22.1213 291.37 22.168 290.744 22.168C290.156 22.168 289.662 22.084 289.26 21.916C288.868 21.748 288.551 21.5147 288.308 21.216C288.075 20.9173 287.907 20.5627 287.804 20.152C287.702 19.732 287.65 19.2747 287.65 18.78V14.678H289.344V18.514C289.344 19.298 289.456 19.858 289.68 20.194C289.914 20.53 290.315 20.698 290.884 20.698C291.09 20.698 291.304 20.6887 291.528 20.67C291.762 20.6513 291.934 20.628 292.046 20.6V14.678H293.74V21.776ZM301.874 14.678C301.118 17.4593 300.241 19.9793 299.242 22.238C299.056 22.658 298.864 23.0173 298.668 23.316C298.472 23.6147 298.253 23.862 298.01 24.058C297.768 24.254 297.497 24.394 297.198 24.478C296.9 24.5713 296.554 24.618 296.162 24.618C295.901 24.618 295.64 24.59 295.378 24.534C295.126 24.478 294.935 24.4173 294.804 24.352L295.112 22.994C295.448 23.1247 295.78 23.19 296.106 23.19C296.545 23.19 296.886 23.0827 297.128 22.868C297.38 22.6627 297.6 22.3407 297.786 21.902C297.254 20.8753 296.741 19.7553 296.246 18.542C295.761 17.3287 295.327 16.0407 294.944 14.678H296.75C296.844 15.07 296.956 15.4947 297.086 15.952C297.226 16.4093 297.376 16.876 297.534 17.352C297.693 17.8187 297.861 18.2853 298.038 18.752C298.216 19.2187 298.393 19.6527 298.57 20.054C298.869 19.2233 299.149 18.3413 299.41 17.408C299.672 16.4653 299.91 15.5553 300.124 14.678H301.874ZM305.13 14.902C305.13 15.6767 305.102 16.386 305.046 17.03C304.99 17.674 304.92 18.3227 304.836 18.976H303.632C303.539 18.3227 303.464 17.674 303.408 17.03C303.352 16.3767 303.324 15.6673 303.324 14.902V12.298H305.13V14.902ZM305.34 21.076C305.34 21.4027 305.233 21.6687 305.018 21.874C304.803 22.0793 304.537 22.182 304.22 22.182C303.912 22.182 303.646 22.0793 303.422 21.874C303.207 21.6687 303.1 21.4027 303.1 21.076C303.1 20.7493 303.207 20.4833 303.422 20.278C303.646 20.0633 303.912 19.956 304.22 19.956C304.537 19.956 304.803 20.0633 305.018 20.278C305.233 20.4833 305.34 20.7493 305.34 21.076Z" fill="#484751"/>
</g>
<defs>
<filter id="filter0_d" x="0" y="0" width="329" height="56" filterUnits="userSpaceOnUse" color-interpolation-filters="sRGB">
<feFlood flood-opacity="0" result="BackgroundImageFix"/>
<feColorMatrix in="SourceAlpha" type="matrix" values="0 0 0 0 0 0 0 0 0 0 0 0 0 0 0 0 0 0 127 0" result="hardAlpha"/>
<feOffset dy="2"/>
<feGaussianBlur stdDeviation="1"/>
<feColorMatrix type="matrix" values="0 0 0 0 0 0 0 0 0 0 0 0 0 0 0 0 0 0 0.2 0"/>
<feBlend mode="normal" in2="BackgroundImageFix" result="effect1_dropShadow"/>
<feBlend mode="normal" in="SourceGraphic" in2="effect1_dropShadow" result="shape"/>
</filter>
</defs>
</svg>
