<svg width="211" height="189" viewBox="0 0 211 189" fill="none" xmlns="http://www.w3.org/2000/svg">
<g filter="url(#filter0_d)">
<path d="M154.872 112.694C162.287 108.737 174.174 100.157 177.534 91.161C178.065 89.7499 179.858 89.3467 180.957 90.3799L205.83 119.069C208.634 121.74 208.735 126.188 206.057 128.985L154.898 174.305C153.571 175.641 151.285 174.708 151.285 172.831L151.209 139.316C151.209 138.749 168.174 131.253 161.542 124.625L154.898 117.998C153.533 116.675 152.005 114.218 154.872 112.694Z" fill="#6976EC"/>
<path d="M143.845 144.936V177.064C143.845 181.222 141.205 184.624 137.971 184.624H72.2596C69.0258 184.624 66.3857 181.222 66.3857 177.064V144.936C66.3857 140.778 69.0258 137.376 72.2596 137.376H74.786C76.2261 137.376 77.6156 138.019 78.7272 139.115C85.7001 146.019 96.9931 148.716 106.379 148.716C115.752 148.716 126.11 146.032 132.956 139.153C134.081 138.031 135.47 137.376 136.935 137.376H137.971C141.205 137.376 143.845 140.778 143.845 144.936Z" fill="#6976EC"/>
<path d="M55.1162 112.694C47.7013 108.737 35.8145 100.157 32.4544 91.161C31.9239 89.7499 30.1301 89.3467 29.0312 90.3799L4.17139 119.069C1.36709 121.74 1.26603 126.188 3.94401 128.985L55.1036 174.305C56.43 175.641 58.7164 174.708 58.7164 172.831L58.7921 139.316C58.7921 138.749 41.8274 131.253 48.4592 124.625L55.1036 117.998C56.4426 116.675 57.9837 114.218 55.1162 112.694Z" fill="#6976EC"/>
<path d="M128.774 122.483C122.711 132.815 112.883 135.549 106.567 136.191C106.024 136.242 105.519 136.279 105.026 136.317C104.546 136.292 104.028 136.254 103.485 136.191C97.169 135.549 87.3413 132.815 81.2779 122.483C79.4336 119.333 82.9201 115.793 86.4318 117.279C91.0424 119.245 97.2953 122.508 105.026 122.659C112.757 122.508 119.01 119.232 123.62 117.279C127.132 115.78 130.618 119.333 128.774 122.483Z" fill="#6976EC"/>
<path d="M87.9603 16.0811C87.9603 16.0811 69.0501 7.21105 51.1506 25.0772C47.7652 28.4538 43.2556 35.1946 39.5039 41.5699C62.0394 19.4452 89.8424 24.3212 104.862 38.1807C115.005 30.6839 137.541 16.0685 165.546 37.1979C160.089 25.0772 153.331 17.9458 153.331 17.9458C153.331 17.9458 160.468 16.8245 171.736 22.4439C165.723 15.7031 150.135 6.35428 138.021 4.65335C143.933 2.58703 146.573 1.83106 146.573 1.83106C146.573 1.83106 103.738 -7.53038 87.9603 16.0811Z" fill="#6976EC"/>
<path d="M75.9609 6.12629C75.9609 6.12629 87.1024 5.94989 90.3488 14.001C93.5952 22.0521 90.3488 20.2251 90.3488 20.2251L79.2326 20.4015C79.2326 20.4141 85.3844 14.9207 75.9609 6.12629Z" fill="#6976EC"/>
<path d="M71.7278 102.867C88.7015 102.867 102.461 89.1423 102.461 72.2122C102.461 55.2822 88.7015 41.5576 71.7278 41.5576C54.7541 41.5576 40.9941 55.2822 40.9941 72.2122C40.9941 89.1423 54.7541 102.867 71.7278 102.867Z" fill="#B7C3F9"/>
<path d="M137.717 102.867C154.691 102.867 168.451 89.1423 168.451 72.2122C168.451 55.2822 154.691 41.5576 137.717 41.5576C120.743 41.5576 106.983 55.2822 106.983 72.2122C106.983 89.1423 120.743 102.867 137.717 102.867Z" fill="#B7C3F9"/>
<path d="M135.306 55.3145C136.292 54.5081 135.18 52.4796 133.525 52.152C133.513 52.152 133.5 52.152 133.487 52.1394C130.443 51.5724 124.329 51.396 119.706 57.406C115.6 62.7482 116.523 67.9518 117.723 71.0009L117.748 71.0513C118.72 73.4704 122.333 74.5287 123.003 72.5884C123.003 72.5884 119.213 66.7296 124.342 60.0645C129.47 53.3994 135.306 55.3145 135.306 55.3145Z" fill="white"/>
<path d="M67.3327 54.8999C68.318 54.0936 67.2064 52.065 65.5516 51.7375C65.5389 51.7375 65.5263 51.7375 65.5137 51.7249C62.4694 51.1579 56.3555 50.9815 51.7322 56.9915C47.6268 62.3336 48.5489 67.5372 49.7489 70.5863L49.7742 70.6367C50.7469 73.0558 54.3596 74.1142 55.0291 72.1739C55.0291 72.1739 51.2395 66.3151 56.3681 59.6499C61.4967 52.9848 67.3327 54.8999 67.3327 54.8999Z" fill="white"/>
<path d="M175.436 66.6938C175.348 66.089 175.234 65.4842 175.12 64.8921C175.12 64.8795 175.12 64.8795 175.12 64.8795C175.007 64.2873 174.855 63.6825 174.704 63.1029C174.691 63.0525 174.678 63.0021 174.666 62.9391C174.565 62.5485 174.451 62.1706 174.337 61.78C174.173 61.2256 174.009 60.6712 173.807 60.1294C173.668 59.7263 173.529 59.3483 173.377 58.9577C173.087 58.2017 172.771 57.4457 172.417 56.7024C172.215 56.2614 172 55.833 171.786 55.4046C171.571 55.0014 171.356 54.6109 171.154 54.2077C164.737 42.5531 152.32 34.6784 138.033 34.6784C124.049 34.6784 111.859 42.2381 105.303 53.4643C105.265 53.5273 105.228 53.6029 105.19 53.6659C105.139 53.5525 105.076 53.4265 105 53.3131C104.015 51.5618 102.891 49.8986 101.653 48.3363C101.564 48.2229 101.463 48.1095 101.375 48.0087C94.4398 39.4662 83.8542 33.998 71.9675 33.998C51.0489 33.998 34.1094 50.9066 34.1094 71.7588C34.1094 86.2356 42.257 98.7973 54.2321 105.11C59.525 107.919 65.5504 109.507 71.9548 109.507C86.0016 109.507 98.2673 101.872 104.785 90.5321C104.849 90.6455 104.924 90.7715 104.988 90.8848C105.089 91.0864 105.215 91.288 105.329 91.477C111.885 102.665 124.074 110.187 138.008 110.187C145.789 110.187 153.052 107.844 159.065 103.787C159.431 103.547 159.81 103.283 160.177 103.018C160.606 102.716 161.01 102.413 161.415 102.086C162.008 101.62 162.602 101.128 163.158 100.637C163.347 100.473 163.524 100.322 163.701 100.146C164.042 99.8305 164.396 99.5155 164.724 99.1753C164.75 99.1501 164.775 99.1249 164.8 99.0997C165.217 98.6713 165.621 98.2556 166.025 97.8146C166.442 97.361 166.834 96.9074 167.225 96.4538C168.577 94.8285 169.79 93.0772 170.851 91.2376C171.053 90.8975 171.255 90.5321 171.432 90.1919C174.261 84.8875 175.853 78.8649 175.853 72.4392C175.866 70.4988 175.727 68.5711 175.436 66.6938ZM111.013 78.4869C110.672 76.7482 110.482 74.9591 110.482 73.1321C110.482 57.9749 122.811 45.6778 138.008 45.6778C153.204 45.6778 165.533 57.9749 165.533 73.1321C165.533 80.654 162.488 87.483 157.575 92.4346C157.537 92.4724 157.511 92.4976 157.473 92.5354C152.496 97.4996 145.612 100.574 138.008 100.574C124.656 100.586 113.501 91.0864 111.013 78.4869ZM83.3742 98.18C79.8751 99.7297 76.0223 100.586 71.9548 100.586C56.367 100.586 43.735 87.987 43.735 72.4392C43.735 56.8914 56.367 44.2919 71.9548 44.2919C77.6013 44.2919 82.8436 45.9424 87.2648 48.8025C87.429 48.8907 87.568 49.0041 87.7322 49.1049C95.2356 54.1573 100.162 62.7249 100.162 72.4392C100.162 83.9047 93.2903 93.7701 83.4373 98.1548C83.4121 98.1674 83.3994 98.18 83.3742 98.18Z" fill="#141B41"/>
</g>
<defs>
<filter id="filter0_d" x="0" y="0" width="210.001" height="188.624" filterUnits="userSpaceOnUse" color-interpolation-filters="sRGB">
<feFlood flood-opacity="0" result="BackgroundImageFix"/>
<feColorMatrix in="SourceAlpha" type="matrix" values="0 0 0 0 0 0 0 0 0 0 0 0 0 0 0 0 0 0 127 0" result="hardAlpha"/>
<feOffset dy="2"/>
<feGaussianBlur stdDeviation="1"/>
<feColorMatrix type="matrix" values="0 0 0 0 0 0 0 0 0 0 0 0 0 0 0 0 0 0 0.2 0"/>
<feBlend mode="normal" in2="BackgroundImageFix" result="effect1_dropShadow"/>
<feBlend mode="normal" in="SourceGraphic" in2="effect1_dropShadow" result="shape"/>
</filter>
</defs>
</svg>
