<svg width="393" height="67" viewBox="0 0 393 67" fill="none" xmlns="http://www.w3.org/2000/svg">
<g filter="url(#filter0_d)">
<path d="M2 0H391V63H2V0Z" fill="white"/>
<path d="M2.5 0.5H390.5V62.5H2.5V0.5Z" stroke="#484751"/>
</g>
<path d="M18.336 54C18.228 54 18.156 53.952 18.12 53.856L16.284 48.294C16.272 48.258 16.248 48.24 16.212 48.24H14.646C14.598 48.24 14.574 48.264 14.574 48.312V53.82C14.574 53.94 14.514 54 14.394 54H13.476C13.356 54 13.296 53.94 13.296 53.82V41.58C13.296 41.46 13.356 41.4 13.476 41.4H16.446C17.322 41.4 18.03 41.724 18.57 42.372C19.11 43.008 19.38 43.842 19.38 44.874C19.38 45.654 19.212 46.326 18.876 46.89C18.54 47.454 18.084 47.85 17.508 48.078C17.46 48.09 17.442 48.12 17.454 48.168L19.416 53.802L19.434 53.874C19.434 53.958 19.38 54 19.272 54H18.336ZM14.646 42.516C14.598 42.516 14.574 42.54 14.574 42.588V47.142C14.574 47.19 14.598 47.214 14.646 47.214H16.266C16.818 47.214 17.262 47.004 17.598 46.584C17.934 46.152 18.102 45.582 18.102 44.874C18.102 44.166 17.934 43.596 17.598 43.164C17.262 42.732 16.818 42.516 16.266 42.516H14.646ZM26.5145 49.752C26.5145 49.872 26.4545 49.932 26.3345 49.932H22.2305C22.1825 49.932 22.1585 49.956 22.1585 50.004V51.318C22.1585 51.822 22.2965 52.236 22.5725 52.56C22.8605 52.872 23.2325 53.028 23.6885 53.028C24.0725 53.028 24.3965 52.914 24.6605 52.686C24.9365 52.446 25.1165 52.14 25.2005 51.768C25.2365 51.66 25.3025 51.606 25.3985 51.606L26.2985 51.642C26.3465 51.642 26.3885 51.66 26.4245 51.696C26.4605 51.732 26.4725 51.78 26.4605 51.84C26.3645 52.548 26.0705 53.112 25.5785 53.532C25.0985 53.94 24.4685 54.144 23.6885 54.144C22.8365 54.144 22.1525 53.892 21.6365 53.388C21.1325 52.884 20.8805 52.218 20.8805 51.39V47.502C20.8805 46.686 21.1325 46.026 21.6365 45.522C22.1525 45.006 22.8365 44.748 23.6885 44.748C24.5525 44.748 25.2365 45.006 25.7405 45.522C26.2565 46.026 26.5145 46.686 26.5145 47.502V49.752ZM23.6885 45.864C23.2325 45.864 22.8605 46.026 22.5725 46.35C22.2965 46.662 22.1585 47.076 22.1585 47.592V48.798C22.1585 48.846 22.1825 48.87 22.2305 48.87H25.1825C25.2305 48.87 25.2545 48.846 25.2545 48.798V47.592C25.2545 47.076 25.1105 46.662 24.8225 46.35C24.5345 46.026 24.1565 45.864 23.6885 45.864ZM32.5485 41.58C32.5485 41.46 32.6085 41.4 32.7285 41.4H33.6465C33.7665 41.4 33.8265 41.46 33.8265 41.58V53.82C33.8265 53.94 33.7665 54 33.6465 54H32.7285C32.6085 54 32.5485 53.94 32.5485 53.82V53.424C32.5485 53.4 32.5365 53.382 32.5125 53.37C32.5005 53.358 32.4825 53.364 32.4585 53.388C32.0025 53.892 31.4265 54.144 30.7305 54.144C29.9625 54.144 29.3505 53.892 28.8945 53.388C28.4385 52.872 28.2105 52.206 28.2105 51.39V47.502C28.2105 46.662 28.4385 45.996 28.8945 45.504C29.3505 45 29.9625 44.748 30.7305 44.748C31.4385 44.748 32.0145 45.006 32.4585 45.522C32.4825 45.546 32.5005 45.552 32.5125 45.54C32.5365 45.528 32.5485 45.51 32.5485 45.486V41.58ZM31.0365 53.028C31.4805 53.028 31.8405 52.872 32.1165 52.56C32.4045 52.236 32.5485 51.822 32.5485 51.318V47.592C32.5485 47.076 32.4045 46.662 32.1165 46.35C31.8405 46.026 31.4805 45.864 31.0365 45.864C30.5805 45.864 30.2025 46.026 29.9025 46.35C29.6145 46.662 29.4705 47.076 29.4705 47.592V51.318C29.4705 51.822 29.6145 52.236 29.9025 52.56C30.2025 52.872 30.5805 53.028 31.0365 53.028ZM41.4559 49.752C41.4559 49.872 41.3959 49.932 41.2759 49.932H37.1719C37.1239 49.932 37.0999 49.956 37.0999 50.004V51.318C37.0999 51.822 37.2379 52.236 37.5139 52.56C37.8019 52.872 38.1739 53.028 38.6299 53.028C39.0139 53.028 39.3379 52.914 39.6019 52.686C39.8779 52.446 40.0579 52.14 40.1419 51.768C40.1779 51.66 40.2439 51.606 40.3399 51.606L41.2399 51.642C41.2879 51.642 41.3299 51.66 41.3659 51.696C41.4019 51.732 41.4139 51.78 41.4019 51.84C41.3059 52.548 41.0119 53.112 40.5199 53.532C40.0399 53.94 39.4099 54.144 38.6299 54.144C37.7779 54.144 37.0939 53.892 36.5779 53.388C36.0739 52.884 35.8219 52.218 35.8219 51.39V47.502C35.8219 46.686 36.0739 46.026 36.5779 45.522C37.0939 45.006 37.7779 44.748 38.6299 44.748C39.4939 44.748 40.1779 45.006 40.6819 45.522C41.1979 46.026 41.4559 46.686 41.4559 47.502V49.752ZM38.6299 45.864C38.1739 45.864 37.8019 46.026 37.5139 46.35C37.2379 46.662 37.0999 47.076 37.0999 47.592V48.798C37.0999 48.846 37.1239 48.87 37.1719 48.87H40.1239C40.1719 48.87 40.1959 48.846 40.1959 48.798V47.592C40.1959 47.076 40.0519 46.662 39.7639 46.35C39.4759 46.026 39.0979 45.864 38.6299 45.864ZM48.786 49.752C48.786 49.872 48.726 49.932 48.606 49.932H44.502C44.454 49.932 44.43 49.956 44.43 50.004V51.318C44.43 51.822 44.568 52.236 44.844 52.56C45.132 52.872 45.504 53.028 45.96 53.028C46.344 53.028 46.668 52.914 46.932 52.686C47.208 52.446 47.388 52.14 47.472 51.768C47.508 51.66 47.574 51.606 47.67 51.606L48.57 51.642C48.618 51.642 48.66 51.66 48.696 51.696C48.732 51.732 48.744 51.78 48.732 51.84C48.636 52.548 48.342 53.112 47.85 53.532C47.37 53.94 46.74 54.144 45.96 54.144C45.108 54.144 44.424 53.892 43.908 53.388C43.404 52.884 43.152 52.218 43.152 51.39V47.502C43.152 46.686 43.404 46.026 43.908 45.522C44.424 45.006 45.108 44.748 45.96 44.748C46.824 44.748 47.508 45.006 48.012 45.522C48.528 46.026 48.786 46.686 48.786 47.502V49.752ZM45.96 45.864C45.504 45.864 45.132 46.026 44.844 46.35C44.568 46.662 44.43 47.076 44.43 47.592V48.798C44.43 48.846 44.454 48.87 44.502 48.87H47.454C47.502 48.87 47.526 48.846 47.526 48.798V47.592C47.526 47.076 47.382 46.662 47.094 46.35C46.806 46.026 46.428 45.864 45.96 45.864ZM57.97 44.766C58.69 44.766 59.248 45.03 59.644 45.558C60.04 46.086 60.238 46.818 60.238 47.754V53.82C60.238 53.94 60.178 54 60.058 54H59.158C59.038 54 58.978 53.94 58.978 53.82V47.862C58.978 47.25 58.846 46.77 58.582 46.422C58.33 46.062 57.994 45.882 57.574 45.882C57.118 45.882 56.758 46.056 56.494 46.404C56.23 46.752 56.098 47.226 56.098 47.826V53.82C56.098 53.94 56.038 54 55.918 54H55C54.88 54 54.82 53.94 54.82 53.82V47.862C54.82 47.25 54.688 46.77 54.424 46.422C54.172 46.062 53.842 45.882 53.434 45.882C52.978 45.882 52.612 46.056 52.336 46.404C52.072 46.752 51.94 47.226 51.94 47.826V53.82C51.94 53.94 51.88 54 51.76 54H50.86C50.74 54 50.68 53.94 50.68 53.82V45.072C50.68 44.952 50.74 44.892 50.86 44.892H51.76C51.88 44.892 51.94 44.952 51.94 45.072V45.63C51.94 45.654 51.946 45.672 51.958 45.684C51.982 45.684 52.006 45.672 52.03 45.648C52.258 45.348 52.528 45.126 52.84 44.982C53.152 44.838 53.482 44.766 53.83 44.766C54.286 44.766 54.682 44.88 55.018 45.108C55.354 45.324 55.612 45.636 55.792 46.044C55.804 46.068 55.822 46.08 55.846 46.08C55.87 46.08 55.888 46.062 55.9 46.026C56.116 45.594 56.41 45.276 56.782 45.072C57.154 44.868 57.55 44.766 57.97 44.766ZM68.2234 53.982C68.1034 53.982 68.0434 53.922 68.0434 53.802V48.42C68.0434 48.372 68.0374 48.342 68.0254 48.33L65.5234 41.616L65.5054 41.544C65.5054 41.448 65.5594 41.4 65.6674 41.4H66.6394C66.7474 41.4 66.8194 41.448 66.8554 41.544L68.6194 46.818C68.6314 46.842 68.6494 46.854 68.6734 46.854C68.6974 46.854 68.7154 46.842 68.7274 46.818L70.4914 41.544C70.5274 41.448 70.5994 41.4 70.7074 41.4H71.6794C71.7394 41.4 71.7814 41.424 71.8054 41.472C71.8414 41.508 71.8474 41.556 71.8234 41.616L69.3394 48.33C69.3274 48.342 69.3214 48.372 69.3214 48.42V53.802C69.3214 53.922 69.2614 53.982 69.1414 53.982H68.2234ZM75.4565 54.144C74.5925 54.144 73.9025 53.892 73.3865 53.388C72.8825 52.884 72.6305 52.218 72.6305 51.39V47.52C72.6305 46.704 72.8885 46.038 73.4045 45.522C73.9205 45.006 74.6045 44.748 75.4565 44.748C76.3205 44.748 77.0105 45.006 77.5265 45.522C78.0425 46.038 78.3005 46.704 78.3005 47.52V51.39C78.3005 52.218 78.0425 52.884 77.5265 53.388C77.0105 53.892 76.3205 54.144 75.4565 54.144ZM75.4565 53.01C75.9125 53.01 76.2845 52.854 76.5725 52.542C76.8725 52.23 77.0225 51.816 77.0225 51.3V47.592C77.0225 47.076 76.8725 46.662 76.5725 46.35C76.2845 46.026 75.9125 45.864 75.4565 45.864C75.0005 45.864 74.6285 46.026 74.3405 46.35C74.0525 46.662 73.9085 47.076 73.9085 47.592V51.3C73.9085 51.816 74.0525 52.23 74.3405 52.542C74.6285 52.854 75.0005 53.01 75.4565 53.01ZM84.4572 45.072C84.4572 44.952 84.5172 44.892 84.6372 44.892H85.5552C85.6752 44.892 85.7352 44.952 85.7352 45.072V53.82C85.7352 53.94 85.6752 54 85.5552 54H84.6372C84.5172 54 84.4572 53.94 84.4572 53.82V53.208C84.4572 53.172 84.4452 53.154 84.4212 53.154C84.4092 53.154 84.3912 53.166 84.3672 53.19C83.9952 53.814 83.3952 54.126 82.5672 54.126C81.8472 54.126 81.2712 53.91 80.8392 53.478C80.4192 53.034 80.2092 52.368 80.2092 51.48V45.072C80.2092 44.952 80.2692 44.892 80.3892 44.892H81.3072C81.4272 44.892 81.4872 44.952 81.4872 45.072V51.192C81.4872 51.792 81.6072 52.248 81.8472 52.56C82.0992 52.86 82.4592 53.01 82.9272 53.01C83.4072 53.01 83.7792 52.836 84.0432 52.488C84.3192 52.14 84.4572 51.666 84.4572 51.066V45.072ZM91.0061 44.802C91.3061 44.802 91.5641 44.868 91.7801 45C91.8641 45.048 91.8941 45.126 91.8701 45.234L91.6541 46.17C91.6421 46.278 91.5701 46.314 91.4381 46.278C91.2941 46.206 91.1141 46.17 90.8981 46.17C90.8021 46.17 90.7301 46.176 90.6821 46.188C90.2501 46.212 89.8961 46.44 89.6201 46.872C89.3441 47.292 89.2061 47.808 89.2061 48.42V53.82C89.2061 53.94 89.1461 54 89.0261 54H88.1081C87.9881 54 87.9281 53.94 87.9281 53.82V45.072C87.9281 44.952 87.9881 44.892 88.1081 44.892H89.0261C89.1461 44.892 89.2061 44.952 89.2061 45.072V46.152C89.2061 46.188 89.2121 46.206 89.2241 46.206C89.2481 46.206 89.2721 46.194 89.2961 46.17C89.6441 45.258 90.2141 44.802 91.0061 44.802ZM99.1275 54C99.0195 54 98.9535 53.946 98.9295 53.838L96.3195 41.598V41.562C96.3195 41.454 96.3735 41.4 96.4815 41.4H97.4895C97.6095 41.4 97.6755 41.454 97.6875 41.562L99.6315 51.624C99.6435 51.648 99.6555 51.66 99.6675 51.66C99.6795 51.66 99.6915 51.648 99.7035 51.624L101.629 41.562C101.653 41.454 101.719 41.4 101.827 41.4H102.799C102.931 41.4 102.985 41.466 102.961 41.598L100.351 53.838C100.339 53.946 100.273 54 100.153 54H99.1275ZM107.116 44.748C107.956 44.748 108.628 45.024 109.132 45.576C109.636 46.116 109.888 46.842 109.888 47.754V53.82C109.888 53.94 109.828 54 109.708 54H108.79C108.67 54 108.61 53.94 108.61 53.82V53.28C108.61 53.256 108.598 53.244 108.574 53.244C108.562 53.232 108.544 53.238 108.52 53.262C108.076 53.85 107.41 54.144 106.522 54.144C105.862 54.144 105.286 53.958 104.794 53.586C104.314 53.202 104.074 52.53 104.074 51.57C104.074 50.55 104.368 49.806 104.956 49.338C105.544 48.858 106.318 48.618 107.278 48.618H108.538C108.586 48.618 108.61 48.594 108.61 48.546V47.844C108.61 47.244 108.472 46.764 108.196 46.404C107.92 46.044 107.548 45.864 107.08 45.864C106.72 45.864 106.408 45.984 106.144 46.224C105.892 46.464 105.742 46.77 105.694 47.142C105.694 47.262 105.634 47.322 105.514 47.322L104.506 47.304C104.446 47.304 104.398 47.286 104.362 47.25C104.338 47.214 104.332 47.172 104.344 47.124C104.404 46.416 104.692 45.846 105.208 45.414C105.724 44.97 106.36 44.748 107.116 44.748ZM106.792 53.028C107.284 53.028 107.71 52.872 108.07 52.56C108.43 52.236 108.61 51.792 108.61 51.228V49.716C108.61 49.668 108.586 49.644 108.538 49.644H107.26C106.684 49.644 106.228 49.8 105.892 50.112C105.556 50.412 105.388 50.862 105.388 51.462C105.388 51.99 105.514 52.386 105.766 52.65C106.03 52.902 106.372 53.028 106.792 53.028ZM114.497 54.144C113.645 54.144 112.961 53.892 112.445 53.388C111.941 52.884 111.689 52.218 111.689 51.39V47.502C111.689 46.686 111.947 46.026 112.463 45.522C112.979 45.006 113.657 44.748 114.497 44.748C115.061 44.748 115.559 44.862 115.991 45.09C116.423 45.318 116.753 45.624 116.981 46.008C117.221 46.38 117.341 46.794 117.341 47.25V47.43C117.341 47.55 117.281 47.61 117.161 47.61L116.243 47.646C116.123 47.646 116.063 47.586 116.063 47.466V47.34C116.063 46.944 115.913 46.602 115.613 46.314C115.325 46.014 114.953 45.864 114.497 45.864C114.041 45.864 113.669 46.026 113.381 46.35C113.105 46.662 112.967 47.076 112.967 47.592V51.3C112.967 51.816 113.105 52.236 113.381 52.56C113.669 52.872 114.041 53.028 114.497 53.028C114.953 53.028 115.325 52.884 115.613 52.596C115.913 52.296 116.063 51.948 116.063 51.552V51.426C116.063 51.306 116.123 51.246 116.243 51.246L117.161 51.264C117.281 51.264 117.341 51.324 117.341 51.444V51.642C117.341 52.362 117.077 52.962 116.549 53.442C116.033 53.91 115.349 54.144 114.497 54.144ZM121.793 44.748C122.633 44.748 123.305 45.024 123.809 45.576C124.313 46.116 124.565 46.842 124.565 47.754V53.82C124.565 53.94 124.505 54 124.385 54H123.467C123.347 54 123.287 53.94 123.287 53.82V53.28C123.287 53.256 123.275 53.244 123.251 53.244C123.239 53.232 123.221 53.238 123.197 53.262C122.753 53.85 122.087 54.144 121.199 54.144C120.539 54.144 119.963 53.958 119.471 53.586C118.991 53.202 118.751 52.53 118.751 51.57C118.751 50.55 119.045 49.806 119.633 49.338C120.221 48.858 120.995 48.618 121.955 48.618H123.215C123.263 48.618 123.287 48.594 123.287 48.546V47.844C123.287 47.244 123.149 46.764 122.873 46.404C122.597 46.044 122.225 45.864 121.757 45.864C121.397 45.864 121.085 45.984 120.821 46.224C120.569 46.464 120.419 46.77 120.371 47.142C120.371 47.262 120.311 47.322 120.191 47.322L119.183 47.304C119.123 47.304 119.075 47.286 119.039 47.25C119.015 47.214 119.009 47.172 119.021 47.124C119.081 46.416 119.369 45.846 119.885 45.414C120.401 44.97 121.037 44.748 121.793 44.748ZM121.469 53.028C121.961 53.028 122.387 52.872 122.747 52.56C123.107 52.236 123.287 51.792 123.287 51.228V49.716C123.287 49.668 123.263 49.644 123.215 49.644H121.937C121.361 49.644 120.905 49.8 120.569 50.112C120.233 50.412 120.065 50.862 120.065 51.462C120.065 51.99 120.191 52.386 120.443 52.65C120.707 52.902 121.049 53.028 121.469 53.028ZM129.769 45.666C129.769 45.786 129.709 45.846 129.589 45.846H128.221C128.173 45.846 128.149 45.87 128.149 45.918V51.426C128.149 51.978 128.245 52.362 128.437 52.578C128.629 52.782 128.923 52.878 129.319 52.866H129.499C129.619 52.866 129.679 52.926 129.679 53.046V53.82C129.679 53.94 129.619 54 129.499 54H129.049C128.341 54 127.801 53.85 127.429 53.55C127.069 53.238 126.889 52.656 126.889 51.804V45.918C126.889 45.87 126.865 45.846 126.817 45.846H126.115C125.995 45.846 125.935 45.786 125.935 45.666V45.072C125.935 44.952 125.995 44.892 126.115 44.892H126.817C126.865 44.892 126.889 44.868 126.889 44.82V42.804C126.889 42.684 126.949 42.624 127.069 42.624H127.969C128.089 42.624 128.149 42.684 128.149 42.804V44.82C128.149 44.868 128.173 44.892 128.221 44.892H129.589C129.709 44.892 129.769 44.952 129.769 45.072V45.666ZM132.138 43.236C131.838 43.236 131.592 43.14 131.4 42.948C131.22 42.756 131.13 42.516 131.13 42.228C131.13 41.928 131.22 41.688 131.4 41.508C131.592 41.316 131.838 41.22 132.138 41.22C132.426 41.22 132.66 41.316 132.84 41.508C133.032 41.688 133.128 41.928 133.128 42.228C133.128 42.516 133.032 42.756 132.84 42.948C132.66 43.14 132.426 43.236 132.138 43.236ZM131.688 54C131.568 54 131.508 53.94 131.508 53.82V45.072C131.508 44.952 131.568 44.892 131.688 44.892H132.606C132.726 44.892 132.786 44.952 132.786 45.072V53.82C132.786 53.94 132.726 54 132.606 54H131.688ZM137.736 54.144C136.872 54.144 136.182 53.892 135.666 53.388C135.162 52.884 134.91 52.218 134.91 51.39V47.52C134.91 46.704 135.168 46.038 135.684 45.522C136.2 45.006 136.884 44.748 137.736 44.748C138.6 44.748 139.29 45.006 139.806 45.522C140.322 46.038 140.58 46.704 140.58 47.52V51.39C140.58 52.218 140.322 52.884 139.806 53.388C139.29 53.892 138.6 54.144 137.736 54.144ZM137.736 53.01C138.192 53.01 138.564 52.854 138.852 52.542C139.152 52.23 139.302 51.816 139.302 51.3V47.592C139.302 47.076 139.152 46.662 138.852 46.35C138.564 46.026 138.192 45.864 137.736 45.864C137.28 45.864 136.908 46.026 136.62 46.35C136.332 46.662 136.188 47.076 136.188 47.592V51.3C136.188 51.816 136.332 52.23 136.62 52.542C136.908 52.854 137.28 53.01 137.736 53.01ZM145.818 44.766C146.55 44.766 147.114 45.018 147.51 45.522C147.918 46.026 148.122 46.728 148.122 47.628V53.82C148.122 53.94 148.062 54 147.942 54H147.024C146.904 54 146.844 53.94 146.844 53.82V47.736C146.844 47.148 146.712 46.692 146.448 46.368C146.196 46.044 145.842 45.882 145.386 45.882C144.906 45.882 144.528 46.056 144.252 46.404C143.988 46.752 143.856 47.226 143.856 47.826V53.82C143.856 53.94 143.796 54 143.676 54H142.758C142.638 54 142.578 53.94 142.578 53.82V45.072C142.578 44.952 142.638 44.892 142.758 44.892H143.676C143.796 44.892 143.856 44.952 143.856 45.072V45.648C143.856 45.672 143.868 45.69 143.892 45.702C143.916 45.714 143.934 45.702 143.946 45.666C144.162 45.366 144.432 45.144 144.756 45C145.092 44.844 145.446 44.766 145.818 44.766ZM159.049 41.58C159.049 41.46 159.109 41.4 159.229 41.4H160.129C160.249 41.4 160.309 41.46 160.309 41.58V53.82C160.309 53.94 160.249 54 160.129 54H159.067C158.971 54 158.905 53.952 158.869 53.856L155.359 44.55C155.347 44.514 155.329 44.502 155.305 44.514C155.281 44.514 155.269 44.532 155.269 44.568L155.287 53.82C155.287 53.94 155.227 54 155.107 54H154.189C154.069 54 154.009 53.94 154.009 53.82V41.58C154.009 41.46 154.069 41.4 154.189 41.4H155.233C155.329 41.4 155.395 41.448 155.431 41.544L158.959 50.868C158.971 50.904 158.989 50.922 159.013 50.922C159.037 50.91 159.049 50.886 159.049 50.85V41.58ZM165.316 54.144C164.452 54.144 163.762 53.892 163.246 53.388C162.742 52.884 162.49 52.218 162.49 51.39V47.52C162.49 46.704 162.748 46.038 163.264 45.522C163.78 45.006 164.464 44.748 165.316 44.748C166.18 44.748 166.87 45.006 167.386 45.522C167.902 46.038 168.16 46.704 168.16 47.52V51.39C168.16 52.218 167.902 52.884 167.386 53.388C166.87 53.892 166.18 54.144 165.316 54.144ZM165.316 53.01C165.772 53.01 166.144 52.854 166.432 52.542C166.732 52.23 166.882 51.816 166.882 51.3V47.592C166.882 47.076 166.732 46.662 166.432 46.35C166.144 46.026 165.772 45.864 165.316 45.864C164.86 45.864 164.488 46.026 164.2 46.35C163.912 46.662 163.768 47.076 163.768 47.592V51.3C163.768 51.816 163.912 52.23 164.2 52.542C164.488 52.854 164.86 53.01 165.316 53.01ZM171.352 54C171.244 54 171.178 53.946 171.154 53.838L169.246 45.09V45.054C169.246 44.946 169.3 44.892 169.408 44.892H170.29C170.41 44.892 170.476 44.946 170.488 45.054L171.784 51.93C171.796 51.954 171.808 51.966 171.82 51.966C171.832 51.966 171.844 51.954 171.856 51.93L173.188 45.054C173.212 44.946 173.278 44.892 173.386 44.892H174.196C174.316 44.892 174.382 44.946 174.394 45.054L175.726 51.93C175.738 51.954 175.75 51.966 175.762 51.966C175.774 51.966 175.786 51.954 175.798 51.93L177.13 45.054C177.154 44.946 177.22 44.892 177.328 44.892L178.192 44.91C178.324 44.91 178.378 44.976 178.354 45.108L176.446 53.838C176.434 53.946 176.368 54 176.248 54H175.33C175.222 54 175.156 53.946 175.132 53.838L173.8 47.25C173.788 47.214 173.776 47.196 173.764 47.196C173.752 47.196 173.74 47.214 173.728 47.25L172.45 53.838C172.438 53.946 172.372 54 172.252 54H171.352ZM180.333 53.964C180.033 53.964 179.787 53.868 179.595 53.676C179.415 53.484 179.325 53.244 179.325 52.956C179.325 52.656 179.415 52.416 179.595 52.236C179.787 52.044 180.033 51.948 180.333 51.948C180.621 51.948 180.861 52.044 181.053 52.236C181.245 52.416 181.341 52.656 181.341 52.956C181.341 53.244 181.245 53.484 181.053 53.676C180.861 53.868 180.621 53.964 180.333 53.964Z" fill="#484751"/>
<path d="M23.224 11.368L18.424 21.76V28H14.584V21.784L9.784 11.368H13.888L16.552 18.76L19.264 11.368H23.224ZM27.8221 14.848C29.6141 14.848 31.0141 15.432 32.0221 16.6C33.0461 17.752 33.5581 19.432 33.5581 21.64C33.5581 23.752 33.0461 25.408 32.0221 26.608C30.9981 27.808 29.5981 28.408 27.8221 28.408C26.0301 28.408 24.6301 27.824 23.6221 26.656C22.6141 25.488 22.1101 23.808 22.1101 21.616C22.1101 19.488 22.6141 17.832 23.6221 16.648C24.6461 15.448 26.0461 14.848 27.8221 14.848ZM27.8221 17.584C27.1661 17.584 26.6861 17.896 26.3821 18.52C26.0781 19.144 25.9261 20.176 25.9261 21.616C25.9261 23.088 26.0781 24.136 26.3821 24.76C26.6861 25.384 27.1661 25.696 27.8221 25.696C28.4781 25.696 28.9581 25.384 29.2621 24.76C29.5821 24.12 29.7421 23.08 29.7421 21.64C29.7421 20.168 29.5901 19.128 29.2861 18.52C28.9821 17.896 28.4941 17.584 27.8221 17.584ZM45.4184 28H42.2024L42.0344 26.464C41.2024 27.76 40.0744 28.408 38.6504 28.408C37.6104 28.408 36.8024 28.064 36.2264 27.376C35.6664 26.688 35.3864 25.76 35.3864 24.592V15.256H39.0824V24.304C39.0824 25.216 39.4024 25.672 40.0424 25.672C40.6664 25.672 41.2264 25.208 41.7224 24.28V15.256H45.4184V28ZM54.4557 14.896C54.8717 14.896 55.2397 14.96 55.5597 15.088L54.9597 18.64C54.6237 18.544 54.2877 18.496 53.9517 18.496C53.2957 18.496 52.7917 18.752 52.4397 19.264C52.0877 19.76 51.8157 20.504 51.6237 21.496V28H47.9277V15.256H51.1677L51.4557 17.488C51.7437 16.656 52.1437 16.016 52.6557 15.568C53.1677 15.12 53.7677 14.896 54.4557 14.896ZM73.3249 11.368L69.2689 28H64.4209L60.1969 11.368H64.1329L66.9169 24.976L69.4849 11.368H73.3249ZM82.7414 24.472C82.7414 24.904 82.7974 25.224 82.9094 25.432C83.0214 25.64 83.2134 25.8 83.4854 25.912L82.7174 28.336C81.9814 28.272 81.3814 28.104 80.9174 27.832C80.4534 27.56 80.0934 27.136 79.8374 26.56C79.0534 27.792 77.9094 28.408 76.4054 28.408C75.2534 28.408 74.3334 28.048 73.6454 27.328C72.9734 26.592 72.6374 25.624 72.6374 24.424C72.6374 23.032 73.1014 21.968 74.0294 21.232C74.9734 20.496 76.3334 20.128 78.1094 20.128H79.1174V19.528C79.1174 18.776 78.9814 18.256 78.7094 17.968C78.4374 17.664 77.9574 17.512 77.2694 17.512C76.4854 17.512 75.4854 17.728 74.2694 18.16L73.4294 15.784C74.1334 15.48 74.8854 15.248 75.6854 15.088C76.4854 14.928 77.2294 14.848 77.9174 14.848C79.5654 14.848 80.7814 15.216 81.5654 15.952C82.3494 16.688 82.7414 17.808 82.7414 19.312V24.472ZM77.5094 25.768C77.8454 25.768 78.1494 25.664 78.4214 25.456C78.7094 25.248 78.9414 24.952 79.1174 24.568V22.192H78.4454C77.6934 22.192 77.1414 22.352 76.7894 22.672C76.4374 22.976 76.2614 23.456 76.2614 24.112C76.2614 24.656 76.3654 25.072 76.5734 25.36C76.7974 25.632 77.1094 25.768 77.5094 25.768ZM90.5191 14.848C91.3191 14.848 92.0391 14.976 92.6791 15.232C93.3191 15.488 93.9191 15.88 94.4791 16.408L92.9431 18.52C92.5751 18.232 92.2231 18.024 91.8871 17.896C91.5511 17.752 91.1911 17.68 90.8071 17.68C90.0711 17.68 89.5191 17.984 89.1511 18.592C88.7831 19.2 88.5991 20.24 88.5991 21.712C88.5991 23.12 88.7831 24.104 89.1511 24.664C89.5351 25.224 90.0791 25.504 90.7831 25.504C91.1511 25.504 91.4871 25.448 91.7911 25.336C92.0951 25.208 92.4551 25 92.8711 24.712L94.4791 26.896C93.3751 27.904 92.0711 28.408 90.5671 28.408C88.7431 28.408 87.3111 27.824 86.2711 26.656C85.2471 25.488 84.7351 23.848 84.7351 21.736C84.7351 20.344 84.9671 19.128 85.4311 18.088C85.9111 17.048 86.5831 16.248 87.4471 15.688C88.3271 15.128 89.3511 14.848 90.5191 14.848ZM104.89 24.472C104.89 24.904 104.946 25.224 105.058 25.432C105.17 25.64 105.362 25.8 105.634 25.912L104.866 28.336C104.13 28.272 103.53 28.104 103.066 27.832C102.602 27.56 102.242 27.136 101.986 26.56C101.202 27.792 100.058 28.408 98.5538 28.408C97.4018 28.408 96.4818 28.048 95.7938 27.328C95.1218 26.592 94.7858 25.624 94.7858 24.424C94.7858 23.032 95.2498 21.968 96.1778 21.232C97.1218 20.496 98.4818 20.128 100.258 20.128H101.266V19.528C101.266 18.776 101.13 18.256 100.858 17.968C100.586 17.664 100.106 17.512 99.4178 17.512C98.6338 17.512 97.6338 17.728 96.4178 18.16L95.5778 15.784C96.2818 15.48 97.0338 15.248 97.8338 15.088C98.6338 14.928 99.3778 14.848 100.066 14.848C101.714 14.848 102.93 15.216 103.714 15.952C104.498 16.688 104.89 17.808 104.89 19.312V24.472ZM99.6578 25.768C99.9938 25.768 100.298 25.664 100.57 25.456C100.858 25.248 101.09 24.952 101.266 24.568V22.192H100.594C99.8418 22.192 99.2898 22.352 98.9378 22.672C98.5858 22.976 98.4098 23.456 98.4098 24.112C98.4098 24.656 98.5138 25.072 98.7218 25.36C98.9458 25.632 99.2578 25.768 99.6578 25.768ZM114.876 27.4C114.444 27.72 113.94 27.968 113.364 28.144C112.804 28.32 112.236 28.408 111.66 28.408C110.364 28.408 109.388 28.04 108.732 27.304C108.076 26.568 107.748 25.536 107.748 24.208V17.824H106.212V15.256H107.748V12.496L111.444 12.064V15.256H114.06L113.676 17.824H111.444V24.16C111.444 25.04 111.78 25.48 112.452 25.48C112.82 25.48 113.22 25.36 113.652 25.12L114.876 27.4ZM119.569 15.256V28H115.873V15.256H119.569ZM117.697 8.608C118.321 8.608 118.833 8.808 119.233 9.208C119.649 9.608 119.857 10.104 119.857 10.696C119.857 11.304 119.649 11.808 119.233 12.208C118.833 12.608 118.321 12.808 117.697 12.808C117.073 12.808 116.561 12.608 116.161 12.208C115.761 11.808 115.561 11.304 115.561 10.696C115.561 10.104 115.761 9.608 116.161 9.208C116.561 8.808 117.073 8.608 117.697 8.608ZM127.244 14.848C129.036 14.848 130.436 15.432 131.444 16.6C132.468 17.752 132.98 19.432 132.98 21.64C132.98 23.752 132.468 25.408 131.444 26.608C130.42 27.808 129.02 28.408 127.244 28.408C125.452 28.408 124.052 27.824 123.044 26.656C122.036 25.488 121.532 23.808 121.532 21.616C121.532 19.488 122.036 17.832 123.044 16.648C124.068 15.448 125.468 14.848 127.244 14.848ZM127.244 17.584C126.588 17.584 126.108 17.896 125.804 18.52C125.5 19.144 125.348 20.176 125.348 21.616C125.348 23.088 125.5 24.136 125.804 24.76C126.108 25.384 126.588 25.696 127.244 25.696C127.9 25.696 128.38 25.384 128.684 24.76C129.004 24.12 129.164 23.08 129.164 21.64C129.164 20.168 129.012 19.128 128.708 18.52C128.404 17.896 127.916 17.584 127.244 17.584ZM141.864 14.848C142.856 14.848 143.632 15.184 144.192 15.856C144.768 16.512 145.056 17.416 145.056 18.568V28H141.36V19.072C141.36 18.544 141.28 18.176 141.12 17.968C140.976 17.744 140.752 17.632 140.448 17.632C140.128 17.632 139.816 17.768 139.512 18.04C139.224 18.296 138.92 18.68 138.6 19.192V28H134.904V15.256H138.144L138.408 16.768C138.872 16.128 139.384 15.648 139.944 15.328C140.504 15.008 141.144 14.848 141.864 14.848ZM160.57 28L159.826 24.376H155.602L154.858 28H150.97L155.458 11.368H160.066L164.53 28H160.57ZM156.178 21.616H159.25L157.714 14.176L156.178 21.616ZM180.634 15.256L178.306 28H173.938L172.522 18.568L171.106 28H166.786L164.386 15.256H168.01L169.162 25.216L170.842 15.256H174.37L175.882 25.216L177.154 15.256H180.634ZM190.999 24.472C190.999 24.904 191.055 25.224 191.167 25.432C191.279 25.64 191.471 25.8 191.743 25.912L190.975 28.336C190.239 28.272 189.639 28.104 189.175 27.832C188.711 27.56 188.351 27.136 188.095 26.56C187.311 27.792 186.167 28.408 184.663 28.408C183.511 28.408 182.591 28.048 181.903 27.328C181.231 26.592 180.895 25.624 180.895 24.424C180.895 23.032 181.359 21.968 182.287 21.232C183.231 20.496 184.591 20.128 186.367 20.128H187.375V19.528C187.375 18.776 187.239 18.256 186.967 17.968C186.695 17.664 186.215 17.512 185.527 17.512C184.743 17.512 183.743 17.728 182.527 18.16L181.687 15.784C182.391 15.48 183.143 15.248 183.943 15.088C184.743 14.928 185.487 14.848 186.175 14.848C187.823 14.848 189.039 15.216 189.823 15.952C190.607 16.688 190.999 17.808 190.999 19.312V24.472ZM185.767 25.768C186.103 25.768 186.407 25.664 186.679 25.456C186.967 25.248 187.199 24.952 187.375 24.568V22.192H186.703C185.951 22.192 185.399 22.352 185.047 22.672C184.695 22.976 184.519 23.456 184.519 24.112C184.519 24.656 184.623 25.072 184.831 25.36C185.055 25.632 185.367 25.768 185.767 25.768ZM197.241 15.256V28H193.545V15.256H197.241ZM195.369 8.608C195.993 8.608 196.505 8.808 196.905 9.208C197.321 9.608 197.529 10.104 197.529 10.696C197.529 11.304 197.321 11.808 196.905 12.208C196.505 12.608 195.993 12.808 195.369 12.808C194.745 12.808 194.233 12.608 193.833 12.208C193.433 11.808 193.233 11.304 193.233 10.696C193.233 10.104 193.433 9.608 193.833 9.208C194.233 8.808 194.745 8.608 195.369 8.608ZM207.196 27.4C206.764 27.72 206.26 27.968 205.684 28.144C205.124 28.32 204.556 28.408 203.98 28.408C202.684 28.408 201.708 28.04 201.052 27.304C200.396 26.568 200.068 25.536 200.068 24.208V17.824H198.532V15.256H200.068V12.496L203.764 12.064V15.256H206.38L205.996 17.824H203.764V24.16C203.764 25.04 204.1 25.48 204.772 25.48C205.14 25.48 205.54 25.36 205.972 25.12L207.196 27.4ZM212.345 14.848C213.193 14.848 213.985 14.984 214.721 15.256C215.457 15.528 216.105 15.912 216.665 16.408L215.321 18.424C214.361 17.8 213.457 17.488 212.609 17.488C212.161 17.488 211.817 17.584 211.577 17.776C211.337 17.952 211.217 18.2 211.217 18.52C211.217 18.76 211.273 18.968 211.385 19.144C211.513 19.304 211.745 19.472 212.081 19.648C212.417 19.808 212.921 20.008 213.593 20.248C214.777 20.648 215.649 21.152 216.209 21.76C216.785 22.368 217.073 23.192 217.073 24.232C217.073 25.512 216.585 26.528 215.609 27.28C214.633 28.032 213.385 28.408 211.865 28.408C210.889 28.408 209.977 28.24 209.129 27.904C208.297 27.568 207.585 27.112 206.993 26.536L208.745 24.568C209.737 25.368 210.729 25.768 211.721 25.768C212.217 25.768 212.601 25.664 212.873 25.456C213.161 25.232 213.305 24.928 213.305 24.544C213.305 24.24 213.241 23.992 213.113 23.8C213.001 23.608 212.777 23.424 212.441 23.248C212.121 23.072 211.617 22.864 210.929 22.624C209.761 22.224 208.905 21.72 208.361 21.112C207.833 20.488 207.569 19.704 207.569 18.76C207.569 18.024 207.761 17.36 208.145 16.768C208.529 16.176 209.081 15.712 209.801 15.376C210.521 15.024 211.369 14.848 212.345 14.848ZM222.173 11.368L221.669 21.904H218.765L218.261 11.368H222.173ZM220.229 24.16C220.821 24.16 221.317 24.368 221.717 24.784C222.117 25.2 222.317 25.696 222.317 26.272C222.317 26.864 222.117 27.368 221.717 27.784C221.333 28.2 220.837 28.408 220.229 28.408C219.621 28.408 219.117 28.2 218.717 27.784C218.317 27.368 218.117 26.864 218.117 26.272C218.117 25.696 218.317 25.2 218.717 24.784C219.117 24.368 219.621 24.16 220.229 24.16Z" fill="#484751"/>
<mask id="mask0" mask-type="alpha" maskUnits="userSpaceOnUse" x="263" y="0" width="128" height="63">
<path d="M263 0H391V63H263V0Z" fill="#31C02E"/>
</mask>
<g mask="url(#mask0)">
<path d="M296.842 -8.20184C294.863 2.43622 292.796 13.1657 289.223 23.3834C288.354 25.8551 286.044 31.4376 287.873 34.0401C288.519 34.9568 289.691 35.1752 290.863 35.4385C287.595 36.0368 284.359 36.7842 281.281 37.993C280.82 38.1811 280.769 38.6762 280.94 39.0025C280.94 39.0175 280.94 39.0325 280.941 39.0474C283.579 48.2991 284.547 57.9254 287.245 67.1609C288.905 72.8213 291.624 81.5624 298.482 82.3516C301.438 82.6874 304.633 81.3268 307.403 80.5129C312.975 78.8845 318.578 77.3904 324.15 75.8069C335.279 72.6403 346.263 68.8924 357.169 65.041C362.08 63.3048 366.958 61.4494 371.868 59.7132C373.073 59.2871 374.802 58.8365 374.503 57.1947C373.851 53.4627 371.348 50.0339 370.042 46.5235C368.263 41.7487 366.529 36.9283 364.78 32.138C368.182 27.3294 368.965 20.1422 369.942 14.5389C370.308 12.4208 370.485 9.82693 368.441 8.56114C365.942 6.98913 361.963 7.25585 359.121 6.58853C348.457 4.02628 337.808 1.46376 327.062 -0.737584C321.996 -1.76896 316.916 -2.80008 312.005 -4.41827C307.199 -5.99345 302.582 -7.91647 297.538 -8.61878C297.238 -8.65826 296.911 -8.53254 296.842 -8.20184ZM288.524 31.1231C288.576 29.8643 289.014 28.4188 289.278 27.2909C289.96 24.4183 291.138 21.6566 292.061 18.8695C292.969 16.1127 293.576 13.2415 294.214 10.3997C295.403 10.7675 296.607 11.105 297.796 11.413C296.656 11.3138 295.517 11.2446 294.393 11.22C293.989 11.2124 293.896 11.8879 294.301 11.9405C305.775 13.7393 316.514 17.1538 327.681 20.2161C328.298 20.3846 328.521 19.4671 327.918 19.2683C322.616 17.5524 317.085 15.601 311.471 14.0555C316.742 14.8435 322.054 15.4811 327.313 16.4341C332.811 17.4277 338.225 18.6774 343.778 19.3555C345.429 19.5502 347.094 19.7147 348.757 19.7445C349.581 19.7595 350.895 19.586 351.871 19.718C348.623 20.6304 345.413 21.9615 342.241 22.9324C336.656 24.6658 331.021 26.0706 325.34 27.4314C319.123 28.9067 312.986 30.755 306.801 32.3495C306.753 32.2006 306.646 32.0678 306.465 32.0261C303.863 31.3844 301.076 31.2852 298.435 30.9586C297.894 30.8935 297.669 31.6613 298.225 31.786C300.36 32.2715 302.582 32.5906 304.773 32.8505C304.401 32.9471 304.028 33.0437 303.655 33.1253C301.568 33.6273 299.433 34.0104 297.283 34.3638C297.339 34.1382 297.244 33.8554 296.958 33.7557C294.351 32.8895 291.425 30.861 288.524 31.1231ZM290.523 33.9771C289.231 33.7609 288.708 32.9917 288.57 31.9909C291.297 32.0912 293.604 33.8015 296.179 34.5635C295.148 34.7319 294.103 34.9006 293.073 35.069C292.299 34.514 291.514 34.1388 290.523 33.9771ZM307.069 79.3808C303.656 80.3261 299.824 82.0278 296.338 80.5785C303.837 81.2064 311.393 77.5504 318.298 75.1342C328.669 71.5022 339.376 68.9871 349.667 65.0271C350.336 64.7754 350.063 63.7321 349.348 63.9397C344.134 65.4567 339.049 67.4656 333.899 69.1912C329.21 70.7586 324.408 71.8639 319.703 73.3567C311.99 75.8025 303.585 80.5221 295.254 79.4001C295.029 79.3743 294.851 79.4673 294.734 79.6192C291.284 76.8365 289.627 70.5321 288.467 66.8094C287.131 62.5358 286.244 58.1642 285.4 53.7768C298.667 50.4068 312.21 48.2148 325.443 44.6956C331.763 43.0238 337.985 40.9943 344.241 39.1289C345.716 47.8326 349.475 56.9291 353.095 64.965C337.885 70.1672 322.624 75.0409 307.069 79.3808ZM371.517 58.5216C365.655 60.6045 359.792 62.6574 353.943 64.6651C353.832 64.3077 353.736 63.9651 353.624 63.6077C360.258 61.9601 366.798 59.251 373.054 56.577C373.129 57.3992 372.767 58.0797 371.517 58.5216ZM369.185 48.0065C369.861 49.7613 370.745 51.4375 371.584 53.1294C372.004 53.9904 372.529 54.8494 372.828 55.6526C366.262 57.7333 359.888 60.5142 353.355 62.774C352.214 59.3055 350.819 55.9015 349.574 52.4648C347.935 47.9571 346.699 43.3822 345.298 38.8103C351.54 36.9901 357.734 35.8596 364.106 34.6361C364.166 34.62 364.21 34.6042 364.255 34.5735C365.923 39.0507 367.487 43.5598 369.185 48.0065ZM363.564 32.8339C363.643 33.0421 363.722 33.2504 363.8 33.4586C363.77 33.4591 363.755 33.4594 363.725 33.46C357.203 34.6413 350.92 35.8333 344.544 37.6858C338.05 39.5855 331.603 41.6639 325.062 43.4746C311.905 47.1122 298.36 49.1844 285.171 52.6729C284.295 48.1214 283.418 43.5549 282.11 39.1161C286.662 37.4463 291.561 36.7586 296.325 36.0134C301.954 35.1328 307.483 33.6549 312.982 32.1627C323.741 29.2424 334.613 26.7843 345.26 23.4467C349.206 22.2072 353.303 20.2312 357.478 20.0807C360.681 19.9628 360.891 23.2984 361.275 25.5077C361.675 27.7168 362.448 29.8891 363.25 32.016C363.166 32.347 363.337 32.6584 363.564 32.8339ZM364.227 30.5308C363.479 28.1184 363.145 25.3691 362.337 22.9428C363.739 23.4714 365.244 23.8635 366.643 24.2425C366.085 26.4988 365.346 28.6836 364.227 30.5308ZM300.894 -6.88256C307.479 -5.42947 313.701 -2.5322 320.289 -0.974314C333.568 2.13955 346.902 4.98289 360.168 8.20182C361.988 8.64806 363.892 8.76333 365.725 9.1045C370.008 9.91046 368.716 13.8124 368.1 17.0431C367.745 18.9214 367.394 21.0243 366.907 23.1146C365.206 22.6213 363.514 21.7983 361.757 21.5157C361.617 21.2038 361.461 20.8921 361.291 20.5957C359.961 18.2837 356.749 18.6563 354.6 19.0696C354.152 19.1526 353.705 19.2655 353.257 19.3635C353.24 19.259 353.194 19.17 353.133 19.0962C352.322 18.1525 349.155 18.5692 348.031 18.5297C342.068 18.3682 336.038 16.9649 330.205 15.7527C318.316 13.2876 306.147 12.8041 294.506 9.16642C294.491 9.1667 294.476 9.16697 294.461 9.16724C294.489 9.06191 294.502 8.97181 294.53 8.86648C295.225 5.85893 295.873 2.82224 296.493 -0.198923C296.851 -1.91255 297.179 -3.64061 297.492 -5.36839C297.943 -7.77253 298.819 -7.33916 300.894 -6.88256Z" fill="#484751"/>
<path d="M307.626 38.1757C307.676 37.6207 306.907 37.38 306.555 37.7608C305.218 39.1926 304.148 40.4699 302.347 41.0566C302.409 38.6745 301.794 36.1399 298.813 36.9426C298.545 37.0223 298.34 37.2956 298.345 37.58C298.483 40.1981 298.498 42.6987 295.599 43.8743C294.767 44.2188 294.344 44.8255 293.953 45.5963C293.939 45.6414 293.925 45.6866 293.911 45.7318C293.482 46.0091 293.795 46.7821 294.392 46.6815C298.185 46.0737 301.24 49.4027 305.001 47.8521C305.402 47.6801 305.617 47.167 305.252 46.8292C304.521 46.1536 304.21 45.5153 303.79 44.6544C303.541 44.1497 308.951 44.3662 309.266 44.4204C309.777 44.516 310.232 43.9986 309.939 43.5098C308.857 41.6575 307.414 40.5306 307.626 38.1757ZM308.193 43.0322C306.288 42.8571 304.54 43.0834 302.668 43.926C302.356 44.0664 302.319 44.5013 302.459 44.7534C302.907 45.5239 303.25 46.2515 303.741 46.9315C300.996 47.4754 298.385 45.5759 295.569 45.4921C296.85 44.3158 299.128 44.4094 299.569 42.3199C299.83 41.0123 299.793 39.8 299.679 38.4693C300.759 38.5247 301.232 39.0402 301.056 40.0467C301.112 40.6597 301.048 41.2898 300.984 41.9049C300.948 42.3698 301.446 42.5854 301.819 42.5187C303.909 42.1514 305.163 41.0805 306.455 39.6943C306.718 40.9625 307.424 41.923 308.193 43.0322Z" fill="#484751"/>
<path d="M307.956 2.63382C308.386 2.38644 308.972 1.65703 308.947 1.10341C308.839 -0.691634 307.255 -1.32185 305.663 -1.59251C305.453 -1.63362 305.214 -1.59934 305.067 -1.41699C303.632 0.346098 302.16 1.79536 299.733 1.73449C298.775 1.70694 298.265 2.50983 297.828 3.20659C297.785 3.26728 297.771 3.32743 297.757 3.38758C297.384 3.48418 297.319 4.02446 297.756 4.18126C300.379 5.15205 302.719 6.15792 302.254 9.46081C302.201 9.8062 302.341 10.1331 302.703 10.2314C303.846 10.5401 304.957 10.6548 306.135 10.4238C306.494 10.3574 306.621 9.95077 306.556 9.65245C305.824 5.62249 309.04 6.28302 310.818 8.49707C311.17 8.93994 311.962 8.83575 311.95 8.1621C311.912 6.09624 312.076 4.38614 313.045 2.51169C313.349 1.93714 312.727 1.45424 312.207 1.70325C311.731 1.90654 311.257 2.15474 310.797 2.40266C310.397 2.6495 306.163 3.69955 307.956 2.63382ZM311.384 3.38038C310.999 4.48051 310.825 5.57684 310.771 6.73088C308.125 4.54753 304.934 5.27921 305.276 9.28628C304.678 9.32707 304.108 9.26252 303.521 9.13836C303.633 6.18629 301.832 4.33207 299.079 3.61821C299.991 2.7032 302.302 3.02073 303.394 2.10246C303.925 1.65857 305.446 -0.375597 306.167 -0.253881C309.17 0.230814 306.25 1.85607 306.264 2.61954C306.338 5.05911 309.436 4.14942 311.384 3.38038Z" fill="#484751"/>
<path d="M320.189 38.1276C319.889 37.2795 319.589 36.4163 319.259 35.5687C320.109 35.3437 320.958 35.1187 321.824 34.9682C322.705 34.8175 322.306 33.477 321.426 33.6427C320.112 33.8761 318.831 34.2737 317.551 34.6563C316.895 34.8478 316.255 35.0541 315.599 35.2457C315.421 35.2938 315.227 35.3573 315.049 35.4204C314.825 35.4843 314.483 35.6103 314.946 35.542C314.393 35.612 314.378 36.4209 314.962 36.4253C314.678 36.4304 314.903 36.4563 315.068 36.4982C315.279 36.5543 315.517 36.4751 315.726 36.4414C316.368 36.3399 316.994 36.1788 317.62 36.0177C317.814 35.9693 318.007 35.9059 318.201 35.8575C318.318 36.5142 318.509 37.1697 318.701 37.8101C318.972 38.7187 319.146 40.0782 319.714 40.8167C319.99 41.1861 320.604 41.175 320.729 40.6635C320.939 39.8212 320.458 38.9014 320.189 38.1276Z" fill="#484751"/>
<path d="M324.453 32.9589C324.799 35.4834 325.607 37.9546 326.489 40.3346C326.803 41.1675 328.114 40.7993 327.829 39.936C327.038 37.5693 326.305 35.1566 325.454 32.806C325.265 32.3003 324.368 32.3615 324.453 32.9589Z" fill="#484751"/>
<path d="M335.145 36.2247C335.043 35.5527 334.163 35.7633 333.977 36.2459C333.777 36.7736 333.747 37.5828 333.424 37.963C333.336 38.0694 333.425 38.0229 333.305 38.0251C333.35 38.0243 333.184 37.9674 333.003 37.8509C332.124 37.2678 331.409 35.8431 330.971 34.8328C330.549 33.8521 330.015 32.4541 330.236 31.4318C330.305 31.1161 330.379 31.0698 330.723 31.0636C331.472 31.05 332.321 31.6486 332.926 31.9821C333.44 32.2573 334.041 31.5276 333.555 31.1321C332.446 30.2537 330.16 28.8725 329.128 30.6133C328.329 31.9605 329.115 34.0428 329.663 35.3357C330.256 36.7026 331.159 38.5881 332.623 39.2354C334.45 40.0409 335.365 37.6733 335.145 36.2247Z" fill="#484751"/>
<path d="M338.598 32.6277C339.965 32.8875 341.177 33.6293 342.445 34.2202C343.201 34.5809 343.839 33.4612 343.084 33.0856C341.89 32.4932 340.71 31.8557 339.432 31.5494C340.077 30.789 340.768 30.0577 341.383 29.2828C341.939 28.5689 340.933 27.5838 340.362 28.3129C339.572 29.3306 338.796 30.303 338.141 31.3781C338.111 31.3786 338.081 31.3792 338.066 31.3795C337.753 30.6064 337.409 29.834 337.007 29.0925C336.65 28.4101 335.673 29.0268 335.999 29.7097C337.042 31.8772 337.743 34.1856 338.309 36.5114C338.519 37.3612 339.815 36.9783 339.605 36.1286C339.314 34.9658 338.979 33.8188 338.584 32.6879C338.569 32.6732 338.584 32.6579 338.598 32.6277Z" fill="#484751"/>
<path d="M351.211 31.9796C350.172 32.4926 349.296 32.9427 348.176 33.1127C347.95 32.2183 347.739 31.3087 347.528 30.399C348.499 30.2467 349.681 30.2103 350.465 29.657C350.923 29.3342 350.774 28.5283 350.145 28.5547C349.202 28.5867 348.222 29.0238 347.315 29.3696C347.184 28.758 347.068 28.1462 346.967 27.534C347.872 27.0834 348.824 26.7217 349.841 26.6284C350.558 26.5555 350.554 25.4624 349.821 25.5057C348.444 25.5755 347.149 26.0183 345.902 26.6099C345.724 26.703 345.564 26.9754 345.583 27.1847C345.895 29.5002 346.445 31.7664 347.01 34.0473C347.075 34.3307 347.378 34.5348 347.663 34.5297C349.114 34.4435 351.144 34.0923 351.989 32.7891C352.353 32.2284 351.686 31.7464 351.211 31.9796Z" fill="#484751"/>
<path d="M357.727 24.7037C358.278 24.529 358.337 23.6294 357.706 23.5061C356.819 23.3425 355.838 23.7496 354.989 24.0045C354.14 24.2595 352.695 24.6301 352.291 25.521C352.162 25.7929 352.319 26.2243 352.693 26.1875C353.395 26.1149 354.123 25.7873 354.807 25.5353C354.594 27.8153 355.694 29.8619 356.498 32.0487C356.813 32.9115 358.183 32.4974 357.853 31.6498C357.051 29.5079 355.876 27.5076 355.909 25.1859C356.506 25.0403 357.132 24.8942 357.727 24.7037Z" fill="#484751"/>
<path d="M322.37 3.93036C323.194 3.97533 324.019 4.05024 324.815 4.18557C325.086 6.75635 324.413 9.25438 324.19 11.8191C324.115 12.6441 325.387 12.6061 325.477 11.7958C325.733 9.39519 326.465 6.83619 325.943 4.44967C326.365 4.5768 326.786 4.71892 327.194 4.89124C328.009 5.25084 328.691 4.05547 327.876 3.68089C326.139 2.87375 324.248 2.63845 322.348 2.76271C321.585 2.80647 321.62 3.88404 322.37 3.93036Z" fill="#484751"/>
<path d="M331.045 5.0458C330.055 7.39983 329.348 9.70379 329.049 12.2549C328.945 13.1254 330.322 13.1004 330.412 12.2302C330.64 9.93496 331.196 7.57383 331.814 5.34634C331.941 4.8948 331.232 4.59317 331.045 5.0458Z" fill="#484751"/>
<path d="M339.591 12.1688C339.49 11.5417 338.639 11.7068 338.469 12.1891C338.255 12.8219 338.116 13.3785 337.361 13.0478C336.486 12.6743 335.915 11.7861 335.675 10.892C335.353 9.65488 336.035 8.48945 336.934 7.6795C337.199 7.4351 337.658 7.12729 338.048 7.18012C338.634 7.25937 338.875 8.15351 339.003 8.61541C339.162 9.15161 340.074 9.04526 340.003 8.46251C339.882 7.53627 339.658 6.73168 338.869 6.17692C338.247 5.73894 337.426 5.91852 336.803 6.19937C335.079 6.96435 334.04 9.12458 334.298 10.9319C334.536 12.4999 335.594 13.8734 337.086 14.4304C338.594 14.9722 339.843 13.6617 339.591 12.1688Z" fill="#484751"/>
<path d="M343.389 6.12544C343.112 7.37337 342.88 8.62049 342.648 9.86761C342.531 10.0045 342.489 10.1999 342.553 10.3785C342.196 12.1969 341.81 14.0009 341.168 15.7646C340.968 16.3223 341.858 16.6506 342.118 16.1517C342.886 14.7301 343.353 13.2242 343.714 11.6902C345.092 13.3275 346.13 15.2554 347.64 16.7854C348.266 17.418 349.236 16.4121 348.596 15.7948C347.238 14.4417 346.25 12.7973 345.026 11.352C345.1 11.2758 345.188 11.1993 345.291 11.1225C345.691 10.8458 346.136 10.643 346.567 10.4256C347.294 10.053 348.664 9.6688 349.024 8.86861C349.27 8.35502 348.856 7.85336 348.304 7.96818C347.827 8.06668 347.355 8.47954 346.91 8.71223C346.332 9.0222 345.737 9.28753 345.16 9.62745C344.759 9.85932 344.42 10.135 344.186 10.4537C344.125 10.3949 344.064 10.3212 344.003 10.2624C344.25 9.01498 344.467 7.75316 344.729 6.5055C344.937 5.58826 343.583 5.23841 343.389 6.12544Z" fill="#484751"/>
<path d="M351.966 10.0281C350.367 11.869 350.894 14.4951 350.308 16.8418C350.224 17.1727 350.427 17.6183 350.802 17.6864C352.259 17.9146 354.55 18.7266 355.929 17.9529C356.344 17.7208 356.285 16.9432 355.774 16.8775C354.453 16.7068 353.119 16.6112 351.783 16.4407C351.889 15.6601 351.918 14.8209 351.963 13.9815C352.008 13.9807 352.053 13.9949 352.113 13.9788C353.427 13.7603 354.628 13.9183 355.906 14.2096C356.612 14.3765 357.073 13.3349 356.393 13.0028C355.064 12.383 353.508 12.4411 352.105 12.736C352.24 11.895 352.465 11.0973 352.932 10.4449C353.565 10.6281 354.197 10.8113 354.829 10.9646C355.475 11.1176 356.153 11.3449 356.811 11.3031C357.365 11.2631 357.606 10.51 357.076 10.2201C356.532 9.93043 355.932 9.86643 355.331 9.74254C354.609 9.60586 353.873 9.48441 353.138 9.37794C353.031 9.29002 352.896 9.26252 352.762 9.32484C352.672 9.31149 352.597 9.29788 352.507 9.28454C352.027 9.21836 351.781 9.70201 351.966 10.0281Z" fill="#484751"/>
<path d="M359.518 11.9281C360.465 12.1206 361.413 12.388 362.376 12.6251C362.491 14.8543 361.659 16.876 361.024 18.9989C360.84 19.6162 361.837 20.0474 362.095 19.4288C362.813 17.7087 364.216 15.0027 363.849 12.9428C364.255 13.0104 364.675 13.0627 365.095 13.085C365.889 13.1155 366.017 11.8853 365.25 11.7195C363.431 11.3182 361.495 11.0837 359.635 10.9526C359.05 10.8883 358.947 11.8187 359.518 11.9281Z" fill="#484751"/>
<path d="M313.299 50.4571C313.969 50.2354 313.667 49.2525 312.996 49.4144C304.184 51.5207 294.417 51.3682 286.133 55.3368C285.465 55.6634 286.067 56.6258 286.735 56.3142C295.095 52.4041 304.651 53.3093 313.299 50.4571Z" fill="#484751"/>
<path d="M350.488 40.0046C349.936 40.1045 350.087 41.0451 350.64 40.9752C352.911 40.6795 355.281 40.0526 357.329 39.0272C357.893 38.7474 357.472 37.8565 356.891 38.0318C354.716 38.6552 352.712 39.59 350.488 40.0046Z" fill="#484751"/>
<path d="M351.618 47.0373C355.249 45.7736 358.964 45.0175 362.708 44.171C363.349 44.0246 363.195 42.9492 362.537 43.021C358.711 43.4646 354.915 44.7014 351.395 46.2627C350.934 46.4657 351.112 47.2262 351.618 47.0373Z" fill="#484751"/>
<path d="M353.406 51.4822C352.79 51.4185 352.66 52.499 353.276 52.5778C356.668 53.0105 360.408 51.9993 363.218 50.0616C363.869 49.6155 363.283 48.6678 362.586 49.0248C359.693 50.5298 356.751 51.811 353.406 51.4822Z" fill="#484751"/>
<path d="M355.961 56.9621C355.379 57.1074 355.65 57.986 356.232 57.8557C360.125 57.0364 363.859 55.651 367.562 54.2362C368.365 53.9222 367.997 52.626 367.179 52.9403C363.461 54.3554 359.821 55.9638 355.961 56.9621Z" fill="#484751"/>
<path d="M332.984 49.2169C328.293 49.0023 323.998 51.6408 319.493 52.6359C318.897 52.7665 319.05 53.782 319.662 53.696C322.067 53.368 332.105 48.6637 332.845 51.4956C333.312 53.2991 327.895 54.3107 326.36 54.7428C323.753 55.4639 321.096 55.9762 318.456 56.5481C312.937 57.7413 307.486 59.3674 302.064 60.9631C299.249 61.7928 296.511 62.7708 293.821 63.9277C292.558 64.4597 292.197 65.2 291.381 63.1483C290.911 61.9887 290.471 60.8287 289.956 59.6849C289.769 59.269 289.07 59.5812 289.228 60.0126C289.936 61.8866 290.51 63.8229 291.218 65.6969C291.359 66.0688 291.721 66.197 292.077 66.0258C299.203 62.6023 306.96 60.9343 314.513 58.746C321.097 56.8298 327.914 56.2121 334.149 53.1641C334.371 53.0553 334.5 52.7235 334.406 52.4856C334.075 51.5632 333.863 50.6086 333.591 49.6551C333.496 49.3873 333.254 49.227 332.984 49.2169Z" fill="#484751"/>
<path d="M293.31 59.684C300.134 58.5871 306.917 56.8919 313.658 55.3621C314.255 55.2315 314.101 54.201 313.489 54.287C306.587 55.2356 299.938 57.6622 293.103 58.969C292.61 59.0528 292.832 59.7526 293.31 59.684Z" fill="#484751"/>
<path d="M336.657 47.8173C336.568 47.8489 336.479 47.8655 336.419 47.8965C335.765 48.133 335.992 49.1172 336.59 49.0764C336.662 50.5277 337.3 51.8639 339.039 51.9672C340.223 52.0356 341.352 51.5509 342.313 50.8746C342.964 50.4136 343.807 49.8143 344.047 49.0013C344.824 46.4265 339.774 47.087 337.433 47.6236C337.19 47.4333 336.726 47.4717 336.657 47.8173ZM342.947 48.6618C342.947 48.6618 342.449 49.2548 342.301 49.3773C341.624 50.0185 340.794 50.4828 339.9 50.7386C338.365 51.1557 337.656 50.0455 337.529 48.7899C338.393 48.5496 339.289 48.4136 340.171 48.3527C340.919 48.2942 342.368 48.1032 342.947 48.6618Z" fill="#484751"/>
<path d="M336.729 64.1832C336.117 64.2841 336.285 65.3143 336.898 65.2583C339.784 64.9814 342.64 63.9713 345.114 62.444C345.617 62.1354 345.256 61.2284 344.676 61.4635C342.031 62.5896 339.581 63.7272 336.729 64.1832Z" fill="#484751"/>
<path d="M325.744 24.8786C316.03 22.6586 305.17 24.1431 295.931 20.0426C296.59 17.5299 298.642 17.5825 301.219 17.6557C303.886 17.7272 306.547 18.3079 309.162 18.8446C313.341 19.6973 317.6 20.8631 321.894 20.6805C322.613 20.6525 322.579 19.6199 321.874 19.5727C313.3 19.0691 304.209 14.906 295.636 16.9781C295.383 17.0426 295.267 17.2843 295.242 17.5243C295.167 18.3493 295.058 18.9652 294.966 19.6408C294.499 19.5145 294.031 20.107 294.457 20.4736C294.594 20.591 294.73 20.6933 294.882 20.7954C294.945 20.9739 295.111 21.0608 295.306 21.0872C298.534 23.1851 303.197 23.505 306.829 23.9483C313.043 24.7343 319.289 24.8308 325.451 26.067C326.202 26.2031 326.511 25.0445 325.744 24.8786Z" fill="#484751"/>
<path d="M289.37 39.7639C289.98 39.5132 289.739 38.6041 289.083 38.7657C288.099 39.0232 287.084 39.2212 286.085 39.434C285.249 39.5989 284.309 39.7507 283.584 40.243C283.066 40.5968 283.529 41.3522 284.078 41.0577C285.665 40.2503 287.721 40.4526 289.37 39.7639Z" fill="#484751"/>
<path d="M286.479 47.962C286.239 47.0978 285.968 46.2342 285.639 45.4016C285.435 44.8811 284.63 45.0904 284.79 45.6565C285.045 46.5205 285.241 47.4004 285.585 48.2328C285.82 48.7826 286.654 48.5579 286.479 47.962Z" fill="#484751"/>
<path d="M315.466 -1.05093C317.951 -0.257346 320.453 0.610818 323.076 0.743012C323.645 0.777619 323.763 -0.182898 323.192 -0.262415C320.64 -0.620514 318.158 -1.21949 315.662 -1.81819C315.165 -1.94398 314.984 -1.20692 315.466 -1.05093Z" fill="#484751"/>
<path d="M319.147 11.2065C318.067 11.0912 316.991 11.2156 315.91 11.0405C315.369 10.9454 315.144 11.7432 315.685 11.8831C316.784 12.1627 318.028 12.26 319.164 12.1047C319.746 12.0192 319.732 11.2707 319.147 11.2065Z" fill="#484751"/>
</g>
<defs>
<filter id="filter0_d" x="0" y="0" width="393" height="67" filterUnits="userSpaceOnUse" color-interpolation-filters="sRGB">
<feFlood flood-opacity="0" result="BackgroundImageFix"/>
<feColorMatrix in="SourceAlpha" type="matrix" values="0 0 0 0 0 0 0 0 0 0 0 0 0 0 0 0 0 0 127 0" result="hardAlpha"/>
<feOffset dy="2"/>
<feGaussianBlur stdDeviation="1"/>
<feColorMatrix type="matrix" values="0 0 0 0 0 0 0 0 0 0 0 0 0 0 0 0 0 0 0.2 0"/>
<feBlend mode="normal" in2="BackgroundImageFix" result="effect1_dropShadow"/>
<feBlend mode="normal" in="SourceGraphic" in2="effect1_dropShadow" result="shape"/>
</filter>
</defs>
</svg>
