<svg width="393" height="67" viewBox="0 0 393 67" fill="none" xmlns="http://www.w3.org/2000/svg">
<g filter="url(#filter0_d)">
<path d="M2 0H391V63H2V0Z" fill="white"/>
<path d="M2.5 0.5H390.5V62.5H2.5V0.5Z" stroke="#484751"/>
</g>
<path d="M18.336 54C18.228 54 18.156 53.952 18.12 53.856L16.284 48.294C16.272 48.258 16.248 48.24 16.212 48.24H14.646C14.598 48.24 14.574 48.264 14.574 48.312V53.82C14.574 53.94 14.514 54 14.394 54H13.476C13.356 54 13.296 53.94 13.296 53.82V41.58C13.296 41.46 13.356 41.4 13.476 41.4H16.446C17.322 41.4 18.03 41.724 18.57 42.372C19.11 43.008 19.38 43.842 19.38 44.874C19.38 45.654 19.212 46.326 18.876 46.89C18.54 47.454 18.084 47.85 17.508 48.078C17.46 48.09 17.442 48.12 17.454 48.168L19.416 53.802L19.434 53.874C19.434 53.958 19.38 54 19.272 54H18.336ZM14.646 42.516C14.598 42.516 14.574 42.54 14.574 42.588V47.142C14.574 47.19 14.598 47.214 14.646 47.214H16.266C16.818 47.214 17.262 47.004 17.598 46.584C17.934 46.152 18.102 45.582 18.102 44.874C18.102 44.166 17.934 43.596 17.598 43.164C17.262 42.732 16.818 42.516 16.266 42.516H14.646ZM26.5145 49.752C26.5145 49.872 26.4545 49.932 26.3345 49.932H22.2305C22.1825 49.932 22.1585 49.956 22.1585 50.004V51.318C22.1585 51.822 22.2965 52.236 22.5725 52.56C22.8605 52.872 23.2325 53.028 23.6885 53.028C24.0725 53.028 24.3965 52.914 24.6605 52.686C24.9365 52.446 25.1165 52.14 25.2005 51.768C25.2365 51.66 25.3025 51.606 25.3985 51.606L26.2985 51.642C26.3465 51.642 26.3885 51.66 26.4245 51.696C26.4605 51.732 26.4725 51.78 26.4605 51.84C26.3645 52.548 26.0705 53.112 25.5785 53.532C25.0985 53.94 24.4685 54.144 23.6885 54.144C22.8365 54.144 22.1525 53.892 21.6365 53.388C21.1325 52.884 20.8805 52.218 20.8805 51.39V47.502C20.8805 46.686 21.1325 46.026 21.6365 45.522C22.1525 45.006 22.8365 44.748 23.6885 44.748C24.5525 44.748 25.2365 45.006 25.7405 45.522C26.2565 46.026 26.5145 46.686 26.5145 47.502V49.752ZM23.6885 45.864C23.2325 45.864 22.8605 46.026 22.5725 46.35C22.2965 46.662 22.1585 47.076 22.1585 47.592V48.798C22.1585 48.846 22.1825 48.87 22.2305 48.87H25.1825C25.2305 48.87 25.2545 48.846 25.2545 48.798V47.592C25.2545 47.076 25.1105 46.662 24.8225 46.35C24.5345 46.026 24.1565 45.864 23.6885 45.864ZM31.0022 44.748C31.8422 44.748 32.5142 45.024 33.0182 45.576C33.5222 46.116 33.7742 46.842 33.7742 47.754V53.82C33.7742 53.94 33.7142 54 33.5942 54H32.6762C32.5562 54 32.4962 53.94 32.4962 53.82V53.28C32.4962 53.256 32.4842 53.244 32.4602 53.244C32.4482 53.232 32.4302 53.238 32.4062 53.262C31.9622 53.85 31.2962 54.144 30.4082 54.144C29.7482 54.144 29.1722 53.958 28.6802 53.586C28.2002 53.202 27.9602 52.53 27.9602 51.57C27.9602 50.55 28.2542 49.806 28.8422 49.338C29.4302 48.858 30.2042 48.618 31.1642 48.618H32.4242C32.4722 48.618 32.4962 48.594 32.4962 48.546V47.844C32.4962 47.244 32.3582 46.764 32.0822 46.404C31.8062 46.044 31.4342 45.864 30.9662 45.864C30.6062 45.864 30.2942 45.984 30.0302 46.224C29.7782 46.464 29.6282 46.77 29.5802 47.142C29.5802 47.262 29.5202 47.322 29.4002 47.322L28.3922 47.304C28.3322 47.304 28.2842 47.286 28.2482 47.25C28.2242 47.214 28.2182 47.172 28.2302 47.124C28.2902 46.416 28.5782 45.846 29.0942 45.414C29.6102 44.97 30.2462 44.748 31.0022 44.748ZM30.6782 53.028C31.1702 53.028 31.5962 52.872 31.9562 52.56C32.3162 52.236 32.4962 51.792 32.4962 51.228V49.716C32.4962 49.668 32.4722 49.644 32.4242 49.644H31.1462C30.5702 49.644 30.1142 49.8 29.7782 50.112C29.4422 50.412 29.2742 50.862 29.2742 51.462C29.2742 51.99 29.4002 52.386 29.6522 52.65C29.9162 52.902 30.2582 53.028 30.6782 53.028ZM39.9138 41.58C39.9138 41.46 39.9738 41.4 40.0938 41.4H41.0118C41.1318 41.4 41.1918 41.46 41.1918 41.58V53.82C41.1918 53.94 41.1318 54 41.0118 54H40.0938C39.9738 54 39.9138 53.94 39.9138 53.82V53.424C39.9138 53.4 39.9018 53.382 39.8778 53.37C39.8658 53.358 39.8478 53.364 39.8238 53.388C39.3678 53.892 38.7918 54.144 38.0958 54.144C37.3278 54.144 36.7158 53.892 36.2598 53.388C35.8038 52.872 35.5758 52.206 35.5758 51.39V47.502C35.5758 46.662 35.8038 45.996 36.2598 45.504C36.7158 45 37.3278 44.748 38.0958 44.748C38.8038 44.748 39.3798 45.006 39.8238 45.522C39.8478 45.546 39.8658 45.552 39.8778 45.54C39.9018 45.528 39.9138 45.51 39.9138 45.486V41.58ZM38.4018 53.028C38.8458 53.028 39.2058 52.872 39.4818 52.56C39.7698 52.236 39.9138 51.822 39.9138 51.318V47.592C39.9138 47.076 39.7698 46.662 39.4818 46.35C39.2058 46.026 38.8458 45.864 38.4018 45.864C37.9458 45.864 37.5678 46.026 37.2678 46.35C36.9798 46.662 36.8358 47.076 36.8358 47.592V51.318C36.8358 51.822 36.9798 52.236 37.2678 52.56C37.5678 52.872 37.9458 53.028 38.4018 53.028ZM43.0791 57.6C43.0551 57.6 43.0311 57.582 43.0071 57.546C42.9831 57.51 42.9711 57.468 42.9711 57.42V56.7C42.9711 56.58 43.0311 56.52 43.1511 56.52C43.5231 56.508 43.8111 56.436 44.0151 56.304C44.2311 56.172 44.4051 55.938 44.5371 55.602C44.6691 55.266 44.8011 54.75 44.9331 54.054C44.9451 54.03 44.9451 54.012 44.9331 54C44.9331 53.976 44.9331 53.958 44.9331 53.946L42.6471 45.09L42.6291 45.036C42.6291 44.94 42.6891 44.892 42.8091 44.892H43.7811C43.9011 44.892 43.9671 44.946 43.9791 45.054L45.5631 52.128C45.5751 52.164 45.5871 52.182 45.5991 52.182C45.6111 52.182 45.6231 52.164 45.6351 52.128L47.2011 45.054C47.2251 44.946 47.2911 44.892 47.3991 44.892L48.4071 44.91C48.4671 44.91 48.5091 44.928 48.5331 44.964C48.5691 45 48.5751 45.048 48.5511 45.108L46.0491 54.792C45.8331 55.596 45.6171 56.19 45.4011 56.574C45.1971 56.958 44.9271 57.222 44.5911 57.366C44.2551 57.522 43.7811 57.6 43.1691 57.6H43.0791ZM56.8196 45.666C56.8196 45.786 56.7596 45.846 56.6396 45.846H55.2716C55.2236 45.846 55.1996 45.87 55.1996 45.918V51.426C55.1996 51.978 55.2956 52.362 55.4876 52.578C55.6796 52.782 55.9736 52.878 56.3696 52.866H56.5496C56.6696 52.866 56.7296 52.926 56.7296 53.046V53.82C56.7296 53.94 56.6696 54 56.5496 54H56.0996C55.3916 54 54.8516 53.85 54.4796 53.55C54.1196 53.238 53.9396 52.656 53.9396 51.804V45.918C53.9396 45.87 53.9156 45.846 53.8676 45.846H53.1656C53.0456 45.846 52.9856 45.786 52.9856 45.666V45.072C52.9856 44.952 53.0456 44.892 53.1656 44.892H53.8676C53.9156 44.892 53.9396 44.868 53.9396 44.82V42.804C53.9396 42.684 53.9996 42.624 54.1196 42.624H55.0196C55.1396 42.624 55.1996 42.684 55.1996 42.804V44.82C55.1996 44.868 55.2236 44.892 55.2716 44.892H56.6396C56.7596 44.892 56.8196 44.952 56.8196 45.072V45.666ZM61.0424 54.144C60.1784 54.144 59.4884 53.892 58.9724 53.388C58.4684 52.884 58.2164 52.218 58.2164 51.39V47.52C58.2164 46.704 58.4744 46.038 58.9904 45.522C59.5064 45.006 60.1904 44.748 61.0424 44.748C61.9064 44.748 62.5964 45.006 63.1124 45.522C63.6284 46.038 63.8864 46.704 63.8864 47.52V51.39C63.8864 52.218 63.6284 52.884 63.1124 53.388C62.5964 53.892 61.9064 54.144 61.0424 54.144ZM61.0424 53.01C61.4984 53.01 61.8704 52.854 62.1584 52.542C62.4584 52.23 62.6084 51.816 62.6084 51.3V47.592C62.6084 47.076 62.4584 46.662 62.1584 46.35C61.8704 46.026 61.4984 45.864 61.0424 45.864C60.5864 45.864 60.2144 46.026 59.9264 46.35C59.6384 46.662 59.4944 47.076 59.4944 47.592V51.3C59.4944 51.816 59.6384 52.23 59.9264 52.542C60.2144 52.854 60.5864 53.01 61.0424 53.01ZM72.5846 44.748C73.3406 44.748 73.9466 45 74.4026 45.504C74.8706 45.996 75.1046 46.662 75.1046 47.502V51.39C75.1046 52.206 74.8766 52.872 74.4206 53.388C73.9646 53.892 73.3526 54.144 72.5846 54.144C72.2606 54.144 71.9486 54.084 71.6486 53.964C71.3486 53.832 71.0846 53.64 70.8566 53.388C70.8326 53.364 70.8086 53.358 70.7846 53.37C70.7726 53.382 70.7666 53.4 70.7666 53.424V53.82C70.7666 53.94 70.7066 54 70.5866 54H69.6686C69.5486 54 69.4886 53.94 69.4886 53.82V41.58C69.4886 41.46 69.5486 41.4 69.6686 41.4H70.5866C70.7066 41.4 70.7666 41.46 70.7666 41.58V45.468C70.7666 45.492 70.7786 45.51 70.8026 45.522C70.8266 45.534 70.8506 45.522 70.8746 45.486C71.0906 45.246 71.3486 45.066 71.6486 44.946C71.9486 44.814 72.2606 44.748 72.5846 44.748ZM73.8266 47.592C73.8266 47.076 73.6826 46.662 73.3946 46.35C73.1066 46.026 72.7286 45.864 72.2606 45.864C71.8166 45.864 71.4566 46.026 71.1806 46.35C70.9046 46.662 70.7666 47.076 70.7666 47.592V51.318C70.7666 51.822 70.9046 52.236 71.1806 52.56C71.4566 52.872 71.8166 53.028 72.2606 53.028C72.7286 53.028 73.1066 52.872 73.3946 52.56C73.6826 52.236 73.8266 51.822 73.8266 51.318V47.592ZM82.536 49.752C82.536 49.872 82.476 49.932 82.356 49.932H78.252C78.204 49.932 78.18 49.956 78.18 50.004V51.318C78.18 51.822 78.318 52.236 78.594 52.56C78.882 52.872 79.254 53.028 79.71 53.028C80.094 53.028 80.418 52.914 80.682 52.686C80.958 52.446 81.138 52.14 81.222 51.768C81.258 51.66 81.324 51.606 81.42 51.606L82.32 51.642C82.368 51.642 82.41 51.66 82.446 51.696C82.482 51.732 82.494 51.78 82.482 51.84C82.386 52.548 82.092 53.112 81.6 53.532C81.12 53.94 80.49 54.144 79.71 54.144C78.858 54.144 78.174 53.892 77.658 53.388C77.154 52.884 76.902 52.218 76.902 51.39V47.502C76.902 46.686 77.154 46.026 77.658 45.522C78.174 45.006 78.858 44.748 79.71 44.748C80.574 44.748 81.258 45.006 81.762 45.522C82.278 46.026 82.536 46.686 82.536 47.502V49.752ZM79.71 45.864C79.254 45.864 78.882 46.026 78.594 46.35C78.318 46.662 78.18 47.076 78.18 47.592V48.798C78.18 48.846 78.204 48.87 78.252 48.87H81.204C81.252 48.87 81.276 48.846 81.276 48.798V47.592C81.276 47.076 81.132 46.662 80.844 46.35C80.556 46.026 80.178 45.864 79.71 45.864ZM91.2375 44.748C91.9935 44.748 92.5995 45.006 93.0555 45.522C93.5115 46.026 93.7395 46.686 93.7395 47.502V51.39C93.7395 52.23 93.5115 52.902 93.0555 53.406C92.5995 53.898 91.9935 54.144 91.2375 54.144C90.9015 54.144 90.5835 54.084 90.2835 53.964C89.9835 53.832 89.7195 53.634 89.4915 53.37C89.4675 53.346 89.4435 53.34 89.4195 53.352C89.4075 53.364 89.4015 53.382 89.4015 53.406V57.312C89.4015 57.432 89.3415 57.492 89.2215 57.492H88.3035C88.1835 57.492 88.1235 57.432 88.1235 57.312V45.072C88.1235 44.952 88.1835 44.892 88.3035 44.892H89.2215C89.3415 44.892 89.4015 44.952 89.4015 45.072V45.486C89.4015 45.51 89.4135 45.528 89.4375 45.54C89.4615 45.54 89.4855 45.528 89.5095 45.504C89.7255 45.252 89.9835 45.066 90.2835 44.946C90.5955 44.814 90.9135 44.748 91.2375 44.748ZM92.4795 47.592C92.4795 47.076 92.3295 46.662 92.0295 46.35C91.7415 46.026 91.3695 45.864 90.9135 45.864C90.4695 45.864 90.1035 46.026 89.8155 46.35C89.5395 46.662 89.4015 47.076 89.4015 47.592V51.3C89.4015 51.816 89.5395 52.236 89.8155 52.56C90.1035 52.872 90.4695 53.028 90.9135 53.028C91.3695 53.028 91.7415 52.872 92.0295 52.56C92.3295 52.236 92.4795 51.816 92.4795 51.3V47.592ZM96.5068 43.236C96.2068 43.236 95.9608 43.14 95.7688 42.948C95.5888 42.756 95.4988 42.516 95.4988 42.228C95.4988 41.928 95.5888 41.688 95.7688 41.508C95.9608 41.316 96.2068 41.22 96.5068 41.22C96.7948 41.22 97.0288 41.316 97.2088 41.508C97.4008 41.688 97.4968 41.928 97.4968 42.228C97.4968 42.516 97.4008 42.756 97.2088 42.948C97.0288 43.14 96.7948 43.236 96.5068 43.236ZM96.0568 54C95.9368 54 95.8768 53.94 95.8768 53.82V45.072C95.8768 44.952 95.9368 44.892 96.0568 44.892H96.9748C97.0948 44.892 97.1548 44.952 97.1548 45.072V53.82C97.1548 53.94 97.0948 54 96.9748 54H96.0568ZM102.087 54.144C101.235 54.144 100.551 53.892 100.035 53.388C99.5309 52.884 99.2789 52.218 99.2789 51.39V47.502C99.2789 46.686 99.5369 46.026 100.053 45.522C100.569 45.006 101.247 44.748 102.087 44.748C102.651 44.748 103.149 44.862 103.581 45.09C104.013 45.318 104.343 45.624 104.571 46.008C104.811 46.38 104.931 46.794 104.931 47.25V47.43C104.931 47.55 104.871 47.61 104.751 47.61L103.833 47.646C103.713 47.646 103.653 47.586 103.653 47.466V47.34C103.653 46.944 103.503 46.602 103.203 46.314C102.915 46.014 102.543 45.864 102.087 45.864C101.631 45.864 101.259 46.026 100.971 46.35C100.695 46.662 100.557 47.076 100.557 47.592V51.3C100.557 51.816 100.695 52.236 100.971 52.56C101.259 52.872 101.631 53.028 102.087 53.028C102.543 53.028 102.915 52.884 103.203 52.596C103.503 52.296 103.653 51.948 103.653 51.552V51.426C103.653 51.306 103.713 51.246 103.833 51.246L104.751 51.264C104.871 51.264 104.931 51.324 104.931 51.444V51.642C104.931 52.362 104.667 52.962 104.139 53.442C103.623 53.91 102.939 54.144 102.087 54.144ZM106.899 54C106.779 54 106.719 53.94 106.719 53.82V41.58C106.719 41.46 106.779 41.4 106.899 41.4H107.817C107.937 41.4 107.997 41.46 107.997 41.58V48.816C107.997 48.84 108.009 48.858 108.033 48.87C108.057 48.882 108.075 48.876 108.087 48.852L110.787 45C110.835 44.928 110.907 44.892 111.003 44.892H111.939C112.011 44.892 112.059 44.916 112.083 44.964C112.107 45 112.095 45.048 112.047 45.108L110.265 47.664C110.229 47.7 110.223 47.736 110.247 47.772L112.371 53.802L112.389 53.874C112.389 53.958 112.335 54 112.227 54H111.273C111.165 54 111.093 53.952 111.057 53.856L109.455 48.852C109.443 48.78 109.407 48.774 109.347 48.834L108.033 50.706C108.009 50.73 107.997 50.76 107.997 50.796V53.82C107.997 53.94 107.937 54 107.817 54H106.899ZM119.274 49.752C119.274 49.872 119.214 49.932 119.094 49.932H114.99C114.942 49.932 114.918 49.956 114.918 50.004V51.318C114.918 51.822 115.056 52.236 115.332 52.56C115.62 52.872 115.992 53.028 116.448 53.028C116.832 53.028 117.156 52.914 117.42 52.686C117.696 52.446 117.876 52.14 117.96 51.768C117.996 51.66 118.062 51.606 118.158 51.606L119.058 51.642C119.106 51.642 119.148 51.66 119.184 51.696C119.22 51.732 119.232 51.78 119.22 51.84C119.124 52.548 118.83 53.112 118.338 53.532C117.858 53.94 117.228 54.144 116.448 54.144C115.596 54.144 114.912 53.892 114.396 53.388C113.892 52.884 113.64 52.218 113.64 51.39V47.502C113.64 46.686 113.892 46.026 114.396 45.522C114.912 45.006 115.596 44.748 116.448 44.748C117.312 44.748 117.996 45.006 118.5 45.522C119.016 46.026 119.274 46.686 119.274 47.502V49.752ZM116.448 45.864C115.992 45.864 115.62 46.026 115.332 46.35C115.056 46.662 114.918 47.076 114.918 47.592V48.798C114.918 48.846 114.942 48.87 114.99 48.87H117.942C117.99 48.87 118.014 48.846 118.014 48.798V47.592C118.014 47.076 117.87 46.662 117.582 46.35C117.294 46.026 116.916 45.864 116.448 45.864ZM125.308 41.58C125.308 41.46 125.368 41.4 125.488 41.4H126.406C126.526 41.4 126.586 41.46 126.586 41.58V53.82C126.586 53.94 126.526 54 126.406 54H125.488C125.368 54 125.308 53.94 125.308 53.82V53.424C125.308 53.4 125.296 53.382 125.272 53.37C125.26 53.358 125.242 53.364 125.218 53.388C124.762 53.892 124.186 54.144 123.49 54.144C122.722 54.144 122.11 53.892 121.654 53.388C121.198 52.872 120.97 52.206 120.97 51.39V47.502C120.97 46.662 121.198 45.996 121.654 45.504C122.11 45 122.722 44.748 123.49 44.748C124.198 44.748 124.774 45.006 125.218 45.522C125.242 45.546 125.26 45.552 125.272 45.54C125.296 45.528 125.308 45.51 125.308 45.486V41.58ZM123.796 53.028C124.24 53.028 124.6 52.872 124.876 52.56C125.164 52.236 125.308 51.822 125.308 51.318V47.592C125.308 47.076 125.164 46.662 124.876 46.35C124.6 46.026 124.24 45.864 123.796 45.864C123.34 45.864 122.962 46.026 122.662 46.35C122.374 46.662 122.23 47.076 122.23 47.592V51.318C122.23 51.822 122.374 52.236 122.662 52.56C122.962 52.872 123.34 53.028 123.796 53.028ZM136.541 45.072C136.541 44.952 136.601 44.892 136.721 44.892H137.639C137.759 44.892 137.819 44.952 137.819 45.072V53.82C137.819 53.94 137.759 54 137.639 54H136.721C136.601 54 136.541 53.94 136.541 53.82V53.208C136.541 53.172 136.529 53.154 136.505 53.154C136.493 53.154 136.475 53.166 136.451 53.19C136.079 53.814 135.479 54.126 134.651 54.126C133.931 54.126 133.355 53.91 132.923 53.478C132.503 53.034 132.293 52.368 132.293 51.48V45.072C132.293 44.952 132.353 44.892 132.473 44.892H133.391C133.511 44.892 133.571 44.952 133.571 45.072V51.192C133.571 51.792 133.691 52.248 133.931 52.56C134.183 52.86 134.543 53.01 135.011 53.01C135.491 53.01 135.863 52.836 136.127 52.488C136.403 52.14 136.541 51.666 136.541 51.066V45.072ZM143.216 44.748C143.972 44.748 144.578 45.006 145.034 45.522C145.49 46.026 145.718 46.686 145.718 47.502V51.39C145.718 52.23 145.49 52.902 145.034 53.406C144.578 53.898 143.972 54.144 143.216 54.144C142.88 54.144 142.562 54.084 142.262 53.964C141.962 53.832 141.698 53.634 141.47 53.37C141.446 53.346 141.422 53.34 141.398 53.352C141.386 53.364 141.38 53.382 141.38 53.406V57.312C141.38 57.432 141.32 57.492 141.2 57.492H140.282C140.162 57.492 140.102 57.432 140.102 57.312V45.072C140.102 44.952 140.162 44.892 140.282 44.892H141.2C141.32 44.892 141.38 44.952 141.38 45.072V45.486C141.38 45.51 141.392 45.528 141.416 45.54C141.44 45.54 141.464 45.528 141.488 45.504C141.704 45.252 141.962 45.066 142.262 44.946C142.574 44.814 142.892 44.748 143.216 44.748ZM144.458 47.592C144.458 47.076 144.308 46.662 144.008 46.35C143.72 46.026 143.348 45.864 142.892 45.864C142.448 45.864 142.082 46.026 141.794 46.35C141.518 46.662 141.38 47.076 141.38 47.592V51.3C141.38 51.816 141.518 52.236 141.794 52.56C142.082 52.872 142.448 53.028 142.892 53.028C143.348 53.028 143.72 52.872 144.008 52.56C144.308 52.236 144.458 51.816 144.458 51.3V47.592ZM148.077 53.964C147.777 53.964 147.531 53.868 147.339 53.676C147.159 53.484 147.069 53.244 147.069 52.956C147.069 52.656 147.159 52.416 147.339 52.236C147.531 52.044 147.777 51.948 148.077 51.948C148.365 51.948 148.605 52.044 148.797 52.236C148.989 52.416 149.085 52.656 149.085 52.956C149.085 53.244 148.989 53.484 148.797 53.676C148.605 53.868 148.365 53.964 148.077 53.964Z" fill="#484751"/>
<path d="M23.224 11.368L18.424 21.76V28H14.584V21.784L9.784 11.368H13.888L16.552 18.76L19.264 11.368H23.224ZM27.8221 14.848C29.6141 14.848 31.0141 15.432 32.0221 16.6C33.0461 17.752 33.5581 19.432 33.5581 21.64C33.5581 23.752 33.0461 25.408 32.0221 26.608C30.9981 27.808 29.5981 28.408 27.8221 28.408C26.0301 28.408 24.6301 27.824 23.6221 26.656C22.6141 25.488 22.1101 23.808 22.1101 21.616C22.1101 19.488 22.6141 17.832 23.6221 16.648C24.6461 15.448 26.0461 14.848 27.8221 14.848ZM27.8221 17.584C27.1661 17.584 26.6861 17.896 26.3821 18.52C26.0781 19.144 25.9261 20.176 25.9261 21.616C25.9261 23.088 26.0781 24.136 26.3821 24.76C26.6861 25.384 27.1661 25.696 27.8221 25.696C28.4781 25.696 28.9581 25.384 29.2621 24.76C29.5821 24.12 29.7421 23.08 29.7421 21.64C29.7421 20.168 29.5901 19.128 29.2861 18.52C28.9821 17.896 28.4941 17.584 27.8221 17.584ZM45.4184 28H42.2024L42.0344 26.464C41.2024 27.76 40.0744 28.408 38.6504 28.408C37.6104 28.408 36.8024 28.064 36.2264 27.376C35.6664 26.688 35.3864 25.76 35.3864 24.592V15.256H39.0824V24.304C39.0824 25.216 39.4024 25.672 40.0424 25.672C40.6664 25.672 41.2264 25.208 41.7224 24.28V15.256H45.4184V28ZM54.4557 14.896C54.8717 14.896 55.2397 14.96 55.5597 15.088L54.9597 18.64C54.6237 18.544 54.2877 18.496 53.9517 18.496C53.2957 18.496 52.7917 18.752 52.4397 19.264C52.0877 19.76 51.8157 20.504 51.6237 21.496V28H47.9277V15.256H51.1677L51.4557 17.488C51.7437 16.656 52.1437 16.016 52.6557 15.568C53.1677 15.12 53.7677 14.896 54.4557 14.896ZM66.5329 11.368C68.6609 11.368 70.2929 11.824 71.4289 12.736C72.5809 13.648 73.1569 14.992 73.1569 16.768C73.1569 18.64 72.5969 20.056 71.4769 21.016C70.3729 21.96 68.8449 22.432 66.8929 22.432H65.6209V28H61.7809V11.368H66.5329ZM66.5809 19.648C67.4769 19.648 68.1409 19.432 68.5729 19C69.0049 18.552 69.2209 17.816 69.2209 16.792C69.2209 15.88 69.0049 15.208 68.5729 14.776C68.1569 14.328 67.4929 14.104 66.5809 14.104H65.6209V19.648H66.5809ZM84.184 28H80.968L80.8 26.464C79.968 27.76 78.84 28.408 77.416 28.408C76.376 28.408 75.568 28.064 74.992 27.376C74.432 26.688 74.152 25.76 74.152 24.592V15.256H77.848V24.304C77.848 25.216 78.168 25.672 78.808 25.672C79.432 25.672 79.992 25.208 80.488 24.28V15.256H84.184V28ZM93.2213 14.896C93.6373 14.896 94.0053 14.96 94.3253 15.088L93.7253 18.64C93.3893 18.544 93.0533 18.496 92.7173 18.496C92.0613 18.496 91.5573 18.752 91.2053 19.264C90.8533 19.76 90.5813 20.504 90.3893 21.496V28H86.6933V15.256H89.9333L90.2213 17.488C90.5093 16.656 90.9093 16.016 91.4213 15.568C91.9333 15.12 92.5333 14.896 93.2213 14.896ZM100.035 14.848C100.835 14.848 101.555 14.976 102.195 15.232C102.835 15.488 103.435 15.88 103.995 16.408L102.459 18.52C102.091 18.232 101.739 18.024 101.403 17.896C101.067 17.752 100.707 17.68 100.323 17.68C99.5867 17.68 99.0347 17.984 98.6667 18.592C98.2987 19.2 98.1147 20.24 98.1147 21.712C98.1147 23.12 98.2987 24.104 98.6667 24.664C99.0507 25.224 99.5947 25.504 100.299 25.504C100.667 25.504 101.003 25.448 101.307 25.336C101.611 25.208 101.971 25 102.387 24.712L103.995 26.896C102.891 27.904 101.587 28.408 100.083 28.408C98.2587 28.408 96.8267 27.824 95.7867 26.656C94.7627 25.488 94.2507 23.848 94.2507 21.736C94.2507 20.344 94.4827 19.128 94.9467 18.088C95.4267 17.048 96.0987 16.248 96.9627 15.688C97.8427 15.128 98.8667 14.848 100.035 14.848ZM112.216 14.848C113.208 14.848 113.984 15.184 114.544 15.856C115.12 16.512 115.408 17.416 115.408 18.568V28H111.712V19.072C111.712 18.544 111.632 18.176 111.472 17.968C111.312 17.744 111.088 17.632 110.8 17.632C110.48 17.632 110.168 17.768 109.864 18.04C109.576 18.296 109.272 18.68 108.952 19.192V28H105.256V10.192L108.952 9.808V16.648C109.4 16.04 109.888 15.592 110.416 15.304C110.944 15 111.544 14.848 112.216 14.848ZM127.226 24.472C127.226 24.904 127.282 25.224 127.394 25.432C127.506 25.64 127.698 25.8 127.97 25.912L127.202 28.336C126.466 28.272 125.866 28.104 125.402 27.832C124.938 27.56 124.578 27.136 124.322 26.56C123.538 27.792 122.394 28.408 120.89 28.408C119.738 28.408 118.818 28.048 118.13 27.328C117.458 26.592 117.122 25.624 117.122 24.424C117.122 23.032 117.586 21.968 118.514 21.232C119.458 20.496 120.818 20.128 122.594 20.128H123.602V19.528C123.602 18.776 123.466 18.256 123.194 17.968C122.922 17.664 122.442 17.512 121.754 17.512C120.97 17.512 119.97 17.728 118.754 18.16L117.914 15.784C118.618 15.48 119.37 15.248 120.17 15.088C120.97 14.928 121.714 14.848 122.402 14.848C124.05 14.848 125.266 15.216 126.05 15.952C126.834 16.688 127.226 17.808 127.226 19.312V24.472ZM121.994 25.768C122.33 25.768 122.634 25.664 122.906 25.456C123.194 25.248 123.426 24.952 123.602 24.568V22.192H122.93C122.178 22.192 121.626 22.352 121.274 22.672C120.922 22.976 120.746 23.456 120.746 24.112C120.746 24.656 120.85 25.072 121.058 25.36C121.282 25.632 121.594 25.768 121.994 25.768ZM133.806 14.848C134.654 14.848 135.446 14.984 136.182 15.256C136.918 15.528 137.566 15.912 138.126 16.408L136.782 18.424C135.822 17.8 134.918 17.488 134.07 17.488C133.622 17.488 133.278 17.584 133.038 17.776C132.798 17.952 132.678 18.2 132.678 18.52C132.678 18.76 132.734 18.968 132.846 19.144C132.974 19.304 133.206 19.472 133.542 19.648C133.878 19.808 134.382 20.008 135.054 20.248C136.238 20.648 137.11 21.152 137.67 21.76C138.246 22.368 138.534 23.192 138.534 24.232C138.534 25.512 138.046 26.528 137.07 27.28C136.094 28.032 134.846 28.408 133.326 28.408C132.35 28.408 131.438 28.24 130.59 27.904C129.758 27.568 129.046 27.112 128.454 26.536L130.206 24.568C131.198 25.368 132.19 25.768 133.182 25.768C133.678 25.768 134.062 25.664 134.334 25.456C134.622 25.232 134.766 24.928 134.766 24.544C134.766 24.24 134.702 23.992 134.574 23.8C134.462 23.608 134.238 23.424 133.902 23.248C133.582 23.072 133.078 22.864 132.39 22.624C131.222 22.224 130.366 21.72 129.822 21.112C129.294 20.488 129.03 19.704 129.03 18.76C129.03 18.024 129.222 17.36 129.606 16.768C129.99 16.176 130.542 15.712 131.262 15.376C131.982 15.024 132.83 14.848 133.806 14.848ZM150.522 21.376C150.522 21.888 150.498 22.336 150.45 22.72H143.346C143.442 23.84 143.69 24.616 144.09 25.048C144.49 25.48 145.058 25.696 145.794 25.696C146.274 25.696 146.73 25.608 147.162 25.432C147.594 25.256 148.066 24.984 148.578 24.616L150.09 26.656C148.778 27.824 147.25 28.408 145.506 28.408C143.586 28.408 142.122 27.816 141.114 26.632C140.122 25.432 139.626 23.784 139.626 21.688C139.626 19.64 140.106 17.992 141.066 16.744C142.026 15.48 143.378 14.848 145.122 14.848C146.802 14.848 148.122 15.416 149.082 16.552C150.042 17.672 150.522 19.28 150.522 21.376ZM146.898 20.32C146.898 19.312 146.762 18.56 146.49 18.064C146.234 17.552 145.794 17.296 145.17 17.296C144.61 17.296 144.178 17.536 143.874 18.016C143.57 18.48 143.386 19.304 143.322 20.488H146.898V20.32ZM161.246 11.368V28H157.406V11.368H161.246ZM167.931 14.848C168.779 14.848 169.571 14.984 170.307 15.256C171.043 15.528 171.691 15.912 172.251 16.408L170.907 18.424C169.947 17.8 169.043 17.488 168.195 17.488C167.747 17.488 167.403 17.584 167.163 17.776C166.923 17.952 166.803 18.2 166.803 18.52C166.803 18.76 166.859 18.968 166.971 19.144C167.099 19.304 167.331 19.472 167.667 19.648C168.003 19.808 168.507 20.008 169.179 20.248C170.363 20.648 171.235 21.152 171.795 21.76C172.371 22.368 172.659 23.192 172.659 24.232C172.659 25.512 172.171 26.528 171.195 27.28C170.219 28.032 168.971 28.408 167.451 28.408C166.475 28.408 165.563 28.24 164.715 27.904C163.883 27.568 163.171 27.112 162.579 26.536L164.331 24.568C165.323 25.368 166.315 25.768 167.307 25.768C167.803 25.768 168.187 25.664 168.459 25.456C168.747 25.232 168.891 24.928 168.891 24.544C168.891 24.24 168.827 23.992 168.699 23.8C168.587 23.608 168.363 23.424 168.027 23.248C167.707 23.072 167.203 22.864 166.515 22.624C165.347 22.224 164.491 21.72 163.947 21.112C163.419 20.488 163.155 19.704 163.155 18.76C163.155 18.024 163.347 17.36 163.731 16.768C164.115 16.176 164.667 15.712 165.387 15.376C166.107 15.024 166.955 14.848 167.931 14.848ZM184.455 21.616H183.207V28H179.367V11.368H184.239C186.415 11.368 188.039 11.792 189.111 12.64C190.183 13.472 190.719 14.728 190.719 16.408C190.719 18.536 189.783 20.032 187.911 20.896L191.679 28H187.479L184.455 21.616ZM183.207 18.952H184.383C185.215 18.952 185.823 18.752 186.207 18.352C186.591 17.936 186.783 17.288 186.783 16.408C186.783 15.608 186.575 15.024 186.159 14.656C185.743 14.272 185.087 14.08 184.191 14.08H183.207V18.952ZM202.764 21.376C202.764 21.888 202.74 22.336 202.692 22.72H195.588C195.684 23.84 195.932 24.616 196.332 25.048C196.732 25.48 197.3 25.696 198.036 25.696C198.516 25.696 198.972 25.608 199.404 25.432C199.836 25.256 200.308 24.984 200.82 24.616L202.332 26.656C201.02 27.824 199.492 28.408 197.748 28.408C195.828 28.408 194.364 27.816 193.356 26.632C192.364 25.432 191.868 23.784 191.868 21.688C191.868 19.64 192.348 17.992 193.308 16.744C194.268 15.48 195.62 14.848 197.364 14.848C199.044 14.848 200.364 15.416 201.324 16.552C202.284 17.672 202.764 19.28 202.764 21.376ZM199.14 20.32C199.14 19.312 199.004 18.56 198.732 18.064C198.476 17.552 198.036 17.296 197.412 17.296C196.852 17.296 196.42 17.536 196.116 18.016C195.812 18.48 195.628 19.304 195.564 20.488H199.14V20.32ZM213.78 24.472C213.78 24.904 213.836 25.224 213.948 25.432C214.06 25.64 214.252 25.8 214.524 25.912L213.756 28.336C213.02 28.272 212.42 28.104 211.956 27.832C211.492 27.56 211.132 27.136 210.876 26.56C210.092 27.792 208.948 28.408 207.444 28.408C206.292 28.408 205.372 28.048 204.684 27.328C204.012 26.592 203.676 25.624 203.676 24.424C203.676 23.032 204.14 21.968 205.068 21.232C206.012 20.496 207.372 20.128 209.148 20.128H210.156V19.528C210.156 18.776 210.02 18.256 209.748 17.968C209.476 17.664 208.996 17.512 208.308 17.512C207.524 17.512 206.524 17.728 205.308 18.16L204.468 15.784C205.172 15.48 205.924 15.248 206.724 15.088C207.524 14.928 208.268 14.848 208.956 14.848C210.604 14.848 211.82 15.216 212.604 15.952C213.388 16.688 213.78 17.808 213.78 19.312V24.472ZM208.548 25.768C208.884 25.768 209.188 25.664 209.46 25.456C209.748 25.248 209.98 24.952 210.156 24.568V22.192H209.484C208.732 22.192 208.18 22.352 207.828 22.672C207.476 22.976 207.3 23.456 207.3 24.112C207.3 24.656 207.404 25.072 207.612 25.36C207.836 25.632 208.148 25.768 208.548 25.768ZM226.886 10.192V28H223.622L223.454 26.584C222.638 27.8 221.558 28.408 220.214 28.408C218.79 28.408 217.702 27.816 216.95 26.632C216.198 25.432 215.822 23.76 215.822 21.616C215.822 20.272 216.014 19.088 216.398 18.064C216.798 17.04 217.35 16.248 218.054 15.688C218.774 15.128 219.598 14.848 220.526 14.848C221.598 14.848 222.486 15.24 223.19 16.024V9.808L226.886 10.192ZM221.39 25.696C221.758 25.696 222.086 25.592 222.374 25.384C222.662 25.16 222.934 24.824 223.19 24.376V18.592C222.934 18.24 222.678 17.984 222.422 17.824C222.182 17.648 221.894 17.56 221.558 17.56C220.278 17.56 219.638 18.912 219.638 21.616C219.638 23.136 219.79 24.2 220.094 24.808C220.398 25.4 220.83 25.696 221.39 25.696ZM236.076 28.024C235.164 31.336 232.94 33.104 229.404 33.328L228.996 30.76C230.1 30.6 230.924 30.312 231.468 29.896C232.012 29.496 232.444 28.864 232.764 28H231.444L228.036 15.256H231.828L233.796 25.648L235.98 15.256H239.7L236.076 28.024ZM244.649 11.368L244.145 21.904H241.241L240.737 11.368H244.649ZM242.705 24.16C243.297 24.16 243.793 24.368 244.193 24.784C244.593 25.2 244.793 25.696 244.793 26.272C244.793 26.864 244.593 27.368 244.193 27.784C243.809 28.2 243.313 28.408 242.705 28.408C242.097 28.408 241.593 28.2 241.193 27.784C240.793 27.368 240.593 26.864 240.593 26.272C240.593 25.696 240.793 25.2 241.193 24.784C241.593 24.368 242.097 24.16 242.705 24.16Z" fill="#484751"/>
<mask id="mask0" mask-type="alpha" maskUnits="userSpaceOnUse" x="263" y="0" width="128" height="63">
<path d="M263 0H391V63H263V0Z" fill="#31C02E"/>
</mask>
<g mask="url(#mask0)">
<path d="M291.935 56.515C291.908 56.4458 291.861 56.3861 291.8 56.3437C291.739 56.3014 291.667 56.2781 291.593 56.2771C287.58 56.1582 285.47 58.9079 285.039 62.7425C284.987 63.5959 285.133 64.4498 285.467 65.237C285.801 66.0242 286.313 66.7234 286.962 67.2794C287.612 67.8353 288.381 68.2331 289.211 68.4413C290.04 68.6495 290.906 68.6626 291.742 68.4794C297.85 67.4242 298.311 57.7189 291.935 56.515ZM294.447 64.4368C294.32 64.4368 294.199 64.4869 294.11 64.5761C294.021 64.6653 293.971 64.7862 293.971 64.9123C293.971 65.0385 294.021 65.1595 294.11 65.2487C294.199 65.3379 294.32 65.388 294.447 65.388C294.017 66.0023 293.453 66.5106 292.797 66.8742C292.105 67.2332 291.332 67.4046 290.553 67.3714C289.775 67.3382 289.018 67.1016 288.36 66.6851C287.701 66.2686 287.163 65.6868 286.8 64.9976C286.436 64.3085 286.259 63.5361 286.287 62.7573C286.298 61.3788 286.808 60.051 287.724 59.0205C288.64 57.99 289.898 57.3268 291.266 57.1541C291.272 57.2403 291.302 57.3232 291.351 57.3939C291.401 57.4646 291.469 57.5205 291.548 57.5554C293.585 58.5215 295.086 59.6956 295.323 62.0142C295.415 62.896 295.261 63.7859 294.878 64.5854C294.821 64.5176 294.746 64.4676 294.662 64.4413C294.577 64.4149 294.487 64.4134 294.402 64.4368H294.447Z" fill="#484751"/>
<path d="M291.148 60.884C291.048 60.8917 290.955 60.9377 290.889 61.0126C290.822 61.0874 290.787 61.1852 290.791 61.2853H290.568C289.855 61.7311 289.186 62.5932 289.825 63.3958C290.124 63.7058 290.52 63.9042 290.947 63.9583C291.374 64.0123 291.807 63.9188 292.174 63.6931C292.471 63.5133 292.703 63.2435 292.837 62.9228C292.97 62.6022 292.998 62.2472 292.917 61.9096C292.792 61.5562 292.546 61.2589 292.221 61.0709C291.897 60.883 291.517 60.8167 291.148 60.884ZM291.713 62.831C291.564 62.9264 291.392 62.9771 291.215 62.9771C291.038 62.9771 290.866 62.9264 290.717 62.831C290.331 62.6378 290.881 62.1176 291.059 61.9541C291.112 61.9136 291.149 61.8557 291.163 61.7906C291.416 61.8798 291.772 61.8947 291.862 62.1622C291.916 62.2741 291.931 62.4011 291.904 62.5226C291.877 62.6441 291.81 62.7528 291.713 62.831Z" fill="#484751"/>
<path d="M289.394 58.7293H289.156C288.309 58.5361 288.309 59.9332 289.156 59.74L289.394 59.6508C289.516 59.6508 289.633 59.6022 289.719 59.5158C289.806 59.4294 289.854 59.3123 289.854 59.1901C289.854 59.0679 289.806 58.9507 289.719 58.8643C289.633 58.7779 289.516 58.7293 289.394 58.7293Z" fill="#484751"/>
<path d="M292.366 59.9772C292.502 59.9553 292.624 59.8803 292.704 59.7689C292.785 59.6575 292.819 59.5186 292.797 59.3826C292.778 59.2755 292.726 59.1768 292.649 59.0998C292.572 59.0228 292.473 58.9711 292.366 58.9517C292.23 58.9736 292.109 59.0484 292.028 59.1598C291.947 59.2713 291.914 59.4102 291.935 59.5461C291.954 59.6533 292.006 59.752 292.083 59.829C292.16 59.9061 292.259 59.9578 292.366 59.9772Z" fill="#484751"/>
<path d="M288.294 62.1331C288.272 61.9972 288.202 61.8736 288.097 61.7843C287.992 61.6951 287.859 61.646 287.721 61.646C287.584 61.646 287.45 61.6951 287.346 61.7843C287.241 61.8736 287.171 61.9972 287.149 62.1331C287.144 62.2493 287.169 62.3649 287.221 62.469C287.273 62.573 287.35 62.662 287.446 62.7277C287.541 62.7783 287.648 62.8017 287.755 62.7953C287.862 62.7888 287.965 62.7527 288.053 62.6911C288.141 62.6295 288.21 62.5447 288.252 62.4462C288.295 62.3477 288.309 62.2393 288.294 62.1331Z" fill="#484751"/>
<path d="M294.402 61.0625C294.27 61.0842 294.15 61.1521 294.063 61.2542C293.976 61.3563 293.929 61.4859 293.929 61.6198C293.929 61.7538 293.976 61.8834 294.063 61.9855C294.15 62.0876 294.27 62.1555 294.402 62.1772C294.534 62.1555 294.655 62.0876 294.741 61.9855C294.828 61.8834 294.876 61.7538 294.876 61.6198C294.876 61.4859 294.828 61.3563 294.741 61.2542C294.655 61.1521 294.534 61.0842 294.402 61.0625Z" fill="#484751"/>
<path d="M285.337 59.1901C285.516 58.5874 285.787 58.0159 286.14 57.4957C286.392 57.1539 285.827 56.708 285.56 57.0499C285.054 57.5868 284.7 58.2485 284.534 58.9671C284.507 59.0715 284.521 59.1827 284.573 59.277C284.626 59.3713 284.713 59.4414 284.817 59.4725C284.869 59.4906 284.925 59.4976 284.981 59.493C285.036 59.4884 285.09 59.4724 285.139 59.4458C285.188 59.4193 285.231 59.3828 285.265 59.3388C285.299 59.2948 285.324 59.2441 285.337 59.1901Z" fill="#484751"/>
<path d="M295.71 56.8711C295.145 56.5293 294.684 57.3616 295.205 57.7481C295.862 58.1967 296.423 58.7728 296.854 59.4423C297.21 60.2041 297.378 61.0399 297.345 61.8798C297.345 62.4297 298.296 62.623 298.37 62.0136C298.501 60.9878 298.316 59.9465 297.841 59.028C297.366 58.1096 296.623 57.3573 295.71 56.8711Z" fill="#484751"/>
<path d="M361.433 56.3363H361.284C359.709 55.7055 357.965 55.6328 356.343 56.1303C354.721 56.6278 353.318 57.6655 352.367 59.071C350.152 62.0435 351.817 66.0564 354.834 67.7508C356.264 68.5931 357.969 68.8346 359.576 68.4223C361.183 68.0101 362.562 66.9776 363.41 65.5511L363.603 65.1796C365.074 62.3408 365.476 57.2429 361.433 56.3363ZM362.25 64.8972C360.764 67.6319 357.524 67.8697 355.027 66.4726C353.91 65.879 353.073 64.8671 352.7 63.6584C352.327 62.4496 352.448 61.1423 353.036 60.0222C353.229 59.6688 353.463 59.3395 353.734 59.0413C354.603 58.0993 355.715 57.415 356.947 57.0636C358.179 56.7123 359.485 56.7075 360.719 57.0497C360.747 57.1441 360.797 57.2308 360.864 57.303C360.931 57.3752 361.014 57.431 361.106 57.4659C364.316 58.7589 363.514 62.4894 362.221 64.8972H362.25Z" fill="#484751"/>
<path d="M358.668 63.4108C358.798 63.3836 358.914 63.3126 358.998 63.2099C359.082 63.1071 359.128 62.9787 359.128 62.846C359.192 62.7966 359.246 62.7349 359.286 62.6647C359.326 62.5944 359.351 62.5169 359.361 62.4367C359.371 62.3565 359.364 62.2751 359.342 62.1974C359.32 62.1197 359.283 62.0471 359.233 61.9839C359.183 61.9232 359.123 61.8727 359.054 61.8354C358.855 61.7417 358.645 61.6718 358.43 61.6273C358.342 61.5548 358.232 61.5151 358.118 61.5151C358.004 61.5151 357.894 61.5548 357.806 61.6273H357.657C357.524 61.703 357.412 61.8101 357.33 61.9393C357.249 62.0908 357.218 62.2635 357.239 62.4338C357.26 62.6041 357.334 62.7636 357.449 62.8905C357.579 63.087 357.764 63.241 357.98 63.3334C358.197 63.4259 358.436 63.4528 358.668 63.4108Z" fill="#484751"/>
<path d="M358.877 59.6506H359.145C359.294 59.6056 359.421 59.505 359.498 59.3695C359.575 59.234 359.598 59.074 359.561 58.9224C359.543 58.7986 359.486 58.6838 359.397 58.5953C359.397 58.6697 359.397 58.5954 359.308 58.4914C359.249 58.4289 359.178 58.3784 359.1 58.3427C359.017 58.2963 358.925 58.2671 358.829 58.257C358.734 58.2468 358.638 58.2558 358.547 58.2836C358.455 58.3113 358.37 58.3571 358.297 58.4184C358.223 58.4796 358.163 58.5549 358.119 58.64C358.114 58.6844 358.114 58.7294 358.119 58.7738C357.941 59.2197 358.387 59.7992 358.877 59.6506Z" fill="#484751"/>
<path d="M355.859 60.6314C355.904 60.4458 355.904 60.2522 355.859 60.0666C355.818 59.9189 355.719 59.7937 355.585 59.7185C355.452 59.6432 355.294 59.6241 355.146 59.6653C355.051 59.6946 354.966 59.7464 354.896 59.8163C354.826 59.8862 354.774 59.9722 354.745 60.0666C354.7 60.2522 354.7 60.4458 354.745 60.6314C354.766 60.7636 354.834 60.8838 354.936 60.9705C355.038 61.0572 355.168 61.1048 355.302 61.1048C355.436 61.1048 355.565 61.0572 355.667 60.9705C355.77 60.8838 355.838 60.7636 355.859 60.6314Z" fill="#484751"/>
<path d="M353.854 62.6678C353.776 62.7016 353.706 62.7504 353.648 62.8114C353.59 62.8724 353.544 62.9445 353.514 63.0232C353.483 63.102 353.469 63.1859 353.471 63.2703C353.473 63.3547 353.492 63.4379 353.527 63.5149C353.586 63.6285 353.673 63.7256 353.779 63.7973C353.855 63.8389 353.939 63.865 354.025 63.874C354.111 63.8831 354.198 63.8749 354.281 63.85C354.364 63.8251 354.441 63.784 354.508 63.7291C354.575 63.6741 354.631 63.6063 354.671 63.5298V63.4109C354.747 63.2787 354.768 63.1218 354.729 62.9743C354.69 62.8269 354.594 62.7007 354.463 62.6232C354.367 62.5731 354.26 62.5508 354.152 62.5587C354.044 62.5666 353.941 62.6044 353.854 62.6678Z" fill="#484751"/>
<path d="M362.087 60.3493C361.962 60.2593 361.807 60.2213 361.654 60.2435C361.502 60.2657 361.364 60.3462 361.27 60.4681C361.197 60.5673 361.158 60.6871 361.158 60.81C361.158 60.9329 361.197 61.0526 361.27 61.1518L361.374 61.2707C361.879 61.8058 362.741 60.9586 362.191 60.4532L362.087 60.3493Z" fill="#484751"/>
<path d="M363.901 56.3065C363.485 56.0538 362.994 56.6632 363.381 56.9753C363.974 57.4798 364.364 58.182 364.48 58.952C364.584 59.502 365.506 59.383 365.446 58.8331C365.409 58.3191 365.25 57.8215 364.981 57.3819C364.712 56.9423 364.342 56.5735 363.901 56.3065Z" fill="#484751"/>
<path d="M365.595 44.0894C365.001 44.0894 364.823 45.0406 365.447 45.1446C365.779 45.1451 366.106 45.2249 366.4 45.3775C366.695 45.53 366.949 45.7509 367.141 46.0216C367.438 46.5863 366.77 47.0916 366.353 47.2997C365.937 47.5078 364.615 47.8348 364.065 47.2997C363.515 46.7647 363.99 45.8135 364.184 45.2635C364.377 44.7136 363.53 44.3718 363.247 44.8622C362.899 45.3364 362.712 45.9091 362.712 46.4972C362.712 47.0852 362.899 47.6579 363.247 48.132C364.079 49.0981 365.774 48.8305 366.799 48.3847C367.299 48.202 367.72 47.852 367.991 47.3942C368.262 46.9363 368.366 46.3988 368.286 45.8729C368.099 45.319 367.733 44.8431 367.246 44.5201C366.759 44.1972 366.178 44.0456 365.595 44.0894Z" fill="#484751"/>
<path d="M377.886 58.001C377.99 56.1729 378.347 54.5826 376.875 53.2449C376.697 53.0951 376.497 52.9747 376.281 52.8882C376.327 52.8618 376.367 52.8264 376.4 52.7842C377.514 51.4763 376.979 49.0983 376.637 47.5971C376.458 46.3672 375.944 45.2104 375.151 44.253C375.656 41.444 375.062 39.7943 372.862 39.17C372.891 39.1019 372.906 39.0286 372.906 38.9545C372.906 38.8804 372.891 38.8071 372.862 38.739C371.926 34.9787 370.603 27.5028 366.338 25.9274C365.695 25.6874 365.034 25.4985 364.361 25.3626C364.391 25.2556 364.391 25.1426 364.361 25.0356C364.301 24.4079 364.108 23.8 363.796 23.2521C363.811 23.1785 363.811 23.1027 363.796 23.0291C363.993 22.1015 363.945 21.1388 363.659 20.2349C363.372 19.331 362.856 18.5168 362.161 17.8718C364.197 16.5788 369.31 15.7762 368.79 12.8334C368.493 11.1688 365.743 10.2027 364.331 10.1135C362.919 10.0243 361.671 12.0011 360.66 13.3388C360.748 11.7607 360.452 10.1849 359.798 8.74616C359.025 7.25989 357.004 6.9775 355.339 6.9775C356.454 3.64827 356.826 -1.49421 352.367 -1.94009C351.609 -2.02926 350.88 -2.05895 350.033 -2.08868C350.033 -2.35621 349.959 -2.63859 349.944 -2.92098C349.922 -3.04511 349.852 -3.15551 349.749 -3.22796C349.646 -3.30041 349.518 -3.32901 349.394 -3.30743C349.298 -3.29056 349.209 -3.2444 349.14 -3.17526C349.071 -3.10611 349.025 -3.01731 349.008 -2.92098C348.978 -2.64434 348.978 -2.36532 349.008 -2.08868C346.645 -2.08868 344.237 -1.9401 341.963 -1.95497H340.016V-2.43058C339.996 -2.54416 339.936 -2.647 339.848 -2.72114C339.76 -2.79528 339.648 -2.83598 339.533 -2.83598C339.417 -2.83598 339.306 -2.79528 339.218 -2.72114C339.129 -2.647 339.07 -2.54416 339.05 -2.43058V-1.95497C336.508 -1.95497 333.982 -1.86572 331.44 -1.79141V-2.32653C331.445 -2.44029 331.407 -2.55178 331.335 -2.6395C331.262 -2.72722 331.16 -2.78489 331.047 -2.80151C330.934 -2.81813 330.82 -2.7925 330.725 -2.72948C330.63 -2.66646 330.562 -2.57053 330.533 -2.46024C330.455 -2.2264 330.391 -1.98822 330.34 -1.74687L327.368 -1.62794C327.258 -1.63739 327.15 -1.60621 327.062 -1.5404C326.974 -1.47459 326.914 -1.37879 326.892 -1.27125C326.459 2.14063 326.727 5.60497 327.68 8.90963C327.705 8.99907 327.762 9.07633 327.84 9.12716C327.918 9.17799 328.012 9.19904 328.104 9.18639C328.196 9.17374 328.281 9.12825 328.342 9.05831C328.403 8.98836 328.437 8.8986 328.438 8.80558C328.438 7.42335 326.506 -0.661846 328.691 -0.676709H330.177C330.164 0.670807 330.293 2.01584 330.563 3.33613C329.077 4.52514 329.077 7.02208 329.27 9.38524C328.953 9.23137 328.605 9.15147 328.252 9.15147C327.899 9.15147 327.551 9.23137 327.234 9.38524C327.152 9.43079 327.084 9.49772 327.037 9.57882C326.99 9.65993 326.965 9.7522 326.966 9.84598C326.925 10.7844 326.97 11.7247 327.1 12.655C326.344 12.6697 325.594 12.7897 324.871 13.0117C322.775 13.6805 323.816 16.445 323.578 18.0947C322.969 18.2347 322.403 18.5203 321.928 18.927C321.572 19.3054 321.312 19.7626 321.167 20.2613C321.022 20.7599 320.998 21.2857 321.096 21.7956C319.189 22.4785 317.468 23.5982 316.072 25.0653C314.967 25.2982 313.876 25.591 312.802 25.9422C309.071 27.3264 305.565 29.2546 302.399 31.6643C299.426 33.8194 296.81 37.6094 293.05 38.4714C292.99 38.4786 292.932 38.498 292.879 38.5284C292.827 38.5588 292.781 38.5996 292.745 38.6483C292.708 38.697 292.683 38.7526 292.669 38.8116C292.655 38.8707 292.653 38.9319 292.663 38.9916C292.657 39.0209 292.657 39.0515 292.663 39.0809C287.891 39.2632 283.14 39.8198 278.455 40.7455C274.65 41.4589 270.34 42.7817 268.645 46.6014C268.601 46.6782 268.578 46.7653 268.578 46.854C268.578 46.9427 268.601 47.0298 268.645 47.1066C267.81 47.5053 267.167 48.2191 266.858 49.0913C266.549 49.9635 266.598 50.9229 266.996 51.7587C267.111 51.9952 267.251 52.2193 267.412 52.4275C267.325 52.4825 267.26 52.5658 267.227 52.6633C267.195 52.7608 267.197 52.8664 267.233 52.9625C265.019 54.2853 265.539 57.1538 266.149 59.5318C267.011 62.861 269.894 63.1732 272.881 63.2921C273.232 63.2799 273.583 63.32 273.922 63.411C275.2 66.3835 279.629 65.0162 282.096 64.8973H282.17C282.552 66.6268 283.44 68.2035 284.721 69.4264C286.002 70.6493 287.619 71.463 289.364 71.7638C291.646 71.9676 293.928 71.3635 295.81 70.0569C297.693 68.7504 299.056 66.8244 299.664 64.6149C299.666 64.6709 299.679 64.7258 299.702 64.7766C299.726 64.8274 299.76 64.873 299.801 64.9104C299.843 64.9479 299.892 64.9765 299.945 64.9947C299.998 65.0129 300.054 65.0201 300.11 65.0161C308.685 65.1796 317.261 65.3283 325.837 65.5215C333.521 65.6998 341.101 65.997 348.725 64.8378H348.815C349.264 66.9098 350.43 68.7568 352.108 70.0537C353.785 71.3505 355.866 72.014 357.985 71.9273C359.975 71.8032 361.879 71.0689 363.438 69.8243C364.996 68.5798 366.133 66.8854 366.694 64.9716C366.807 65.0648 366.939 65.1309 367.081 65.1648C367.65 65.2483 368.231 65.1384 368.731 64.8526C369.303 64.5432 369.841 64.1746 370.336 63.7528C370.771 63.4566 371.148 63.084 371.45 62.653C373.28 62.7111 375.099 62.3555 376.771 61.6126C378.213 60.81 377.812 59.2792 377.886 58.001ZM375.478 52.0559C375.421 52.1526 375.39 52.2629 375.39 52.3754C375.39 52.4879 375.421 52.5984 375.478 52.695C374.984 52.6355 374.485 52.6355 373.992 52.695C373.813 51.7735 373.68 50.8669 373.576 49.9455C374.285 50.0819 375.019 49.9881 375.671 49.6778C375.827 50.4781 375.76 51.3058 375.478 52.0708V52.0559ZM374.453 45.2934C374.886 46.1231 375.221 47.0011 375.448 47.9092C375.477 48.1813 375.532 48.4501 375.612 48.7118L373.546 48.9793C373.442 47.8646 373.145 45.9176 373.828 45.0705C373.902 45.1661 373.997 45.2438 374.105 45.2979C374.213 45.3519 374.332 45.3809 374.453 45.3826V45.2934ZM373.784 43.8072C372.387 44.0747 372.446 46.3635 372.446 47.3742C372.466 48.5679 372.561 49.7592 372.729 50.9412C372.77 51.5364 372.88 52.1249 373.056 52.695C372.015 52.8683 370.958 52.9231 369.905 52.8585C368.671 52.6504 367.304 51.2534 366.278 50.5994C365.015 49.8521 363.647 49.2961 362.221 48.9496C359.329 48.1765 356.284 48.1765 353.392 48.9496L352.872 49.1131C353.225 46.1398 353.099 43.1292 352.5 40.1956C354.938 40.1956 357.39 40.1955 359.828 40.0766C362.8 39.9726 365.609 40.2253 368.493 40.1807H371.688C373.903 40.3739 374.17 42.1723 373.843 43.8963L373.784 43.8072ZM350.331 27.8893C350.328 27.8213 350.307 27.7552 350.27 27.6978C350.234 27.6403 350.183 27.5937 350.122 27.5623L353.66 27.8595C354.121 31.5157 353.779 35.2166 354.121 38.8728H349.855C349.969 38.8203 350.063 38.733 350.125 38.6236C350.186 38.5141 350.211 38.388 350.197 38.2633C349.394 34.7855 350.494 31.382 350.331 27.8893ZM354.626 27.8893L357.271 28.0527C360.407 28.2013 363.514 28.4986 366.011 30.5794C368.24 32.4521 369.266 36.1083 370.395 38.8133C365.401 38.62 360.393 38.8133 355.384 38.8133C355.012 35.2016 355.176 31.5455 354.552 27.9339L354.626 27.8893ZM368.849 30.8618C369.783 32.7555 370.496 34.7503 370.975 36.8068C369.013 32.348 367.229 28.6026 362.057 27.3839C359.603 26.9579 357.117 26.7391 354.626 26.7299C350.42 26.4773 346.214 25.9571 342.007 25.6152L337.965 25.3329C344.712 25.5559 351.445 26.0314 358.208 26.18C362.667 26.18 366.486 26.4327 368.775 30.8618H368.849ZM349.231 38.6795C349.27 38.7687 349.338 38.8421 349.424 38.8876H348.844C342.216 38.8183 335.587 38.7192 328.958 38.5904C329.472 36.836 329.663 35.003 329.523 33.1803C329.566 30.8275 329.301 28.4791 328.735 26.1949C332.317 26.1949 335.914 26.4624 339.288 26.6407C342.661 26.8191 346.318 27.1907 349.84 27.5326C349.761 27.5558 349.69 27.602 349.637 27.6656C349.584 27.7291 349.551 27.807 349.543 27.8893C349.142 31.1144 347.819 35.5881 349.156 38.6795H349.231ZM325.346 26.2395H326.075C326.223 28.0973 326.149 29.97 326.253 31.8427C326.273 31.9563 326.332 32.0592 326.421 32.1333C326.509 32.2075 326.621 32.2482 326.736 32.2482C326.851 32.2482 326.963 32.2075 327.051 32.1333C327.14 32.0592 327.199 31.9563 327.219 31.8427C327.318 29.9636 327.209 28.0795 326.892 26.2246H327.873C328.349 30.3328 328.349 34.4822 327.873 38.5904H325.614C325.659 38.5284 325.689 38.4573 325.703 38.3823C326.387 34.3248 325.54 30.2524 325.332 26.2395H325.346ZM325.926 23.8763C325.921 23.4441 325.946 23.0121 326 22.5833H326.55L332.332 22.7467C332.26 23.1099 332.21 23.4773 332.183 23.8467C330.028 23.8467 327.933 23.8467 325.852 23.8467L325.926 23.8763ZM326.387 21.2457C326.623 20.852 326.953 20.5226 327.347 20.2867C327.741 20.0508 328.187 19.9156 328.646 19.8931C330.132 19.6851 331.544 19.5067 332.986 19.4473C332.986 20.0566 333.09 20.666 333.149 21.2754V21.3497L326.387 21.2457ZM335.304 4.30224H334.784C334.859 3.9604 334.948 3.61856 335.037 3.27672C335.444 3.31255 335.833 3.45884 336.163 3.69981C336.494 3.94077 336.751 4.26724 336.91 4.64405C337.385 6.13032 336.91 7.92876 337.177 9.53392C336.877 10.0663 336.762 10.683 336.85 11.2877C336.761 11.3535 336.698 11.448 336.672 11.5552C336.642 11.8964 336.642 12.2395 336.672 12.5807C335.795 12.6848 334.859 12.7145 333.907 12.7888C333.922 10.3466 334.146 7.91016 334.576 5.50611L335.483 5.38719C336.062 5.25342 335.81 4.36169 335.26 4.30224H335.304ZM336.464 13.5468C337.742 13.413 338.975 13.2049 340.269 13.1752C342.572 13.1752 341.666 15.8803 342.097 17.0544C342.127 17.1275 342.173 17.1933 342.23 17.2476C341.13 17.4533 340.055 17.772 339.02 18.1988C338.754 18.3216 338.523 18.511 338.351 18.7487C336.918 18.4934 335.467 18.3493 334.011 18.3177C334.011 16.8314 333.878 15.3452 333.878 13.7697C334.695 13.6806 335.572 13.6359 336.419 13.5468H336.464ZM342.29 8.9245C344.118 8.62725 345.946 8.44894 347.789 8.31517C348.233 10.0165 348.536 11.7513 348.696 13.5022C346.526 13.5022 344.311 13.9481 344.519 16.4748C344.519 16.5812 344.562 16.6832 344.637 16.7585C344.712 16.8338 344.814 16.8761 344.921 16.8761C345.027 16.8761 345.129 16.8338 345.204 16.7585C345.28 16.6832 345.322 16.5812 345.322 16.4748C345.411 14.7061 347.105 14.4683 348.77 14.4831C348.77 15.2114 348.844 15.9694 348.859 16.6382C346.868 16.67 344.881 16.8439 342.914 17.1585V16.9949C342.81 15.8356 343.315 13.2941 341.874 12.6402C340.5 12.1648 339.017 12.1028 337.608 12.4618C337.638 12.1703 337.638 11.8765 337.608 11.585C337.757 9.1475 340.343 9.29605 342.245 8.9988L342.29 8.9245ZM342.765 4.46571C342.848 4.4871 342.935 4.4871 343.018 4.46571C343.219 4.42042 343.422 4.39061 343.627 4.37654C343.959 4.34682 344.292 4.34682 344.623 4.37654C344.706 4.42077 344.797 4.44394 344.891 4.44394C344.984 4.44394 345.076 4.42077 345.158 4.37654C345.553 4.42108 345.952 4.42108 346.347 4.37654C346.793 5.34343 347.18 6.33604 347.507 7.34906C345.5 7.51255 343.509 7.73554 341.562 8.04766C341.413 6.56139 341.145 5.07507 342.721 4.55488L342.765 4.46571ZM339.109 23.7871C339.208 23.4701 339.248 23.1377 339.228 22.8063C342.29 22.8063 345.352 22.8062 348.413 22.9251C348.394 23.2002 348.355 23.4735 348.294 23.7426C348.175 24.456 349.275 24.7681 349.394 24.0398C349.428 23.6704 349.482 23.3032 349.558 22.94H350.88C352.367 22.94 353.853 23.0292 355.443 23.1035C355.4 23.6556 355.518 24.2083 355.785 24.6937H354.299C349.216 24.6937 344.192 24.0547 339.109 23.9061H339.184L339.109 23.7871ZM340.774 18.6001C343.219 18.0663 345.705 17.7382 348.205 17.6192H348.904C348.889 18.9805 348.8 20.34 348.636 21.6916C346.645 21.6024 344.638 21.5132 342.691 21.5132H339.124C338.92 20.9928 338.93 20.4126 339.153 19.8999C339.376 19.3871 339.793 18.9838 340.313 18.7784C340.447 18.7232 340.587 18.6833 340.729 18.6595L340.774 18.6001ZM337.801 21.3943H334.145V21.2902C334.145 20.666 334.071 20.0418 334.026 19.4324C335.321 19.4125 336.614 19.512 337.891 19.7297C337.774 20.3015 337.739 20.8869 337.786 21.4686L337.801 21.3943ZM338.009 22.8805C338.099 23.267 338.203 23.6088 338.292 23.8763L338.396 24.0101L333.476 23.8912C333.456 23.5255 333.496 23.159 333.595 22.8063C335.081 22.8063 336.568 22.8954 338.054 22.8954L338.009 22.8805ZM356.826 24.7533C356.879 24.459 356.831 24.1555 356.692 23.8912C356.632 23.6817 356.587 23.4681 356.558 23.2521H357.212C358.921 23.2521 362.444 22.3752 362.919 25.0951C360.894 24.8302 358.852 24.721 356.811 24.7681L356.826 24.7533ZM360.63 14.7953C361.968 13.9035 362.548 12.2983 363.826 11.3471C365.104 10.3959 368.701 12.5808 367.437 13.9035C365.817 15.6127 362.875 15.5384 361.24 17.2179C360.935 17.0568 360.617 16.9225 360.288 16.8166C360.407 16.1775 360.526 15.4938 360.615 14.8101L360.63 14.7953ZM361.998 18.8082C362.919 19.5662 362.83 21.0821 362.845 22.3009C361.74 21.8102 360.522 21.6304 359.322 21.7807C356.142 21.9591 352.902 21.7807 349.677 21.7807C349.84 20.4134 349.944 19.0014 349.974 17.5746C352.218 17.4557 354.433 17.5746 356.707 17.5746C358.554 17.4081 360.406 17.8463 361.983 18.8231L361.998 18.8082ZM349.959 14.4682H351.193C352.902 14.3939 357.063 13.5319 356.885 16.2518C354.596 16.1477 352.099 16.4005 349.989 16.4896C349.989 15.8505 349.989 15.1668 349.989 14.4831L349.959 14.4682ZM356.454 8.12195C360.482 8.33003 359.739 13.7995 359.263 16.549C358.802 16.4599 358.342 16.3855 357.866 16.3409C358.683 12.8185 353.779 13.2941 351.624 13.4725H349.885C349.766 11.6864 349.482 9.91523 349.038 8.18137L351.415 8.07732C353.08 8.07732 354.774 8.07732 356.439 8.07732L356.454 8.12195ZM354.67 1.56747C354.873 3.2597 354.721 4.97553 354.225 6.60593C354.18 6.72581 354.18 6.85762 354.225 6.9775H353.214C353.214 5.32775 353.348 3.78205 351.921 2.7268C351.592 2.50338 351.204 2.38427 350.806 2.38499C350.792 1.31313 350.657 0.246239 350.405 -0.795635C352.084 -0.795635 354.388 -1.22669 354.656 1.58235L354.67 1.56747ZM349.974 3.52935C350.065 3.59468 350.174 3.62987 350.286 3.62987C350.398 3.62987 350.507 3.59468 350.598 3.52935C352.471 3.52935 352.263 5.71418 352.233 7.08155C351.074 7.08155 349.9 7.18559 348.74 7.27477C348.41 6.18562 347.987 5.12655 347.477 4.10902C348.291 3.86826 349.12 3.67961 349.959 3.54423L349.974 3.52935ZM340.09 -0.82539H340.744C343.583 -0.82539 346.451 -0.676767 349.29 -0.736217C349.542 0.319899 349.662 1.40325 349.647 2.48895C348.725 2.63758 347.759 2.94971 346.972 3.15779C346.711 2.68733 346.418 2.23546 346.095 1.80533C346.035 1.71217 345.944 1.64343 345.839 1.61165C345.733 1.57988 345.619 1.58712 345.518 1.63215C345.417 1.67719 345.336 1.75697 345.289 1.85694C345.242 1.95692 345.233 2.0705 345.262 2.17689C345.204 2.19755 345.153 2.23351 345.114 2.28094C345.025 2.38498 344.876 2.39982 344.772 2.53358L344.549 2.9349C344.503 3.05651 344.463 3.18055 344.43 3.30647H343.078C342.721 2.25122 341.472 2.31063 340.224 2.51871C340.078 1.41539 340.028 0.301442 340.075 -0.810513L340.09 -0.82539ZM339.317 3.7077C339.346 3.77427 339.388 3.83449 339.441 3.88477C339.493 3.93506 339.555 3.97445 339.623 4.00071C339.69 4.02696 339.763 4.03953 339.835 4.03772C339.908 4.0359 339.979 4.0197 340.046 3.99009C340.144 3.94838 340.229 3.87792 340.287 3.7878C340.345 3.69768 340.375 3.59212 340.373 3.48481C340.613 3.39548 340.869 3.35724 341.125 3.3726C341.381 3.38796 341.631 3.45656 341.859 3.57399C341.643 3.66431 341.439 3.77897 341.249 3.9158C339.956 4.92646 340.239 6.71002 340.685 8.13683L339.392 8.37459C338.922 8.45597 338.463 8.59064 338.024 8.77591C338.16 7.10297 338.009 5.41916 337.578 3.79687C338.149 3.89361 338.732 3.89361 339.302 3.79687L339.317 3.7077ZM339.005 -0.82539C338.914 0.354047 338.948 1.53992 339.109 2.71193C338.623 2.83276 338.119 2.85798 337.623 2.78622C337.53 2.76558 337.434 2.77138 337.345 2.80291C337.255 2.83445 337.177 2.89045 337.118 2.96457C336.892 2.69624 336.592 2.49991 336.256 2.39978C336.243 2.00674 336.208 1.61476 336.152 1.22566C336.144 1.12052 336.097 1.02216 336.02 0.950435C335.942 0.878709 335.841 0.83895 335.735 0.839219H335.661C335.611 0.754862 335.531 0.693541 335.436 0.668495C335.341 0.643449 335.241 0.656752 335.156 0.705506C335.098 0.734338 335.051 0.781255 335.022 0.839219C334.804 1.30492 334.596 1.76565 334.398 2.22143C333.506 2.30073 332.625 2.47007 331.767 2.7268C331.625 1.58297 331.556 0.431278 331.559 -0.72134L339.005 -0.82539ZM330.801 4.62918C330.916 4.40374 331.072 4.20208 331.262 4.03472C331.359 4.02029 331.451 3.98313 331.531 3.92632C331.611 3.86951 331.677 3.79459 331.722 3.7077C332.418 3.33688 333.194 3.14291 333.982 3.14291C333.848 3.52934 333.714 3.91583 333.61 4.31712C333.021 4.35293 332.435 4.42735 331.856 4.54C331.726 4.56536 331.611 4.63954 331.533 4.74729C331.456 4.85503 331.423 4.98821 331.44 5.11967C331.459 5.22294 331.509 5.31798 331.584 5.39227C331.658 5.46655 331.753 5.51663 331.856 5.53587H333.343C332.825 7.94821 332.581 10.4111 332.614 12.878C332.111 12.9498 331.615 13.0591 331.128 13.205C331.094 13.1465 331.05 13.0954 330.996 13.0545C330.942 13.0137 330.881 12.984 330.816 12.9672C330.682 10.2473 329.612 7.23015 330.816 4.64405L330.801 4.62918ZM331.945 14.0521C332.151 13.9982 332.359 13.9584 332.57 13.9332C332.57 15.4195 332.703 16.9058 332.822 18.3177C331.561 18.345 330.304 18.4692 329.062 18.6893C329.151 16.2667 329.151 14.7507 331.931 14.067L331.945 14.0521ZM328.141 10.2175C328.525 10.185 328.913 10.2202 329.285 10.3216C329.349 10.3362 329.415 10.3362 329.478 10.3216C329.582 11.2282 329.701 12.0754 329.761 12.774C329.244 12.6852 328.723 12.6257 328.2 12.5956C328.094 11.8126 328.069 11.0206 328.126 10.2324L328.141 10.2175ZM325.421 13.8144C326.856 13.5022 328.341 13.5022 329.775 13.8144C328.2 14.8102 328.022 16.2518 328.17 18.0502C326.947 17.8596 325.707 17.7948 324.47 17.857C324.618 16.4747 324.098 14.171 325.406 13.8292L325.421 13.8144ZM322.448 19.9823C322.939 19.046 324.841 19.046 325.718 19.046C326.175 19.0411 326.632 19.0659 327.085 19.1203H326.758C326.334 19.3094 325.957 19.59 325.654 19.942C325.35 20.2941 325.129 20.7087 325.005 21.1564C324.058 21.1414 323.113 21.2161 322.181 21.3794C322.179 20.9011 322.286 20.4286 322.493 19.9972L322.448 19.9823ZM322.181 23.9655C322.24 23.5216 322.24 23.0718 322.181 22.6279C323.004 22.5336 323.834 22.4989 324.663 22.5239C324.603 22.9916 324.681 23.4666 324.886 23.8912C323.949 23.8912 322.998 23.9952 322.062 24.0844L322.181 23.9655ZM318.777 23.9655C319.461 23.3816 320.278 22.9735 321.155 22.7765C321.17 23.0587 321.17 23.3415 321.155 23.6237C321.134 23.7113 321.137 23.8029 321.163 23.8891C321.189 23.9753 321.238 24.0531 321.304 24.1142C320.234 24.2331 319.178 24.3668 318.138 24.5452L318.777 23.9655ZM308.24 29.1823C312.207 27.0584 316.577 25.7924 321.066 25.4666L318.673 25.7937C315.245 26.3253 311.924 27.3988 308.834 28.9742C305.639 30.6091 303.082 33.225 300.095 35.1571C302.617 32.9041 305.361 30.9123 308.284 29.212L308.24 29.1823ZM296.81 38.0999C296.721 38.5913 296.721 39.0947 296.81 39.5861C296.756 39.5288 296.688 39.4863 296.612 39.4629C296.537 39.4394 296.456 39.4359 296.379 39.4524C296.351 39.3333 296.283 39.2277 296.185 39.1543C296.087 39.081 295.966 39.0444 295.844 39.0511H295.086C295.705 38.7798 296.288 38.4355 296.825 38.0256L296.81 38.0999ZM279.792 41.7115C284.99 40.8677 290.238 40.3711 295.502 40.2252C295.074 41.1889 294.857 42.2326 294.863 43.2869C294.789 44.5205 294.551 47.0472 295.354 48.147C292.227 47.8037 289.065 48.2341 286.144 49.4003C283.223 50.5666 280.633 52.433 278.603 54.8352C277.675 53.7434 276.525 52.8619 275.23 52.2491L275.557 51.9221C276.538 50.7182 277.043 47.3148 275.319 46.5122C273.551 45.9924 271.661 46.0654 269.939 46.7202C271.886 43.2126 276.002 42.3654 279.718 41.7115H279.792ZM274.472 47.2999C274.661 47.3364 274.837 47.4233 274.981 47.5515C275.124 47.6797 275.231 47.8444 275.289 48.0281C275.465 48.9174 275.351 49.8398 274.962 50.6588C274.857 50.8822 274.705 51.08 274.516 51.2385C274.767 49.9329 274.726 48.588 274.397 47.2999H274.472ZM273.52 51.5803H272.198C272.061 50.8499 271.992 50.1087 271.99 49.3658C271.99 48.6672 271.99 47.9835 271.99 47.285C272.511 47.198 273.037 47.1483 273.565 47.1364C273.684 48.6227 273.446 49.9603 273.461 51.3722C273.446 51.4408 273.446 51.5117 273.461 51.5803H273.52ZM268.571 48.5037C269.125 47.9268 269.883 47.5905 270.682 47.5674H270.964C270.667 48.9437 270.667 50.3675 270.964 51.7438C270.135 51.7335 269.309 51.8436 268.512 52.0708C268.486 52.0019 268.451 51.9369 268.408 51.8776C267.988 51.3905 267.772 50.7601 267.805 50.1177C267.838 49.4753 268.118 48.8706 268.586 48.4294L268.571 48.5037ZM275.542 63.6488C277.221 63.9014 279.138 64.0649 280.134 63.2921C280.241 63.3219 280.354 63.3219 280.461 63.2921C280.961 63.2603 281.458 63.1907 281.948 63.084V63.7082C280.283 63.8419 277.281 64.6743 275.571 63.7082L275.542 63.6488ZM281.977 62.0585C281.696 62.0555 281.416 62.0905 281.145 62.1625H281.026C281.412 60.8992 281.665 59.5913 282.037 58.2983C283.077 54.642 287.491 53.5571 290.791 53.3638C288.935 53.4984 287.159 54.1701 285.678 55.297C284.197 56.4239 283.077 57.9573 282.453 59.7101C282.198 60.4684 282.053 61.2592 282.022 62.0585H281.977ZM292.827 70.5599C287.031 72.3137 282.928 66.8145 283.166 61.6423C283.404 56.4701 288.799 54.211 293.377 54.8055C293.393 54.8998 293.437 54.9871 293.503 55.056C293.569 55.125 293.655 55.1723 293.748 55.1919C302.101 57.347 300.035 68.39 292.857 70.5599H292.827ZM348.488 63.5596C340.566 64.7635 332.599 64.4067 324.603 64.273C316.607 64.1392 308.358 64.0055 300.243 64.1541C300.183 64.1538 300.123 64.1655 300.067 64.1884C300.011 64.2114 299.959 64.2451 299.916 64.2878C300.065 63.7523 300.169 63.2055 300.229 62.653C300.375 62.8269 300.565 62.9595 300.779 63.0377C300.992 63.1159 301.223 63.137 301.447 63.0989C301.515 63.1279 301.589 63.1429 301.663 63.1429C301.737 63.1429 301.81 63.1279 301.878 63.0989C309.31 63.5299 316.875 63.2475 324.321 63.0989C328.051 63.0989 331.752 62.9205 335.483 62.757C339.213 62.5936 343.152 62.9502 347.031 62.9354H347.239C347.334 62.9839 347.444 62.9939 347.547 62.9635C347.649 62.9331 347.736 62.8644 347.789 62.7718V62.6827H348.012C348.272 62.6855 348.525 62.596 348.725 62.43C348.696 62.7911 348.696 63.1539 348.725 63.515C348.647 63.5008 348.566 63.5008 348.488 63.515V63.5596ZM299.827 58.9076C300.301 59.8158 300.674 60.7726 300.942 61.7612H300.868C300.785 61.6962 300.686 61.6538 300.582 61.6382C300.478 61.6225 300.372 61.6342 300.273 61.672C300.284 60.7585 300.143 59.8495 299.857 58.9819L299.827 58.9076ZM348.874 61.0329V61.3748C348.805 61.3384 348.729 61.3193 348.651 61.3193C348.573 61.3193 348.497 61.3384 348.428 61.3748L348.146 61.5234C348.56 59.9668 349.305 58.518 350.332 57.2764C351.358 56.0348 352.64 55.0297 354.091 54.3299C352.769 54.967 351.615 55.9053 350.722 57.0695C349.829 58.2337 349.221 59.5912 348.948 61.0329H348.874ZM359.768 70.114C354.225 72.0313 349.914 67.2752 350.048 62.0436C350.197 56.0985 356.632 53.8543 361.582 55.2365C361.688 55.2637 361.801 55.2477 361.895 55.192C361.99 55.1363 362.059 55.0455 362.087 54.9393C362.094 54.905 362.094 54.8695 362.087 54.8352C363.294 55.3401 364.328 56.1875 365.059 57.2727C368.359 61.7315 364.272 68.5831 359.828 70.114H359.768ZM368.939 63.3515C368.586 63.6169 368.195 63.8275 367.779 63.9758C367.669 64.0128 367.552 64.0185 367.439 63.9922C367.326 63.966 367.222 63.9088 367.14 63.8271C367.215 63.515 367.274 63.1881 367.333 62.8611C367.631 62.8686 367.923 62.78 368.166 62.6084C368.22 62.6907 368.296 62.7564 368.385 62.7984C368.474 62.8404 368.573 62.857 368.671 62.8462L369.593 62.7718C369.41 62.9566 369.216 63.1303 369.013 63.2921L368.939 63.3515ZM375.805 60.4681C373.548 60.9438 371.265 61.2862 368.968 61.4937C368.478 58.8333 367.943 56.5891 365.907 54.6866C364.753 53.6936 363.41 52.9445 361.959 52.4847C360.509 52.0249 358.979 51.8638 357.465 52.0113C352.5 52.472 347.566 56.6633 347.061 61.6571C343.642 61.6571 340.343 61.2559 336.91 61.4491C333.194 61.6423 329.478 61.7613 325.748 61.8356C317.96 62.0288 310.083 61.7018 302.309 62.2517C301.135 56.9903 297.732 53.0071 292.143 52.5018C289.112 52.187 286.073 53.0079 283.612 54.8055C281.323 56.7822 280.937 59.2643 280.194 61.9395C280.108 61.9418 280.025 61.9663 279.952 62.0107C279.879 62.055 279.819 62.1176 279.778 62.1923C279.243 63.2475 275.319 62.3855 274.338 62.2814C272.242 62.0288 269.374 62.5192 267.977 60.5871C267.315 59.3758 266.944 58.0276 266.892 56.6484C266.815 56.3068 266.806 55.9535 266.867 55.6086C266.927 55.2637 267.054 54.934 267.242 54.6386C267.43 54.3431 267.674 54.0875 267.961 53.8866C268.248 53.6857 268.571 53.5435 268.913 53.4679H269.091C270.428 53.0557 271.825 52.8699 273.223 52.918C275.349 52.918 276.612 54.5231 277.935 55.8905C277.963 55.9528 278.009 56.0047 278.068 56.0391L278.291 56.2769C278.797 56.7822 279.54 56.0688 279.183 55.5337C281.517 53.4381 283.255 51.3425 286.495 50.317C289.134 49.6056 291.864 49.29 294.596 49.3807C299.337 49.3807 303.216 56.3512 304.999 60.1263C305.371 60.8992 306.486 60.2155 306.144 59.4575C304.654 56.5305 302.807 53.7997 300.645 51.3277C299.527 49.783 297.892 48.6911 296.037 48.2511C296.108 48.1874 296.16 48.1049 296.186 48.0132C296.248 46.7943 296.168 45.5724 295.948 44.372C295.734 42.9302 296.028 41.4587 296.78 40.2104C296.834 40.15 296.875 40.0792 296.899 40.0023C297.08 40.6876 297.489 41.2907 298.059 41.7115C298.489 41.9398 298.992 41.9899 299.459 41.8509C299.926 41.7119 300.32 41.395 300.556 40.9684C300.596 40.8919 300.631 40.8125 300.66 40.7306C300.975 40.1202 301.114 39.4339 301.062 38.7488C301.009 38.0636 300.767 37.4067 300.362 36.8515C300.281 36.774 300.176 36.7251 300.064 36.7122C299.952 36.6994 299.839 36.7233 299.741 36.7803C299.644 36.8372 299.568 36.9243 299.525 37.0283C299.481 37.1322 299.473 37.2475 299.5 37.3567C299.885 38.0922 299.991 38.9423 299.798 39.7496C299.694 40.1212 299.263 41.013 298.742 40.7455C298.429 40.4114 298.191 40.0148 298.042 39.5819C297.894 39.1489 297.838 38.6895 297.88 38.2337C297.975 37.7746 298.225 37.3619 298.587 37.0645C298.95 36.767 299.403 36.6026 299.872 36.5987C299.966 36.5828 300.053 36.5389 300.122 36.4726C300.191 36.4064 300.239 36.3208 300.258 36.2272C302.419 34.9735 304.467 33.5364 306.382 31.9318C309.336 29.7938 312.693 28.277 316.251 27.4731C318.861 26.8306 321.53 26.4523 324.217 26.3436C323.994 30.2673 325.183 34.1315 324.425 38.0701C324.405 38.1566 324.407 38.2467 324.43 38.3323C324.453 38.4179 324.498 38.4964 324.559 38.5606H324.291C320.412 38.4714 316.548 38.5606 312.683 38.6795C309.191 38.8133 305.089 39.6159 301.641 39.0362C301.578 39.0301 301.515 39.0364 301.455 39.0547C301.395 39.0731 301.339 39.1033 301.291 39.1434C301.242 39.1834 301.202 39.2326 301.173 39.2882C301.144 39.3438 301.126 39.4047 301.12 39.4672C301.114 39.5657 301.138 39.6638 301.188 39.7486C301.238 39.8335 301.313 39.9012 301.403 39.9428C303.269 40.3538 305.198 40.3942 307.08 40.0618C310.172 39.7496 313.323 39.8536 316.414 39.7496C319.505 39.6456 322.627 39.7496 325.733 39.7496C325.726 39.7661 325.722 39.7838 325.722 39.8017C325.722 39.8196 325.726 39.8372 325.733 39.8537C325.733 46.2446 326.119 52.6356 326.179 59.0265C320.501 59.1751 314.824 59.3238 309.146 59.5021C308.73 59.5021 308.596 60.1858 309.042 60.2601C313.709 60.9735 318.51 60.3642 323.206 60.2601C328.869 60.1264 334.561 60.4384 340.209 59.8291C340.937 59.8291 340.967 58.655 340.209 58.6698L327.338 58.9968C327.338 52.6207 326.922 46.2446 326.803 39.8537C330.429 39.9428 334.071 40.0915 337.697 40.1509C342.26 40.2252 346.868 40.3738 351.445 40.4036C351.7 43.4929 351.785 46.594 351.698 49.6927C349.808 50.7062 348.1 52.0273 346.645 53.6016C345.158 55.0879 344.772 58.4914 342.751 58.7887C342.186 58.8778 342.32 59.8142 342.884 59.7845C343.587 59.8146 344.288 59.7086 344.95 59.4724C345.073 59.4372 345.182 59.3632 345.259 59.2615C345.337 59.1597 345.38 59.0356 345.381 58.9076C345.723 54.4488 350.806 51.0007 354.73 49.99C359.649 48.7267 364.257 50.9115 368.106 53.7057C370.128 55.1919 376.563 53.1557 376.563 56.4701C376.563 57.1389 376.652 60.3493 375.879 60.4979L375.805 60.4681Z" fill="#484751"/>
<path d="M351.683 38.1593C351.694 38.2373 351.72 38.3124 351.761 38.3798C351.802 38.4473 351.856 38.5057 351.92 38.5516C351.984 38.5975 352.056 38.6298 352.133 38.6467C352.21 38.6636 352.29 38.6647 352.367 38.6498C352.49 38.6297 352.603 38.5715 352.691 38.4835C352.779 38.3955 352.837 38.2821 352.857 38.1593C353.029 34.8189 352.835 31.4698 352.278 28.1717C352.204 27.7258 351.46 27.8298 351.49 28.2757C351.725 31.5647 351.79 34.8636 351.683 38.1593Z" fill="#484751"/>
<path d="M343.909 43.8667H344.667C344.637 43.9063 344.614 43.9518 344.601 44.0003C344.589 44.0488 344.586 44.0994 344.593 44.1491C344.489 44.4017 344.727 44.6693 344.98 44.7139C345.431 44.7887 345.894 44.7582 346.332 44.6247C346.987 44.6298 347.64 44.5599 348.279 44.4166C348.452 44.3555 348.596 44.2311 348.681 44.0685C348.767 43.9059 348.788 43.7171 348.74 43.5397C349.691 43.2573 350.85 42.4547 349.869 41.4441C349.808 41.3829 349.732 41.3385 349.649 41.3151C349.566 41.2916 349.478 41.2901 349.394 41.3103C349.347 41.2413 349.279 41.1891 349.201 41.1617C347.164 40.3294 342.75 40.1064 343.345 43.3911C343.366 43.5249 343.435 43.6466 343.539 43.734C343.642 43.8213 343.774 43.8684 343.909 43.8667ZM348.948 42.098V42.2466C348.784 42.3374 348.609 42.4073 348.428 42.4547C347.872 42.5956 347.305 42.6852 346.733 42.7222C345.947 42.7817 345.157 42.7817 344.37 42.7222C344.504 41.0873 347.729 41.9197 348.948 42.0237V42.098Z" fill="#484751"/>
<path d="M318.05 43.9706C318.307 43.9557 318.565 43.9557 318.823 43.9706C318.853 44.0519 318.904 44.1237 318.971 44.1787C319.216 44.4153 319.504 44.6014 319.82 44.7263C320.136 44.8513 320.474 44.9127 320.814 44.9069C321.566 44.8313 322.311 44.7021 323.044 44.5205C323.218 44.4781 323.37 44.3685 323.464 44.2155C323.559 44.0625 323.589 43.8784 323.549 43.7031C323.518 43.5733 323.451 43.4548 323.356 43.3612C323.711 43.1562 323.99 42.8402 324.148 42.4615C324.307 42.0829 324.336 41.6627 324.233 41.2656C324.219 41.2069 324.193 41.1515 324.158 41.103C324.122 41.0545 324.077 41.0137 324.025 40.9832C323.981 40.9161 323.922 40.8607 323.852 40.8219C323.782 40.783 323.703 40.7618 323.623 40.7602C321.675 40.6387 319.719 40.7034 317.782 40.9534C317.685 40.9818 317.6 41.0403 317.538 41.1205C317.477 41.2007 317.443 41.2984 317.44 41.3994V43.5544C317.449 43.6206 317.472 43.6843 317.506 43.7416C317.54 43.7989 317.586 43.8485 317.641 43.8875C317.695 43.9265 317.756 43.9539 317.822 43.9682C317.887 43.9825 317.955 43.9833 318.02 43.9706H318.05ZM323.222 41.7412C322.954 43.2274 319.997 42.9005 318.406 42.9451V41.7412C319.982 41.5777 321.617 41.8452 323.222 41.7412Z" fill="#484751"/>
<path d="M275.883 44.5951C277.707 43.6203 279.763 43.1628 281.829 43.2723C284.325 43.1236 286.822 42.7967 289.26 42.5886C289.392 42.5668 289.51 42.4935 289.588 42.3848C289.666 42.2761 289.697 42.141 289.676 42.009C289.657 41.9057 289.607 41.8107 289.532 41.7364C289.458 41.6621 289.363 41.612 289.26 41.5928C286.317 41.6519 283.379 41.8752 280.461 42.2616C278.626 42.2056 276.832 42.8124 275.408 43.9709C275.081 44.2681 275.512 44.8626 275.883 44.5951Z" fill="#484751"/>
<path d="M301.001 49.3361C300.947 49.3173 300.89 49.3094 300.834 49.3127C300.777 49.3161 300.721 49.3305 300.67 49.3554C300.619 49.3803 300.573 49.415 300.536 49.4576C300.498 49.5002 300.469 49.5498 300.451 49.6036C300.421 49.6833 300.417 49.7703 300.438 49.8527C300.459 49.9351 300.505 50.0089 300.57 50.0643C301.447 50.7034 302.16 51.5506 302.978 52.2045C303.453 52.6058 304.152 51.9371 303.676 51.506C302.867 50.6867 301.97 49.9589 301.001 49.3361Z" fill="#484751"/>
<path d="M343.88 54.4194C344.841 52.8436 346.153 51.511 347.714 50.5254C347.821 50.4403 347.892 50.3175 347.911 50.182C347.931 50.0466 347.897 49.9088 347.818 49.7971C347.746 49.7057 347.646 49.6402 347.534 49.6107C347.421 49.5812 347.302 49.5893 347.194 49.6337C345.294 50.5496 343.764 52.0856 342.854 53.9884C342.616 54.5978 343.568 54.9545 343.88 54.4194Z" fill="#484751"/>
<path d="M358.624 46.0812C358.137 46.2173 357.64 46.3167 357.138 46.3785C357.031 46.3785 356.929 46.4208 356.854 46.496C356.779 46.5713 356.736 46.6734 356.736 46.7798C356.736 46.8862 356.779 46.9883 356.854 47.0636C356.929 47.1388 357.031 47.181 357.138 47.181C357.734 47.2009 358.331 47.1308 358.906 46.973C358.966 46.9546 359.021 46.9243 359.068 46.8841C359.115 46.8439 359.154 46.7946 359.182 46.7391C359.209 46.6835 359.226 46.623 359.229 46.561C359.233 46.499 359.224 46.437 359.204 46.3785C359.166 46.2622 359.084 46.1656 358.975 46.1099C358.867 46.0541 358.74 46.0438 358.624 46.0812Z" fill="#484751"/>
<path d="M273.907 53.8097C273.416 53.6165 273.045 54.4637 273.535 54.6717C274.103 54.9527 274.624 55.3186 275.081 55.7567C275.123 55.7987 275.173 55.8319 275.228 55.8547C275.282 55.8774 275.341 55.889 275.401 55.889C275.46 55.889 275.519 55.8774 275.574 55.8547C275.628 55.8319 275.678 55.7987 275.72 55.7567C275.762 55.7147 275.795 55.6649 275.818 55.6101C275.841 55.5553 275.852 55.4964 275.852 55.4371C275.852 55.3778 275.841 55.319 275.818 55.2642C275.795 55.2094 275.762 55.1596 275.72 55.1176C275.237 54.5347 274.613 54.0846 273.907 53.8097Z" fill="#484751"/>
<path d="M271.736 55.1024C271.201 54.7755 270.74 55.6078 271.245 55.9645C271.658 56.2352 272.084 56.4832 272.524 56.7076C272.984 56.9306 273.534 56.3212 273.103 55.9645C272.672 55.6078 272.211 55.37 271.736 55.1024Z" fill="#484751"/>
<path d="M323.443 33.4629C323.178 31.6624 323.069 29.8425 323.116 28.0232C323.116 27.6517 322.551 27.4584 322.388 27.83C321.792 29.7745 321.839 31.8594 322.522 33.7751C322.641 34.3399 323.577 34.0723 323.443 33.4629Z" fill="#484751"/>
<path d="M345.545 29.6433C345.768 31.1296 345.857 32.5266 345.991 33.9832C345.991 34.5479 346.927 34.5628 346.883 33.9832C346.789 32.4577 346.606 30.939 346.333 29.4352C346.229 28.915 345.456 29.138 345.545 29.6433Z" fill="#484751"/>
<path d="M331.01 32.8384C331.114 34.0125 331.084 35.2015 331.278 36.3608C331.352 36.8216 332.095 36.7175 332.065 36.2568C332.048 35.1133 331.964 33.9719 331.813 32.8384C331.694 32.3182 330.891 32.3182 331.01 32.8384Z" fill="#484751"/>
<path d="M303.691 38.6496C303.854 37.847 303.825 37.0296 303.944 36.227C303.944 35.7514 303.29 35.5433 303.215 36.0338C303.082 36.8661 303.037 37.6984 302.948 38.5456C302.888 38.9766 303.617 39.0658 303.691 38.6496Z" fill="#484751"/>
<path d="M322.88 47.3894C323.341 50.1836 323.475 53.0075 323.906 55.7869C323.906 56.3516 324.901 56.2179 324.872 55.6679C324.661 52.8157 324.234 49.9836 323.594 47.1962C323.579 46.7206 322.791 46.8395 322.88 47.3894Z" fill="#484751"/>
<path d="M328.734 41.8451C328.734 41.7308 328.689 41.6212 328.608 41.5403C328.527 41.4595 328.417 41.4141 328.303 41.4141C328.189 41.4141 328.079 41.4595 327.998 41.5403C327.918 41.6212 327.872 41.7308 327.872 41.8451C327.765 42.8421 327.846 43.8504 328.11 44.8177C328.162 44.9314 328.256 45.0201 328.373 45.0646C328.49 45.1091 328.62 45.1058 328.734 45.0554C328.829 45.0167 328.908 44.9475 328.96 44.8587C329.011 44.7698 329.031 44.6665 329.017 44.5649C328.856 43.6665 328.761 42.7575 328.734 41.8451Z" fill="#484751"/>
<path d="M336.553 56.8269C334.325 56.5147 332.064 56.5147 329.835 56.8269C329.241 56.9755 329.493 57.8376 330.088 57.7336C332.239 57.5553 334.402 57.5553 336.553 57.7336C336.865 57.7336 337.118 57.5999 337.118 57.2877C337.118 56.9756 336.865 56.708 336.553 56.8269Z" fill="#484751"/>
<path d="M354.685 9.92061H356.171C356.294 9.92061 356.411 9.87212 356.497 9.78572C356.584 9.69931 356.632 9.58207 356.632 9.45987C356.632 9.33768 356.584 9.22052 356.497 9.13412C356.411 9.04771 356.294 8.99913 356.171 8.99913C355.647 8.95917 355.119 9.00949 354.611 9.14781C354.508 9.15767 354.414 9.2078 354.348 9.28724C354.283 9.36668 354.252 9.46887 354.262 9.57136C354.271 9.67385 354.322 9.7682 354.401 9.83371C354.48 9.89921 354.583 9.93046 354.685 9.92061Z" fill="#484751"/>
<path d="M356.662 11.4955C356.911 11.508 357.159 11.4675 357.39 11.3767C357.489 11.331 357.569 11.2519 357.615 11.1532C357.661 11.0546 357.67 10.9428 357.642 10.8377C357.613 10.7327 357.549 10.6411 357.459 10.5792C357.369 10.5173 357.261 10.4892 357.153 10.4997C356.998 10.5661 356.83 10.5966 356.662 10.5889C356.542 10.6106 356.435 10.6792 356.365 10.7795C356.296 10.8798 356.269 11.0037 356.291 11.1239C356.305 11.2172 356.349 11.3035 356.416 11.3703C356.483 11.4371 356.569 11.4809 356.662 11.4955Z" fill="#484751"/>
<path d="M338.441 14.5277C338.928 14.6612 339.441 14.6612 339.928 14.5277C340.06 14.5061 340.18 14.4381 340.267 14.336C340.353 14.2339 340.401 14.1043 340.401 13.9704C340.401 13.8364 340.353 13.7068 340.267 13.6047C340.18 13.5026 340.06 13.4347 339.928 13.413C339.686 13.3832 339.441 13.3832 339.199 13.413C338.997 13.3833 338.792 13.3833 338.59 13.413C338.531 13.4214 338.475 13.4431 338.426 13.4766C338.377 13.5101 338.337 13.5545 338.307 13.6062C338.277 13.6578 338.252 13.7126 338.233 13.7697C338.196 13.8329 338.172 13.9029 338.163 13.9755C338.153 14.0481 338.158 14.1218 338.178 14.1924C338.197 14.263 338.231 14.3291 338.276 14.3867C338.321 14.4442 338.377 14.4922 338.441 14.5277Z" fill="#484751"/>
<path d="M339.733 15.4344C339.532 15.4349 339.331 15.4048 339.139 15.3452C339.075 15.3188 339.007 15.3052 338.939 15.3052C338.87 15.3051 338.802 15.3186 338.738 15.3448C338.675 15.371 338.617 15.4095 338.569 15.458C338.52 15.5066 338.481 15.5641 338.455 15.6276C338.429 15.691 338.415 15.759 338.415 15.8277C338.415 15.8964 338.428 15.9644 338.455 16.0279C338.481 16.0914 338.519 16.1491 338.568 16.1977C338.616 16.2463 338.674 16.2849 338.737 16.3113C339.063 16.4004 339.407 16.4004 339.733 16.3113C339.839 16.2288 339.909 16.1097 339.932 15.9776C339.954 15.8456 339.925 15.71 339.852 15.5978C339.804 15.5498 339.764 15.4947 339.733 15.4344Z" fill="#484751"/>
<path d="M341.963 19.1494C341.592 19.1494 340.729 18.9563 340.388 19.2684C340.293 19.3631 340.24 19.4913 340.24 19.6251C340.24 19.7588 340.293 19.887 340.388 19.9817C340.729 20.2939 341.592 20.175 341.963 20.0858C342.087 20.048 342.191 19.9628 342.252 19.8486C342.313 19.7344 342.327 19.6006 342.29 19.4765C342.266 19.3999 342.223 19.3302 342.166 19.2734C342.109 19.2165 342.04 19.174 341.963 19.1494Z" fill="#484751"/>
<path d="M352.932 19.3131C352.839 19.3231 352.753 19.364 352.686 19.4294C352.619 19.4948 352.576 19.5807 352.564 19.6734C352.552 19.7661 352.572 19.8602 352.619 19.9404C352.667 20.0206 352.741 20.0824 352.828 20.1158C355.102 20.8737 357.837 20.3684 360.17 20.1158C360.301 20.0904 360.416 20.0162 360.494 19.9085C360.571 19.8007 360.604 19.6675 360.587 19.5361C360.567 19.4328 360.517 19.3378 360.443 19.2635C360.369 19.1892 360.274 19.1391 360.17 19.1199C357.763 18.9564 355.34 19.4617 352.932 19.3131Z" fill="#484751"/>
<path d="M341.219 0.943002C341.908 0.905845 342.597 0.905845 343.285 0.943002C343.412 0.943002 343.532 0.892858 343.622 0.803664C343.711 0.714471 343.761 0.593524 343.761 0.467386C343.761 0.341248 343.711 0.220301 343.622 0.131108C343.532 0.0419148 343.412 -0.00822929 343.285 -0.00822929C342.554 -0.0825434 341.817 -0.0825434 341.086 -0.00822929C340.551 0.0809466 340.67 1.00245 341.219 0.943002Z" fill="#484751"/>
<path d="M352.975 1.12146C353.089 1.06955 353.178 0.974942 353.222 0.85812C353.267 0.741298 353.263 0.611679 353.213 0.497258C353.174 0.402336 353.105 0.322979 353.016 0.271833C352.928 0.220687 352.824 0.200668 352.723 0.214864C352.247 -0.171565 351.563 0.497273 352.039 0.883701C352.158 1.00611 352.308 1.09318 352.473 1.13516C352.639 1.17715 352.813 1.17237 352.975 1.12146Z" fill="#484751"/>
</g>
<defs>
<filter id="filter0_d" x="0" y="0" width="393" height="67" filterUnits="userSpaceOnUse" color-interpolation-filters="sRGB">
<feFlood flood-opacity="0" result="BackgroundImageFix"/>
<feColorMatrix in="SourceAlpha" type="matrix" values="0 0 0 0 0 0 0 0 0 0 0 0 0 0 0 0 0 0 127 0" result="hardAlpha"/>
<feOffset dy="2"/>
<feGaussianBlur stdDeviation="1"/>
<feColorMatrix type="matrix" values="0 0 0 0 0 0 0 0 0 0 0 0 0 0 0 0 0 0 0.2 0"/>
<feBlend mode="normal" in2="BackgroundImageFix" result="effect1_dropShadow"/>
<feBlend mode="normal" in="SourceGraphic" in2="effect1_dropShadow" result="shape"/>
</filter>
</defs>
</svg>
