<svg id="svg" version="1.1" xmlns="http://www.w3.org/2000/svg" xmlns:xlink="http://www.w3.org/1999/xlink" width="400" height="385.18518518518516" viewBox="0, 0, 400,385.18518518518516"><g id="svgg"><path id="path0" d="M7.434 7.731 C 7.662 16.651,7.768 16.956,10.657 16.956 L 12.331 16.956 12.395 19.750 C 12.429 21.286,12.416 23.341,12.364 24.316 C 12.240 26.669,12.939 27.360,15.442 27.360 L 17.341 27.360 17.404 32.274 C 17.439 34.976,17.425 37.985,17.374 38.960 C 17.250 41.303,17.952 42.004,20.420 42.004 L 22.287 42.004 22.415 48.729 C 22.560 56.322,22.545 56.283,25.411 56.558 L 27.360 56.745 27.366 61.032 C 27.373 66.118,27.475 66.331,30.017 66.576 C 31.694 66.737,31.989 66.886,32.014 67.583 C 32.031 68.033,32.074 70.098,32.111 72.172 C 32.187 76.485,32.313 76.671,35.164 76.680 L 36.994 76.686 37.054 79.672 C 37.087 81.315,37.076 83.079,37.029 83.593 C 36.817 85.919,37.210 86.320,39.699 86.320 L 42.004 86.320 42.049 90.462 C 42.075 92.741,42.062 94.773,42.021 94.978 C 41.396 98.148,42.941 100.963,45.307 100.963 L 47.013 100.963 47.027 102.987 C 47.075 109.979,47.514 110.983,50.524 110.983 L 52.023 110.983 52.023 114.618 C 52.023 118.344,52.409 120.134,53.270 120.404 C 53.538 120.488,54.387 120.661,55.157 120.788 L 56.557 121.020 56.834 125.097 C 57.160 129.869,57.614 130.636,60.116 130.636 C 60.963 130.636,61.672 130.766,61.691 130.925 C 61.710 131.084,61.754 132.131,61.789 133.252 C 61.864 135.655,62.262 136.017,64.836 136.025 L 66.667 136.031 66.712 139.403 C 66.737 141.257,66.724 143.015,66.684 143.308 C 66.424 145.168,66.991 145.665,69.372 145.665 L 71.676 145.665 71.744 148.844 C 71.781 150.592,71.770 152.662,71.721 153.442 C 71.611 155.166,72.352 155.684,74.926 155.684 L 76.686 155.684 76.686 159.895 C 76.686 164.902,76.924 165.318,79.796 165.318 L 81.696 165.318 81.696 167.823 L 81.696 170.328 84.008 170.328 L 86.320 170.328 86.338 171.580 C 86.465 180.473,86.413 180.331,89.499 180.341 L 91.329 180.347 91.352 181.792 C 91.460 188.727,91.994 189.981,94.840 189.981 C 96.469 189.981,96.371 189.786,96.482 193.256 L 96.532 194.798 98.940 194.912 L 101.349 195.027 101.384 197.610 C 101.404 199.030,101.395 200.886,101.364 201.734 C 101.283 203.941,101.988 204.688,104.367 204.916 L 106.358 205.108 106.358 207.330 C 106.358 209.876,106.527 210.019,109.514 210.019 C 111.192 210.019,111.416 210.108,111.195 210.686 C 110.818 211.667,111.391 217.996,111.922 218.723 C 112.180 219.075,113.164 219.435,114.185 219.550 L 115.992 219.753 115.992 221.599 C 115.992 224.495,116.142 224.663,118.731 224.663 L 121.002 224.663 121.035 226.493 C 121.053 227.500,121.105 228.844,121.150 229.480 C 121.194 230.116,121.266 231.187,121.309 231.861 C 121.411 233.464,122.293 234.297,123.888 234.297 C 126.163 234.297,126.359 234.514,126.125 236.778 C 125.879 239.162,125.997 239.281,128.912 239.582 L 131.021 239.800 131.021 242.017 C 131.021 244.517,131.218 244.701,133.889 244.701 L 135.537 244.701 135.917 248.977 C 136.333 253.666,136.399 253.779,138.967 254.168 L 140.555 254.408 140.776 256.551 C 141.033 259.037,141.355 259.331,143.834 259.339 C 145.799 259.345,145.909 259.525,145.677 262.352 C 145.556 263.824,146.332 264.355,148.602 264.355 L 150.674 264.355 150.686 265.992 C 150.732 272.841,151.234 273.988,154.185 273.988 L 155.684 273.988 155.684 275.888 C 155.684 278.358,156.325 278.998,158.794 278.998 L 160.694 278.998 160.694 281.269 C 160.694 283.829,160.881 284.008,163.561 284.008 L 165.210 284.008 165.428 286.117 C 165.718 288.927,165.805 289.017,168.231 289.017 L 170.328 289.017 170.363 290.270 C 170.472 294.137,170.252 293.822,172.929 293.949 L 175.337 294.064 175.398 295.490 C 175.432 296.275,175.428 297.252,175.391 297.660 C 175.294 298.701,175.986 299.024,178.324 299.031 L 180.347 299.037 180.361 300.867 C 180.411 307.571,180.644 308.145,183.470 308.520 C 185.270 308.758,185.357 308.825,185.362 309.973 C 185.373 312.198,186.124 313.064,188.353 313.419 C 190.360 313.738,190.366 313.743,190.366 315.165 C 190.366 317.345,191.201 318.241,193.360 318.380 L 195.183 318.497 195.300 320.320 C 195.439 322.475,196.335 323.314,198.499 323.314 C 200.010 323.314,200.369 323.846,200.380 326.099 C 200.388 327.736,201.635 328.275,206.087 328.567 L 210.019 328.825 210.019 331.079 L 210.019 333.333 212.506 333.333 L 214.992 333.333 215.107 335.742 L 215.222 338.150 217.437 338.266 L 219.653 338.381 219.653 339.879 C 219.653 342.769,220.129 343.353,222.486 343.353 L 224.567 343.353 224.743 345.472 C 224.958 348.061,224.872 347.975,227.497 348.245 L 229.641 348.467 229.884 350.085 C 230.280 352.725,231.742 353.341,237.669 353.364 L 239.692 353.372 239.692 355.684 L 239.692 357.996 242.197 357.996 L 244.701 357.996 244.701 360.102 C 244.701 362.818,245.058 363.006,250.222 363.006 C 254.508 363.006,255.267 363.446,254.486 365.481 C 253.822 367.212,254.619 368.015,257.004 368.015 L 259.273 368.015 259.538 369.948 C 259.877 372.408,260.219 372.583,265.297 372.893 L 269.364 373.142 269.364 374.551 C 269.364 377.474,270.748 377.956,279.287 378.007 L 284.008 378.035 284.050 379.287 C 284.074 379.976,284.065 380.901,284.031 381.343 C 283.898 383.075,284.214 383.106,300.650 382.975 C 317.864 382.838,317.721 382.859,318.129 380.438 C 318.586 377.726,318.643 377.649,320.184 377.649 C 323.267 377.649,323.108 378.535,323.230 360.683 C 323.351 343.022,323.484 343.889,320.607 343.508 L 318.752 343.262 318.625 336.622 C 318.476 328.905,318.401 328.709,315.560 328.709 L 313.680 328.709 313.652 321.484 C 313.608 310.191,313.287 309.056,310.138 309.056 L 308.671 309.056 308.642 299.133 C 308.602 284.879,308.496 284.410,305.299 284.399 L 303.661 284.393 303.661 247.254 L 303.661 210.115 305.780 209.939 C 308.656 209.701,308.455 210.584,308.671 197.175 L 308.863 185.164 310.509 184.944 C 313.406 184.557,313.623 183.718,313.657 172.756 L 313.680 165.358 315.694 165.242 C 318.528 165.078,318.677 164.663,318.684 156.944 C 318.690 149.996,318.476 150.532,321.378 150.204 C 322.995 150.021,323.302 148.741,323.308 142.149 L 323.314 136.129 325.264 135.942 C 328.138 135.665,328.116 135.726,328.252 127.920 L 328.372 121.002 330.390 121.002 C 333.228 121.002,333.333 120.807,333.333 115.530 L 333.333 110.983 335.462 110.983 C 338.127 110.983,338.343 110.551,338.343 105.227 L 338.343 101.449 340.117 101.249 C 342.868 100.939,343.139 100.452,343.290 95.556 L 343.421 91.329 344.710 91.329 C 347.829 91.329,347.977 91.096,347.977 86.186 L 347.977 81.794 349.968 81.602 C 352.745 81.335,352.987 80.879,352.987 75.895 L 352.987 71.784 354.980 71.548 C 357.711 71.224,357.786 71.085,357.933 66.070 L 358.062 61.657 360.072 61.657 C 362.885 61.657,363.006 61.441,363.006 56.378 L 363.006 52.023 365.078 52.023 C 367.592 52.023,367.933 51.672,368.089 48.929 L 368.208 46.821 369.854 46.601 C 372.309 46.274,373.025 44.614,373.025 39.254 L 373.025 36.994 374.349 36.994 C 377.510 36.994,377.649 36.776,377.649 31.801 L 377.649 27.360 379.755 27.360 C 382.485 27.360,382.659 27.017,382.659 21.624 L 382.659 17.378 385.067 17.263 L 387.476 17.148 387.590 14.754 L 387.705 12.360 389.132 12.119 C 392.417 11.566,392.285 11.835,392.574 5.106 L 392.794 0.000 365.183 0.000 L 337.572 0.000 337.568 1.445 C 337.559 4.639,337.151 5.681,335.080 7.803 C 333.280 9.646,332.998 10.169,332.419 12.732 C 331.813 15.416,330.292 18.091,328.873 18.971 C 328.624 19.126,327.945 20.711,327.365 22.495 C 326.390 25.492,326.198 25.791,324.817 26.452 C 323.769 26.954,323.322 27.416,323.318 27.998 C 323.310 29.649,321.418 34.483,320.552 35.067 C 318.550 36.418,318.259 36.873,317.714 39.499 C 316.990 42.992,316.573 43.955,315.381 44.894 C 313.301 46.532,313.004 46.969,312.734 48.792 C 312.409 50.997,311.546 52.526,309.432 54.639 C 308.177 55.894,307.899 56.441,307.896 57.662 C 307.891 59.639,306.394 62.728,304.743 64.165 C 303.661 65.107,303.324 65.772,302.940 67.728 C 302.269 71.135,301.632 72.452,299.900 74.006 C 298.514 75.251,298.347 75.616,297.954 78.257 C 297.377 82.133,296.592 83.884,295.013 84.816 C 293.871 85.490,293.663 85.869,293.279 87.974 C 292.212 93.833,291.769 94.990,290.181 96.076 C 289.244 96.716,287.575 101.892,287.502 104.379 C 287.466 105.627,285.585 108.993,284.780 109.248 C 283.973 109.504,283.305 111.639,283.017 114.884 C 282.713 118.305,281.530 121.481,279.955 123.102 C 278.461 124.640,278.358 124.979,278.072 129.287 C 277.810 133.231,276.761 136.183,275.045 137.801 C 273.759 139.015,273.695 139.206,273.431 142.654 C 273.180 145.909,272.343 151.331,271.814 153.112 C 271.700 153.499,271.039 154.399,270.346 155.113 C 268.971 156.529,269.149 155.551,267.785 169.171 C 267.356 173.459,266.261 177.337,265.119 178.613 C 263.958 179.910,263.281 187.026,262.718 203.854 C 262.646 206.014,262.381 207.576,261.940 208.441 C 261.398 209.504,261.269 210.818,261.259 215.377 C 261.249 220.057,261.115 221.358,260.464 223.121 C 258.714 227.859,258.586 229.021,258.594 240.077 C 258.602 251.508,259.015 255.456,260.452 257.813 C 261.180 259.007,261.270 259.737,261.276 264.547 C 261.281 268.566,261.444 270.384,261.914 271.676 C 262.272 272.662,262.604 274.990,262.682 277.071 C 263.343 294.615,263.965 301.549,264.944 302.283 C 267.120 303.913,267.927 309.346,266.208 310.792 C 263.798 312.820,256.647 311.529,256.647 309.067 C 256.647 308.880,256.171 308.478,255.588 308.173 C 255.005 307.869,254.035 307.352,253.432 307.026 C 252.829 306.699,251.789 305.595,251.120 304.574 C 250.364 303.419,249.466 302.566,248.748 302.321 C 247.434 301.873,246.357 300.778,246.018 299.546 C 245.794 298.729,244.140 297.712,242.582 297.433 C 242.116 297.350,241.430 296.546,240.848 295.399 C 240.122 293.970,239.568 293.399,238.601 293.078 C 237.159 292.601,236.060 291.360,235.431 289.499 C 235.118 288.574,234.777 288.247,234.126 288.247 C 232.847 288.247,231.395 286.949,230.684 285.171 C 230.248 284.083,229.834 283.622,229.290 283.622 C 228.298 283.622,225.434 280.774,225.434 279.787 C 225.434 279.272,224.916 278.805,223.796 278.308 C 221.922 277.477,221.260 276.796,220.855 275.279 C 220.650 274.514,220.024 273.929,218.666 273.231 C 217.426 272.595,216.588 271.851,216.261 271.098 C 215.379 269.065,215.188 268.839,214.038 268.468 C 212.394 267.939,211.964 267.496,210.893 265.233 C 210.283 263.947,209.687 263.198,209.271 263.198 C 208.482 263.198,206.936 261.644,206.936 260.851 C 206.936 259.865,205.823 258.650,204.138 257.797 C 202.897 257.168,202.268 256.492,201.519 254.978 C 200.938 253.805,200.111 252.782,199.505 252.488 C 198.940 252.215,197.868 251.087,197.123 249.984 C 196.378 248.880,195.184 247.548,194.471 247.025 C 193.757 246.501,192.850 245.547,192.456 244.905 C 191.259 242.958,190.366 241.123,190.366 240.613 C 190.366 240.348,189.586 239.741,188.632 239.265 C 187.623 238.761,186.898 238.132,186.898 237.761 C 186.898 237.410,186.774 236.999,186.622 236.847 C 186.471 236.696,186.167 236.037,185.948 235.383 C 185.659 234.523,185.181 234.077,184.213 233.764 C 182.906 233.343,182.565 232.904,181.321 230.052 C 180.916 229.124,180.273 228.499,179.277 228.068 C 178.235 227.616,177.670 227.046,177.279 226.050 C 176.980 225.287,176.594 224.663,176.421 224.663 C 176.249 224.663,176.108 224.316,176.108 223.892 C 176.108 223.468,175.966 223.121,175.792 223.121 C 175.315 223.121,173.025 220.989,173.025 220.546 C 173.025 220.332,172.698 219.862,172.299 219.501 C 171.900 219.140,171.355 218.064,171.088 217.111 C 170.704 215.739,170.347 215.272,169.374 214.865 C 167.861 214.233,166.474 212.536,166.474 211.316 C 166.474 210.285,165.235 208.863,164.336 208.863 C 163.499 208.863,161.876 206.914,161.862 205.890 C 161.850 205.042,161.438 204.576,158.671 202.277 C 157.876 201.616,157.222 200.791,157.217 200.442 C 157.212 200.093,156.869 199.374,156.455 198.844 C 156.040 198.314,155.697 197.597,155.693 197.251 C 155.688 196.905,155.337 196.531,154.913 196.420 C 154.489 196.309,154.143 195.942,154.143 195.604 C 154.143 195.267,153.891 194.990,153.583 194.990 C 153.029 194.990,151.819 192.688,151.316 190.680 C 151.134 189.950,150.652 189.498,149.681 189.147 C 148.292 188.644,146.982 186.545,146.294 183.719 C 146.152 183.136,145.873 182.659,145.675 182.659 C 145.293 182.659,143.353 180.844,143.353 180.486 C 143.353 180.371,143.006 179.835,142.582 179.296 C 142.158 178.757,141.811 177.833,141.811 177.244 C 141.811 175.844,141.454 174.952,140.894 174.952 C 139.728 174.952,137.625 172.580,136.984 170.542 C 136.598 169.313,135.822 167.954,135.117 167.272 C 132.851 165.076,132.619 164.727,132.150 162.808 C 131.584 160.492,131.198 159.958,129.612 159.295 C 128.689 158.909,128.231 158.341,127.718 156.946 C 127.345 155.934,126.895 154.941,126.719 154.740 C 126.542 154.539,126.397 154.048,126.397 153.650 C 126.397 153.251,125.646 152.174,124.727 151.256 C 123.477 150.006,122.846 148.924,122.216 146.951 C 121.509 144.737,121.178 144.224,120.146 143.738 C 118.728 143.071,117.344 140.602,116.962 138.060 C 116.825 137.147,116.440 136.187,116.106 135.927 C 114.426 134.615,112.887 132.784,112.689 131.861 C 112.257 129.840,111.307 128.105,109.615 126.242 C 108.672 125.203,107.902 123.989,107.905 123.544 C 107.917 121.929,106.237 117.547,105.519 117.319 C 105.133 117.197,104.817 116.869,104.817 116.591 C 104.817 116.314,104.489 115.848,104.088 115.558 C 103.687 115.267,102.981 113.828,102.520 112.360 C 101.871 110.297,101.331 109.378,100.144 108.314 C 98.794 107.102,98.493 106.500,97.649 103.313 C 96.824 100.195,96.483 99.495,95.206 98.303 C 93.800 96.989,92.488 94.415,92.483 92.959 C 92.480 91.817,91.696 89.403,91.329 89.403 C 89.931 89.403,87.478 84.447,87.474 81.611 C 87.472 80.233,86.903 79.212,84.656 76.551 C 83.498 75.180,83.116 74.333,82.856 72.569 C 82.153 67.794,81.678 66.292,80.796 66.063 C 79.393 65.697,78.538 64.041,77.790 60.239 C 77.024 56.343,76.549 55.113,75.805 55.094 C 74.603 55.063,73.666 52.717,72.427 46.635 C 72.026 44.663,71.621 43.827,70.505 42.666 C 69.006 41.106,67.437 36.183,67.437 33.041 C 67.437 32.265,67.221 31.454,66.956 31.239 C 63.998 28.838,63.370 27.473,62.809 22.234 C 62.311 17.571,62.145 17.066,60.941 16.531 C 59.419 15.855,58.190 13.170,58.182 10.505 C 58.179 9.284,57.835 6.985,57.418 5.395 C 57.001 3.805,56.658 1.941,56.654 1.252 L 56.647 0.000 31.942 0.000 L 7.237 0.000 7.434 7.731 " stroke="none" fill="#4c4454" fill-rule="evenodd"></path><path id="path1" d="M56.654 1.252 C 56.658 1.941,57.001 3.805,57.418 5.395 C 57.835 6.985,58.179 9.284,58.182 10.505 C 58.190 13.170,59.419 15.855,60.941 16.531 C 62.145 17.066,62.311 17.571,62.809 22.234 C 63.370 27.473,63.998 28.838,66.956 31.239 C 67.221 31.454,67.437 32.265,67.437 33.041 C 67.437 36.183,69.006 41.106,70.505 42.666 C 71.621 43.827,72.026 44.663,72.427 46.635 C 73.666 52.717,74.603 55.063,75.805 55.094 C 76.549 55.113,77.024 56.343,77.790 60.239 C 78.538 64.041,79.393 65.697,80.796 66.063 C 81.678 66.292,82.153 67.794,82.856 72.569 C 83.116 74.333,83.498 75.180,84.656 76.551 C 86.903 79.212,87.472 80.233,87.474 81.611 C 87.478 84.447,89.931 89.403,91.329 89.403 C 91.696 89.403,92.480 91.817,92.483 92.959 C 92.488 94.415,93.800 96.989,95.206 98.303 C 96.483 99.495,96.824 100.195,97.649 103.313 C 98.493 106.500,98.794 107.102,100.144 108.314 C 101.331 109.378,101.871 110.297,102.520 112.360 C 102.981 113.828,103.687 115.267,104.088 115.558 C 104.489 115.848,104.817 116.314,104.817 116.591 C 104.817 116.869,105.133 117.197,105.519 117.319 C 106.237 117.547,107.917 121.929,107.905 123.544 C 107.902 123.989,108.672 125.203,109.615 126.242 C 111.307 128.105,112.257 129.840,112.689 131.861 C 112.887 132.784,114.426 134.615,116.106 135.927 C 116.440 136.187,116.825 137.147,116.962 138.060 C 117.344 140.602,118.728 143.071,120.146 143.738 C 121.178 144.224,121.509 144.737,122.216 146.951 C 122.846 148.924,123.477 150.006,124.727 151.256 C 125.646 152.174,126.397 153.251,126.397 153.650 C 126.397 154.048,126.542 154.539,126.719 154.740 C 126.895 154.941,127.345 155.934,127.718 156.946 C 128.231 158.341,128.689 158.909,129.612 159.295 C 131.198 159.958,131.584 160.492,132.150 162.808 C 132.619 164.727,132.851 165.076,135.117 167.272 C 135.822 167.954,136.598 169.313,136.984 170.542 C 137.625 172.580,139.728 174.952,140.894 174.952 C 141.454 174.952,141.811 175.844,141.811 177.244 C 141.811 177.833,142.158 178.757,142.582 179.296 C 143.006 179.835,143.353 180.371,143.353 180.486 C 143.353 180.844,145.293 182.659,145.675 182.659 C 145.873 182.659,146.152 183.136,146.294 183.719 C 146.982 186.545,148.292 188.644,149.681 189.147 C 150.652 189.498,151.134 189.950,151.316 190.680 C 151.819 192.688,153.029 194.990,153.583 194.990 C 153.891 194.990,154.143 195.267,154.143 195.604 C 154.143 195.942,154.489 196.309,154.913 196.420 C 155.337 196.531,155.688 196.905,155.693 197.251 C 155.697 197.597,156.040 198.314,156.455 198.844 C 156.869 199.374,157.212 200.093,157.217 200.442 C 157.222 200.791,157.876 201.616,158.671 202.277 C 161.438 204.576,161.850 205.042,161.862 205.890 C 161.876 206.914,163.499 208.863,164.336 208.863 C 165.235 208.863,166.474 210.285,166.474 211.316 C 166.474 212.536,167.861 214.233,169.374 214.865 C 170.347 215.272,170.704 215.739,171.088 217.111 C 171.355 218.064,171.900 219.140,172.299 219.501 C 172.698 219.862,173.025 220.332,173.025 220.546 C 173.025 220.989,175.315 223.121,175.792 223.121 C 175.966 223.121,176.108 223.468,176.108 223.892 C 176.108 224.316,176.240 224.663,176.402 224.663 C 176.564 224.663,176.980 225.317,177.327 226.117 C 177.777 227.156,178.350 227.725,179.332 228.111 C 180.290 228.487,180.891 229.069,181.310 230.029 C 182.568 232.909,182.904 233.342,184.213 233.764 C 185.181 234.077,185.659 234.523,185.948 235.383 C 186.167 236.037,186.471 236.696,186.622 236.847 C 186.774 236.999,186.898 237.410,186.898 237.761 C 186.898 238.132,187.623 238.761,188.632 239.265 C 189.586 239.741,190.366 240.348,190.366 240.613 C 190.366 241.123,191.259 242.958,192.456 244.905 C 192.850 245.547,193.757 246.501,194.471 247.025 C 195.184 247.548,196.378 248.880,197.123 249.984 C 197.868 251.087,198.940 252.215,199.505 252.488 C 200.111 252.782,200.938 253.805,201.519 254.978 C 202.268 256.492,202.897 257.168,204.138 257.797 C 205.855 258.666,206.936 259.867,206.936 260.905 C 206.936 261.680,208.518 263.198,209.325 263.198 C 209.676 263.198,210.333 264.051,210.893 265.233 C 211.968 267.505,212.394 267.940,214.066 268.474 C 214.769 268.699,215.418 269.284,215.723 269.971 C 216.663 272.083,216.820 272.255,218.694 273.231 C 220.020 273.922,220.652 274.521,220.855 275.279 C 221.260 276.796,221.922 277.477,223.796 278.308 C 224.916 278.805,225.434 279.272,225.434 279.787 C 225.434 280.774,228.298 283.622,229.290 283.622 C 229.834 283.622,230.248 284.083,230.684 285.171 C 231.395 286.949,232.847 288.247,234.126 288.247 C 234.777 288.247,235.118 288.574,235.431 289.499 C 236.060 291.360,237.159 292.601,238.601 293.078 C 239.568 293.399,240.122 293.970,240.848 295.399 C 241.430 296.546,242.116 297.350,242.582 297.433 C 244.140 297.712,245.794 298.729,246.018 299.546 C 246.357 300.778,247.434 301.873,248.748 302.321 C 249.466 302.566,250.364 303.419,251.120 304.574 C 251.789 305.595,252.829 306.699,253.432 307.026 C 254.035 307.352,255.005 307.869,255.588 308.173 C 256.171 308.478,256.647 308.880,256.647 309.067 C 256.647 311.529,263.798 312.820,266.208 310.792 C 267.927 309.346,267.120 303.913,264.944 302.283 C 263.965 301.549,263.343 294.615,262.682 277.071 C 262.604 274.990,262.272 272.662,261.914 271.676 C 261.444 270.384,261.281 268.566,261.276 264.547 C 261.270 259.737,261.180 259.007,260.452 257.813 C 259.015 255.456,258.602 251.508,258.594 240.077 C 258.586 229.021,258.714 227.859,260.464 223.121 C 261.115 221.358,261.249 220.057,261.259 215.377 C 261.269 210.818,261.398 209.504,261.940 208.441 C 262.381 207.576,262.646 206.014,262.718 203.854 C 263.281 187.026,263.958 179.910,265.119 178.613 C 266.261 177.337,267.356 173.459,267.785 169.171 C 269.149 155.551,268.971 156.529,270.346 155.113 C 271.039 154.399,271.700 153.499,271.814 153.112 C 272.343 151.331,273.180 145.909,273.431 142.654 C 273.695 139.206,273.759 139.015,275.045 137.801 C 276.761 136.183,277.810 133.231,278.072 129.287 C 278.358 124.979,278.461 124.640,279.955 123.102 C 281.530 121.481,282.713 118.305,283.017 114.884 C 283.305 111.639,283.973 109.504,284.780 109.248 C 285.585 108.993,287.466 105.627,287.502 104.379 C 287.575 101.892,289.244 96.716,290.181 96.076 C 291.769 94.990,292.212 93.833,293.279 87.974 C 293.663 85.869,293.871 85.490,295.013 84.816 C 296.592 83.884,297.377 82.133,297.954 78.257 C 298.347 75.616,298.514 75.251,299.900 74.006 C 301.632 72.452,302.269 71.135,302.940 67.728 C 303.324 65.772,303.661 65.107,304.743 64.165 C 306.394 62.728,307.891 59.639,307.896 57.662 C 307.899 56.441,308.177 55.894,309.432 54.639 C 311.546 52.526,312.409 50.997,312.734 48.792 C 313.004 46.969,313.301 46.532,315.381 44.894 C 316.573 43.955,316.990 42.992,317.714 39.499 C 318.259 36.873,318.550 36.418,320.552 35.067 C 321.418 34.483,323.310 29.649,323.318 27.998 C 323.322 27.416,323.769 26.954,324.817 26.452 C 326.198 25.791,326.390 25.492,327.365 22.495 C 327.945 20.711,328.624 19.126,328.873 18.971 C 330.292 18.091,331.813 15.416,332.419 12.732 C 332.998 10.169,333.280 9.646,335.080 7.803 C 337.151 5.681,337.559 4.639,337.568 1.445 C 337.571 0.416,337.406 0.000,336.994 0.000 C 336.594 0.000,336.416 0.402,336.416 1.302 C 336.416 3.176,335.478 5.063,334.016 6.126 C 332.979 6.880,332.540 7.688,331.625 10.522 C 330.827 12.993,330.134 14.376,329.221 15.316 C 328.516 16.042,327.938 16.790,327.938 16.978 C 327.938 17.167,327.605 18.062,327.198 18.968 C 326.790 19.875,326.243 21.193,325.983 21.898 C 325.722 22.603,325.052 23.644,324.494 24.210 C 322.894 25.836,321.773 27.600,321.773 28.492 C 321.773 29.510,320.155 32.724,319.203 33.595 C 317.920 34.771,317.463 35.485,317.071 36.922 C 316.458 39.170,315.224 41.682,313.924 43.332 C 313.264 44.168,312.261 46.008,311.694 47.420 C 311.126 48.831,310.197 50.488,309.628 51.101 C 308.452 52.368,306.358 56.740,306.358 57.929 C 306.358 58.747,304.839 61.264,304.343 61.269 C 303.919 61.273,301.870 65.890,301.582 67.490 C 301.433 68.320,300.706 69.601,299.798 70.632 C 298.955 71.589,298.266 72.530,298.266 72.723 C 298.266 72.915,297.919 73.791,297.495 74.668 C 297.071 75.546,296.724 76.750,296.724 77.345 C 296.724 78.520,295.668 80.694,293.491 83.999 C 292.726 85.160,292.100 86.475,292.100 86.922 C 292.100 88.199,290.561 92.597,289.816 93.449 C 288.605 94.834,287.476 96.989,287.471 97.926 C 287.461 99.611,285.738 104.219,284.469 105.950 C 283.779 106.891,283.116 108.104,282.994 108.647 C 282.872 109.190,282.444 110.780,282.041 112.180 C 281.639 113.581,281.310 115.034,281.310 115.410 C 281.310 115.786,280.638 117.415,279.817 119.029 C 277.975 122.652,277.132 125.172,276.668 128.449 C 276.316 130.932,275.456 133.330,274.494 134.510 C 273.718 135.462,272.062 140.921,272.062 142.526 C 272.062 144.099,270.528 149.629,269.613 151.354 C 268.566 153.328,267.767 156.640,267.406 160.501 C 267.028 164.535,265.845 170.274,264.957 172.372 C 263.841 175.012,263.093 178.366,262.794 182.068 C 262.623 184.195,262.299 187.408,262.074 189.210 C 261.850 191.012,261.470 194.046,261.231 195.954 C 260.992 197.861,260.721 200.723,260.630 202.312 C 260.520 204.222,260.163 205.856,259.576 207.129 C 258.764 208.894,258.667 209.799,258.426 217.919 C 258.281 222.794,257.999 227.476,257.799 228.324 C 257.326 230.333,257.335 248.727,257.811 252.216 C 258.013 253.699,258.279 258.295,258.402 262.428 C 258.567 267.999,258.808 270.590,259.332 272.447 C 260.300 275.878,262.035 289.053,262.631 297.495 C 262.915 301.518,263.563 305.506,264.222 307.283 C 264.987 309.345,264.583 309.632,261.643 309.114 C 259.471 308.731,256.307 307.151,254.789 305.692 C 254.509 305.423,254.163 305.198,254.019 305.193 C 253.875 305.188,253.247 304.495,252.624 303.652 C 252.000 302.809,251.352 302.119,251.184 302.119 C 251.016 302.119,249.829 301.134,248.545 299.929 C 246.094 297.627,243.846 295.954,243.206 295.954 C 242.997 295.954,242.716 295.607,242.582 295.183 C 242.447 294.759,242.187 294.412,242.004 294.412 C 241.820 294.412,241.572 294.109,241.452 293.738 C 241.332 293.367,240.587 292.630,239.796 292.100 C 238.294 291.095,236.642 289.431,236.621 288.903 C 236.604 288.484,234.584 286.733,234.100 286.717 C 233.886 286.711,233.279 286.165,232.751 285.504 C 230.369 282.519,229.966 282.081,229.609 282.081 C 229.113 282.081,226.975 279.942,226.975 279.447 C 226.975 279.097,225.815 278.046,223.592 276.381 C 223.108 276.019,222.553 275.343,222.358 274.879 C 222.162 274.415,221.104 273.325,220.005 272.457 C 218.907 271.589,217.522 270.207,216.927 269.386 C 216.333 268.565,215.304 267.574,214.642 267.184 C 213.979 266.793,212.806 265.520,212.035 264.355 C 210.527 262.074,210.067 261.553,205.383 256.820 C 203.694 255.113,202.312 253.594,202.312 253.444 C 202.312 252.998,200.316 250.420,198.377 248.362 C 194.475 244.223,193.125 242.726,192.887 242.277 C 192.751 242.021,192.328 241.222,191.948 240.503 C 191.568 239.783,190.602 238.743,189.801 238.191 C 188.999 237.639,187.946 236.436,187.460 235.518 C 186.393 233.503,185.412 232.370,184.735 232.370 C 184.459 232.370,183.761 231.546,183.185 230.539 C 182.608 229.533,181.287 227.852,180.248 226.804 C 179.209 225.756,177.983 224.215,177.523 223.380 C 176.143 220.875,175.970 220.634,174.571 219.270 C 173.832 218.548,172.764 217.083,172.199 216.012 C 171.633 214.941,170.677 213.791,170.075 213.456 C 169.473 213.121,168.396 211.863,167.682 210.659 C 166.968 209.456,165.710 207.938,164.887 207.286 C 164.064 206.634,163.391 205.890,163.391 205.631 C 163.391 205.073,161.513 202.417,159.410 200.000 C 158.580 199.046,157.594 197.572,157.220 196.724 C 156.533 195.170,155.144 193.449,154.576 193.449 C 154.407 193.449,153.808 192.538,153.244 191.424 C 152.335 189.628,151.541 188.603,149.825 187.013 C 149.030 186.276,148.362 185.412,148.362 185.121 C 148.362 184.172,146.109 180.301,144.855 179.095 C 144.029 178.301,143.353 177.457,143.353 177.221 C 143.353 176.706,141.726 173.653,141.363 173.486 C 140.099 172.905,137.187 168.315,137.187 166.902 C 137.187 166.650,136.478 165.728,135.611 164.853 C 134.050 163.275,132.563 160.935,132.563 160.055 C 132.563 159.803,131.869 159.004,131.021 158.278 C 130.173 157.553,129.480 156.759,129.480 156.514 C 129.480 156.269,129.350 156.068,129.191 156.066 C 128.840 156.063,127.938 154.193,127.938 153.469 C 127.938 152.579,126.732 150.535,125.478 149.299 C 124.818 148.649,124.091 147.695,123.863 147.180 C 122.490 144.081,121.467 142.333,120.352 141.185 C 119.658 140.471,118.975 139.409,118.835 138.825 C 118.388 136.974,116.493 133.567,115.258 132.394 C 114.602 131.772,114.066 131.040,114.066 130.768 C 114.066 130.496,113.747 129.705,113.358 129.010 C 112.969 128.315,112.541 127.300,112.405 126.755 C 112.270 126.211,111.583 125.170,110.880 124.443 C 109.711 123.235,108.306 120.110,107.726 117.427 C 107.599 116.839,106.911 115.798,106.197 115.115 C 104.882 113.857,103.276 111.213,103.276 110.307 C 103.276 109.581,101.393 106.104,100.682 105.515 C 99.951 104.911,98.275 101.428,98.270 100.502 C 98.265 99.684,96.493 96.282,95.798 95.754 C 95.073 95.205,93.642 92.447,93.642 91.600 C 93.642 90.642,91.712 86.586,91.074 86.204 C 90.790 86.035,90.559 85.719,90.559 85.502 C 90.559 85.286,90.299 84.849,89.981 84.531 C 89.664 84.214,89.308 83.489,89.191 82.921 C 88.486 79.495,87.010 75.810,85.912 74.738 C 84.766 73.617,84.496 72.909,82.867 66.752 C 82.627 65.844,81.864 64.519,81.171 63.806 C 79.992 62.592,79.215 60.489,78.074 55.425 C 77.947 54.858,77.273 53.644,76.578 52.727 C 75.203 50.914,73.603 47.106,73.603 45.645 C 73.603 44.436,72.183 40.857,71.318 39.884 C 70.464 38.924,69.191 35.585,68.557 32.641 C 68.293 31.412,67.933 30.318,67.757 30.210 C 67.581 30.101,67.437 29.697,67.437 29.312 C 67.437 28.926,67.169 28.388,66.841 28.116 C 66.016 27.431,64.356 23.823,64.349 22.699 C 64.334 20.340,62.794 15.713,61.497 14.130 C 60.064 12.382,58.718 7.447,58.299 2.408 C 58.069 -0.356,56.640 -1.360,56.654 1.252 " stroke="none" fill="#848484" fill-rule="evenodd"></path><path id="path2" d="M60.643 2.408 C 61.179 7.630,61.469 8.691,62.784 10.257 C 64.244 11.996,65.310 15.079,65.893 19.244 C 66.273 21.964,66.666 22.789,68.279 24.263 C 69.091 25.004,70.520 29.662,70.520 31.564 C 70.520 32.938,72.411 36.609,73.118 36.609 C 73.635 36.609,74.827 39.778,75.149 42.004 C 75.752 46.176,76.720 48.940,77.579 48.940 C 78.373 48.940,79.688 52.021,80.581 55.973 C 81.047 58.039,81.568 59.730,81.737 59.730 C 82.849 59.730,85.934 67.081,85.934 69.732 C 85.934 70.182,86.604 71.207,87.422 72.009 C 88.949 73.505,90.221 76.574,90.759 80.058 C 90.942 81.245,91.354 81.987,92.257 82.755 C 93.675 83.961,94.966 86.788,95.361 89.549 C 95.578 91.059,95.955 91.758,97.284 93.106 C 99.041 94.888,99.426 95.672,100.198 99.037 C 100.733 101.371,101.868 103.276,102.724 103.276 C 103.027 103.276,103.276 103.514,103.276 103.806 C 103.276 104.098,103.513 104.534,103.803 104.775 C 104.093 105.015,104.633 106.460,105.004 107.986 C 105.845 111.446,106.328 112.524,107.039 112.524 C 108.177 112.524,110.213 116.250,110.857 119.513 C 110.967 120.071,111.734 121.170,112.561 121.954 C 113.389 122.738,114.066 123.636,114.066 123.949 C 114.066 125.164,115.794 128.588,117.150 130.058 C 118.665 131.702,120.231 134.741,120.231 136.039 C 120.231 136.473,120.882 137.472,121.676 138.259 C 122.471 139.047,123.307 140.039,123.535 140.462 C 123.762 140.886,124.143 141.580,124.381 142.004 C 124.619 142.428,124.919 143.435,125.049 144.241 C 125.178 145.048,125.624 146.002,126.040 146.361 C 128.308 148.320,129.109 149.253,129.336 150.200 C 129.776 152.030,131.052 154.283,132.552 155.877 C 133.350 156.724,134.204 158.025,134.451 158.767 C 135.288 161.287,135.832 162.235,136.443 162.235 C 137.069 162.235,138.728 163.764,138.728 164.341 C 138.728 165.267,141.007 169.208,142.456 170.788 C 143.514 171.943,144.291 173.254,144.600 174.411 C 144.971 175.798,145.414 176.441,146.490 177.153 C 147.315 177.699,148.257 178.830,148.769 179.889 C 149.250 180.883,149.899 182.216,150.211 182.852 C 150.523 183.487,151.516 184.788,152.418 185.742 C 153.319 186.696,154.288 188.136,154.571 188.944 C 155.101 190.459,155.419 190.847,157.465 192.476 C 158.126 193.003,158.768 193.937,158.891 194.551 C 159.014 195.165,159.383 195.937,159.711 196.265 C 160.040 196.593,160.308 197.048,160.308 197.275 C 160.308 197.502,160.483 197.688,160.697 197.688 C 161.724 197.688,164.933 202.129,164.933 203.550 C 164.933 204.180,166.331 205.547,167.340 205.903 C 167.710 206.034,168.383 206.970,168.835 207.984 C 169.287 208.997,169.773 210.071,169.916 210.370 C 170.058 210.668,170.773 211.229,171.503 211.617 C 172.361 212.071,173.195 213.012,173.853 214.267 C 174.415 215.337,175.542 216.698,176.358 217.290 C 177.195 217.898,178.251 219.194,178.780 220.263 C 179.296 221.305,180.613 223.112,181.708 224.277 C 182.802 225.443,184.092 227.285,184.573 228.370 C 185.199 229.780,185.791 230.496,186.648 230.875 C 187.788 231.380,188.144 231.862,189.293 234.448 C 189.575 235.083,190.455 235.906,191.342 236.362 C 192.455 236.936,193.181 237.713,193.901 239.100 C 194.454 240.166,195.401 241.310,196.008 241.644 C 196.614 241.977,197.370 242.789,197.688 243.448 C 198.533 245.200,201.106 247.784,202.005 247.784 C 202.174 247.784,202.312 247.949,202.312 248.150 C 202.312 249.041,205.080 252.519,208.613 256.069 C 212.526 260.001,214.644 262.802,214.644 264.045 C 214.644 264.473,214.927 264.740,215.383 264.740 C 216.387 264.740,219.268 267.571,219.268 268.558 C 219.268 269.098,219.686 269.529,220.567 269.897 C 222.387 270.657,223.814 271.989,224.079 273.174 C 224.235 273.871,224.890 274.505,226.207 275.235 C 227.516 275.960,228.354 276.769,228.896 277.831 C 229.402 278.822,230.217 279.646,231.178 280.136 C 232.123 280.618,233.104 281.600,233.846 282.805 C 234.491 283.853,235.420 284.833,235.910 284.982 C 237.207 285.376,238.343 286.536,239.123 288.268 C 239.590 289.304,240.055 289.788,240.581 289.788 C 241.553 289.788,244.316 292.650,244.316 293.658 C 244.316 294.095,244.577 294.412,244.938 294.412 C 245.991 294.412,248.561 296.052,250.674 298.073 C 260.865 307.820,261.404 307.834,260.546 298.330 C 259.935 291.566,259.772 290.584,258.968 288.825 C 258.581 287.977,257.960 286.069,257.588 284.586 C 254.902 273.868,255.086 200.107,257.808 196.339 C 257.961 196.127,258.208 195.002,258.356 193.839 C 258.504 192.676,258.848 191.202,259.120 190.563 C 260.074 188.330,260.446 185.879,260.909 178.805 C 261.386 171.512,262.076 168.217,263.567 166.104 C 264.533 164.735,265.408 160.541,265.861 155.106 C 266.244 150.513,267.348 146.266,268.366 145.472 C 269.489 144.597,270.272 142.260,270.562 138.921 C 270.911 134.894,272.115 130.810,273.268 129.735 C 274.268 128.804,275.142 126.768,275.151 125.350 C 275.155 124.760,275.576 122.484,276.086 120.293 C 276.942 116.619,277.504 115.415,278.939 114.182 C 279.235 113.928,279.777 112.280,280.145 110.521 C 281.258 105.190,281.680 104.048,283.010 102.756 C 284.085 101.712,284.411 100.937,285.145 97.679 C 286.093 93.472,286.745 91.872,288.322 89.887 C 289.451 88.465,289.894 87.288,290.553 83.949 C 290.896 82.210,291.367 81.332,292.888 79.594 C 294.847 77.356,295.021 76.952,295.303 73.988 C 295.465 72.287,296.679 68.979,297.141 68.979 C 298.119 68.979,299.555 66.941,299.838 65.149 C 300.277 62.368,301.869 59.057,303.018 58.534 C 304.071 58.054,304.817 56.707,304.817 55.285 C 304.817 53.509,306.757 49.361,307.906 48.683 C 308.743 48.188,309.217 47.342,310.036 44.877 C 310.989 42.011,312.741 39.306,313.646 39.306 C 313.901 39.306,314.944 36.354,315.841 33.092 C 315.936 32.748,316.609 31.854,317.336 31.105 C 319.081 29.308,320.228 27.384,320.230 26.250 C 320.231 25.261,321.609 22.736,322.418 22.239 C 323.101 21.821,324.707 18.935,325.031 17.547 C 325.471 15.659,326.769 13.102,327.287 13.102 C 327.948 13.102,328.877 11.413,329.618 8.863 C 330.420 6.105,331.478 4.431,332.826 3.788 C 333.727 3.358,333.932 2.992,334.030 1.635 L 334.148 0.000 197.272 -0.000 L 60.395 -0.000 60.643 2.408 " stroke="none" fill="#fbfbfb" fill-rule="evenodd"></path><path id="path3" d="M58.299 2.408 C 58.718 7.447,60.064 12.382,61.497 14.130 C 62.794 15.713,64.334 20.340,64.349 22.699 C 64.356 23.823,66.016 27.431,66.841 28.116 C 67.169 28.388,67.437 28.926,67.437 29.312 C 67.437 29.697,67.581 30.101,67.757 30.210 C 67.933 30.318,68.293 31.412,68.557 32.641 C 69.191 35.585,70.464 38.924,71.318 39.884 C 72.183 40.857,73.603 44.436,73.603 45.645 C 73.603 47.106,75.203 50.914,76.578 52.727 C 77.273 53.644,77.947 54.858,78.074 55.425 C 79.215 60.489,79.992 62.592,81.171 63.806 C 81.864 64.519,82.627 65.844,82.867 66.752 C 84.496 72.909,84.766 73.617,85.912 74.738 C 87.010 75.810,88.486 79.495,89.191 82.921 C 89.308 83.489,89.664 84.214,89.981 84.531 C 90.299 84.849,90.559 85.286,90.559 85.502 C 90.559 85.719,90.790 86.035,91.074 86.204 C 91.712 86.586,93.642 90.642,93.642 91.600 C 93.642 92.447,95.073 95.205,95.798 95.754 C 96.493 96.282,98.265 99.684,98.270 100.502 C 98.275 101.428,99.951 104.911,100.682 105.515 C 101.393 106.104,103.276 109.581,103.276 110.307 C 103.276 111.213,104.882 113.857,106.197 115.115 C 106.911 115.798,107.599 116.839,107.726 117.427 C 108.306 120.110,109.711 123.235,110.880 124.443 C 111.583 125.170,112.270 126.211,112.405 126.755 C 112.541 127.300,112.969 128.315,113.358 129.010 C 113.747 129.705,114.066 130.496,114.066 130.768 C 114.066 131.040,114.602 131.772,115.258 132.394 C 116.493 133.567,118.388 136.974,118.835 138.825 C 118.975 139.409,119.658 140.471,120.352 141.185 C 121.467 142.333,122.490 144.081,123.863 147.180 C 124.091 147.695,124.818 148.649,125.478 149.299 C 126.732 150.535,127.938 152.579,127.938 153.469 C 127.938 154.193,128.840 156.063,129.191 156.066 C 129.350 156.068,129.480 156.269,129.480 156.514 C 129.480 156.759,130.173 157.553,131.021 158.278 C 131.869 159.004,132.563 159.803,132.563 160.055 C 132.563 160.935,134.050 163.275,135.611 164.853 C 136.478 165.728,137.187 166.650,137.187 166.902 C 137.187 168.315,140.099 172.905,141.363 173.486 C 141.726 173.653,143.353 176.706,143.353 177.221 C 143.353 177.457,144.029 178.301,144.855 179.095 C 146.109 180.301,148.362 184.172,148.362 185.121 C 148.362 185.412,149.030 186.276,149.825 187.013 C 151.541 188.603,152.335 189.628,153.244 191.424 C 153.808 192.538,154.407 193.449,154.576 193.449 C 155.144 193.449,156.533 195.170,157.220 196.724 C 157.594 197.572,158.580 199.046,159.410 200.000 C 161.513 202.417,163.391 205.073,163.391 205.631 C 163.391 205.890,164.064 206.634,164.887 207.286 C 165.710 207.938,166.968 209.456,167.682 210.659 C 168.396 211.863,169.473 213.121,170.075 213.456 C 170.677 213.791,171.633 214.941,172.199 216.012 C 172.764 217.083,173.832 218.548,174.571 219.270 C 175.970 220.634,176.143 220.875,177.523 223.380 C 177.983 224.215,179.209 225.756,180.248 226.804 C 181.287 227.852,182.608 229.533,183.185 230.539 C 183.761 231.546,184.459 232.370,184.735 232.370 C 185.412 232.370,186.393 233.503,187.460 235.518 C 187.946 236.436,188.999 237.639,189.801 238.191 C 190.602 238.743,191.568 239.783,191.948 240.503 C 192.328 241.222,192.751 242.021,192.887 242.277 C 193.125 242.726,194.475 244.223,198.377 248.362 C 200.316 250.420,202.312 252.998,202.312 253.444 C 202.312 253.594,203.694 255.113,205.383 256.820 C 210.067 261.553,210.527 262.074,212.035 264.355 C 212.806 265.520,213.979 266.793,214.642 267.184 C 215.304 267.574,216.333 268.565,216.927 269.386 C 217.522 270.207,218.907 271.589,220.005 272.457 C 221.104 273.325,222.162 274.415,222.358 274.879 C 222.553 275.343,223.108 276.019,223.592 276.381 C 225.815 278.046,226.975 279.097,226.975 279.447 C 226.975 279.942,229.113 282.081,229.609 282.081 C 229.966 282.081,230.369 282.519,232.751 285.504 C 233.279 286.165,233.886 286.711,234.100 286.717 C 234.584 286.733,236.604 288.484,236.621 288.903 C 236.642 289.431,238.294 291.095,239.796 292.100 C 240.587 292.630,241.332 293.367,241.452 293.738 C 241.572 294.109,241.820 294.412,242.004 294.412 C 242.187 294.412,242.447 294.759,242.582 295.183 C 242.716 295.607,242.997 295.954,243.206 295.954 C 243.846 295.954,246.094 297.627,248.545 299.929 C 249.829 301.134,251.016 302.119,251.184 302.119 C 251.352 302.119,252.000 302.809,252.624 303.652 C 253.247 304.495,253.875 305.188,254.019 305.193 C 254.163 305.198,254.509 305.423,254.789 305.692 C 256.307 307.151,259.471 308.731,261.643 309.114 C 264.583 309.632,264.987 309.345,264.222 307.283 C 263.563 305.506,262.915 301.518,262.631 297.495 C 262.035 289.053,260.300 275.878,259.332 272.447 C 258.808 270.590,258.567 267.999,258.402 262.428 C 258.279 258.295,258.013 253.699,257.811 252.216 C 257.335 248.727,257.326 230.333,257.799 228.324 C 257.999 227.476,258.281 222.794,258.426 217.919 C 258.667 209.799,258.764 208.894,259.576 207.129 C 260.163 205.856,260.520 204.222,260.630 202.312 C 260.721 200.723,260.992 197.861,261.231 195.954 C 261.470 194.046,261.850 191.012,262.074 189.210 C 262.299 187.408,262.623 184.195,262.794 182.068 C 263.093 178.366,263.841 175.012,264.957 172.372 C 265.845 170.274,267.028 164.535,267.406 160.501 C 267.767 156.640,268.566 153.328,269.613 151.354 C 270.528 149.629,272.062 144.099,272.062 142.526 C 272.062 140.921,273.718 135.462,274.494 134.510 C 275.456 133.330,276.316 130.932,276.668 128.449 C 277.132 125.172,277.975 122.652,279.817 119.029 C 280.638 117.415,281.310 115.786,281.310 115.410 C 281.310 115.034,281.639 113.581,282.041 112.180 C 282.444 110.780,282.872 109.190,282.994 108.647 C 283.116 108.104,283.779 106.891,284.469 105.950 C 285.738 104.219,287.461 99.611,287.471 97.926 C 287.476 96.989,288.605 94.834,289.816 93.449 C 290.561 92.597,292.100 88.199,292.100 86.922 C 292.100 86.475,292.726 85.160,293.491 83.999 C 295.668 80.694,296.724 78.520,296.724 77.345 C 296.724 76.750,297.071 75.546,297.495 74.668 C 297.919 73.791,298.266 72.915,298.266 72.723 C 298.266 72.530,298.955 71.589,299.798 70.632 C 300.706 69.601,301.433 68.320,301.582 67.490 C 301.870 65.890,303.919 61.273,304.343 61.269 C 304.839 61.264,306.358 58.747,306.358 57.929 C 306.358 56.740,308.452 52.368,309.628 51.101 C 310.197 50.488,311.126 48.831,311.694 47.420 C 312.261 46.008,313.264 44.168,313.924 43.332 C 315.224 41.682,316.458 39.170,317.071 36.922 C 317.463 35.485,317.920 34.771,319.203 33.595 C 320.155 32.724,321.773 29.510,321.773 28.492 C 321.773 27.600,322.894 25.836,324.494 24.210 C 325.052 23.644,325.722 22.603,325.983 21.898 C 326.243 21.193,326.790 19.875,327.198 18.968 C 327.605 18.062,327.938 17.167,327.938 16.978 C 327.938 16.790,328.516 16.042,329.221 15.316 C 330.134 14.376,330.827 12.993,331.625 10.522 C 332.540 7.688,332.979 6.880,334.016 6.126 C 335.880 4.770,337.449 0.000,336.031 0.000 C 335.819 0.000,335.645 0.746,335.645 1.658 C 335.645 3.066,335.420 3.546,334.150 4.837 C 332.412 6.605,331.025 8.770,331.023 9.719 C 331.020 10.780,329.169 14.533,328.526 14.779 C 328.203 14.903,327.934 15.227,327.930 15.499 C 327.925 15.770,327.582 16.426,327.168 16.956 C 326.753 17.486,326.410 18.147,326.405 18.425 C 326.387 19.515,324.344 23.342,323.092 24.631 C 322.366 25.378,321.767 26.254,321.760 26.578 C 321.752 26.902,321.411 27.861,321.002 28.709 C 320.592 29.557,320.251 30.400,320.244 30.582 C 320.237 30.765,319.569 31.719,318.761 32.702 C 317.373 34.388,315.618 37.878,315.597 38.992 C 315.592 39.271,314.950 40.366,314.170 41.426 C 312.514 43.678,310.987 46.559,310.984 47.436 C 310.983 47.994,310.409 48.851,308.946 50.482 C 307.925 51.620,306.726 54.041,306.348 55.731 C 306.136 56.676,305.488 58.161,304.908 59.031 C 304.328 59.900,303.380 61.323,302.801 62.194 C 302.222 63.064,301.745 64.123,301.741 64.547 C 301.731 65.583,299.629 69.975,298.947 70.385 C 298.302 70.774,296.724 73.958,296.724 74.872 C 296.724 76.111,294.792 80.629,293.638 82.085 C 292.590 83.409,290.559 88.727,290.559 90.148 C 290.559 90.677,288.767 93.591,288.164 94.042 C 287.836 94.288,286.536 98.426,285.932 101.146 C 285.698 102.201,285.386 103.154,285.239 103.266 C 283.972 104.223,281.310 110.366,281.310 112.332 C 281.310 113.233,279.556 117.807,278.906 118.601 C 278.271 119.377,276.689 124.171,276.688 125.325 C 276.686 126.632,274.918 132.119,274.239 132.927 C 273.507 133.797,272.062 137.854,272.057 139.052 C 272.051 140.391,270.297 147.454,269.601 148.940 C 267.970 152.425,267.711 153.450,266.640 160.694 C 265.710 166.984,265.584 167.525,264.177 171.291 C 263.062 174.275,262.715 176.568,260.890 193.064 C 260.690 194.865,260.261 197.287,259.936 198.446 C 259.611 199.605,259.345 201.651,259.345 202.993 C 259.345 204.530,259.106 205.890,258.698 206.667 C 258.177 207.660,257.995 209.622,257.761 216.763 C 257.602 221.638,257.289 226.753,257.067 228.131 C 256.566 231.237,256.558 248.038,257.056 252.216 C 257.258 253.911,257.577 259.114,257.766 263.776 C 257.954 268.439,258.300 273.035,258.535 273.988 C 259.432 277.640,260.942 287.531,261.475 293.256 C 261.781 296.541,262.222 300.392,262.454 301.812 C 263.129 305.939,260.525 309.673,258.595 307.347 C 258.320 307.015,257.887 306.744,257.633 306.744 C 257.222 306.744,254.392 304.287,247.840 298.241 C 246.704 297.193,245.223 296.074,244.547 295.753 C 243.871 295.433,243.029 294.697,242.675 294.117 C 242.320 293.538,241.492 292.630,240.833 292.100 C 240.174 291.570,239.171 290.649,238.604 290.053 C 236.592 287.938,235.142 286.500,234.052 285.539 C 233.445 285.004,232.413 283.963,231.759 283.227 C 231.104 282.491,229.977 281.362,229.254 280.720 C 228.530 280.077,227.498 279.036,226.960 278.408 C 226.422 277.779,225.165 276.573,224.166 275.729 C 223.168 274.884,222.351 274.015,222.351 273.798 C 222.351 273.580,221.810 272.970,221.149 272.443 C 218.165 270.060,217.726 269.658,217.726 269.300 C 217.726 268.824,215.596 266.667,215.126 266.667 C 214.721 266.667,213.102 265.016,213.102 264.603 C 213.102 264.163,211.520 262.115,209.730 260.237 C 208.829 259.292,208.092 258.364,208.092 258.174 C 208.092 257.984,207.139 257.108,205.973 256.228 C 204.807 255.348,203.854 254.421,203.854 254.169 C 203.854 253.916,203.507 253.338,203.083 252.883 C 202.659 252.428,202.312 251.914,202.312 251.742 C 202.312 251.570,201.228 250.279,199.904 248.874 C 196.106 244.847,193.297 241.521,192.684 240.327 C 192.374 239.722,191.304 238.529,190.306 237.676 C 189.308 236.823,188.286 235.626,188.033 235.018 C 187.781 234.409,187.423 233.911,187.236 233.911 C 187.050 233.911,186.898 233.646,186.898 233.321 C 186.898 232.997,186.619 232.624,186.278 232.493 C 185.255 232.101,184.004 230.744,182.878 228.806 C 182.294 227.799,181.317 226.621,180.709 226.187 C 180.100 225.754,179.379 224.996,179.107 224.504 C 178.835 224.011,178.237 222.926,177.777 222.093 C 177.318 221.261,176.061 219.640,174.984 218.493 C 173.906 217.346,173.025 216.191,173.025 215.927 C 173.025 215.663,172.009 214.443,170.768 213.215 C 169.526 211.987,168.395 210.615,168.253 210.165 C 168.111 209.716,167.116 208.502,166.041 207.468 C 164.966 206.434,163.834 205.006,163.525 204.296 C 162.893 202.843,162.852 202.785,160.802 200.385 C 159.014 198.293,157.225 195.671,157.225 195.142 C 157.225 194.930,156.607 194.159,155.852 193.428 C 155.097 192.698,153.981 191.233,153.373 190.173 C 152.766 189.114,151.719 187.726,151.048 187.091 C 150.377 186.455,149.158 184.585,148.340 182.937 C 147.521 181.288,146.281 179.361,145.584 178.655 C 143.830 176.879,143.516 176.427,143.219 175.244 C 143.077 174.677,142.094 173.296,141.034 172.174 C 139.974 171.052,139.011 169.788,138.894 169.364 C 138.398 167.568,136.662 164.545,135.805 163.983 C 135.295 163.649,134.340 162.295,133.683 160.975 C 133.026 159.654,131.855 157.960,131.080 157.209 C 129.751 155.920,129.407 155.289,128.080 151.698 C 127.779 150.884,126.957 149.670,126.253 149.001 C 125.550 148.332,124.401 146.570,123.700 145.087 C 123.000 143.603,122.279 142.331,122.100 142.261 C 121.920 142.190,121.773 141.893,121.773 141.600 C 121.773 141.307,121.426 140.882,121.002 140.655 C 120.578 140.428,120.227 140.032,120.223 139.774 C 120.218 139.517,119.875 138.873,119.461 138.343 C 119.046 137.813,118.703 137.053,118.698 136.654 C 118.689 135.831,117.438 133.610,116.178 132.177 C 115.228 131.097,114.555 129.901,113.112 126.730 C 112.569 125.535,111.606 123.975,110.971 123.262 C 110.337 122.549,109.719 121.532,109.598 121.002 C 109.031 118.525,107.656 115.661,106.358 114.258 C 105.574 113.410,104.545 111.676,104.070 110.405 C 102.641 106.573,102.059 105.497,100.854 104.450 C 100.475 104.122,99.658 102.385,99.038 100.591 C 98.419 98.797,97.343 96.542,96.648 95.581 C 95.052 93.375,94.126 91.504,93.790 89.810 C 93.517 88.429,92.432 86.296,91.328 84.971 C 90.496 83.972,89.182 80.747,88.852 78.891 C 88.595 77.445,87.356 74.920,86.541 74.181 C 85.536 73.269,84.707 71.488,84.395 69.570 C 83.987 67.064,82.926 64.653,81.366 62.691 C 80.670 61.814,80.024 60.381,79.766 59.140 C 79.076 55.817,77.868 52.745,76.641 51.196 C 75.596 49.876,73.603 44.339,73.603 42.755 C 73.603 42.100,71.773 38.514,71.253 38.150 C 70.844 37.863,68.979 32.362,68.977 31.436 C 68.976 30.743,67.835 28.174,66.396 25.626 C 65.337 23.750,64.725 21.884,64.387 19.495 C 64.044 17.076,62.777 13.749,62.020 13.281 C 60.878 12.575,59.590 7.735,59.074 2.216 C 58.960 0.997,58.694 0.000,58.483 0.000 C 58.248 0.000,58.176 0.932,58.299 2.408 " stroke="none" fill="#9c9c9c" fill-rule="evenodd"></path><path id="path4" d="M59.074 2.216 C 59.590 7.735,60.878 12.575,62.020 13.281 C 62.777 13.749,64.044 17.076,64.387 19.495 C 64.725 21.884,65.337 23.750,66.396 25.626 C 67.835 28.174,68.976 30.743,68.977 31.436 C 68.979 32.362,70.844 37.863,71.253 38.150 C 71.773 38.514,73.603 42.100,73.603 42.755 C 73.603 44.339,75.596 49.876,76.641 51.196 C 77.868 52.745,79.076 55.817,79.766 59.140 C 80.024 60.381,80.670 61.814,81.366 62.691 C 82.926 64.653,83.987 67.064,84.395 69.570 C 84.707 71.488,85.536 73.269,86.541 74.181 C 87.356 74.920,88.595 77.445,88.852 78.891 C 89.182 80.747,90.496 83.972,91.328 84.971 C 92.432 86.296,93.517 88.429,93.790 89.810 C 94.126 91.504,95.052 93.375,96.648 95.581 C 97.343 96.542,98.419 98.797,99.038 100.591 C 99.658 102.385,100.475 104.122,100.854 104.450 C 102.059 105.497,102.641 106.573,104.070 110.405 C 104.545 111.676,105.574 113.410,106.358 114.258 C 107.656 115.661,109.031 118.525,109.598 121.002 C 109.719 121.532,110.337 122.549,110.971 123.262 C 111.606 123.975,112.569 125.535,113.112 126.730 C 114.555 129.901,115.228 131.097,116.178 132.177 C 117.438 133.610,118.689 135.831,118.698 136.654 C 118.703 137.053,119.046 137.813,119.461 138.343 C 119.875 138.873,120.218 139.517,120.223 139.774 C 120.227 140.032,120.578 140.428,121.002 140.655 C 121.426 140.882,121.773 141.307,121.773 141.600 C 121.773 141.893,121.920 142.190,122.100 142.261 C 122.279 142.331,123.000 143.603,123.700 145.087 C 124.401 146.570,125.550 148.332,126.253 149.001 C 126.957 149.670,127.779 150.884,128.080 151.698 C 129.407 155.289,129.751 155.920,131.080 157.209 C 131.855 157.960,133.026 159.654,133.683 160.975 C 134.340 162.295,135.295 163.649,135.805 163.983 C 136.662 164.545,138.398 167.568,138.894 169.364 C 139.011 169.788,139.974 171.052,141.034 172.174 C 142.094 173.296,143.077 174.677,143.219 175.244 C 143.516 176.427,143.830 176.879,145.584 178.655 C 146.281 179.361,147.521 181.288,148.340 182.937 C 149.158 184.585,150.377 186.455,151.048 187.091 C 151.719 187.726,152.766 189.114,153.373 190.173 C 153.981 191.233,155.097 192.698,155.852 193.428 C 156.607 194.159,157.225 194.930,157.225 195.142 C 157.225 195.671,159.014 198.293,160.802 200.385 C 162.852 202.785,162.893 202.843,163.525 204.296 C 163.834 205.006,164.966 206.434,166.041 207.468 C 167.116 208.502,168.111 209.716,168.253 210.165 C 168.395 210.615,169.526 211.987,170.768 213.215 C 172.009 214.443,173.025 215.663,173.025 215.927 C 173.025 216.191,173.906 217.346,174.984 218.493 C 176.061 219.640,177.318 221.261,177.777 222.093 C 178.237 222.926,178.835 224.011,179.107 224.504 C 179.379 224.996,180.100 225.754,180.709 226.187 C 181.317 226.621,182.294 227.799,182.878 228.806 C 184.004 230.744,185.255 232.101,186.278 232.493 C 186.619 232.624,186.898 232.997,186.898 233.321 C 186.898 233.646,187.050 233.911,187.236 233.911 C 187.423 233.911,187.781 234.409,188.033 235.018 C 188.286 235.626,189.308 236.823,190.306 237.676 C 191.304 238.529,192.374 239.722,192.684 240.327 C 193.297 241.521,196.106 244.847,199.904 248.874 C 201.228 250.279,202.312 251.570,202.312 251.742 C 202.312 251.914,202.659 252.428,203.083 252.883 C 203.507 253.338,203.854 253.916,203.854 254.169 C 203.854 254.421,204.807 255.348,205.973 256.228 C 207.139 257.108,208.092 257.984,208.092 258.174 C 208.092 258.364,208.829 259.292,209.730 260.237 C 211.600 262.198,213.102 264.167,213.102 264.657 C 213.102 265.059,214.764 266.667,215.180 266.667 C 215.611 266.667,217.726 268.855,217.726 269.300 C 217.726 269.658,218.165 270.060,221.149 272.443 C 221.810 272.970,222.351 273.580,222.351 273.798 C 222.351 274.015,223.168 274.884,224.166 275.729 C 225.165 276.573,226.422 277.779,226.960 278.408 C 227.498 279.036,228.530 280.077,229.254 280.720 C 229.977 281.362,231.104 282.491,231.759 283.227 C 232.413 283.963,233.445 285.004,234.052 285.539 C 235.142 286.500,236.592 287.938,238.604 290.053 C 239.171 290.649,240.174 291.570,240.833 292.100 C 241.492 292.630,242.320 293.538,242.675 294.117 C 243.029 294.697,243.871 295.433,244.547 295.753 C 245.223 296.074,246.704 297.193,247.840 298.241 C 254.392 304.287,257.222 306.744,257.633 306.744 C 257.887 306.744,258.320 307.015,258.595 307.347 C 260.525 309.673,263.129 305.939,262.454 301.812 C 262.222 300.392,261.781 296.541,261.475 293.256 C 260.942 287.531,259.432 277.640,258.535 273.988 C 258.300 273.035,257.954 268.439,257.766 263.776 C 257.577 259.114,257.258 253.911,257.056 252.216 C 256.558 248.038,256.566 231.237,257.067 228.131 C 257.289 226.753,257.602 221.638,257.761 216.763 C 257.995 209.622,258.177 207.660,258.698 206.667 C 259.106 205.890,259.345 204.530,259.345 202.993 C 259.345 201.651,259.611 199.605,259.936 198.446 C 260.261 197.287,260.690 194.865,260.890 193.064 C 262.715 176.568,263.062 174.275,264.177 171.291 C 265.584 167.525,265.710 166.984,266.640 160.694 C 267.711 153.450,267.970 152.425,269.601 148.940 C 270.297 147.454,272.051 140.391,272.057 139.052 C 272.062 137.854,273.507 133.797,274.239 132.927 C 274.918 132.119,276.686 126.632,276.688 125.325 C 276.689 124.171,278.271 119.377,278.906 118.601 C 279.556 117.807,281.310 113.233,281.310 112.332 C 281.310 110.366,283.972 104.223,285.239 103.266 C 285.386 103.154,285.698 102.201,285.932 101.146 C 286.536 98.426,287.836 94.288,288.164 94.042 C 288.767 93.591,290.559 90.677,290.559 90.148 C 290.559 88.727,292.590 83.409,293.638 82.085 C 294.792 80.629,296.724 76.111,296.724 74.872 C 296.724 73.958,298.302 70.774,298.947 70.385 C 299.629 69.975,301.731 65.583,301.741 64.547 C 301.745 64.123,302.222 63.064,302.801 62.194 C 303.380 61.323,304.328 59.900,304.908 59.031 C 305.488 58.161,306.136 56.676,306.348 55.731 C 306.726 54.041,307.925 51.620,308.946 50.482 C 310.409 48.851,310.983 47.994,310.984 47.436 C 310.987 46.559,312.514 43.678,314.170 41.426 C 314.950 40.366,315.592 39.271,315.597 38.992 C 315.618 37.878,317.373 34.388,318.761 32.702 C 319.569 31.719,320.237 30.765,320.244 30.582 C 320.251 30.400,320.592 29.557,321.002 28.709 C 321.411 27.861,321.752 26.902,321.760 26.578 C 321.767 26.254,322.366 25.378,323.092 24.631 C 324.344 23.342,326.387 19.515,326.405 18.425 C 326.410 18.147,326.753 17.486,327.168 16.956 C 327.582 16.426,327.925 15.770,327.930 15.499 C 327.934 15.227,328.203 14.903,328.526 14.779 C 329.169 14.533,331.020 10.780,331.023 9.719 C 331.025 8.770,332.412 6.605,334.150 4.837 C 335.915 3.042,336.385 0.000,334.897 -0.000 C 334.292 -0.000,334.126 0.314,334.030 1.635 C 333.932 2.992,333.727 3.358,332.826 3.788 C 331.478 4.431,330.420 6.105,329.618 8.863 C 328.877 11.413,327.948 13.102,327.287 13.102 C 326.769 13.102,325.471 15.659,325.031 17.547 C 324.707 18.935,323.101 21.821,322.418 22.239 C 321.609 22.736,320.231 25.261,320.230 26.250 C 320.228 27.384,319.081 29.308,317.336 31.105 C 316.609 31.854,315.936 32.748,315.841 33.092 C 314.944 36.354,313.901 39.306,313.646 39.306 C 312.741 39.306,310.989 42.011,310.036 44.877 C 309.217 47.342,308.743 48.188,307.906 48.683 C 306.757 49.361,304.817 53.509,304.817 55.285 C 304.817 56.707,304.071 58.054,303.018 58.534 C 301.869 59.057,300.277 62.368,299.838 65.149 C 299.555 66.941,298.119 68.979,297.141 68.979 C 296.679 68.979,295.465 72.287,295.303 73.988 C 295.021 76.952,294.847 77.356,292.888 79.594 C 291.367 81.332,290.896 82.210,290.553 83.949 C 289.894 87.288,289.451 88.465,288.322 89.887 C 286.745 91.872,286.093 93.472,285.145 97.679 C 284.411 100.937,284.085 101.712,283.010 102.756 C 281.680 104.048,281.258 105.190,280.145 110.521 C 279.777 112.280,279.235 113.928,278.939 114.182 C 277.504 115.415,276.942 116.619,276.086 120.293 C 275.576 122.484,275.155 124.760,275.151 125.350 C 275.142 126.768,274.268 128.804,273.268 129.735 C 272.115 130.810,270.911 134.894,270.562 138.921 C 270.272 142.260,269.489 144.597,268.366 145.472 C 267.348 146.266,266.244 150.513,265.861 155.106 C 265.408 160.541,264.533 164.735,263.567 166.104 C 262.076 168.217,261.386 171.512,260.909 178.805 C 260.446 185.879,260.074 188.330,259.120 190.563 C 258.848 191.202,258.504 192.676,258.356 193.839 C 258.208 195.002,257.961 196.127,257.808 196.339 C 255.086 200.107,254.902 273.868,257.588 284.586 C 257.960 286.069,258.581 287.977,258.968 288.825 C 259.772 290.584,259.935 291.566,260.546 298.330 C 261.404 307.834,260.865 307.820,250.674 298.073 C 248.561 296.052,245.991 294.412,244.938 294.412 C 244.577 294.412,244.316 294.095,244.316 293.658 C 244.316 292.650,241.553 289.788,240.581 289.788 C 240.055 289.788,239.590 289.304,239.123 288.268 C 238.343 286.536,237.207 285.376,235.910 284.982 C 235.420 284.833,234.491 283.853,233.846 282.805 C 233.104 281.600,232.123 280.618,231.178 280.136 C 230.217 279.646,229.402 278.822,228.896 277.831 C 228.354 276.769,227.516 275.960,226.207 275.235 C 224.890 274.505,224.235 273.871,224.079 273.174 C 223.814 271.989,222.387 270.657,220.567 269.897 C 219.686 269.529,219.268 269.098,219.268 268.558 C 219.268 267.571,216.387 264.740,215.383 264.740 C 214.927 264.740,214.644 264.473,214.644 264.045 C 214.644 262.802,212.526 260.001,208.613 256.069 C 205.080 252.519,202.312 249.041,202.312 248.150 C 202.312 247.949,202.174 247.784,202.005 247.784 C 201.106 247.784,198.533 245.200,197.688 243.448 C 197.370 242.789,196.614 241.977,196.008 241.644 C 195.401 241.310,194.454 240.166,193.901 239.100 C 193.181 237.713,192.455 236.936,191.342 236.362 C 190.455 235.906,189.575 235.083,189.293 234.448 C 188.144 231.862,187.788 231.380,186.648 230.875 C 185.791 230.496,185.199 229.780,184.573 228.370 C 184.092 227.285,182.802 225.443,181.708 224.277 C 180.613 223.112,179.296 221.305,178.780 220.263 C 178.251 219.194,177.195 217.898,176.358 217.290 C 175.542 216.698,174.415 215.337,173.853 214.267 C 173.195 213.012,172.361 212.071,171.503 211.617 C 170.773 211.229,170.058 210.668,169.916 210.370 C 169.773 210.071,169.287 208.997,168.835 207.984 C 168.383 206.970,167.710 206.034,167.340 205.903 C 166.331 205.547,164.933 204.180,164.933 203.550 C 164.933 202.129,161.724 197.688,160.697 197.688 C 160.483 197.688,160.308 197.502,160.308 197.275 C 160.308 197.048,160.040 196.593,159.711 196.265 C 159.383 195.937,159.014 195.165,158.891 194.551 C 158.768 193.937,158.126 193.003,157.465 192.476 C 155.419 190.847,155.101 190.459,154.571 188.944 C 154.288 188.136,153.319 186.696,152.418 185.742 C 151.516 184.788,150.523 183.487,150.211 182.852 C 149.899 182.216,149.250 180.883,148.769 179.889 C 148.257 178.830,147.315 177.699,146.490 177.153 C 145.414 176.441,144.971 175.798,144.600 174.411 C 144.291 173.254,143.514 171.943,142.456 170.788 C 140.967 169.166,138.728 165.260,138.728 164.287 C 138.728 163.727,137.028 162.235,136.389 162.235 C 135.828 162.235,135.272 161.239,134.451 158.767 C 134.204 158.025,133.350 156.724,132.552 155.877 C 131.052 154.283,129.776 152.030,129.336 150.200 C 129.109 149.253,128.308 148.320,126.040 146.361 C 125.624 146.002,125.178 145.048,125.049 144.241 C 124.919 143.435,124.619 142.428,124.381 142.004 C 124.143 141.580,123.762 140.886,123.535 140.462 C 123.307 140.039,122.471 139.047,121.676 138.259 C 120.882 137.472,120.231 136.473,120.231 136.039 C 120.231 134.741,118.665 131.702,117.150 130.058 C 115.794 128.588,114.066 125.164,114.066 123.949 C 114.066 123.636,113.389 122.738,112.561 121.954 C 111.734 121.170,110.967 120.071,110.857 119.513 C 110.213 116.250,108.177 112.524,107.039 112.524 C 106.328 112.524,105.845 111.446,105.004 107.986 C 104.633 106.460,104.093 105.015,103.803 104.775 C 103.513 104.534,103.276 104.098,103.276 103.806 C 103.276 103.514,103.027 103.276,102.724 103.276 C 101.868 103.276,100.733 101.371,100.198 99.037 C 99.426 95.672,99.041 94.888,97.284 93.106 C 95.955 91.758,95.578 91.059,95.361 89.549 C 94.966 86.788,93.675 83.961,92.257 82.755 C 91.354 81.987,90.942 81.245,90.759 80.058 C 90.221 76.574,88.949 73.505,87.422 72.009 C 86.604 71.207,85.934 70.182,85.934 69.732 C 85.934 67.081,82.849 59.730,81.737 59.730 C 81.568 59.730,81.047 58.039,80.581 55.973 C 79.688 52.021,78.373 48.940,77.579 48.940 C 76.720 48.940,75.752 46.176,75.149 42.004 C 74.827 39.778,73.635 36.609,73.118 36.609 C 72.411 36.609,70.520 32.938,70.520 31.564 C 70.520 29.662,69.091 25.004,68.279 24.263 C 66.666 22.789,66.273 21.964,65.893 19.244 C 65.310 15.079,64.244 11.996,62.784 10.257 C 61.469 8.691,61.179 7.630,60.643 2.408 C 60.431 0.347,60.285 -0.000,59.631 -0.000 C 58.934 -0.000,58.885 0.194,59.074 2.216 " stroke="none" fill="#acacb4" fill-rule="evenodd"></path></g></svg>