<svg width="95" height="93" viewBox="0 0 95 93" fill="none" xmlns="http://www.w3.org/2000/svg">
<path d="M16.8418 1.79816C14.8631 12.4362 12.7962 23.1657 9.22255 33.3834C8.35385 35.8551 6.04399 41.4376 7.87314 44.0401C8.51869 44.9568 9.69069 45.1752 10.8635 45.4385C7.59483 46.0368 4.35881 46.7842 1.2809 47.993C0.820085 48.1811 0.769152 48.6762 0.939787 49.0025C0.940058 49.0175 0.940329 49.0325 0.9406 49.0474C3.57902 58.2991 4.54703 67.9254 7.24505 77.1609C8.90496 82.8213 11.624 91.5624 18.4818 92.3516C21.4379 92.6874 24.6329 91.3268 27.4035 90.5129C32.9746 88.8845 38.5781 87.3904 44.1501 85.8069C55.279 82.6403 66.2626 78.8924 77.1694 75.041C82.0797 73.3048 86.9578 71.4494 91.8681 69.7132C93.0734 69.2871 94.8023 68.8365 94.503 67.1947C93.8514 63.4627 91.3484 60.0339 90.0419 56.5235C88.2632 51.7487 86.5287 46.9283 84.7797 42.138C88.1818 37.3294 88.9651 30.1422 89.9418 24.5389C90.3078 22.4208 90.4854 19.8269 88.4409 18.5611C85.9415 16.9891 81.9631 17.2559 79.1207 16.5885C68.4571 14.0263 57.8085 11.4638 47.0615 9.26242C41.9963 8.23104 36.9161 7.19992 32.005 5.58173C27.1995 4.00655 22.5823 2.08353 17.538 1.38122C17.2378 1.34174 16.9107 1.46746 16.8418 1.79816ZM8.52413 41.1231C8.57621 39.8643 9.01425 38.4188 9.27834 37.2909C9.96009 34.4183 11.138 31.6566 12.0609 28.8695C12.9694 26.1127 13.5763 23.2415 14.2136 20.3997C15.4033 20.7675 16.6074 21.105 17.796 21.413C16.6561 21.3138 15.5168 21.2446 14.3932 21.22C13.9888 21.2124 13.8962 21.8879 14.3014 21.9405C25.7748 23.7393 36.5138 27.1538 47.6806 30.2161C48.2977 30.3846 48.5206 29.4671 47.918 29.2683C42.6158 27.5524 37.0847 25.601 31.471 24.0555C36.7415 24.8435 42.0542 25.4811 47.3126 26.4341C52.8114 27.4277 58.225 28.6774 63.778 29.3555C65.4288 29.5502 67.094 29.7147 68.7568 29.7445C69.5806 29.7595 70.8953 29.586 71.8711 29.718C68.623 30.6304 65.4126 31.9615 62.2405 32.9324C56.6563 34.6658 51.0212 36.0706 45.3405 37.4314C39.1226 38.9067 32.9865 40.755 26.8007 42.3495C26.7531 42.2006 26.6459 42.0678 26.4654 42.0261C23.8632 41.3844 21.076 41.2852 18.4345 40.9586C17.8943 40.8935 17.6686 41.6613 18.2249 41.786C20.3601 42.2715 22.5822 42.5906 24.7732 42.8505C24.4006 42.9471 24.028 43.0437 23.6551 43.1253C21.5677 43.6273 19.4332 44.0104 17.2832 44.3638C17.3391 44.1382 17.2441 43.8554 16.9578 43.7557C14.3514 42.8895 11.4245 40.861 8.52413 41.1231ZM10.5226 43.9771C9.2308 43.7609 8.70772 42.9917 8.5698 41.9909C11.297 42.0912 13.6042 43.8015 16.1787 44.5635C15.1485 44.7319 14.1033 44.9006 13.0731 45.069C12.2993 44.514 11.5138 44.1388 10.5226 43.9771ZM27.0685 89.3808C23.6564 90.3261 19.8237 92.0278 16.3382 90.5785C23.8371 91.2064 31.3931 87.5504 38.2977 85.1342C48.6694 81.5022 59.3758 78.9871 69.6667 75.0271C70.336 74.7754 70.0626 73.7321 69.3475 73.9397C64.1338 75.4567 59.0488 77.4656 53.8987 79.1912C49.21 80.7586 44.4081 81.8639 39.7031 83.3567C31.9904 85.8025 23.5851 90.5221 15.2537 89.4001C15.0286 89.3743 14.8506 89.4673 14.7335 89.6192C11.2838 86.8365 9.62722 80.5321 8.46663 76.8094C7.13134 72.5358 6.24352 68.1642 5.40034 63.7768C18.667 60.4068 32.2095 58.2148 45.4435 54.6956C51.7626 53.0238 57.9853 50.9943 64.241 49.1289C65.7164 57.8326 69.4751 66.9291 73.0948 74.965C57.8847 80.1672 42.6237 85.0409 27.0685 89.3808ZM91.5171 68.5216C85.6547 70.6045 79.7918 72.6574 73.943 74.6651C73.8317 74.3077 73.7356 73.9651 73.6243 73.6077C80.2583 71.9601 86.7982 69.251 93.0542 66.577C93.129 67.3992 92.767 68.0797 91.5171 68.5216ZM89.1852 58.0065C89.8609 59.7613 90.7449 61.4375 91.5841 63.1294C92.0041 63.9904 92.5288 64.8494 92.8278 65.6526C86.2616 67.7333 79.8877 70.5142 73.3547 72.774C72.2137 69.3055 70.8192 65.9015 69.574 62.4648C67.935 57.9571 66.699 53.3822 65.2984 48.8103C71.5399 46.9901 77.7341 45.8596 84.1062 44.6361C84.1658 44.62 84.2104 44.6042 84.2548 44.5735C85.9232 49.0507 87.4874 53.5598 89.1852 58.0065ZM83.5644 42.8339C83.643 43.0421 83.7217 43.2504 83.8003 43.4586C83.7704 43.4591 83.7554 43.4594 83.7255 43.46C77.2029 44.6413 70.92 45.8333 64.5443 47.6858C58.0496 49.5855 51.6032 51.6639 45.062 53.4746C31.905 57.1122 18.3603 59.1844 5.1707 62.6729C4.29459 58.1214 3.41822 53.5549 2.10989 49.1161C6.66196 47.4463 11.5613 46.7586 16.3248 46.0134C21.9544 45.1328 27.4833 43.6549 32.982 42.1627C43.741 39.2424 54.6132 36.7843 65.2598 33.4467C69.2057 32.2072 73.303 30.2312 77.4782 30.0807C80.6807 29.9628 80.8909 33.2984 81.2753 35.5077C81.6747 37.7168 82.4478 39.8891 83.2501 42.016C83.1662 42.347 83.3366 42.6584 83.5644 42.8339ZM84.2265 40.5308C83.479 38.1184 83.1447 35.3691 82.337 32.9428C83.7393 33.4714 85.2438 33.8635 86.6434 34.2425C86.0852 36.4988 85.3461 38.6836 84.2265 40.5308ZM20.8939 3.11744C27.4792 4.57053 33.7014 7.4678 40.2886 9.02569C53.5678 12.1396 66.9021 14.9829 80.1682 18.2018C81.9883 18.6481 83.8922 18.7633 85.7253 19.1045C90.0077 19.9105 88.7157 23.8124 88.1003 27.0431C87.745 28.9214 87.3937 31.0243 86.9075 33.1146C85.2064 32.6213 83.5143 31.7983 81.7571 31.5157C81.6167 31.2038 81.4613 30.8921 81.2912 30.5957C79.9615 28.2837 76.7486 28.6563 74.5997 29.0696C74.152 29.1526 73.7048 29.2655 73.2573 29.3635C73.2404 29.259 73.1939 29.17 73.1327 29.0962C72.3219 28.1525 69.1548 28.5692 68.0309 28.5297C62.068 28.3682 56.0376 26.9649 50.2054 25.7527C38.3156 23.2876 26.1473 22.8041 14.5058 19.1664C14.4908 19.1667 14.4758 19.167 14.4609 19.1672C14.4889 19.0619 14.5023 18.9718 14.5303 18.8665C15.2246 15.8589 15.8734 12.8222 16.4925 9.80108C16.8509 8.08745 17.179 6.35939 17.4921 4.63161C17.9427 2.22747 18.8191 2.66084 20.8939 3.11744Z" fill="#333184"/>
<path d="M27.6257 48.1757C27.6756 47.6207 26.9075 47.38 26.555 47.7608C25.2182 49.1926 24.1482 50.4699 22.3468 51.0566C22.4085 48.6745 21.7936 46.1399 18.8131 46.9426C18.545 47.0223 18.3403 47.2956 18.3455 47.58C18.4827 50.1981 18.4981 52.6987 15.5992 53.8743C14.7669 54.2188 14.3436 54.8255 13.9532 55.5963C13.9391 55.6414 13.9249 55.6866 13.9108 55.7318C13.4815 56.0091 13.795 56.7821 14.3922 56.6815C18.1848 56.0737 21.2401 59.4027 25.0007 57.8521C25.4019 57.6801 25.6172 57.167 25.2517 56.8292C24.5206 56.1536 24.2096 55.5153 23.7897 54.6544C23.5409 54.1497 28.9508 54.3662 29.2662 54.4204C29.7771 54.516 30.232 53.9986 29.9386 53.5098C28.8568 51.6575 27.4138 50.5306 27.6257 48.1757ZM28.1929 53.0322C26.2879 52.8571 24.5399 53.0834 22.6683 53.926C22.3564 54.0664 22.3194 54.5013 22.4587 54.7534C22.9069 55.5239 23.2496 56.2515 23.7411 56.9315C20.9955 57.4754 18.3854 55.5759 15.5687 55.4921C16.8502 54.3158 19.128 54.4094 19.5694 52.3199C19.8302 51.0123 19.7933 49.8 19.6794 48.4693C20.7586 48.5247 21.2321 49.0402 21.0557 50.0467C21.1117 50.6597 21.0482 51.2898 20.9845 51.9049C20.948 52.3698 21.4461 52.5854 21.8192 52.5187C23.9091 52.1514 25.1625 51.0805 26.4552 49.6943C26.7178 50.9625 27.424 51.923 28.1929 53.0322Z" fill="#333184"/>
<path d="M27.957 12.6338C28.3867 12.3864 28.9725 11.657 28.9475 11.1034C28.8401 9.30837 27.2564 8.67815 25.6641 8.40749C25.4537 8.36638 25.2148 8.40066 25.0683 8.58301C23.6327 10.3461 22.1615 11.7954 19.7344 11.7345C18.7755 11.7069 18.266 12.5098 17.8293 13.2066C17.7855 13.2673 17.7716 13.3274 17.7577 13.3876C17.3851 13.4842 17.32 14.0245 17.7571 14.1813C20.3803 15.152 22.7197 16.1579 22.2554 19.4608C22.2017 19.8062 22.3424 20.1331 22.7036 20.2314C23.8473 20.5401 24.9575 20.6548 26.1363 20.4238C26.4945 20.3574 26.6219 19.9508 26.5566 19.6525C25.8247 15.6225 29.0413 16.283 30.8185 18.4971C31.171 18.9399 31.9628 18.8357 31.9506 18.1621C31.9131 16.0962 32.0768 14.3861 33.0462 12.5117C33.3503 11.9371 32.7276 11.4542 32.2079 11.7033C31.7324 11.9065 31.2577 12.1547 30.798 12.4027C30.3981 12.6495 26.1643 13.6996 27.957 12.6338ZM31.3848 13.3804C31.0004 14.4805 30.8255 15.5768 30.7716 16.7309C28.1264 14.5475 24.935 15.2792 25.2771 19.2863C24.6789 19.3271 24.1087 19.2625 23.5224 19.1384C23.6336 16.1863 21.833 14.3321 19.0797 13.6182C19.9916 12.7032 22.3035 13.0207 23.395 12.1025C23.926 11.6586 25.4466 9.6244 26.1676 9.74612C29.1713 10.2308 26.2507 11.8561 26.2645 12.6195C26.3387 15.0591 29.437 14.1494 31.3848 13.3804Z" fill="#333184"/>
<path d="M40.1891 48.1276C39.8892 47.2795 39.589 46.4163 39.2592 45.5687C40.1087 45.3437 40.9582 45.1187 41.824 44.9682C42.7048 44.8175 42.3061 43.477 41.4256 43.6427C40.1121 43.8761 38.8314 44.2737 37.5505 44.6563C36.8951 44.8478 36.2549 45.0541 35.5995 45.2457C35.4206 45.2938 35.2271 45.3573 35.0486 45.4204C34.8251 45.4843 34.483 45.6103 34.9459 45.542C34.3931 45.612 34.3778 46.4209 34.9619 46.4253C34.6775 46.4304 34.9026 46.4563 35.0681 46.4982C35.2787 46.5543 35.5169 46.4751 35.7259 46.4414C36.368 46.3399 36.9941 46.1788 37.6201 46.0177C37.8139 45.9693 38.0074 45.9059 38.2012 45.8575C38.3179 46.5142 38.5095 47.1697 38.7008 47.8101C38.9718 48.7187 39.1462 50.0782 39.7136 50.8167C39.9899 51.1861 40.6036 51.175 40.7292 50.6635C40.9385 49.8212 40.4576 48.9014 40.1891 48.1276Z" fill="#333184"/>
<path d="M44.4533 42.9589C44.7985 45.4834 45.607 47.9546 46.4887 50.3346C46.8033 51.1675 48.1144 50.7993 47.8292 49.936C47.0376 47.5693 46.3051 45.1566 45.4539 42.806C45.265 42.3003 44.3676 42.3615 44.4533 42.9589Z" fill="#333184"/>
<path d="M55.1446 46.2247C55.0425 45.5527 54.1628 45.7633 53.9769 46.2459C53.7768 46.7736 53.7465 47.5828 53.424 47.963C53.3361 48.0694 53.4251 48.0229 53.3053 48.0251C53.3502 48.0243 53.1845 47.9674 53.0026 47.8509C52.1235 47.2678 51.4089 45.8431 50.9713 44.8328C50.5492 43.8521 50.0148 42.4541 50.2358 41.4318C50.305 41.1161 50.379 41.0698 50.7233 41.0636C51.4718 41.05 52.3213 41.6486 52.9263 41.9821C53.4404 42.2573 54.0412 41.5276 53.5548 41.1321C52.4458 40.2537 50.1595 38.8725 49.1278 40.6133C48.3286 41.9605 49.1151 44.0428 49.6626 45.3357C50.2564 46.7026 51.1591 48.5881 52.6234 49.2354C54.45 50.0409 55.3655 47.6733 55.1446 46.2247Z" fill="#333184"/>
<path d="M58.5971 42.6277C59.9645 42.8875 61.1759 43.6293 62.4445 44.2202C63.1998 44.5809 63.8384 43.4612 63.0828 43.0856C61.8891 42.4932 60.7095 41.8557 59.4311 41.5494C60.0762 40.789 60.7668 40.0577 61.3817 39.2828C61.9378 38.5689 60.9316 37.5838 60.3608 38.3129C59.5706 39.3306 58.7946 40.303 58.1402 41.3781C58.1102 41.3786 58.0803 41.3792 58.0653 41.3795C57.7518 40.6064 57.4084 39.834 57.0056 39.0925C56.6488 38.4101 55.6716 39.0268 55.9985 39.7097C57.041 41.8772 57.7418 44.1856 58.308 46.5114C58.5181 47.3612 59.8139 46.9783 59.6039 46.1286C59.3133 44.9658 58.978 43.8188 58.5832 42.6879C58.5679 42.6732 58.5826 42.6579 58.5971 42.6277Z" fill="#333184"/>
<path d="M71.2116 41.9796C70.1727 42.4926 69.2973 42.9427 68.1773 43.1127C67.9514 42.2183 67.7403 41.3087 67.5291 40.399C68.4997 40.2467 69.6821 40.2103 70.4657 39.657C70.9241 39.3342 70.7747 38.5283 70.1463 38.5547C69.2034 38.5867 68.223 39.0238 67.3158 39.3696C67.1849 38.758 67.069 38.1462 66.9681 37.534C67.8734 37.0834 68.8252 36.7217 69.8418 36.6284C70.5593 36.5555 70.5545 35.4624 69.8215 35.5057C68.4451 35.5755 67.1503 36.0183 65.9031 36.6099C65.7251 36.703 65.5653 36.9754 65.5841 37.1847C65.8956 39.5002 66.4458 41.7664 67.0112 44.0473C67.0762 44.3307 67.3794 44.5348 67.6638 44.5297C69.1148 44.4435 71.1451 44.0923 71.99 42.7891C72.3542 42.2284 71.6866 41.7464 71.2116 41.9796Z" fill="#333184"/>
<path d="M77.7274 34.7037C78.2783 34.529 78.3369 33.6294 77.7057 33.5061C76.8192 33.3425 75.8383 33.7496 74.9893 34.0045C74.1404 34.2595 72.6945 34.6301 72.2914 35.521C72.1615 35.7929 72.3191 36.2243 72.6928 36.1875C73.3953 36.1149 74.1231 35.7873 74.8074 35.5353C74.5941 37.8153 75.6944 39.8619 76.4977 42.0487C76.8129 42.9115 78.183 42.4974 77.8532 41.6498C77.0507 39.5079 75.8764 37.5076 75.9092 35.1859C76.5056 35.0403 77.1319 34.8942 77.7274 34.7037Z" fill="#333184"/>
<path d="M42.3695 13.9304C43.194 13.9753 44.0189 14.0502 44.8151 14.1856C45.0862 16.7563 44.4127 19.2544 44.1896 21.8191C44.1147 22.6441 45.3869 22.6061 45.477 21.7958C45.733 19.3952 46.4654 16.8362 45.943 14.4497C46.3646 14.5768 46.7864 14.7189 47.1939 14.8912C48.009 15.2508 48.6912 14.0555 47.8758 13.6809C46.139 12.8738 44.2479 12.6385 42.3484 12.7627C41.5855 12.8065 41.6199 13.884 42.3695 13.9304Z" fill="#333184"/>
<path d="M51.0461 15.0458C50.0555 17.3998 49.3485 19.7038 49.0503 22.2549C48.9462 23.1254 50.3235 23.1004 50.4125 22.2302C50.6405 19.935 51.1967 17.5738 51.8153 15.3463C51.9419 14.8948 51.2326 14.5932 51.0461 15.0458Z" fill="#333184"/>
<path d="M59.5903 22.1688C59.4891 21.5417 58.6385 21.7068 58.4675 22.1891C58.2544 22.8219 58.1147 23.3785 57.36 23.0478C56.4846 22.6743 55.9145 21.7861 55.6737 20.892C55.3518 19.6549 56.0345 18.4894 56.9333 17.6795C57.1984 17.4351 57.6571 17.1273 58.0474 17.1801C58.6328 17.2594 58.8736 18.1535 59.0018 18.6154C59.1613 19.1516 60.0728 19.0453 60.0023 18.4625C59.8807 17.5363 59.6565 16.7317 58.8678 16.1769C58.2459 15.7389 57.4255 15.9185 56.8017 16.1994C55.0784 16.9644 54.0393 19.1246 54.2967 20.9319C54.5348 22.4999 55.5929 23.8734 57.0855 24.4304C58.5928 24.9722 59.8419 23.6617 59.5903 22.1688Z" fill="#333184"/>
<path d="M63.389 16.1254C63.1121 17.3734 62.8801 18.6205 62.6481 19.8676C62.5308 20.0045 62.4894 20.1999 62.5526 20.3785C62.1962 22.1969 61.8095 24.0009 61.1676 25.7646C60.9681 26.3223 61.8575 26.6506 62.118 26.1517C62.886 24.7301 63.3529 23.2242 63.7144 21.6902C65.0918 23.3275 66.1301 25.2554 67.6403 26.7854C68.2657 27.418 69.2358 26.4121 68.5957 25.7948C67.2384 24.4417 66.2503 22.7973 65.0261 21.352C65.0996 21.2758 65.188 21.1993 65.2915 21.1225C65.6908 20.8458 66.1364 20.643 66.5667 20.4256C67.2937 20.053 68.6645 19.6688 69.0243 18.8686C69.2696 18.355 68.8562 17.8534 68.3042 17.9682C67.8268 18.0667 67.3551 18.4795 66.91 18.7122C66.3316 19.0222 65.7374 19.2875 65.1596 19.6274C64.7595 19.8593 64.42 20.135 64.1862 20.4537C64.1252 20.3949 64.064 20.3212 64.003 20.2624C64.25 19.015 64.4667 17.7532 64.7287 16.5055C64.9367 15.5883 63.5826 15.2384 63.389 16.1254Z" fill="#333184"/>
<path d="M71.9654 20.0281C70.3665 21.869 70.8932 24.4951 70.3068 26.8418C70.2229 27.1727 70.4257 27.6183 70.8013 27.6864C72.258 27.9146 74.5489 28.7266 75.9275 27.9529C76.3426 27.7208 76.2836 26.9432 75.7733 26.8775C74.4524 26.7068 73.1179 26.6112 71.7821 26.4407C71.8877 25.6601 71.9174 24.8209 71.9621 23.9815C72.007 23.9807 72.0522 23.9949 72.1118 23.9788C73.4257 23.7603 74.6265 23.9183 75.9047 24.2096C76.6115 24.3765 77.0718 23.3349 76.392 23.0028C75.0629 22.383 73.5066 22.4411 72.1043 22.736C72.2388 21.895 72.464 21.0973 72.9314 20.4449C73.5636 20.6281 74.1959 20.8113 74.8276 20.9646C75.4743 21.1176 76.1523 21.3449 76.8104 21.3031C77.3638 21.2631 77.6047 20.51 77.0753 20.2201C76.531 19.9304 75.9308 19.8664 75.3296 19.7425C74.6083 19.6059 73.8723 19.4844 73.1366 19.3779C73.0302 19.29 72.895 19.2625 72.7613 19.3248C72.6712 19.3115 72.5961 19.2979 72.506 19.2845C72.0256 19.2184 71.7798 19.702 71.9654 20.0281Z" fill="#333184"/>
<path d="M79.5172 21.9281C80.4641 22.1206 81.4124 22.388 82.3751 22.6251C82.4903 24.8543 81.6584 26.876 81.023 28.9989C80.8395 29.6162 81.8357 30.0474 82.094 29.4288C82.8116 27.7087 84.2151 25.0027 83.8484 22.9428C84.2539 23.0104 84.6742 23.0627 85.0939 23.085C85.8881 23.1155 86.0156 21.8853 85.2489 21.7195C83.4296 21.3182 81.4936 21.0837 79.6343 20.9526C79.0492 20.8883 78.9462 21.8187 79.5172 21.9281Z" fill="#333184"/>
<path d="M33.2993 60.4571C33.9692 60.2354 33.6669 59.2525 32.9959 59.4144C24.1839 61.5207 14.4175 61.3682 6.13338 65.3368C5.46542 65.6634 6.06688 66.6258 6.7351 66.3142C15.0952 62.4041 24.6506 63.3093 33.2993 60.4571Z" fill="#333184"/>
<path d="M70.4869 50.0046C69.9346 50.1045 70.0864 51.0451 70.6392 50.9752C72.91 50.6795 75.2797 50.0526 77.3277 49.0272C77.8916 48.7474 77.4712 47.8565 76.8903 48.0318C74.7153 48.6552 72.7106 49.59 70.4869 50.0046Z" fill="#333184"/>
<path d="M71.6192 57.0373C75.2502 55.7736 78.9652 55.0175 82.7086 54.171C83.3498 54.0246 83.1956 52.9492 82.538 53.021C78.7125 53.4646 74.9163 54.7014 71.3955 56.2627C70.9349 56.4657 71.1134 57.2262 71.6192 57.0373Z" fill="#333184"/>
<path d="M73.4065 61.4822C72.7914 61.4185 72.6612 62.499 73.2766 62.5778C76.6688 63.0105 80.4092 61.9993 83.2193 60.0616C83.8701 59.6155 83.2839 58.6678 82.5866 59.0248C79.6937 60.5298 76.7519 61.811 73.4065 61.4822Z" fill="#333184"/>
<path d="M75.9608 66.9621C75.3794 67.1074 75.6499 67.986 76.2316 67.8557C80.1252 67.0364 83.8588 65.651 87.5619 64.2362C88.3649 63.9222 87.997 62.626 87.1791 62.9403C83.461 64.3554 79.8212 65.9638 75.9608 66.9621Z" fill="#333184"/>
<path d="M52.9839 59.2169C48.2928 59.0023 43.9979 61.6408 39.4935 62.6359C38.8969 62.7665 39.05 63.782 39.6624 63.696C42.0675 63.368 52.1053 58.6637 52.8454 61.4956C53.3124 63.2991 47.8948 64.3107 46.3602 64.7428C43.7527 65.4639 41.0964 65.9762 38.4562 66.5481C32.9371 67.7413 27.4857 69.3674 22.0638 70.9631C19.2485 71.7928 16.5109 72.7708 13.8214 73.9277C12.5581 74.4597 12.1972 75.2 11.3813 73.1483C10.9111 71.9887 10.4708 70.8287 9.95588 69.6849C9.76865 69.269 9.07048 69.5812 9.22804 70.0126C9.93585 71.8866 10.51 73.8229 11.2178 75.6969C11.3593 76.0688 11.7211 76.197 12.0774 76.0258C19.2033 72.6023 26.96 70.9343 34.5127 68.746C41.0969 66.8298 47.9143 66.2121 54.1485 63.1641C54.3712 63.0553 54.4999 62.7235 54.4058 62.4856C54.0746 61.5632 53.8626 60.6086 53.5908 59.6551C53.4961 59.3873 53.2536 59.227 52.9839 59.2169Z" fill="#333184"/>
<path d="M13.3094 69.684C20.1331 68.5871 26.916 66.8919 33.6569 65.3621C34.2536 65.2315 34.1001 64.201 33.4877 64.287C26.5865 65.2356 19.9367 67.6622 13.1018 68.969C12.6092 69.0528 12.8315 69.7526 13.3094 69.684Z" fill="#333184"/>
<path d="M56.6575 57.8173C56.5682 57.8489 56.4786 57.8655 56.4193 57.8965C55.7647 58.133 55.9922 59.1172 56.5904 59.0764C56.6616 60.5277 57.2998 61.8639 59.0387 61.9672C60.223 62.0356 61.3523 61.5509 62.3134 60.8746C62.964 60.4136 63.8067 59.8143 64.0465 59.0013C64.8235 56.4265 59.774 57.087 57.4326 57.6236C57.1896 57.4333 56.7261 57.4717 56.6575 57.8173ZM62.9472 58.6618C62.9472 58.6618 62.4488 59.2548 62.3013 59.3773C61.6241 60.0185 60.7939 60.4828 59.9 60.7386C58.3652 61.1557 57.6562 60.0455 57.5286 58.7899C58.3928 58.5496 59.2889 58.4136 60.1713 58.3527C60.919 58.2942 62.3681 58.1032 62.9472 58.6618Z" fill="#333184"/>
<path d="M48.043 75.809C48.9846 78.188 43.8452 78.8501 42.0594 79.4664C39.2319 80.4461 36.4188 81.3955 33.5753 82.3156C30.7317 83.2356 27.8566 84.0664 24.9655 84.8376C23.7583 85.1589 22.5354 85.4356 21.3125 85.7124C20.9695 85.7934 17.9888 86.5812 18.4709 85.9136C18.6462 85.6708 18.3999 85.3009 18.1157 85.321C16.95 85.4469 17.0991 86.2379 17.2958 87.1778C17.3771 87.5357 17.7536 87.6487 18.0521 87.5983C28.8168 85.816 39.0611 81.767 49.3458 78.2862C49.7029 78.16 49.8322 77.8581 49.7658 77.4999C49.7378 76.7816 49.5457 76.0963 49.2044 75.4436C48.9516 74.7144 47.745 75.0657 48.043 75.809Z" fill="#333184"/>
<path d="M56.7301 74.1832C56.118 74.2841 56.2864 75.3143 56.8994 75.2583C59.7845 74.9814 62.6414 73.9713 65.1145 72.444C65.6181 72.1354 65.2572 71.2284 64.6775 71.4635C62.0323 72.5896 59.5821 73.7272 56.7301 74.1832Z" fill="#333184"/>
<path d="M45.7451 34.8786C36.0311 32.6586 25.1712 34.1431 15.9323 30.0426C16.5906 27.5299 18.6431 27.5825 21.2201 27.6557C23.887 27.7272 26.548 28.3079 29.1634 28.8446C33.3419 29.6973 37.6009 30.8631 41.8954 30.6805C42.6136 30.6525 42.58 29.6199 41.8753 29.5727C33.3005 29.0691 24.2102 24.906 15.6372 26.9781C15.3838 27.0426 15.2684 27.2843 15.2428 27.5243C15.1679 28.3493 15.0592 28.9652 14.9666 29.6408C14.5001 29.5145 14.0316 30.107 14.4576 30.4736C14.5945 30.591 14.7311 30.6933 14.8827 30.7954C14.9458 30.9739 15.1121 31.0608 15.3073 31.0872C18.5349 33.1851 23.1979 33.505 26.8299 33.9483C33.0437 34.7343 39.29 34.8308 45.4521 36.067C46.2033 36.2031 46.5118 35.0445 45.7451 34.8786Z" fill="#333184"/>
<path d="M9.37039 49.7639C9.97982 49.5132 9.73873 48.6041 9.08276 48.7657C8.09908 49.0232 7.08437 49.2212 6.08491 49.434C5.2493 49.5989 4.30863 49.7507 3.58378 50.243C3.06606 50.5968 3.52899 51.3522 4.07773 51.0577C5.66542 50.2503 7.72065 50.4526 9.37039 49.7639Z" fill="#333184"/>
<path d="M6.47885 57.962C6.23857 57.0978 5.96836 56.2342 5.63881 55.4016C5.43471 54.8811 4.62985 55.0904 4.78986 55.6565C5.0451 56.5205 5.24074 57.4004 5.58526 58.2328C5.81984 58.7826 6.65436 58.5579 6.47885 57.962Z" fill="#333184"/>
<path d="M18.848 5.02663C18.2364 5.98113 18.1225 7.13626 18.4115 8.20922C18.5555 8.71576 19.2699 8.47819 19.1712 7.98581C18.9902 7.09059 19.2149 6.26291 19.6651 5.49103C19.9847 4.94615 19.1679 4.49672 18.848 5.02663Z" fill="#333184"/>
<path d="M35.4651 8.94907C37.9503 9.74265 40.4518 10.6108 43.0748 10.743C43.6445 10.7776 43.7619 9.8171 43.1914 9.73758C40.6392 9.37949 38.1575 8.78051 35.6608 8.18181C35.1644 8.05602 34.983 8.79308 35.4651 8.94907Z" fill="#333184"/>
<path d="M39.1463 21.2065C38.066 21.0912 36.99 21.2156 35.9087 21.0405C35.3679 20.9454 35.1427 21.7432 35.6843 21.8831C36.7826 22.1627 38.0273 22.26 39.1625 22.1047C39.745 22.0192 39.7315 21.2707 39.1463 21.2065Z" fill="#333184"/>
</svg>
